<svg xmlns="http://www.w3.org/2000/svg" width="54" height="55" fill="none" viewBox="0 0 54 55">
  <path fill="#6DC400" d="M40.472 25.912c.065-.252.11-.507.142-.765.094-.722.001-1.448-.136-2.159-.07-.362-.143-.725-.218-1.086a32.62 32.62 0 0 0-.247-1.09c-.09-.367-.207-.726-.328-1.085-.243-.728-.57-1.428-.916-2.114a7.165 7.165 0 0 0-.239-.427c-.1-.168-.2-.336-.303-.502-.198-.32-.399-.638-.602-.954-.096-.149-.196-.295-.295-.443-.042-.06-.088-.119-.132-.178-.078-.105-.154-.213-.238-.313-.23-.277-.46-.557-.711-.816a16.115 16.115 0 0 0-.429-.427c-.143-.137-.292-.266-.441-.397-.051-.045-.105-.086-.159-.128-.114-.09-.226-.186-.345-.27-.144-.1-.285-.204-.434-.299a30.093 30.093 0 0 0-1.009-.614 8.39 8.39 0 0 0-1.026-.515c-.177-.072-.352-.146-.533-.21a12.574 12.574 0 0 0-.568-.181c-.36-.107-.723-.2-1.086-.29a17.92 17.92 0 0 0-1.07-.225c-.174-.032-.35-.051-.524-.076-.23-.033-.462-.052-.694-.075-.174-.017-.35-.023-.524-.034a8.343 8.343 0 0 0-.507-.02l-.302-.002c-.08 0-.16.002-.24.006-.189.01-.378.015-.566.03-.487.04-.973.08-1.454.165a6.826 6.826 0 0 0-1.038.279 9.481 9.481 0 0 0-.535.205 26.5 26.5 0 0 0-1.133.5c-.332.154-.655.327-.975.505a23.91 23.91 0 0 0-.49.283c-.163.097-.322.201-.482.305-.143.094-.28.195-.418.297-.166.123-.334.245-.495.374l-.286.23c-.055.044-.112.086-.164.133-.136.122-.28.24-.41.368-.258.253-.513.51-.77.765-.264.262-.53.522-.789.79-.253.26-.515.518-.749.797-.27.324-.527.656-.77 1-.203.287-.38.592-.559.895-.187.317-.357.644-.527.97-.082.156-.16.314-.24.472-.036.073-.068.15-.101.224-.05.113-.102.233-.138.352a4.84 4.84 0 0 0-.131.531 16.387 16.387 0 0 0-.182 1.693 22.76 22.76 0 0 0-.013 2.17c.02.402.083.804.144 1.202.053.352.118.698.212 1.042.095.35.229.69.356 1.028.136.363.283.724.459 1.07.163.318.342.63.525.938.181.304.376.598.588.882.131.177.27.35.418.513.113.126.235.243.352.366.24.252.47.512.71.763.172.18.353.354.535.525.182.172.351.353.51.546.193.254.375.516.545.785.208.327.37.673.526 1.026.178.422.348.85.48 1.288.141.469.234.954.305 1.438.046.345.093.69.146 1.035.054.343.12.684.175 1.027.113.695.182 1.401.373 2.082.021.074.042.148.068.22.048.134.104.265.16.396.112.262.285.5.471.714.15.171.342.31.521.452.179.14.364.272.555.395.139.09.297.162.447.228.226.1.453.202.686.285.191.068.391.12.592.15.14.02.28.047.42.06.19.016.377.025.567.023.727-.006 1.455-.027 2.182-.015.356.005.712.004 1.068.002.348-.001.693-.014 1.04-.031.172-.009.344-.013.515-.028a14.568 14.568 0 0 0 1.717-.262c.21-.046.41-.11.608-.194.147-.062.29-.133.421-.224 1.35-.938 1.398-2.359 1.43-3.858.008-.356.012-.712.021-1.069.009-.365.042-.727.084-1.09.015-.136.031-.271.048-.407.03-.203.064-.407.127-.604.07-.222.144-.44.228-.657.1-.216.209-.426.337-.629.133-.208.28-.404.43-.6.246-.298.486-.6.726-.904.256-.323.5-.656.745-.987.217-.292.422-.592.63-.891.19-.276.377-.554.553-.838.387-.621.775-1.243 1.119-1.889.355-.666.701-1.337 1.01-2.026.162-.362.288-.738.417-1.113a6.41 6.41 0 0 0 .146-.49l.081-.32ZM27.896 43.87c-.306.001-.613-.001-.92-.003a60.032 60.032 0 0 0-1.222 0h-.083a32.895 32.895 0 0 0 .132-3.081c.006-.993-.013-1.987.021-2.98.034-.986.05-1.975-.003-2.96a13.47 13.47 0 0 0-.055-.768 9.376 9.376 0 0 0-.145-.911c-.05-.242-.113-.482-.176-.721-.03-.112-.063-.222-.095-.333a5.844 5.844 0 0 0-.106-.347c-.085-.24-.173-.48-.265-.718-.106-.274-.228-.543-.348-.811-.207-.46-.421-.916-.669-1.355-.238-.423-.512-.825-.774-1.234-.27-.42-.519-.853-.788-1.273l-.09-.14a1.11 1.11 0 0 0 .567-.193c.097-.068.19-.142.273-.226.076-.077.14-.166.2-.255.085.061.173.116.269.16.153.073.313.139.481.169.634.111 1.351.01 1.827-.45.088-.086.158-.185.216-.292l.047.037c.082.064.164.128.25.187.095.064.21.105.316.149.13.053.266.094.404.12.164.031.337.056.504.034a1.32 1.32 0 0 0 .307-.064 2.07 2.07 0 0 0 .209-.09c.066-.033.131-.089.186-.132a.799.799 0 0 0 .16-.17 1.57 1.57 0 0 0 .515.393c.183.082.389.145.593.12.063-.006.126-.015.188-.028.07-.014.149-.054.208-.08a1.968 1.968 0 0 0 .518-.33c.033.091.073.179.119.262a.65.65 0 0 0 .058.085c.046.059.086.113.137.166a1.27 1.27 0 0 0 .738.367c.112.017.225.032.338.042a.973.973 0 0 0 .146.003l-.059.12c-.102.212-.2.427-.308.637-.235.459-.497.902-.748 1.353-.235.425-.483.843-.705 1.274-.226.441-.425.895-.648 1.338-.128.255-.254.51-.365.772a7.574 7.574 0 0 0-.258.707c-.145.466-.24.951-.317 1.432a12.523 12.523 0 0 0-.172 1.624c-.015.5-.016 1.002-.018 1.503-.002.508-.016 1.015-.03 1.523-.013.5-.012 1-.001 1.501.01.48-.003.96-.014 1.44-.01.39-.024.78-.028 1.17-.002.187-.006.373-.009.559l-.002.284c0 .09.003.183-.003.274l-.01.076c0 .017.005.033.007.05-.167.004-.333.013-.5.014Zm11.562-18.799c-.071.452-.2.893-.333 1.33-.093.303-.21.598-.323.894a31.436 31.436 0 0 1-2.05 3.776c-.543.873-1.151 1.703-1.766 2.528-.199.254-.396.508-.601.757-.26.315-.524.633-.742.978-.101.158-.194.32-.28.486a6.586 6.586 0 0 0-.265.611c-.066.169-.118.344-.172.517a2.96 2.96 0 0 0-.109.481c-.057.4-.106.802-.148 1.204-.037.352-.044.705-.05 1.058-.005.342-.01.684-.021 1.025-.024.726-.068 1.649-.504 2.28a2.01 2.01 0 0 1-.242.218 2.632 2.632 0 0 1-.43.255 4.713 4.713 0 0 1-.725.18 16.91 16.91 0 0 1-.709.12 8.117 8.117 0 0 1-.44.043c.007-.065.018-.13.018-.197a94.082 94.082 0 0 1 .005-.51l.01-.661c.008-.479.024-.957.034-1.436.005-.243.011-.485.01-.728-.002-.254-.01-.508-.013-.762a34.7 34.7 0 0 1 .023-1.442c.016-.514.016-1.027.018-1.54.002-.5.004-1.002.04-1.501.011-.172.03-.343.05-.515.063-.418.138-.834.23-1.246.089-.4.212-.79.367-1.17.196-.427.415-.843.614-1.268.11-.233.22-.465.339-.694.114-.223.24-.44.363-.659.244-.432.482-.867.728-1.297.246-.431.46-.876.675-1.323.225-.467.462-.929.689-1.396.133-.274.255-.555.371-.837a2.13 2.13 0 0 0 .15-.487 1.5 1.5 0 0 0 .024-.33.67.67 0 0 0-.084-.316.583.583 0 0 0-.357-.279c-.205-.073-.436.011-.588.15a.707.707 0 0 0-.147.198c-.047.094-.086.192-.125.29l-.07.17c-.119.26-.255.508-.425.74a1.68 1.68 0 0 1-.167.176 1.569 1.569 0 0 1-.165.097c-.031.01-.062.019-.094.026a1.555 1.555 0 0 1-.177-.005 1.505 1.505 0 0 1-.165-.038.882.882 0 0 1-.027-.016.986.986 0 0 1-.02-.02.968.968 0 0 1-.027-.046c-.074-.211-.108-.438-.145-.657l-.048-.3c-.03-.196-.044-.407-.152-.578a.582.582 0 0 0-.209-.207l-.139-.058a.594.594 0 0 0-.31 0l-.157.066a.58.58 0 0 0-.209.206 1.5 1.5 0 0 0-.088.21l-.047.133a3.2 3.2 0 0 1-.317.617c-.03.033-.06.063-.093.092a1.81 1.81 0 0 1-.19.114 1.26 1.26 0 0 1-.077-.047 1.126 1.126 0 0 1-.079-.079 2.102 2.102 0 0 1-.174-.322 19.514 19.514 0 0 1-.076-.19l-.052-.135a3.595 3.595 0 0 0-.074-.17.383.383 0 0 0-.1-.137.352.352 0 0 0-.13-.105c-.108-.063-.19-.069-.311-.08a.583.583 0 0 0-.503.285c-.076.14-.1.3-.143.452a2.047 2.047 0 0 1-.065.186 2.22 2.22 0 0 1-.146.265.574.574 0 0 1-.015.016l-.007.003a1.185 1.185 0 0 1-.033.01c-.036 0-.072 0-.109-.003a1.959 1.959 0 0 1-.307-.085 1.34 1.34 0 0 1-.18-.107 2.17 2.17 0 0 1-.257-.237 2.25 2.25 0 0 1-.198-.413l-.05-.136c-.05-.133-.093-.28-.207-.374l-.118-.09a.584.584 0 0 0-.797.207.533.533 0 0 0-.085.36c.003.03.009.06.012.092.006.048.012.096.014.144.002.076 0 .15-.008.223a2.401 2.401 0 0 1-.11.395 1.262 1.262 0 0 1-.06.114.91.91 0 0 1-.04.037 1.11 1.11 0 0 1-.088.05c-.08.028-.163.05-.247.067a2.215 2.215 0 0 1-.355-.003 1.332 1.332 0 0 1-.177-.049 1.647 1.647 0 0 1-.217-.125 1.797 1.797 0 0 1-.184-.178 1.602 1.602 0 0 1-.068-.112 3.535 3.535 0 0 0-.057-.1.77.77 0 0 0-.25-.245.576.576 0 0 0-.45-.058.604.604 0 0 0-.348.265c-.09.136-.1.307-.134.464a1.465 1.465 0 0 1-.06.197 1.436 1.436 0 0 1-.09.153 1.25 1.25 0 0 1-.09.088.77.77 0 0 1-.024.015 1.065 1.065 0 0 1-.019.005 1.295 1.295 0 0 1-.127 0 1.095 1.095 0 0 1-.093-.026 1.763 1.763 0 0 1-.194-.114 1.38 1.38 0 0 1-.126-.126 1.289 1.289 0 0 1-.072-.126 3.197 3.197 0 0 1-.02-.055 3.284 3.284 0 0 1-.06-.265 4.451 4.451 0 0 1-.016-.253 2.491 2.491 0 0 0-.03-.284.864.864 0 0 0-.027-.123.657.657 0 0 0-.16-.272.56.56 0 0 0-.267-.15.596.596 0 0 0-.31 0 .568.568 0 0 0-.348.265 1.39 1.39 0 0 0-.068.155 1.666 1.666 0 0 0-.03.22.81.81 0 0 0 .007.154c.013.109.028.218.046.326a2.603 2.603 0 0 0 .135.521c.056.207.13.407.207.608.102.261.212.526.35.771.13.23.269.452.41.674.269.418.516.848.784 1.266.264.413.538.818.779 1.245.297.527.543 1.08.786 1.632.178.434.346.873.474 1.325.14.496.268.994.35 1.503.1.963.113 1.936.097 2.903-.008.49-.037.98-.04 1.47-.005.5-.004 1-.004 1.499-.001.529-.003 1.058-.009 1.587a36.38 36.38 0 0 1-.057 1.531c-.017.308-.044.615-.07.922-.086-.004-.17-.007-.256-.014a5.641 5.641 0 0 1-.434-.081 3.624 3.624 0 0 1-.514-.175 6.79 6.79 0 0 1-.537-.256 4.267 4.267 0 0 1-.976-.766 2.82 2.82 0 0 1-.256-.45 6.698 6.698 0 0 1-.252-.96c-.064-.332-.106-.667-.156-1.001-.101-.67-.23-1.334-.324-2.004a17.686 17.686 0 0 0-.17-1.1 7.769 7.769 0 0 0-.256-1.013 14.955 14.955 0 0 0-.383-1.016c-.16-.376-.315-.758-.515-1.116a9.214 9.214 0 0 0-.559-.859 6.33 6.33 0 0 0-.701-.849c-.248-.243-.503-.479-.743-.73-.234-.245-.456-.502-.692-.745a9.35 9.35 0 0 1-.516-.563c-.255-.338-.484-.69-.698-1.056a12.207 12.207 0 0 1-.617-1.168c-.08-.192-.155-.386-.228-.582-.09-.242-.182-.485-.256-.733a7.215 7.215 0 0 1-.184-.753 15.738 15.738 0 0 1-.108-.68 9.38 9.38 0 0 1-.079-.91 21.55 21.55 0 0 1 0-1.017 20.8 20.8 0 0 1 .035-1.029c.02-.328.054-.656.09-.983a4.125 4.125 0 0 1 .154-.733c.023-.08.052-.156.08-.233.221-.483.478-.952.738-1.415.14-.25.284-.5.441-.742.079-.12.156-.24.239-.358.085-.12.173-.24.262-.358.092-.117.186-.233.282-.348.108-.129.224-.251.339-.374.262-.278.532-.55.802-.82l.778-.778c.13-.13.261-.258.392-.386.13-.129.273-.247.41-.37.07-.063.148-.12.222-.18l.261-.21.364-.268a7.22 7.22 0 0 1 .371-.256c.282-.183.568-.355.862-.519.132-.074.264-.15.4-.219.156-.08.31-.166.47-.24.316-.147.634-.29.954-.432.158-.066.317-.133.479-.188.137-.047.274-.098.413-.14.299-.089.603-.153.91-.203l.388-.045c.167-.02.336-.027.504-.04.138-.012.276-.018.414-.025.14-.007.28-.016.42-.015.307.001.613.006.92.026.154.01.31.015.463.03l.48.049.365.052c.16.022.317.06.475.09.34.063.674.15 1.008.235.32.08.636.174.952.267.26.078.512.178.763.28.192.093.383.186.57.287.206.111.407.228.608.345.174.102.346.21.516.318.09.057.182.112.27.173l.294.207.212.167c.086.068.167.142.25.214.162.142.325.288.476.444.173.178.343.357.51.542.137.153.267.311.399.47.082.108.166.216.242.33.104.154.208.308.309.465.204.317.405.637.603.958.181.292.364.588.519.895.164.326.324.652.468.987l.117.272c.122.327.245.655.346.99.053.179.112.357.157.539.044.18.088.358.129.539a43.996 43.996 0 0 1 .455 2.286c.051.413.06.83.013 1.244ZM25.987 5.861a7.01 7.01 0 0 0 .008 1.028l.02.153a.577.577 0 0 0 .562.423.588.588 0 0 0 .412-.168c.1-.099.186-.264.171-.408-.053-.507-.004-1.016.018-1.523.021-.484.04-.969.026-1.454-.022-.737-.046-1.474-.065-2.21a.586.586 0 0 0-.582-.577c-.312 0-.591.262-.583.576.014.558.032 1.116.048 1.675.015.513.033 1.026.01 1.54-.013.315-.032.63-.045.945Zm11.319 6.566a.592.592 0 0 0 .797-.207c.137-.23.3-.45.452-.671l.457-.661.37-.533c.15-.215.295-.435.45-.647.44-.604.88-1.208 1.33-1.805l.059-.137a.575.575 0 0 0-.563-.73.585.585 0 0 0-.154.021l-.14.058a.583.583 0 0 0-.209.207c-.427.566-.844 1.138-1.262 1.711-.273.375-.532.761-.797 1.143-.158.228-.317.456-.474.685l-.27.392c-.086.127-.177.254-.255.386a.578.578 0 0 0 .209.788Zm12.334 8.834a.581.581 0 0 0-.269-.344l-.139-.058a.606.606 0 0 0-.31 0c-.727.12-1.454.243-2.182.365a22.48 22.48 0 0 0-1.386.275c-.22.05-.442.1-.656.174a.612.612 0 0 0-.348.265.574.574 0 0 0 .209.788.573.573 0 0 0 .449.058c.244-.085.501-.142.754-.197.242-.052.483-.103.726-.148.564-.104 1.13-.199 1.695-.294l1.05-.175c.141-.023.278-.147.348-.265a.575.575 0 0 0 .058-.444Zm-3.001 14.012c-1.179-.537-2.357-1.074-3.534-1.614-.644-.295-1.291-.586-1.932-.889l-.14-.058a.602.602 0 0 0-.309 0 .575.575 0 0 0-.14 1.053c.91.43 1.826.843 2.74 1.26l2.726 1.243.14.058a.592.592 0 0 0 .658-.265.574.574 0 0 0 .058-.444c-.036-.132-.137-.285-.267-.344Zm-34.626-2.958a.61.61 0 0 0-.294.076L9.688 33.5c-.401.22-.802.44-1.199.666-.278.159-.565.31-.828.492l-.118.09a.575.575 0 0 0-.091.699.587.587 0 0 0 .348.265c.14.038.326.027.449-.058.204-.141.424-.262.64-.385.221-.127.443-.253.667-.376.486-.27.974-.537 1.462-.804l1.29-.704a.577.577 0 0 0 .209-.789.58.58 0 0 0-.504-.282ZM8.82 22.883l.14.058a.59.59 0 0 0 .658-.265.575.575 0 0 0 .059-.444c-.037-.131-.137-.285-.268-.344l-3.362-1.52-.83-.377-.14-.058a.602.602 0 0 0-.31 0 .575.575 0 0 0-.407.709c.037.132.138.284.268.344.941.43 1.884.854 2.827 1.28l1.366.617Zm5.61-11.959c.113.114.223.23.334.344.103.106.21.212.304.327l.027.035a.586.586 0 0 0 .974-.254l.021-.153a.567.567 0 0 0-.08-.291 4.34 4.34 0 0 0-.22-.266c-.046-.051-.096-.101-.144-.152-.089-.094-.18-.187-.27-.28-.19-.196-.382-.39-.574-.584-.16-.164-.322-.326-.483-.488-.155-.156-.306-.315-.465-.466a241.31 241.31 0 0 0-2.013-1.908.59.59 0 0 0-.824 0c-.22.217-.231.6 0 .815.57.533 1.137 1.07 1.702 1.61.366.35.721.71 1.078 1.068l.634.643Zm17.657 34.792a.561.561 0 0 0-.288-.075.803.803 0 0 0-.16.017c-.556.114-1.116.202-1.676.292l-1.434.228c-.398.063-.796.123-1.195.18-.473.058-.945.114-1.418.164-.518.056-1.038.1-1.554.164-.214.027-.428.051-.64.09a.564.564 0 0 0-.348.266.574.574 0 0 0 .209.788l.14.058a.594.594 0 0 0 .309 0c.073-.014.146-.025.22-.035.464-.056.93-.1 1.395-.15.545-.058 1.089-.12 1.633-.186a40.84 40.84 0 0 0 1.572-.23c.49-.079.98-.154 1.469-.233.544-.088 1.087-.174 1.627-.285a.568.568 0 0 0 .348-.264.575.575 0 0 0-.209-.789Zm-.451 2.514a251.795 251.795 0 0 0-2.427.248l-1.937.211-.072.008-.012.002h-.002a.258.258 0 0 0-.017.002l-.017.002a.602.602 0 0 0-.087.012l-.028.003-.008.002-.712.094-.853.113-.045.006c-.04.006-.082.01-.123.017h-.004a1.19 1.19 0 0 0-.017.003l-.16.023c-.333.048-.667.092-.999.145l-.552.087c-.09.015-.179.033-.268.05-.13.024-.261.045-.385.094l-.139.059a.574.574 0 0 0 0 .995l.14.058a.594.594 0 0 0 .309 0c.137-.055.284-.077.428-.103.08-.015.16-.031.241-.044l.634-.1c.311-.05.624-.091.937-.135a.574.574 0 0 0 .142-.02l1.539-.205.036-.005.01-.001.02-.002a.598.598 0 0 0 .083-.01l.707-.076 1.647-.18c.652-.071 1.305-.134 1.958-.199l.155-.02a.582.582 0 0 0 .427-.556.584.584 0 0 0-.55-.578Zm-6.19 1.852h.004-.005Zm5.748.546-.14-.058a.597.597 0 0 0-.31 0c-.779.114-1.558.223-2.338.332-.373.045-.746.092-1.12.135-.422.048-.847.105-1.272.129a.576.576 0 0 0-.412.984.574.574 0 0 0 .412.168c.28-.016.56-.05.84-.08.223-.024.447-.049.67-.076.554-.068 1.107-.137 1.659-.214a290.32 290.32 0 0 0 1.871-.267l.14-.058a.574.574 0 0 0 0-.995Z"/>
</svg>
