<svg xmlns="http://www.w3.org/2000/svg" width="48" height="49" fill="none" viewBox="0 0 48 49">
  <path fill="#6DC400" d="M7.4 6.4c-1.3 1.7-3.3 3.1-4.1 5.1-1.2 3-2.1 6.3-2.5 9.5-1 7.8.8 13.8 5.9 19.7 8.2 9.6 25 8.3 34.2.5 4.7-4 6-9.2 6.6-15.2.7-7.1-.9-11.8-5.5-17.1C37.6 3.7 32.7 1 26 .8c-6.9-.4-13.6.3-18.8 5.1-.6.6.3 1.5.9.9 4.5-4.2 10.2-4.9 16.2-4.9 6.7 0 11.2 1.9 15.8 6.7 4.5 4.7 6.5 9.2 6.2 15.7-.2 6.7-2 12.7-7.5 16.8C31 47 15.9 48.8 8.7 41c-5-5.4-7.4-10.9-6.9-18.3.4-6.3 2.7-10.7 6.5-15.4.5-.7-.4-1.6-.9-.9Z"/>
  <path fill="#6DC400" d="M7.6 7.4c5.7.9 6.4 14 6.3 18.1-.1 5.7-2.4 11.2-5.5 15.9-.5.7.6 1.3 1 .6 4.1-6 5.9-12.7 5.7-20-.1-4.3-1.9-14.9-7.2-15.8-.8-.1-1.1 1.1-.3 1.2Z"/>
  <path fill="#6DC400" d="M10.4 14.1c0-.9 1.7-1.7 2.3-2 .9-.6 1.9-1.1 2.9-1.5.7-.3.4-1.5-.3-1.2-1.4.6-2.6 1.2-3.9 2-1 .6-2.3 1.4-2.3 2.7.1.8 1.3.9 1.3 0Zm.4 4.1c1-.4 1.9-.8 2.9-1.2 1.2-.5 2.5-1.2 3.8-1 .8.1 1.1-1.1.3-1.2-2.5-.4-5.2 1.3-7.4 2.2-.7.3-.4 1.5.4 1.2Zm.9 3.2c2.1.1 4.1-.8 6.2-.7.8 0 .8-1.2 0-1.3-2.1-.1-4.1.8-6.2.7-.8 0-.8 1.3 0 1.3Zm.6 3.9h5.5c.8 0 .8-1.3 0-1.3h-5.5c-.8 0-.8 1.3 0 1.3Zm-.7 2.8c1.8.4 3.6 1 5.3 1.8.7.3 1.4-.7.6-1.1-1.8-.9-3.7-1.5-5.6-1.9-.7-.2-1 1-.3 1.2Zm-.9 2.6c1.9.5 3.7 1.3 5.4 2.4.7.4 1.3-.7.6-1.1-1.8-1.1-3.7-1.9-5.7-2.5-.7-.2-1.1 1-.3 1.2Zm-1.7 4c.7.2 1.3.9 1.8 1.4.6.5 1.2 1.1 1.8 1.6.6.5 1.5-.4.9-.9-.7-.7-1.5-1.3-2.2-2-.6-.5-1.2-1.1-1.9-1.3-.9-.2-1.2 1-.4 1.2ZM37.9 6.2c-3.5 5.4-6.7 10.6-6.8 17.1-.1 7.4 2.5 12.5 6.4 18.7.4.7 1.5.1 1.1-.6-3.3-5.3-6-10-6.2-16.4-.2-7 2.8-12.5 6.6-18.2.4-.7-.7-1.3-1.1-.6Z"/>
  <path fill="#6DC400" d="M32.1 38.3c1.8-.9 3.4-1.9 5.1-2.9.7-.4 0-1.5-.6-1.1-1.6 1.1-3.3 2.1-5.1 2.9-.8.4-.1 1.4.6 1.1Zm-2.3-4.9c1.8-.5 3.6-1.2 5.2-2.1.7-.4.1-1.4-.6-1.1-1.6.8-3.2 1.4-4.9 2-.8.3-.5 1.5.3 1.2Zm-1.9-3.8c2-.3 3.9-.8 5.8-1.3.8-.2.4-1.4-.3-1.2-1.9.5-3.9.9-5.8 1.3-.8.2-.4 1.4.3 1.2Zm-.4-4.8c2 .4 4.1.5 6.1.3.8-.1.8-1.3 0-1.3-2 .1-3.9 0-5.8-.3-.8-.1-1.1 1.1-.3 1.3Zm.6-5.2c1.9.7 3.8 1.3 5.7 1.8.8.2 1.1-1 .3-1.2-1.9-.5-3.8-1.1-5.7-1.8-.7-.2-1 1-.3 1.2Zm1.4-4.4c.7.6 1.6.9 2.4 1.3 1 .4 1.9.9 2.9 1.3.7.3 1.4-.8.6-1.1-.9-.4-1.7-.8-2.6-1.1-.8-.4-1.8-.6-2.5-1.2-.5-.6-1.4.3-.8.8Zm1.5-4.5c2.7.9 5.2 2.2 7.5 3.8.7.5 1.3-.6.6-1.1-2.4-1.7-5-3-7.8-4-.7-.2-1 1-.3 1.3Z"/>
</svg>
