<svg xmlns="http://www.w3.org/2000/svg" width="51" height="53" fill="none" viewBox="0 0 51 53">
  <path fill="#6DC400" d="M11.475 13.144c8.181 0 16.469.106 24.65.106.638 0 .85 20.564 1.063 22.684.212 2.12-9.67 1.166-11.05 1.166-4.038 0-7.97 0-12.007-.106-4.144.106-2.444-21.094-2.337-24.168 0-.848-1.275-.848-1.382 0a407.059 407.059 0 0 0 0 16.112c0 2.014-.85 7.632.744 9.116 1.381 1.378 7.119.318 9.031.318 5.95 0 12.007.106 17.957.106.319 0 .744-.318.637-.636-.637-5.194-.85-10.388-.743-15.582 0-2.014 1.275-7.738-.107-9.434-1.806-2.12-5.418-1.06-7.862-1.06-6.163 0-12.325-.106-18.488-.106-.956.106-.956 1.484-.106 1.484Z"/>
  <path fill="#6DC400" d="M19.125 20.67c1.275 0 10.306-.848 10.306.53 0 2.862-.531 6.042.106 8.798.213 1.06-4.25.742-4.675.742h-5.63c-2.02 0-.32-9.646-.107-10.706.106-.848-1.169-1.166-1.275-.318-.319 1.908-.638 3.816-.744 5.724-.106 1.696-.425 4.134.106 5.724.213.636.425.954 1.17.954h6.587c1.38 0 6.375 1.06 6.162-1.484-.212-1.908-.212-3.816-.212-5.724 0-1.696.318-3.604-.107-5.194-.106-.212-.212-.424-.425-.424-1.38-.318-2.975 0-4.356 0-2.231.106-4.462.106-6.587.212-1.17-.212-1.17 1.166-.32 1.166Zm-17.85-1.696a49.9 49.9 0 0 1 5.631 0c.85 0 .85-1.272 0-1.378H1.275c-.85.106-.85 1.484 0 1.378Zm-.213 5.406c2.02.106 4.038-.106 6.057-.424.85-.106.53-1.378-.32-1.272a25.128 25.128 0 0 1-5.63.318c-.957.106-.957 1.378-.107 1.378Zm.85 4.134h3.72c.85 0 .85-1.378 0-1.378h-3.72c-.85.106-.85 1.378 0 1.378Zm-.318 4.664c.743.318 1.487.212 2.337.212h3.081c.85 0 .85-1.272 0-1.378H4.675c-.85 0-1.913.106-2.763-.212-.743-.212-1.062 1.06-.318 1.378ZM16.893 42.4l.32 5.724c0 .848 1.38.848 1.38 0l-.318-5.724c-.106-.848-1.488-.848-1.381 0Zm4.569.212c.107 2.014.32 4.028.85 6.042.213.848 1.488.424 1.275-.318-.425-1.908-.743-3.71-.85-5.618 0-.954-1.38-.954-1.275-.106Zm4.569-.53c.425 1.908.744 3.922.956 5.936.107.848 1.382.848 1.382 0-.213-2.12-.638-4.134-.957-6.254-.212-.848-1.487-.53-1.38.318Zm4.569 0c-.106 1.908.106 3.816.531 5.618.213.848 1.488.424 1.275-.318-.425-1.696-.637-3.498-.531-5.3.106-.848-1.169-.848-1.275 0Zm10.2-22.896c2.656-.318 5.206-.636 7.862-.954.85-.106.85-1.378 0-1.272-2.656.318-5.206.636-7.862.954-.85 0-.85 1.378 0 1.272Zm.956 4.664c2.338-.318 4.675-.424 6.906-.424.85 0 .85-1.378 0-1.378-2.337 0-4.675.106-6.906.424-.85.212-.85 1.484 0 1.378Zm.532 4.452h6.268c.85 0 .85-1.378 0-1.378h-6.268c-.957 0-.957 1.378 0 1.378Zm.212 4.982c2.656 0 5.1-.53 7.65-1.378.744-.318.425-1.59-.319-1.272-2.337.848-4.781 1.378-7.225 1.378-.956 0-.956 1.272-.106 1.272ZM30.812 2.65c0 1.908-.106 3.816-.106 5.724 0 .848 1.275.848 1.381 0 0-1.908.107-3.816.107-5.724-.107-.848-1.382-.848-1.382 0Zm-4.887.848c.744 1.908.531 3.922.212 5.936-.106.848 1.169 1.166 1.275.318.319-2.226.638-4.452-.212-6.678-.319-.742-1.594-.424-1.275.424Zm-4.356-1.272a57.196 57.196 0 0 1-1.275 5.83c-.213.848 1.062 1.166 1.275.318.425-1.908.85-3.922 1.275-5.83.106-.742-1.169-1.166-1.275-.318Zm-5.738.636c.106 2.014-1.487 3.604-.85 5.618.213.848 1.488.424 1.275-.318-.531-1.802.956-3.498.956-5.3-.106-.848-1.38-.848-1.38 0Z"/>
</svg>
