<svg xmlns="http://www.w3.org/2000/svg" width="37" height="46" fill="none" viewBox="0 0 37 46">
  <path fill="#6DC400" d="M35.132 20.076c.878-.377 1.162-1.965 1.195-2.87.066-1.835-.4-4.01-1.569-5.46-.294-.365-.838-.26-1.147 0-1.548 1.3-2.992 2.758-4.118 4.445a64.51 64.51 0 0 1-3.06-2.285.464.464 0 0 0 .477-.179c2.327-2.949 4.536-5.915 7.289-8.496a.8.8 0 0 0 .255-.453c.389-.29.578-.892.169-1.38-3.47-4.15-8.784-4.46-12.923-1.14-4.637 3.72-4.996 10.05-4.175 15.472-.005.008-.014.011-.02.02-1.998 3.015-5.003 5.144-7.753 7.418-2.443 2.02-4.458 4.577-6.492 6.998-3.184 3.79-4.803 6.796-1.24 10.657 3.223 3.492 5.927 4.598 9.268.787 2.44-2.784 4.86-5.662 7.164-8.563 1.384-1.743 2.731-3.51 4.158-5.22.699-.836 1.941-2.696 2.935-3.146.01-.004.015-.01.024-.014 2.231.102 4.674.066 6.732-.817 1.988-.852 3.984-2.901 3.406-5.248-.085-.343-.318-.498-.575-.526Zm-1.158-6.578c.36.732.663 1.789.753 2.791-.525-.619-.995-1.29-1.471-1.948a.302.302 0 0 0-.16-.112c.285-.251.576-.496.878-.73ZM31.8 15.445c.471.762.926 1.535 1.413 2.288.213.329.476.815.81 1.164a.865.865 0 0 0-.128.137c-.09-.064-.186-.124-.278-.186.107-.086.157-.226.053-.374-.342-.487-.839-.864-1.231-1.315-.368-.422-.71-.866-1.067-1.298.14-.143.287-.276.428-.416Zm-.822.828c.31.432.61.871.924 1.3.09.122.183.25.28.378-.4-.237-.795-.47-1.164-.708-.198-.128-.382-.268-.577-.399.178-.193.358-.381.537-.571Zm2.175 6.937c-.675.792-1.71 1.168-2.666 1.478-1.515.492-3.102.618-4.672.826-.236-.331-.674-.541-1.142-.327-1.604.733-3.012 3.118-4.118 4.455-1.994 2.41-3.815 4.955-5.838 7.344-1.55 1.83-3.096 3.58-4.594 5.456-2.712 3.397-5.29 1.016-7.524-1.397-3.472-3.75 3.692-9.458 6.114-12.256 3.234-3.736 8.191-5.614 9.846-10.58.195-.112.341-.3.333-.562-.126-4.012-.287-7.925 1.789-11.521 2.828-4.901 8.242-5.442 12.145-1.947a39.37 39.37 0 0 0-6.85 8.827c-.127.225-.072.466.063.647a.475.475 0 0 0-.48.783c1.296 1.53 2.957 2.782 4.531 4.01 1.212.945 2.532 2.08 3.95 2.732-.22.714-.351 1.403-.887 2.032Zm.544-6.01c-.502-.672-.965-1.372-1.449-2.057a.283.283 0 0 0-.07-.067c.178-.171.362-.336.543-.503.008.022.011.043.025.066.41.671.826 1.338 1.276 1.983.199.285.419.654.68.962-.035.21-.081.409-.152.587-.287-.334-.616-.654-.853-.97Z"/>
</svg>
