<svg xmlns="http://www.w3.org/2000/svg" width="46" height="48" fill="none" viewBox="0 0 46 48">
  <path fill="#6DC400" d="M14.9 11c-2.3 1.4-6.7 2.9-8.2 5.3-1.9 2.9-2.3 6.7-2.9 10.1-.4 2.2-.9 4.3-1.6 6.4-.2.5-1.5 2.8-1.5 4 0 1.4 3.5 3 4.4 3.6.4.3.8 0 .9-.4 1.4-4 4.2-7.1 6.3-10.7l-1.2-.3c-.2 3.6-.2 7.1-.1 10.6.1 2.2-.3 5.3 1.1 7.2 1.2 1.6 10.3 1 11.7-.3.9-.9.4-3.9.4-4.9V28.7c0-2.3.4-5.7-1-7.7-2.3-3.4-5.1-6.3-6.9-10-.4-.7-1.4-.1-1.1.6 1.9 3.8 5.9 7.3 7.4 11.2 1.6 4.1.4 10.8.4 15.2 0 1.9 1 7.8-2.3 8.1-2.4.2-7.8 1.3-8.2-2.8-.4-4.7-.4-9.5-.2-14.2 0-.6-.9-.8-1.2-.3-1.6 2.9-3.8 5.5-5.4 8.5-1.9 3.6-3.3-1.7-2.4-4.1 1.4-3.6 1.7-7.6 2.6-11.3 1.2-5.3 5.2-7.1 9.6-9.7.7-.5.1-1.6-.6-1.2Z"/>
  <path fill="#6DC400" d="M22.9 21.4c2.3-3.5 6.3-10.3 11.8-7.9 4.7 2.1 4.6 9.2 5.9 13.5.3 1.1.8 2.4 1.3 3.5.2.5.5 1.1.7 1.6 1.5 1.8.9 3.4-1.9 4.6-2.5-3.3-5-6.7-7.3-10.2-.4-.6-1.3-.2-1.1.5.9 4.7 1.5 9.4 1.8 14.2.2 2.8-1.1 4-3.8 4.3-1.2.1-5.5 1.1-6.4.1-.5-.6-1.4.3-.9.9 1.2 1.5 3.7.5 5.3.4 1.6-.1 5.6.4 6.8-.8 1.3-1.3.2-5.2.1-6.6-.3-4.3-1-8.5-1.7-12.7-.4.2-.8.3-1.1.5 2.3 3.5 4.7 6.9 7.3 10.2.9 1.2 1.3 2.3 2.7 1.9 6.1-1.8.4-9.7-.6-12.6-2.1-6.2-.7-12.5-8-15-5.5-1.9-9.4 5-12 9.1-.4.5.7 1.2 1.1.5Z"/>
  <path fill="#6DC400" d="M15.8 11.7c4.8-1 10.7-1.5 15.1 1.1.7.4 1.3-.7.6-1.1-4.7-2.7-10.8-2.3-16-1.2-.8.2-.5 1.4.3 1.2Z"/>
  <path fill="#6DC400" d="M23.2 9.9c0-.7-.2-3.3.4-3.7.5-.4 1-.5 1.4-1 .9-.9.8-2.2.3-3.2C24-.6 20.6.8 19.9 3c-.2.8 1 1.1 1.2.3.6-1.9 3.7-1.9 3.3.5-.2 1.1-1.2 1-1.8 1.6-.9 1-.6 3.3-.6 4.5-.1.8 1.2.8 1.2 0Z"/>
</svg>
