<svg xmlns="http://www.w3.org/2000/svg" width="54" height="55" fill="none" viewBox="0 0 54 55">
  <path fill="#6DC400" d="M42.247 39.28c-.341-.363-.69-.618-1.065-.78a2.543 2.543 0 0 0-2.492.304c-.5.377-.814 1.087-.841 1.898-.027.82.245 1.557.727 1.972.413.357.974.548 1.581.548.14 0 .282-.01.427-.03.779-.112 1.465-.51 1.88-1.09.487-.68.56-1.6.183-2.29a2.679 2.679 0 0 0-.4-.532Zm-.658 2.186c-.245.341-.667.577-1.158.647-.45.066-.885-.034-1.154-.266-.228-.196-.365-.632-.35-1.11.016-.468.176-.884.41-1.06a1.474 1.474 0 0 1 1.422-.173c.237.101.466.273.703.526.114.121.19.22.24.31.178.322.13.785-.113 1.126Zm-22.341-5.334c-.965-1.07-2.544-1.506-3.834-1.056-1.76.611-2.272 2.224-1.997 3.55.279 1.353 1.43 2.652 3.123 2.652.088 0 .178-.003.27-.011 1.502-.12 2.827-1.376 3.08-2.92.081-.49.05-.94-.092-1.335a2.67 2.67 0 0 0-.55-.88Zm-.422 2.036c-.172 1.048-1.095 1.932-2.102 2.013-1.27.102-2.059-.85-2.25-1.777-.172-.835.077-1.877 1.292-2.3.898-.31 1.999.002 2.683.76.165.184.274.354.335.52.078.217.092.48.042.784Zm11.558-24.446c.054-.216.18-.723-.185-1.091-.256-.258-.592-.268-.752-.273-2.608-.087-4.757-.068-6.764.056-.771.048-1.732.107-1.756 1.602-.011.746.02 1.5.052 2.23.015.364.03.728.04 1.09.036 1.276.174 2.554.307 3.792l.037.344c.049.454.199 2.298.172 2.769a.545.545 0 0 0 .387.764c1.181.231 2.463.347 3.863.347a32.86 32.86 0 0 0 4.344-.314.542.542 0 0 0 .467-.571 419.06 419.06 0 0 1-.368-7.927c-.032-.893-.069-1.907.156-2.818Zm-7.766 10.3c.01-.494-.035-1.305-.18-2.667l-.037-.345c-.13-1.215-.266-2.472-.301-3.705-.01-.368-.026-.737-.042-1.106a38.657 38.657 0 0 1-.05-2.167c.007-.486.007-.486.742-.531 1.953-.121 4.048-.14 6.59-.057l-.003.013c-.262 1.061-.222 2.156-.187 3.123.091 2.477.206 4.977.341 7.44-2.621.318-4.93.319-6.873.003Z"/>
  <path fill="#6DC400" d="M46.997 37.48c.001-.016.01-.03.01-.046l.166-4.694c.052-1.48.106-3.013-.297-4.512-.471-1.752-1.527-3.095-2.896-3.687-.443-.191-.933-.315-1.59-.402-1.344-.18-2.759-.148-4.127-.119-.112.003-.224.004-.337.006-.03-.7-.08-1.399-.15-2.093.086-.016.173-.036.26-.063.441-.14.782-.437.935-.816.1-.248.105-.499.11-.68l.07-2.994c.008-.327.02-.805-.227-1.222-.074-.312-.327-.62-.867-.711-.794-.133-2.224.25-2.49 1.036-.134.396-.082.874-.037 1.296.015.141.03.275.034.387l.064 2.27c.008.295.027.984.564 1.341.166.11.34.159.503.182.07.69.12 1.385.151 2.08-1.082.005-2.16-.032-3.174-.224-.497-4.494-.64-8.61-.456-12.898.497-.008.995-.012 1.49-.027a.902.902 0 0 0 .54-.168c.352-.274.383-.78.075-1.23-.826-1.206-2.448-2.096-4.82-2.647a19.84 19.84 0 0 0-3.605-.476c-4.052-.18-8.001-.228-11.756 1.155-.382.14-.752.306-1.12.47l-.094.043c-.999.446-2.508 1.122-2.792 2.393a.545.545 0 0 0 .334.629c.193.074.372.096.546.096.106 0 .211-.008.316-.018.099-.01.238-.01.39-.008-.018.439-.036.95-.054 1.468-.026.757-.052 1.512-.079 2.018l-.614 11.876c-2.057.805-3.858 2.154-5.082 3.863-.51.71-1.045 1.547-.94 2.493.16 1.45 1.237 1.636 2.009 1.636.093 0 .179-.003.26-.007-.9 2.447-.232 4.915.615 7.082.927 2.372 2.255 4.1 3.947 5.132a7.603 7.603 0 0 0 3.932 1.112 6.57 6.57 0 0 0 2.434-.451c.8-.319 1.494-.783 2.009-1.152 1.722-1.231 2.77-2.448 3.3-3.832.233-.61.355-1.232.445-1.895a24.099 24.099 0 0 1 8.494-.192c-.095 2.495 1.398 4.755 2.069 5.635.478.628 1.02 1.265 1.742 1.675.914.518 1.964.589 2.889.589.117 0 .227-.002.339-.003l.015.002c.016 0 .033 0 .05-.002l.005-.001.126-.002c1.102-.017 2.473-.04 3.634-.68.88-.488 1.524-1.264 2.038-1.96.588-.794 1.302-1.87 1.607-3.142.386-1.617.025-3.406-.913-4.911ZM43.87 25.707c.901.525 1.623 1.544 1.962 2.806.36 1.34.31 2.788.26 4.188l-.005.148c-1.318-.851-2.264-2.244-2.53-3.793-.458-2.674.053-3.233.313-3.349Zm-7.084-4.839c-.003-.002-.06-.047-.076-.387.01-.007.021-.011.03-.02.317-.303.659-.58 1.015-.825a.273.273 0 0 0 .071-.378.269.269 0 0 0-.374-.072 8.611 8.611 0 0 0-.762.598l-.018-.63c.02-.01.039-.018.056-.033.123-.107.258-.2.4-.275a.274.274 0 0 0 .115-.368.27.27 0 0 0-.364-.115 2.46 2.46 0 0 0-.226.136l-.01-.364-.001-.024c.221-.198.447-.393.686-.567a.273.273 0 0 0 .06-.38.268.268 0 0 0-.377-.06c-.146.106-.29.218-.43.334-.023-.231-.038-.471-.006-.574.13-.181.77-.36 1.155-.36.06 0 .116.004.162.014.018.061.048.12.087.17.105.14.098.456.093.665l-.071 2.995a1.1 1.1 0 0 1-.03.296c-.03.072-.133.147-.258.186a1.867 1.867 0 0 1-.501.058c-.03-.002-.057-.01-.087-.007-.011.001-.02.008-.03.01h-.019c-.073 0-.247.003-.29-.023Zm-24.181-10.83c.475-.432 1.238-.773 1.758-1.006l.105-.047c.357-.16.694-.31 1.042-.439 3.567-1.313 7.398-1.266 11.337-1.09a18.67 18.67 0 0 1 3.41.45c1.858.431 3.171 1.062 3.93 1.908-3.11.078-6.257.006-9.305-.063a400.892 400.892 0 0 0-4.366-.085c-1.706-.02-3.518.03-5.371.149a6.226 6.226 0 0 0-.602.067l-.636.101a5.03 5.03 0 0 1-.932.062c-.124-.003-.25-.006-.37-.007Zm-3.863 23.33c-.137 0-.28.006-.426.013-.973.05-1.223-.022-1.293-.654-.061-.56.333-1.165.742-1.735 1.396-1.95 3.627-3.395 6.12-3.967 2.354-.539 4.911-.346 7.393.562 1.027.375 1.725.767 2.261 1.269.634.595 1.003 1.375.988 2.09-.016.72-.46 1.383-1.048 1.597-1.198-1.391-2.995-2.449-5.156-2.976-2.599-.635-5-.354-6.762.791-.852.555-1.67 1.352-2.367 2.308a7.86 7.86 0 0 0-.452.702Zm15.324 4.385a3.32 3.32 0 0 1-1.14.016.534.534 0 0 0-.62.448.543.543 0 0 0 .446.626 4.33 4.33 0 0 0 1.242.022c-.022.245-.047.492-.074.74-.097.875-.199 1.657-.471 2.37a5.32 5.32 0 0 1-.725 1.294 4.082 4.082 0 0 1-.71-.935.537.537 0 0 0-.732-.22.546.546 0 0 0-.217.739c.248.46.565.874.936 1.239-.41.406-.896.809-1.469 1.218-.691.495-1.24.812-1.78 1.027a5.44 5.44 0 0 1-1.746.361 4.34 4.34 0 0 1 .151-1.345.545.545 0 0 0-.372-.672.538.538 0 0 0-.666.375 5.36 5.36 0 0 0-.195 1.602 6.553 6.553 0 0 1-2.582-.9c-.66-.404-1.256-.942-1.793-1.595a5.02 5.02 0 0 1 1.044-1.062.548.548 0 0 0 .115-.761.536.536 0 0 0-.755-.116 6.102 6.102 0 0 0-1.071 1.018c-.39-.616-.738-1.31-1.04-2.084-.304-.776-.575-1.567-.754-2.366.015 0 .03.004.045.004.709 0 1.387-.249 1.921-.444a.545.545 0 0 0 .323-.698.538.538 0 0 0-.692-.325c-.656.24-1.25.432-1.778.362-.147-1.467.112-2.944 1.16-4.38.194-.267.402-.515.615-.751l1.136 1.211a.537.537 0 0 0 .764.022.548.548 0 0 0 .021-.77l-1.149-1.221c.228-.194.458-.376.692-.528 1.035-.673 2.2-.912 3.272-.943.188.367.257.8.17 1.201a.545.545 0 0 0 .53.66.542.542 0 0 0 .527-.43c.1-.462.068-.937-.058-1.387.57.057 1.083.152 1.482.25a9.916 9.916 0 0 1 2.864 1.172c0 .009-.004.017-.004.026.008.19-.287.465-.43.599l-.662.619a.548.548 0 0 0-.03.77.535.535 0 0 0 .764.028l.663-.62c.177-.165.45-.42.62-.76.903.755 1.564 1.665 1.9 2.678.274.825.34 1.705.312 2.616Zm.967 1.584c.161-1.56.231-3.083-.254-4.545a6.44 6.44 0 0 0-.639-1.356c.85-.45 1.445-1.41 1.467-2.466.022-1.035-.463-2.097-1.332-2.912-.84-.786-1.902-1.23-2.628-1.495-2.677-.98-5.444-1.187-8-.6-.194.045-.383.105-.573.159l.592-11.45c.026-.51.052-1.274.079-2.037.018-.548.037-1.093.056-1.545.091-.01.183-.017.274-.031l.637-.102c.166-.027.333-.045.501-.056a68.981 68.981 0 0 1 5.29-.147c1.453.018 2.905.052 4.355.084 2.385.055 4.831.11 7.276.095-.189 4.447-.029 8.713.508 13.396a.54.54 0 0 0 .416.468c1.687.39 3.485.35 5.228.31 1.327-.03 2.7-.058 3.962.11.181.023.342.051.493.082-.732 1.094-.393 3.084-.247 3.94.352 2.052 1.704 3.869 3.552 4.83l-.075 2.117a7.17 7.17 0 0 0-.564-.517 7.976 7.976 0 0 0-2.413-1.354 7.677 7.677 0 0 0-2.686-.423.527.527 0 0 0-.228.007c-1.157.056-2.288.363-3.271.932-1.61.931-2.857 2.622-3.27 4.367a25.285 25.285 0 0 0-8.506.14Zm21.825 2.798c-.259 1.08-.897 2.035-1.424 2.747a14.6 14.6 0 0 1-.28.365 3.03 3.03 0 0 1-.275-.418.537.537 0 0 0-.732-.219.546.546 0 0 0-.217.738c.135.25.3.478.483.693a3.658 3.658 0 0 1-.67.496c-.815.45-1.82.519-2.755.54.015-.21.046-.419.102-.62a.544.544 0 0 0-.373-.672.536.536 0 0 0-.665.376 4.217 4.217 0 0 0-.148.924c-.838-.012-1.555-.098-2.169-.446-.392-.221-.727-.544-1.07-.954.18-.209.372-.405.594-.569a.548.548 0 0 0 .115-.76.537.537 0 0 0-.755-.117 4.75 4.75 0 0 0-.62.556c-.652-.955-1.116-1.964-1.351-2.926.525-.02 1.018-.195 1.411-.34a.545.545 0 0 0 .323-.697.538.538 0 0 0-.691-.325c-.449.164-.853.29-1.208.268a4.776 4.776 0 0 1 .005-.72c.095-.998.553-2.014 1.235-2.863l.779.829a.535.535 0 0 0 .763.021.547.547 0 0 0 .02-.77l-.807-.86c.273-.236.56-.455.869-.634.766-.443 1.64-.695 2.541-.772.076.215.098.45.05.672a.545.545 0 0 0 .528.659.542.542 0 0 0 .528-.43c.065-.301.066-.612.01-.912a6.605 6.605 0 0 1 1.636.35c.684.24 1.318.589 1.895 1.027-.042.05-.096.11-.185.193l-.504.47a.548.548 0 0 0-.03.77.535.535 0 0 0 .764.029l.503-.47c.07-.066.166-.158.262-.27.83.886 1.374 1.981 1.564 3.093a2.391 2.391 0 0 1-.78.015.536.536 0 0 0-.62.449.543.543 0 0 0 .444.625 3.358 3.358 0 0 0 1.024.014 4.811 4.811 0 0 1-.12.845Z"/>
  <path fill="#6DC400" d="M27.02 14.26a.27.27 0 0 0-.372-.084 26.859 26.859 0 0 0-3.549 2.727.273.273 0 0 0 .181.474.27.27 0 0 0 .181-.07 26.358 26.358 0 0 1 3.477-2.671.274.274 0 0 0 .082-.376Zm-.933 2.81-1.552 1.055a.274.274 0 0 0-.074.378.27.27 0 0 0 .375.074l1.553-1.055a.273.273 0 0 0 .073-.378.266.266 0 0 0-.375-.074Zm.893 2.286a33.703 33.703 0 0 0-2.873 2.524.274.274 0 0 0-.005.385.268.268 0 0 0 .382.004 33.424 33.424 0 0 1 2.827-2.484.273.273 0 0 0 .048-.382.268.268 0 0 0-.379-.047Z"/>
</svg>
