<svg xmlns="http://www.w3.org/2000/svg" width="54" height="52" fill="none" viewBox="0 0 54 52">
  <path fill="#6DC400" d="M27.338 28.7c-.112-6.75-.45-13.5-1.012-20.25 0-.338-.338-.675-.675-.675H13.163c-3.6 0-7.762-.563-11.25.112-.337.113-.45.338-.562.563-1.463 4.725-.225 11.588-.225 16.65 0 3.938.225 4.162 3.937 4.275 14.85.675 29.588 1.35 44.438.9.45 0 .787-.45.675-.9-.788-5.288-4.95-7.762-9-10.575-2.025-1.463-2.588-2.813-4.838-3.15-3.15-.45-6.75 0-10.012 0-.9 0-.9 1.463 0 1.463 4.387 0 9.225-.788 12.825 1.912 2.7 2.025 14.737 9.9 5.962 10.013-11.137.224-22.275-.226-33.412-.675-2.25-.113-4.5-.226-6.638-.338-3.712-.225-2.587-7.537-2.587-9.563 0-1.8-1.125-9.225 2.25-9.225h8.325c4.05 0 11.7-1.912 12.15 3.376.45 5.4.562 10.8.675 16.2.112.787 1.462.787 1.462-.113Z"/>
  <path fill="#6DC400" d="M48.713 29.375c.675 1.462 1.35 2.813 2.138 4.163 1.012 1.8 3.15 5.625-.675 5.85-.9.112-.9 1.462 0 1.462 7.425-.45 1.35-8.888-.225-12.15-.45-.787-1.688-.113-1.238.675ZM37.013 39.5h-18.9c-.9 0-.9 1.462 0 1.462h18.9c.9-.112.9-1.462 0-1.462Zm-31.387.112c-.788 0-3.038.338-3.375-.9-.338-1.237-.338-2.475-.338-3.712 0-2.362.113-4.613 1.125-6.637.338-.788-.787-1.575-1.237-.675C.338 30.724.338 34.1.563 37.474c.113 1.012.225 2.587 1.013 3.375.787.788 3.037.337 3.937.337 1.013-.224 1.013-1.575.113-1.575Z"/>
  <path fill="#6DC400" d="M6.413 40.4c.337-2.925 1.8-5.175 5.062-4.95 1.238.112 2.475.45 3.6 1.012 1.575.788 1.688 2.925 1.8 4.5.113 2.813-2.925 4.163-5.287 4.275-2.588 0-4.5-2.25-5.063-4.612-.225-.9-1.575-.563-1.35.337.788 3.375 3.6 5.625 7.088 5.625 3.487 0 6.187-2.812 5.962-6.187-.225-4.275-2.812-5.737-6.75-6.3-4.05-.563-6.075 2.925-6.412 6.413-.113.787 1.237.787 1.35-.113Zm31.725-.112c-.113-2.813 1.125-4.5 3.825-5.288 2.812-.788 4.837.563 6.187 3.038.788 1.35 1.125 3.037 0 4.387-.675.9-2.137 1.125-3.15 1.35-2.925.675-6.075-.112-6.75-3.487-.112-.9-1.462-.563-1.35.337.675 3.825 4.05 5.063 7.538 4.612 3.037-.337 6.637-2.025 5.737-5.737-.9-3.938-3.6-6.638-7.762-6.075-3.713.45-5.85 3.038-5.738 6.75 0 1.013 1.463 1.013 1.463.113Z"/>
</svg>
