<svg width="126" height="144" viewBox="0 0 126 144" fill="none" xmlns="http://www.w3.org/2000/svg">
<g clip-path="url(#clip0_4271_9123)">
<path d="M58.7422 63.6846L56.5953 64.9589C56.5953 64.9589 51.9068 46.4612 49.8361 34.0509C52.2115 32.8528 53.2988 30.2835 54.8432 30.4913C57.4264 41.5165 58.7422 63.6846 58.7422 63.6846Z" fill="#EEC0C4"/>
<path d="M6.07164 108.133L1.3693 110.411L-0.01578 108.701L3.31534 106.235C3.31534 106.235 6.88191 107.184 6.07164 108.133Z" fill="#EEC0C5"/>
<path d="M0.587045 108.729C0.587045 108.729 8.41966 112.302 6.26586 117.233L-0.00161791 108.729" fill="#433041"/>
<path d="M35.847 52.3062C30.5112 60.3794 27.2019 69.6208 26.2 79.246C26.1397 80.3741 25.8241 81.4739 25.2771 82.4623C24.7301 83.4508 23.9658 84.3022 23.042 84.9525C19.4616 87.2864 13.9005 90.9014 10.978 94.745C6.52494 100.611 5.81855 102.488 5.81855 102.488L8.40172 106.241C8.40172 106.241 39.2197 92.9721 42.7447 64.8966C46.2697 36.821 35.847 52.3062 35.847 52.3062Z" fill="#4C8E4C"/>
<g style="mix-blend-mode:multiply" opacity="0.35">
<path d="M38.8941 81.8637C38.8941 81.8637 32.0933 67.5559 37.509 64.2732C42.9246 60.9906 45.2031 72.9508 38.8941 81.8637Z" fill="#4C8E4C"/>
</g>
<path d="M59.5389 119.87C58.8463 120.037 57.7175 121.463 56.7203 121.041C56.4709 119.836 54.6426 113.423 54.1648 111.685L57.8352 111.186C58.1607 113.367 57.9876 118.187 58.597 119.635C58.7355 119.96 59.8782 119.78 59.5389 119.87Z" fill="#EEC0C5"/>
<path d="M36.7803 51.1359C41.7319 51.1359 47.0437 46.108 47.0437 46.108C47.0437 46.108 47.577 49.8477 48.7474 57.9366C49.2945 61.7594 53.699 81.012 54.8417 86.0883C55.6935 89.8488 59.5371 104.385 59.5371 113.298L53.2004 114.24C52.3139 111.034 50.6934 107.709 50.1532 105.092C48.7681 98.2839 44.7445 87.7781 43.581 84.9179C42.4176 82.0577 34.204 70.7001 33.0267 64.2733C31.7317 57.1956 35.596 51.1359 36.7803 51.1359Z" fill="#4C8E4C"/>
<path d="M79.0409 55.1734C79.1426 55.0724 79.2733 55.0055 79.4147 54.982C79.5561 54.9584 79.7013 54.9793 79.8304 55.0418C79.952 55.1081 80.0509 55.2095 80.1143 55.3326C80.1337 55.3917 80.1499 55.4518 80.1628 55.5127C80.1697 55.5725 80.1697 55.6329 80.1628 55.6928C80.0866 55.5889 80.0173 55.4919 79.9481 55.4088C79.8801 55.3305 79.8007 55.2628 79.7126 55.208C79.4977 55.1271 79.263 55.115 79.0409 55.1734Z" fill="#6C543B"/>
<path d="M77.6897 44.9236H78.2715C78.2715 41.8002 79.8297 39.2448 81.7965 39.2448C83.7633 39.2448 85.3215 41.7795 85.3215 44.9028H85.9102C85.9102 41.4401 84.1026 38.7323 81.7965 38.7323C79.4903 38.7323 77.6897 41.4609 77.6897 44.9236Z" fill="#606060"/>
<path d="M72.6968 67.9921L93.6738 68.2483L89.7264 44.4042L76.8036 43.3793L72.6968 67.9921Z" fill="#6BAA66"/>
<path d="M78.8605 44.6605H79.4492C79.4492 41.5441 81.0282 39.0094 82.9742 39.0094C84.9202 39.0094 86.4992 41.5441 86.4992 44.6605H87.0879C87.0879 41.1979 85.2804 38.4969 82.9742 38.4969C80.6681 38.4969 78.8605 41.2048 78.8605 44.6605Z" fill="#606060"/>
<path d="M86.2012 51.5858L80.9171 51.0734V59.7855L86.2012 60.298V51.5858Z" fill="#F5F6FF"/>
<path d="M117.531 108.533L116.956 86.573L92.6137 83.4288L93.8395 108.533H117.531Z" fill="#E8B97B"/>
<path d="M114.754 87.0717L113.764 65.1113L71.9965 61.9672L74.1019 87.0717H114.754Z" fill="#F0D379"/>
<path d="M99.041 107.377L98.4662 74.5159L74.1235 69.8136L72.4614 106.22L99.041 107.377Z" fill="#B33A5D"/>
<path d="M119.27 117.779H71.3043L67.8346 99.2811L119.498 103.485L119.27 117.779Z" fill="#2A5425"/>
<path d="M108.438 74.5645H108.854C108.854 72.8885 109.983 71.5242 111.361 71.5242C112.739 71.5242 113.868 72.9093 113.868 74.5645H114.283C114.283 72.7015 113.002 71.2472 111.361 71.2472C109.719 71.2472 108.438 72.7015 108.438 74.5645Z" fill="#606060"/>
<path d="M104.892 86.9538L119.803 87.0923L116.998 74.2873L107.815 73.7333L104.892 86.9538Z" fill="#6BAA66"/>
<path d="M109.275 74.4258H109.691C109.691 72.7498 110.813 71.3855 112.198 71.3855C113.583 71.3855 114.698 72.7706 114.698 74.4258H115.113C115.113 72.5698 113.832 71.1085 112.198 71.1085C110.563 71.1085 109.275 72.5698 109.275 74.4258Z" fill="#606060"/>
<path d="M53.209 29.3693C53.209 29.3693 51.6716 26.7792 51.4361 25.6088C51.2007 24.4384 50.6882 20.11 52.191 18.6834C52.191 18.6834 54.4971 21.7167 56.8933 19.923C60.0167 17.5961 58.8532 6.83406 57.7105 5.55286C56.5678 4.27167 54.6703 0.462702 50.3004 0.912852C45.9304 1.363 43.8598 13.9118 46.713 16.3703C46.713 16.3703 46.6091 23.9883 44.3168 25.0478C44.3168 25.0478 47.8488 30.0964 50.4943 29.8956C53.1398 29.6948 53.209 29.3693 53.209 29.3693Z" fill="#EEC0C5"/>
<g style="mix-blend-mode:multiply" opacity="0.29">
<path d="M52.4257 19.8054L52.2041 18.6558C52.2041 18.6558 50.3827 16.9036 50.1265 15.754C50.1265 15.754 50.445 18.9605 51.8163 19.9093C53.1875 20.858 52.4257 19.8054 52.4257 19.8054Z" fill="#826E4F"/>
</g>
<path d="M41.5521 23.3856C46.1714 21.0864 49.8003 26.0865 50.8252 26.7791C51.8502 27.4716 51.2962 24.5491 51.2962 24.5491L53.1383 26.5852C57.6052 35.6643 55.5483 34.764 55.4237 39.9235C55.2436 47.3406 50.6175 57.1608 48.7961 58.0264L42.9995 55.1732C38.8027 53.3518 35.9495 52.0013 36.642 49.2173C37.0853 47.4306 39.4122 43.4485 38.2072 38.2891C37.3623 34.5978 36.9329 25.6918 41.5521 23.3856Z" fill="#674863"/>
<path d="M58.6788 9.01555C58.6788 9.01555 61.8437 9.01555 61.9129 7.14569C61.9822 5.27584 58.9004 5.24121 58.9004 5.24121C58.9004 5.24121 63.665 4.36861 62.4808 2.23559C61.2966 0.10257 55.9363 0.594273 55.9363 0.594273C55.9363 0.594273 57.7923 -1.00549 56.7604 -2.48753C55.7286 -3.96956 48.63 -2.07893 47.8821 1.32836C47.8821 1.32836 42.4664 0.123346 43.4775 7.41578C44.4886 14.7082 46.774 16.4188 46.774 16.4188C47.8457 15.4227 48.5054 14.0613 48.6231 12.6029C48.5041 12.6763 48.3715 12.7251 48.2333 12.7463C48.0951 12.7676 47.954 12.7609 47.8184 12.7267C47.6828 12.6925 47.5554 12.6314 47.4438 12.5471C47.3323 12.4628 47.2387 12.3569 47.1688 12.2359C46.6147 11.3286 46.3654 9.50725 46.9402 9.04325C47.515 8.57925 49.4264 10.8923 49.4264 10.8923C49.4264 10.8923 51.8088 9.34104 51.4279 7.7205C51.047 6.09996 52.3074 6.33542 52.3074 6.33542C52.3074 6.33542 56.0263 8.87011 58.2286 7.39501C58.477 7.90292 58.6296 8.45229 58.6788 9.01555Z" fill="#B33A5D"/>
<path d="M110.306 140.481C110.307 141.144 110.505 141.792 110.874 142.342C111.243 142.892 111.767 143.321 112.38 143.573C112.993 143.826 113.666 143.891 114.316 143.761C114.966 143.631 115.562 143.311 116.03 142.842C116.499 142.373 116.817 141.776 116.946 141.126C117.075 140.476 117.008 139.802 116.754 139.19C116.5 138.578 116.07 138.055 115.519 137.687C114.968 137.319 114.321 137.123 113.658 137.123C113.217 137.123 112.781 137.21 112.374 137.378C111.966 137.547 111.597 137.795 111.285 138.107C110.974 138.419 110.727 138.789 110.559 139.197C110.391 139.604 110.305 140.041 110.306 140.481Z" fill="#2A5425"/>
<path d="M71.2064 140.481C71.2078 141.144 71.4055 141.792 71.7746 142.342C72.1438 142.892 72.6678 143.321 73.2804 143.573C73.893 143.826 74.5667 143.891 75.2164 143.761C75.8662 143.631 76.4628 143.311 76.9309 142.842C77.3989 142.373 77.7175 141.776 77.8463 141.126C77.975 140.476 77.9082 139.802 77.6543 139.19C77.4004 138.578 76.9708 138.055 76.4198 137.687C75.8687 137.319 75.2209 137.123 74.5583 137.123C74.1175 137.123 73.6811 137.21 73.274 137.378C72.8668 137.547 72.497 137.795 72.1857 138.107C71.8743 138.419 71.6276 138.789 71.4595 139.197C71.2915 139.604 71.2055 140.041 71.2064 140.481Z" fill="#2A5425"/>
<path d="M67.0939 120.016H123.55L129 81.843L58.5342 74.8761L67.0939 120.016ZM122.899 119.268H67.7103L59.4552 75.7141L128.155 82.5079L122.899 119.268Z" fill="#4C8E4C"/>
<path d="M64.0667 136.202H119.615V135.454H64.0667C62.4669 135.454 59.1635 133.826 59.1635 128.798C59.1635 123.909 63.9212 123.05 64.129 123.016L64.0044 122.282C63.9489 122.282 58.4225 123.272 58.4225 128.798C58.4225 134.325 62.2245 136.202 64.0667 136.202Z" fill="#4C8E4C"/>
<path d="M119.644 81.2217L120.389 81.2867L117.039 119.646L116.294 119.581L119.644 81.2217Z" fill="#4C8E4C"/>
<path d="M107.983 79.7413L108.73 79.7562L107.933 119.612L107.185 119.597L107.983 79.7413Z" fill="#4C8E4C"/>
<path d="M95.5726 79.2653L97.1973 119.883L96.4493 119.913L94.8246 79.2952L95.5726 79.2653Z" fill="#4C8E4C"/>
<path d="M82.4014 77.4833L87.2402 119.562L86.4972 119.647L81.6583 77.5687L82.4014 77.4833Z" fill="#4C8E4C"/>
<path d="M68.9751 76.3546L76.0645 119.552L75.3264 119.673L68.237 76.4757L68.9751 76.3546Z" fill="#4C8E4C"/>
<path d="M60.8338 84.2318L127.494 89.4547L127.436 90.2004L60.7754 84.9775L60.8338 84.2318Z" fill="#4C8E4C"/>
<path d="M63.0436 97.2671L125.977 99.8607L125.946 100.608L63.0128 98.0144L63.0436 97.2671Z" fill="#4C8E4C"/>
<path d="M65.6317 110.309L124.469 110.658L124.464 111.406L65.6272 111.057L65.6317 110.309Z" fill="#4C8E4C"/>
<path d="M53.657 123.854C53.657 123.854 60.347 118.424 63.8027 122.579L53.4146 124.387" fill="#433041"/>
<path d="M42.4326 24.6322C43.1667 24.369 43.8177 23.4549 44.3094 23.6904C46.4978 24.3829 48.6862 28.2265 50.6738 33.2335C48.5132 33.3194 46.4293 34.0583 44.6972 35.3527C42.5503 29.5492 41.3245 25.02 42.4326 24.6322Z" fill="#674863"/>
<path d="M58.832 62.8673L56.976 64.5086C56.976 64.5086 48.991 47.1951 44.6973 35.3527C46.4294 34.0582 48.5133 33.3193 50.6739 33.2335C55.2793 44.8682 58.832 62.8673 58.832 62.8673Z" fill="#EEC0C4"/>
<path d="M59.5371 75.7693L57.8958 67.0848H56.9539L58.5329 75.7693L59.5371 76.351" fill="#4C8E4C"/>
<path d="M60.7715 75.0976L60.7092 64.9796L59.5388 65.4436L60.1551 75.0976H60.7715Z" fill="#4C8E4C"/>
<path d="M61.416 64.5086L60.4395 61.9254L55.0447 65.679C55.0447 65.679 52.9324 68.2621 55.0447 68.2621C57.1569 68.2621 61.416 64.5086 61.416 64.5086Z" fill="#4C8E4C"/>
<path d="M57.7517 62.2371C57.7517 62.2371 61.9484 61.6553 61.5606 64.0238C61.1728 66.3923 58.5966 67.7912 58.3611 66.1499C58.1256 64.5086 59.0536 63.7676 58.001 64.0238C56.9483 64.2801 57.7517 62.2371 57.7517 62.2371Z" fill="#EEC0C4"/>
<path d="M56.3463 63.1721C56.3463 63.1721 60.5016 62.5973 60.1553 64.9588C59.809 67.3204 57.1912 68.7263 56.9558 67.0849C56.7203 65.4436 57.6483 64.7095 56.5956 64.9588C55.543 65.2082 56.3463 63.1721 56.3463 63.1721Z" fill="#EEC0C4"/>
</g>
<defs>
<clipPath id="clip0_4271_9123">
<rect width="126.001" height="143.833" fill="white" transform="matrix(-1 0 0 1 126 0)"/>
</clipPath>
</defs>
</svg>
