<svg width="48" height="48" viewBox="0 0 48 48" fill="none" xmlns="http://www.w3.org/2000/svg">
<path d="M24 48C37.2548 48 48 37.2548 48 24C48 10.7452 37.2548 -3.8147e-06 24 -3.8147e-06C10.7452 -3.8147e-06 0 10.7452 0 24C0 37.2548 10.7452 48 24 48Z" fill="#DC4E41"/>
<path d="M8.35569 25.0748C8.27055 29.2042 11.1147 33.1448 15.0272 34.43C18.7124 35.6681 23.2435 34.7419 25.6958 31.5858C27.4862 29.3744 27.8931 26.4263 27.6993 23.672C24.5432 23.6437 21.3872 23.6532 18.2358 23.6579C18.2307 24.7822 18.2358 25.9022 18.2405 27.0265C20.1302 27.0787 22.0203 27.0548 23.91 27.0929C23.433 28.7276 22.3463 30.2489 20.6971 30.8393C17.5128 32.2426 13.4498 30.4093 12.4478 27.0689C11.2384 23.8701 13.2183 20.0098 16.4873 19.0793C18.5143 18.3661 20.6025 19.1691 22.3369 20.2229C23.2157 19.4006 24.038 18.5218 24.8457 17.6337C22.8751 15.9849 20.3429 14.9739 17.7396 15.196C12.6318 15.2567 8.16188 19.9722 8.35569 25.0748Z" fill="#DC4E41"/>
<path d="M33.8415 20.8216C33.8321 21.762 33.8222 22.7071 33.8175 23.647C32.8725 23.6564 31.9325 23.6611 30.9922 23.6658C30.9922 24.6062 30.9922 25.5414 30.9922 26.4817C31.9325 26.4864 32.8776 26.4912 33.8175 26.501C33.8269 27.4413 33.8269 28.3813 33.8364 29.3263C34.772 29.3263 35.7124 29.3216 36.6523 29.3263C36.6574 28.3813 36.6617 27.4413 36.6715 26.4963C37.6115 26.4916 38.5565 26.4869 39.4969 26.4822C39.4969 25.5418 39.4969 24.6066 39.4969 23.6662C38.5569 23.6615 37.6119 23.6568 36.6715 23.6474C36.6664 22.7071 36.6574 21.762 36.6523 20.8221C35.7124 20.8216 34.7767 20.8216 33.8415 20.8216Z" fill="#DC4E41"/>
<path d="M8.35569 25.0742C8.16188 19.9716 12.6313 15.2561 17.7391 15.195C20.3424 14.9729 22.8751 15.9839 24.8453 17.6327C24.0371 18.5213 23.2148 19.3996 22.3365 20.2219C20.6021 19.1681 18.5139 18.3651 16.4869 19.0783C13.2175 20.0092 11.2375 23.8695 12.4474 27.0679C13.4493 30.4083 17.5124 32.2416 20.6967 30.8383C22.3455 30.2479 23.4326 28.7266 23.9096 27.0919C22.0199 27.0542 20.1298 27.0777 18.2401 27.0255C18.2354 25.9012 18.2307 24.7812 18.2354 23.6569C21.3867 23.6522 24.5428 23.6427 27.6988 23.671C27.8926 26.4257 27.4862 29.3739 25.6953 31.5848C23.2431 34.7409 18.7124 35.6671 15.0267 34.429C11.1151 33.1443 8.27055 29.2036 8.35569 25.0742Z" fill="white"/>
<path d="M33.8415 20.8216C34.7771 20.8216 35.7124 20.8216 36.6523 20.8216C36.6574 21.762 36.6664 22.7071 36.6715 23.647C37.6115 23.6564 38.5565 23.6611 39.4969 23.6658C39.4969 24.6062 39.4969 25.5414 39.4969 26.4817C38.5569 26.4864 37.6119 26.4912 36.6715 26.4959C36.6621 27.4409 36.6574 28.3808 36.6523 29.3259C35.7124 29.3212 34.7716 29.3259 33.8364 29.3259C33.8274 28.3808 33.8274 27.4409 33.8175 26.5006C32.8776 26.4907 31.9325 26.4864 30.9922 26.4813C30.9922 25.541 30.9922 24.6057 30.9922 23.6654C31.9325 23.6607 32.8729 23.656 33.8175 23.6466C33.8222 22.7071 33.8316 21.762 33.8415 20.8216Z" fill="white"/>
</svg>
