<svg width="618" height="365" viewBox="0 0 618 365" fill="none" xmlns="http://www.w3.org/2000/svg">
<g filter="url(#filter0_d_377_4281)">
<path d="M45 65C45 51.7452 55.7452 41 69 41L538 41C551.255 41 562 51.7452 562 65V281C562 294.255 551.255 305 538 305L69 305C55.7452 305 45 294.255 45 281L45 65Z" fill="white"/>
</g>
<path fill-rule="evenodd" clip-rule="evenodd" d="M207.896 128.143L208.976 127.094L213.448 130.826L215.73 132.121L224.428 133.139L225.23 133.756L225.909 134.651L226.803 136.439L227.759 137.735L229.456 138.999L232.787 139.678L236.858 139.894L240.621 140.881L242.657 141.991L243.52 142.978L244.199 144.335L244.877 147.111L245.093 148.9L245.124 150.689L244.877 155.192L244.908 156.58L245.155 159.048L245.618 161.731L245.803 163.859L245.679 164.97L245.432 165.987L245.093 166.974L245.525 168.671L246.543 170.768L249.35 175.117L250.244 177.399L250.522 179.127L250.09 180.052L249.535 180.916L247.622 183.445L247.376 183.907L247.129 184.74L247.561 185.388L248.548 186.406L251.354 188.41L252.897 189.829L251.509 190.446L250.645 191.341L250.151 192.451L250.028 193.716L250.151 195.011L250.491 196.276L251.416 198.435L251.509 199.206L250.923 199.761L243.181 201.488L242.657 202.043L242.379 202.845L242.317 203.894L242.441 205.128L244.014 211.265L243.798 212.036L243.304 212.592L242.564 212.9L240.775 212.962L239.048 212.283L234.298 206.886L225.076 205.066L224.459 205.22L223.071 206.084L220.203 209.261L207.834 215.984L207.125 216.601L206.601 217.65L204.812 226.44L204.226 227.15L203.393 227.396L201.234 226.903L197.656 225.083L197.224 225.021L196.145 225.33L192.845 227.797L192.351 227.921L191.858 227.828L191.333 227.52L188.434 224.466L178.071 224.25L177.207 224.713L173.167 229.463L172.55 229.864L170.637 230.203L168.293 229.956L164.376 228.476L163.636 228.507L162.927 228.846L159.287 232.486L158.3 233.041L157.036 233.287L150.743 232.085L149.911 230.573L147.998 229.833L142.539 226.625L142.693 224.374L143.619 221.598L143.279 218.544L141.028 216.416L136.124 215.892L134.088 213.887H133.934L113.762 203.03L113.331 201.735L113.3 199.822L113.022 197.694L111.85 195.659L109.907 193.993L107.779 192.729L105.897 191.001L104.725 187.855L104.633 184.74L105.589 180.021L105.188 176.875L104.17 174.408L102.69 172.094L99.4202 168.486L92.8198 164.353L91.4318 161.885L93.0973 159.356L94.4853 158.462L95.3797 157.475L95.6265 154.791L95.133 151.83L94.0535 149.98L91 146.741L94.3619 147.019L100.746 147.481L103.306 149.301L104.108 151.244L104.047 154.822L104.571 156.457L106.052 157.752L107.995 158.369L111.85 158.462L112.806 158.986L113.238 159.757L113.176 160.713L112.59 161.885L112.374 161.916L112.189 161.978L112.004 162.101L111.85 162.255L111.48 162.656L111.357 163.057L111.511 163.52L111.85 164.013L114.163 166.357L114.749 167.159L115.305 168.517L115.551 169.75L115.675 170.799L117.278 176.536L118.636 178.664L120.887 178.942L122.769 177.584V175.734L121.998 173.513L121.597 170.922L121.998 167.221L122.707 165.247L125.359 161.885L125.699 158.554L126.809 156.95L128.29 155.902L129.801 154.298L133.934 146.741L135.384 145.322L139.301 143.132L140.874 141.714L141.367 141.436L142.57 141.467L143.094 141.159L143.372 140.418L143.31 139.586L143.125 138.876L143.094 138.444L143.464 137.519L143.742 136.47L144.205 135.422L145.192 134.558L148.893 131.381L154.26 129.777L164.253 129.037L171.378 130.333L173.105 130.147L174.585 128.698L177.546 124.133L179.274 122.406L181.433 121.635L183.561 121.511L185.967 121.82L186.799 121.511L188.65 120.278L189.853 120L190.963 120.339L203.331 127.896L207.896 128.143Z" fill="#6DC300" stroke="white" stroke-width="2.01086" stroke-linecap="round" stroke-linejoin="round"/>
<path fill-rule="evenodd" clip-rule="evenodd" d="M458.896 128.143L459.976 127.094L464.448 130.826L466.73 132.121L475.428 133.139L476.23 133.756L476.909 134.651L477.803 136.439L478.759 137.735L480.456 138.999L483.787 139.678L487.858 139.894L491.621 140.881L493.657 141.991L494.52 142.978L495.199 144.335L495.877 147.111L496.093 148.9L496.124 150.689L495.877 155.192L495.908 156.58L496.155 159.048L496.618 161.731L496.803 163.859L496.679 164.97L496.432 165.987L496.093 166.974L496.525 168.671L497.543 170.768L500.35 175.117L501.244 177.399L501.522 179.127L501.09 180.052L500.535 180.916L498.622 183.445L498.376 183.907L498.129 184.74L498.561 185.388L499.548 186.406L502.354 188.41L503.897 189.829L502.509 190.446L501.645 191.341L501.151 192.451L501.028 193.716L501.151 195.011L501.491 196.276L502.416 198.435L502.509 199.206L501.923 199.761L494.181 201.488L493.657 202.043L493.379 202.845L493.317 203.894L493.441 205.128L495.014 211.265L494.798 212.036L494.304 212.592L493.564 212.9L491.775 212.962L490.048 212.283L485.298 206.886L476.076 205.066L475.459 205.22L474.071 206.084L471.203 209.261L458.834 215.984L458.125 216.601L457.601 217.65L455.812 226.44L455.226 227.15L454.393 227.396L452.234 226.903L448.656 225.083L448.224 225.021L447.145 225.33L443.845 227.797L443.351 227.921L442.858 227.828L442.333 227.52L439.434 224.466L429.071 224.25L428.207 224.713L424.167 229.463L423.55 229.864L421.637 230.203L419.293 229.956L415.376 228.476L414.636 228.507L413.927 228.846L410.287 232.486L409.3 233.041L408.036 233.287L401.743 232.085L400.911 230.573L398.998 229.833L393.539 226.625L393.693 224.374L394.619 221.598L394.279 218.544L392.028 216.416L387.124 215.892L385.088 213.887H384.934L364.762 203.03L364.331 201.735L364.3 199.822L364.022 197.694L362.85 195.659L360.907 193.993L358.779 192.729L356.897 191.001L355.725 187.855L355.633 184.74L356.589 180.021L356.188 176.875L355.17 174.408L353.69 172.094L350.42 168.486L343.82 164.353L342.432 161.885L344.097 159.356L345.485 158.462L346.38 157.475L346.626 154.791L346.133 151.83L345.053 149.98L342 146.741L345.362 147.019L351.746 147.481L354.306 149.301L355.108 151.244L355.047 154.822L355.571 156.457L357.052 157.752L358.995 158.369L362.85 158.462L363.806 158.986L364.238 159.757L364.176 160.713L363.59 161.885L363.374 161.916L363.189 161.978L363.004 162.101L362.85 162.255L362.48 162.656L362.357 163.057L362.511 163.52L362.85 164.013L365.163 166.357L365.749 167.159L366.305 168.517L366.551 169.75L366.675 170.799L368.278 176.536L369.636 178.664L371.887 178.942L373.769 177.584V175.734L372.998 173.513L372.597 170.922L372.998 167.221L373.707 165.247L376.359 161.885L376.699 158.554L377.809 156.95L379.29 155.902L380.801 154.298L384.934 146.741L386.384 145.322L390.301 143.132L391.874 141.714L392.367 141.436L393.57 141.467L394.094 141.159L394.372 140.418L394.31 139.586L394.125 138.876L394.094 138.444L394.464 137.519L394.742 136.47L395.205 135.422L396.192 134.558L399.893 131.381L405.26 129.777L415.253 129.037L422.378 130.333L424.105 130.147L425.585 128.698L428.546 124.133L430.274 122.406L432.433 121.635L434.561 121.511L436.967 121.82L437.799 121.511L439.65 120.278L440.853 120L441.963 120.339L454.331 127.896L458.896 128.143Z" fill="#6DC300" fill-opacity="0.1" stroke="white" stroke-width="2.01086" stroke-linecap="round" stroke-linejoin="round"/>
<path d="M151.004 177.789L146.172 172.189L150.62 167.117H148.956L144.236 172.637V167.117H142.908V177.789H144.236V174.205L145.308 172.989L149.356 177.789H151.004ZM158.236 177.789V172.477C158.236 170.605 156.876 169.869 155.244 169.869C153.98 169.869 152.988 170.285 152.156 171.149L152.716 171.981C153.404 171.245 154.156 170.909 155.084 170.909C156.204 170.909 157.036 171.501 157.036 172.541V173.933C156.412 173.213 155.532 172.877 154.476 172.877C153.164 172.877 151.772 173.693 151.772 175.421C151.772 177.101 153.164 177.981 154.476 177.981C155.516 177.981 156.396 177.613 157.036 176.909V177.789H158.236ZM154.908 177.117C153.788 177.117 153.004 176.413 153.004 175.437C153.004 174.445 153.788 173.741 154.908 173.741C155.756 173.741 156.572 174.061 157.036 174.701V176.157C156.572 176.797 155.756 177.117 154.908 177.117ZM161.841 177.789V172.317C162.193 171.693 163.201 171.085 163.937 171.085C164.129 171.085 164.273 171.101 164.417 171.133V169.901C163.361 169.901 162.465 170.493 161.841 171.309V170.061H160.641V177.789H161.841ZM167.123 177.789V167.117H165.923V177.789H167.123ZM172.892 177.981C175.244 177.981 176.716 176.157 176.716 173.917C176.716 171.677 175.244 169.869 172.892 169.869C170.54 169.869 169.068 171.677 169.068 173.917C169.068 176.157 170.54 177.981 172.892 177.981ZM172.892 176.909C171.244 176.909 170.316 175.501 170.316 173.917C170.316 172.349 171.244 170.941 172.892 170.941C174.54 170.941 175.452 172.349 175.452 173.917C175.452 175.501 174.54 176.909 172.892 176.909ZM182.049 177.789L185.265 170.061H183.953L181.393 176.397L178.817 170.061H177.521L180.737 177.789H182.049ZM192.548 177.789V172.477C192.548 170.605 191.188 169.869 189.556 169.869C188.292 169.869 187.3 170.285 186.468 171.149L187.028 171.981C187.716 171.245 188.468 170.909 189.396 170.909C190.516 170.909 191.348 171.501 191.348 172.541V173.933C190.724 173.213 189.844 172.877 188.788 172.877C187.476 172.877 186.084 173.693 186.084 175.421C186.084 177.101 187.476 177.981 188.788 177.981C189.828 177.981 190.708 177.613 191.348 176.909V177.789H192.548ZM189.22 177.117C188.1 177.117 187.316 176.413 187.316 175.437C187.316 174.445 188.1 173.741 189.22 173.741C190.068 173.741 190.884 174.061 191.348 174.701V176.157C190.884 176.797 190.068 177.117 189.22 177.117ZM196.154 177.789V172.317C196.506 171.693 197.514 171.085 198.25 171.085C198.442 171.085 198.586 171.101 198.73 171.133V169.901C197.674 169.901 196.778 170.493 196.154 171.309V170.061H194.954V177.789H196.154ZM202.683 177.981C204.683 177.981 205.723 176.941 205.723 175.645C205.723 172.637 200.939 173.757 200.939 172.061C200.939 171.373 201.595 170.845 202.651 170.845C203.643 170.845 204.491 171.261 204.955 171.821L205.515 170.989C204.891 170.365 203.963 169.869 202.651 169.869C200.811 169.869 199.771 170.893 199.771 172.093C199.771 174.957 204.555 173.805 204.555 175.677C204.555 176.445 203.915 177.005 202.731 177.005C201.675 177.005 200.699 176.493 200.187 175.901L199.563 176.765C200.347 177.597 201.419 177.981 202.683 177.981ZM214.473 177.789L211.033 173.565L214.457 170.061H212.937L208.873 174.173V167.117H207.673V177.789H208.873V175.581L210.153 174.317L212.937 177.789H214.473ZM215.459 180.813C215.683 180.877 216.083 180.925 216.339 180.925C217.363 180.909 218.147 180.477 218.611 179.357L222.483 170.061H221.171L218.611 176.397L216.035 170.061H214.739L217.971 177.869L217.459 179.037C217.187 179.677 216.835 179.853 216.307 179.853C216.115 179.853 215.827 179.805 215.651 179.725L215.459 180.813ZM221.315 166.589H220.067L217.699 168.893H218.611L221.315 166.589Z" fill="white"/>
<path d="M400.992 177L396.16 171.4L400.608 166.328H398.944L394.224 171.848V166.328H392.896V177H394.224V173.416L395.296 172.2L399.344 177H400.992ZM408.224 177V171.688C408.224 169.816 406.864 169.08 405.232 169.08C403.968 169.08 402.976 169.496 402.144 170.36L402.704 171.192C403.392 170.456 404.144 170.12 405.072 170.12C406.192 170.12 407.024 170.712 407.024 171.752V173.144C406.4 172.424 405.52 172.088 404.464 172.088C403.152 172.088 401.76 172.904 401.76 174.632C401.76 176.312 403.152 177.192 404.464 177.192C405.504 177.192 406.384 176.824 407.024 176.12V177H408.224ZM404.896 176.328C403.776 176.328 402.992 175.624 402.992 174.648C402.992 173.656 403.776 172.952 404.896 172.952C405.744 172.952 406.56 173.272 407.024 173.912V175.368C406.56 176.008 405.744 176.328 404.896 176.328ZM411.83 177V171.528C412.182 170.904 413.19 170.296 413.926 170.296C414.118 170.296 414.262 170.312 414.406 170.344V169.112C413.35 169.112 412.454 169.704 411.83 170.52V169.272H410.63V177H411.83ZM417.111 177V166.328H415.911V177H417.111ZM422.881 177.192C425.233 177.192 426.705 175.368 426.705 173.128C426.705 170.888 425.233 169.08 422.881 169.08C420.529 169.08 419.057 170.888 419.057 173.128C419.057 175.368 420.529 177.192 422.881 177.192ZM422.881 176.12C421.233 176.12 420.305 174.712 420.305 173.128C420.305 171.56 421.233 170.152 422.881 170.152C424.529 170.152 425.441 171.56 425.441 173.128C425.441 174.712 424.529 176.12 422.881 176.12ZM432.037 177L435.253 169.272H433.941L431.381 175.608L428.805 169.272H427.509L430.725 177H432.037ZM436.073 180.024C436.297 180.088 436.697 180.136 436.953 180.136C437.977 180.12 438.761 179.688 439.225 178.568L443.097 169.272H441.785L439.225 175.608L436.649 169.272H435.353L438.585 177.08L438.073 178.248C437.801 178.888 437.449 179.064 436.921 179.064C436.729 179.064 436.441 179.016 436.265 178.936L436.073 180.024ZM453.353 177L457.657 166.328H456.137L452.537 175.544L448.937 166.328H447.417L451.705 177H453.353ZM464.021 177V171.688C464.021 169.816 462.661 169.08 461.029 169.08C459.765 169.08 458.773 169.496 457.941 170.36L458.501 171.192C459.189 170.456 459.941 170.12 460.869 170.12C461.989 170.12 462.821 170.712 462.821 171.752V173.144C462.197 172.424 461.317 172.088 460.261 172.088C458.949 172.088 457.557 172.904 457.557 174.632C457.557 176.312 458.949 177.192 460.261 177.192C461.301 177.192 462.181 176.824 462.821 176.12V177H464.021ZM460.693 176.328C459.573 176.328 458.789 175.624 458.789 174.648C458.789 173.656 459.573 172.952 460.693 172.952C461.541 172.952 462.357 173.272 462.821 173.912V175.368C462.357 176.008 461.541 176.328 460.693 176.328ZM467.627 177V171.528C467.979 170.904 468.987 170.296 469.723 170.296C469.915 170.296 470.059 170.312 470.203 170.344V169.112C469.147 169.112 468.251 169.704 467.627 170.52V169.272H466.427V177H467.627ZM471.276 180.024C471.5 180.088 471.9 180.136 472.156 180.136C473.18 180.12 473.964 179.688 474.428 178.568L478.3 169.272H476.988L474.428 175.608L471.852 169.272H470.556L473.788 177.08L473.276 178.248C473.004 178.888 472.652 179.064 472.124 179.064C471.932 179.064 471.644 179.016 471.468 178.936L471.276 180.024Z" fill="#515151"/>
<path d="M150.751 92L146.513 85.188C148.593 84.85 150.621 83.186 150.621 80.092C150.621 76.894 148.385 74.658 144.953 74.658H137.335V92H140.377V85.526H143.393L147.241 92H150.751ZM144.537 82.848H140.377V77.336H144.537C146.253 77.336 147.501 78.428 147.501 80.092C147.501 81.756 146.253 82.848 144.537 82.848ZM158.594 92.312C160.596 92.312 162.442 91.688 163.69 90.492L162.442 88.698C161.558 89.582 160.102 90.076 158.88 90.076C156.514 90.076 155.084 88.516 154.876 86.618H164.574V85.968C164.574 82.016 162.156 79.13 158.386 79.13C154.668 79.13 152.016 82.068 152.016 85.708C152.016 89.686 154.824 92.312 158.594 92.312ZM161.922 84.694H154.85C154.98 83.16 156.046 81.366 158.386 81.366C160.856 81.366 161.87 83.212 161.922 84.694ZM172.365 97.096C175.459 97.096 178.813 95.874 178.813 91.35V79.442H176.083V81.184C175.069 79.858 173.639 79.13 172.053 79.13C168.829 79.13 166.489 81.522 166.489 85.578C166.489 89.712 168.855 92.026 172.053 92.026C173.691 92.026 175.121 91.194 176.083 89.946V91.454C176.083 94.028 174.159 94.86 172.365 94.86C170.701 94.86 169.401 94.418 168.387 93.248L167.113 95.224C168.647 96.628 170.233 97.096 172.365 97.096ZM172.859 89.608C170.701 89.608 169.323 87.996 169.323 85.578C169.323 83.16 170.701 81.548 172.859 81.548C174.133 81.548 175.485 82.302 176.083 83.238V87.918C175.485 88.854 174.133 89.608 172.859 89.608ZM183.703 77.908C184.639 77.908 185.393 77.154 185.393 76.218C185.393 75.282 184.639 74.528 183.703 74.528C182.793 74.528 182.013 75.282 182.013 76.218C182.013 77.154 182.793 77.908 183.703 77.908ZM185.081 92V79.442H182.351V92H185.081ZM194.29 92.312C198.32 92.312 200.764 89.322 200.764 85.708C200.764 82.12 198.32 79.13 194.29 79.13C190.312 79.13 187.842 82.12 187.842 85.708C187.842 89.322 190.312 92.312 194.29 92.312ZM194.29 89.894C191.976 89.894 190.676 87.944 190.676 85.708C190.676 83.498 191.976 81.548 194.29 81.548C196.63 81.548 197.93 83.498 197.93 85.708C197.93 87.944 196.63 89.894 194.29 89.894ZM214.733 92V83.16C214.733 80.586 213.381 79.13 210.677 79.13C208.701 79.13 207.089 80.17 206.257 81.158V79.442H203.527V92H206.257V83.238C206.881 82.38 208.077 81.548 209.481 81.548C211.015 81.548 212.003 82.198 212.003 84.148V92H214.733Z" fill="#6DC400"/>
<path d="M419.038 92V74.658H414.748L410.016 86.072L405.31 74.658H401.02V92H404.062V79.13L409.366 92H410.666L415.996 79.13V92H419.038ZM429.541 77.544L431.959 73.8H430.217L428.293 76.322L426.265 73.8H424.549L427.045 77.544H429.541ZM428.449 92.312C430.451 92.312 432.297 91.688 433.545 90.492L432.297 88.698C431.413 89.582 429.957 90.076 428.735 90.076C426.369 90.076 424.939 88.516 424.731 86.618H434.429V85.968C434.429 82.016 432.011 79.13 428.241 79.13C424.523 79.13 421.871 82.068 421.871 85.708C421.871 89.686 424.679 92.312 428.449 92.312ZM431.777 84.694H424.705C424.835 83.16 425.901 81.366 428.241 81.366C430.711 81.366 431.725 83.212 431.777 84.694ZM441.413 92.312C444.793 92.312 446.639 90.622 446.639 88.412C446.639 83.42 439.047 85.084 439.047 82.848C439.047 81.964 439.957 81.314 441.387 81.314C442.947 81.314 444.351 81.964 445.105 82.822L446.249 80.898C445.105 79.884 443.493 79.13 441.361 79.13C438.189 79.13 436.421 80.898 436.421 82.952C436.421 87.762 444.013 85.994 444.013 88.464C444.013 89.452 443.181 90.154 441.543 90.154C439.905 90.154 438.163 89.296 437.279 88.386L436.031 90.362C437.331 91.636 439.281 92.312 441.413 92.312ZM453.157 92.312C454.431 92.312 455.237 91.974 455.731 91.506L455.081 89.452C454.873 89.686 454.379 89.894 453.859 89.894C453.079 89.894 452.663 89.27 452.663 88.412V81.834H455.211V79.442H452.663V76.01H449.933V79.442H447.853V81.834H449.933V89.088C449.933 91.168 451.051 92.312 453.157 92.312ZM463.358 92.312C467.388 92.312 469.832 89.322 469.832 85.708C469.832 82.12 467.388 79.13 463.358 79.13C459.38 79.13 456.91 82.12 456.91 85.708C456.91 89.322 459.38 92.312 463.358 92.312ZM463.358 89.894C461.044 89.894 459.744 87.944 459.744 85.708C459.744 83.498 461.044 81.548 463.358 81.548C465.698 81.548 466.998 83.498 466.998 85.708C466.998 87.944 465.698 89.894 463.358 89.894Z" fill="#6DC400"/>
<path opacity="0.1" d="M304 64.5V234" stroke="#515151" stroke-width="2"/>
<path d="M361 273L364 276L361 279" stroke="#6DC400" stroke-width="1.31579" stroke-linecap="round" stroke-linejoin="round"/>
<path d="M365 273L368 276L365 279" stroke="#6DC400" stroke-width="1.31579" stroke-linecap="round" stroke-linejoin="round"/>
<path d="M243.576 280V278.816H237.464L243.464 270.432V269.328H235.768V270.512H241.768L235.768 278.896V280H243.576ZM248.935 280.192C251.287 280.192 252.759 278.368 252.759 276.128C252.759 273.888 251.287 272.08 248.935 272.08C246.583 272.08 245.111 273.888 245.111 276.128C245.111 278.368 246.583 280.192 248.935 280.192ZM248.935 279.12C247.287 279.12 246.359 277.712 246.359 276.128C246.359 274.56 247.287 273.152 248.935 273.152C250.583 273.152 251.495 274.56 251.495 276.128C251.495 277.712 250.583 279.12 248.935 279.12ZM255.916 277.904V274.4C256.332 273.728 257.276 273.152 258.22 273.152C259.788 273.152 260.716 274.432 260.716 276.144C260.716 277.856 259.788 279.12 258.22 279.12C257.276 279.12 256.332 278.576 255.916 277.904ZM255.916 280V278.848C256.492 279.632 257.436 280.192 258.524 280.192C260.54 280.192 261.964 278.656 261.964 276.144C261.964 273.68 260.54 272.08 258.524 272.08C257.468 272.08 256.54 272.592 255.916 273.44V269.328H254.716V280H255.916ZM265.119 280V274.528C265.471 273.904 266.479 273.296 267.215 273.296C267.407 273.296 267.551 273.312 267.695 273.344V272.112C266.639 272.112 265.743 272.704 265.119 273.52V272.272H263.919V280H265.119ZM275.232 280V274.688C275.232 272.816 273.872 272.08 272.24 272.08C270.976 272.08 269.984 272.496 269.152 273.36L269.712 274.192C270.4 273.456 271.152 273.12 272.08 273.12C273.2 273.12 274.032 273.712 274.032 274.752V276.144C273.408 275.424 272.528 275.088 271.472 275.088C270.16 275.088 268.768 275.904 268.768 277.632C268.768 279.312 270.16 280.192 271.472 280.192C272.512 280.192 273.392 279.824 274.032 279.12V280H275.232ZM271.904 279.328C270.784 279.328 270 278.624 270 277.648C270 276.656 270.784 275.952 271.904 275.952C272.752 275.952 273.568 276.272 274.032 276.912V278.368C273.568 279.008 272.752 279.328 271.904 279.328ZM283.158 280V278.96H278.806L283.094 273.184V272.272H277.27V273.328H281.526L277.27 279.072V280H283.158ZM285.776 271.168C286.224 271.168 286.592 270.816 286.592 270.368C286.592 269.92 286.224 269.552 285.776 269.552C285.344 269.552 284.976 269.92 284.976 270.368C284.976 270.816 285.344 271.168 285.776 271.168ZM286.384 280V272.272H285.184V280H286.384ZM290.73 280.192C291.434 280.192 291.866 279.984 292.17 279.696L291.818 278.8C291.658 278.976 291.338 279.12 291.002 279.12C290.474 279.12 290.218 278.704 290.218 278.128V273.328H291.786V272.272H290.218V270.16H289.018V272.272H287.738V273.328H289.018V278.384C289.018 279.536 289.594 280.192 290.73 280.192ZM304.406 280L300.966 275.776L304.39 272.272H302.87L298.806 276.384V269.328H297.606V280H298.806V277.792L300.086 276.528L302.87 280H304.406ZM309.154 280.192C311.506 280.192 312.978 278.368 312.978 276.128C312.978 273.888 311.506 272.08 309.154 272.08C306.802 272.08 305.33 273.888 305.33 276.128C305.33 278.368 306.802 280.192 309.154 280.192ZM309.154 279.12C307.506 279.12 306.578 277.712 306.578 276.128C306.578 274.56 307.506 273.152 309.154 273.152C310.802 273.152 311.714 274.56 311.714 276.128C311.714 277.712 310.802 279.12 309.154 279.12ZM321.35 280V274.576C321.35 272.896 320.502 272.08 318.886 272.08C317.734 272.08 316.678 272.752 316.134 273.392V272.272H314.934V280H316.134V274.352C316.582 273.728 317.478 273.152 318.422 273.152C319.462 273.152 320.15 273.584 320.15 274.944V280H321.35ZM325.699 280.192C326.403 280.192 326.835 279.984 327.139 279.696L326.787 278.8C326.627 278.976 326.307 279.12 325.971 279.12C325.443 279.12 325.187 278.704 325.187 278.128V273.328H326.755V272.272H325.187V270.16H323.987V272.272H322.707V273.328H323.987V278.384C323.987 279.536 324.563 280.192 325.699 280.192ZM334.482 280V274.688C334.482 272.816 333.122 272.08 331.49 272.08C330.226 272.08 329.234 272.496 328.402 273.36L328.962 274.192C329.65 273.456 330.402 273.12 331.33 273.12C332.45 273.12 333.282 273.712 333.282 274.752V276.144C332.658 275.424 331.778 275.088 330.722 275.088C329.41 275.088 328.018 275.904 328.018 277.632C328.018 279.312 329.41 280.192 330.722 280.192C331.762 280.192 332.642 279.824 333.282 279.12V280H334.482ZM331.154 279.328C330.034 279.328 329.25 278.624 329.25 277.648C329.25 276.656 330.034 275.952 331.154 275.952C332.002 275.952 332.818 276.272 333.282 276.912V278.368C332.818 279.008 332.002 279.328 331.154 279.328ZM343.688 280L340.248 275.776L343.672 272.272H342.152L338.088 276.384V269.328H336.888V280H338.088V277.792L339.368 276.528L342.152 280H343.688ZM347.058 280.192C347.762 280.192 348.194 279.984 348.498 279.696L348.146 278.8C347.986 278.976 347.666 279.12 347.33 279.12C346.802 279.12 346.546 278.704 346.546 278.128V273.328H348.114V272.272H346.546V270.16H345.346V272.272H344.066V273.328H345.346V278.384C345.346 279.536 345.922 280.192 347.058 280.192Z" fill="#515151"/>
<defs>
<filter id="filter0_d_377_4281" x="0.594222" y="0.323703" width="617" height="364" filterUnits="userSpaceOnUse" color-interpolation-filters="sRGB">
<feFlood flood-opacity="0" result="BackgroundImageFix"/>
<feColorMatrix in="SourceAlpha" type="matrix" values="0 0 0 0 0 0 0 0 0 0 0 0 0 0 0 0 0 0 127 0" result="hardAlpha"/>
<feOffset dx="5.59422" dy="9.3237"/>
<feGaussianBlur stdDeviation="25"/>
<feColorMatrix type="matrix" values="0 0 0 0 0.310333 0 0 0 0 0.554167 0 0 0 0 0 0 0 0 0.15 0"/>
<feBlend mode="normal" in2="BackgroundImageFix" result="effect1_dropShadow_377_4281"/>
<feBlend mode="normal" in="SourceGraphic" in2="effect1_dropShadow_377_4281" result="shape"/>
</filter>
</defs>
</svg>
