<?xml version="1.0" encoding="utf-8"?>
<!-- Generator: Adobe Illustrator 26.5.0, SVG Export Plug-In . SVG Version: 6.00 Build 0)  -->
<svg version="1.1" id="Vrstva_1" xmlns="http://www.w3.org/2000/svg" xmlns:xlink="http://www.w3.org/1999/xlink" x="0px" y="0px"
	 viewBox="0 0 1920 710.6" style="enable-background:new 0 0 1920 710.6;" xml:space="preserve">
<style type="text/css">
	.st0{opacity:0.1;fill:#6DC400;enable-background:new    ;}
</style>
<g>
	<path class="st0" d="M1920,0H0v575.1c36.1-31.6,73.1-60,107-79.1c130.5-73.5,251.3-90.5,356.5,39.5c405.5,501,356-242.8,505.5-140
		c128.1,88.1,441.2,357,707.5,60.5c106.4-118.5,184-108.7,243.5-47.9V0z"/>
	<g>
		<path class="st0" d="M932.7-2H375.4c61.4,76.3,114.2,163.1,142.5,202.5C610,328.8,784.1,113.6,932.7-2z"/>
		<path class="st0" d="M1210-2c149.9,77.6,222.3,91,334.6,0H1210z"/>
	</g>
</g>
</svg>
