<?xml version="1.0" encoding="utf-8"?>
<!-- Generator: Adobe Illustrator 26.5.0, SVG Export Plug-In . SVG Version: 6.00 Build 0)  -->
<svg version="1.1" id="Vrstva_1" xmlns="http://www.w3.org/2000/svg" xmlns:xlink="http://www.w3.org/1999/xlink" x="0px" y="0px"
	 viewBox="0 0 46.2 46.2" style="enable-background:new 0 0 46.2 46.2;" xml:space="preserve">
<style type="text/css">
	.st0{fill:#1877F2;}
	.st1{fill:#FFFFFF;}
</style>
<g>
	<path class="st0" d="M46.2,23.1C46.2,10.3,35.9,0,23.1,0S0,10.3,0,23.1c0,11.5,8.4,21.1,19.5,22.8V29.8h-5.9v-6.7h5.9V18
		c0-5.8,3.4-9,8.7-9c2.5,0,5.2,0.5,5.2,0.5v5.7h-2.9c-2.9,0-3.8,1.8-3.8,3.6v4.3h6.4l-1,6.7h-5.4v16.1
		C37.8,44.2,46.2,34.6,46.2,23.1z"/>
	<path class="st1" d="M32.1,29.8l1-6.7h-6.4v-4.3c0-1.8,0.9-3.6,3.8-3.6h2.9V9.5c0,0-2.6-0.5-5.2-0.5c-5.3,0-8.7,3.2-8.7,9v5.1h-5.9
		v6.7h5.9v16.1c1.2,0.2,2.4,0.3,3.6,0.3s2.4-0.1,3.6-0.3V29.8H32.1z"/>
</g>
</svg>
