<svg width="28" height="28" viewBox="0 0 28 28" fill="none" xmlns="http://www.w3.org/2000/svg">
<path d="M14 5.41304C16.6288 5.41304 18.4022 6.54859 19.4133 7.49747L23.3643 3.63973C20.9377 1.38419 17.7799 -0.000244141 14 -0.000244141C8.52446 -0.000244141 3.79561 3.14195 1.49341 7.71525L6.02004 11.2308C7.15558 7.85525 10.2978 5.41304 14 5.41304Z" fill="#EA4335"/>
<path d="M27.4401 14.3104C27.4401 13.1593 27.3468 12.3193 27.1446 11.4482H14.0002V16.6438H21.7157C21.5602 17.9349 20.7202 19.8793 18.8535 21.1859L23.2713 24.6081C25.9157 22.1659 27.4401 18.5726 27.4401 14.3104Z" fill="#4285F4"/>
<path d="M6.03575 16.7688C5.7402 15.8977 5.56909 14.9644 5.56909 14C5.56909 13.0355 5.7402 12.1022 6.0202 11.2311L1.49357 7.71558C0.544684 9.61334 0.000244141 11.7444 0.000244141 14C0.000244141 16.2555 0.544684 18.3866 1.49357 20.2844L6.03575 16.7688Z" fill="#FBBC05"/>
<path d="M14 28.0001C17.78 28.0001 20.9533 26.7556 23.2711 24.609L18.8533 21.1868C17.6711 22.0112 16.0845 22.5868 14 22.5868C10.2979 22.5868 7.15565 20.1446 6.03566 16.769L1.50903 20.2846C3.81124 24.8579 8.52453 28.0001 14 28.0001Z" fill="#34A853"/>
</svg>
