<svg width="18" height="18" viewBox="0 0 18 18" fill="none" xmlns="http://www.w3.org/2000/svg">
<g clip-path="url(#clip0_4073_39206)">
<path d="M15.9952 1.51359C15.8689 1.38745 15.6643 1.38734 15.538 1.51359L12.1866 4.8649C12.0604 4.99114 12.0604 5.19575 12.1866 5.32203C12.2497 5.38514 12.3324 5.41667 12.4152 5.41667C12.4979 5.41667 12.5806 5.38514 12.6438 5.32203L15.9952 1.97073C16.1214 1.84445 16.1214 1.6398 15.9952 1.51359Z" fill="#6DC400"/>
<path d="M16.9066 2.41104C16.7803 2.28486 16.5757 2.28486 16.4495 2.41104L13.0981 5.76241C12.9719 5.88869 12.9719 6.0933 13.098 6.21954C13.1612 6.28265 13.2439 6.31418 13.3266 6.31418C13.4093 6.31418 13.4921 6.28265 13.5552 6.21954L16.9066 2.86814C17.0329 2.74189 17.0329 2.53725 16.9066 2.41104Z" fill="#6DC400"/>
<path d="M13.7449 8.07001L17.9052 3.90969C18.0315 3.78341 18.0315 3.5788 17.9052 3.45256C17.7789 3.32641 17.5743 3.32631 17.4481 3.45256L13.2878 7.61287C12.7753 8.12538 11.9916 8.25986 11.3377 7.9476C11.2076 7.88551 11.0523 7.91691 10.9567 8.0247L9.54307 9.61738C9.54251 9.61798 9.54187 9.6185 9.54131 9.61914C9.54075 9.61977 9.54033 9.62044 9.53976 9.62107L3.43 16.5046C3.42845 16.5063 3.4269 16.5081 3.42539 16.5099C3.40525 16.5336 3.38623 16.5543 3.36696 16.5736C2.96354 16.977 2.30717 16.977 1.90393 16.5736C1.70853 16.3783 1.60092 16.1184 1.60092 15.8421C1.60092 15.5658 1.70853 15.306 1.90428 15.1102C1.92306 15.0913 1.9438 15.0724 1.96767 15.0521C1.9695 15.0506 1.97126 15.049 1.97301 15.0475L5.79267 11.6572C5.92619 11.5387 5.93832 11.3344 5.81985 11.2009C5.70134 11.0674 5.49701 11.0552 5.36355 11.1737L1.54643 14.5618C1.50994 14.5929 1.47728 14.623 1.44683 14.6535C1.12934 14.971 0.954468 15.3931 0.954468 15.8421C0.954468 16.2911 1.1293 16.7132 1.4468 17.0307C1.77456 17.3584 2.20498 17.5223 2.6355 17.5223C3.06585 17.5223 3.49637 17.3585 3.82389 17.0309C3.85493 16.9999 3.88499 16.9672 3.91585 16.9311L8.57167 11.6856L13.2276 16.9312C13.2584 16.9674 13.2884 17.0001 13.3193 17.0308C13.647 17.3585 14.0774 17.5223 14.5079 17.5223C14.9384 17.5223 15.3688 17.3585 15.6966 17.0308C16.3519 16.3754 16.3519 15.309 15.6968 14.6538C15.6658 14.6227 15.6331 14.5927 15.597 14.5618L10.2395 9.80659L11.2877 8.62562C12.1369 8.92652 13.0979 8.71692 13.7449 8.07001ZM15.1703 15.0475C15.1721 15.0491 15.1739 15.0506 15.1757 15.0521C15.1993 15.0723 15.2201 15.0913 15.2394 15.1105C15.6428 15.5139 15.6428 16.1703 15.2394 16.5736C14.836 16.9769 14.1797 16.9769 13.7762 16.5734C13.7571 16.5543 13.738 16.5335 13.7178 16.5098C13.7163 16.508 13.7148 16.5062 13.7132 16.5045L9.00381 11.1986L9.81026 10.29L15.1703 15.0475Z" fill="#6DC400"/>
<path d="M15.0252 0.572171C14.8989 0.445995 14.6943 0.445995 14.568 0.572171L10.4078 4.73253C9.76069 5.37954 9.55116 6.3404 9.85206 7.18984L8.57185 8.32616L7.34145 7.23407C7.97774 5.98209 7.74546 4.46196 6.73599 3.45245C5.7334 2.44987 4.57212 1.74432 3.46607 1.46584C2.31143 1.17521 1.3215 1.36923 0.678353 2.01235C0.0352043 2.65546 -0.158858 3.64553 0.131849 4.8001C0.410357 5.90608 1.11587 7.06736 2.11853 8.06991C3.12801 9.07946 4.64809 9.31173 5.90015 8.67541C5.90015 8.67541 7.10337 10.031 7.11863 10.0482C7.1825 10.1202 7.27127 10.1568 7.3605 10.1568C7.43683 10.1568 7.5134 10.13 7.57495 10.0753L10.4531 7.52073C10.5608 7.42507 10.5922 7.26968 10.5302 7.13968C10.2178 6.48573 10.3523 5.7021 10.8649 5.18963L15.0252 1.02931C15.1514 0.903026 15.1514 0.698417 15.0252 0.572171ZM7.38754 9.37737L6.21093 8.05177C6.10672 7.93438 5.93312 7.90872 5.79953 7.99123C4.76319 8.63027 3.43745 8.47477 2.57556 7.61284C1.65433 6.69164 1.0091 5.63671 0.758685 4.64224C0.525775 3.71704 0.659579 2.94536 1.13549 2.46948C1.61133 1.99354 2.38301 1.8598 3.30818 2.09275C4.30265 2.34313 5.35765 2.98832 6.27881 3.90955C7.1407 4.77141 7.29624 6.09715 6.65717 7.13349C6.57476 7.26712 6.60032 7.44065 6.7177 7.54489L8.08486 8.75834L7.38754 9.37737Z" fill="#6DC400"/>
</g>
<defs>
<clipPath id="clip0_4073_39206">
<rect width="18" height="18" fill="white"/>
</clipPath>
</defs>
</svg>
