<svg width="18" height="18" viewBox="0 0 18 18" fill="none" xmlns="http://www.w3.org/2000/svg">
<g clip-path="url(#clip0_4073_39151)">
<path d="M17.8085 7.31454L9.27619 1.06738C9.11166 0.946939 8.88814 0.946939 8.72368 1.06738L0.191324 7.31454C-0.0170822 7.46716 -0.0623635 7.7598 0.0902498 7.9682C0.242863 8.17661 0.535539 8.22182 0.74391 8.06928L8.9999 2.02437L17.2559 8.06924C17.3391 8.13024 17.4359 8.15959 17.5318 8.15959C17.6758 8.15959 17.8179 8.09332 17.9095 7.96817C18.0622 7.7598 18.0169 7.46716 17.8085 7.31454Z" fill="#6DC400"/>
<path d="M15.5478 8.17529C15.2896 8.17529 15.0801 8.38468 15.0801 8.64298V16.0873H11.3387V12.0237C11.3387 10.7342 10.2896 9.68511 9.00014 9.68511C7.71068 9.68511 6.66154 10.7342 6.66154 12.0237V16.0873H2.92011V8.64301C2.92011 8.38472 2.71068 8.17533 2.45242 8.17533C2.19417 8.17533 1.98474 8.38472 1.98474 8.64301V16.555C1.98474 16.8133 2.19417 17.0227 2.45242 17.0227H7.12923C7.37518 17.0227 7.57645 16.8327 7.59508 16.5915C7.59621 16.5805 7.59691 16.5686 7.59691 16.555V12.0237C7.59691 11.25 8.22638 10.6205 9.00014 10.6205C9.77389 10.6205 10.4034 11.25 10.4034 12.0237V16.555C10.4034 16.5685 10.4041 16.5802 10.4052 16.591C10.4236 16.8324 10.625 17.0227 10.871 17.0227H15.5478C15.8061 17.0227 16.0155 16.8133 16.0155 16.555V8.64301C16.0155 8.38468 15.8061 8.17529 15.5478 8.17529Z" fill="#6DC400"/>
</g>
<defs>
<clipPath id="clip0_4073_39151">
<rect width="18" height="18" fill="white"/>
</clipPath>
</defs>
</svg>
