<svg width="44" height="45" viewBox="0 0 44 45" fill="none" xmlns="http://www.w3.org/2000/svg">
<circle cx="22" cy="22.25" r="22" fill="#6DC400"/>
<path fill-rule="evenodd" clip-rule="evenodd" d="M18.4375 11.75H26.3125C29.9363 11.75 32.875 14.6887 32.875 18.3125V26.1875C32.875 29.8113 29.9363 32.75 26.3125 32.75H18.4375C14.8137 32.75 11.875 29.8113 11.875 26.1875V18.3125C11.875 14.6887 14.8137 11.75 18.4375 11.75ZM26.3125 30.7812C28.8456 30.7812 30.9062 28.7206 30.9062 26.1875V18.3125C30.9062 15.7794 28.8456 13.7188 26.3125 13.7188H18.4375C15.9044 13.7188 13.8438 15.7794 13.8438 18.3125V26.1875C13.8438 28.7206 15.9044 30.7812 18.4375 30.7812H26.3125Z" fill="white"/>
<path fill-rule="evenodd" clip-rule="evenodd" d="M17.125 22.25C17.125 19.3507 19.4757 17 22.375 17C25.2743 17 27.625 19.3507 27.625 22.25C27.625 25.1493 25.2743 27.5 22.375 27.5C19.4757 27.5 17.125 25.1493 17.125 22.25ZM19.0938 22.25C19.0938 24.0586 20.5664 25.5312 22.375 25.5312C24.1836 25.5312 25.6562 24.0586 25.6562 22.25C25.6562 20.4401 24.1836 18.9688 22.375 18.9688C20.5664 18.9688 19.0938 20.4401 19.0938 22.25Z" fill="white"/>
<circle cx="28.0179" cy="16.6063" r="0.699562" fill="white"/>
</svg>
