<svg xmlns="http://www.w3.org/2000/svg" width="24" height="24" fill="none" viewBox="0 0 24 24">
  <g clip-path="url(#a)">
    <path fill="#A0E65C" d="M12 19.688a7.73 7.73 0 0 1-6.904-4.258C2.232 15.143 0 12.77 0 9.844s2.232-5.3 5.096-5.586A7.73 7.73 0 0 1 12 0a7.73 7.73 0 0 1 6.904 4.258C21.768 4.544 24 6.918 24 9.844s-2.232 5.3-5.096 5.586A7.73 7.73 0 0 1 12 19.688Z"/>
    <path fill="#7ACC52" d="M18.904 15.43C21.768 15.143 24 12.77 24 9.844s-2.232-5.3-5.096-5.586A7.73 7.73 0 0 0 12 0v19.688a7.73 7.73 0 0 0 6.904-4.258Z"/>
    <path fill="#fff" d="M14.11 7.734c0 .746-.408 1.449-1.055 1.829a.71.71 0 0 0-.352.604v1.083h-1.406v-1.083c0-.59.267-1.167.703-1.56.284-.285.703-.368.703-.873A.696.696 0 0 0 12 7.031a.696.696 0 0 0-.703.703H9.89c0-1.167.942-2.109 2.109-2.109s2.11.942 2.11 2.11Zm-2.813 4.922h1.406v1.406h-1.406v-1.406Z"/>
    <path fill="#A0E65C" d="M4.969 24a2.112 2.112 0 0 1-2.11-2.11c0-1.163.947-2.109 2.11-2.109 1.163 0 2.11.947 2.11 2.11A2.112 2.112 0 0 1 4.969 24Z"/>
    <path fill="#F1F1F1" d="M12 12.656h.703v1.406H12v-1.406Zm2.11-4.922c0 .746-.408 1.449-1.055 1.829a.71.71 0 0 0-.352.604v1.083H12V8.606c.284-.284.703-.367.703-.872A.696.696 0 0 0 12 7.031V5.625c1.167 0 2.11.942 2.11 2.11Z"/>
  </g>
  <defs>
    <clipPath id="a">
      <path fill="#fff" d="M0 0h24v24H0z"/>
    </clipPath>
  </defs>
</svg>
