<svg width="16" height="16" viewBox="0 0 16 16" fill="none" xmlns="http://www.w3.org/2000/svg">
<path d="M3.66446 3.17285C6.02667 1.03608 9.56181 1.0034 11.9567 2.95394L10.0584 3.02582C9.81339 3.03562 9.62389 3.23819 9.63369 3.48323C9.6435 3.72174 9.83953 3.90797 10.0748 3.90797C10.0813 3.90797 10.0846 3.90797 10.0911 3.90797L13.0055 3.80016C13.244 3.79035 13.4302 3.59759 13.4302 3.35908V3.32641C13.4302 3.31987 13.4302 3.31661 13.4302 3.31007V3.3068L13.3224 0.425104C13.3126 0.180062 13.1068 -0.009438 12.865 0.000363705C12.6199 0.0101654 12.4304 0.212734 12.4402 0.457776L12.5089 2.26456C11.3229 1.29419 9.8624 0.732224 8.30066 0.65381C6.36646 0.555793 4.50741 1.21904 3.07309 2.5194C1.09968 4.30658 0.26327 7.02491 0.890579 9.61256C0.939587 9.81513 1.11929 9.94909 1.31859 9.94909C1.35453 9.94909 1.3872 9.94582 1.42314 9.93602C1.65838 9.87721 1.8054 9.6387 1.74659 9.40346C1.1977 7.12947 1.92956 4.74112 3.66446 3.17285Z" fill="#6DC400"/>
<path d="M15.1095 6.38769C15.0507 6.15245 14.8122 6.00543 14.577 6.06424C14.3417 6.12305 14.1947 6.36156 14.2535 6.5968C14.8057 8.87079 14.0705 11.2591 12.3356 12.8274C11.117 13.9285 9.58791 14.4708 8.06538 14.4708C6.61146 14.4708 5.1608 13.9775 3.99113 13.0038L5.91227 12.8307C6.15404 12.8078 6.33374 12.5954 6.31087 12.3504C6.288 12.1053 6.07563 11.9289 5.83059 11.9518L2.92602 12.2132C2.68424 12.236 2.50454 12.4484 2.52741 12.6934L2.78879 15.598C2.8084 15.8267 3.00116 15.9999 3.2266 15.9999C3.23967 15.9999 3.25274 15.9999 3.26581 15.9966C3.50758 15.9737 3.68728 15.7614 3.66441 15.5163L3.50758 13.7488C4.69359 14.7093 6.14751 15.268 7.69945 15.3464C7.8236 15.353 7.94775 15.3562 8.06864 15.3562C9.86889 15.3562 11.5809 14.6963 12.927 13.4809C14.9004 11.6937 15.7368 8.97861 15.1095 6.38769Z" fill="#6DC400"/>
</svg>
