<svg width="18" height="18" viewBox="0 0 18 18" fill="none" xmlns="http://www.w3.org/2000/svg">
<g clip-path="url(#clip0_4073_39163)">
<path d="M16.6012 7.09128C16.9272 6.77357 17.0422 6.3073 16.9016 5.87442C16.761 5.44154 16.3938 5.13199 15.9434 5.06656L12.0048 4.49425C11.9275 4.48304 11.8607 4.43449 11.8261 4.36439L10.0647 0.7955C9.86331 0.387336 9.45543 0.133789 9.00026 0.133789C8.54509 0.133789 8.13721 0.387336 7.9358 0.7955L6.17443 4.36442C6.13981 4.43449 6.07301 4.48304 5.99566 4.49429L2.05718 5.06656C1.60676 5.13199 1.23962 5.44154 1.09893 5.87442C0.958232 6.3073 1.07333 6.77357 1.3993 7.09128L4.24924 9.86929C4.30518 9.92385 4.33073 10.0024 4.31752 10.0795L3.64473 14.0021C3.56781 14.4507 3.74872 14.8955 4.11695 15.1631C4.48518 15.4307 4.96429 15.4652 5.36711 15.2535L8.8898 13.4015C8.95898 13.3651 9.04157 13.3651 9.11079 13.4015L12.6335 15.2535C12.8087 15.3456 12.9983 15.3911 13.187 15.3911C13.4321 15.3911 13.6755 15.3143 13.8836 15.163C14.2518 14.8954 14.4327 14.4506 14.3558 14.002L13.683 10.0794C13.6698 10.0024 13.6953 9.92382 13.7513 9.86926L16.6012 7.09128ZM12.7471 10.24L13.4199 14.1627C13.4424 14.294 13.3614 14.3688 13.3255 14.3949C13.2895 14.4209 13.1933 14.4749 13.0754 14.4129L9.5527 12.5609C9.37977 12.47 9.19007 12.4245 9.00033 12.4245C8.81059 12.4245 8.62085 12.47 8.44795 12.5609L4.92526 14.4128C4.80735 14.4748 4.71113 14.4208 4.67523 14.3948C4.63934 14.3687 4.55827 14.2939 4.5808 14.1626L5.25359 10.24C5.31964 9.85488 5.19206 9.46211 4.91218 9.18934L2.06224 6.41132C1.96686 6.3183 1.98845 6.21012 2.0022 6.16794C2.01587 6.12571 2.06203 6.02548 2.19383 6.00636L6.13228 5.43405C6.51897 5.37787 6.85313 5.13515 7.02609 4.78468L8.78746 1.21576C8.84641 1.09633 8.95596 1.08343 9.00036 1.08343C9.0447 1.08343 9.15424 1.0963 9.21323 1.21576V1.21579L10.9746 4.78471C11.1475 5.13519 11.4817 5.37791 11.8683 5.43409L15.8069 6.00639C15.9387 6.02552 15.9848 6.12575 15.9985 6.16797C16.0122 6.2102 16.0338 6.31841 15.9384 6.41136L13.0885 9.18937C12.8086 9.46211 12.681 9.85488 12.7471 10.24Z" fill="#6DC400"/>
<path d="M14.5476 0.795294C14.3354 0.641169 14.0385 0.688208 13.8844 0.900341L13.3804 1.59404C13.2263 1.80618 13.2733 2.10314 13.4854 2.25727C13.5698 2.31847 13.6674 2.34797 13.7642 2.34797C13.911 2.34797 14.0558 2.28008 14.1487 2.15225L14.6527 1.45855C14.8068 1.24638 14.7598 0.949419 14.5476 0.795294Z" fill="#6DC400"/>
<path d="M4.61826 1.59155L4.11423 0.897849C3.96014 0.685786 3.6632 0.638747 3.451 0.792802C3.23887 0.946927 3.19183 1.24389 3.34595 1.45603L3.84999 2.14973C3.94291 2.27766 4.08768 2.34552 4.23457 2.34552C4.33135 2.34552 4.42902 2.31602 4.51325 2.25478C4.72539 2.10069 4.77243 1.80372 4.61826 1.59155Z" fill="#6DC400"/>
<path d="M1.74218 10.7872C1.66114 10.5378 1.39329 10.4013 1.14385 10.4823L0.328334 10.7474C0.0789001 10.8284 -0.0575413 11.0963 0.0234939 11.3457C0.0886736 11.5464 0.274826 11.6739 0.47497 11.6739C0.523592 11.6739 0.573056 11.6664 0.621818 11.6505L1.43734 11.3855C1.68674 11.3045 1.82321 11.0366 1.74218 10.7872Z" fill="#6DC400"/>
<path d="M9.00094 16.0591C8.73871 16.0591 8.52612 16.2717 8.52612 16.5339V17.3914C8.52612 17.6537 8.73871 17.8663 9.00094 17.8663C9.26317 17.8663 9.47576 17.6537 9.47576 17.3914V16.5339C9.47576 16.2716 9.26321 16.0591 9.00094 16.0591Z" fill="#6DC400"/>
<path d="M17.6718 10.7478L16.8563 10.4828C16.607 10.4018 16.339 10.5383 16.258 10.7877C16.177 11.0371 16.3134 11.305 16.5628 11.386L17.3784 11.651C17.4271 11.6668 17.4765 11.6744 17.5252 11.6744C17.7253 11.6744 17.9115 11.5468 17.9767 11.3461C18.0577 11.0967 17.9212 10.8289 17.6718 10.7478Z" fill="#6DC400"/>
</g>
<defs>
<clipPath id="clip0_4073_39163">
<rect width="18" height="18" fill="white"/>
</clipPath>
</defs>
</svg>
