<svg width="44" height="45" viewBox="0 0 44 45" fill="none" xmlns="http://www.w3.org/2000/svg">
<circle cx="22" cy="22.25" r="22" fill="#6DC400"/>
<path d="M35.7917 14.2188C34.8372 14.6375 33.8201 14.915 32.7598 15.0498C33.8506 14.3985 34.6832 13.375 35.0746 12.1414C34.0576 12.7478 32.9346 13.1761 31.7379 13.4151C30.7722 12.3869 29.3959 11.75 27.8944 11.75C24.9812 11.75 22.6359 14.1145 22.6359 17.0133C22.6359 17.4304 22.6712 17.8314 22.7578 18.2132C18.3833 17.9998 14.5124 15.9032 11.912 12.7093C11.4581 13.4969 11.1918 14.3985 11.1918 15.369C11.1918 17.1913 12.1302 18.8067 13.529 19.742C12.6836 19.7259 11.8543 19.4805 11.1517 19.0939C11.1517 19.1099 11.1517 19.1308 11.1517 19.1516C11.1517 21.7087 12.9756 23.8326 15.3674 24.3219C14.9391 24.439 14.4723 24.4951 13.9878 24.4951C13.651 24.4951 13.3109 24.4759 12.9916 24.4053C13.6734 26.4891 15.608 28.0211 17.9084 28.0708C16.1182 29.4712 13.8451 30.315 11.3843 30.315C10.9528 30.315 10.5389 30.2958 10.125 30.2428C12.4559 31.7459 15.2182 32.6042 18.1972 32.6042C27.8799 32.6042 33.1737 24.5833 33.1737 17.6309C33.1737 17.3983 33.1656 17.1737 33.1544 16.9507C34.1987 16.2096 35.0762 15.284 35.7917 14.2188Z" fill="white"/>
</svg>
