<svg width="15" height="17" viewBox="0 0 15 17" fill="none" xmlns="http://www.w3.org/2000/svg">
<path d="M14.2915 14.7338L13.3132 3.70896C13.2956 3.49079 13.1126 3.3254 12.8909 3.3254H10.8288C10.8253 1.49203 9.3333 0 7.49993 0C5.66656 0 4.17453 1.49203 4.17101 3.3254H2.10891C1.89074 3.3254 1.70775 3.49079 1.68664 3.70896L0.708374 14.7338C0.708374 14.7479 0.708374 14.7584 0.708374 14.7725C0.708374 16.0006 1.83795 17 3.22442 17H11.7754C13.1619 17 14.2915 16.0006 14.2915 14.7725C14.2915 14.7584 14.2915 14.7479 14.2915 14.7338ZM7.49993 0.844546C8.8688 0.844546 9.98078 1.95653 9.9843 3.3254H5.01556C5.01908 1.95653 6.13106 0.844546 7.49993 0.844546ZM11.7754 16.1519H3.22442C2.30949 16.1519 1.56348 15.5432 1.55292 14.7866L2.496 4.16994H4.17101V5.65142C4.17101 5.88367 4.36103 6.07369 4.59328 6.07369C4.82553 6.07369 5.01556 5.88367 5.01556 5.65142V4.16994H9.9843V5.65142C9.9843 5.88367 10.1743 6.07369 10.4066 6.07369C10.6388 6.07369 10.8288 5.88367 10.8288 5.65142V4.16994H12.5039L13.4469 14.7901C13.4364 15.5432 12.6904 16.1519 11.7754 16.1519Z" fill="#6DC400"/>
</svg>
