<?xml version="1.0" encoding="utf-8"?>
<!-- Generator: Adobe Illustrator 26.5.0, SVG Export Plug-In . SVG Version: 6.00 Build 0)  -->
<svg version="1.1" id="Vrstva_1" xmlns="http://www.w3.org/2000/svg" xmlns:xlink="http://www.w3.org/1999/xlink" x="0px" y="0px"
	 viewBox="0 0 1920 984" style="enable-background:new 0 0 1920 984;" xml:space="preserve">
<style type="text/css">
	.st0{clip-path:url(#SVGID_00000129897156666751516780000017211458602415976064_);}
	.st1{opacity:0.5;clip-path:url(#SVGID_00000145060301762498060020000004735852658755341997_);}
	.st2{opacity:0.4;fill:#D8D8D8;enable-background:new    ;}
	.st3{fill:#63813A;}
	.st4{fill:#B7C54C;}
	.st5{fill:#FEEBD7;}
	.st6{fill:#FDD4A3;}
	.st7{opacity:0.6;fill:#F4CEAE;enable-background:new    ;}
	.st8{fill:#E5656F;}
	.st9{fill:#C14D5C;}
	.st10{fill:#E28450;}
	.st11{fill:#FFFFFF;}
	.st12{fill:#F7A776;}
	.st13{fill:#C9BEB1;}
	.st14{fill:#DDD3C7;}
	.st15{fill:#63849C;}
	.st16{fill:#95B3C6;}
	.st17{opacity:0.22;fill:#95B3C6;enable-background:new    ;}
	.st18{opacity:0.5;clip-path:url(#SVGID_00000115513646007666553970000011389509878169754549_);}
	.st19{fill:#FF9566;}
	.st20{fill:#639E63;}
	.st21{fill:#5EA55E;}
	.st22{fill:#4C8E4C;}
	.st23{fill:#6CBC6E;}
	.st24{fill:#F7DEB0;}
	.st25{fill:#773E5B;}
	.st26{fill:#FFB882;}
	.st27{fill:#6BAA66;}
	.st28{fill:#E8C792;}
	.st29{fill:#F2E0AD;}
	.st30{fill:#893D37;}
	.st31{fill:#702B28;}
	.st32{opacity:0.6;fill:#C94343;enable-background:new    ;}
	.st33{fill:#DB5B3E;}
	.st34{fill:#4F3131;}
	.st35{fill:#EA7B59;}
	.st36{fill:#FFF5E1;}
	.st37{opacity:0.5;clip-path:url(#SVGID_00000155866965435662734080000004115293377035525264_);}
	.st38{fill:#50BFA5;}
	.st39{fill:#2D967E;}
	.st40{fill:#B75742;}
	.st41{fill:#184655;}
	.st42{fill:#7ACEBB;}
	.st43{fill:#466EB6;}
	.st44{fill:#9BC1F9;}
	.st45{fill:#13375B;}
	.st46{fill:#F47458;}
	.st47{opacity:0.57;fill:#86B1F2;enable-background:new    ;}
	.st48{fill:#355389;}
	.st49{fill:#86B1F2;}
	.st50{fill:#5BCFF7;}
	.st51{fill:#F7CC7F;}
	.st52{opacity:0.5;}
	.st53{fill:#FFBF4D;}
	.st54{fill:#FFA33E;}
	.st55{fill:#FF7694;}
	.st56{fill:#A88476;}
	.st57{fill:#895F52;}
	.st58{fill:#ED4854;}
	.st59{fill:#7A6651;}
	.st60{fill:#9B8B78;}
	.st61{fill:#56323B;}
	.st62{fill:#E5D2B7;}
	.st63{fill:#D8BE9E;}
	.st64{fill:#FFEED2;}
	.st65{fill:#FFF3E1;}
	.st66{fill:#C1A787;}
	.st67{fill:#F4E2C9;}
	.st68{fill:#FFF1DC;}
	.st69{fill:#80CBD8;}
	.st70{opacity:0.6;fill:#CC7D7D;enable-background:new    ;}
	.st71{fill:#C1A584;}
	.st72{fill:#DDC2A8;}
	.st73{fill:#619CAA;}
	.st74{fill:#4D8993;}
	.st75{fill:#AA4F3D;}
	.st76{fill:#8C3425;}
	.st77{fill:#EAC18B;}
	.st78{fill:#F7D7A9;}
	.st79{fill:#FFEAC0;}
	.st80{opacity:0.6;fill:#843131;enable-background:new    ;}
	.st81{fill:#FFF9DE;}
	.st82{fill:#7F4442;}
	.st83{fill:#492E2E;}
	.st84{fill:#492D26;}
	.st85{opacity:0.55;fill:#FFF7DB;enable-background:new    ;}
	.st86{fill:#6D2D38;}
	.st87{fill:#6BADDB;}
	.st88{fill:#A2D6F4;}
	.st89{fill:#2F6E8E;}
	.st90{fill:#E5C289;}
	.st91{fill:#5E484F;}
	.st92{fill:#47333A;}
	.st93{fill:#3A2930;}
	.st94{fill:#FFF1C5;}
	.st95{fill:#62ACDD;}
	.st96{fill:#894049;}
	.st97{fill:#66423B;}
	.st98{fill:#C14D33;}
	.st99{fill:#491D2E;}
	.st100{fill:#FFEBEB;}
	.st101{fill:#EF8F6F;}
	.st102{fill:#7CBFE5;}
	.st103{fill:#A5254C;}
	.st104{fill:#BC395B;}
	.st105{fill:#991F47;}
	.st106{fill:#7C193A;}
	.st107{fill:#B77437;}
	.st108{fill:#FAFFF3;}
	.st109{fill-rule:evenodd;clip-rule:evenodd;fill:#FFFFFF;}
</style>
<g>
	<defs>
		<rect id="SVGID_1_" width="1920" height="984"/>
	</defs>
	<clipPath id="SVGID_00000158027494857463898700000014054060279560546701_">
		<use xlink:href="#SVGID_1_"  style="overflow:visible;"/>
	</clipPath>
	<g style="clip-path:url(#SVGID_00000158027494857463898700000014054060279560546701_);">
		<g>
			<defs>
				<rect id="SVGID_00000173840428117341978010000006944685527046439298_" x="1623" y="57" width="412" height="284"/>
			</defs>
			<clipPath id="SVGID_00000058565076763095408830000001757931018825924004_">
				<use xlink:href="#SVGID_00000173840428117341978010000006944685527046439298_"  style="overflow:visible;"/>
			</clipPath>
			<g style="opacity:0.5;clip-path:url(#SVGID_00000058565076763095408830000001757931018825924004_);">
				<path class="st2" d="M1829,341c113.8,0,206-8.6,206-19.3s-92.2-19.3-206-19.3s-206,8.6-206,19.3S1715.2,341,1829,341z"/>
				<path class="st3" d="M1681.1,286c5.3-0.5,10.6-0.1,15.7,1.2c1.6-7.8,5.7-14.9,11.7-20.2c6-5.3,13.5-8.5,21.4-9.2h1.2
					c1.6-10.6,6.6-20.5,14.1-28.1c15.5-15.7,39.2-19.7,59-10c9.6,4.8,17.5,12.4,22.6,21.9c10.7-3.3,22.1-3.7,32.9-1.1
					c10.9,2.5,20.9,7.8,29.1,15.4c8.2,7.6,14.3,17.2,17.6,27.9c3.3,10.7,3.8,22.1,1.4,33h-267.2c3.2-8.4,8.6-15.8,15.8-21.2
					C1663.6,290.1,1672.2,286.8,1681.1,286L1681.1,286z"/>
				<path class="st4" d="M1862.5,302.3c3.8-0.3,7.6,0,11.3,0.9c1.2-5.7,4.1-10.8,8.5-14.7c4.3-3.9,9.8-6.2,15.6-6.7
					c0.3,0,0.6,0,0.9,0c1.2-7.7,4.8-14.9,10.2-20.5c11.2-11.4,28.5-14.4,42.9-7.3c7,3.5,12.7,9,16.4,15.9c15.8-4.8,32.9-0.8,45,10.4
					c5.9,5.5,10.4,12.5,12.8,20.3c2.4,7.8,2.8,16,1,23.9h-194.2c2.3-6.1,6.3-11.5,11.6-15.4C1849.7,305.2,1856,302.8,1862.5,302.3
					L1862.5,302.3z"/>
				<path class="st4" d="M1927.4,287.1c-1.1-3-2.4-6-3.9-8.8c0.3-1.9,0.5-3.7,0.5-5.6c0-6.4-1.7-12.7-4.8-18.3
					c-3.2-5.6-7.7-10.2-13.3-13.5c-4.9-10.4-12.7-19.3-22.5-25.4c-20-12.5-45.4-12.1-65,1c-9.6,6.4-17.2,15.5-21.8,26
					c-0.2,0.4-0.3,0.7-0.4,1.1c-6.6-1.6-13.5-2.2-20.3-1.6c-1.2,0-2.5,0.3-3.7,0.4c-15.1,2.2-28.9,9.9-38.8,21.7
					c-9.9,11.7-15.1,26.7-14.7,42v1.7c-2.5-1.2-5.1-1.7-7.8-1.7c-0.2,0-0.5,0-0.7,0c-4.7,0.2-9.2,2.2-12.5,5.6
					c-3.3,3.4-5.1,8-5.1,12.7h237.7c0.9-4.5,1.3-9.1,1.3-13.6C1931.5,302.7,1930.2,294.7,1927.4,287.1L1927.4,287.1z"/>
				<path class="st5" d="M1946.9,141.1h-180.2v191.3h180.2V141.1z"/>
				<path class="st6" d="M1946.9,306.2h-180.2v26.1h180.2V306.2z"/>
				<path class="st5" d="M1951.1,146.5h-188.5v10.8h188.5V146.5z"/>
				<path class="st7" d="M1957.4,149.4h-6.3v7.9h-4.1v5.3l-180.2,10.5v-15.8h-4.2v-7.9h-6.3l2-5.9h197.3L1957.4,149.4z"/>
				<path class="st8" d="M1957.4,149.4h-201.2l2-5.9l8.9-26.6l11.5-34.1h156.6l3.8,11.5l16.5,49.1L1957.4,149.4L1957.4,149.4z"/>
				<path class="st5" d="M1824.9,60.2h-24.6v22.7h24.6V60.2L1824.9,60.2z"/>
				<path class="st7" d="M1824.9,60.2v6.6l-24.6,1.4v-8.1L1824.9,60.2L1824.9,60.2z"/>
				<path class="st8" d="M1828,57h-30.8v6.4h30.8V57z"/>
				<path class="st9" d="M1818.1,82.9l-51,34.1l11.5-34.1H1818.1L1818.1,82.9z"/>
				<path class="st10" d="M1827,251.3h-37.9v71.9h37.9V251.3z"/>
				<path class="st11" d="M1827,251.3v71.9h-37.9v-71.9L1827,251.3L1827,251.3z M1830.9,247.5h-45.6v79.6h45.6V247.5z"/>
				<path class="st12" d="M1825.2,253.2h-36.1v70.1h36.1V253.2L1825.2,253.2z"/>
				<path class="st10" d="M1797.1,289.1c0,0.4-0.1,0.9-0.4,1.2c-0.2,0.4-0.6,0.7-1,0.8c-0.4,0.2-0.8,0.2-1.3,0.1
					c-0.4-0.1-0.8-0.3-1.1-0.6c-0.3-0.3-0.5-0.7-0.6-1.1c-0.1-0.4,0-0.9,0.1-1.3c0.2-0.4,0.5-0.8,0.8-1c0.4-0.2,0.8-0.4,1.2-0.4
					C1796.1,286.9,1797.1,287.9,1797.1,289.1C1797.1,289.1,1797.1,289.1,1797.1,289.1L1797.1,289.1z"/>
				<path class="st11" d="M1798,288.2c0,0.3,0,0.6-0.1,0.9s-0.3,0.6-0.5,0.8c-0.2,0.2-0.5,0.4-0.8,0.5c-0.3,0.1-0.6,0.2-0.9,0.2
					s-0.6-0.1-0.9-0.2c-0.3-0.1-0.5-0.3-0.7-0.5c-0.2-0.2-0.4-0.5-0.5-0.8c-0.1-0.3-0.1-0.6-0.1-0.9c0.1-0.5,0.3-1.1,0.7-1.4
					c0.4-0.4,0.9-0.6,1.5-0.6s1.1,0.2,1.5,0.6S1797.9,287.7,1798,288.2z"/>
				<path class="st13" d="M1833.4,322.9h-50.8v6.9h50.8V322.9z"/>
				<path class="st14" d="M1837.2,329.8h-58.4v6.9h58.4V329.8z"/>
				<path class="st7" d="M1885.4,332.4h-48.2v4.3h-30.9l2-4.3l1.2-2.6l37.4-82.8L1885.4,332.4L1885.4,332.4z"/>
				<path class="st5" d="M1937.6,256.3h-90.7v80.4h90.7V256.3z"/>
				<path class="st7" d="M1937.6,256.3v12.2l-90.7,5.3v-17.5L1937.6,256.3L1937.6,256.3z"/>
				<path class="st8" d="M1942.6,259.4h-102.4l4.1-12.3h94.1l2.3,6.9L1942.6,259.4z"/>
				<path class="st7" d="M1843.7,181.6l-1.9,58.7l83.8-1.9v-56.8H1843.7L1843.7,181.6z"/>
				<path class="st15" d="M1923.7,183.5h-74.3v47.3h74.3V183.5z"/>
				<path class="st11" d="M1923.7,183.5v47.1h-74.3v-47.1H1923.7z M1927.6,179.7h-82v54.9h81.9L1927.6,179.7L1927.6,179.7
					L1927.6,179.7z"/>
				<path class="st16" d="M1886.7,183.5l-37.3,37.3V201l17.5-17.5H1886.7z M1900.9,183.5l-47.2,47.2h-4.3v-5l42.2-42.2H1900.9z"/>
				<path class="st11" d="M1888.6,183.5h-3.8v47.3h3.8V183.5z"/>
				<path class="st17" d="M1873.8,188.7h-24.4v42.1h24.4V188.7L1873.8,188.7z M1913,188.7h-24.4v42.1h24.4V188.7L1913,188.7z"/>
				<path class="st7" d="M1856.2,267.7l-1.6,47.9l69.9-1.6v-46.3H1856.2L1856.2,267.7z"/>
				<path class="st15" d="M1922.5,269.3H1862v38.5h60.5V269.3z"/>
				<path class="st11" d="M1922.5,269.3v38.5H1862v-38.5H1922.5z M1926.3,265.3h-68.2v46.2h68.2V265.3z"/>
				<path class="st16" d="M1892.1,269.3l-30.1,30.2v-19.8l10.3-10.3H1892.1z M1906.3,269.3l-38.4,38.5h-5.9v-3.5l35-35L1906.3,269.3
					L1906.3,269.3z"/>
				<path class="st17" d="M1911.3,273.5H1862v34.3h49.3V273.5z"/>
				<path class="st7" d="M1784.2,181.6l-1.9,58.7l45.7-1.9v-56.8H1784.2L1784.2,181.6z"/>
				<path class="st15" d="M1826.1,183.5H1790v47.3h36.2V183.5z"/>
				<path class="st11" d="M1826.1,183.5v47.1H1790v-47.1H1826.1z M1830,179.7h-43.9v54.9h43.8L1830,179.7L1830,179.7L1830,179.7z"/>
				<path class="st16" d="M1823.5,183.5l-33.5,33.6v-19.8l13.8-13.8L1823.5,183.5L1823.5,183.5z M1826.1,185.8v9.4l-35.5,35.6h-0.6
					V222L1826.1,185.8z"/>
				<path class="st17" d="M1814.3,188.7H1790v42.1h24.4V188.7L1814.3,188.7z"/>
				<path class="st6" d="M1881.4,319.6H1864v4.5h17.4V319.6z M1890,324.9h-17.3v4.5h17.3V324.9z"/>
			</g>
		</g>
		<g>
			<defs>
				
					<rect id="SVGID_00000079462845970589928800000011255768088478769306_" x="1263.5" y="126" transform="matrix(6.352209e-02 -0.998 0.998 6.352209e-02 1116.6249 1545.9415)" width="237" height="104"/>
			</defs>
			<clipPath id="SVGID_00000065753904481919405720000001479051552450548893_">
				<use xlink:href="#SVGID_00000079462845970589928800000011255768088478769306_"  style="overflow:visible;"/>
			</clipPath>
			<g style="opacity:0.5;clip-path:url(#SVGID_00000065753904481919405720000001479051552450548893_);">
				<path class="st19" d="M1379.1,70c0.8-0.8,4.3-5.4,5-5.2s3.1,0.7,2.7,2s-3.9,5.8-4.4,6.2c-0.5,0.4-0.5,5-0.5,5l-4.7,1.2
					C1378.1,74.3,1378.3,70.8,1379.1,70L1379.1,70z"/>
				<path class="st19" d="M1384.8,68.8c1.1-0.4,6.1-3.2,6.7-2.7c0.6,0.5,2.6,1.9,1.6,2.9c-0.9,1-5.9,3.7-6.6,3.9
					c-0.7,0.2-2.5,4.3-2.5,4.3l-4.8-0.9C1382.1,72.4,1383.7,69.2,1384.8,68.8z"/>
				<path class="st20" d="M1412.3,84.9c3.6-6.3,5.9-16.2,3.6-18.5c-2.3-2.3-15.8-7.2-19.2-5.9c-3.3,1.3-12.6,13.2-12.6,13.2
					s14.6-0.7,20.3,4.4C1410.2,83.2,1412.3,84.9,1412.3,84.9L1412.3,84.9z"/>
				<path class="st21" d="M1401.1,66.1c1.4-1.7,3-3.1,4.8-4.3c4.3,1.3,8.8,3.3,10,4.6c2.3,2.3,0,12.2-3.6,18.5c0,0-2.1-1.7-7.8-6.8
					c-2.2-1.7-4.7-2.8-7.4-3.3C1397.6,71.6,1399,68.6,1401.1,66.1L1401.1,66.1z"/>
				<path class="st22" d="M1411.5,87.8c13.1,4.9,20.4,4.1,20.3,2.3c-0.1-2.8-8-9.6-16.8-13.4c-7.1-3.1-22.2-2.6-22.2-2.6
					C1401.7,78.6,1410.7,84.1,1411.5,87.8z"/>
				<path class="st23" d="M1414,78c-4.9-2.2-13.7-2.6-18.7-2.6c-0.8-0.5-1.7-0.9-2.5-1.3c0,0,15.2-0.5,22.3,2.6
					c8.8,3.8,16.7,10.7,16.8,13.4c0,0.4-0.4,0.8-1.2,1C1430,88.2,1422.5,81.7,1414,78L1414,78z"/>
				<path class="st19" d="M1372.1,84.2c3.8-2.8,8.7-10.9,11.6-10.1c2.9,0.8,2.3,7.4,2.3,7.4l-9.2,5.9L1372.1,84.2L1372.1,84.2z"/>
				<path class="st24" d="M1405.1,131.4c14.4,9.2,18.4,33.9,18.8,40.1c0.4,6.2-1.9,23.2-7.2,22.8
					C1411.5,194,1405.1,131.4,1405.1,131.4L1405.1,131.4z"/>
				<path class="st25" d="M1413.1,198.5c18.4,2,17.7-8.2,17.7-8.2l-13.4-12L1413.1,198.5L1413.1,198.5z"/>
				<path class="st26" d="M1414.8,193.8c8,6.4,18.7-1.2,18.8-10.3c0.2-9.1-3.4-14.1-6.6-14.2s-10.1,1.9-12.4,8.4
					C1412.3,184.4,1411.8,191.4,1414.8,193.8L1414.8,193.8z"/>
				<path class="st19" d="M1414.7,177.8c0.9-2.6,2.7-4.8,5.1-6.2c-1.3,5.3,2.9,6.1,5.4,8c4.1,3.3,4.8,7.1,8.5,4.7
					c-0.8,8.7-11,15.8-18.8,9.5C1411.8,191.4,1412.3,184.3,1414.7,177.8L1414.7,177.8z"/>
				<path class="st27" d="M1416.1,181.2c0.3,47.4-34.1,114.3-34.1,114.3l-1.2-0.1l3.2-100L1416.1,181.2L1416.1,181.2z"/>
				<path class="st22" d="M1390.3,214.4l-8.4,81.1l-1.1-0.1l3.3-100L1390.3,214.4L1390.3,214.4z"/>
				<path class="st27" d="M1365.7,186.9c-9.7,28.3-27.1,105.4-27.1,105.4l1.9,0.1l42-65.5l8.8,0.3l13.7-30.5L1365.7,186.9
					L1365.7,186.9z"/>
				<path class="st22" d="M1371.9,201.3c-7.3,29.3-18.4,59.8-32.2,91.1l-1.1-0.1c0,0,16.2-76.8,25.9-105.1l50,10.2l-5,6
					L1371.9,201.3L1371.9,201.3z"/>
				<path class="st22" d="M1382.5,227.2l-4.9-5.6l9.8,4.2l12.5-0.1l-14.3,3.9L1382.5,227.2z"/>
				<path class="st27" d="M1413.7,207c0,0-38.5-2.2-53.7-5.7c0,0,5.2-33.9,0.8-46.8c-4.5-12.9,0.7-38.7,10.7-37.1
					c10,1.6,29.9,7.2,39.6,20.4C1415.6,144,1421.3,171.7,1413.7,207z"/>
				<path class="st24" d="M1381.3,121.6c3.4,14.9,2.3,31.7,5.6,33.1c3.2,1.4,25.4,3.1,26.4,1.3c0.9-1.8-5-23.4-13.1-26.9
					C1392.1,125.6,1381.4,121.6,1381.3,121.6L1381.3,121.6z"/>
				<path class="st22" d="M1350.1,126.1c2.6,0.4,25.7,9.2,21.1,62.6c-0.3,4.8-0.4,9.6-0.2,14.4c-4.3-0.6-8.1-1.2-11-1.9
					c0,0,5.9-37-1-48.8C1349.2,135.7,1340.1,124.5,1350.1,126.1L1350.1,126.1z"/>
				<path class="st24" d="M1379.2,120.2c2.6,21.4-7.3,54.5-11.1,57.3c-3.8,2.8-7.2-23-7.2-23L1379.2,120.2z"/>
				<path class="st28" d="M1373.3,165.3c-3.2,2.3,1.5-19.6,3.2-27.6l-15.8,16.7c0,0,3.4,25.8,7.2,23c1.3-1,3.4-5.7,5.4-12.3
					C1373.4,165.2,1373.4,165.3,1373.3,165.3L1373.3,165.3z"/>
				<path class="st24" d="M1366.8,152.9c-15.6-16.3-31.1-30.9-28.4-40.6c2.7-9.7,16.8-9.8,20.7-6.2c3.9,3.6,21.2,13.4,21.2,13.4
					C1379.7,133.2,1379.7,147.2,1366.8,152.9z"/>
				<path class="st28" d="M1338.4,112.3c2.1-7.5,12.4-10,18.9-9.2c-6.5,4.1-6.6,15,1.1,28.3c2.4,4.1,7.8,13.1,12.9,20.1l-9.8,7.5
					C1351.6,138.3,1335.7,122.1,1338.4,112.3z"/>
				<path class="st29" d="M1392.8,297.4l-12.6-0.8c0,0-0.6-3.7,2-4.6C1384.8,291,1392.8,297.4,1392.8,297.4L1392.8,297.4z
					 M1330.9,293.5l11.1,0.7c0,0,0.9-3.6-1.2-4.8C1338.7,288.1,1330.9,293.5,1330.9,293.5z"/>
				<path class="st25" d="M1403.9,130.4l0.1,0.3c0,0-17.9,5.9-28.3-13.7c1.4,0.8,2.5,1.5,3.4,2
					C1386.7,120.9,1396.3,124.5,1403.9,130.4L1403.9,130.4z M1369.2,109.4c-2.4,12.3-13.4,14.7-20.5,14.9
					c-7.1,0.3-14.1-10.8-14.1-10.8l2.1-1.1l-2.6-1.6c0,0,6.3-10.9,18-12.2C1363.9,97.4,1369.2,109.4,1369.2,109.4z"/>
				<path class="st26" d="M1339.4,111.5c0.8-5.5,13.2-21.1,36.8-27.6l4.9,6.7c-7.1,15.7-12.1,24.9-19.7,27.6
					C1351.3,121.6,1338.6,117,1339.4,111.5z"/>
				<path class="st19" d="M1371.8,98.4c-5-3.8-15.9-2.2-24.4,3.5c-3.1,1.9-5.6,4.6-7.4,7.8c2.7-6.5,14.8-19.9,36.2-25.8l4.9,6.7
					c-2.5,5.5-4.7,10.2-6.9,14.1c0.3-1.2,0.2-2.4-0.3-3.5C1373.5,100.1,1372.8,99.1,1371.8,98.4z"/>
				<path class="st19" d="M1339.4,111.5c0.8-5.5,15.2-22.9,38.7-29.4l2.9,8.5l-0.5,1.1c-4.5-1.4-13.7,1.7-22.9,8.2
					c-7.8,5.5-13.4,11.8-15.2,16.6C1340.3,115,1339.2,113.3,1339.4,111.5L1339.4,111.5z"/>
				<path class="st30" d="M1407.5,99.3c4.7,5.8,11.4-1.5,9.2-5.3c0,0,1.7-0.2,1.8-2.6c0-0.7-0.2-1.4-0.6-2.1
					c-0.4-0.6-0.9-1.1-1.5-1.5c0,0,2.6-2.4-1.3-6.9c-3.9-4.5-7.8-3.4-7.8-3.4s1.3-2.9-2.4-4.3c-3.7-1.3-4.4,0.9-4.4,0.9
					s1-4.4-2.6-4.6c-3.7-0.2-5.4,1.6-5.4,1.6s-0.6-5-5.3-3.8c-4.7,1.1-3.4,9.6-3.4,9.6s-3.7-3.7-6.1,0c-2.4,3.7,0.3,7.3,0.3,7.3
					s-4.6,3.9-3.1,9.1c1.5,5.2,3.6,5.9,3.6,5.9s-3.8,8.8,3.2,12.6C1392.5,117.7,1407.5,99.3,1407.5,99.3L1407.5,99.3z"/>
				<path class="st31" d="M1417.4,93c0,0,0.3,0,0.7,0c-0.2,0.3-0.4,0.6-0.8,0.8C1417.4,93.5,1417.4,93.3,1417.4,93z M1378.1,84.3
					c0,0-2.7-3.6-0.3-7.3c2.4-3.7,6.1,0,6.1,0s-0.8-5.2,1.1-8c0,0.5-0.1,1,0,1.5c0.2,6,4.1,7.8,4.1,7.8s-3,1.3-0.9,4.8
					c2.1,3.5,4.2,2.3,4.2,2.3s-3.7,2.4-0.9,5.1c2.8,2.6,5.5,2.4,5.5,2.4s-2.8,4.1,1.8,6.4s9.2-4.8,9.2-4.8s0.6,5.2,5,4.1
					c1-0.2,1.9-0.7,2.6-1.4c0.7-0.7,1.3-1.5,1.6-2.5c1,3.9-5.2,9.9-9.5,4.5c0,0-15,18.4-25.6,12.6c-7-3.8-3.2-12.6-3.2-12.6
					s-2.1-0.6-3.6-5.9C1373.6,88.1,1378.1,84.3,1378.1,84.3L1378.1,84.3z"/>
				<path class="st26" d="M1401.5,111.6l0,17.1c0,0-13.1,1.4-23.5-10.3l6.8-19.1L1401.5,111.6z"/>
				<path class="st32" d="M1376.7,117.5l1.4,0.8l6.8-19l16.7,12.2l0,17.1c1.2,0.9,2.4,1.8,3.6,2.7c2.1,1.4,4,3,5.6,4.9
					c-5.4,5-18.4,1.3-29.7-8.4c-4.9-4.1-8.9-9.2-11.8-14.9c2.3,1.4,4.6,2.8,6.5,3.9C1375.8,117,1376.7,117.5,1376.7,117.5z"/>
				<path class="st26" d="M1408.6,90.8c2.8,16.4-1.8,30.4-3.5,34.3c-2.8,1.9-20.2-3.7-21.4-8.4c-1.3-4.7,1.9-26.7,5.4-29.5
					C1392.6,84.4,1407.3,83.4,1408.6,90.8L1408.6,90.8z"/>
				<path class="st31" d="M1390.8,83.7c6.9-0.7-4.1,26.1-4.1,26.1c-1.2-1.1-2.2-2.5-2.9-4c-0.7-1.5-1.1-3.2-1.1-4.9
					C1382.8,91.8,1387.4,84.1,1390.8,83.7L1390.8,83.7z"/>
				<path class="st26" d="M1386.3,103.7c0.1-4.3-2.7-7.6-5.2-4.6c-2.5,3,0.3,8.6,2.1,9.3C1385.1,109.1,1386.2,107.9,1386.3,103.7z"
					/>
				<path class="st33" d="M1385.2,104.3c0.1-2.5-1.6-4.5-3.1-2.7c-1.5,1.8,0.2,5.1,1.2,5.5C1384.5,107.6,1385.1,106.8,1385.2,104.3z
					"/>
				<path class="st26" d="M1384.8,105.6c0-1.8-1.1-3.1-2.1-1.9c-1,1.3,0.1,3.5,0.9,3.8C1384.3,107.8,1384.7,107.3,1384.8,105.6z"/>
				<path class="st22" d="M1417.9,167.9c-0.5-0.3-1-0.7-1.4-1.1c-1-1.2-3.8-5.8-4.5-5.9c-0.7-0.1-3.6,0.1-3.5,1.3
					c0,0.8,1.4,3.2,2.5,5.1c-2.4-0.1-4.7,0.3-6.9,1.3c-2.6,1.4-4.9,3.1-7.1,5c-0.5,0.5,1.4,4.3,2.7,3.6c1.3-0.7,6.3-4.4,7-4.5
					c1,0,2,0.1,2.9,0.3c0,0.1,0.1,0.2,0.1,0.3c-1.3,0.4-2.5,0.9-3.6,1.6c-2.5,1.7-4.8,3.6-6.9,5.8c-0.4,0.6,1.5,3.9,2.7,3.1
					s6.1-4.4,6.8-4.6c0.2-0.1,1.3-0.1,2.6-0.2c0.1,0.3,0.2,0.7,0.3,0.9c-0.3,0.2-0.7,0.4-1,0.6c-2.5,1.7-4.8,3.6-6.9,5.8
					c-0.4,0.6,1.5,3.9,2.7,3.1c1.2-0.8,6.1-4.4,6.8-4.5c0.2-0.1,1.2-0.1,2.4-0.2c0.6,0.1,1.2,0.2,1.8,0.2L1417.9,167.9L1417.9,167.9
					z"/>
				<path class="st26" d="M1430.3,171.3c-3.7-6.1-5.4-6.8-6.1-8.2c-0.7-1.4-2.4-6.5-3-6.8c-0.6-0.3-3.5-0.8-3.7,0.4
					c-0.2,1.2,1.7,6.9,1.9,8.1C1419.6,166.1,1430.3,171.3,1430.3,171.3L1430.3,171.3z"/>
				<path class="st26" d="M1429.4,170.1c-3.1-2.3-8.6-7.8-10.7-7.6c-2.1,0.3-2.8,0.4-2.7,3.6c0.1,3.2-0.2,11.1,1.6,13.2
					c1.7,2.1,12,3.6,13.8,1.5S1432.4,172.3,1429.4,170.1z"/>
				<path class="st22" d="M1387,161.9c0.1-2-0.8-3.6-2-3.7s-2.3,1.4-2.5,3.4c-0.1,2,0.8,3.6,2,3.7S1386.9,163.9,1387,161.9
					L1387,161.9z"/>
				<path class="st28" d="M1386.4,161c0.1-1.1-0.5-2-1.2-2s-1.4,0.8-1.4,1.8c-0.1,1.1,0.5,2,1.2,2
					C1385.7,162.9,1386.3,162.1,1386.4,161z"/>
				<path class="st22" d="M1413.5,163.6c0.1-2-0.8-3.6-2-3.7c-1.2-0.1-2.3,1.4-2.5,3.4c-0.1,2,0.8,3.6,2,3.7
					C1412.3,167,1413.3,165.5,1413.5,163.6z"/>
				<path class="st28" d="M1412.8,162.7c0.1-1.1-0.5-2-1.2-2c-0.7,0-1.4,0.8-1.4,1.8c-0.1,1.1,0.5,2,1.2,2
					C1412.1,164.6,1412.7,163.7,1412.8,162.7z"/>
				<path class="st26" d="M1421.3,167.5c0.2-0.5,0.3-1,0.3-1.6c0-0.5-0.1-1.1-0.3-1.6c-0.2-0.5-0.5-0.9-0.9-1.3
					c-0.4-0.4-0.9-0.6-1.4-0.8c-2.4-0.8-4.9-0.9-7.3-0.4c-2.8,0.8-5.5,1.9-8.1,3.3c-0.6,0.4,0.3,4.5,1.8,4.1
					c1.4-0.4,7.1-2.8,7.8-2.8c0.7,0.1,7.3,2.7,7.3,2.7L1421.3,167.5L1421.3,167.5z"/>
				<path class="st26" d="M1421.4,174.7c0.3-0.7,0.5-1.5,0.4-2.3c-0.1-0.8-0.3-1.6-0.7-2.3c-0.9-1.4-2.4-2.2-4-2.3
					c-1.7,0-3.4,0.2-5,0.7c-2.8,1-5.5,2.4-8,4c-0.6,0.4,0.6,4.1,1.9,3.6c1.4-0.5,6.9-2.9,7.6-2.9S1421.4,174.7,1421.4,174.7
					L1421.4,174.7L1421.4,174.7z"/>
				<path class="st26" d="M1424.5,181.3c0.3-0.7,0.5-1.5,0.4-2.3c-0.1-1.6-1-3.1-2.4-3.8c-0.7-0.4-1.5-0.6-2.3-0.6
					c-1.7,0-3.4,0.2-5,0.7c-2.8,1-5.5,2.4-8,4c-0.6,0.4,0.6,4.1,2,3.6c1.4-0.5,6.9-2.9,7.6-2.9
					C1417.5,180,1424.5,181.3,1424.5,181.3L1424.5,181.3z"/>
				<path class="st30" d="M1388.3,86.7c0.1-1.9,1.4-3.4,2.8-3.3c1.4,0.1,2.5,1.7,2.4,3.7c-0.1,1.9-1.4,3.4-2.8,3.3
					C1389.2,90.3,1388.2,88.6,1388.3,86.7L1388.3,86.7z"/>
				<path class="st34" d="M1406.3,101.3c0.2-1.3-0.3-2.4-1-2.5c-0.8-0.1-1.6,1-1.8,2.3c-0.2,1.3,0.2,2.4,1,2.5
					S1406.1,102.6,1406.3,101.3z"/>
				<path class="st26" d="M1401.6,99c1-0.6,4.9,11.7,4.6,13.3c-0.1,0.8-5.2-0.3-5.2-0.3S1401.4,99.1,1401.6,99z"/>
				<path class="st35" d="M1402.1,99.3c1.2,2.5,4.2,11.4,3.9,12.7c-0.1,0.6-3.3,0-4.6-0.3c0,0.3,0,0.4,0,0.4s5.4,1.4,5.5,0.7
					C1407.2,111.4,1403.1,99.8,1402.1,99.3z"/>
				<path class="st34" d="M1399.2,99.6c0.2-1.3-0.2-2.4-1-2.5c-0.8-0.1-1.6,1-1.8,2.3c-0.2,1.3,0.2,2.4,1,2.5
					C1398.2,101.9,1399,100.9,1399.2,99.6z"/>
				<path class="st30" d="M1400,91c-1.3-0.4-2.6-0.3-3.8,0.2c-1.2,0.7-2.5,2.7-2.3,3.7s0.8,1.1,1.4,0.9c0.5-0.1,0.8-0.6,2.6-1.2
					c1.1-0.4,2.7,0,3-0.8C1401.3,92.8,1401.2,91.5,1400,91L1400,91z M1404.1,96.1c2.3-0.2,3,1.6,3.9,2.5c0.6,0.6,2-0.9,1.8-1.6
					c-0.1-0.6-0.4-1.1-0.7-1.6c-0.3-0.5-0.8-0.9-1.3-1.2c-0.5-0.3-1.1-0.5-1.7-0.6c-0.6-0.1-1.2,0-1.8,0.1
					C1403.3,94.2,1402.8,96.2,1404.1,96.1L1404.1,96.1z"/>
				<path class="st35" d="M1400.4,119.9c0-0.2-0.5-0.5-1.2-0.6c-0.7-0.1-1.3,0.1-1.3,0.4c0,0.2,0.5,0.5,1.2,0.6
					C1399.8,120.3,1400.4,120.2,1400.4,119.9z"/>
				<path class="st34" d="M1394.6,115.8c-0.2-1.1,1.7-1.8,4.2-1.6c2.5,0.2,4.8,1.2,4.9,2.3c0.2,1-1.7,1.8-4.2,1.6
					C1397.1,117.8,1394.8,116.8,1394.6,115.8z"/>
				<path class="st36" d="M1396.4,114.6c0.4-0.1,0.8-0.2,1.1-0.2c2.5-0.2,4.4,0.6,4.4,1.6c0,0.1,0,0.2,0,0.3c-0.4,0-0.8,0.1-1.2,0
					C1399.2,116.2,1397.6,115.6,1396.4,114.6L1396.4,114.6z"/>
			</g>
		</g>
		<g>
			<defs>
				
					<rect id="SVGID_00000057845236091802828860000006256254324696114351_" x="762.9" y="62.3" transform="matrix(0.9956 -9.341326e-02 9.341326e-02 0.9956 -12.6662 87.9266)" width="340" height="234"/>
			</defs>
			<clipPath id="SVGID_00000150803181164675634540000013639844387370882449_">
				<use xlink:href="#SVGID_00000057845236091802828860000006256254324696114351_"  style="overflow:visible;"/>
			</clipPath>
			<g style="opacity:0.5;clip-path:url(#SVGID_00000150803181164675634540000013639844387370882449_);">
				<path class="st38" d="M1081.9,263c1.9-17.1-12-31.7-27.9-28.8c-14.5,2.6-22.8,19.1-18.2,33.1l-164.7,15.5
					c2-14.7-9.3-29.3-24-29.1c-16.1,0.1-27.1,17-22,33.5l-46,4.3l-3-116.3c-0.1-4.5,3-8.2,7.1-8.5l8.8-0.7
					c30.6-2.5-5,0.4,177.7-14.5c26.8-2.2,44.1,12.4,46.7,13.6c53,34.1,55.4,34.2,62.9,41.3c10.4,9.9,17.4,23.5,19.6,38.5l2.4,16.3
					L1081.9,263L1081.9,263z"/>
				<path class="st39" d="M840.9,257.2l-68.4,6.4c-1.3,0.1-2.3,1.3-2.2,2.6c0,0,0,0,0,0l2.2,23.3c0.1,1.3,1.3,2.3,2.7,2.2l68.4-6.4
					c1.3-0.1,2.3-1.3,2.2-2.6c0,0,0,0,0,0l-2.2-23.3C843.4,258.1,842.2,257.1,840.9,257.2C840.9,257.2,840.9,257.2,840.9,257.2
					L840.9,257.2z"/>
				<path class="st40" d="M783.7,223.9l-6.3,0.6l0.3,10.2l7-0.7L783.7,223.9z M777.8,241.1l0.6,22l8.9-0.8l-2-21.8L777.8,241.1
					L777.8,241.1z"/>
				<path class="st39" d="M871.5,285.9c0.2-4.3-0.1-8.7-1-13l164.2-15.4c-0.1,4.4,0.4,8.7,1.4,12.9L871.5,285.9L871.5,285.9z"/>
				<path class="st41" d="M1006.9,239c-1.1,0.1-2-0.8-2.2-1.9l-1.6-17.4c-0.1-1.2,0.7-2.2,1.8-2.3c1.1-0.1,2.1,0.8,2.2,1.9l1.6,17.4
					C1008.8,237.8,1008,238.9,1006.9,239z"/>
				<path class="st42" d="M1104.3,259.8l-32.1,3l-2.9-30.6c-0.5-5.4,3.1-10.2,8.2-10.7l8.6-0.8c6.9-0.6,13.4,4,15.5,11.2
					c8.8,30,5.8,19.7,6.4,21.9C1108.8,256.6,1107,259.5,1104.3,259.8L1104.3,259.8z"/>
				<path class="st39" d="M1109.8,260.7l-37.5,3.5l-1.9-20.2l20.6-1.9c8.1-0.8,15.3,1.2,17.3,4.7
					C1108.4,246.8,1113,260.4,1109.8,260.7z"/>
				<path class="st41" d="M1058.9,284.9c13.4-1.3,23.2-14.1,21.9-28.6c-1.4-14.5-13.4-25.3-26.8-24c-13.4,1.3-23.2,14.1-21.9,28.6
					C1033.4,275.5,1045.4,286.2,1058.9,284.9z"/>
				<path class="st43" d="M1070.7,257.3c0.8,8.5-4.9,16.1-12.8,16.8c-7.9,0.7-14.9-5.6-15.8-14.1c-0.8-8.5,4.9-16.1,12.8-16.8
					C1062.9,242.4,1069.9,248.8,1070.7,257.3L1070.7,257.3z"/>
				<path class="st44" d="M1064.6,257.9c0.5,4.9-2.8,9.2-7.4,9.6c-4.5,0.4-8.6-3.2-9-8.1c-0.5-4.9,2.8-9.2,7.4-9.6
					C1060.1,249.4,1064.1,253,1064.6,257.9L1064.6,257.9z"/>
				<path class="st41" d="M875,275.7c1.4,14.5-8.4,27.1-21.9,28.4c-13.4,1.3-25.4-9.3-26.8-23.8c-1.4-14.5,8.4-27.3,21.9-28.6
					C861.6,250.4,873.6,261.1,875,275.7z"/>
				<path class="st43" d="M864.9,276.6c0.8,8.5-5,16.1-12.8,16.8c-7.9,0.7-14.9-5.6-15.7-14.1c-0.8-8.5,4.9-16.1,12.8-16.8
					S864.1,268.1,864.9,276.6L864.9,276.6z"/>
				<path class="st44" d="M858.8,277.2c0.5,4.9-2.8,9.2-7.4,9.6c-4.5,0.4-8.6-3.2-9-8.1c-0.5-4.9,2.8-9.2,7.4-9.6
					C854.3,268.7,858.4,272.3,858.8,277.2z"/>
				<path class="st39" d="M976.2,139l-174,16.3l0.5,5.2l174-16.3L976.2,139z"/>
				<path class="st39" d="M843.7,164.8c-1,0.1-1.9-0.7-2-1.8l-0.6-6.2l3.6-0.3l0.6,6.2C845.4,163.8,844.7,164.7,843.7,164.8
					L843.7,164.8z M948,155c-1,0.1-1.9-0.7-2-1.8l-0.6-6.2l3.6-0.3l0.6,6.2C949.7,154,949,154.9,948,155L948,155z"/>
				<path class="st45" d="M973.1,164l-101.2,9.5c-3.8,0.4-6.6,3.7-6.2,7.5l4,42.1c0.4,3.8,3.7,6.6,7.5,6.2l101.2-9.5
					c3.8-0.4,6.6-3.7,6.2-7.5l-4-42.1C980.3,166.4,976.9,163.6,973.1,164L973.1,164z"/>
				<path class="st41" d="M914,225.8l-2.5,0.2l4,42.6l2.5-0.2L914,225.8L914,225.8z M997.9,202.6l-2.5,0.2l5.4,57.9l2.5-0.2
					L997.9,202.6z"/>
				<path class="st45" d="M991.6,165.2l4.3,42.2c0.1,1.3,1.2,2.3,2.5,2.2l60-5.6c2.2-0.2,2.8-3.4,0.9-4.6l-57.7-35.9
					c-0.6-0.3-4.8-0.7-7.6-1C992.6,162.4,991.4,163.6,991.6,165.2L991.6,165.2z"/>
				<path class="st46" d="M887.5,123.1c-0.7,0.1-1.2-0.4-1.3-1.1c0,0,0,0,0,0c-1.5-15.6,10.1-29.5,25.8-31c6.7-0.6,13.5,1.1,19,5
					c0.5,0.4,0.7,1.1,0.3,1.6c-0.2,0.3-0.5,0.4-0.8,0.5c-0.3,0.1-0.6,0-0.9-0.2c-5.1-3.5-11.3-5.1-17.4-4.6
					c-14.4,1.3-25,14.1-23.6,28.4C888.6,122.5,888.2,123.1,887.5,123.1z"/>
				<path class="st40" d="M869,123.1c-0.4,0-0.7-0.1-0.9-0.4l-25.3-36.6c-0.3-0.4-0.3-1,0.2-1.4c0,0,0,0,0.1,0
					c0.5-0.3,1.1-0.2,1.4,0.3c0,0,0,0,0,0l26.1,36.5c0.3,0.5-0.6,1.2-1,1.6C869.4,123.1,869.2,123.1,869,123.1L869,123.1z"/>
				<path class="st40" d="M891.5,83.9c0-0.5-0.4-0.9-0.8-0.9c-0.1,0-0.3,0-0.4,0l-40.6,11.5c-16,34.5-15.2,32.2-14.7,32.9
					c0.6,1-0.4,0.3,36.2-2.5C891.8,83.5,891.5,84.4,891.5,83.9z M869.8,123l-32.5,2.7L851,96.1l37.6-10.6L869.8,123L869.8,123z"/>
				<path class="st47" d="M915.8,136.5c-4.5,0.4-9-1-12.5-3.9c-3.5-2.9-5.7-7-6.1-11.6c-0.3-2.7,0.1-5.4,1.2-8
					c0-0.1,0.1-0.2,0.2-0.2c0.2-0.1,0.4,0,0.5,0.2c0,0.1,0,0.2,0,0.3c-1,2.4-1.4,5-1.1,7.6c0.3,2.7,1.2,5.3,2.7,7.6
					c1.5,2.3,3.6,4.1,6,5.4c5,2.6,10.9,2.4,15.7-0.3c0.2-0.1,0.4,0,0.5,0.2c0,0.1,0,0.2,0,0.3c0,0.1-0.1,0.2-0.2,0.2
					C920.7,135.5,918.3,136.2,915.8,136.5L915.8,136.5z"/>
				<path class="st48" d="M916.6,144.5c-13.9,1.3-26.2-8.9-27.5-22.7c-1.3-13.8,8.9-26.2,22.8-27.5c13.9-1.3,26.2,8.9,27.5,22.7
					S930.5,143.2,916.6,144.5z M912.2,97.5c-12.2,1.1-21.1,11.9-20,24c1.1,12.1,11.9,21,24.1,19.9s21.1-11.9,20-24
					C935.1,105.3,924.3,96.3,912.2,97.5z"/>
				<path class="st47" d="M916.1,138.9c-3.9,0.4-7.7-0.4-11.2-2.3c-3.4-1.8-6.2-4.6-8-8.1c-3.7-7-2.8-15.5,2.2-21.6
					c2.5-3,5.8-5.2,9.5-6.3c3.7-1.1,7.7-1.1,11.4,0c3.7,1.1,7,3.3,9.4,6.4c2.4,3,3.9,6.7,4.3,10.5c0.5,5.2-1.1,10.3-4.4,14.3
					C926,135.9,921.2,138.4,916.1,138.9z M912.5,100.7c-3.7,0.3-7.2,1.8-10.1,4.1c-2.9,2.3-5,5.5-6.1,9c-1.1,3.5-1.1,7.3-0.1,10.9
					c1.1,3.6,3.2,6.7,6,9.1c2.9,2.4,6.4,3.8,10.1,4.2c3.7,0.4,7.4-0.3,10.7-2.1c3.3-1.7,6-4.4,7.8-7.7c1.8-3.3,2.5-7,2.2-10.7
					c-0.5-5-2.9-9.5-6.7-12.7C922.4,101.8,917.5,100.3,912.5,100.7L912.5,100.7z"/>
				<path class="st40" d="M914.8,120.4c-0.4,0-0.7-0.1-0.9-0.4l-31-45.6c-0.3-0.4-0.5-0.9-0.5-1.5l-0.3-3.1
					c-0.1-0.6-0.3-1.2-0.4-1.3s-0.9,0.1-1.4,0.5l-4.4,3.2c-0.4,0.3-1.1,0.2-1.4-0.3c-0.1-0.2-0.2-0.4-0.2-0.7c0-0.3,0.2-0.5,0.4-0.6
					l4.4-3.2c0.9-0.7,2.5-1.1,3.6-0.6c1,0.5,1.3,1.7,1.4,2.8l0.3,3.1c0,0.2,0.1,0.4,0.2,0.5l31,45.6c0.1,0.2,0.2,0.5,0.2,0.7
					C915.5,120,915.2,120.3,914.8,120.4L914.8,120.4z"/>
				<path class="st48" d="M838.1,151.9c-13.9,1.3-26.2-8.9-27.5-22.7c-1.3-13.8,9-26.2,22.8-27.5c13.9-1.3,26.2,8.9,27.5,22.7
					S852,150.6,838.1,151.9z M833.7,104.8c-12.1,1.1-21.1,11.9-20,24c1.1,12.1,12,21,24.1,19.9c12.1-1.1,21.1-11.9,20-24
					S845.8,103.7,833.7,104.8z"/>
				<path class="st49" d="M837.5,146.3c-3.9,0.4-7.7-0.4-11.2-2.3c-3.4-1.8-6.2-4.6-8-8.1c-1.8-3.4-2.6-7.3-2.2-11.1
					c0.4-3.9,1.9-7.5,4.4-10.5c2.5-3,5.8-5.2,9.5-6.3c3.7-1.1,7.7-1.1,11.4,0.1c3.7,1.1,7,3.3,9.4,6.3c2.4,3,3.9,6.7,4.3,10.5
					c0.5,5.2-1.1,10.3-4.4,14.3C847.5,143.3,842.7,145.8,837.5,146.3L837.5,146.3z M834,108.1c-3.7,0.3-7.2,1.8-10.1,4.1
					c-2.9,2.3-5,5.5-6.1,9c-1.1,3.5-1.1,7.3-0.1,10.9c1.1,3.6,3.2,6.7,6,9.1c2.9,2.4,6.4,3.8,10.1,4.2c3.7,0.4,7.4-0.3,10.7-2.1
					c3.3-1.7,6-4.4,7.8-7.7c1.8-3.3,2.5-7,2.2-10.7c-0.5-5-2.9-9.5-6.7-12.7C843.9,109.2,838.9,107.7,834,108.1L834,108.1z"/>
				<path class="st49" d="M837.3,143.8c-4.5,0.4-9-1-12.5-3.9c-3.5-2.9-5.7-7-6.1-11.6c-0.3-2.7,0.1-5.4,1.2-8
					c0.1-0.2,0.2-0.3,0.4-0.3c0.1,0,0.1,0,0.2,0c0.1,0.1,0.2,0.2,0.2,0.4c0,0.1,0,0.1,0,0.2c-1,2.4-1.4,5-1.1,7.6
					c0.3,2.7,1.2,5.3,2.7,7.6c1.5,2.3,3.6,4.1,6,5.4c5,2.6,10.9,2.4,15.7-0.3c0.2-0.1,0.4,0,0.5,0.1c0.1,0.2,0,0.4-0.1,0.5
					C842.1,142.9,839.8,143.6,837.3,143.8L837.3,143.8z M846.9,114.7c-0.1,0-0.1,0-0.2,0c-0.1,0-0.1,0-0.1-0.1
					c-3.4-3-7.9-4.4-12.4-4c-0.2,0-0.4-0.1-0.4-0.3c0-0.2,0.1-0.4,0.3-0.4c0,0,0,0,0,0c2.3-0.2,4.7,0,6.9,0.8
					c2.2,0.7,4.3,1.9,6.1,3.4c0.1,0.1,0.2,0.3,0.1,0.4C847.2,114.6,847,114.7,846.9,114.7L846.9,114.7L846.9,114.7z"/>
				<path class="st46" d="M851.5,105.6c-0.3,0-0.6,0-0.8-0.2c-4.7-3.2-10.3-4.9-16-4.7c-5.7,0.2-11.1,2.3-15.6,5.9
					c-0.4,0.3-0.9,0.4-1.3,0.2c-0.4-0.2-0.7-0.7-0.6-1.2c0-0.3,0.2-0.6,0.5-0.8c9.9-8,23.9-8.6,34.4-1.3c0.4,0.3,0.6,0.8,0.5,1.3
					C852.4,105.2,852,105.5,851.5,105.6L851.5,105.6z"/>
				<path class="st41" d="M835.5,124.2c-0.2,0-0.3-0.1-0.3-0.3s0.1-0.3,0.3-0.3l34.5-4.9c0.2,0,0.3,0.1,0.3,0.3c0,0.1,0,0.1-0.1,0.2
					c0,0.1-0.1,0.1-0.2,0.1L835.5,124.2L835.5,124.2L835.5,124.2z M871.3,128.3L871.3,128.3L836,130c-0.2,0-0.3-0.1-0.3-0.3
					c0-0.2,0.1-0.3,0.3-0.3l35.3-1.7c0.2,0,0.3,0.1,0.3,0.3c0,0.1,0,0.1-0.1,0.2C871.5,128.3,871.4,128.3,871.3,128.3L871.3,128.3
					L871.3,128.3z"/>
				<path class="st49" d="M864.7,124.1c0.1,1.1,0.5,2.2,1.2,3c0.7,0.9,1.7,1.5,2.7,1.8c1.1,0.3,2.2,0.3,3.3,0c2.2-0.7,3.8-2.6,4-4.8
					c0.1-1.1-0.1-2.2-0.6-3.2c-0.5-1-1.3-1.8-2.3-2.3c-2.4-1.3-5.3-0.7-7.1,1.4C865.1,121.1,864.6,122.6,864.7,124.1L864.7,124.1z"
					/>
				<path class="st49" d="M879.7,136.6c-0.1,0-0.3,0-0.4-0.2l-9.3-12.2c-0.1-0.1-0.1-0.2-0.1-0.3c0-0.2,0.2-0.4,0.4-0.3
					c0.1,0,0.2,0.1,0.3,0.2l9.3,12.2c0.1,0.2,0.1,0.4-0.1,0.6C879.9,136.5,879.8,136.6,879.7,136.6L879.7,136.6z"/>
				<path class="st41" d="M875.5,138c-0.4,0.1-0.8-0.2-0.9-0.7c-0.1-0.4,0.2-0.8,0.6-0.9l8.5-2.1c0.4-0.1,0.8,0.2,1,0.6
					c0.1,0.4-0.2,0.8-0.6,1c0,0,0,0,0,0l-8.5,2.1C875.6,138,875.6,138,875.5,138z M838,84.2l7.7-0.7c0.4,0,0.8,0.2,1,0.5
					c0.1,0.1,0.1,0.3,0.1,0.4l0.1,1.2c0.1,0.6-0.4,1.1-0.9,1.1l-9.7,0.9c-0.4,0-0.7-0.1-0.9-0.4c-0.2-0.3-0.3-0.7-0.2-1
					c0.2-0.6,0.6-1.1,1.1-1.4C836.8,84.5,837.4,84.2,838,84.2L838,84.2z M836.1,131c-0.8,0.1-1.7-0.1-2.4-0.5
					c-0.7-0.4-1.3-1-1.7-1.7c-0.8-1.5-0.6-3.3,0.5-4.7c1.5-1.8,4.2-2,6-0.5c0.2,0.2,0.4,0.4,0.6,0.6c1.3,1.6,1.3,3.8,0,5.3
					C838.2,130.4,837.2,130.9,836.1,131L836.1,131z"/>
				<path class="st43" d="M832.1,127.1c0.1,0.7,0.3,1.4,0.8,1.9c1.3,1.5,3.5,1.8,5.1,0.5c0.2-0.1,0.3-0.3,0.5-0.5
					c0.9-1.1,1.1-2.7,0.4-4c-0.9-1.8-3.1-2.4-4.9-1.5C832.7,124.3,832,125.7,832.1,127.1z"/>
				<path class="st50" d="M836.7,126.7c0.1,0.6-0.4,1.1-0.9,1.1c-0.6,0.1-1.1-0.4-1.1-0.9c0-0.1,0-0.3,0-0.4
					c0.1-0.4,0.5-0.7,0.9-0.7C836.2,125.7,836.7,126.2,836.7,126.7C836.7,126.7,836.7,126.7,836.7,126.7L836.7,126.7z"/>
				<path class="st43" d="M910.6,119.8c0.1,1.5,1.1,2.7,2.5,3.1c1.4,0.4,2.9,0,3.8-1.1c0.9-1.1,1.1-2.7,0.4-4
					c-0.3-0.6-0.8-1.1-1.5-1.5c-1.1-0.6-2.3-0.6-3.4,0c-0.8,0.4-1.5,1.2-1.8,2.1C910.7,118.8,910.6,119.3,910.6,119.8z"/>
				<path class="st50" d="M915.3,119.3c0.1,0.6-0.4,1.1-0.9,1.1c-0.3,0-0.5-0.1-0.8-0.2c-0.4-0.4-0.5-1-0.1-1.4
					c0-0.1,0.1-0.1,0.1-0.1c0.4-0.3,0.9-0.3,1.3,0C915.1,118.8,915.2,119.1,915.3,119.3z"/>
				<path class="st51" d="M870.3,75.8l3.5-5.2c1.1-1.6,3.4,0,2.4,1.6l-3.5,5.2C871.6,78.9,869.2,77.3,870.3,75.8z"/>
			</g>
		</g>
		<g class="st52">
			<path class="st53" d="M416.7,197l1.8,10.8c2.5-1.5,5.5-0.2,6.6,0l-0.1-10.4C425.1,197.4,419.7,198.9,416.7,197L416.7,197z"/>
			<path class="st53" d="M419.1,198.9c-0.6-0.4-1.4-1.8-2.6-3c-2.5-2.6-5.7-5.7-6.3-5.5c-0.8,0.3-1.3,1.2-1.3,2
				c0.1,0.6,4.2,5.3,3.7,5.9c-1,0.9-3.7,0.6-4.2,1.1c-1,1.1,2.3,6.9,3.5,8.3c1.1,1.5,5.9,1.5,8.5-1.1
				C421.4,205.7,419.1,198.9,419.1,198.9L419.1,198.9z"/>
			<path class="st53" d="M411.3,198.9c-1.6,0.3-3.1,0.4-4.7,0.4c-0.6-0.1-4.1-1.1-4.4-0.8c-0.4,0.3-1.3,1.6-0.6,2
				c1.8,0.7,3.6,1.2,5.5,1.4c0.9-0.1,4,0,4.2-0.2C411.5,201.5,412.3,198.8,411.3,198.9L411.3,198.9z"/>
			<path class="st53" d="M411,201.9c-1.8,0.4-4.1,1.2-4.7,1.1c-0.6-0.1-4.2-0.5-4.6-0.2c-0.3,0.3-1.2,1.8-0.4,2.2
				c1.9,0.5,3.8,0.7,5.7,0.6c0.9-0.2,4-0.6,4.2-0.8C411.5,204.6,412,201.7,411,201.9z M413.7,205.3c-1.7,0.5-4.1,1.4-4.7,1.3
				c-0.6,0-4.3-0.4-4.6-0.1c-0.3,0.4-1.2,1.9-0.4,2.3c1.9,0.5,3.9,0.6,5.8,0.5c0.9-0.2,4-0.7,4.2-1
				C414.3,208.1,414.7,205,413.7,205.3L413.7,205.3z"/>
			<path class="st19" d="M440.3,197.5c5.4-1,9.8-3.2,13.1-6.6l13.5,24.4c-6.3,1.2-12.4,1.7-17.7,0.8L440.3,197.5L440.3,197.5z"/>
			<path class="st26" d="M446.1,195.8l5.3,8.1l2.1-1l-3.6-9C448.7,194.6,447.5,195.3,446.1,195.8L446.1,195.8z"/>
			<path class="st53" d="M441.9,193.3c9.8,9.3,9.3,26.9,9.3,26.9s-20.4-4.1-33.7-11.4l0.8-11.5L441.9,193.3z"/>
			<path class="st54" d="M447.6,201.7c-5.9,0-30.1,7.1-30.1,7.1c13.3,7.2,33.7,11.4,33.7,11.4C451.2,213.8,450,207.6,447.6,201.7
				L447.6,201.7z"/>
			<path class="st24" d="M486.1,163.7c-5.1-3.6-23.7,15.2-35.6,27.1l15.5,27.9C489.7,197.4,491.2,167.3,486.1,163.7z"/>
			<path class="st28" d="M486.1,163.7c-2-1.4-6.1,0.6-10.9,4.3c-0.6,4.8-1.8,9.5-3.4,14c-3.7,10.7-9.2,19.1-13.8,22l8.1,14.5
				C489.7,197.4,491.2,167.3,486.1,163.7z"/>
			<path class="st27" d="M538.8,328.2l1.4,0.1l-10.6-55.6c0,0-0.6-48.1,1.8-59.2s-0.6-41-3.4-44.2c-5.9-6.7-19.6-13.9-23.8-13.6
				c-4.2,0.3-24.3,6.1-27.3,13c-7.9,18,3,45.6,2.1,64.7c0,1-7.7,38.6-7.7,38.6l-3.4,49.6l1.2,0.1l13-40.1l19.4-25.4l7.9,27.1
				L538.8,328.2L538.8,328.2z"/>
			<path class="st22" d="M482.3,250.4l28.3-6.6l-0.7-3l9.8-8.7l2.8,1.8l4.5-12l-6.7-14.8l-40.7,19.5L482.3,250.4L482.3,250.4z"/>
			<path class="st22" d="M529.9,184.6c0.9,15-0.3,37.4-3.5,37.2c-3.2-0.3-10.8-19.7-10.6-22.4C516.1,196.7,529.9,184.6,529.9,184.6
				L529.9,184.6z"/>
			<path class="st28" d="M528.7,181.5c0.9,15-0.3,37.4-3.5,37.2c-3.2-0.3-10.9-19.7-10.6-22.4C514.9,193.6,528.7,181.5,528.7,181.5
				L528.7,181.5z"/>
			<path class="st22" d="M484.2,282.7l15-23.3l9.5,24.7l30.1,44.1l1.1,0.1c-6.7-12.3-28.7-45.5-28.7-45.5l-7.1-27.1l3.9-4.6
				l-7.3,1.1l-12.9-2.6l-7.2-10.7l-4.2,41.5l-7.9,41.2l0.9,0.1L484.2,282.7L484.2,282.7z"/>
			<path class="st29" d="M458.1,321.6l12.1,1.2c0,0,1.1-3.4-1.2-4.7C466.8,316.8,458.1,321.6,458.1,321.6z M544.9,330.4l-9.2-0.9
				c0,0,0-4.3,2-5.4C539.8,323.1,544.9,330.4,544.9,330.4z"/>
			<path class="st22" d="M495.2,211.1c-0.3-1.8-1.4-3.1-2.3-2.9c-0.9,0.2-1.4,1.8-1,3.5c0.3,1.8,1.4,3.1,2.3,2.9
				S495.5,212.8,495.2,211.1L495.2,211.1z"/>
			<path class="st28" d="M494,210.9c-0.2-1-0.8-1.7-1.3-1.6c-0.5,0.1-0.8,1-0.6,2c0.2,1,0.8,1.8,1.3,1.6
				C494,212.8,494.2,211.9,494,210.9z"/>
			<path class="st24" d="M520.8,163.3c-6.3-4.4-13.7-7.8-16.6-7.6c-3.7,0.2-20.2,5-25.8,10.9c-2.9,11.4-2.5,28-0.5,38.5l22.7,3.3
				C497.6,180.1,514.7,167,520.8,163.3L520.8,163.3z"/>
			<path class="st55" d="M504.2,155.7c-2.9,0.2-13.4,3.1-20.6,7.1c-1.5,7.1,0.4,12.2,9.2,12.8c9.3,0.6,17.7-10.6,21.4-16.3
				C510,157,506.1,155.6,504.2,155.7L504.2,155.7z"/>
			<path class="st28" d="M479.1,203.8c-2.1-10.4-2.4-26.8,0.4-38.1c-0.4,0.3-0.7,0.6-1,1c-2.9,11.4-2.8,28.5-0.7,39l22.9,2.8
				c-0.1-0.5-0.1-1-0.1-1.5L479.1,203.8z"/>
			<path class="st26" d="M512.3,158.3L500.2,140l-15.4,4c0,0-0.8,13.4-0.9,17.8c-0.1,3.4,1.2,9.7,9.8,10
				C503.2,172.1,512.3,158.3,512.3,158.3L512.3,158.3z"/>
			<path class="st32" d="M522.7,164.7c-1-0.8-2-1.5-3.1-2.2l-1.1-0.7l-0.1-0.1c-0.8-0.5-1.6-1-2.3-1.4l-0.1-0.1l-1.1-0.6l-0.1,0
				c-0.4-0.2-0.8-0.4-1.2-0.6l-1.1-0.5l-0.2-0.1l-11.9-18.2l-11.1,5.6c-2.1,4.4-3.9,9-5.3,13.6c-0.1,0.9-0.1,1.8-0.1,2.4
				c0,0.3,0,0.6,0,0.9l-0.9,0.5c-3.4,15.1-0.4,26.4,8.6,25.7C503,187.8,507.1,167.9,522.7,164.7L522.7,164.7z"/>
			<path class="st56" d="M479.8,148.9c-7.6-1.5-7-12.1-7-12.1s-3.6-2.6-2-8c1.6-5.5,9-5.1,9-5.1s-1.6-3.1,4.1-4.8
				c5.9-1.8,9.3,1.4,9.3,1.4s7.9-3.4,10.2,3.1C505.9,130.2,479.8,148.9,479.8,148.9z"/>
			<path class="st57" d="M503.5,123.5c-2.4-6.5-10.2-3.2-10.2-3.2c-1.4-1.1-3.1-1.8-4.9-1.9c2.6,1.5,4.4,3.7,4.7,6.4
				c0.5,5.3-5,10.2-12.4,10.9c-3.5,0.4-7-0.3-10-2c0.4,1.2,1.1,2.3,2.1,3.1c0,0-0.7,10.6,7,12.1
				C479.8,148.9,505.9,130.2,503.5,123.5L503.5,123.5z"/>
			<path class="st26" d="M477.3,131.3c-3.6,11.7,2.5,30,5.6,33.3c3.1,3.3,13.6,3.3,18.1-2.5c3.4-4.3,2.6-11.9,1.1-18.1
				c-1.5-6.2-4.1-14-8.1-16.1C490.5,126,478.8,126.5,477.3,131.3z"/>
			<path class="st19" d="M486.1,161.3c0.1-0.5-0.6-1-1.5-1.1c-0.9-0.1-1.6,0.3-1.7,0.8c-0.1,0.5,0.6,0.9,1.5,0.7
				C485.1,161.4,486,161.8,486.1,161.3z"/>
			<path class="st56" d="M508.6,152.7c3.4-7.5,0.6-12,0.6-12s3.1-5.7,0.2-9.5s-4.3-2.8-4.3-2.8s1.7-5.5-3.1-6
				c-5-0.5-10.9,3.2-10.7,8.8c0.3,5.9,4,7.8,4,7.8s-2.2,7.5,1.5,11.4C500.8,149.6,505,150.4,508.6,152.7z"/>
			<path class="st57" d="M510,140.3c0,0,2.8-5.9,0-9.7c-2.9-3.8-4.4-2.9-4.4-2.9s1.2-4.8-3.6-5.3c-0.3,0-0.5,0-0.8,0
				c1.1,2,1.6,4.2,1.3,6.5c-0.5,4.9-3.9,8.6-7.7,8.2c-0.8-0.1-1.5-0.3-2.2-0.8c0.6,1.1,1.5,2.1,2.6,2.8c0,0-2.2,7.5,1.5,11.4
				c4.1-0.8,8.3,0,11.8,2.3C512,145.1,510,140.3,510,140.3L510,140.3z"/>
			<path class="st26" d="M497.8,145.2c1.6-5,5.7-5.4,7.2-2.1c1.4,3.3-3,10.5-5.8,9.4C497.6,151.8,497.4,146.2,497.8,145.2z"/>
			<path class="st56" d="M478.8,164.1c-1.3-6.7,0.9-10.6,4-11c3-0.4,10.7,4.5,11.9,11.8c-4.1-1.8-8-4.1-11.5-7L478.8,164.1z"/>
			<path class="st33" d="M499.1,145.8c0.9-3,3.3-3.2,4.2-1.2c0.9,1.9-1.8,6.1-3.4,5.5C499,149.7,498.9,146.4,499.1,145.8z"/>
			<path class="st26" d="M499.5,147.6c0.7-2.1,2.3-2.2,2.9-0.9s-1.2,4.3-2.4,3.9C499.4,150.4,499.3,148,499.5,147.6L499.5,147.6z"/>
			<path class="st56" d="M481.6,139.7c0.6-1,6.9,0.1,8.4,0.6c1.5,0.5,1.5,1.7,1.3,2.9s-7.4,2.2-9.4,0.4
				C481.1,142.5,481,141,481.6,139.7L481.6,139.7z M480.2,144.5c-0.2,2.1-4,2.3-4.6,1.3c-0.6-1.1-1.1-2.2-0.6-2.9
				c0.5-0.8,3.5-3,4.2-2.3C480,141.3,480.3,143.5,480.2,144.5z"/>
			<path class="st34" d="M486.3,145.7l-2.2,0.5c0,0.1,0,0.1,0,0.2c0.3,1.2,1.1,2.1,1.8,2c0.6-0.1,0.8-1.2,0.5-2.4
				C486.3,145.9,486.3,145.8,486.3,145.7L486.3,145.7z M478.1,147.8c0.2,1.3,0.8,2.3,1.4,2.2c0.6-0.1,0.9-1.2,0.8-2.5L478.1,147.8z"
				/>
			<path class="st19" d="M481,145.3c-1.5,4.6-1.9,8.3-1.1,9c1.5,1.3,4.4-0.8,4.4-0.8L481,145.3z"/>
			<path class="st26" d="M481.6,145.1c-1.4,4.4-1.9,7.9-1.1,8.6c1.4,1.2,4.3-0.8,4.3-0.8L481.6,145.1z"/>
			<path class="st22" d="M489.6,215c0.2-1.8-0.4-3.3-1.3-3.4c-0.9-0.1-1.9,1.3-2,3.1c-0.2,1.8,0.4,3.3,1.3,3.4
				S489.3,216.8,489.6,215L489.6,215z"/>
			<path class="st28" d="M488.5,214.5c0.1-1-0.2-1.9-0.7-2c-0.5-0.1-1,0.8-1.2,1.7c-0.1,1,0.2,1.9,0.7,2
				C487.9,216.3,488.4,215.5,488.5,214.5L488.5,214.5z"/>
			<path class="st58" d="M430.2,194.7l-1.1-0.5l3.1-7.1c0.7-1.4,2.5-2,3.9-1.3l4,1.7c1.5,0.6,2.3,2.2,1.7,3.8l-1.5,3.5l-1.1-0.5
				l1.5-3.5c0.3-0.9-0.1-2-1.1-2.3l-4-1.7c-0.9-0.4-2-0.1-2.4,0.8L430.2,194.7L430.2,194.7z"/>
			<path class="st58" d="M438.2,203.7l-1.6-0.7l5.3-12.4c1.1-2.4,3.9-3.6,6.3-2.5l6.3,2.7c1.2,0.5,2.1,1.5,2.6,2.7
				c0.5,1.2,0.4,2.5-0.1,3.7l-2.7,6.2l-1.6-0.7l2.7-6.2c0.3-0.7,0.3-1.6,0-2.3c-0.3-0.7-0.9-1.3-1.6-1.6l-6.3-2.7
				c-1.5-0.7-3.3,0-3.9,1.6L438.2,203.7L438.2,203.7z"/>
			<path class="st59" d="M455.6,213.1c-2.6,6.1,0.4,12.9,6.7,15.6s14.4,0.6,18-5.2c3.9-6.3,1.3-14.3-6.2-17.3
				C466.7,203.1,458.5,206.5,455.6,213.1z"/>
			<path class="st60" d="M459.1,213.6c-2,4.6-1,10,2.5,13.7c4.8,5,12.7,5.1,17.7,0.2c4.3-4.2,5-10.7,1.8-15.7
				c-1.3-2.1-3.3-3.7-5.5-4.7C469.2,204.4,461.9,207.3,459.1,213.6C459.1,213.6,459.1,213.6,459.1,213.6z"/>
			<path class="st61" d="M451.1,310l-87.1-37.7l-3.2,7.5l87.1,37.7L451.1,310z"/>
			<path class="st59" d="M417.2,181.5l31.4,13.6c1,0.4,1.8,1.2,2.1,2.2c0.4,1,0.4,2.1,0,3.1l-3.2,7.5l-38.8-16.8l3.2-7.5
				C412.8,181.6,415.1,180.6,417.2,181.5C417.2,181.5,417.2,181.5,417.2,181.5L417.2,181.5z"/>
			<path class="st60" d="M427.1,185.8l31.4,13.6c2,0.9,3,3.2,2.1,5.3l-3.2,7.5l-38.8-16.8l3.2-7.5
				C422.7,185.8,425,184.9,427.1,185.8L427.1,185.8z"/>
			<path class="st59" d="M419.8,188l-3.2,7.3l39.9,17.2l3.2-7.3L419.8,188z"/>
			<path class="st62" d="M428.3,192.8l-25.5-11L359.8,277l29.3,12.7L428.3,192.8L428.3,192.8z"/>
			<path class="st63" d="M428.3,192.8l-25.5-11l10,19.9l-23.6,88L428.3,192.8L428.3,192.8z"/>
			<path class="st64" d="M396.7,282.7l-7.6-3.3l-6,13.1l5,2.2L396.7,282.7z M448.5,305.1l7.6,3.3l-5.1,13.5l-5-2.2L448.5,305.1
				L448.5,305.1z"/>
			<path class="st62" d="M371.5,271.8l-7.6-3.3l-6.8,12.7l5,2.2L371.5,271.8L371.5,271.8z"/>
			<path class="st61" d="M417.3,291.6l-7.6-3.3l-6.8,12.7l5,2.2L417.3,291.6L417.3,291.6z"/>
			<path class="st64" d="M490.9,219.9l-65.4-28.3l-40.1,96.8l67.2,29.1L490.9,219.9L490.9,219.9z"/>
			<path class="st65" d="M482.8,216.4l-19.7-8.5l-68.8,84.4l29.8,12.9L482.8,216.4z"/>
			<path class="st66" d="M452.8,210.7c-1,2.3-0.4,4.8,1.4,5.6c1.8,0.8,4.1-0.4,5.1-2.8s0.3-4.8-1.5-5.6
				C456.1,207.2,453.8,208.4,452.8,210.7z"/>
			<path class="st62" d="M453.8,209.8c-0.5,1.2-0.3,2.6,0.6,3.5c0.9,0.9,2.3,1.2,3.5,0.8c1.2-0.5,2-1.6,2-3c0-1.8-1.4-3.3-3.2-3.3
				c-0.4,0-0.8,0.1-1.2,0.2C454.8,208.4,454.2,209,453.8,209.8L453.8,209.8z"/>
			<path class="st67" d="M454.8,210.2c-0.6,1.4,0,3.1,1.5,3.7c1.4,0.6,3.1,0,3.7-1.5l0,0c0.6-1.4,0-3.1-1.5-3.7
				C457.1,208.1,455.4,208.7,454.8,210.2L454.8,210.2z"/>
			<path class="st68" d="M458.4,208.9c-0.8-0.3-1.7-0.2-2.4,0.3c0.1,0.9,0.7,1.6,1.4,1.9c0.8,0.3,1.7,0.2,2.4-0.3
				c-0.1-0.4-0.2-0.8-0.5-1.2C459.1,209.3,458.8,209,458.4,208.9L458.4,208.9z"/>
			<path class="st66" d="M441.7,205.9c-1,2.3-0.3,4.8,1.5,5.6s4.1-0.4,5.1-2.8c1-2.3,0.3-4.8-1.5-5.6
				C445,202.4,442.7,203.6,441.7,205.9z"/>
			<path class="st62" d="M442.7,205c-0.5,1.2-0.3,2.6,0.6,3.5c1.2,1.3,3.3,1.3,4.6,0.1s1.3-3.3,0.1-4.6s-3.3-1.3-4.6-0.1
				C443.1,204.2,442.9,204.6,442.7,205z"/>
			<path class="st67" d="M443.6,205.4c-0.6,1.4,0,3.1,1.5,3.7c1.4,0.6,3.1,0,3.7-1.5l0,0c0.6-1.4,0-3.1-1.5-3.7
				C445.9,203.3,444.2,203.9,443.6,205.4L443.6,205.4z"/>
			<path class="st68" d="M447.3,204.1c-0.8-0.3-1.7-0.2-2.4,0.3c0.2,1.3,1.4,2.3,2.7,2.1c0.4,0,0.8-0.2,1.2-0.5
				C448.6,205.1,448.1,204.4,447.3,204.1L447.3,204.1z"/>
			<path class="st66" d="M460.2,213.9c-1,2.3-0.4,4.8,1.5,5.6c1.8,0.8,4.1-0.4,5.1-2.8c1-2.3,0.3-4.8-1.5-5.6
				C463.4,210.4,461.2,211.6,460.2,213.9L460.2,213.9z"/>
			<path class="st62" d="M461.2,213c-0.7,1.6,0,3.5,1.7,4.2c1.4,0.6,3.1,0.1,3.9-1.1c0.7-1.1,0.8-2.5,0.1-3.6c-1-1.5-3-1.9-4.5-1
				C461.9,211.9,461.5,212.4,461.2,213z"/>
			<path class="st67" d="M462.1,213.4c-0.6,1.4,0,3.1,1.5,3.7c1.4,0.6,3.1,0,3.7-1.5c0.6-1.4,0-3.1-1.5-3.7c0,0,0,0,0,0
				C464.4,211.3,462.7,211.9,462.1,213.4z"/>
			<path class="st68" d="M465.8,212.1c-0.8-0.3-1.7-0.2-2.4,0.3c0.1,0.9,0.6,1.6,1.4,1.9c0.8,0.3,1.7,0.2,2.4-0.3
				C467.1,213.1,466.5,212.4,465.8,212.1L465.8,212.1z"/>
			<path class="st66" d="M481.8,218.5l-10.9-4.7l-2.4,5.6l10.9,4.7L481.8,218.5z"/>
			<path class="st61" d="M481.3,218.7l-10.2-4.4l-2.1,4.9l10.2,4.4L481.3,218.7z"/>
			<path class="st69" d="M479.9,218.9l-9-3.9l-1.5,3.5l9,3.9L479.9,218.9z"/>
			<path class="st66" d="M425.8,195.3l11.2,4.8l-0.3,0.7c-0.5,1.1-1.7,1.6-2.8,1.1c0,0,0,0,0,0l-7.3-3.1c-0.5-0.2-0.9-0.7-1.1-1.2
				c-0.2-0.5-0.2-1.1,0-1.6L425.8,195.3L425.8,195.3z"/>
			<path class="st64" d="M426.2,194.4l8.9,3.8l-0.3,0.7c-0.5,1.1-1.7,1.6-2.8,1.1l-4.9-2.1c-0.5-0.2-0.9-0.7-1.1-1.2
				c-0.2-0.5-0.2-1.1,0-1.6L426.2,194.4L426.2,194.4L426.2,194.4z"/>
			<path class="st70" d="M464.8,270.9c7.3-19.5,1-39.9-14-45.5c-15-5.6-33.1,5.7-40.4,25.2s-1,39.9,14,45.5
				C439.4,301.7,457.5,290.4,464.8,270.9z"/>
			<path class="st62" d="M463.1,266.1c6.4-17.2,0.8-35.2-12.6-40.2c-13.3-5-29.4,5-35.8,22.2c-6.4,17.2-0.8,35.2,12.6,40.2
				C440.7,293.3,456.7,283.4,463.1,266.1z"/>
			<path class="st68" d="M465.6,266.4c6.2-16.9,0.4-34.6-13-39.5s-29.2,4.8-35.5,21.7c-6.2,16.9-0.4,34.6,13,39.5
				S459.4,283.3,465.6,266.4L465.6,266.4z"/>
			<path class="st67" d="M446.8,270.7c-13.1-5.6-18.2-23.8-11.4-40.5c0.4-1,0.9-2,1.3-3c-7.9,3.1-15.1,10.2-19.1,20
				c-6.8,16.7-1.7,34.8,11.4,40.4c12.3,5.3,27.2-2.2,34.7-17C458.3,272.9,452.2,272.9,446.8,270.7z"/>
			<path class="st71" d="M460.2,264.5c4.4-12,0.3-24.6-9.2-28.1c-9.5-3.5-20.8,3.4-25.3,15.5s-0.3,24.6,9.2,28.1
				C444.5,283.5,455.8,276.5,460.2,264.5L460.2,264.5z"/>
			<path class="st72" d="M455.1,273.3c-2.2-1.3-4.4-2.5-6.8-3.5c-9.9-4.3-19.4-5.1-23.7-2.5c1.3,5.7,4.7,10.3,9.6,12.4
				C441.2,282.7,449.4,279.9,455.1,273.3L455.1,273.3z"/>
			<path class="st61" d="M454.9,262.7c4.3-11.1,1.4-22.5-6.4-25.6c-7.9-3-17.7,3.5-22,14.5c-4.3,11.1-1.4,22.5,6.4,25.6
				C440.7,280.3,450.6,273.8,454.9,262.7z"/>
			<path class="st73" d="M453.2,262c4-10.2,1.3-20.8-6-23.6c-7.3-2.8-16.4,3.2-20.3,13.4c-4,10.2-1.3,20.8,6,23.6
				C440.2,278.3,449.3,272.3,453.2,262z"/>
			<path class="st74" d="M447,240.2c-3.4-1.5-7.4-0.6-10.8,1.9c-0.2,5.8,2.1,10.9,6.5,12.7c3.4,1.5,7.4,0.6,10.8-1.9
				C453.5,247.1,451.2,242,447,240.2L447,240.2z"/>
			<path class="st69" d="M447.5,269.3c-8.6-3.7-17-4.5-21.6-2.3c1.1,3.9,3.4,7,6.7,8.4c5.2,2.3,11.4-0.2,16.1-5.6L447.5,269.3z"/>
			<path class="st63" d="M485.9,232.4l-68.6-29.6l-0.4,0.9l68.6,29.6L485.9,232.4z"/>
			<path class="st63" d="M442.1,198.8l-1.4-0.6l-5.6,13l1.4,0.6L442.1,198.8L442.1,198.8z M453.9,203.9l-1.4-0.6l-5.6,13l1.4,0.6
				L453.9,203.9z"/>
			<path class="st75" d="M375.2,156c2.3-12.9,2.5-23.5,8.8-27.6c6.3-4.1,17.4-1.5,18.8,3.4c0,0,14.6,2-3.5,24.6
				C393,167,375.2,156,375.2,156L375.2,156z"/>
			<path class="st76" d="M395.3,134.3c-5-2.8-9.4-3.1-9.7-6.7c-0.6,0.2-1.1,0.5-1.6,0.8c-6.3,4.1-6.5,14.7-8.8,27.6
				c0,0,17.8,10.9,24.2,0.4c6.3-8,8.6-13.3,9-17C405.2,141.5,400.7,137.3,395.3,134.3L395.3,134.3z"/>
			<path class="st26" d="M376.8,223c-1.2,8.7-5.1,33.4-3.1,32.9c0.6-0.2,1.3-0.3,2-0.4c2.8-0.3,5.2-2.1,6.3-4.6
				c4.8-10.8,13.1-30.4,13.6-36.5C396.2,205.8,376.8,223,376.8,223L376.8,223z"/>
			<path class="st19" d="M380.3,254.4c0,0,14.5-31.6,15.2-40.1c0.7-8.5-18.8,8.7-18.8,8.7c-0.3,2.1-0.7,5.1-1.2,8.3
				C390.3,221,380.3,254.4,380.3,254.4L380.3,254.4z"/>
			<path class="st24" d="M394.5,171.9c6.8,7,12.3,18.7,0.8,44.6l-20,7.3c0,0-2.5-7.7-1.5-10.4C374.6,210.8,388.8,166,394.5,171.9z"
				/>
			<path class="st28" d="M386.9,205.6c-2.8-0.9-2-11.7,0.1-21.1c-6,11.3-12.7,27.3-13.3,28.9c-0.9,2.7,1.5,10.4,1.5,10.4l20-7.3
				c3.3-7.3,5.2-12.8,6.1-17.3C397,204.1,390.8,206.9,386.9,205.6L386.9,205.6z"/>
			<path class="st77" d="M375.4,226.7c-2.1-1.4-0.2-3.8-1-4.2c-2.3-1.2-1.7-3.3-1.4-4.3c0.6-2.1,24.4-14.3,27.1-12.9
				c2.7,1.5-3.8,14.7-4.8,15.6C394.3,222,377,227.7,375.4,226.7L375.4,226.7z"/>
			<path class="st78" d="M377,225.9c-1.8-1.1-0.2-3.1-0.8-3.4c-1.9-1-1.4-2.7-1.2-3.6c0.5-1.7,20.2-11.9,22.4-10.6
				c2.2,1.2-3.2,12.1-4,12.9S378.3,226.7,377,225.9L377,225.9z"/>
			<path class="st77" d="M400.1,205.4c-1.2-0.6-6.2,1.3-11.7,3.8c3-0.7,5.2-0.5,5.6,0.7c0.5,1.6-2.5,4.6-7.1,6.9
				c3.5-0.9,6.3-1,6.7,0c0.4,1.2-3.1,3.4-7.7,5c-4.7,1.6-8.8,2-9.2,0.8c-0.3-0.8,1.2-2.1,3.7-3.3c-3,0.7-5.3,0.5-5.7-0.7
				c-0.2-0.7,0.2-1.6,1-2.5c-1.5,1-2.5,1.7-2.6,2.1c-0.3,1-0.9,3.1,1.4,4.3c0.7,0.4-1.1,2.8,1,4.2c1.6,1,18.8-4.7,19.8-5.7
				C396.2,220,402.8,206.9,400.1,205.4L400.1,205.4z"/>
			<path class="st27" d="M363.6,231.8l-37.7-15L251.5,300l1.3,0.1l80.1-53.6l9.3,0.9l16.1,14.6c0,0-17.7,44.9-17.8,45.4l1.7-0.3
				l28.4-47.1L363.6,231.8L363.6,231.8z"/>
			<path class="st22" d="M362,235.9l-33.9-13.8l-3.6,4.8C338.9,232.4,352.5,237.2,362,235.9z"/>
			<path class="st22" d="M364.6,230.8l-10.2-0.8l12.3,28.8l-24.9,48.4l0.5-0.1l29-47.3L364.6,230.8L364.6,230.8z M341,247l-12.3-2.2
				L251.6,300l1.2,0.1l80.2-52.5l9.7,0.3L341,247z"/>
			<path class="st27" d="M383.2,206.1c-8.5,5-17.4,21.9-18.3,26.1c-0.8,4.1-2,3.4-4.1,3.3c-2.1-0.1-32.8-5.6-35.8-11.8
				c-3.1-6.2,9.8-22.4,17.5-29.2c7.7-6.8,4.9-27.6,15.1-30.2c10.2-2.5,31.9,1.3,36.9,7.7C398.8,177.4,398.2,197.3,383.2,206.1
				L383.2,206.1z"/>
			<path class="st24" d="M367.3,163.5c-7.8,20.5-11,22.2-6.4,26.5s22.4,9.9,26.3,7.7c3.9-2.2,8.1-21.6,6.3-26.1
				C391.7,167.1,367.3,163.5,367.3,163.5L367.3,163.5z"/>
			<path class="st22" d="M393.7,192.4c-5,6.9-17.9,1.4-27.9-5.8c-8-5.7-12.2-14.2-11.1-20.9c-6.8,5.5-5.4,22.6-12.2,28.7
				c-2.5,2.3-4.9,4.8-7.1,7.4c14.2,4.6,32.6,12.2,29.6,19.7c-3.5,8.6-27.1,11.2-40.1,2.1l0.1,0.2c3.1,6.2,33.8,11.7,35.8,11.8
				c2.1,0,3.2,0.8,4.1-3.3c0.8-4.1,11.8-20.2,20.3-25.2C396.6,200.2,395.5,189.9,393.7,192.4L393.7,192.4z"/>
			<path class="st24" d="M334.7,176.5c5.2-8.1,12.4-15.8,29.8-13c0,0-8.6,16.1-0.7,17.6c1.1,0.2,10.4,1.9,7.6,3.5
				c-4.2,2.4-11.2,11.5-10.7,16.8C360.8,202.4,316.7,204.6,334.7,176.5L334.7,176.5z"/>
			<path class="st28" d="M363.8,181.1c-2.6-0.5-3.4-2.7-3.3-5.3c-1.6,7.7-12.1,19.3-16.7,18.9c-4.6-0.5-10.7-5.7-12.5-11.2
				c-7,21.1,29.6,21.1,29.5,20.2c-0.4-5.3,6.3-16.7,10.6-19C374.3,183,364.9,181.3,363.8,181.1L363.8,181.1z"/>
			<path class="st26" d="M367.9,163.6l12.6-16.8l15.9,8l-4.7,14.9l-14.1,6.8L367.9,163.6L367.9,163.6z"/>
			<path class="st79" d="M255.4,301.9l-11.5-1.2c0,0,8.8-3.1,9.9-3C255.4,297.9,255.4,301.9,255.4,301.9L255.4,301.9z M338.5,310.4
				l10.6,1.1c0,0-6.4-5.2-7.3-5.3C340.3,306,338.5,310.4,338.5,310.4z"/>
			<path class="st22" d="M350.1,245.7l-7.4,2.2l-8.7-0.7l-10-4.7l17,3.9L350.1,245.7L350.1,245.7z M346.4,233.8L341,232l-1.1,3.4
				l6,1.1L346.4,233.8z"/>
			<path class="st77" d="M345,233.6l-3.6-1.2l-0.7,2.3l3.9,0.7L345,233.6L345,233.6z"/>
			<path class="st80" d="M374.9,186.2c10.3,3.5,17.7-2.8,20.2-13.5l-0.7-0.7c-0.8-0.9-1.7-1.7-2.8-2.4l4-12.5
				c-0.1-1-0.4-2.1-0.7-3.1l-14.4-7.2l-12.6,16.8c-1.1-0.1-2.3-0.1-3.4-0.1c-1.5-0.2-2.8-0.4-4.1-0.4
				C362,174,363.4,182.4,374.9,186.2L374.9,186.2z"/>
			<path class="st26" d="M374.9,164.9c1.3,2.9,14.3,9.2,15.7,8.6s12.9-29,12.2-33.2c-0.7-4.2-14.3-10.8-18.1-4.3
				C382,140.7,373.6,162.1,374.9,164.9L374.9,164.9z"/>
			<path class="st76" d="M384.7,131.6c5.2-1.1,1.2,6.2-5,24.4l-3.3-4.4C376.3,151.6,380.5,132.5,384.7,131.6z"/>
			<path class="st26" d="M376.7,155.3c-2.2-1.9-4.4-6.7-2.5-10.1s4.7,1.3,5,4.2C379.6,152.3,378.3,156.7,376.7,155.3L376.7,155.3z
				 M360.3,201.6c9.2,4.1,36.6,6.5,42,4.5l1.6-15.9c-5.1,5.4-15.8-3.9-31.5-2.8C368.9,187.6,355,199.2,360.3,201.6z"/>
			<path class="st19" d="M395.5,204.6c-13.3,2-25-1.1-26-6.8c-0.7-3.6,3-7.4,9.3-10.3c-3.1-0.4-5.5-0.8-6.4-0.8
				c-3.5-0.2-19.2,13.9-13.9,16.2c9.2,4.1,38.4,5.2,43.8,3.2l0.9-3.2C400.7,203.6,398.1,204.2,395.5,204.6z"/>
			<path class="st78" d="M373,184.2c-2.9,3.5-10,15.9-11.3,20.9c-1.3,5-4.6-0.1-5.8,0c-1.1,0-6.7,1.3-10.4-2.3
				c-2.1-2.1,12.6-20.4,22.6-21.7C370.1,180.9,374.1,182.9,373,184.2L373,184.2z"/>
			<path class="st77" d="M368.1,181.1c-1.3,0.2-2.7,0.6-3.9,1.1c0.4,0,0.8,0.1,1.1,0.4c0.5,0.5,0.5,1.6,0,2.9c0.2-0.1,0.5-0.1,0.7,0
				c1.2,0.6,0.2,4.9-2.2,9.6c-2.4,4.7-5.3,8-6.4,7.4s-0.3-4,1.5-8.1c-4.4,4.3-8.9,6.6-10.3,5.3c-0.8-0.8-0.3-2.8,1.2-5.2
				c-3.2,4-5.1,7.5-4.3,8.3c3.7,3.5,9.2,2.3,10.4,2.3c1.2,0,4.5,5,5.8,0c1.3-5,8.4-17.3,11.3-20.9
				C374.1,182.9,370.1,180.9,368.1,181.1L368.1,181.1z"/>
			<path class="st26" d="M401.2,191.8c3.1-2.3,8-7.3,8.5-9.4c0.6-2.1,3.4-7.8,5.3-7.3c2,0.5,2,1.5,2,1.5s-11.8,28.7-15.4,28.3
				C398.1,204.3,401.2,191.8,401.2,191.8z"/>
			<path class="st19" d="M399,204c0.1,1.5,2.4,2,3.3,2.1c3.6,0.5,6.6-10.3,6.6-10.3S404.1,202.6,399,204L399,204z"/>
			<path class="st26" d="M410.4,183.2c1.6-1.6,9-0.7,9.4,0.1c0.4,0.8,0.3,3.9-0.9,4.2c-1.2,0.3-8,1.2-8.8,2.2
				C409.3,190.6,407.8,185.7,410.4,183.2z"/>
			<path class="st26" d="M407.8,191c1.6-1.6,9-0.7,9.4,0.1c0.4,0.8,0.3,3.9-0.9,4.2c-1.2,0.3-8,1.2-8.8,2.2
				C406.6,198.4,405.2,193.5,407.8,191z"/>
			<path class="st35" d="M376.5,153.2c-1.4-1.2-2.7-4.1-1.5-6.2c1.2-2.1,2.9,0.8,3.1,2.6S377.6,154.1,376.5,153.2L376.5,153.2z"/>
			<path class="st26" d="M376.7,153.7c-0.9-0.7-1.7-2.6-0.9-3.8c0.8-1.3,1.8,0.5,1.9,1.6C377.8,152.5,377.3,154.2,376.7,153.7z"/>
			<path class="st81" d="M394.5,149.6l-9.1-3.3l-2.4,6.5l8,2.9L394.5,149.6L394.5,149.6z"/>
			<path class="st81" d="M385.6,146.4l-8.1-3.1l-0.3,0.7l7.3,4.4L385.6,146.4L385.6,146.4z M395.1,149.9l7.6,2.7l-3.1,6.3l-6.1-2.2
				L395.1,149.9z"/>
			<path class="st26" d="M395.5,150.8l6.3,2.3l-2.5,5.2l-5.1-1.8L395.5,150.8L395.5,150.8z"/>
			<path class="st26" d="M394.5,151.8l-1,0l-3.9,11.6c0,0,5.1,0.3,5.2,0C394.9,163.1,394.5,151.8,394.5,151.8L394.5,151.8z"/>
			<path class="st35" d="M394.6,151.2l-0.2,0c0,2.2-0.3,11.5-0.4,11.8c-0.1,0.3-2.8,0.1-4.3,0l-0.1,0.4c0,0,5.1,0.3,5.2,0
				C394.9,163.1,394.6,151.2,394.6,151.2L394.6,151.2z"/>
			<path class="st26" d="M393.5,150l-7.8-2.8l-2,5.5l6.9,2.5L393.5,150z"/>
			<path class="st82" d="M392.3,148.8c-1.3-0.5-5.7-3-5.7-3s0-2.6,1-3s5.2,3.4,5.4,3.7C393.3,146.9,392.3,148.8,392.3,148.8z
				 M395.5,149.8c1.2,0.4,5.5,1.3,5.5,1.3s1.1-1.9,0.5-2.8c-0.6-0.9-5.3-0.7-5.7-0.6C395.5,147.7,395.5,149.8,395.5,149.8
				L395.5,149.8z"/>
			<path class="st81" d="M393.8,149.4l1.6,0.6l-0.5,1.8l-1.7-0.6L393.8,149.4L393.8,149.4z"/>
			<path class="st83" d="M396.4,151.9l2.2,0.8c0,0-0.7,2.2-1.8,1.8C395.6,154.1,396.4,151.9,396.4,151.9L396.4,151.9z M388.1,148.6
				l1.8,0.7c0,0-0.9,2.1-1.8,1.7C387.2,150.7,388.1,148.6,388.1,148.6z"/>
			<path class="st84" d="M382,161.8c0-0.4,1.5-1.7,1.9-1.5c1.8,0.9,5.4,4.3,5.9,4.7l0,0.2C387.4,164.8,382.1,164.3,382,161.8
				L382,161.8z"/>
			<path class="st35" d="M387.8,165.8c0-0.1-0.4-0.4-1-0.5c-0.6-0.1-1.1-0.2-1.1,0s0.4,0.3,1,0.5
				C387.2,165.9,387.7,165.9,387.8,165.8L387.8,165.8z"/>
			<path class="st81" d="M382.4,161.9c0-0.4,1.3-1.5,1.7-1.4c1.6,0.8,4.8,3.8,5.2,4.1l0,0.2C387.2,164.6,382.4,164.1,382.4,161.9
				L382.4,161.9z"/>
			<path class="st85" d="M399.2,152.2l2.2,0.8l-4.7,4.3l-1.8-0.6L399.2,152.2z M389.5,148.7l2.2,0.8l-4.7,4.3l-1.8-0.6L389.5,148.7
				L389.5,148.7z"/>
			<path class="st26" d="M377.7,248.4c-0.2-0.3-0.6-0.4-0.9-0.3c-0.3,0-0.6,0.2-0.8,0.5c-1.2,2.3-4.1,5.7-5.7,7.7
				c-1,1.2-2.7,5.2-1.8,7.9c1.5,4.7,5.3,4.2,3.7,2.5c-1.2-1.2-1.6-3.4,2.7-3.6c0.9-0.1,1.6-1.8,1.3-3.3c-0.3-1.6,2.7-1.8,5-7.2
				L377.7,248.4L377.7,248.4z"/>
			<path class="st26" d="M371.1,263.8c1.3,2.3,1.4,3.1,2.3,4.2c0.9,1.1,2.9,3,3.3,3.6c0.5,0.6-0.9,2.7-1.5,2.3
				c-1.4-1.2-2.8-2.5-4-3.9c-1-1.5-1.8-3.2-2.5-4.9C367.8,262.8,369.3,260.7,371.1,263.8L371.1,263.8z M373.3,257.6
				c1.4-0.5,3.4,3.1,4,3.2s2.2-1,3-0.7c0.8,0.3,1.3,1.9,1,2.1c-1.2,0.7-2.4,1.2-3.7,1.4c-0.9,0-2.7-0.9-4-0.2
				C370.9,264.8,369.2,259,373.3,257.6z"/>
			<path class="st26" d="M373.5,262.5c0.7,0.9,1.4,1.8,2.3,2.5c0.8,0.5,2.5-1.5,3.1-1.5c0.6,0.1,1.7,1.4,1.4,2
				c-0.4,0.6-3.5,2.2-4.1,2.4c-0.6,0.1-4.5-1.9-5.3-3.2C369.9,263.2,371.9,260.6,373.5,262.5L373.5,262.5z"/>
			<path class="st19" d="M488.2,212.7c4-2.7,7.4-6.1,10-10.2l22.6,17.2c-7.4,5.9-15.2,10.4-23.8,11.5L488.2,212.7L488.2,212.7z"/>
			<path class="st26" d="M492.5,209.3l12.2,15.3l8.8-3.6c-6.5-6.5-12.6-11.7-18.2-14.7C494.5,207.4,493.5,208.4,492.5,209.3
				L492.5,209.3z"/>
			<path class="st24" d="M523.2,167.3c-5.9-2.5-24.3,22.6-27.6,34.3l23.7,21.4C537.3,197.3,529.1,169.8,523.2,167.3z"/>
			<path class="st28" d="M523.2,167.3c-0.5-0.2-1-0.2-1.5-0.1c1.4,11.4-0.5,29.5-11.3,47.7l9,8.1
				C537.3,197.3,529.1,169.8,523.2,167.3z"/>
			<path class="st53" d="M489.2,208.7c11.1,7.3,14.7,24.6,14.7,24.6s-21.3-1.2-36.6-5l-0.7-10.2L489.2,208.7L489.2,208.7z"/>
			<path class="st54" d="M499.9,221.9c-6.2,0.6-32.1,7-32.1,7c15.3,3.8,36.2,4.5,36.2,4.5C503,229.4,501.7,225.5,499.9,221.9z
				 M463.7,228.4c-2.2,0.9-4.5,1.2-6.1,2.4c-0.6,0.5,0.2,2.9,1.4,2.9c1.2-0.1,2.5-0.4,3.6-0.9C462.9,232.6,464.4,228.1,463.7,228.4z
				"/>
			<path class="st54" d="M455.9,230.2c0.1,0.8,1.4,3.1,3,3.5c0.6,0.2,2.1-1.7,1.5-2.3c-1-0.9-2.2-2.7-2.5-2.8
				C457.5,228.4,455.8,229.4,455.9,230.2z"/>
			<path class="st53" d="M470.8,227.4c-1.3,0.4-2.4,1.3-3,2.5c-0.5,1-4.7,2.6-5.4,2.7c-0.8,0-2.7,0.3-4.5-3.3
				c-1.5-3.2-1.7-4.3,0-5.3c1.7-1,2.2-6.3,2.6-6.9c1.2-1.4,3.3,0.7,6.9,0.6C477.2,217.7,478.1,224.8,470.8,227.4L470.8,227.4z"/>
			<path class="st53" d="M467.5,218.6c-0.8-0.9-7.7-2.6-9.1-2.2c-1.4,0.4-5-0.1-5.9-0.1c-0.9,0-1.2,2.2-0.4,2.5
				c0.8,0.2,5.2,0.8,6.1,1.3c1.8,1,0.6,3,0.4,3.7C459.9,224.2,469.9,221,467.5,218.6L467.5,218.6z"/>
			<path class="st53" d="M460,223.4c-2.1,0.4-4.6,1.4-5.2,1c-0.6-0.4-4.2-4-4.7-3.8c-0.5,0.2-2,1.3-1.4,2.1c0.6,0.8,4.5,4.2,5.6,4.5
				c1.3,0.3,2.7,0.4,4.1,0.3C458.7,227.4,460.7,223.3,460,223.4L460,223.4z M461.6,227.5c-2.4,0.4-4.7,0.2-6.5,1.1
				c-0.7,0.3-0.4,2.8,0.8,3.1c1.2,0.2,2.5,0.1,3.7-0.2C460,231.4,462.4,227.3,461.6,227.5L461.6,227.5z"/>
			<path class="st53" d="M452.8,227.2c0.4,1.8,1.5,3.4,3,4.5c0.6,0.4,2.7-1,2-1.8c-1.1-1.2-2.2-3.4-2.6-3.6
				C454.8,226.1,452.7,226.4,452.8,227.2z"/>
			<path class="st54" d="M473.3,227.5c-1.6,0.5-6.1,0.2-6.9,1.5c-0.6,1-6.7,2.6-7.6,2.7c1.1,0.7,2.3,1.2,3.6,1.2
				c0.7-0.1,5.1-2,5.5-3c0.6-1.3,2.4-0.6,4.5-0.2C475.2,230.5,475.8,226.8,473.3,227.5L473.3,227.5z"/>
			<path class="st19" d="M305.3,178.3c3.1,3.3,8.8-2.1,5.2-5.6C307.4,169.7,301.2,174,305.3,178.3z"/>
			<path class="st86" d="M300.1,130.1c0.1-4.3-3.9-7.3-8.2-6.8c-3.6,0.3-6.4,3.3-6.5,6.9c0.1,3.5,2.9,6.4,6.4,6.7
				C296,137.4,300,134.4,300.1,130.1L300.1,130.1z M304.3,112.6c0.1-2.8-1.5-5.1-3.5-5.3s-3.6,1.8-3.7,4.6c0,2.8,1.5,5.1,3.4,5.3
				C302.6,117.4,304.2,115.4,304.3,112.6L304.3,112.6z"/>
			<path class="st22" d="M273.8,112.7c-0.7-7.1-1.3-11.5,0.3-13.7c1.6-2.2,14.2-8.9,20-6.2c3.5,1.6,5.6,11.7,5.6,11.7L273.8,112.7
				L273.8,112.7z"/>
			<path class="st87" d="M294.2,92.8c-2.6-1.2-6.5-0.5-10.1,0.8c-1.2,1.3-2,2.9-2.2,4.7c-0.4,4.1,2.6,8,7.1,9.7l10.9-3.4
				C299.8,104.5,297.7,94.4,294.2,92.8L294.2,92.8z"/>
			<path class="st88" d="M295.1,96.3c-0.5-1.7-1.9-2.9-3.1-2.8c-1.2,0.1-1.6,1.6-1.1,3.2c0.5,1.7,1.9,2.9,3.1,2.8
				C295.1,99.4,295.6,97.9,295.1,96.3z"/>
			<path class="st28" d="M295.8,144.1c5.6,5.9,10.4,12.5,14.1,19.7l-10.3,8.9L295.8,144.1z"/>
			<path class="st27" d="M275.1,303l2,0.2c0,0,26.2-71.6,27-98.5l-10.4-43.6l-15.7-5.6c0.8,40.9-8.7,36-12.7,48.5
				S275.1,303,275.1,303L275.1,303z"/>
			<path class="st22" d="M288.8,218.5l-6.5-4.1l5.2,7.2c0,0-10.6,78.9-11,79.6l1.1,0.1l12.3-79.6l8.4-5.9L288.8,218.5L288.8,218.5z"
				/>
			<path class="st22" d="M275.9,244.7c1.1-37.2,5.2-46.3,16.2-49.9c4.1-1.3,8.4,0.1,10.9,5.9l-9.3-39.6l-15.7-5.6
				c0.8,40.9-9.8,35.6-13.8,48.1c-4,12.5,10.9,99.4,10.9,99.4l2,0.2C277.1,303.2,275.5,258,275.9,244.7L275.9,244.7z"/>
			<path class="st89" d="M272,191.6c11.6-2.5,18.9-16.6,27.6-5.7l-5.8-24.9l-15.7-5.6C278.5,177.9,275.5,186.4,272,191.6z"/>
			<path class="st27" d="M272.7,142.6c-1.2,4.2,4.1,32,6,33.5c1.8,1.5,25.7,0.9,26.8-0.4c1.1-1.3,0.9-18-9-31.6
				c-2.1-2.9-7.3-6.4-12.4-6.3C278.4,137.9,273.3,140.5,272.7,142.6L272.7,142.6z"/>
			<path class="st22" d="M283.8,174.5c-1.7-1.5-7.6-27.9-7.5-35c-2,0.9-3.4,2.1-3.7,3.1c-1.2,4.2,3.8,33.2,5.6,34.8
				c1.6,1.4,20.5-0.2,25.8-1.1C296.5,176.7,285,175.6,283.8,174.5L283.8,174.5z"/>
			<path class="st19" d="M273.4,184.4c-4.8-12.7-7.7-38.4-1.5-40.4c1.9-0.7,5.3,27.2,6.7,32.6S277.4,194.9,273.4,184.4z"/>
			<path class="st24" d="M268.3,179.1l10.7-9c0,0-1.6-25.1-5.8-28.4C268,144.9,263.8,154.8,268.3,179.1L268.3,179.1z"/>
			<path class="st28" d="M272.8,142c-5,3.4-8.9,13.3-4.5,37.1l7.1-5.9C269.4,156.3,270,146.8,272.8,142L272.8,142z"/>
			<path class="st24" d="M300.7,159.7c-1.2-5.3-2.9-10.5-4.9-15.6c-2.4-2.7-7.2-5.6-11.8-5.6c-3.3,0-6.5,0.9-9.3,2.6
				c4.2,5.9,6.4,15.4,7.4,20.5c0.4,2,2.2,3.5,4.2,3.5l10.4-0.1c2-0.1,3.7-1.4,4.1-3.4C300.9,161,300.9,160.4,300.7,159.7
				L300.7,159.7z"/>
			<path class="st28" d="M291.3,164.5l-4.6-20.6l0.9-0.1l4.6,20.6L291.3,164.5L291.3,164.5z"/>
			<path class="st28" d="M300.7,159.7c-1.2-5.3-2.9-10.5-4.9-15.6c-0.7-0.8-1.5-1.5-2.4-2.2c0.5,0.4,0.9,0.8,1.3,1.3
				c2,5.1,3.7,10.3,4.9,15.6c0.3,1.3,0,2.6-0.8,3.6c-0.8,1-2,1.6-3.3,1.6l-10.4,0c-0.7,0-1.4-0.2-2.1-0.5c0.8,0.9,2,1.4,3.2,1.4
				l10.4-0.1c2.4,0,4.3-2,4.2-4.3C300.8,160.3,300.8,160,300.7,159.7L300.7,159.7z"/>
			<path class="st90" d="M277.8,139.6l2.3-0.9c4,3.8,7.4,4.3,9.7,1.1l1.4,0.7l-1.5,5.6l-2.3-1.6l-2.4,2.8L277.8,139.6L277.8,139.6z"
				/>
			<path class="st26" d="M276.1,179.7c4.6-8.6,18.4-14.2,18.4-14.2l0.3,0.9c0,0-11.8,20.7-17.5,21.5
				C273.2,188.4,274.9,181.8,276.1,179.7z"/>
			<path class="st19" d="M294.5,165.4c0,0-13.3,18.4-17.4,19c-0.9,0.2-1.8-0.2-2.2-1c-0.5,2.7-0.2,5.5,2.4,5.1
				c5.8-0.9,17.5-22.3,17.5-22.3L294.5,165.4z"/>
			<path class="st86" d="M289.2,127.3c-6.8,11.4-11,6.8-11,6.8s-8.1,1.7-8.1-4.6c0,0-5.4-2.4-3.1-10.8c2.3-8.5,9.2-7.2,9.2-7.2
				s2.8-5.4,8.8-4C291,108.7,289.2,127.3,289.2,127.3z"/>
			<path class="st26" d="M290.6,121.5l-6.6-1.8c0,0-1.4,12.9-4.6,19.7c5.5,5.1,9.3,5.9,10.7,0.8C290,140.1,290.6,121.5,290.6,121.5z
				"/>
			<path class="st91" d="M303.6,183.7l-14.7-1.1l-0.2-0.9l14.9-22.8l16,2.1l0.4,0.9L303.6,183.7L303.6,183.7z"/>
			<path class="st92" d="M303.6,183.7l-14.7-1.1l15.3-22.7l15.8,2L303.6,183.7L303.6,183.7z"/>
			<path class="st93" d="M303.7,183.7c9.6-13.9,9.1-21.3,0.6-23.7l15.8,2L303.7,183.7L303.7,183.7z M300,182.1l-4.4-0.5l-0.5,0.4
				l4.4,0.5L300,182.1z"/>
			<path class="st94" d="M288.6,305.3l-11.9-1.2c0,0-0.4-3.6,2.1-4.4C281.2,298.8,288.6,305.3,288.6,305.3L288.6,305.3z"/>
			<path class="st94" d="M271,303.5l7,0.7c0,0-0.2-3.6-1.7-4.8C274.7,298.2,271,303.5,271,303.5z"/>
			<path class="st95" d="M278.1,138.7l2.5-2.8c4,3.8,7.3,5,9.6,1.8l0.9,1.7l-1.8,5.8l-1.9-1.3l-2.3,2.5L278.1,138.7L278.1,138.7z
				 M279.5,171.1l-0.8-4.1l-11.1,9.2l0.9,4.4L279.5,171.1z"/>
			<path class="st27" d="M274.5,170.5l-6.9,5.7l0.9,4.4l7.7-6.6C275.5,172.9,274.9,171.7,274.5,170.5z"/>
			<path class="st32" d="M291.3,157.5c4.9-0.5,7.6-4.3,7.7-9.9l-0.7-0.8c-0.6-0.9-1.2-1.8-1.8-2.7c-1.5-1.9-3.3-3.4-5.5-4.5l0.1-0.2
				l-0.8-1.7c0,0.1-0.1,0.1-0.1,0.1l0.3-10.5c-1.9-2.3-4.2-4.4-6.6-6.3c-0.6,5.1-1.7,10.1-3.2,14.9l-0.1,0l-2.5,2.7l0.1,0.1
				c-1.5,0.5-3,1.2-4.2,2.2c-0.1,0.1-0.3,0.2-0.4,0.4c0,0-0.1,0.1-0.1,0.1c-0.1,0.1-0.2,0.2-0.3,0.3c0,0-0.1,0.1-0.1,0.1l-0.2,0.1
				c-0.2,0.1-0.3,0.2-0.4,0.3l-0.4,0.3l0,0c-0.1,0.1-0.3,0.2-0.4,0.4l-0.1,0.1c-0.1,0.1-0.2,0.2-0.4,0.4c0,0,0,0.1-0.1,0.1
				c-0.1,0.1-0.2,0.3-0.3,0.4l-0.1,0.1l-0.1,0.2C276.3,152.5,284.7,158.1,291.3,157.5L291.3,157.5z"/>
			<path class="st26" d="M282,111.1c-1,15,2,20.6,12.2,25.5c0,0,12.4-15.3,7.4-30C298.4,97.5,282.4,106.1,282,111.1z"/>
			<path class="st96" d="M282.2,127.3c5.2-9.9,3.7-20,6.9-22.3c0,0-6.3,1.4-9.9,6C275.6,115.7,282.2,127.3,282.2,127.3z"/>
			<path class="st86" d="M280.5,115.3c1.8-4.8,4.9-8.4,7.6-9.3c0.2-0.4,0.5-0.7,0.9-1c0,0-6.8,1.1-10.3,5.7
				c-1.7,2.3-0.7,6.5,0.5,9.9C279.5,118.8,279.9,117,280.5,115.3z"/>
			<path class="st86" d="M284.5,118.5c-2.8-0.3-4.8-3.8-4.4-7.9l0.1-0.9c-0.4,0.4-1.4,0.6-1.8,1c-3.5,4.7,3.7,16.4,3.7,16.4
				c1.4-2.8,2.5-5.7,3.1-8.7C285.1,118.6,284.8,118.6,284.5,118.5z"/>
			<path class="st26" d="M282.3,118.2c-1.6-2.9-6.1-0.2-4.6,2.6c1.5,2.8,5.5,4.5,6.1,3.7S283.1,119.6,282.3,118.2z"/>
			<path class="st33" d="M281.9,119.1c-1.1-1.8-3.9-0.1-2.9,1.6c0.9,1.7,3.5,2.9,3.8,2.4C283.2,122.6,282.4,120,281.9,119.1z"/>
			<path class="st26" d="M282.5,121c-0.6-1.2-2.4-0.1-1.8,1c0.6,1.1,2.1,1.8,2.4,1.5C283.3,123.2,282.8,121.6,282.5,121L282.5,121z"
				/>
			<path class="st97" d="M300.5,118.2c0.1-1.4-0.5-2.6-1.3-2.7c-0.8-0.1-1.5,1-1.6,2.4c-0.1,1.4,0.4,2.6,1.3,2.7
				S300.4,119.6,300.5,118.2L300.5,118.2z M292.6,117.3c0.2-1.6-0.4-3-1.3-3.2c-0.9-0.2-1.7,1-1.9,2.6c-0.2,1.6,0.4,3,1.2,3.2
				C291.6,120,292.4,118.9,292.6,117.3z"/>
			<path class="st97" d="M288.1,116.1c0,0,2.9-1.8,5.3-1c-0.4-0.9-1.3-1.4-2.3-1.2C289.3,114,288.1,116.1,288.1,116.1L288.1,116.1z
				 M301.6,117.1c0,0-2.3-2-4.5-1.6c0.5-0.7,1.4-1.1,2.2-0.8C300.9,115.1,301.6,117.1,301.6,117.1L301.6,117.1z"/>
			<path class="st98" d="M287.8,113.1l-0.1-0.4c1-1.7,2.8-2.9,4.8-3.2l0,1.2C290.7,110.8,289,111.7,287.8,113.1z M302.2,114.1
				c-1-1.6-2.6-2.7-4.5-2.9l0.1-1.2c2,0.5,3.7,1.8,4.5,3.7L302.2,114.1z"/>
			<path class="st35" d="M296.6,122.3c0,0,0,0.1,0,0.1c-0.3,0.8-1.1,1.2-1.9,0.9c-0.1,0-0.1-0.1-0.2-0.1c-0.5-0.3-0.8-0.7-1-1.2
				c-0.2,0.9,0.2,1.8,0.9,2.2c0.4,0.2,0.8,0.2,1.2,0.1c0.4-0.2,0.7-0.5,0.9-0.9C296.7,123,296.7,122.7,296.6,122.3L296.6,122.3z"/>
			<path class="st99" d="M291.2,126.4l5.5,0.8c0,0-0.9,2.9-3.2,2.5C291.3,129.3,291.2,126.4,291.2,126.4z"/>
			<path class="st100" d="M291.6,126.6l4.7,0.6c0,0,0.2,1.3-2.5,1C291,128,291.6,126.6,291.6,126.6z"/>
			<path class="st101" d="M294.7,130.8c0-0.4-0.5-0.1-1.1-0.1c-0.6-0.1-1-0.5-1.1-0.2c-0.1,0.4,0.4,0.7,1,0.8
				C294.1,131.4,294.6,131.2,294.7,130.8L294.7,130.8z"/>
			<path class="st32" d="M301.6,106.7c-2.1-6.1-9.8-4.4-14.9-1.1c-1.2,0.4-2.5,0.9-3.6,1.5c-4.7,0-6.9,4.2-6.9,4.2s-6.9-1.3-9.2,7.2
				s3.1,10.8,3.1,10.8c-0.1,1.3,0.5,2.6,1.4,3.5c12.5-12.9,25.3-16.7,31.4-17.7C302.9,112.3,302.5,109.4,301.6,106.7z"/>
			<path class="st22" d="M311.6,95.5c-7-0.3-19.3,4.8-28.5,11.6c9.3-3.6,16.2-3.6,18.9,0.9C314.1,101.6,317.2,95.8,311.6,95.5z"/>
			<path class="st102" d="M311.5,96.8c1.5,0.1,2.4,0.6,2.6,1.4c0.6-1.6-0.3-2.6-2.5-2.7c-7-0.3-19.3,4.8-28.5,11.6
				c1.2-0.5,2.4-0.9,3.6-1.3C295.3,100.4,305.4,96.6,311.5,96.8L311.5,96.8z"/>
			<path class="st19" d="M310.3,174.8c-0.1-1.3,2.4-4.4,3-4.2s-0.6,4.3-1.6,5.8C310.6,177.9,310.3,174.8,310.3,174.8L310.3,174.8z"
				/>
			<path class="st19" d="M312.6,171.5c-2.2-0.5-3.8,0.1-3.8-0.6c0-0.7,4.3-0.7,4.5-0.4C313.5,170.9,312.6,171.5,312.6,171.5z
				 M312,172.9c-2.2-0.5-3.8,0.1-3.8-0.6c0.1-0.7,4.3-0.7,4.5-0.4C312.9,172.2,312,172.9,312,172.9z M311.5,174.1
				c-2.2-0.5-3.8,0.1-3.8-0.6c0-0.7,4.3-0.7,4.5-0.4C312.3,173.5,311.5,174.1,311.5,174.1z"/>
			<path class="st103" d="M254.7,262.5l-1.3-2.2l-12.9,1.8l2,3.4L254.7,262.5L254.7,262.5z"/>
			<path class="st104" d="M255.9,260.6l-2.5-0.3l-1.4,12.7l3.9,0.4L255.9,260.6L255.9,260.6z"/>
			<path class="st103" d="M243,262.4l-2.5-0.3l-1,9.7l3.9,0.4L243,262.4z"/>
			<path class="st104" d="M258.7,270.3l-21.9-1c-4.6,5.6-7.3,15-7.3,30l41.6,4.2C268.1,285.4,265.8,279,258.7,270.3z"/>
			<path class="st103" d="M253.5,289.2c0.6-6.5,2.4-12.9,5.4-18.7l-0.2-0.2l-21.9-1c-4.6,5.6-7.3,15-7.3,30l24,2.4
				C253.1,297.6,253,293.4,253.5,289.2z"/>
			<path class="st105" d="M258.9,270.5l-0.2-0.2l-21.9-1c-0.1,0.2-0.3,0.4-0.4,0.6c5.9,0.8,12.2,8.4,15.1,18.7
				c1.2,4.2,1.7,8.7,1.4,13.1l0.7,0.1c-0.5-4.2-0.5-8.4-0.1-12.6C254,282.6,255.9,276.3,258.9,270.5L258.9,270.5z"/>
			<path class="st103" d="M259.9,276l1.3,26.6l4.1,0.4L259.9,276z"/>
			<path class="st106" d="M253.1,294.6l-23.4-2l0.7-6.5l0.6,5.4l20.7,1.8l2-6.5L253.1,294.6z"/>
			<path class="st106" d="M241.6,293l-3.1-0.3l0.1,3.7l3.1,0.3L241.6,293z"/>
			<path class="st107" d="M241,291.8l-2-0.2l0.1,3.2l2,0.2L241,291.8L241,291.8z"/>
			<path class="st26" d="M291.1,169.5c1.9-1.4,5.3-1.6,6.2-2.8c0.6-0.9-0.9-4-1.7-4.1c-0.8-0.1-5.2,5.7-5.2,5.7L291.1,169.5z"/>
			<path class="st26" d="M291.9,166.7c0.6-1.9,0.7-5.2,0.8-5.8c0.1-0.6,0.8-0.3,1,1.4c0.2,1.6-0.2,2.2,0.5,2.6
				C295,165.2,291.6,167.7,291.9,166.7L291.9,166.7z"/>
			<path class="st26" d="M295.2,164.7c0.8-1.2,2.8-3.9,2.4-4.2c-0.4-0.3-3.5,3.5-3.5,3.5L295.2,164.7L295.2,164.7z M296.3,165.6
				c1-0.8,3.5-2.7,3.2-3.1c-0.3-0.4-4.2,2.2-4.2,2.2L296.3,165.6z M296.8,167.2c1.6-0.7,3.9-2.1,3.6-2.5c-0.3-0.4-4.7,1.6-4.7,1.6
				L296.8,167.2z"/>
		</g>
		<path class="st108" d="M851.5,304C424.5,386-49,222-49,222v1550.5c0,0,538-253.5,806-181c113.6,30.7,202.5,210,420-43.5
			s292,291.5,891,55.5c457.1-180.1-36.5-1381.5-36.5-1381.5C2035,439.5,1278.5,222,851.5,304z"/>
		<path class="st11" d="M1504.7,872.2h1.9v-3.3c-0.3,0-1.4-0.1-2.8-0.1c-2.7,0-4.6,1.7-4.6,4.9v2.9h-3v3.7h3v9.3h3.7v-9.3h2.9
			l0.5-3.7h-3.4V874C1502.9,872.9,1503.2,872.2,1504.7,872.2L1504.7,872.2z"/>
		<path class="st11" d="M1588.8,871.2c-0.9,0.4-2,0.7-3,0.8c1.1-0.7,1.9-1.7,2.3-2.9c-1,0.6-2.2,1-3.3,1.3c-1-1.1-2.4-1.7-3.8-1.7
			c-2.9,0-5.2,2.4-5.2,5.3c0,0.4,0,0.8,0.1,1.2c-4.4-0.2-8.2-2.3-10.8-5.5c-0.5,0.8-0.7,1.7-0.7,2.7c0,1.8,0.9,3.4,2.3,4.4
			c-0.8,0-1.7-0.2-2.4-0.6v0.1c0,2.6,1.8,4.7,4.2,5.2c-0.4,0.1-0.9,0.2-1.4,0.2c-0.3,0-0.7,0-1-0.1c0.7,2.1,2.6,3.6,4.9,3.7
			c-1.9,1.5-4.2,2.2-6.5,2.2c-0.4,0-0.8,0-1.3-0.1c2.4,1.5,5.2,2.4,8.1,2.4c9.7,0,15-8,15-15c0-0.2,0-0.5,0-0.7
			C1587.2,873.2,1588.1,872.3,1588.8,871.2L1588.8,871.2z"/>
		<path class="st109" d="M1644.4,868.8h7.9c3.6,0,6.6,2.9,6.6,6.6v7.9c0,3.6-2.9,6.6-6.6,6.6h-7.9c-3.6,0-6.6-2.9-6.6-6.6
			c0,0,0,0,0,0v-7.9C1637.9,871.7,1640.8,868.8,1644.4,868.8C1644.4,868.8,1644.4,868.8,1644.4,868.8z M1652.3,887.8
			c2.5,0,4.6-2.1,4.6-4.6v-7.9c0-2.5-2.1-4.6-4.6-4.6h-7.9c-2.5,0-4.6,2.1-4.6,4.6v7.9c0,2.5,2.1,4.6,4.6,4.6H1652.3z"/>
		<path class="st109" d="M1643.1,879.2c0-2.9,2.4-5.2,5.3-5.2c2.9,0,5.2,2.4,5.2,5.2s-2.3,5.2-5.2,5.2
			C1645.5,884.5,1643.1,882.1,1643.1,879.2z M1645.1,879.2c0,1.8,1.5,3.3,3.3,3.3c1.8,0,3.3-1.5,3.3-3.3c0-1.8-1.5-3.3-3.3-3.3
			C1646.6,876,1645.1,877.4,1645.1,879.2z"/>
		<circle class="st11" cx="1654" cy="873.6" r="0.7"/>
		<path class="st11" d="M1641.6,461.2l-5-5l-5,5l-1.6-1.5l6.6-6.6l6.6,6.6L1641.6,461.2L1641.6,461.2z"/>
	</g>
</g>
</svg>
