<svg xmlns="http://www.w3.org/2000/svg" width="20" height="21" fill="none" viewBox="0 0 20 21">
  <g clip-path="url(#a)">
    <path fill="#6DC400" d="M14.014 20.02c-.134 0-.272-.017-.408-.053L1.231 16.653a1.615 1.615 0 0 1-1.132-1.96l1.562-5.82a.4.4 0 0 1 .773.206l-1.56 5.818a.812.812 0 0 0 .567.984l12.37 3.312a.797.797 0 0 0 .975-.563l.625-2.316a.4.4 0 1 1 .773.208l-.624 2.313a1.598 1.598 0 0 1-1.546 1.185Z"/>
    <path fill="#6DC400" d="M17.654 15.217H4.849a1.602 1.602 0 0 1-1.601-1.6V4.013c0-.883.718-1.6 1.6-1.6h12.806a1.6 1.6 0 0 1 1.6 1.6v9.604c0 .882-.718 1.6-1.6 1.6ZM4.849 3.212c-.441 0-.8.36-.8.8v9.605c0 .44.359.8.8.8h12.805c.44 0 .8-.36.8-.8V4.013c0-.441-.36-.8-.8-.8H4.849Z"/>
    <path fill="#6DC400" d="M7.25 8.015a1.603 1.603 0 0 1-1.602-1.6 1.602 1.602 0 1 1 1.601 1.599Zm0-2.401a.802.802 0 0 0-.801.8.801.801 0 1 0 .8-.8ZM3.701 14.36a.4.4 0 0 1-.283-.683l3.78-3.78c.453-.452 1.244-.452 1.697 0l1.125 1.126 3.115-3.737c.227-.272.56-.43.914-.432h.009c.35 0 .683.152.912.418l4.185 4.884a.4.4 0 1 1-.607.52l-4.186-4.883a.396.396 0 0 0-.304-.14.425.425 0 0 0-.307.145l-3.396 4.074a.398.398 0 0 1-.29.143.385.385 0 0 1-.3-.116l-1.436-1.435a.411.411 0 0 0-.565 0l-3.78 3.78a.399.399 0 0 1-.283.117Z"/>
  </g>
  <defs>
    <clipPath id="a">
      <path fill="#fff" d="M0 0h19.207v19.207H0z" transform="translate(.047 .812)"/>
    </clipPath>
  </defs>
</svg>
