<svg xmlns="http://www.w3.org/2000/svg" width="1920" height="1555" fill="none" viewBox="0 0 1920 1555">
  <g style="mix-blend-mode:multiply">
    <path fill="#F1FAE6" d="M0 0h1920v671H0z"/>
    <g clip-path="url(#a)" opacity=".5">
      <path fill="#BB9550" d="M1276.41 412V294.107c0-.294.12-.576.33-.784.21-.208.49-.325.78-.325h7.6c.41 0 .79.162 1.08.448.29.287.45.676.45 1.082v117.474h-10.24V412Z"/>
      <path fill="#997439" d="M1279.42 311.644c.45 1.125.26 3.939.32 5.313l.24 5.579c.17 3.757.33 7.514.5 11.271l-1.05-18.283c-.07-1.224-.22-2.691-.01-3.88Zm3.28 46.236c.05-9.389-.04-18.818.18-28.2.11 9.391-.12 18.813-.18 28.2Zm-.65-34c-.28-.421-.33-.965-.36-1.481-.13-2.116-.08-4.239.14-6.348 0 2.608.14 5.223.22 7.829Zm1.9-27.946c-.07 1.334-.12 2.675-.29 3.996-.13-1.318.16-2.655.29-3.996Zm0 0 .06-1.061c0 .351-.03.706-.06 1.061Zm-3.97 7.028.24 1.36-.19.118c-.06-.49-.08-.985-.05-1.478Zm1.05 45.143c.05 2.472.1 4.943.14 7.413l.07-2.719c0 3.762 0 7.523-.01 11.284-.35-5.319-.42-10.652-.2-15.978Zm-1.94 16.56c-.1-4.54-.19-8.361.13-12.838.01 1.04-.13 1.963-.12 3.008.02 1.045.15 2.058.19 3.105.09 2.43.03 4.971.02 7.409-.03 4.834-.15 9.675-.47 14.452.28-5.008.36-10.084.25-15.136Zm1.91 17.636c.03-1.169-.18-4.18.25-5.013-.03 5.263-.36 10.587-.6 15.892.08-1.741.15-3.5.21-5.248.05-1.875.1-3.753.14-5.631Zm-.35 10.879c-.08 1.951-.15 3.903-.2 5.858.04-1.952.12-3.904.2-5.858Zm1.97-1.206c.19 5.73-.1 12.691-.18 18.546.08-6.362-.32-12.079.18-18.546Zm.74-8.451c.03-6.073-.67-11.535-.05-17.707.37 5.47.07 12.117.05 17.707Zm-4.02-47.374c-.07 2.756-.12 5.527-.29 8.253-.13-2.72.16-5.5.29-8.253Zm-.61-7.21.24 1.358-.19.12c-.06-.49-.08-.985-.05-1.478Zm.45-23.41c-.28-.421-.33-.965-.36-1.481a38.44 38.44 0 0 1 .15-6.347c-.01 2.607.13 5.223.21 7.828Z"/>
      <path fill="#232222" d="m1276.41 360.104 10.24-6.521-10.24-1.499v8.02Z" opacity=".1"/>
      <path fill="#6DC300" d="M1326.97 308.056v-2.357h-2.54a3.61 3.61 0 0 0-.43-.033h-85c-.14.003-.28.016-.42.038h-2.52v2.08c-.04.166-.06.335-.06.505v42.804c0 .17.02.34.06.506v2.114h90.91v-2.388a.917.917 0 0 0 .03-.232v-42.804a.925.925 0 0 0-.03-.233Z"/>
      <path fill="#232222" d="M1281.49 309.958c.82 0 1.48-.559 1.48-1.248s-.66-1.247-1.48-1.247c-.83 0-1.49.558-1.49 1.247 0 .689.66 1.248 1.49 1.248Z" opacity=".21"/>
      <path fill="#2D2C2B" d="M1281.61 309.768c.8 0 1.45-.547 1.45-1.221s-.65-1.221-1.45-1.221c-.81 0-1.46.547-1.46 1.221s.65 1.221 1.46 1.221Z"/>
      <g opacity=".21">
        <path fill="#232222" d="M1282.27 309.336s-.21-.718-1.33-1.435c.25.627.73 1.137 1.33 1.435Z" opacity=".21"/>
        <path fill="#232222" d="M1280.75 309.179s.86-.182 1.71-1.121c-.67.179-1.27.572-1.71 1.121Z" opacity=".21"/>
      </g>
      <path fill="#111010" d="M1282.27 309.264s-.21-.717-1.33-1.434c.25.626.73 1.137 1.33 1.434Z"/>
      <path fill="#111010" d="M1280.75 309.108s.86-.183 1.71-1.121c-.67.178-1.27.572-1.71 1.121Z"/>
      <path fill="#fff" d="M1267.48 316.145h6.81v2.159h-4.56v2.147h4.56v2.155h-4.56v4.306h-2.25v-10.767Zm13.49 0c.75-.005 1.49.14 2.18.426.67.271 1.28.664 1.8 1.159.51.486.92 1.067 1.21 1.71.29.657.45 1.369.45 2.089s-.16 1.431-.45 2.089c-.29.644-.7 1.225-1.21 1.713-.52.494-1.13.887-1.8 1.159-1.4.567-2.97.567-4.37 0a5.825 5.825 0 0 1-1.79-1.159 5.487 5.487 0 0 1-1.21-1.713 5.023 5.023 0 0 1-.45-2.089c0-.721.15-1.433.45-2.089.29-.644.7-1.225 1.21-1.712a5.825 5.825 0 0 1 1.79-1.159c.7-.285 1.44-.429 2.19-.424Zm0 2.159c-.45-.002-.9.085-1.32.257-.4.161-.76.394-1.08.687a3.126 3.126 0 0 0-1 2.276c0 .432.1.86.27 1.255a3.35 3.35 0 0 0 1.81 1.722c.85.34 1.79.34 2.64 0a3.3 3.3 0 0 0 1.79-1.722c.18-.395.27-.823.27-1.255 0-.433-.09-.86-.27-1.255a3.118 3.118 0 0 0-.72-1.021 3.477 3.477 0 0 0-2.39-.95v.006Zm6.69 8.613v-10.766h3.39c.45-.003.9.085 1.31.257.8.318 1.45.934 1.8 1.719.21.469.3.983.26 1.495-.04.512-.2 1.007-.48 1.44-.31.497-.76.9-1.28 1.166l2.21 4.689h-2.47l-2.03-4.311h-.45v4.306l-2.26.005Zm2.25-6.466h1.14c.14.003.29-.023.43-.077.14-.055.26-.136.37-.239a.98.98 0 0 0 .24-.341.98.98 0 0 0 .09-.411c0-.144-.03-.287-.08-.419a1.009 1.009 0 0 0-.25-.349 1.12 1.12 0 0 0-.8-.317h-1.14v2.153Zm-27.67 22.524v-12.573h3.76a3.697 3.697 0 0 1 2.65 1.111c.34.347.62.755.81 1.202.23.549.33 1.146.29 1.742a3.994 3.994 0 0 1-.53 1.684 3.708 3.708 0 0 1-1.44 1.36l2.47 5.474h-2.74l-2.27-5.026h-.5v5.026h-2.5Zm2.5-7.545h1.27a1.204 1.204 0 0 0 .89-.366c.12-.114.21-.251.27-.402.06-.151.1-.313.09-.477.01-.167-.02-.333-.09-.487a1.169 1.169 0 0 0-.27-.414 1.294 1.294 0 0 0-.41-.274 1.253 1.253 0 0 0-.49-.091h-1.27l.01 2.511Zm6.43-5.028h7.56v2.52h-5.06v2.508h5.06v2.52h-5.06v2.507h5.06v2.52h-7.56v-12.575Zm16.67 0h2.5v12.573h-2.91l-5.04-8.376v8.376h-2.5v-12.573h2.93l5.02 8.391v-8.391Zm9.69 2.52v10.053h-2.5v-10.053h-3.53v-2.52h9.56v2.52h-3.53Zm13.2 12.526h-58.1v2.472h58.1v-2.472Zm0-34.084h-58.1v2.471h58.1v-2.471Z"/>
      <path fill="#232222" d="M1281.55 305.666H1239c-.14.003-.28.016-.42.038h-2.52v2.08c-.04.166-.06.335-.06.505v42.804c0 .17.02.34.06.506v2.114h45.72l-.23-48.047Z" opacity=".05"/>
      <path fill="#232222" d="M1281.46 352.077c.83 0 1.49-.558 1.49-1.247 0-.689-.66-1.248-1.49-1.248-.82 0-1.48.559-1.48 1.248s.66 1.247 1.48 1.247Z" opacity=".21"/>
      <path fill="#2D2C2B" d="M1281.59 351.887c.8 0 1.45-.546 1.45-1.22 0-.674-.65-1.221-1.45-1.221-.81 0-1.46.547-1.46 1.221s.65 1.22 1.46 1.22Z"/>
      <g opacity=".21">
        <path fill="#232222" d="M1282.25 351.455s-.21-.717-1.33-1.433c.25.627.73 1.137 1.33 1.433Z" opacity=".21"/>
        <path fill="#232222" d="M1280.73 351.3s.85-.184 1.7-1.123c-.67.179-1.27.573-1.7 1.123Z" opacity=".21"/>
      </g>
      <path fill="#111010" d="M1282.25 351.384s-.21-.717-1.33-1.425c.25.623.73 1.13 1.33 1.425Z"/>
      <path fill="#111010" d="M1280.73 351.229s.85-.184 1.7-1.123c-.67.179-1.27.573-1.7 1.123Z"/>
    </g>
    <g opacity=".5">
      <path fill="#FFB573" d="m319.282 447.836-7.755 1.547 2.77 8.4 6.479-1.283-1.494-8.664Z"/>
      <path fill="#000" d="m319.282 447.84-7.76 1.548 1.552 4.702 7.047-1.4-.839-4.85Z" opacity=".2"/>
      <path fill="#263238" d="M301.766 415.127c-3.002-11.209-10.836-23.007-6.145-33.517l22.302.423s1.274 24.27 1.602 34.582c.346 10.724 1 34.445 1 34.445l-8.842 1.725s-8.137-17.906-9.917-37.658Z"/>
      <path fill="#000" d="M294.489 392.657c.964 5.945 3.802 12.065 5.909 18.107 2.943-11.257 2.897-24.568-5.909-18.107Z" opacity=".2"/>
      <path fill="#6BAA66" d="M326.144 455.888s-2.071.88-4.559-.636a1.118 1.118 0 0 0-.959.008c-1.305.509-4.783 1.746-7.014 1.42a.301.301 0 0 0-.348.361 21.63 21.63 0 0 1 .573 3.612l2.051-.391.289-.756 1.068.469a49.685 49.685 0 0 0 9.954-2.372c.316-1.282-1.055-1.715-1.055-1.715Z"/>
      <path fill="#FFB573" d="m286.573 448.596-7.36-.088-.514 8.669 6.148.086 1.726-8.667Z"/>
      <path fill="#000" d="m286.568 448.601-7.36-.088-.287 4.854 6.684.087.963-4.853Z" opacity=".2"/>
      <path fill="#263238" d="M279.288 414.638c-.352-11.151-.8-27.816 3.048-32.866l22.925-.015s-6.901 24.242-9.506 34.466c-2.704 10.629-9.313 35.745-9.313 35.745l-7.952-.173s-2.454-24.512.798-37.157Z"/>
      <path fill="#FFB573" d="m315.48 345.553.332.832.406.967c.273.634.547 1.277.85 1.897a36.995 36.995 0 0 0 1.907 3.569c.347.554.699 1.094 1.072 1.586.348.488.724.955 1.125 1.4.688.764 1.48 1.426 2.354 1.969l-1.664-.406c.824.146 1.659.231 2.496.256a20.38 20.38 0 0 0 2.729-.085 24.78 24.78 0 0 0 2.885-.416c.481-.09.986-.185 1.473-.299l.737-.161.361-.083c.102-.03.207-.049.313-.056l1.727.349a2.39 2.39 0 0 1 1.532 1.023 2.402 2.402 0 0 1 .353 1.808c-.094.486-.338.93-.699 1.269l-.401.384-.367.333c-.244.215-.488.425-.742.626-.488.397-1.019.778-1.554 1.131a23.107 23.107 0 0 1-3.423 1.842 22.112 22.112 0 0 1-3.828 1.245c-1.375.312-2.78.474-4.19.484a3.152 3.152 0 0 1-1.203-.223l-.476-.183a18.682 18.682 0 0 1-3.005-1.517 19.827 19.827 0 0 1-2.522-1.939 25.01 25.01 0 0 1-2.125-2.145 29.328 29.328 0 0 1-1.786-2.282 29.849 29.849 0 0 1-1.53-2.363c-.467-.801-.924-1.601-1.314-2.425-.389-.823-.779-1.627-1.115-2.492-.168-.426-.336-.851-.49-1.286l-.225-.647-.113-.343-.13-.419a5.365 5.365 0 0 1 .235-4.104 5.369 5.369 0 0 1 9.907.566l.108.338Z"/>
      <path fill="#FFB573" d="m332.137 361.626-1.001-2.926c.104-3.257 4.265-2.395 4.265-2.395l3.129-.627a1.65 1.65 0 0 1 1.767 1.179l.717 2.058a1.714 1.714 0 0 1-.867 2.224l-2.776.898c-.526.19-1.09.245-1.643.161l-3.591-.572Z"/>
      <path fill="#6BAA66" d="M309.255 336.93c4.548 2.016 8.4 10.453 8.4 10.453-.255 2.008-5 7.527-9.118 8.88 0 0-3.152-1.391-5.055-5.78-2.455-5.699.935-15.691 5.773-13.553Z"/>
      <path fill="#6BAA66" d="M306.671 336.284a92.534 92.534 0 0 0-20.449-.128 6.906 6.906 0 0 0-2.64.897 6.912 6.912 0 0 0-3.227 4.406 6.891 6.891 0 0 0-.06 2.788c2.828 16.075-.896 33.958 1.1 37.581 0 0 23.626.825 36.858.202 3.995-17.292-2.893-28.077-6.196-41.728-.544-2.331-3.006-3.717-5.386-4.018Z"/>
      <path fill="#FFB573" d="M287.963 349.101c-.726 1.226-1.531 2.521-2.296 3.785l-2.297 3.784a75.547 75.547 0 0 0-1.085 1.865c-.344.615-.707 1.226-.998 1.819-.291.592-.596 1.18-.832 1.678a14.9 14.9 0 0 0-.283.636l-.045.11-.025.042c-.03.062.001-.062-.036-.125l-.018-.48c.009 1.07.122 2.137.338 3.185.223 1.203.498 2.47.83 3.737.332 1.268.672 2.575 1.032 3.886.36 1.312.743 2.648 1.065 3.944l.031.116a2.711 2.711 0 0 1-4.73 2.37 40.806 40.806 0 0 1-2.63-3.561c-.399-.612-.803-1.23-1.182-1.861a53.044 53.044 0 0 1-1.103-1.941 41.63 41.63 0 0 1-1.957-4.136 21.488 21.488 0 0 1-1.373-4.976 1.979 1.979 0 0 1 .006-.288l.005-.206c-.003-.424.019-.847.066-1.268.003-.173.051-.368.078-.526l.091-.429a19.38 19.38 0 0 1 .403-1.573c.284-.953.614-1.779.938-2.592.325-.813.667-1.577 1.01-2.331.342-.755.717-1.485 1.088-2.21a66.69 66.69 0 0 1 2.325-4.23c.826-1.386 1.64-2.701 2.585-4.061a5.373 5.373 0 0 1 9.049 5.757l-.05.08Z"/>
      <path fill="#6BAA66" d="M283.744 337.061c-4.585 1.918-8.559 10.09-8.559 10.09.378 2.884 6.678 9.175 10.016 10.407 0 0 2.866-2.411 4.294-8.141 1.644-6.583-3.3-11.8-5.751-12.356Z"/>
      <path fill="#FFB573" d="M303.426 337.397a4.314 4.314 0 0 0-2.018-1.999 3.992 3.992 0 0 1-.013-2.689l-9.991-3.429c.742 3.348 1.308 5.991.046 7.584 1.957 1.25 5.537 3.475 9.511 3.475 3.973 0 3.081-1.534 2.465-2.942Z"/>
      <path fill="#000" d="m301.312 333.018-7.55-.609c2.307 2.576 5.869 3.607 7.525 2.636a3.968 3.968 0 0 1 .025-2.027Z" opacity=".2"/>
      <path fill="#6BAA66" d="m301.172 340.315-1.604-1.377-2.223 1.054s1.375 1.343 3.827.323Z"/>
      <path fill="#000" d="m301.172 340.315-1.604-1.377-2.223 1.054s1.375 1.343 3.827.323Z" opacity=".3"/>
      <path fill="#263238" d="M303.693 321.126c.086 2.034-1.26 3.745-3.006 3.817-1.746.072-3.227-1.508-3.311-3.556-.085-2.049 1.265-3.745 3.006-3.817 1.742-.073 3.226 1.522 3.311 3.556Z"/>
      <path fill="#263238" d="M304.963 328.415c.081 2.034-1.265 3.745-3.006 3.817-1.742.072-3.232-1.508-3.312-3.556-.08-2.049 1.284-3.725 3.002-3.817 1.718-.092 3.231 1.517 3.316 3.556Z"/>
      <path fill="#FFB573" d="M289.845 323.807c.762 4.435 1.377 7.435 4.355 9.134 5.908 3.382 8.971.736 9.669-3.792.611-4.08-.728-10.647-5.609-12.076-4.839-1.409-9.176 2.298-8.415 6.734Z"/>
      <path fill="#263238" d="M301.451 327.5c5.154-.966 4.345 4.053 3.089 5.828-1.132 1.572-3.524 2.9-7.602 1.1-4.234-1.865-3.028-4.897-4.348-6.771-.465-.681.668-3.407 1.336-1.95 1.418 3.132 5.401.903 7.525 1.793Z"/>
      <path fill="#263238" d="M291.722 327.691c2.364 1.489 2.771-.932 2.209-1.984.983-1.095 1.88-4.872-.771-5.289 1.276.368 5.347.087 4.729-2.366 1.512 1.423 6.141 2.353 5.903-.121-.348-3.616-5.795-6.836-9.609-3.817-4.507-2.543-9.887 2.392-7.245 4.764-3.465.654-2.819 5.796-.85 6.491-1.562 2.636 4.417 6.25 5.634 2.322Z"/>
      <path fill="#000" d="M296.92 323.994a2.237 2.237 0 0 0-1.697.059c.564.091 1.14.071 1.697-.059Zm-.014.412a1.802 1.802 0 0 0-1.475.447 3.617 3.617 0 0 0 1.475-.447Zm4.247-4.596a20.592 20.592 0 0 0-4.256-.001c2.37.09 4.256.001 4.256.001Zm.608.455s-3.255.025-4.805.571a38.405 38.405 0 0 0 4.805-.571Z" opacity=".2"/>
      <path fill="#FFB573" d="M288.448 328.77a4.543 4.543 0 0 0 3.02 1.748c1.597.203 1.984-1.088 1.493-2.527-.451-1.294-2.015-3.001-3.529-2.564-1.515.437-1.868 2.131-.984 3.343Z"/>
      <path fill="#263238" d="M298.314 324.086c.029.389.267.686.522.663.254-.023.434-.36.404-.748-.03-.389-.268-.691-.522-.668-.254.023-.439.359-.404.753Zm4.036-.238c.03.388.267.691.522.663.254-.028.434-.36.404-.748-.03-.389-.268-.691-.522-.668-.254.023-.396.36-.404.753Z"/>
      <path fill="#ED893E" d="m301.057 324.223.408 3.277a3.61 3.61 0 0 0 1.153-.094.431.431 0 0 0 .289-.561.429.429 0 0 0-.139-.189c-.942-.744-1.711-2.433-1.711-2.433Z"/>
      <path fill="#263238" d="M296.247 323.016a.222.222 0 0 1-.192-.129.227.227 0 0 1 .022-.23 2.325 2.325 0 0 1 1.84-1.043.243.243 0 0 1 .168.074.24.24 0 0 1-.179.405 1.852 1.852 0 0 0-1.456.846.22.22 0 0 1-.092.064.22.22 0 0 1-.111.013Zm7.632-.28a.237.237 0 0 1-.2-.091 1.829 1.829 0 0 0-1.483-.756.232.232 0 0 1-.166-.055.232.232 0 0 1-.079-.156.24.24 0 0 1 .216-.249 2.274 2.274 0 0 1 1.897.932.224.224 0 0 1 .04.082.228.228 0 0 1-.085.243.224.224 0 0 1-.14.05Z"/>
      <path fill="#EBEBEB" d="M291.981 334.718s3.361 3.908 7.577 4.22c-2.478 1.111-4.324 3.573-4.324 3.573s-4.465-1.195-5.34-6.827c.712-.785 2.087-.966 2.087-.966Z"/>
      <path fill="#6BAA66" d="m301.172 340.315 1.89-1.617 2.342.75s-1.826 1.993-4.232.867Z"/>
      <path fill="#000" d="m301.172 340.315 1.89-1.617 2.342.75s-1.826 1.993-4.232.867Z" opacity=".3"/>
      <path fill="#EBEBEB" d="M301.408 335.398s1.607 1.952 1.654 3.319c1.938.799 3.685 3.32 3.685 3.32s-.394-3.939-3.445-6.238a3.298 3.298 0 0 0-1.894-.401Z"/>
      <path fill="#6BAA66" d="m277.6 459.842 1.6.035.446-.642.824.674 9.653.21a4.283 4.283 0 0 0-.364-2.218s-2.869-.325-3.958-1.787a.35.35 0 0 0-.352-.151c-.962.18-4.811.82-6.888.018a.34.34 0 0 0-.439.141.341.341 0 0 0-.046.16 23.843 23.843 0 0 1-.476 3.56Z"/>
      <path fill="#FFB573" d="M331.469 357.495c1.177-2.371 3.574-2.381 5.422-2.959.314-.099.855.593.495 1.065a2.765 2.765 0 0 1-1.771 1.203c-.042.828-.982 3.046-3.328 2.942a3.382 3.382 0 0 1-.818-2.251Z"/>
      <path fill="#fff" d="M302.185 328.992s-1.33-.335-5.099-.465c.356.808 1.311 1.428 3.241 1.508 1.55.106 1.858-1.043 1.858-1.043Z"/>
      <path fill="#FFB573" d="m282.339 375.915-2.873 1.16c-2.391 2.21.984 4.79.984 4.79l1.124 1.899a1.64 1.64 0 0 0 2.048.562l2.016-.795a1.71 1.71 0 0 0 1.106-2.118l-.695-1.789a3.349 3.349 0 0 0-.953-1.348l-2.757-2.361Z"/>
      <path fill="#263238" d="M376.319 334.179c-2.811-4.763-1.601-7.507 1.612-7.993l12.691 5.092c4.432 5.594-4.424 5.081.396 9.566s-9.491 9.744-16.342 3.872c-6.851-5.871 4.454-5.774 1.643-10.537Z"/>
      <path fill="#FFC3BD" d="m393.192 458.515 4.043-.804c-.477-3.845-.586-8.304-1.009-10.681l-4.656.546 1.622 10.939Zm-29.545.01 3.791.048c.428-3.825 1.883-8.365 2.06-10.777l-4.673-.217-1.178 10.946Z"/>
      <path fill="#263238" d="M390.373 462.293c3.215-.606 2.975-.612 4.772-1.018 1.536-.345 1.922-.227 3.179-.487 1.035-.222.807-1.205.27-2.29-.234-.484-.548-1.023-.887-1.74a.481.481 0 0 0-.536-.275l-4.231.804a.51.51 0 0 0-.371.318 4.979 4.979 0 0 1-3.236 2.911c-1.684.543-.24 2.012 1.04 1.777Zm-31.729-.69c2.338.051 3.885-.126 5.702-.149 1.558-.019 1.762.311 3.348.346 1.039.022 1.362-1.14 1.113-2.027a18.764 18.764 0 0 1-.607-2.06.435.435 0 0 0-.429-.355l-4.35-.094a.544.544 0 0 0-.421.206 5.92 5.92 0 0 1-4.661 2.296c-1.775.1-.988 1.809.305 1.837Z"/>
      <path fill="#6BAA66" d="M368.539 374.131s-2.222 23.097-1.862 37.824c-1.032 13.777-2.691 41.592-2.691 41.592.061.706 3.78.509 4.436.097 0 0 8.424-19.085 6.879-41.501 9.298-23.145 8.631-37.677 8.631-37.677l-15.393-.335Z"/>
      <path fill="#000" d="M377.057 383.605c1.365.255 4.987 2.946 5.426 4.604a123.316 123.316 0 0 1-4.397 16.426c-2.085-6.199-2.251-15.084-1.029-21.03Z" opacity=".2"/>
      <path fill="#6BAA66" d="M373.148 374.232s5.8 26.252 8.568 39.138c2.908 13.536 9.09 31.4 10.239 40.287.838.296 3.489-.179 4.885-.925 0 0 1.713-25.427-5.747-38.559 2.442-31.863-4.89-39.658-4.89-39.658l-13.055-.283Z"/>
      <path fill="#263238" d="M391.246 451.897c.104.608.162 1.222.175 1.839a.384.384 0 0 0 .4.383c1.841-.051 4.334-.961 5.141-1.264a.373.373 0 0 0 .243-.364l-.053-1.741a.391.391 0 0 0-.302-.367.39.39 0 0 0-.17.002l-5.142 1.082a.382.382 0 0 0-.292.43Z"/>
      <path fill="#fff" d="M391.246 451.897c.104.608.162 1.222.175 1.839a.384.384 0 0 0 .4.383c1.841-.051 4.334-.961 5.141-1.264a.373.373 0 0 0 .243-.364l-.053-1.741a.391.391 0 0 0-.302-.367.39.39 0 0 0-.17.002l-5.142 1.082a.382.382 0 0 0-.292.43Z" opacity=".1"/>
      <path fill="#263238" d="M363.612 451.574c-.044.478-.13 1.334-.22 1.96a.383.383 0 0 0 .321.429c1.627.17 3.267.188 4.897.054a.386.386 0 0 0 .342-.285l.449-1.711a.39.39 0 0 0-.186-.439.385.385 0 0 0-.162-.048l-5.036-.311a.39.39 0 0 0-.405.351Z"/>
      <path fill="#fff" d="M363.612 451.574c-.044.478-.13 1.334-.22 1.96a.383.383 0 0 0 .321.429c1.627.17 3.267.188 4.897.054a.386.386 0 0 0 .342-.285l.449-1.711a.39.39 0 0 0-.186-.439.385.385 0 0 0-.162-.048l-5.036-.311a.39.39 0 0 0-.405.351Z" opacity=".1"/>
      <path fill="#FFC3BD" d="m374.166 353.63-.328.52-.307.472c-.198.303-.41.586-.623.869a32.145 32.145 0 0 1-4.261 4.643c-.489.468-1.06.935-1.592 1.369-.532.434-1.112.863-1.705 1.253a29.761 29.761 0 0 1-3.651 2.168l-.17.087a2.392 2.392 0 0 1-1.472.246 8.616 8.616 0 0 1-2.191-.618 9.731 9.731 0 0 1-1.846-1.07 10.468 10.468 0 0 1-1.477-1.322c-.427-.458-.82-.947-1.176-1.463a17.274 17.274 0 0 1-1.701-3.076 19.624 19.624 0 0 1-.608-1.585 12.675 12.675 0 0 1-.443-1.673 1.554 1.554 0 0 1 .903-1.779 1.558 1.558 0 0 1 1.913.57l.083.132c.237.355.52.787.794 1.177.274.389.558.779.847 1.154a18.004 18.004 0 0 0 1.835 2.039 8.267 8.267 0 0 0 1.925 1.412 3.836 3.836 0 0 0 1.734.46l-1.636.333a32.033 32.033 0 0 0 2.799-2.019 33.152 33.152 0 0 0 2.601-2.34 39.045 39.045 0 0 0 2.376-2.585c.379-.471.739-.904 1.094-1.361l.494-.689.242-.335.203-.288.128-.184a3.135 3.135 0 0 1 3.206-1.33 3.118 3.118 0 0 1 2.456 2.453 3.12 3.12 0 0 1-.465 2.345l.019.015Z"/>
      <path fill="#263238" d="M373.541 347.347c-3.313-.163-6.59 2.857-8.697 6.305.43 2.243 5.361 6.041 5.361 6.041s7.586-7.005 3.336-12.346Z"/>
      <path fill="#263238" d="M367.995 353.318a78.988 78.988 0 0 0-.061 8.099c.058 3.51.227 6.964.605 12.729l17.664.384c-.247-4.981.456-10.64 3.871-21.762.201-.582.27-1.202.201-1.814a4.111 4.111 0 0 0-1.884-3.018 4.113 4.113 0 0 0-1.717-.615 42.305 42.305 0 0 0-2.2-.216 56.805 56.805 0 0 0-8.02-.174c-.868.063-1.776.153-2.641.254a6.655 6.655 0 0 0-4.01 2.022 6.653 6.653 0 0 0-1.808 4.111Z"/>
      <path fill="#FFC3BD" d="M384.1 338.062c-.756 2.567-1.716 7.277-.076 9.033 0 0-2.436-.417-7.694 2.68-1.457-2.188-.326-2.854-.326-2.854 2.947-.621 3.075-2.756 2.768-4.766l5.328-4.093Z"/>
      <path fill="#fff" d="M377.436 349.162c1.705.276 2.181 2.87 2.181 2.87s4.169-2.814 5.516-4.831a16.487 16.487 0 0 1-1.478-.991s-5.201 1.977-6.219 2.952Zm-1.618-.323s-1.484.366-2.066 2.433c-.311-3.774 1.461-4.373 1.461-4.373a2.198 2.198 0 0 1 1.553-.191 1.833 1.833 0 0 0-.948 2.131Z"/>
      <path fill="#000" d="m381.926 339.731-3.153 2.419c.08.476.118.958.112 1.44 1.115-.138 2.741-1.311 2.968-2.456.111-.459.136-.935.073-1.403Z" opacity=".2"/>
      <path fill="#FFC3BD" d="M386.416 332.932c-.876 4.15-1.154 5.922-3.579 7.868-3.639 2.927-8.51 1.229-8.897-3.026-.338-3.841 1.147-9.973 5.469-11.259a5.431 5.431 0 0 1 6.917 3.561 5.44 5.44 0 0 1 .09 2.856Z"/>
      <path fill="#263238" d="M386.46 335.123c-2.527.937-4.079-3.089-3.272-5.823-4.399 1.932-11.478-1.165-10.332-4.03 1.583 1.247 2.559.871 2.559.871s13.654-8.331 12.444-.732c7.481 3.154 3.126 8.369-1.399 9.714Z"/>
      <path fill="#263238" d="M377.166 322.761c-.719.464-.28 2.338 3.44.736l1.383-.315c-3.076 2.565-5.873 4.239-7.306 3.125-1.433-1.115-.174-4.088 2.483-3.546Zm2.619 10.721c-.056.353-.287.621-.492.598-.206-.024-.362-.324-.302-.673.061-.348.287-.621.492-.597.206.023.377.324.302.672Zm-4.235-.341c-.06.353-.286.616-.492.597-.205-.018-.361-.324-.306-.677.056-.353.291-.616.516-.592.225.024.343.319.282.672Z"/>
      <path fill="#263238" d="m375.344 332.494-.802-.324s.329.702.802.324Z"/>
      <path fill="#ED847E" d="M376.642 333.659a10.454 10.454 0 0 1-1.604 2.121 1.442 1.442 0 0 0 1.191.352l.413-2.473Z"/>
      <path fill="#263238" d="M377.995 337.795a3.42 3.42 0 0 1-.59-.012.102.102 0 0 1-.084-.112.116.116 0 0 1 .044-.07.115.115 0 0 1 .078-.024 2.954 2.954 0 0 0 2.416-.877.108.108 0 0 1 .072-.027.114.114 0 0 1 .072.03.108.108 0 0 1 .028.073.085.085 0 0 1-.009.038.086.086 0 0 1-.023.033 3.078 3.078 0 0 1-2.004.948Z"/>
      <path fill="#FFC3BD" d="M387.197 336.059a2.87 2.87 0 0 1-1.839 1.465c-.963.214-1.351-.916-.977-2.01.337-.985 1.252-2.283 2.186-1.999.933.284 1.163 1.587.63 2.544Z"/>
      <path fill="#263238" d="M381.084 331.066a.208.208 0 0 1-.089-.014.21.21 0 0 1-.077-.047 1.984 1.984 0 0 0-1.546-.551.212.212 0 0 1-.26-.169.233.233 0 0 1 .211-.24 2.471 2.471 0 0 1 1.96.676.193.193 0 0 1 .058.069.191.191 0 0 1-.064.242.272.272 0 0 1-.193.034Z"/>
      <path fill="#fff" d="M384.444 383.77c3.913-2.095 7.683-5.498 11.363-9.645-3.999-5.872-8.037-11.093-12.278-14.43-3.841 3.851-7.637 7.167-11.362 9.641 4.078 3.568 8.167 8.814 12.277 14.434Z"/>
      <path fill="#263238" d="M374.569 330.925a.171.171 0 0 1-.078-.003.176.176 0 0 1-.07-.034.21.21 0 0 1-.018-.293 2.188 2.188 0 0 1 1.725-.868c.027.002.053.01.076.023a.187.187 0 0 1 .094.122.221.221 0 0 1-.076.218.22.22 0 0 1-.151.052 1.735 1.735 0 0 0-1.357.704.211.211 0 0 1-.145.079Z"/>
      <path fill="#6BAA66" d="m386.612 383.864 10.26-8.802a.825.825 0 0 0 .089-1.162l-11.722-13.664a.825.825 0 0 0-1.162-.089l-10.26 8.802a.825.825 0 0 0-.089 1.162l11.722 13.664a.825.825 0 0 0 1.162.089Z"/>
      <path fill="#fff" d="m386.612 383.864 10.26-8.802a.825.825 0 0 0 .089-1.162l-11.722-13.664a.825.825 0 0 0-1.162-.089l-10.26 8.802a.825.825 0 0 0-.089 1.162l11.722 13.664a.825.825 0 0 0 1.162.089Z" opacity=".4"/>
      <path fill="#263238" d="m379.593 332.836-.788-.319s.315.697.788.319Z"/>
      <path fill="#FFC3BD" d="m379.236 377.508.401-1.257a1.532 1.532 0 0 1 .98-.99l2.206-.704a2.874 2.874 0 0 1 2.588.435l.472.345c-.525 2.127-2.657 4.041-2.657 4.041l-.55.611a1.271 1.271 0 0 1-1.373.389 1.295 1.295 0 0 1-.437-.246l-1.227-1.072a1.478 1.478 0 0 1-.432-.716 1.478 1.478 0 0 1 .029-.836Zm-29.265-27.591 1.298.229a1.526 1.526 0 0 1 1.113.868l.994 2.097a2.865 2.865 0 0 1-.09 2.62l-.284.501c-2.176-.239-4.355-2.102-4.355-2.102l-.68-.461a1.28 1.28 0 0 1-.378-1.777l.897-1.356a1.468 1.468 0 0 1 1.485-.619Z"/>
      <path fill="#E0E0E0" d="M346.194 357.422a.111.111 0 0 1-.09-.05 1.572 1.572 0 0 1-.216-1.083 1.43 1.43 0 0 1 .681-.896.115.115 0 0 1 .172.077.108.108 0 0 1-.002.044.099.099 0 0 1-.018.039.098.098 0 0 1-.032.029 1.224 1.224 0 0 0-.582.75c-.051.317.013.641.182.914a.124.124 0 0 1 .016.04.124.124 0 0 1-.001.043.095.095 0 0 1-.017.04.107.107 0 0 1-.03.03.116.116 0 0 1-.063.023Z"/>
      <path fill="#263238" d="m348.79 351.54 1.716 1.954a.292.292 0 0 1-.009.412l-2.399 2.1a.3.3 0 0 1-.27.061l-1.534-.393a.29.29 0 0 1-.215-.249l-.197-1.557a.295.295 0 0 1 .097-.257l2.399-2.099a.287.287 0 0 1 .212-.071c.077.005.149.04.2.099Zm-2.389 3.82a.38.38 0 0 0 .411.094.383.383 0 0 0 .243-.345.384.384 0 0 0-.227-.356.382.382 0 0 0-.415.076.375.375 0 0 0-.012.531Z"/>
      <path fill="#6BAA66" d="M346.258 357.112a1.075 1.075 0 0 1 .836 1.105 1.078 1.078 0 0 1-.945 1.015l-.6 2.504-.248.152-.176-.296.012-.527.147-.399-.047-.265.08-.357.031-.34.005-.216.067-.43a1.083 1.083 0 0 1-.455-1.145 1.091 1.091 0 0 1 1.293-.801Zm-.222.953a.372.372 0 0 0 .41-.557.373.373 0 0 0-.683.11.375.375 0 0 0 .274.414l-.001.033Z"/>
      <path fill="#E0E0E0" d="M346.194 357.422a.102.102 0 0 1-.056-.017.102.102 0 0 1-.039-.043.108.108 0 0 1-.011-.085.118.118 0 0 1 .019-.039.113.113 0 0 1 .034-.028c.273-.166.476-.426.572-.731a1.188 1.188 0 0 0-.181-.934.112.112 0 0 1-.01-.084.117.117 0 0 1 .051-.068.114.114 0 0 1 .153.037c.106.161.179.342.213.533.035.19.031.385-.012.574-.11.362-.35.671-.675.867a.102.102 0 0 1-.058.018Z"/>
      <path fill="#FFC3BD" d="M391.787 351.98c.151.349.256.595.364.885.109.29.209.556.308.831.204.556.369 1.116.539 1.67.325 1.122.59 2.261.793 3.411.215 1.161.359 2.334.432 3.513a26.46 26.46 0 0 1-.001 3.595l-.005.206a1.695 1.695 0 0 1-.066.387 8.457 8.457 0 0 1-.882 2.022 15.416 15.416 0 0 1-1.03 1.507 25.405 25.405 0 0 1-2.216 2.501 38.827 38.827 0 0 1-2.381 2.158 31.49 31.49 0 0 1-2.563 1.934 1.574 1.574 0 0 1-2.437-1.189c-.028-.366.073-.73.285-1.029l.001-.034 1.754-2.425c.578-.812 1.152-1.614 1.687-2.422a56.704 56.704 0 0 0 1.489-2.365c.2-.363.381-.737.542-1.119.116-.263.197-.54.239-.824l-.076.593c-.06-.96-.141-1.896-.292-2.858a40.242 40.242 0 0 0-1.337-5.752 32.651 32.651 0 0 0-.449-1.409l-.234-.691-.226-.623-.054-.164a3.118 3.118 0 0 1 1.826-3.879 3.12 3.12 0 0 1 3.975 1.608l.015-.038Z"/>
      <path fill="#263238" d="M386.831 347.348c2.865.503 3.996 1.405 6.223 7.234-1.115 2.132-6.147 4.084-6.147 4.084s-3.856-6.315-.076-11.318Z"/>
    </g>
    <g clip-path="url(#b)" opacity=".5">
      <path fill="#212121" d="M1588.27 440.096c0-.125 0-.247-.02-.369l15.99-2.68-.09-.505-15.98 2.68a3.755 3.755 0 0 0-1.29-2.045l9.7-13.857-.42-.292-9.31 13.303 5.02-15.058-.48-.16-5.21 15.627a3.76 3.76 0 0 0-1.4-.377v-16.694h-.51v16.694c-.28.02-.57.071-.84.153l-5.17-14.436-.48.168 4.93 13.739-9.91-11.412-.38.337 10.33 11.894c-.54.294-1 .716-1.34 1.228l-.58-.101-14.45-7.324-.23.453 12.97 6.58-14.47-2.49-.09.505 16.1 2.768.42.214a3.825 3.825 0 0 0-.28 1.754l-15.97 2.37.07.505 15.97-2.37c.04.15.08.297.13.441l-14.59 6.265.2.467 14.59-6.265v.015l-11.46 11.548.36.357 11.36-11.455c.24.323.52.607.84.842l-8.4 13.217.43.271 8.39-13.215c.08.041.15.078.23.113-2.1 5.525-5.94 15.65-6.04 15.933l.49.168c.08-.251 3.46-9.171 6.03-15.911.35.11.71.166 1.08.169h.19l-1.33 16.033.51.043 1.33-16.139c.16-.029.32-.07.48-.121 2.65 6.471 6.12 15.008 6.22 15.289l.48-.168c-.1-.283-4.04-9.973-6.22-15.33.05-.022.1-.045.14-.07l8.92 14.098.43-.272-8.92-14.099c.36-.261.67-.582.91-.949l13.23 9.176.29-.418-13.27-9.199c.25-.51.37-1.07.37-1.636Z"/>
      <path fill="#212121" d="M1584.53 462.048c-12.1 0-21.95-9.848-21.95-21.95 0-12.102 9.85-21.95 21.95-21.95s21.95 9.846 21.95 21.948c0 2.883-.57 5.738-1.67 8.401a21.885 21.885 0 0 1-4.76 7.123 21.93 21.93 0 0 1-15.52 6.426v.002Zm0-40.856a18.914 18.914 0 0 0-10.51 3.186 18.88 18.88 0 0 0-6.96 8.486 18.837 18.837 0 0 0-1.08 10.926 18.943 18.943 0 0 0 5.17 9.683 18.945 18.945 0 0 0 9.69 5.174c3.67.73 7.47.355 10.92-1.077a18.907 18.907 0 0 0 8.49-6.967 18.811 18.811 0 0 0 3.18-10.507c0-5.012-2-9.817-5.54-13.361a18.917 18.917 0 0 0-13.36-5.543Z"/>
      <path fill="#4E8E47" d="M1584.7 459.561c-3.83 0-7.56-1.135-10.74-3.26a19.31 19.31 0 0 1-7.12-8.677 19.244 19.244 0 0 1-1.1-11.17 19.327 19.327 0 0 1 15.19-15.189c3.75-.746 7.64-.363 11.17 1.101a19.381 19.381 0 0 1 8.68 7.121 19.359 19.359 0 0 1 3.25 10.741 19.31 19.31 0 0 1-5.67 13.665 19.345 19.345 0 0 1-13.66 5.668Zm0-37.887c-3.67 0-7.26 1.088-10.31 3.127a18.522 18.522 0 0 0-6.83 8.326 18.475 18.475 0 0 0-1.06 10.72 18.55 18.55 0 0 0 5.08 9.5 18.555 18.555 0 0 0 20.22 4.022 18.538 18.538 0 0 0 8.32-6.834 18.545 18.545 0 0 0 3.13-10.307 18.585 18.585 0 0 0-5.44-13.114 18.567 18.567 0 0 0-13.11-5.44Z"/>
      <path fill="#4E8E47" d="M1574.69 411.664a2.226 2.226 0 0 0-.75-.971 2.244 2.244 0 0 0-1.16-.414c-9.48-21.769-9.58-21.939-9.73-22.173l-1.37 2.713c-.07-.118 5.18 11.545 8.92 20.092l-.53.211 13.04 27.921 2.12-.862-10.54-26.517Z"/>
      <path fill="#212121" d="M1544.21 341.457c-.02-.265-.33-3.122-4.69-3.108 0 0 2.15.168 2.56 1.105 0 0-1.51-1.112-2.68-.691-1.18.421-1.8 2.527-1.78 3.216.02.689.76 2.864 1.52 3.032.31.05.62.039.92-.034-.2.346-.39.702-.55 1.068-1.61 3.641.32 7.067 1.78 6.626.92-.285 1.26 1.317 1.26 1.317l8.9-7.779s-3.63-6.85-7.24-4.752Z"/>
      <path fill="#ED975D" d="M1541.14 388.461s1.64 3.413 3.71 8.141c2.33 5.303 5.19 12.264 6.91 17.922.9 2.992 1.48 5.622 1.48 7.45 0 .626-2.42 3.173-3.12 4.144-4.4 6.133-10.42 14.318-10.42 14.318l-1.64-.412s2.3-10.244 5.65-15.357c.66-1.011 2.52-2.23 2.43-2.341-.29-.364-1.01-1.274-2-2.569-2.72-3.577-7.43-10.094-10.59-16.155-.2-.379-.39-.755-.58-1.129-1.66-3.384-2.76-6.554-2.65-8.904l10.82-5.108Z"/>
      <path fill="#4E8E47" d="m1536.6 440.433 1.13.714c.42.181.77.248 1.18.443.64.297.76.71.78.799v.018l4.8 3.033c.23-.096.37-.57.44-.935a.772.772 0 0 0-.01-.37.712.712 0 0 0-.18-.326c-.41-.47-1.33-1.237-1.73-2.65-.22-.795-1.41-3.3-1.41-3.3l-.01-.008c-.04-.027-.29-.095-1.67.096-.71.097-.91-1.348-.91-1.348-.17.03-.33.094-.48.189-.26.157-.46.394-.57.673-.2.477-.94 1.136-1.47 1.564-.32.258-.56.431-.56.431s-.22.231.67.977Z"/>
      <path fill="#AA3E39" d="M1538.54 436.783c.15.36.48 1.095.83 1.384.47.389 2.24-.31 2.24-.31l-.01-.008c-.04-.027-.29-.094-1.67.096-.71.098-.91-1.348-.91-1.348-.17.03-.33.093-.48.186Zm-1.94 3.65 1.13.714c.42.181.77.248 1.18.443.64.297.76.71.78.799v.018l4.8 3.033c.23-.096.37-.57.44-.935-.06-.223-.54.444-.69.505-.15.061-3.93-2.441-4.05-2.742-.12-.302-.61-1.011-1.67-1.37-.93-.317-1.81-1.563-2.03-1.88-.32.258-.56.431-.56.431s-.22.238.67.984Z"/>
      <path fill="#66A85D" d="m1569.78 405.829-2.54-2.625.22-.458-.4.273v.01l-28.83 19.474-6.43-20.097-2.17.694 6.63 20.735-25.26 17.078 30.44 2.648.2-2.276-24.02-2.088 19.54-12.518 5.36 16.768 2.17-.694-.61-1.921 1.47.949 24.23-35.952Zm-30.62 19.576 23.18-14.843-18.47 29.586-4.71-14.743Z"/>
      <path fill="#4E8E47" d="M1575.28 384.715a2.81 2.81 0 0 0-1.18-1.564 2.841 2.841 0 0 0-1.9-.441 2.872 2.872 0 0 0-2.52 2.687l-12.74 3.2a2.859 2.859 0 0 0-3.3-.664c-.55.252-1.01.672-1.3 1.199a2.865 2.865 0 0 0 3.69 4.005 2.837 2.837 0 0 0 1.3-1.202l14.49-3.636c.49.127 1 .121 1.49-.017.49-.137.93-.402 1.28-.766.36-.364.6-.815.72-1.307.13-.492.11-1.007-.03-1.493v-.001Zm-26.54 51.707 4.29 2.473a1.067 1.067 0 0 1 .39 1.445 1.074 1.074 0 0 1-1.45.388l-4.28-2.475a1.023 1.023 0 0 1-.49-.643c-.08-.27-.04-.559.1-.802a1.054 1.054 0 0 1 1.44-.386Z"/>
      <path fill="#4E8E47" d="m1549.59 438.017-5.4 5.981-.5-.435 5.41-5.979.49.433Zm-13-22.979a1.39 1.39 0 0 0-1.77-.842l-1.27.445c-.49.173-1.01.246-1.53.214a3.92 3.92 0 0 1-1.5-.401c-4.61-2.3-10.23-3.464-16.73-3.464h-.22c-2.9.012-8.09.723-10.32 1.055a1.22 1.22 0 0 0-.75.416c-.2.225-.3.512-.3.809v.803c0 .053.01.104.03.152.03.047.06.088.1.122a.37.37 0 0 0 .29.076c4.11-.864 18.32-3.2 28.59 3.011.15.086.31.14.48.157.16.018.33-.002.49-.058l3.85-1.348a.85.85 0 0 0 .52-.457.995.995 0 0 0 .09-.341.832.832 0 0 0-.05-.349Zm-13.94-13.141s-.42-1.872.76-2c1.17-.128 5.45.794 6.6.674 1.14-.119 7.1-1.11 8.15-.096 1.05 1.014.6 1.904-1.49 2.094-2.1.191-4.89.539-5.68 1.206-.8.667-6.54 2.63-8.34-1.878Z"/>
      <path fill="#4E8E47" d="M1537.9 443.1c0-1.13.34-2.234.97-3.174a5.637 5.637 0 0 1 2.56-2.104 5.713 5.713 0 0 1 3.3-.325 5.69 5.69 0 0 1 2.92 1.563c.8.799 1.34 1.816 1.56 2.924a5.65 5.65 0 0 1-.32 3.3 5.743 5.743 0 0 1-2.1 2.563c-.94.627-2.05.962-3.18.962-1.51 0-2.96-.602-4.03-1.672a5.679 5.679 0 0 1-1.68-4.037Z"/>
      <path fill="#212121" d="M1516.69 440.096c0-.125 0-.248-.02-.369l15.99-2.68-.09-.505-15.98 2.68a3.751 3.751 0 0 0-1.29-2.045l9.7-13.857-.42-.292-9.3 13.296 5.02-15.058-.49-.16-5.21 15.628a3.645 3.645 0 0 0-1.4-.378v-16.694h-.5v16.694c-.29.02-.57.071-.84.154l-5.19-14.437-.47.168 4.93 13.74-9.91-11.403-.39.337 10.33 11.895c-.53.294-.99.715-1.33 1.228l-.59-.101-14.45-7.328-.23.453 12.98 6.58-14.47-2.49-.08.505 16.09 2.768.42.214a3.86 3.86 0 0 0-.29 1.464c0 .099 0 .199.01.296l-15.97 2.365.07.506 15.97-2.37c.04.149.08.297.13.441l-14.59 6.262.2.466 14.59-6.265v.015l-11.46 11.548.36.357 11.36-11.455c.24.324.52.608.85.842l-8.4 13.218.43.276 8.4-13.216c.07.041.15.078.23.113-2.1 5.526-5.94 15.65-6.04 15.933l.48.168c.09-.251 3.47-9.17 6.03-15.91.35.109.72.166 1.09.168h.19l-1.33 16.034.5.042 1.34-16.138c.16-.03.32-.071.47-.121 2.64 6.492 6.11 15.029 6.2 15.302l.48-.168c-.09-.283-4.03-9.973-6.21-15.33.05-.022.09-.045.14-.071l8.92 14.098.43-.271-8.92-14.1c.36-.26.66-.581.91-.948l13.23 9.176.29-.418-13.27-9.199c.25-.516.38-1.081.37-1.653Z"/>
      <path fill="#212121" d="M1512.95 462.048c-12.1 0-21.95-9.848-21.95-21.952 0-4.342 1.29-8.587 3.7-12.198a21.95 21.95 0 0 1 33.78-3.328 21.89 21.89 0 0 1 6 11.241 21.86 21.86 0 0 1-1.25 12.684 21.93 21.93 0 0 1-20.28 13.551v.002Zm0-40.856a18.92 18.92 0 0 0-10.51 3.184 18.975 18.975 0 0 0-6.97 8.487 18.923 18.923 0 0 0-1.07 10.928 18.868 18.868 0 0 0 5.17 9.684 18.948 18.948 0 0 0 9.69 5.176 18.91 18.91 0 0 0 19.41-8.046 18.818 18.818 0 0 0 3.18-10.509 18.92 18.92 0 0 0-18.9-18.904Z"/>
      <path fill="#4E8E47" d="M1513.12 459.561a19.32 19.32 0 0 1-10.74-3.258 19.31 19.31 0 0 1-7.12-8.677 19.244 19.244 0 0 1-1.1-11.17 19.237 19.237 0 0 1 5.29-9.899 19.333 19.333 0 0 1 21.07-4.191 19.306 19.306 0 0 1 8.67 7.12 19.308 19.308 0 0 1-2.41 24.406 19.346 19.346 0 0 1-13.66 5.669Zm0-37.887a18.546 18.546 0 0 0-17.14 11.452 18.474 18.474 0 0 0-1.06 10.72 18.478 18.478 0 0 0 5.08 9.5 18.555 18.555 0 0 0 20.22 4.023 18.543 18.543 0 0 0 8.32-6.833 18.55 18.55 0 0 0 3.13-10.308 18.572 18.572 0 0 0-18.55-18.554Z"/>
      <path fill="#ED975D" d="M1569.25 384.359s-1.41-.461-2.52-.416c-1.11.045-2.68-.98-2.68-.98s-5.75-3.755-6.99-5.037c-2.67-2.751-5.21-16.91-7.54-15.835 0 0-3.1 1.747-2.74 6.167.37 4.42 4.42 11.393 7.51 13.123 2.26 1.268 8.49 3.2 9.4 3.473 1.02.395 2.32 1.372 2.69 1.498.42.138 1.52-.256 2.15 0 2.3.928 2.33.207 2.33.207a2.42 2.42 0 0 0-.47-1.345 2.49 2.49 0 0 0-1.14-.855Z"/>
      <path fill="#FFB27D" d="M1549.21 372.028c-.13.916-.38 1.813-.73 2.67-.27.682-.58 1.334-.9 2.013-.94 1.995-3.16 2.975-3.24 6.809-.03 1.321-1.13 4.294-.51 6.449 3.07 10.612-17.01.962-15.92-1.853 2.16-5.607 5.25-8.848 5.18-13.465v-.035c-.02-.224-.05-.824-.08-1.616-.08-1.939-.19-5.03-.23-6.593v-.108c-.02-.674-.04-1.156-.07-1.282 1.5-6.354 4.93-6.381 6.1-6.361.44 0 .9.035 1.27.067.74-.419 2.01-2.373 2.67-5.587l.27.114 4.5 1.914s-.41 1.455-.71 2.849c-.23 1.086-.38 2.136-.21 2.422.36.128.57.209.57.209.07.178 2.76 6.33 2.04 11.384Z"/>
      <path fill="#ED975D" d="M1548.48 374.698c-.27.682-.58 1.334-.9 2.013-.94 1.995-3.16 2.975-3.24 6.809l-.21.019c-8.23.643-11.04-8.928-11.04-8.928-.02-.224-.05-.824-.08-1.616l14.86.024c.24.547.44 1.108.61 1.679Zm-.96-19.539s-.42 1.455-.71 2.849c-2.61-.624-3.5-3.319-3.79-4.763l4.5 1.914Z"/>
      <path fill="#6BAA66" d="M1552.25 365.591c-.25-.66-1.45-3.19-1.45-3.19s-.98-.831-3.64-1.762c.05.151 1.32 4.154.94 5.032-.37.877-8.32-1.648-8.78-2.278-.36-.505-.47-3.249-.5-4.319-.01-.266-.01-.428-.01-.428s-2.94-.288-4.56.441c.45.933.78 1.918 1 2.933.03.147.05.295.07.441.04.31.06.622.06.934-.02.778-.72 1.411-1.67 2.156-.29.232-.61.475-.94.738v.108c.05 2.203.25 7.437.32 8.208v.036a49.27 49.27 0 0 1 7.99.263c1.07.127 2.13.319 3.18.574 1.15.267 2.27.681 3.32 1.232l.12.065s1.31-2.843 2.73-6.246c.05-.123.1-.246.14-.369.46-1.348.31-2.727.09-3.947.45-.37 1.01-.588 1.59-.622Z"/>
      <path fill="#FFB27D" d="M1548.12 356.662s-6.23-1.2-5.43-5.076c.8-3.876.54-6.641 4.56-6.037 4.02.603 4.49 2.242 4.53 3.601.04 1.36-2.01 7.729-3.66 7.512Z"/>
      <path fill="#89BC84" d="m1547.7 376.777-.12-.066a13.896 13.896 0 0 0-3.32-1.231 26.904 26.904 0 0 0-3.18-.576 49.458 49.458 0 0 0-7.99-.26v-.035c-.06-.772-.26-6.006-.31-8.209v-.108c.33-.263.65-.505.94-.738 4.04 1.966 11.65 6.193 13.98 11.223Z"/>
      <path fill="#212121" d="M1552.05 346.957c-.72-1.368-1.5-1.264-1.98-.999-3.01-2.581-5.78-.276-5.78-.276a7.57 7.57 0 0 1-3.34 3.874s.99.938 3.75.814c.84-.039 1.67-.457 2.42-1.011-.93.981-1.98 1.831-3.14 2.527 3.43-.79 5.59-4.869 5.81-5.301.31.419.9 1.317.98 2.09.1 1.051-.19 3.111.42 3.167 0-.017 1.93-2.835.86-4.885Z"/>
      <path fill="#FFB27D" d="M1527.71 388.528s-4.64 7.36 1.09 11.408c5.74 4.048 25.05 5.984 24.11 6.769-2.9 2.395-5.53 6.101-5.39 28.209l1.43.74s13.77-29.965 12.85-33.535c-.61-2.365-20.7-15.157-34.09-13.591Z"/>
      <path fill="#EE9849" d="M1538.84 403.843s-11.7-1.939-12.91-6.065c-.9-3.086-1.17-4.344 4.13-14.318 0 0 2.22 4.211 13.79 3.236 0 0-.06.545-.06 1.285.02 1.226.21 2.968 1.17 3.472.01.013.04.013.06.028 1.51.694 3.87 2.096 4.23 2.229.02-.005-7.1 1.356-10.41 10.133Z"/>
      <path fill="#E58638" d="M1544.96 391.448c-5.16-1.516-11.11-1.877-11.11-1.921 4.38-1.123 7.58-1.551 9.94-1.551.02 1.226.21 2.968 1.17 3.472Z"/>
      <path fill="#4E8E47" d="m1545.58 435.987 1.21.58c.43.13.78.157 1.22.302.68.219.85.616.87.704v.017l5.12 2.461c.22-.122.3-.608.33-.981a.923.923 0 0 0-.05-.369.799.799 0 0 0-.22-.305c-.47-.417-1.47-1.073-2.02-2.43-.32-.755-1.79-3.113-1.79-3.113h-.01c-.04-.022-.3-.061-1.65.289-.69.181-1.06-1.236-1.06-1.236-.16.05-.32.133-.45.242-.24.187-.41.444-.49.735-.15.505-.81 1.238-1.28 1.723-.29.293-.51.495-.51.495s-.2.258.78.886Z"/>
      <path fill="#AA3E39" d="M1547.08 432.145c.19.337.6 1.033.98 1.279.5.337 2.19-.566 2.19-.566h-.01c-.05-.022-.3-.061-1.65.289-.7.181-1.06-1.236-1.06-1.236a1.24 1.24 0 0 0-.45.234Zm-1.5 3.842 1.21.58c.43.13.78.157 1.22.302.68.219.85.616.87.704v.017l5.12 2.461c.22-.122.3-.608.33-.981-.09-.212-.49.506-.63.581-.14.076-4.2-1.964-4.35-2.25-.16-.287-.72-.927-1.82-1.166-.96-.207-1.98-1.348-2.22-1.634-.29.293-.51.495-.51.495s-.2.263.78.891Z"/>
      <path fill="#FFB27D" d="M1560.86 386.345s-1.41-.463-2.52-.416c-1.11.047-2.67-.98-2.67-.98s-10.76-5.142-11.94-7.032c-1.55-2.461-4.15-10.772-6.48-15.509-1.11-2.258-2.16-3.706-3-3.316 0 0-2.1.664-1.98 4.941 0 .238.02.489.04.752.41 4.95 5.59 16.663 9.02 18.656 3.42 1.993 13.89 3.423 13.89 3.423 1.1-.035 2.36 1.329 2.78 1.467.42.138 1.64-.156 2.14 0 2.33.718 2.34.207 2.34.207a2.504 2.504 0 0 0-.48-1.342c-.29-.39-.68-.686-1.14-.851Z"/>
      <path fill="#6BAA66" d="M1537.25 362.408c-2.87-.674-4.98 1.625-4.98 1.625-.13-4.277 1.98-4.941 1.98-4.941.84-.387 1.9 1.058 3 3.316Z"/>
    </g>
    <g clip-path="url(#c)" opacity=".5">
      <path fill="#D8702A" d="m643.212 338.421-29.635-3.865 3.193-24.482 29.634 3.865-3.192 24.482Z"/>
      <path fill="#FF9E55" d="m628.394 336.488-29.635-3.865 3.193-24.482 29.635 3.865-3.193 24.482Z"/>
      <path fill="#C15E1B" d="m644.003 332.209-4.696-.612.586-1.269-.289-1.002 4.695.613-.296 2.27Z"/>
      <path fill="#FFB27D" d="m630.599 319.582-4.697-.612.588-1.269-.292-1 4.697.613-.296 2.268Z"/>
      <path fill="#C15E1B" d="m630.895 317.314 4.695.612-.586 1.269.29 1-4.695-.613.296-2.268Z"/>
      <path fill="#FFB27D" d="m599.535 326.678 4.695.613-.586 1.268.29 1-4.695-.612.296-2.269Z"/>
      <path fill="#fff" d="m603.675 310.054 8.528 1.113-.433 3.323-8.528-1.112.433-3.324Z"/>
      <path fill="#FFB27D" d="M612.876 333.405c-.659-.562-2.154-1.803-2.261-1.567-.073.164-.017.476.146.804-.933-.449-1.89-.777-4.255-.543a1.748 1.748 0 0 0-1.209.649c-.27.348-.4.8.157 1.223 1.117.839.817.372 2.36 1.594s3.534 1.674 4.804 1.038l1.639-.123.443-2.641s-.904-.193-1.824-.434Zm45.101-21.907s-5.036 3.132-9.075-.184c0 0-.21-2.737.354-4.518.07-.219.136-.433.199-.634.627-2.011.93-3.155.93-3.155.238-.019 8.019-.603 7.936-.371-1.884 5.376-.344 8.862-.344 8.862Z"/>
      <path fill="#ED975D" d="M657.212 303.703c-1.061 1.013-4.114 2.676-7.76 2.455.628-2.01.931-3.155.931-3.155.208.022 7.144.407 6.829.7Z"/>
      <path fill="#FFB27D" d="M649.01 302.33s7.126 4.334 9.745-.147c2.619-4.481 5.318-6.95.882-9.907-4.437-2.957-6.332-1.769-7.574-.485-1.242 1.283-4.837 9.296-3.053 10.539Z"/>
      <path fill="#4E8E47" d="M658.076 303.409c.083.101 1.579 1.154 6.762-4.097.814-.823 1.844-2.845 1.306-5.102-.538-2.258-4.131-5.07-7.316-6.822a6.817 6.817 0 0 0-4.194-.745 2.644 2.644 0 0 0-1.765 1.035 2.665 2.665 0 0 0-.503 1.986c.344 2.298 1.744 3.876 3.734 4.073 1.339.135.898 2.849.79 3.497-.109.648-.137 1.206 1.579 1.154 1.469-.042.41 1.754-.185 2.546a2.557 2.557 0 0 0-.521 1.342c-.046.404.066.81.313 1.133Zm-4.93 128.008 4.869.635c1.021.134 2.29-.741 2.819-2.579.529-1.837 2.76-2.587 3.416-4.061.656-1.475-1.39-3.941-1.39-3.941l-.324-.552-.331-.589-3.979.407s-.215.908-.428 2.072c-.152.847-.301 1.819-.365 2.683-.153 2.06-1.128 4.186-2.989 4.341-1.861.154-1.298 1.584-1.298 1.584Zm-33.924-4.424 12.916 1.685c.096-.003.192-.018.284-.045.919-.32 1.082-3.662 1.111-4.698l.005-.304s-4.067-4.232-5.055-1.526a4.391 4.391 0 0 1-.102.246c-1.127 2.505-4.806 3.229-6.884 3.294-1.59.052-2.112.907-2.275 1.348Z"/>
      <path fill="#FF9E55" d="M631.556 352.718s-.434 8.712-.975 19.181c-.734 14.222-1.664 31.687-1.967 34.981-.516 5.717-.792 14.936-.792 14.936s1.873 2.444 6.301 2.094c0 0 5.539-12.488 8.43-26.089l.14-.675c2.846-13.858 8.279-43.113 8.279-43.113l-19.416-1.315Z"/>
      <path fill="#ED823A" d="M634.203 352.472s-1.147 5.321.024 15.738c.856 7.644 8.346 29.607 8.346 29.607l.14-.675c2.846-13.859 8.279-43.113 8.279-43.113l-16.789-1.557Z"/>
      <path fill="#FF9E55" d="M634.203 352.472s8.732 34.52 14.992 50.259c6.261 15.739 8.282 20.168 8.282 20.168s4.928-1.264 5.515-2.491c0 0 .57-28.736-4.004-36.354-2.586-4.307-4.691-16.49-4.329-20.608.363-4.118.486-12.344.486-12.344l-20.942 1.37Z"/>
      <path fill="#4E8E47" d="M633.628 351.774c1.807.349 21.112 2.126 21.257 1.052.505-3.736 2.075-9.686 4.007-16.909.356-1.347.674-2.686.953-4.017a62.616 62.616 0 0 0 1.313-9.908c.254-5.718-1.548-10.59-3.716-13.034-.286-.312-1.588.436-3.68.983-1.931.505-3.314-.218-4.901-.894l-2.352 1.582c-1.967 1.41-4.171 3.663-5.381 5.792-.001-.009-7.66 35.314-7.5 35.353Z"/>
      <path fill="#FF9E55" d="m641.127 316.412 5.089 1.908 4.664 20.542a7.214 7.214 0 0 0 2.176 3.739 7.195 7.195 0 0 0 3.921 1.818l-1.895 9.59-23.534-1.291 9.579-36.306Z"/>
      <path fill="#4E8E47" d="M613.121 334.947c.03-1.556.854-1.736.854-1.736s15.913-1.414 17.283-1.713c1.369-.298 13.829-11.12 13.829-11.12s4.812-4.529 8.285-3.123c3.018 1.229 4.007 3.764 4.21 6.113a6.85 6.85 0 0 1-3.793 6.699c-5.641 2.795-16.925 8.287-19.512 8.797-5.756 1.135-20.679-1.752-20.679-1.752a4.883 4.883 0 0 1-.477-2.165Z"/>
      <path fill="#ED823A" d="M652.393 313.354c1.37-.978 5.695-3.591 5.695-3.591l-.645-.814c-.507-.179-4.954 2.344-6.458 3.372-1.814 1.237-6.907 5.197-6.907 5.197l2.145.8s4.558-3.814 6.17-4.964Z"/>
    </g>
  </g>
  <path fill="#fff" fill-rule="evenodd" d="M-31.698 682.106h-187.078s-500.062-309.498-83.511-369.698c24.36-3.52 78.607 16.145 151.501 42.569 165.742 60.081 427.883 155.107 654.285 91.996 144.686-40.333 207.554-6.077 277.601 32.09 28.716 15.647 58.639 31.951 95.899 44.043 68.154 22.117 133.911-11.665 203.991-47.669 83.67-42.984 173.5-89.134 280.93-47.114 105.23 61.38 226.03 53.353 356.54 18.65C1848.98 412.269 2025 312.409 2025 312.409l-44.93 253.538C2025 550.865 2050.65 525.458 2050 485c0 0 487.08 720.91 30 901-333.75 131.49-504.67 20.53-628.22-59.68-98.19-63.75-166.47-108.08-262.78 4.18-173.22 201.89-262.394 184.32-395.074 158.2-33.921-6.68-70.686-13.92-112.426-18.2-205-21-718.5 84.5-718.5 84.5l5.302-872.894Z" clip-rule="evenodd"/>
  <defs>
    <clipPath id="a">
      <path fill="#fff" d="M0 0h91v119H0z" transform="translate(1236 293)"/>
    </clipPath>
    <clipPath id="b">
      <path fill="#fff" d="M0 0h115.48v123.699H0z" transform="translate(1491 338.349)"/>
    </clipPath>
    <clipPath id="c">
      <path fill="#fff" d="M0 0h77v144H0z" transform="scale(-1 1) rotate(-7.43 1891.72 5396.269)"/>
    </clipPath>
  </defs>
</svg>
