<svg width="189" height="190" viewBox="0 0 189 190" fill="none" xmlns="http://www.w3.org/2000/svg">
<g filter="url(#filter0_d_506_104974)">
<rect x="20.4258" y="17" width="136.587" height="136.587" rx="14.4865" fill="white"/>
<path d="M56.448 80.2197V77.3919H58.4221C59.8306 77.3919 60.6523 76.4102 60.6523 75.2471C60.6523 74.084 59.852 73.1023 58.4221 73.1023H55.5623V80.2197H56.448ZM58.3154 76.6023H56.448V73.8919H58.3154C59.1584 73.8919 59.7346 74.4468 59.7346 75.2471C59.7346 76.0474 59.1584 76.6023 58.3154 76.6023ZM63.4365 74.2867L64.4502 72.7501H63.906L63.0523 73.8812L62.1666 72.7501H61.6224L62.6682 74.2867H63.4365ZM62.5935 80.2197V76.5703C62.8282 76.1541 63.5005 75.7486 63.9913 75.7486C64.1194 75.7486 64.2154 75.7593 64.3115 75.7806V74.959C63.6072 74.959 63.0096 75.3538 62.5935 75.898V75.0657H61.7931V80.2197H62.5935ZM67.6416 80.3478C68.4846 80.3478 69.1782 80.0703 69.6904 79.5581L69.3063 79.0353C68.9008 79.4514 68.3032 79.6862 67.7163 79.6862C66.6065 79.6862 65.9236 78.8752 65.8596 77.9042H70.0319V77.7014C70.0319 76.1541 69.1142 74.9377 67.5562 74.9377C66.0837 74.9377 65.0166 76.1435 65.0166 77.6374C65.0166 79.2487 66.1157 80.3478 67.6416 80.3478ZM69.2422 77.3173H65.8596C65.9023 76.5276 66.4465 75.5992 67.5456 75.5992C68.7194 75.5992 69.2316 76.549 69.2422 77.3173ZM72.63 80.3478C73.0995 80.3478 73.3876 80.2091 73.5904 80.017L73.3556 79.4194C73.2489 79.5368 73.0355 79.6328 72.8114 79.6328C72.4592 79.6328 72.2885 79.3554 72.2885 78.9712V75.77H73.3343V75.0657H72.2885V73.6571H71.4882V75.0657H70.6345V75.77H71.4882V79.142C71.4882 79.9103 71.8724 80.3478 72.63 80.3478ZM78.4877 80.2197V76.677C78.4877 75.4285 77.5807 74.9377 76.4923 74.9377C75.6493 74.9377 74.9877 75.2151 74.4328 75.7913L74.8063 76.3462C75.2651 75.8553 75.7666 75.6313 76.3855 75.6313C77.1325 75.6313 77.6874 76.0261 77.6874 76.7197V77.648C77.2712 77.1679 76.6843 76.9438 75.9801 76.9438C75.105 76.9438 74.1767 77.488 74.1767 78.6404C74.1767 79.7609 75.105 80.3478 75.9801 80.3478C76.6737 80.3478 77.2606 80.1023 77.6874 79.6328V80.2197H78.4877ZM76.2682 79.7716C75.5212 79.7716 74.9983 79.302 74.9983 78.6511C74.9983 77.9895 75.5212 77.52 76.2682 77.52C76.8337 77.52 77.3779 77.7334 77.6874 78.1603V79.1313C77.3779 79.5581 76.8337 79.7716 76.2682 79.7716ZM78.2956 72.7501H77.4633L75.884 74.2867H76.4923L78.2956 72.7501ZM84.3817 80.2197V76.581C84.3817 75.4605 83.8161 74.9377 82.7384 74.9377C81.9594 74.9377 81.2551 75.3858 80.8923 75.8127V73.1023H80.092V80.2197H80.8923V76.4529C81.2018 76.0367 81.7993 75.6526 82.4182 75.6526C83.1119 75.6526 83.5814 75.9194 83.5814 76.8264V80.2197H84.3817ZM90.2587 80.2197V76.6023C90.2587 75.4819 89.6932 74.9377 88.6154 74.9377C87.8471 74.9377 87.1429 75.3858 86.78 75.8127V75.0657H85.9797V80.2197H86.78V76.4529C87.0788 76.0367 87.6764 75.6526 88.306 75.6526C88.9996 75.6526 89.4584 75.9407 89.4584 76.8477V80.2197H90.2587ZM94.5034 74.2867L95.5171 72.7501H94.9729L94.1193 73.8812L93.2336 72.7501H92.6894L93.7351 74.2867H94.5034ZM94.1833 80.3478C95.0263 80.3478 95.7199 80.0703 96.2321 79.5581L95.8479 79.0353C95.4424 79.4514 94.8449 79.6862 94.258 79.6862C93.1482 79.6862 92.4653 78.8752 92.4013 77.9042H96.5736V77.7014C96.5736 76.1541 95.6559 74.9377 94.0979 74.9377C92.6253 74.9377 91.5583 76.1435 91.5583 77.6374C91.5583 79.2487 92.6574 80.3478 94.1833 80.3478ZM95.7839 77.3173H92.4013C92.4439 76.5276 92.9882 75.5992 94.0872 75.5992C95.261 75.5992 95.7732 76.549 95.7839 77.3173ZM99.1717 80.3478C99.6412 80.3478 99.9293 80.2091 100.132 80.017L99.8973 79.4194C99.7906 79.5368 99.5772 79.6328 99.3531 79.6328C99.0009 79.6328 98.8302 79.3554 98.8302 78.9712V75.77H99.8759V75.0657H98.8302V73.6571H98.0299V75.0657H97.1762V75.77H98.0299V79.142C98.0299 79.9103 98.414 80.3478 99.1717 80.3478ZM103.333 80.3478C104.176 80.3478 104.869 80.0703 105.382 79.5581L104.997 79.0353C104.592 79.4514 103.994 79.6862 103.407 79.6862C102.298 79.6862 101.615 78.8752 101.551 77.9042H105.723V77.7014C105.723 76.1541 104.805 74.9377 103.247 74.9377C101.775 74.9377 100.708 76.1435 100.708 77.6374C100.708 79.2487 101.807 80.3478 103.333 80.3478ZM104.933 77.3173H101.551C101.593 76.5276 102.138 75.5992 103.237 75.5992C104.41 75.5992 104.923 76.549 104.933 77.3173ZM113.025 80.2197L115.895 73.1023H114.882L112.481 79.2487L110.08 73.1023H109.066L111.926 80.2197H113.025ZM120.139 80.2197V76.677C120.139 75.4285 119.232 74.9377 118.144 74.9377C117.301 74.9377 116.639 75.2151 116.085 75.7913L116.458 76.3462C116.917 75.8553 117.418 75.6313 118.037 75.6313C118.784 75.6313 119.339 76.0261 119.339 76.7197V77.648C118.923 77.1679 118.336 76.9438 117.632 76.9438C116.757 76.9438 115.828 77.488 115.828 78.6404C115.828 79.7609 116.757 80.3478 117.632 80.3478C118.325 80.3478 118.912 80.1023 119.339 79.6328V80.2197H120.139ZM117.92 79.7716C117.173 79.7716 116.65 79.302 116.65 78.6511C116.65 77.9895 117.173 77.52 117.92 77.52C118.485 77.52 119.03 77.7334 119.339 78.1603V79.1313C119.03 79.5581 118.485 79.7716 117.92 79.7716ZM119.947 72.7501H119.115L117.536 74.2867H118.144L119.947 72.7501ZM123.782 74.2867L124.796 72.7501H124.251L123.398 73.8812L122.512 72.7501H121.968L123.014 74.2867H123.782ZM123.376 80.3478C124.71 80.3478 125.404 79.6542 125.404 78.7898C125.404 76.7837 122.213 77.5307 122.213 76.3996C122.213 75.9407 122.651 75.5886 123.355 75.5886C124.017 75.5886 124.582 75.866 124.892 76.2395L125.265 75.6846C124.849 75.2684 124.23 74.9377 123.355 74.9377C122.128 74.9377 121.434 75.6206 121.434 76.4209C121.434 78.331 124.625 77.5627 124.625 78.8112C124.625 79.3234 124.198 79.6969 123.408 79.6969C122.704 79.6969 122.053 79.3554 121.712 78.9606L121.296 79.5368C121.818 80.0917 122.533 80.3478 123.376 80.3478ZM41.9475 99.3478C43.5161 99.3478 44.4978 98.1313 44.4978 96.6374C44.4978 95.1435 43.5161 93.9377 41.9475 93.9377C40.3789 93.9377 39.3971 95.1435 39.3971 96.6374C39.3971 98.1313 40.3789 99.3478 41.9475 99.3478ZM41.9475 98.6328C40.8484 98.6328 40.2295 97.6938 40.2295 96.6374C40.2295 95.5916 40.8484 94.6526 41.9475 94.6526C43.0466 94.6526 43.6548 95.5916 43.6548 96.6374C43.6548 97.6938 43.0466 98.6328 41.9475 98.6328ZM46.6028 97.8218V95.4849C46.8802 95.0367 47.5098 94.6526 48.1394 94.6526C49.1851 94.6526 49.8041 95.5063 49.8041 96.648C49.8041 97.7898 49.1851 98.6328 48.1394 98.6328C47.5098 98.6328 46.8802 98.27 46.6028 97.8218ZM46.6028 99.2197V98.4514C46.987 98.9743 47.6165 99.3478 48.3422 99.3478C49.6867 99.3478 50.6364 98.3234 50.6364 96.648C50.6364 95.0047 49.6867 93.9377 48.3422 93.9377C47.6379 93.9377 47.019 94.2791 46.6028 94.8447V92.1023H45.8025V99.2197H46.6028ZM52.7406 99.2197V95.5703C52.9754 95.1541 53.6477 94.7486 54.1385 94.7486C54.2666 94.7486 54.3626 94.7593 54.4586 94.7806V93.959C53.7544 93.959 53.1568 94.3538 52.7406 94.898V94.0657H51.9403V99.2197H52.7406ZM59.4854 99.2197V95.677C59.4854 94.4285 58.5784 93.9377 57.49 93.9377C56.647 93.9377 55.9854 94.2151 55.4305 94.7913L55.804 95.3462C56.2628 94.8553 56.7644 94.6313 57.3833 94.6313C58.1302 94.6313 58.6851 95.0261 58.6851 95.7197V96.648C58.269 96.1679 57.6821 95.9438 56.9778 95.9438C56.1028 95.9438 55.1744 96.488 55.1744 97.6404C55.1744 98.7609 56.1028 99.3478 56.9778 99.3478C57.6714 99.3478 58.2583 99.1023 58.6851 98.6328V99.2197H59.4854ZM57.2659 98.7716C56.5189 98.7716 55.9961 98.302 55.9961 97.6511C55.9961 96.9895 56.5189 96.52 57.2659 96.52C57.8315 96.52 58.3757 96.7334 58.6851 97.1603V98.1313C58.3757 98.5581 57.8315 98.7716 57.2659 98.7716ZM59.2934 91.7501H58.461L56.8818 93.2867H57.49L59.2934 91.7501ZM64.7712 99.2197V98.5261H61.8687L64.7285 94.6739V94.0657H60.8443V94.77H63.6828L60.8443 98.6008V99.2197H64.7712ZM68.4492 99.3478C69.2922 99.3478 69.9858 99.0703 70.498 98.5581L70.1139 98.0353C69.7084 98.4514 69.1108 98.6862 68.5239 98.6862C67.4141 98.6862 66.7312 97.8752 66.6672 96.9042H70.8395V96.7014C70.8395 95.1541 69.9218 93.9377 68.3638 93.9377C66.8913 93.9377 65.8242 95.1435 65.8242 96.6374C65.8242 98.2487 66.9233 99.3478 68.4492 99.3478ZM70.0498 96.3173H66.6672C66.7099 95.5276 67.2541 94.5992 68.3532 94.5992C69.527 94.5992 70.0392 95.549 70.0498 96.3173ZM76.6709 99.2197L74.3766 96.4026L76.6602 94.0657H75.6465L72.9361 96.8081V92.1023H72.1357V99.2197H72.9361V97.7471L73.7897 96.9042L75.6465 99.2197H76.6709ZM84.6472 99.2197V95.6023C84.6472 94.4819 84.0816 93.9377 83.0038 93.9377C82.2355 93.9377 81.5313 94.3858 81.1685 94.8127V94.0657H80.3681V99.2197H81.1685V95.4529C81.4672 95.0367 82.0648 94.6526 82.6944 94.6526C83.388 94.6526 83.8468 94.9407 83.8468 95.8477V99.2197H84.6472ZM88.5717 99.3478C89.4147 99.3478 90.1083 99.0703 90.6205 98.5581L90.2364 98.0353C89.8309 98.4514 89.2333 98.6862 88.6464 98.6862C87.5366 98.6862 86.8537 97.8752 86.7897 96.9042H90.962V96.7014C90.962 95.1541 90.0443 93.9377 88.4863 93.9377C87.0138 93.9377 85.9467 95.1435 85.9467 96.6374C85.9467 98.2487 87.0458 99.3478 88.5717 99.3478ZM90.1723 96.3173H86.7897C86.8324 95.5276 87.3766 94.5992 88.4757 94.5992C89.6495 94.5992 90.1617 95.549 90.1723 96.3173ZM93.0586 97.8218V95.4849C93.336 95.0367 93.9656 94.6526 94.5952 94.6526C95.6409 94.6526 96.2598 95.5063 96.2598 96.648C96.2598 97.7898 95.6409 98.6328 94.5952 98.6328C93.9656 98.6328 93.336 98.27 93.0586 97.8218ZM93.0586 99.2197V98.4514C93.4427 98.9743 94.0723 99.3478 94.7979 99.3478C96.1424 99.3478 97.0921 98.3234 97.0921 96.648C97.0921 95.0047 96.1424 93.9377 94.7979 93.9377C94.0936 93.9377 93.4747 94.2791 93.0586 94.8447V92.1023H92.2582V99.2197H93.0586ZM100.648 99.3478C102.216 99.3478 103.198 98.1313 103.198 96.6374C103.198 95.1435 102.216 93.9377 100.648 93.9377C99.079 93.9377 98.0973 95.1435 98.0973 96.6374C98.0973 98.1313 99.079 99.3478 100.648 99.3478ZM100.648 98.6328C99.5485 98.6328 98.9296 97.6938 98.9296 96.6374C98.9296 95.5916 99.5485 94.6526 100.648 94.6526C101.747 94.6526 102.355 95.5916 102.355 96.6374C102.355 97.6938 101.747 98.6328 100.648 98.6328Z" fill="#515151"/>
<path d="M109.505 99.2197L111.65 94.0657H110.775L109.068 98.2914L107.35 94.0657H106.485L108.63 99.2197H109.505ZM112.197 101.237C112.346 101.279 112.613 101.311 112.784 101.311C113.467 101.301 113.99 101.012 114.299 100.265L116.881 94.0657H116.006L114.299 98.2914L112.581 94.0657H111.717L113.872 99.2731L113.531 100.052C113.349 100.479 113.115 100.596 112.762 100.596C112.634 100.596 112.442 100.564 112.325 100.511L112.197 101.237ZM118.516 97.8218V95.4849C118.794 95.0367 119.423 94.6526 120.053 94.6526C121.099 94.6526 121.718 95.5063 121.718 96.648C121.718 97.7898 121.099 98.6328 120.053 98.6328C119.423 98.6328 118.794 98.27 118.516 97.8218ZM118.516 99.2197V98.4514C118.901 98.9743 119.53 99.3478 120.256 99.3478C121.6 99.3478 122.55 98.3234 122.55 96.648C122.55 95.0047 121.6 93.9377 120.256 93.9377C119.552 93.9377 118.933 94.2791 118.516 94.8447V92.1023H117.716V99.2197H118.516ZM126.18 99.3478C127.023 99.3478 127.717 99.0703 128.229 98.5581L127.845 98.0353C127.439 98.4514 126.842 98.6862 126.255 98.6862C125.145 98.6862 124.462 97.8752 124.398 96.9042H128.57V96.7014C128.57 95.1541 127.653 93.9377 126.095 93.9377C124.622 93.9377 123.555 95.1435 123.555 96.6374C123.555 98.2487 124.654 99.3478 126.18 99.3478ZM127.781 96.3173H124.398C124.441 95.5276 124.985 94.5992 126.084 94.5992C127.258 94.5992 127.77 95.549 127.781 96.3173ZM130.667 99.2197V95.5703C130.902 95.1541 131.574 94.7486 132.065 94.7486C132.193 94.7486 132.289 94.7593 132.385 94.7806V93.959C131.681 93.959 131.083 94.3538 130.667 94.898V94.0657H129.867V99.2197H130.667ZM134.691 99.3478C135.16 99.3478 135.448 99.2091 135.651 99.017L135.416 98.4194C135.31 98.5368 135.096 98.6328 134.872 98.6328C134.52 98.6328 134.349 98.3554 134.349 97.9712V94.77H135.395V94.0657H134.349V92.6571H133.549V94.0657H132.695V94.77H133.549V98.142C133.549 98.9103 133.933 99.3478 134.691 99.3478ZM138.852 99.3478C139.695 99.3478 140.388 99.0703 140.901 98.5581L140.517 98.0353C140.111 98.4514 139.513 98.6862 138.927 98.6862C137.817 98.6862 137.134 97.8752 137.07 96.9042H141.242V96.7014C141.242 95.1541 140.324 93.9377 138.767 93.9377C137.294 93.9377 136.227 95.1435 136.227 96.6374C136.227 98.2487 137.326 99.3478 138.852 99.3478ZM140.453 96.3173H137.07C137.113 95.5276 137.657 94.5992 138.756 94.5992C139.93 94.5992 140.442 95.549 140.453 96.3173ZM66.5271 117.22V116.526H63.6246L66.4844 112.674V112.066H62.6002V112.77H65.4387L62.6002 116.601V117.22H66.5271ZM73.1696 117.348C74.5248 117.348 75.4638 116.302 75.4638 114.637C75.4638 112.962 74.5248 111.938 73.1696 111.938C72.444 111.938 71.8037 112.311 71.4303 112.834V112.066H70.63V119.183H71.4303V116.441C71.8464 117.017 72.4653 117.348 73.1696 117.348ZM72.9669 116.633C72.3373 116.633 71.7077 116.249 71.4303 115.801V113.474C71.7077 113.026 72.3373 112.653 72.9669 112.653C74.0019 112.653 74.6209 113.496 74.6209 114.637C74.6209 115.779 74.0019 116.633 72.9669 116.633ZM77.5368 117.22V113.57C77.7716 113.154 78.4439 112.749 78.9347 112.749C79.0628 112.749 79.1588 112.759 79.2548 112.781V111.959C78.5506 111.959 77.953 112.354 77.5368 112.898V112.066H76.7365V117.22H77.5368ZM82.5103 117.348C84.0789 117.348 85.0606 116.131 85.0606 114.637C85.0606 113.143 84.0789 111.938 82.5103 111.938C80.9417 111.938 79.9599 113.143 79.9599 114.637C79.9599 116.131 80.9417 117.348 82.5103 117.348ZM82.5103 116.633C81.4112 116.633 80.7923 115.694 80.7923 114.637C80.7923 113.592 81.4112 112.653 82.5103 112.653C83.6094 112.653 84.2176 113.592 84.2176 114.637C84.2176 115.694 83.6094 116.633 82.5103 116.633ZM90.655 117.22V113.581C90.655 112.461 90.0894 111.938 89.0117 111.938C88.2327 111.938 87.5284 112.386 87.1656 112.813V110.102H86.3653V117.22H87.1656V113.453C87.4751 113.037 88.0726 112.653 88.6915 112.653C89.3851 112.653 89.8547 112.919 89.8547 113.826V117.22H90.655ZM93.0533 117.22V110.102H92.253V117.22H93.0533ZM96.8587 109.75H96.0263L94.4471 111.287H95.0553L96.8587 109.75ZM95.4501 117.22V112.066H94.6498V117.22H95.4501ZM99.1061 111.287L100.12 109.75H99.5756L98.7219 110.881L97.8362 109.75H97.292L98.3377 111.287H99.1061ZM100.728 117.22V116.526H97.8255L100.685 112.674V112.066H96.8011V112.77H99.6396L96.8011 116.601V117.22H100.728ZM104.406 117.348C105.249 117.348 105.943 117.07 106.455 116.558L106.071 116.035C105.665 116.451 105.068 116.686 104.481 116.686C103.371 116.686 102.688 115.875 102.624 114.904H106.796V114.701C106.796 113.154 105.879 111.938 104.321 111.938C102.848 111.938 101.781 113.143 101.781 114.637C101.781 116.249 102.88 117.348 104.406 117.348ZM106.007 114.317H102.624C102.667 113.528 103.211 112.599 104.31 112.599C105.484 112.599 105.996 113.549 106.007 114.317ZM110.771 111.287L111.785 109.75H111.24L110.387 110.881L109.501 109.75H108.957L110.003 111.287H110.771ZM110.365 117.348C111.305 117.348 111.859 116.964 112.254 116.451L111.721 115.961C111.379 116.419 110.942 116.633 110.408 116.633C109.309 116.633 108.626 115.779 108.626 114.637C108.626 113.496 109.309 112.653 110.408 112.653C110.942 112.653 111.379 112.855 111.721 113.325L112.254 112.834C111.859 112.322 111.305 111.938 110.365 111.938C108.829 111.938 107.794 113.111 107.794 114.637C107.794 116.174 108.829 117.348 110.365 117.348ZM115.702 117.348C116.545 117.348 117.239 117.07 117.751 116.558L117.367 116.035C116.961 116.451 116.364 116.686 115.777 116.686C114.667 116.686 113.984 115.875 113.92 114.904H118.092V114.701C118.092 113.154 117.175 111.938 115.617 111.938C114.144 111.938 113.077 113.143 113.077 114.637C113.077 116.249 114.176 117.348 115.702 117.348ZM117.303 114.317H113.92C113.963 113.528 114.507 112.599 115.606 112.599C116.78 112.599 117.292 113.549 117.303 114.317Z" fill="#6DC400"/>
<g clip-path="url(#clip0_506_104974)">
<path d="M93.0894 64.0006C92.9634 64.0006 92.8344 63.9848 92.7069 63.9511L81.1096 60.8453C80.3146 60.6263 79.8406 59.8028 80.0491 59.0078L81.5124 53.5538C81.5664 53.3536 81.7719 53.2373 81.9714 53.2883C82.1716 53.3416 82.2901 53.5478 82.2369 53.7473L80.7744 59.1998C80.6701 59.5973 80.9086 60.0113 81.3069 60.1216L92.8996 63.2258C93.2979 63.3308 93.7089 63.0938 93.8124 62.6978L94.3981 60.5273C94.4521 60.3271 94.6576 60.2078 94.8579 60.2626C95.0581 60.3166 95.1759 60.5228 95.1226 60.7223L94.5376 62.8898C94.3614 63.5573 93.7539 64.0006 93.0894 64.0006Z" fill="#6DC400"/>
<path d="M96.5 59.5H84.5C83.6727 59.5 83 58.8273 83 58V49C83 48.1727 83.6727 47.5 84.5 47.5H96.5C97.3273 47.5 98 48.1727 98 49V58C98 58.8273 97.3273 59.5 96.5 59.5ZM84.5 48.25C84.0868 48.25 83.75 48.5868 83.75 49V58C83.75 58.4133 84.0868 58.75 84.5 58.75H96.5C96.9133 58.75 97.25 58.4133 97.25 58V49C97.25 48.5868 96.9133 48.25 96.5 48.25H84.5Z" fill="#6DC400"/>
<path d="M86.75 52.75C85.9227 52.75 85.25 52.0773 85.25 51.25C85.25 50.4227 85.9227 49.75 86.75 49.75C87.5773 49.75 88.25 50.4227 88.25 51.25C88.25 52.0773 87.5773 52.75 86.75 52.75ZM86.75 50.5C86.3368 50.5 86 50.8368 86 51.25C86 51.6633 86.3368 52 86.75 52C87.1633 52 87.5 51.6633 87.5 51.25C87.5 50.8368 87.1633 50.5 86.75 50.5Z" fill="#6DC400"/>
<path d="M83.426 58.6981C83.33 58.6981 83.234 58.6613 83.1605 58.5886C83.0142 58.4423 83.0142 58.2046 83.1605 58.0583L86.7027 54.5161C87.1272 54.0916 87.869 54.0916 88.2935 54.5161L89.348 55.5706L92.267 52.0681C92.4792 51.8138 92.7912 51.6661 93.1235 51.6631H93.1317C93.4602 51.6631 93.7715 51.8056 93.986 52.0553L97.9085 56.6318C98.0435 56.7886 98.0255 57.0256 97.868 57.1606C97.7112 57.2956 97.475 57.2783 97.3392 57.1201L93.4167 52.5436C93.344 52.4596 93.2435 52.4131 93.1317 52.4131C93.0537 52.4063 92.9165 52.4603 92.8437 52.5481L89.6615 56.3663C89.594 56.4473 89.4957 56.4961 89.39 56.5006C89.2835 56.5081 89.1822 56.4661 89.108 56.3911L87.7632 55.0463C87.6215 54.9053 87.3747 54.9053 87.233 55.0463L83.6907 58.5886C83.618 58.6613 83.522 58.6981 83.426 58.6981Z" fill="#6DC400"/>
</g>
<rect x="20.9593" y="17.5335" width="135.52" height="135.52" rx="13.953" stroke="#6DC400" stroke-width="1.06709" stroke-dasharray="6.4 6.4"/>
</g>
<defs>
<filter id="filter0_d_506_104974" x="0.345641" y="0.778943" width="188.325" height="188.324" filterUnits="userSpaceOnUse" color-interpolation-filters="sRGB">
<feFlood flood-opacity="0" result="BackgroundImageFix"/>
<feColorMatrix in="SourceAlpha" type="matrix" values="0 0 0 0 0 0 0 0 0 0 0 0 0 0 0 0 0 0 127 0" result="hardAlpha"/>
<feOffset dx="5.78862" dy="9.64771"/>
<feGaussianBlur stdDeviation="12.9344"/>
<feColorMatrix type="matrix" values="0 0 0 0 0.310333 0 0 0 0 0.554167 0 0 0 0 0 0 0 0 0.05 0"/>
<feBlend mode="normal" in2="BackgroundImageFix" result="effect1_dropShadow_506_104974"/>
<feBlend mode="normal" in="SourceGraphic" in2="effect1_dropShadow_506_104974" result="shape"/>
</filter>
<clipPath id="clip0_506_104974">
<rect width="18" height="18" fill="white" transform="translate(80 46)"/>
</clipPath>
</defs>
</svg>
