<?xml version="1.0" encoding="utf-8"?>
<!-- Generator: Adobe Illustrator 26.5.0, SVG Export Plug-In . SVG Version: 6.00 Build 0)  -->
<svg version="1.1" id="Vrstva_1" xmlns="http://www.w3.org/2000/svg" xmlns:xlink="http://www.w3.org/1999/xlink" x="0px" y="0px"
	 viewBox="0 0 972.2 1078" style="enable-background:new 0 0 972.2 1078;" xml:space="preserve">
<style type="text/css">
	.st0{fill:#6DC400;}
	.st1{fill:#FFFFFF;}
	.st2{fill:none;stroke:#FFFFFF;stroke-width:4.543;stroke-linecap:round;stroke-linejoin:round;stroke-dasharray:0.91,18.17;}
	.st3{fill:#ECFCE8;}
	.st4{fill:#A8D29F;}
	.st5{fill:#4A75CB;}
	.st6{fill:#8FCE89;}
	.st7{fill:#D86713;}
	.st8{fill:#F1A34F;}
	.st9{fill:#C95C12;}
	.st10{fill:#82B378;}
	.st11{fill:#FFB973;}
	.st12{fill:#ED975D;}
	.st13{fill:#6BAA66;}
	.st14{fill:#396035;}
	.st15{fill:#4C8E4C;}
	.st16{fill:#FFB27D;}
	.st17{fill:#A9453D;}
	.st18{fill:#EE9849;}
	.st19{fill:#E58638;}
	.st20{fill:#2E3552;}
	.st21{fill:#4271BC;}
</style>
<path class="st0" d="M1002.7-566.5v2178.3c0,0-1041.9,500.1-1102.1,83.5c-11.5-79.8,225.4-479.8,134.6-805.8
	c-56.9-204,34.5-245.3,76.1-373.5c48.5-149.5-172-287.5-94.8-484.9c61.4-105.2,53.4-226,18.6-356.5C0.5-456-99.4-632-99.4-632
	L1002.7-566.5z"/>
<path class="st1" d="M509.7,166v-17.3h-3v12l-8.9-12h-3.1V166h3v-12.4l9,12.4H509.7z M523.7,166v-8.3c0-3.4-2.4-4.6-5.2-4.6
	c-2,0-3.8,0.6-5.3,2l1.1,1.9c1.1-1.1,2.3-1.6,3.7-1.6c1.7,0,2.9,0.9,2.9,2.3v1.9c-0.9-1.1-2.4-1.6-4.1-1.6c-2.1,0-4.4,1.2-4.4,4.1
	c0,2.8,2.3,4.2,4.4,4.2c1.7,0,3.1-0.6,4.1-1.7v1.4H523.7L523.7,166z M517.9,164.4c-1.5,0-2.7-0.9-2.7-2.2c0-1.4,1.1-2.3,2.7-2.3
	c1.2,0,2.4,0.4,3,1.3v1.9C520.3,164,519.1,164.4,517.9,164.4L517.9,164.4z M539,166l-5.3-6.9l5.2-5.7h-3.4l-5.5,6.1v-10.8h-2.7V166
	h2.7v-3.4l1.7-1.8l3.8,5.2L539,166L539,166z M552.1,166v-12.6h-2.7v8.8c-0.7,0.9-1.8,1.6-3.2,1.6c-1.5,0-2.5-0.6-2.5-2.5v-7.9h-2.7
	v8.9c0,2.6,1.3,4,4,4c1.7,0,3.3-0.7,4.4-2v1.7H552.1L552.1,166z M562.4,166.3c3.2,0,5.6-2.5,5.6-6.6s-2.3-6.6-5.6-6.6
	c-1.6,0-3.1,0.8-4,2v-1.7h-2.7v17.3h2.7v-6.5C559.4,165.6,560.8,166.3,562.4,166.3L562.4,166.3z M561.6,163.9
	c-1.3,0-2.6-0.8-3.2-1.7v-5c0.6-0.9,2-1.7,3.2-1.7c2.2,0,3.5,1.7,3.5,4.2C565.1,162.2,563.7,163.9,561.6,163.9z M581.9,166v-12.6
	h-2.7v8.8c-0.7,0.9-1.8,1.6-3.2,1.6c-1.5,0-2.5-0.6-2.5-2.5v-7.9h-2.7v8.9c0,2.6,1.3,4,4,4c1.7,0,3.3-0.7,4.4-2v1.7H581.9L581.9,166
	z M586.8,151.9c0.9,0,1.7-0.8,1.7-1.7s-0.8-1.7-1.7-1.7c-0.9,0-1.7,0.8-1.7,1.7S585.9,151.9,586.8,151.9z M584,171.1
	c2.8,0,4.2-1.7,4.2-4.4v-13.3h-2.7v13.3c0,1.5-0.8,2.1-1.8,2.1c-0.8,0-1.3-0.3-1.7-0.7l-0.8,2C581.9,170.8,582.5,171.1,584,171.1
	L584,171.1z M218.9,289.6v-17.3h-3v12l-8.9-12h-3.1v17.3h3v-12.4l9,12.4H218.9z M232.9,289.6v-8.3c0-3.4-2.4-4.5-5.2-4.5
	c-2,0-3.8,0.6-5.3,2l1.1,1.9c1.1-1.1,2.3-1.6,3.7-1.6c1.7,0,2.9,0.9,2.9,2.3v1.9c-0.9-1.1-2.4-1.6-4.1-1.6c-2.1,0-4.4,1.2-4.4,4.1
	c0,2.8,2.3,4.2,4.4,4.2c1.7,0,3.1-0.6,4.1-1.7v1.4L232.9,289.6L232.9,289.6z M227.2,288c-1.5,0-2.7-0.9-2.7-2.2
	c0-1.4,1.1-2.3,2.7-2.3c1.2,0,2.4,0.4,3,1.3v1.9C229.6,287.6,228.4,288,227.2,288z M239.2,285.8v-5c0.6-0.9,2-1.7,3.2-1.7
	c2.2,0,3.6,1.7,3.6,4.2s-1.4,4.2-3.6,4.2C241.1,287.5,239.8,286.7,239.2,285.8z M239.2,289.6v-1.7c1,1.2,2.4,2,4,2
	c3.2,0,5.6-2.4,5.6-6.6c0-4.1-2.3-6.6-5.6-6.6c-1.6,0-3,0.7-4,2.1v-6.5h-2.7v17.3H239.2z M257.6,271.4H255l-3.6,3.7h2L257.6,271.4z
	 M254.3,289.6V277h-2.7v12.6H254.3z M267.2,289.6v-2.4h-6.4l6.3-8.2v-2h-9.9v2.4h6.2l-6.2,8.1v2.1L267.2,289.6L267.2,289.6z
	 M276,289.9c2,0,3.8-0.6,5.1-1.8l-1.2-1.8c-0.9,0.9-2.3,1.4-3.6,1.4c-2.4,0-3.8-1.6-4-3.5h9.7v-0.6c0-4-2.4-6.8-6.2-6.8
	c-3.7,0-6.4,2.9-6.4,6.6C269.4,287.3,272.2,289.9,276,289.9L276,289.9z M279.3,282.3h-7.1c0.1-1.5,1.2-3.3,3.5-3.3
	C278.3,278.9,279.3,280.8,279.3,282.3L279.3,282.3z M286,275.5c0.9,0,1.7-0.8,1.7-1.7s-0.8-1.7-1.7-1.7c-0.9,0-1.7,0.8-1.7,1.7
	S285.1,275.5,286,275.5z M283.2,294.7c2.8,0,4.2-1.7,4.2-4.4V277h-2.7v13.3c0,1.5-0.8,2.1-1.8,2.1c-0.8,0-1.3-0.3-1.7-0.7l-0.8,2
	C281.1,294.4,281.8,294.7,283.2,294.7L283.2,294.7z M779.2,289.6v-6.5h4.6c3.6,0,5.7-2.5,5.7-5.4s-2-5.4-5.7-5.4h-7.6v17.3
	L779.2,289.6L779.2,289.6z M783.4,280.4h-4.2v-5.5h4.2c1.7,0,3,1.1,3,2.8S785.1,280.4,783.4,280.4L783.4,280.4z M797.5,275.6
	c1.5,0,2.6-1.2,2.6-2.7s-1.2-2.7-2.6-2.7s-2.7,1.2-2.7,2.7C794.9,274.4,796,275.6,797.5,275.6z M797.5,274.3c-0.7,0-1.3-0.6-1.4-1.4
	c0-0.7,0.6-1.3,1.4-1.4c0.8,0,1.3,0.6,1.3,1.4C798.8,273.7,798.3,274.3,797.5,274.3z M803.1,289.6V277h-2.7v8.8
	c-0.7,0.9-1.8,1.6-3.2,1.6c-1.5,0-2.5-0.6-2.5-2.5V277h-2.7v8.9c0,2.6,1.3,4,4,4c1.7,0,3.3-0.7,4.4-2v1.7L803.1,289.6L803.1,289.6z
	 M808,275.5c0.9,0,1.7-0.8,1.7-1.7s-0.8-1.7-1.7-1.7c-0.9,0-1.7,0.8-1.7,1.7S807.1,275.5,808,275.5z M805.2,294.7
	c2.8,0,4.2-1.7,4.2-4.4V277h-2.7v13.3c0,1.5-0.8,2.1-1.8,2.1c-0.8,0-1.3-0.3-1.7-0.7l-0.8,2C803.1,294.4,803.8,294.7,805.2,294.7
	L805.2,294.7z M819.9,275.1l2.4-3.7h-1.7l-1.9,2.5l-2-2.5h-1.7l2.5,3.7H819.9L819.9,275.1z M818.6,289.9c2.4,0,3.9-1,4.8-2.2
	l-1.8-1.7c-0.7,1-1.7,1.5-2.9,1.5c-2.3,0-3.8-1.7-3.8-4.2s1.5-4.2,3.8-4.2c1.2,0,2.2,0.5,2.9,1.5l1.8-1.7c-0.9-1.2-2.4-2.2-4.8-2.2
	c-3.8,0-6.5,2.8-6.5,6.6C812.1,287.1,814.8,289.9,818.6,289.9z M837,289.6V277h-2.7v8.8c-0.7,0.9-1.8,1.6-3.2,1.6
	c-1.5,0-2.5-0.6-2.5-2.5V277h-2.7v8.9c0,2.6,1.3,4,4,4c1.7,0,3.3-0.7,4.4-2v1.7L837,289.6L837,289.6z M841.9,275.5
	c0.9,0,1.7-0.8,1.7-1.7s-0.8-1.7-1.7-1.7c-0.9,0-1.7,0.8-1.7,1.7S841,275.5,841.9,275.5z M839.2,294.7c2.8,0,4.2-1.7,4.2-4.4V277
	h-2.7v13.3c0,1.5-0.8,2.1-1.8,2.1c-0.8,0-1.3-0.3-1.7-0.7l-0.8,2C837.1,294.4,837.7,294.7,839.2,294.7L839.2,294.7z M200.3,685.7
	v-6.5h4.6c3.6,0,5.7-2.5,5.7-5.4s-2-5.4-5.7-5.4h-7.6v17.3L200.3,685.7L200.3,685.7z M204.5,676.6h-4.2v-5.5h4.2c1.7,0,3,1.1,3,2.8
	S206.2,676.6,204.5,676.6L204.5,676.6z M215.8,685.7v-8.6c0.5-0.9,2.1-1.7,3.2-1.7c0.3,0,0.6,0,0.9,0.1v-2.7c-1.6,0-3.1,0.9-4.1,2.1
	v-1.8H213v12.6H215.8z M227.7,686c4,0,6.5-3,6.5-6.6c0-3.6-2.4-6.6-6.5-6.6c-4,0-6.4,3-6.4,6.6C221.3,683,223.7,686,227.7,686z
	 M227.7,683.6c-2.3,0-3.6-2-3.6-4.2c0-2.2,1.3-4.2,3.6-4.2c2.3,0,3.6,2,3.6,4.2C231.3,681.7,230,683.6,227.7,683.6z M248.5,685.7
	v-17.3h-2.7v6.5c-1-1.3-2.5-2.1-4-2.1c-3.2,0-5.6,2.5-5.6,6.6c0,4.1,2.4,6.6,5.6,6.6c1.6,0,3.1-0.8,4-2v1.7H248.5z M242.5,683.6
	c-2.2,0-3.5-1.7-3.5-4.2c0-2.4,1.4-4.2,3.5-4.2c1.3,0,2.6,0.8,3.2,1.7v5C245.2,682.9,243.8,683.6,242.5,683.6L242.5,683.6z
	 M262.4,685.7v-8.3c0-3.4-2.4-4.5-5.2-4.5c-2,0-3.8,0.7-5.3,2l1.1,1.9c1.1-1.1,2.3-1.6,3.7-1.6c1.7,0,2.9,0.9,2.9,2.3v1.9
	c-0.9-1.1-2.4-1.6-4.1-1.6c-2.1,0-4.4,1.2-4.4,4.1c0,2.8,2.3,4.2,4.4,4.2c1.7,0,3.1-0.6,4.1-1.7v1.4H262.4z M256.7,684.2
	c-1.5,0-2.7-0.9-2.7-2.2c0-1.4,1.1-2.3,2.7-2.3c1.2,0,2.4,0.4,3,1.3v1.9C259.1,683.7,257.9,684.2,256.7,684.2L256.7,684.2z
	 M261.9,667.5h-2.6l-3.6,3.7h2L261.9,667.5z M272.2,685.7l5.1-12.6h-2.9l-3.7,9.4l-3.7-9.4h-2.9l5.1,12.6H272.2L272.2,685.7z
	 M284.9,686c2,0,3.8-0.6,5.1-1.8l-1.2-1.8c-0.9,0.9-2.3,1.4-3.6,1.4c-2.4,0-3.8-1.6-4-3.5h9.7v-0.7c0-4-2.4-6.8-6.2-6.8
	c-3.7,0-6.4,2.9-6.4,6.6C278.3,683.4,281.1,686,284.9,686L284.9,686z M288.2,678.4h-7.1c0.1-1.5,1.2-3.3,3.5-3.3
	C287.1,675.1,288.1,676.9,288.2,678.4L288.2,678.4z M294.9,671.6c0.9,0,1.7-0.8,1.7-1.7s-0.8-1.7-1.7-1.7c-0.9,0-1.7,0.8-1.7,1.7
	S294,671.6,294.9,671.6z M292.1,690.8c2.8,0,4.2-1.7,4.2-4.4v-13.3h-2.7v13.3c0,1.5-0.8,2.1-1.8,2.1c-0.8,0-1.3-0.3-1.7-0.7l-0.8,2
	C290,690.5,290.6,690.8,292.1,690.8L292.1,690.8z M780.3,686c4.7,0,6.7-2.5,6.7-5.4c0-6.5-10.1-4.5-10.1-7.7c0-1.3,1.1-2.2,2.9-2.2
	c1.8,0,3.7,0.6,5,2l1.7-2.3c-1.6-1.6-3.8-2.4-6.5-2.4c-3.8,0-6.3,2.2-6.3,5.1c0,6.4,10.1,4.1,10.1,7.8c0,1.1-1,2.4-3.5,2.4
	c-2.4,0-4.3-1.1-5.5-2.4l-1.7,2.3C774.8,684.9,777.1,686,780.3,686L780.3,686z M795.5,686c2,0,3.8-0.6,5.1-1.8l-1.2-1.8
	c-0.9,0.9-2.3,1.4-3.6,1.4c-2.4,0-3.8-1.6-4-3.5h9.7v-0.7c0-4-2.4-6.8-6.2-6.8c-3.7,0-6.4,2.9-6.4,6.6
	C789,683.4,791.8,686,795.5,686L795.5,686z M798.9,678.4h-7.1c0.1-1.5,1.2-3.3,3.5-3.3C797.8,675.1,798.8,676.9,798.9,678.4z
	 M809.8,671.3l2.4-3.7h-1.7l-1.9,2.5l-2-2.5h-1.7l2.5,3.7H809.8L809.8,671.3z M813.6,685.7v-2.4h-6.4l6.3-8.2v-2h-9.9v2.4h6.2
	l-6.2,8.1v2.1H813.6z M822.4,686c2,0,3.8-0.6,5.1-1.8l-1.2-1.8c-0.9,0.9-2.3,1.4-3.6,1.4c-2.4,0-3.8-1.6-4-3.5h9.7v-0.7
	c0-4-2.4-6.8-6.2-6.8c-3.7,0-6.4,2.9-6.4,6.6C815.8,683.4,818.6,686,822.4,686L822.4,686z M825.7,678.4h-7.1
	c0.1-1.5,1.2-3.3,3.5-3.3C824.6,675.1,825.7,676.9,825.7,678.4z M838,671.3l2.4-3.7h-1.7l-1.9,2.5l-2-2.5H833l2.5,3.7H838L838,671.3
	z M842.3,685.7v-8.8c0-2.6-1.4-4-4.1-4c-2,0-3.6,1-4.4,2v-1.7h-2.7v12.6h2.7V677c0.6-0.9,1.8-1.7,3.2-1.7c1.5,0,2.5,0.7,2.5,2.6v7.9
	L842.3,685.7L842.3,685.7z M497.5,812.9v-6.5h4.6c3.6,0,5.7-2.5,5.7-5.4s-2-5.4-5.7-5.4h-7.6v17.3L497.5,812.9L497.5,812.9z
	 M501.7,803.8h-4.2v-5.5h4.2c1.7,0,3,1.1,3,2.8S503.4,803.8,501.7,803.8L501.7,803.8z M515.5,813.2c4,0,6.5-3,6.5-6.6
	c0-3.6-2.4-6.6-6.5-6.6c-4,0-6.4,3-6.4,6.6C509,810.2,511.5,813.2,515.5,813.2z M515.5,810.8c-2.3,0-3.6-2-3.6-4.2
	c0-2.2,1.3-4.2,3.6-4.2c2.3,0,3.6,2,3.6,4.2C519.1,808.9,517.8,810.8,515.5,810.8z M542.9,812.9v-9.1c0-2.5-1.3-3.8-3.6-3.8
	c-1.9,0-3.5,1.2-4.3,2.3c-0.4-1.4-1.6-2.3-3.4-2.3c-1.9,0-3.6,1.2-4.1,2v-1.7h-2.7v12.6h2.7v-8.8c0.6-0.8,1.7-1.7,2.9-1.7
	c1.5,0,2.1,0.9,2.1,2.3v8.2h2.7v-8.8c0.5-0.8,1.7-1.7,2.9-1.7c1.5,0,2.1,0.9,2.1,2.3v8.2H542.9z M556.8,812.9v-8.3
	c0-3.4-2.4-4.5-5.2-4.5c-2,0-3.8,0.7-5.3,2l1.1,1.9c1.1-1.1,2.3-1.6,3.7-1.6c1.7,0,2.9,0.9,2.9,2.3v1.9c-0.9-1.1-2.4-1.6-4.1-1.6
	c-2.1,0-4.4,1.2-4.4,4.1c0,2.8,2.3,4.2,4.4,4.2c1.7,0,3.1-0.6,4.1-1.7v1.4H556.8L556.8,812.9z M551.1,811.4c-1.5,0-2.7-0.9-2.7-2.2
	c0-1.4,1.1-2.3,2.7-2.3c1.2,0,2.4,0.4,3,1.3v1.9C553.4,810.9,552.3,811.4,551.1,811.4L551.1,811.4z M556.2,794.7h-2.6l-3.6,3.7h2
	L556.2,794.7z M571.6,812.9V804c0-2.6-1.4-4-4.1-4c-2,0-3.6,1-4.4,2v-6.5h-2.7v17.3h2.7v-8.8c0.7-0.9,1.8-1.7,3.2-1.7
	c1.5,0,2.5,0.6,2.5,2.5v7.9L571.6,812.9L571.6,812.9z M580.9,813.2c2,0,3.8-0.6,5.1-1.8l-1.2-1.8c-0.9,0.9-2.3,1.4-3.6,1.4
	c-2.4,0-3.8-1.6-4-3.5h9.7v-0.7c0-4-2.4-6.8-6.2-6.8c-3.7,0-6.4,2.9-6.4,6.6C574.3,810.6,577.1,813.2,580.9,813.2L580.9,813.2z
	 M584.2,805.6h-7.1c0.1-1.5,1.2-3.3,3.5-3.3C583.2,802.3,584.2,804.1,584.2,805.6z M590.9,798.8c0.9,0,1.7-0.8,1.7-1.7
	s-0.8-1.7-1.7-1.7c-0.9,0-1.7,0.8-1.7,1.7S590,798.8,590.9,798.8z M588.1,818c2.8,0,4.2-1.7,4.2-4.4v-13.3h-2.7v13.3
	c0,1.5-0.8,2.1-1.8,2.1c-0.8,0-1.3-0.3-1.7-0.7l-0.8,2C586,817.7,586.7,818,588.1,818L588.1,818z"/>
<circle class="st1" cx="539.1" cy="480.9" r="223.5"/>
<circle class="st2" cx="539.1" cy="480.9" r="277.1"/>
<path class="st3" d="M355.4,553.6c0,0-41.4-88.2,40.2-88.2c43.1,0,25.3-24.2,54.6-52.2c29.3-28,131.7-50.4,153.5,3.7
	s-32.1,95.1,20,88.1c62.5-8.5,87.2,48.6,87.2,48.6L355.4,553.6L355.4,553.6z"/>
<path class="st4" d="M690.3,542.4c-3.9-2.8-11.7-0.9-17.6,1.1c-0.9-1.3-2-2.6-3.2-3.7c12.5-8.1,29.9-25.3,20.7-26.8
	c-8-1.3-18.7,14.3-24.5,23.7c-6-4-15.1-7-29.1-6c-36.3,2.7-64.6-20.8-85.5-13c-16.6,6.2-31.8,9.7-46.5,8.5c0.6-10.7,0.8-31.8-7.7-34
	c-8.5-2.2-0.2,21.7,4.5,33.7c-1.1-0.1-2.2-0.3-3.3-0.5c-3-6-8-13.8-13.5-14c-5.1-0.3,1.2,6.8,7.5,12.7c-18-3.8-39.3,10.8-39.6,28.1
	h224.2c0,0-0.4-2.5-2.2-5.8C683.2,546.3,694.5,545.5,690.3,542.4L690.3,542.4z"/>
<path class="st5" d="M501.4,538.9h-59.1v13.4h59.1V538.9z"/>
<path class="st6" d="M483.2,538.9h-59.1v13.4h59.1V538.9z"/>
<path class="st7" d="M524.7,552.3h44v-61.6h-44V552.3z"/>
<path class="st8" d="M511.1,552.3h44v-61.6h-44V552.3z"/>
<path class="st9" d="M555.1,490.7l13.6,9.2v-9.2H555.1z"/>
<path class="st10" d="M419.3,504.4c0,0-8.2,6.1-9.8,5.8c-1.6-0.4,6-6.6,6-6.6c-2.9-1.4-11.8-0.5-11.8-0.5s-3,9.6-4.4,8.8
	c-1.5-0.8,3.1-8.3,3.1-8.3c-3.2-0.2-7.1,2.2-7.1,2.2c-5.4,4.2,0.4,10.9,0.4,10.9s-1.1,3.3-4.5,6.3c0,0-4.8,3.6-5.2,10l0.9,0.1
	c0,0,1.4-6,3.9-8.8c0.1-0.1,0.2-0.2,0.4-0.4c0.4-0.4,0.7-0.7,0.9-0.9c1.3-1.2,3-2.8,3.8-2.9c0-0.1,0-0.3,0-0.4l0,0.4
	c0.3,3.4,6.8,6.3,10.8,6.9c4,0.6,2.8-1,1.4-3.5c-1.4-2.5-5.8-3.6-6.8-4.7c-1-1.1,1.1-1.1,3.5,0c2.4,1.1,2.8,4.1,6.6,5.9
	c3.9,1.9,9.7-4.6,9.7-4.6c-3.1-0.2-7.5-3.5-7.4-4.6c0.2-1,7.5,1.8,8.8,1.9c1.3,0.1,4.1-1.4,4.6-6.5
	C427.6,505.8,419.3,504.4,419.3,504.4L419.3,504.4z"/>
<path class="st4" d="M375.6,508.2c0,0,9.1-5.1,4.8-12c0,0-3.4-4.2-7-5.3c0,0,1.9,10.3,0,10.5c-1.9,0.2-1.3-11.6-1.3-11.6
	s-9.6-4.6-13.3-4.2c0,0,5.9,10.1,4,9.8c-1.9-0.2-8.6-10.4-8.6-10.4s-9.8-1.8-11.4,4c-1.6,5.8,1,8.7,2.4,9.1
	c1.5,0.4,10.8,0.2,10.5,1.5c-0.2,1.2-6.5,3.2-10.1,2.1c0,0,3.9,9.6,9,9.1c5.1-0.5,6.7-3.6,9.8-3.9s5.5,0.6,3.9,1.5
	c-1.6,0.8-6.9,0.3-9.5,2.4c-2.5,2.2-4.6,3.5,0.1,4.5c4.7,1,13.2,0.4,14.9-3.3L375.6,508.2L375.6,508.2z"/>
<path class="st10" d="M378,517c-2.5-4.7-2.4-8.9-2.4-8.9c-2.9-9.2-28.4-17.5-28.4-17.5c32.4,13.1,26.7,21.1,26.7,21.1
	c0.9,0.5,2.2,2.9,3.1,4.8c0.1,0.3,0.3,0.8,0.6,1.4c0.1,0.3,0.2,0.5,0.3,0.6c1.7,4.2,0.8,11.4,0.8,11.4l1,0.3
	C382,523,378,517,378,517L378,517z"/>
<path class="st4" d="M390.1,501.1c0,0-12-6.7-6.4-15.8c0,0,4.5-5.6,9.3-7c0,0-2.6,13.6,0,13.9c2.6,0.3,1.8-15.3,1.8-15.3
	s12.6-6.1,17.6-5.6c0,0-7.8,13.3-5.3,13s11.3-13.8,11.3-13.8s12.9-2.4,15,5.3c2.1,7.7-1.3,11.5-3.2,12c-1.9,0.5-14.2,0.3-13.9,1.9
	s8.6,4.2,13.3,2.7c0,0-5.1,12.6-11.8,12c-6.7-0.6-8.8-4.8-12.9-5.1c-4.2-0.3-7.2,0.8-5.1,1.9c2.1,1.1,9.1,0.4,12.5,3.2
	c3.4,2.9,6.1,4.6-0.2,5.9c-6.2,1.3-17.4,0.5-19.6-4.3L390.1,501.1L390.1,501.1z"/>
<path class="st10" d="M427.4,478.1c0,0-33.5,10.9-37.4,23c0,0,0.2,5.4-3.2,11.7c0,0-5.2,7.9-2.2,17.4l1.3-0.4c0,0-1.2-9.5,1-15
	c0.1-0.2,0.2-0.5,0.4-0.8c0.4-0.8,0.7-1.4,0.8-1.8c1.2-2.5,2.9-5.7,4.1-6.3C392.3,505.9,384.8,495.4,427.4,478.1L427.4,478.1z"/>
<path class="st8" d="M389.7,551c6.2,0,12.2-2.5,16.6-6.9c4.4-4.4,6.9-10.4,6.9-16.6h-46.9c0,6.2,2.5,12.2,6.9,16.6
	C377.5,548.5,383.4,551,389.7,551L389.7,551z"/>
<path class="st11" d="M395.4,550.8c-6.7,0.8-13.4-1.3-18.4-5.7c-2.5-2.2-4.5-4.9-5.9-7.9c-1.4-3-2.1-6.3-2.1-9.7h5.8
	c0,5.7,2.1,11.2,5.9,15.5C384.5,547.3,389.8,550.1,395.4,550.8L395.4,550.8z"/>
<path class="st8" d="M410.6,549.4h-41.8c-1.6,0-2.9,1.3-2.9,2.9c0,0,0,0,0,0h47.6C413.5,550.7,412.2,549.4,410.6,549.4z"/>
<path class="st7" d="M413.3,527.5h-47.5c-0.2,0-0.4,0.2-0.4,0.4c0,0.1,0,0.2,0.1,0.3c0.1,0.1,0.2,0.1,0.3,0.1h47.5
	c0.2,0,0.4-0.2,0.4-0.4c0-0.1,0-0.2-0.1-0.3C413.5,527.5,413.4,527.5,413.3,527.5z"/>
<path class="st12" d="M594.4,403.8c-0.7-0.1-2.7,1.8-2.7,1.8c-4.4,0.5-10.8,1.7-13.1,2.1c-1.6,0.3-6-1.2-10.3-2.9
	c-5.1-2-10.1-4.4-10.1-4.4c-2.8-0.1-6,5-0.3,8.3c0.9,0.5,4.2,1.4,8,2.1c5.2,1.1,11.4,2,13.5,1.7c2.4-0.4,9.4-2.9,13.5-4.9h0l0,0
	c0.2-0.1,1.3-0.6,1.9-0.5c0.8,0,2.5-1.4,2.5-1.7S595,403.9,594.4,403.8L594.4,403.8z"/>
<path class="st13" d="M589,468.9l-2.4,0.5c0,0-11-12.4-12.7-17.6c-0.9-2.8-6.7-4-12.8-5.6c-5.3-1.4-10.8-3-13.4-6.2
	c-5.6-6.9,3.5-15.4,3.5-15.4s9.8,5.8,18.2,11.8c5.9,4.2,11.1,8.5,11.9,10.9C583.2,453.3,587.2,464.7,589,468.9z"/>
<path class="st14" d="M585.8,473h1.4c0.5-0.1,0.8-0.2,1.3-0.3c0.7-0.1,1,0.2,1.1,0.3l0,0h5.8c0.1-0.2,0-0.7-0.1-1
	c0-0.1-0.1-0.2-0.2-0.3c-0.1-0.1-0.2-0.1-0.3-0.2c-0.6-0.2-1.8-0.3-2.9-1.3c-0.6-0.6-3-2.1-3-2.1h0c-0.1,0-0.3,0.1-1.4,1
	c-0.6,0.5-1.5-0.7-1.5-0.7c-0.4,0.3-0.5,0.8-0.4,1.3c0.1,0.5-0.2,1.5-0.4,2.1c-0.1,0.4-0.2,0.7-0.2,0.7S584.6,472.9,585.8,473
	L585.8,473z"/>
<path class="st15" d="M569.4,436.4l-8.3,9.9c-5.3-1.4-10.8-3-13.4-6.2c-5.6-6.9,3.5-15.4,3.5-15.4S560.9,430.4,569.4,436.4z"/>
<path class="st13" d="M561.8,431.2c0,0-0.7,2.1-1.8,5.3c-1.4,4-3.4,9.8-5.7,15.1c-0.5,1.1-1,2.3-1.5,3.4c-1.9,4.1-3.7,7.6-5.4,9.4
	c-3,3.2-10.3,23.8-10.3,23.8l-1.8-0.5c0,0-2.5-17.6,6.4-27.6c0.1-0.1,0.2-0.2,0.2-0.4c0.1-1.5,0.5-8.1,1.5-14.8
	c0.2-1.7,0.5-3.5,0.8-5.2c1.4-7.3,2.7-10.6,4.4-12.2l12.4,3.5L561.8,431.2z"/>
<path class="st14" d="M535.2,490.7h1.4c0.5-0.1,0.8-0.2,1.3-0.3c0.7-0.1,1,0.2,1.1,0.3l0,0h5.8c0.1-0.2,0-0.7-0.1-1
	c-0.1-0.2-0.3-0.4-0.5-0.5c-0.6-0.2-1.8-0.3-2.9-1.3c-0.6-0.6-3-2.1-3-2.1h0c-0.1,0-0.3,0.1-1.4,1c-0.6,0.5-1.5-0.7-1.5-0.7
	c-0.1,0.1-0.2,0.3-0.3,0.4c-0.1,0.3-0.2,0.6-0.1,0.9c0.1,0.5-0.2,1.5-0.4,2.1c-0.1,0.4-0.2,0.7-0.2,0.7S534,490.6,535.2,490.7
	L535.2,490.7z"/>
<path class="st16" d="M537.8,407.3c0,0-2.1,5.1-4.5,10c-2,4.2-4.3,8.2-5.7,9.1c-2,1.2-7.5,4.7-11.1,7.3c0,0-2.8,0-3.2,0.5
	c-0.4,0.5-1.4,2.9-1.1,3.2c0.3,0.2,2.5,0.1,3-0.4c0.5-0.5,1.5-0.8,1.8-0.9l0,0h0c4.3-1.3,11.2-4.1,13.2-5.5c1.8-1.2,5.7-6,8.9-10.4
	c2.3-3.1,4.1-6,4.4-6.9C545.7,407,539.8,405.3,537.8,407.3L537.8,407.3z"/>
<path class="st14" d="M548.7,387.4c-0.2-0.3-0.5-0.7-0.7-1c0.3,0,0.6,0,0.9-0.1c0.7-0.3,1.1-2.6,1-3.3c-0.1-0.7-1.1-2.7-2.4-2.9
	c-1.2-0.2-2.5,1.2-2.5,1.2c0.2-1,2.3-1.6,2.3-1.6c-4.4,0.8-4.1,3.7-4.1,4c-4-1.4-6.3,6.1-6.3,6.1l10.3,6.1c0,0,0-1.7,1-1.6
	C549.7,394.5,551,390.7,548.7,387.4L548.7,387.4z"/>
<path class="st16" d="M549.3,403.1c-2.4,1.1-5.5-0.5-5.5-0.5c0.2-0.2,0.1-0.8-0.1-1.6c-0.2-0.8-0.6-2-1.4-3.3
	c-0.2-0.3-0.4-0.6-0.5-0.9l0.3-0.1l4.6-1.8c0,0,0.7,1.3,1.5,2.6c0.7,1,1.4,1.9,1.7,1.9C549.9,399.3,552.9,401.4,549.3,403.1
	L549.3,403.1z"/>
<path class="st12" d="M546.7,395.3c-0.1,1.6-0.7,4.6-2.9,5.7c-0.2-0.8-0.6-2-1.4-3.3L546.7,395.3z"/>
<path class="st16" d="M542.1,399.6c0,0,6-2.4,4.5-6.1c-1.5-3.7-1.8-6.5-5.7-5.2c-3.9,1.4-4,3.1-3.8,4.4
	C537.3,394.1,540.5,400.1,542.1,399.6L542.1,399.6z"/>
<path class="st14" d="M544.3,392.7c2.8-0.4,3.6-1.5,3.6-1.5c-1.7-0.6-3.1-1.7-4-3.2c0,0-3.1-1-5.4,0.7c-0.1,0.2-0.2,0.4-0.3,0.6
	c-0.5-0.2-1.3-0.1-1.8,1.4c-0.7,2.2,1.8,4.7,1.8,4.7c0.6-0.2-0.1-2.2-0.2-3.2c-0.1-0.8,0.4-1.8,0.6-2.3c0.3,0.4,3.2,4,6.8,4.2
	c-1.3-0.5-2.5-1.1-3.6-1.9C542.6,392.5,543.5,392.8,544.3,392.7L544.3,392.7z"/>
<path class="st6" d="M560.8,410.8c-0.1-0.2-0.1-0.4-0.2-0.6c0.8-1.4,1.3-3,1.5-4.5c0.4-2.7-0.3-4.4-0.3-4.4s-4.2-2.2-6-2.5l0,0
	l-0.1,0c-1.9-0.3-5.9,0.6-5.9,0.6s0.8,2.1-1.4,3.4c-2.2,1.4-4.5-0.4-4.5-0.4c-0.1,0-0.1,0.1-0.2,0.2c0,0-5.7,3.8-6.3,4.7
	c-0.5,0.9-2.7,5.2-2.7,5.2s0.7,3.6,8.5,3.9c0.6,1.5,1.1,3.1,1.3,4.3c0.6,4.9-0.1,8.7,0.6,11.6c0.7,2.9,13.7,1.2,16,0.7
	c2.3-0.5,1.8-3.1,2-5.5C563.3,424.3,561.5,413.5,560.8,410.8L560.8,410.8z"/>
<path class="st15" d="M562.1,405.7c-0.2,1.6-0.8,3.1-1.5,4.6c-0.2-0.9-1-4.2-2.4-5.7C558.2,404.6,560.5,404.8,562.1,405.7z"/>
<path class="st12" d="M509.4,437.7c0,0,2.4-2.9,2.9-3.3s2.8-1,2.9-0.8c0.1,0.1,0.1,0.3-0.1,0.5c-0.3,0.3-1.4,0.9-1.2,0.9
	c0.2,0.1,3.4-1.5,3.9-1c0.5,0.5-0.3,2.8-1.5,3.9c-1.3,1.1-5,1.5-5.2,1.7C509.1,441,509.4,437.7,509.4,437.7L509.4,437.7z"/>
<path class="st16" d="M467,431c0,0,3.5,4.1,7.9,2.4c0,0,1-2.3,1-4v-0.6c0-1.9,0.1-3,0.1-3c-0.2-0.1-6.7-2.8-6.7-2.5
	C469.3,428.4,467,431,467,431L467,431z"/>
<path class="st12" d="M469.8,424.5c0.6,1.2,2.8,3.5,6,4.3c0-1.9,0.1-3,0.1-3C475.7,425.8,469.6,424.1,469.8,424.5z"/>
<path class="st16" d="M477.3,425.6c0,0-7.4,1.7-8.4-2.9c-1-4.6-2.6-7.5,2-8.8c4.7-1.3,6,0.3,6.7,1.7
	C478.3,417.1,479.2,425,477.3,425.6z"/>
<path class="st17" d="M469.2,424c-0.1,0.1-1.7,0.5-4.7-5.4c-0.5-0.9-0.8-3,0.3-4.8c1.1-1.8,5-3.2,8.2-3.8c3.2-0.6,4,1.2,4.8,3
	c0.8,1.9,3.1,3.5,3.1,3.5c-2.8,1.6-6.1-0.7-7.3-0.3c-1.2,0.4-1.6,2.2-1.7,2.8c-0.1,0.6-0.2,1.1-1.7,0.5s-0.7,2.1-0.4,2.6
	C469.8,422.1,470,423.5,469.2,424L469.2,424z"/>
<path class="st14" d="M450.2,538.9h-4.5c-0.9,0-2-0.9-2.2-2.7c-0.3-1.7-2.2-2.7-2.6-4.1c-0.4-1.4,1.7-3.4,1.7-3.4l0.4-0.5l0.4-0.5
	l3.5,0.8c0,0,0.1,0.9,0.1,1.9c0,0.8,0.1,1.7,0,2.5c-0.1,1.9,0.5,3.9,2.2,4.3C450.9,537.7,450.2,538.9,450.2,538.9z M481.2,539h-11.8
	c-0.1,0-0.2,0-0.3-0.1c-0.8-0.4-0.5-3.5-0.4-4.5c0-0.2,0-0.3,0-0.3s4.2-3.4,4.7-0.8c0,0.1,0,0.2,0.1,0.2c0.7,2.5,4,3.6,5.8,3.9
	C480.8,537.7,481.1,538.5,481.2,539L481.2,539z"/>
<path class="st18" d="M478.8,470.6c0,0-0.6,7.9-1.4,17.3c-1,12.9-2.2,28.7-2.3,31.7c-0.2,5.2-1,13.5-1,13.5s-2,2-5.9,1.1
	c0,0-3.5-11.9-4.5-24.4c0-0.2,0-0.4,0-0.6c-0.9-12.8-2.4-39.7-2.4-39.7L478.8,470.6z"/>
<path class="st19" d="M478.8,470.6c0,0-0.6,7.9-1.4,17.3l-13.8,21.9l0-0.6c-0.9-12.8-2.4-39.7-2.4-39.7L478.8,470.6z"/>
<path class="st18" d="M476,471.6c0,0-11.4,28.5-18.8,41.9c-7.5,13.4-9.8,17.1-9.8,17.1s-4.3-1.7-4.7-2.9c0,0,2.9-25.9,7.9-32.2
	c2.8-3.6,6.1-14.3,6.3-18c0.2-3.7,1-11.1,1-11.1L476,471.6z"/>
<path class="st12" d="M449.9,466.8c0,0-0.3,3.6-0.5,4.1c-0.2,0.5-1.7,2.2-1.8,2.2c-0.2,0-0.3-0.2-0.2-0.5c0.1-0.3,0.6-1.4,0.4-1.4
	c-0.2,0-1.8,3-2.5,2.9s-1.3-2.3-0.9-3.8c0.4-1.5,3-3.9,3.1-4.1C448.5,464.1,449.9,466.8,449.9,466.8L449.9,466.8z"/>
<path class="st15" d="M448.7,467.7c1.3,0.4,1.5,0.3,1.5,0.3s6.1-11.2,6.7-12.2c0.6-1,13-12.5,13-12.5l-3.2-11.9
	c0,0-14.1,18.2-15.6,20.9c-2.5,4.3-4,14.4-4,14.4C447.6,467.2,448.1,467.5,448.7,467.7z"/>
<path class="st13" d="M481.2,448c0,2.4-0.2,5.2-0.4,8l0,0.5c-0.1,1.7-0.3,3.4-0.4,5.1c-0.1,0.7-0.1,1.3-0.2,2l0,0.1
	c0,0.2,0,0.5-0.1,0.8c-0.6,6.3-1.3,11.3-1.4,11.4c-0.1,0.1-0.3,0.1-0.5,0.1c-1.7-0.2-6.6,0.2-10.6-0.7c-3.4-0.7-6.3-2.1-9.5-3.9
	c-0.4-0.2-1.4-0.9-1.3-1.4c0.1-0.8,0.2-1.5,0.4-2.3c0.6-3.4,1.7-9.1,2-15.9c0.1-1.3,0.2-2.5,0.3-3.7c0.3-3,0.9-6,1.6-8.9
	c1.4-5,3.4-8.8,6-10.3c0.3-0.2,2.1,1,3.8,2c1.4,0.9,3,1.3,4.7,1.1l1.4,1.5c1.7,1.9,3.4,4.5,3.9,8.2c0,0.3,0.1,0.6,0.1,0.9
	C481.2,444.3,481.3,446.2,481.2,448L481.2,448z"/>
<path class="st15" d="M481.2,448c0,2.4-0.2,5.2-0.4,8l0,0.5c-9.5-5.9-10.9-16.8-10.9-16.8c4.6,0.2,8.3,1.3,11.2,2.8
	C481.2,444.3,481.3,446.2,481.2,448L481.2,448z"/>
<path class="st13" d="M510.8,438c-0.5-1.3-1.2-1.2-1.2-1.2s-14.1,3.5-15.3,3.7c-1.3,0.2-15.1-5.4-15.1-5.4s-5.5-2.5-8-0.2
	c-2.2,1.9-2.3,4.4-1.8,6.5c0.6,2.5,2.7,4.3,5.2,4.6c5.7,0.7,16.9,2.1,19.3,1.8c5.3-0.7,17.2-7.6,17.2-7.6
	C511.2,439.4,511.1,438.7,510.8,438L510.8,438z"/>
<path class="st14" d="M649.4,463.8c0,0,2,1.8,1.6,3.1c-0.4,1.3-2.1,2.1-2.4,3.7c-0.2,1.6-1.2,2.4-2,2.4h-4.1c0,0-0.6-1.1,0.9-1.4
	c1.5-0.3,2.1-2.2,2-3.9c-0.1-1.7,0.1-4,0.1-4l3.2-0.8L649.4,463.8L649.4,463.8z M625.1,472.9c-0.2,0.1-0.9,0.2-1.8,0.2H614
	c0-0.3,0.2-1.3,1.8-1.5c1.7-0.3,4.7-1.3,5.3-3.5c0-0.1,0-0.1,0.1-0.2c0.5-2.3,4.3,0.7,4.3,0.7s0,0.1,0,0.3
	C625.6,469.7,625.8,472.5,625.1,472.9L625.1,472.9z"/>
<path class="st13" d="M616.2,410.4c0,0,0.6,7.2,1.3,15.9c0.9,11.8,2,26.3,2.1,29c0.2,4.8,1,12.4,1,12.4s1.8,1.8,5.4,1
	c0,0,3.2-10.9,4.1-22.4l0-0.6c0.9-11.7,2.2-36.4,2.2-36.4L616.2,410.4L616.2,410.4z"/>
<path class="st14" d="M616.2,410.4c0,0,0.6,7.2,1.3,15.9l12.7,20.1l0-0.6c0.9-11.7,2.2-36.4,2.2-36.4L616.2,410.4L616.2,410.4z"/>
<path class="st13" d="M618.8,411.2c0,0,10.4,26.2,17.3,38.5c6.9,12.3,9,15.7,9,15.7s3.9-1.6,4.3-2.6c0,0-2.6-23.7-7.2-29.5
	c-2.6-3.3-5.6-13.1-5.8-16.5c-0.1-3.4-0.9-10.2-0.9-10.2L618.8,411.2L618.8,411.2z"/>
<path class="st16" d="M586.7,397c0,0-2.8-0.6-3.3-0.6c-0.5,0-2.1,0.7-2.2,0.9c0,0.1,0.1,0.2,0.3,0.3c0.3,0,1.2-0.1,1.2,0
	c-0.1,0.1-2.8,0.7-2.8,1.2c0,0.6,1.5,1.6,2.7,1.6c1.3,0.1,3.7-1.4,4-1.4C588.4,398.8,586.7,397,586.7,397z"/>
<path class="st19" d="M585.5,397.8c-0.4-1.3-0.3-1.5-0.3-1.5s11.5-6.2,12.5-6.8c1-0.6,12.9-13.3,12.9-13.3l12.1,3.3
	c0,0-18.8,14.3-21.5,15.9c-4.4,2.5-14.7,4-14.7,4C586,398.9,585.7,398.4,585.5,397.8L585.5,397.8z"/>
<path class="st16" d="M614.2,370c0,0-4.3,7.5-8.4,8.5c0,0,0.2-2.5,1.2-4.2c-0.4-0.4-0.7-0.9-1.1-1.3c-0.6-0.7-1.1-1.4-1.5-2.2
	l1.4-3.8l1-2.6c0.4,0.8,0.9,1.5,1.5,2.2C611,369.7,614.2,370,614.2,370L614.2,370z"/>
<path class="st12" d="M608.2,366.6c0,0,0.5,3.8-2.3,6.4c-0.6-0.7-1.1-1.4-1.5-2.2l1.4-3.8C607.3,366.5,608.2,366.6,608.2,366.6
	L608.2,366.6z"/>
<path class="st16" d="M603.3,371.3c0,0,6.4-2.5,4.8-6.4c-1.6-3.9-1.9-6.9-6-5.5c-4.1,1.4-4.3,3.2-4.1,4.7
	C598.1,365.5,601.6,371.9,603.3,371.3L603.3,371.3z"/>
<path class="st18" d="M636.1,408.5c-2.6,3.7-21.7,8.6-21.5,6.1c0.2-1.7,0.2-3.4,0-5c-0.1-0.6-0.1-1.2-0.2-1.7
	c-0.5-3.4-1.6-7.7-4.2-12.7c-0.2-0.4-0.4-0.8-0.6-1.1c-1.1-1.9-1.9-3.9-2.7-6c-1.3-3.8-1.9-7.5-1.2-9.9c0,0,0,0,0,0
	c4-1.9,5.6-9,5.6-9s13.7,2.5,21.3,20.7C632.6,389.7,638.3,405.3,636.1,408.5L636.1,408.5z"/>
<path class="st19" d="M614.6,409.5c-0.1-0.6-0.1-1.2-0.2-1.7c-0.5-3.4-1.6-7.7-4.2-12.7c0.4-2.7,1.1-4.9,1.7-5.9
	c2.7-4.1,4.3-4.7,4.3-4.7S620.3,401.7,614.6,409.5z"/>
<path class="st16" d="M593,405.4c0,0-3.8,0.2-4.4,0.4c-0.6,0.2-2.4,1.7-2.4,1.9c0,0.2,0.2,0.3,0.5,0.2c0.4-0.1,1.5-0.6,1.5-0.4
	c0,0.2-3.3,1.8-3.1,2.5c0.2,0.7,2.4,1.5,4,1.1c1.6-0.4,4.2-3.1,4.5-3.2C595.8,407.1,593,405.4,593,405.4z"/>
<path class="st18" d="M592.3,406.9c-0.8-1.2-0.2-1.8-0.2-1.8s11.7-9.2,12.6-10.1c0.9-0.9,5.2-15.7,5.2-15.7s1.5-6,4.9-6.6
	c3-0.6,5,0.9,6.4,2.6c1.6,2.1,1.8,4.9,0.4,7.1c-3,5-9,15-10.8,16.7c-3.9,3.8-17,9.1-17,9.1C593.2,407.9,592.7,407.4,592.3,406.9z"/>
<path class="st13" d="M608.9,357.6c0-0.1,0.2-0.2,0.5-0.3c-0.2-0.1-0.4-0.1-0.6,0c-0.2-0.4-0.6-1.2-1.4-1.2c0.3,0.1,0.5,0.3,0.6,0.6
	c-1.1-0.7-3.2-0.9-8.3,0.8c-6.8,2.3-3.4,6.2-2.4,6.5c1,0.3,2.9-1.7,4.6-2c1.7-0.3,2.6,2.1,3.3,2.3c0.6,0.2,0.3-0.3,1-0.9
	c0.7-0.5,1.1,0.7,1.1,1.6c0,0.9,1.3,1.7,1.3,1.7l0.8-1.4c0.8-1.4,0.6-6.6-0.2-7.6C609.1,357.8,609,357.7,608.9,357.6L608.9,357.6z"
	/>
<path class="st20" d="M720.6,552.3h-384c-0.3,0-0.5,0.2-0.5,0.5v0.4c0,0.3,0.2,0.5,0.5,0.5h384c0.3,0,0.5-0.2,0.5-0.5v-0.4
	C721.1,552.5,720.9,552.3,720.6,552.3z"/>
<path class="st21" d="M501.4,538.8v7.7l-18.2-7.7H501.4z"/>
<path class="st5" d="M657.3,473.1h-60.2v79.2h60.2V473.1z"/>
<path class="st6" d="M638.8,473.1h-60.2v79.2h60.2V473.1L638.8,473.1z"/>
<path class="st21" d="M657.3,473.1v11.8l-18.6-11.8H657.3z"/>
</svg>
