<?xml version="1.0" encoding="utf-8"?>
<!-- Generator: Adobe Illustrator 26.5.0, SVG Export Plug-In . SVG Version: 6.00 Build 0)  -->
<svg version="1.1" id="Vrstva_1" xmlns="http://www.w3.org/2000/svg" xmlns:xlink="http://www.w3.org/1999/xlink" x="0px" y="0px"
	 viewBox="0 0 972.2 1078" style="enable-background:new 0 0 972.2 1078;" xml:space="preserve">
<style type="text/css">
	.st0{fill:#6DC400;}
	.st1{fill:#FFFFFF;}
	.st2{fill:none;stroke:#FFFFFF;stroke-width:4.543;stroke-linecap:round;stroke-linejoin:round;stroke-dasharray:0.91,18.17;}
	.st3{clip-path:url(#SVGID_00000041976521404686547250000002122984326853832371_);}
	.st4{fill:#DADADA;}
	.st5{fill:#F6F5F5;}
	.st6{fill:#FF9064;}
	.st7{opacity:0.5;fill:#B25834;enable-background:new    ;}
	.st8{opacity:0.3;fill:#FFFFFF;enable-background:new    ;}
	.st9{fill:#174417;}
	.st10{fill:#97C693;}
	.st11{fill:#BFE2BC;}
	.st12{fill:#297A29;}
	.st13{opacity:0.4;fill:#174417;enable-background:new    ;}
	.st14{fill:#EB5D60;}
	.st15{fill:#4C8E4C;}
	.st16{fill:#6BAA66;}
	.st17{opacity:0.6;fill:#4C8E4C;enable-background:new    ;}
	.st18{fill:#F9B384;}
	.st19{opacity:0.4;fill:#EB5D60;enable-background:new    ;}
	.st20{fill:#FBC343;}
	.st21{opacity:0.8;fill:#FFFFFF;enable-background:new    ;}
	.st22{fill:#E49B31;}
	.st23{fill:#E28B6D;}
	.st24{opacity:0.4;fill:#4C8E4C;enable-background:new    ;}
	.st25{fill:#FBB81D;}
</style>
<path class="st0" d="M1002.7-566.5v2178.3c0,0-1041.9,500.1-1102.1,83.5c-11.5-79.8,225.4-479.8,134.6-805.8
	c-56.9-204,34.5-245.3,76.1-373.5c48.5-149.5-172-287.5-94.8-484.9c61.4-105.2,53.4-226,18.6-356.5C0.5-456-99.4-632-99.4-632
	L1002.7-566.5z"/>
<path class="st1" d="M509.6,166v-17.3h-3v12l-8.9-12h-3.1V166h3v-12.4l9,12.4H509.6z M523.6,166v-8.3c0-3.4-2.4-4.6-5.2-4.6
	c-2,0-3.8,0.6-5.3,2l1.1,1.9c1.1-1.1,2.3-1.6,3.7-1.6c1.7,0,2.9,0.9,2.9,2.3v1.9c-0.9-1.1-2.4-1.6-4.1-1.6c-2.1,0-4.4,1.2-4.4,4.1
	c0,2.8,2.3,4.2,4.4,4.2c1.7,0,3.1-0.6,4.1-1.7v1.4H523.6L523.6,166z M517.9,164.4c-1.5,0-2.7-0.9-2.7-2.2c0-1.4,1.1-2.3,2.7-2.3
	c1.2,0,2.4,0.4,3,1.3v1.9C520.3,164,519.1,164.4,517.9,164.4L517.9,164.4z M538.9,166l-5.3-6.9l5.2-5.7h-3.4l-5.5,6.1v-10.8h-2.7
	V166h2.7v-3.4l1.7-1.8l3.8,5.2L538.9,166L538.9,166z M552.1,166v-12.6h-2.7v8.8c-0.7,0.9-1.8,1.6-3.2,1.6c-1.5,0-2.5-0.6-2.5-2.5
	v-7.9h-2.7v8.9c0,2.6,1.3,4,4,4c1.7,0,3.3-0.7,4.4-2v1.7H552.1L552.1,166z M562.4,166.3c3.2,0,5.6-2.5,5.6-6.6s-2.3-6.6-5.6-6.6
	c-1.6,0-3.1,0.8-4,2v-1.7h-2.7v17.3h2.7v-6.5C559.4,165.6,560.8,166.3,562.4,166.3L562.4,166.3z M561.6,163.9
	c-1.3,0-2.6-0.8-3.2-1.7v-5c0.6-0.9,2-1.7,3.2-1.7c2.2,0,3.5,1.7,3.5,4.2C565.1,162.2,563.7,163.9,561.6,163.9z M581.8,166v-12.6
	h-2.7v8.8c-0.7,0.9-1.8,1.6-3.2,1.6c-1.5,0-2.5-0.6-2.5-2.5v-7.9h-2.7v8.9c0,2.6,1.3,4,4,4c1.7,0,3.3-0.7,4.4-2v1.7H581.8L581.8,166
	z M586.7,151.9c0.9,0,1.7-0.8,1.7-1.7s-0.8-1.7-1.7-1.7c-0.9,0-1.7,0.8-1.7,1.7S585.8,151.9,586.7,151.9z M584,171.1
	c2.8,0,4.2-1.7,4.2-4.4v-13.3h-2.7v13.3c0,1.5-0.8,2.1-1.8,2.1c-0.8,0-1.3-0.3-1.7-0.7l-0.8,2C581.9,170.8,582.5,171.1,584,171.1
	L584,171.1z M218.9,289.6v-17.3h-3v12l-8.9-12h-3.1v17.3h3v-12.4l9,12.4H218.9z M232.9,289.6v-8.3c0-3.4-2.4-4.5-5.2-4.5
	c-2,0-3.8,0.6-5.3,2l1.1,1.9c1.1-1.1,2.3-1.6,3.7-1.6c1.7,0,2.9,0.9,2.9,2.3v1.9c-0.9-1.1-2.4-1.6-4.1-1.6c-2.1,0-4.4,1.2-4.4,4.1
	c0,2.8,2.3,4.2,4.4,4.2c1.7,0,3.1-0.6,4.1-1.7v1.4L232.9,289.6L232.9,289.6z M227.2,288c-1.5,0-2.7-0.9-2.7-2.2
	c0-1.4,1.1-2.3,2.7-2.3c1.2,0,2.4,0.4,3,1.3v1.9C229.5,287.6,228.4,288,227.2,288z M239.1,285.8v-5c0.6-0.9,2-1.7,3.2-1.7
	c2.2,0,3.6,1.7,3.6,4.2s-1.4,4.2-3.6,4.2C241.1,287.5,239.7,286.7,239.1,285.8z M239.1,289.6v-1.7c1,1.2,2.4,2,4,2
	c3.2,0,5.6-2.4,5.6-6.6c0-4.1-2.3-6.6-5.6-6.6c-1.6,0-3,0.7-4,2.1v-6.5h-2.7v17.3H239.1z M257.6,271.4H255l-3.6,3.7h2L257.6,271.4z
	 M254.3,289.6V277h-2.7v12.6H254.3z M267.2,289.6v-2.4h-6.4l6.3-8.2v-2h-9.9v2.4h6.2l-6.2,8.1v2.1L267.2,289.6L267.2,289.6z
	 M276,289.9c2,0,3.8-0.6,5.1-1.8l-1.2-1.8c-0.9,0.9-2.3,1.4-3.6,1.4c-2.4,0-3.8-1.6-4-3.5h9.7v-0.6c0-4-2.4-6.8-6.2-6.8
	c-3.7,0-6.4,2.9-6.4,6.6C269.4,287.3,272.2,289.9,276,289.9L276,289.9z M279.3,282.3h-7.1c0.1-1.5,1.2-3.3,3.5-3.3
	C278.2,278.9,279.2,280.8,279.3,282.3L279.3,282.3z M286,275.5c0.9,0,1.7-0.8,1.7-1.7s-0.8-1.7-1.7-1.7c-0.9,0-1.7,0.8-1.7,1.7
	S285.1,275.5,286,275.5z M283.2,294.7c2.8,0,4.2-1.7,4.2-4.4V277h-2.7v13.3c0,1.5-0.8,2.1-1.8,2.1c-0.8,0-1.3-0.3-1.7-0.7l-0.8,2
	C281.1,294.4,281.7,294.7,283.2,294.7L283.2,294.7z M779.2,289.6v-6.5h4.6c3.6,0,5.7-2.5,5.7-5.4s-2-5.4-5.7-5.4h-7.6v17.3
	L779.2,289.6L779.2,289.6z M783.3,280.4h-4.2v-5.5h4.2c1.7,0,3,1.1,3,2.8S785,280.4,783.3,280.4L783.3,280.4z M797.5,275.6
	c1.5,0,2.6-1.2,2.6-2.7s-1.2-2.7-2.6-2.7s-2.7,1.2-2.7,2.7C794.8,274.4,796,275.6,797.5,275.6z M797.5,274.3c-0.7,0-1.3-0.6-1.4-1.4
	c0-0.7,0.6-1.3,1.4-1.4c0.8,0,1.3,0.6,1.3,1.4C798.8,273.7,798.2,274.3,797.5,274.3z M803.1,289.6V277h-2.7v8.8
	c-0.7,0.9-1.8,1.6-3.2,1.6c-1.5,0-2.5-0.6-2.5-2.5V277h-2.7v8.9c0,2.6,1.3,4,4,4c1.7,0,3.3-0.7,4.4-2v1.7L803.1,289.6L803.1,289.6z
	 M808,275.5c0.9,0,1.7-0.8,1.7-1.7s-0.8-1.7-1.7-1.7c-0.9,0-1.7,0.8-1.7,1.7S807.1,275.5,808,275.5z M805.2,294.7
	c2.8,0,4.2-1.7,4.2-4.4V277h-2.7v13.3c0,1.5-0.8,2.1-1.8,2.1c-0.8,0-1.3-0.3-1.7-0.7l-0.8,2C803.1,294.4,803.7,294.7,805.2,294.7
	L805.2,294.7z M819.9,275.1l2.4-3.7h-1.7l-1.9,2.5l-2-2.5h-1.7l2.5,3.7H819.9L819.9,275.1z M818.6,289.9c2.4,0,3.9-1,4.8-2.2
	l-1.8-1.7c-0.7,1-1.7,1.5-2.9,1.5c-2.3,0-3.8-1.7-3.8-4.2s1.5-4.2,3.8-4.2c1.2,0,2.2,0.5,2.9,1.5l1.8-1.7c-0.9-1.2-2.4-2.2-4.8-2.2
	c-3.8,0-6.5,2.8-6.5,6.6C812.1,287.1,814.8,289.9,818.6,289.9z M837,289.6V277h-2.7v8.8c-0.7,0.9-1.8,1.6-3.2,1.6
	c-1.5,0-2.5-0.6-2.5-2.5V277h-2.7v8.9c0,2.6,1.3,4,4,4c1.7,0,3.3-0.7,4.4-2v1.7L837,289.6L837,289.6z M841.9,275.5
	c0.9,0,1.7-0.8,1.7-1.7s-0.8-1.7-1.7-1.7c-0.9,0-1.7,0.8-1.7,1.7S841,275.5,841.9,275.5z M839.1,294.7c2.8,0,4.2-1.7,4.2-4.4V277
	h-2.7v13.3c0,1.5-0.8,2.1-1.8,2.1c-0.8,0-1.3-0.3-1.7-0.7l-0.8,2C837,294.4,837.7,294.7,839.1,294.7L839.1,294.7z M200.3,685.7v-6.5
	h4.6c3.6,0,5.7-2.5,5.7-5.4s-2-5.4-5.7-5.4h-7.6v17.3L200.3,685.7L200.3,685.7z M204.5,676.6h-4.2v-5.5h4.2c1.7,0,3,1.1,3,2.8
	S206.2,676.6,204.5,676.6L204.5,676.6z M215.7,685.7v-8.6c0.5-0.9,2.1-1.7,3.2-1.7c0.3,0,0.6,0,0.9,0.1v-2.7c-1.6,0-3.1,0.9-4.1,2.1
	v-1.8H213v12.6H215.7z M227.7,686c4,0,6.5-3,6.5-6.6c0-3.6-2.4-6.6-6.5-6.6c-4,0-6.4,3-6.4,6.6C221.2,683,223.7,686,227.7,686z
	 M227.7,683.6c-2.3,0-3.6-2-3.6-4.2c0-2.2,1.3-4.2,3.6-4.2c2.3,0,3.6,2,3.6,4.2C231.3,681.7,230,683.6,227.7,683.6z M248.5,685.7
	v-17.3h-2.7v6.5c-1-1.3-2.5-2.1-4-2.1c-3.2,0-5.6,2.5-5.6,6.6c0,4.1,2.4,6.6,5.6,6.6c1.6,0,3.1-0.8,4-2v1.7H248.5z M242.5,683.6
	c-2.2,0-3.5-1.7-3.5-4.2c0-2.4,1.4-4.2,3.5-4.2c1.3,0,2.6,0.8,3.2,1.7v5C245.1,682.9,243.8,683.6,242.5,683.6L242.5,683.6z
	 M262.4,685.7v-8.3c0-3.4-2.4-4.5-5.2-4.5c-2,0-3.8,0.7-5.3,2l1.1,1.9c1.1-1.1,2.3-1.6,3.7-1.6c1.7,0,2.9,0.9,2.9,2.3v1.9
	c-0.9-1.1-2.4-1.6-4.1-1.6c-2.1,0-4.4,1.2-4.4,4.1c0,2.8,2.3,4.2,4.4,4.2c1.7,0,3.1-0.6,4.1-1.7v1.4H262.4z M256.7,684.2
	c-1.5,0-2.7-0.9-2.7-2.2c0-1.4,1.1-2.3,2.7-2.3c1.2,0,2.4,0.4,3,1.3v1.9C259.1,683.7,257.9,684.2,256.7,684.2L256.7,684.2z
	 M261.8,667.5h-2.6l-3.6,3.7h1.9L261.8,667.5z M272.2,685.7l5.1-12.6h-2.9l-3.7,9.4l-3.7-9.4h-2.9l5.1,12.6H272.2L272.2,685.7z
	 M284.8,686c2,0,3.8-0.6,5.1-1.8l-1.2-1.8c-0.9,0.9-2.3,1.4-3.6,1.4c-2.4,0-3.8-1.6-4-3.5h9.7v-0.7c0-4-2.4-6.8-6.2-6.8
	c-3.7,0-6.4,2.9-6.4,6.6C278.3,683.4,281.1,686,284.8,686L284.8,686z M288.2,678.4h-7.1c0.1-1.5,1.2-3.3,3.5-3.3
	C287.1,675.1,288.1,676.9,288.2,678.4L288.2,678.4z M294.9,671.6c0.9,0,1.7-0.8,1.7-1.7s-0.8-1.7-1.7-1.7c-0.9,0-1.7,0.8-1.7,1.7
	S293.9,671.6,294.9,671.6z M292.1,690.8c2.8,0,4.2-1.7,4.2-4.4v-13.3h-2.7v13.3c0,1.5-0.8,2.1-1.8,2.1c-0.8,0-1.3-0.3-1.7-0.7
	l-0.8,2C290,690.5,290.6,690.8,292.1,690.8L292.1,690.8z M780.3,686c4.7,0,6.7-2.5,6.7-5.4c0-6.5-10.1-4.5-10.1-7.7
	c0-1.3,1.1-2.2,2.9-2.2c1.8,0,3.7,0.6,5,2l1.7-2.3c-1.6-1.6-3.8-2.4-6.5-2.4c-3.8,0-6.3,2.2-6.3,5.1c0,6.4,10.1,4.1,10.1,7.8
	c0,1.1-1,2.4-3.5,2.4c-2.4,0-4.3-1.1-5.5-2.4l-1.7,2.3C774.8,684.9,777.1,686,780.3,686L780.3,686z M795.5,686c2,0,3.8-0.6,5.1-1.8
	l-1.2-1.8c-0.9,0.9-2.3,1.4-3.6,1.4c-2.4,0-3.8-1.6-4-3.5h9.7v-0.7c0-4-2.4-6.8-6.2-6.8c-3.7,0-6.4,2.9-6.4,6.6
	C788.9,683.4,791.7,686,795.5,686L795.5,686z M798.8,678.4h-7.1c0.1-1.5,1.2-3.3,3.5-3.3C797.8,675.1,798.8,676.9,798.8,678.4z
	 M809.8,671.3l2.4-3.7h-1.7l-1.9,2.5l-2-2.5h-1.7l2.5,3.7H809.8L809.8,671.3z M813.6,685.7v-2.4h-6.4l6.3-8.2v-2h-9.9v2.4h6.2
	l-6.2,8.1v2.1H813.6z M822.4,686c2,0,3.8-0.6,5.1-1.8l-1.2-1.8c-0.9,0.9-2.3,1.4-3.6,1.4c-2.4,0-3.8-1.6-4-3.5h9.7v-0.7
	c0-4-2.4-6.8-6.2-6.8c-3.7,0-6.4,2.9-6.4,6.6C815.8,683.4,818.6,686,822.4,686L822.4,686z M825.7,678.4h-7.1
	c0.1-1.5,1.2-3.3,3.5-3.3C824.6,675.1,825.6,676.9,825.7,678.4z M837.9,671.3l2.4-3.7h-1.7l-1.9,2.5l-2-2.5H833l2.5,3.7H837.9
	L837.9,671.3z M842.2,685.7v-8.8c0-2.6-1.4-4-4.1-4c-2,0-3.6,1-4.4,2v-1.7H831v12.6h2.7V677c0.6-0.9,1.8-1.7,3.2-1.7
	c1.5,0,2.5,0.7,2.5,2.6v7.9L842.2,685.7L842.2,685.7z M497.5,812.9v-6.5h4.6c3.6,0,5.7-2.5,5.7-5.4s-2-5.4-5.7-5.4h-7.6v17.3
	L497.5,812.9L497.5,812.9z M501.6,803.8h-4.2v-5.5h4.2c1.7,0,3,1.1,3,2.8S503.4,803.8,501.6,803.8L501.6,803.8z M515.5,813.2
	c4,0,6.5-3,6.5-6.6c0-3.6-2.4-6.6-6.5-6.6c-4,0-6.4,3-6.4,6.6C509,810.2,511.5,813.2,515.5,813.2z M515.5,810.8
	c-2.3,0-3.6-2-3.6-4.2c0-2.2,1.3-4.2,3.6-4.2c2.3,0,3.6,2,3.6,4.2C519.1,808.9,517.8,810.8,515.5,810.8z M542.8,812.9v-9.1
	c0-2.5-1.3-3.8-3.6-3.8c-1.9,0-3.5,1.2-4.3,2.3c-0.4-1.4-1.6-2.3-3.4-2.3c-1.9,0-3.6,1.2-4.1,2v-1.7h-2.7v12.6h2.7v-8.8
	c0.6-0.8,1.7-1.7,2.9-1.7c1.5,0,2.1,0.9,2.1,2.3v8.2h2.7v-8.8c0.5-0.8,1.7-1.7,2.9-1.7c1.5,0,2.1,0.9,2.1,2.3v8.2H542.8z
	 M556.8,812.9v-8.3c0-3.4-2.4-4.5-5.2-4.5c-2,0-3.8,0.7-5.3,2l1.1,1.9c1.1-1.1,2.3-1.6,3.7-1.6c1.7,0,2.9,0.9,2.9,2.3v1.9
	c-0.9-1.1-2.4-1.6-4.1-1.6c-2.1,0-4.4,1.2-4.4,4.1c0,2.8,2.3,4.2,4.4,4.2c1.7,0,3.1-0.6,4.1-1.7v1.4H556.8L556.8,812.9z M551,811.4
	c-1.5,0-2.7-0.9-2.7-2.2c0-1.4,1.1-2.3,2.7-2.3c1.2,0,2.4,0.4,3,1.3v1.9C553.4,810.9,552.2,811.4,551,811.4L551,811.4z M556.2,794.7
	h-2.6l-3.6,3.7h2L556.2,794.7z M571.5,812.9V804c0-2.6-1.4-4-4.1-4c-2,0-3.6,1-4.4,2v-6.5h-2.7v17.3h2.7v-8.8
	c0.7-0.9,1.8-1.7,3.2-1.7c1.5,0,2.5,0.6,2.5,2.5v7.9L571.5,812.9L571.5,812.9z M580.9,813.2c2,0,3.8-0.6,5.1-1.8l-1.2-1.8
	c-0.9,0.9-2.3,1.4-3.6,1.4c-2.4,0-3.8-1.6-4-3.5h9.7v-0.7c0-4-2.4-6.8-6.2-6.8c-3.7,0-6.4,2.9-6.4,6.6
	C574.3,810.6,577.1,813.2,580.9,813.2L580.9,813.2z M584.2,805.6h-7.1c0.1-1.5,1.2-3.3,3.5-3.3C583.1,802.3,584.1,804.1,584.2,805.6
	z M590.9,798.8c0.9,0,1.7-0.8,1.7-1.7s-0.8-1.7-1.7-1.7c-0.9,0-1.7,0.8-1.7,1.7S590,798.8,590.9,798.8z M588.1,818
	c2.8,0,4.2-1.7,4.2-4.4v-13.3h-2.7v13.3c0,1.5-0.8,2.1-1.8,2.1c-0.8,0-1.3-0.3-1.7-0.7l-0.8,2C586,817.7,586.7,818,588.1,818
	L588.1,818z"/>
<circle class="st1" cx="539.1" cy="480.9" r="223.5"/>
<circle class="st2" cx="539.1" cy="480.9" r="277.1"/>
<g>
	<defs>
		<rect id="SVGID_1_" x="359.2" y="369" width="367" height="196.6"/>
	</defs>
	<clipPath id="SVGID_00000081614430878892456160000011543494984871440055_">
		<use xlink:href="#SVGID_1_"  style="overflow:visible;"/>
	</clipPath>
	<g style="clip-path:url(#SVGID_00000081614430878892456160000011543494984871440055_);">
		<path class="st4" d="M532.2,399.1l-0.4-0.5c0.1-0.1,11.8-9.9,28.8-14.8c15.6-4.6,39.1-5.9,61.8,13.9l-0.4,0.5
			c-22.5-19.6-45.7-18.3-61.2-13.8C543.9,389.3,532.3,399,532.2,399.1z"/>
		<path class="st5" d="M712.9,525.5c-2.4-26-12.5-45.8-38.7-60.3c-7.7-4.3-17.4-6.4-22-13.9c-4.6-7.5-2.9-17-3.8-25.7
			c-2.3-22.3-23.7-39.6-46-42s-44.6,7.8-61.5,22.5c-12.7,11.1-23.9,25.1-39.9,30.3c-26.5,8.5-55.2-10.5-82.4-4.5
			c-14.6,3.2-26.9,13.4-35.8,25.4c-15,20.1-18.7,45.4-14.1,70c2.5,13.5,8.6,27.1,17.4,37.6l314.7-0.7
			C710,555,713.9,536.6,712.9,525.5L712.9,525.5z"/>
		<path class="st5" d="M487.4,425.1c13.4,0,24.3-10.9,24.3-24.3c0-13.4-10.9-24.3-24.3-24.3s-24.3,10.9-24.3,24.3
			C463.1,414.2,474,425.1,487.4,425.1z M535,386.2c3.9-3.9,3.9-10.3,0-14.3c-3.9-3.9-10.3-3.9-14.3,0c-3.9,3.9-3.9,10.3,0,14.3
			C524.7,390.1,531.1,390.1,535,386.2z M689.3,456.6c3.9-3.9,3.9-10.3,0-14.3c-3.9-3.9-10.3-3.9-14.3,0c-3.9,3.9-3.9,10.3,0,14.3
			C679,460.5,685.4,460.5,689.3,456.6z"/>
		<path class="st4" d="M711.4,564.6l-0.6-0.3c11.8-22.3,13.1-46.2,3.4-65.7c-10.1-20.5-30.8-34.3-58.2-38.8l0.1-0.6
			c27.6,4.6,48.5,18.5,58.7,39.2C724.6,518,723.3,542.1,711.4,564.6L711.4,564.6z M387.9,565.6c-14.2-15.3-23.6-33.8-27.2-53.4
			c-3.3-18.3-1.2-36.4,6-51c11.1-22.6,32.5-34.3,58.7-32l-0.1,0.6c-26-2.3-47.1,9.3-58.1,31.6c-7.1,14.5-9.2,32.5-5.9,50.6
			c3.5,19.5,12.9,37.8,27,53.1L387.9,565.6L387.9,565.6z"/>
		<path class="st6" d="M481,517.2h-84.6v47.6H481V517.2z"/>
		<path class="st7" d="M426.8,517.2h-30.3v47.6h30.3V517.2z"/>
		<path class="st8" d="M442.8,517.2v11.6h7.9v-11.6H442.8z"/>
		<path class="st9" d="M604,465.4H464.3v99.5H604V465.4L604,465.4z"/>
		<path class="st10" d="M617.6,430.2h-25.8v-23.6c0-4.8,3.8-8.6,8.6-8.7c0,0,0,0,0,0c4.8,0,8.6,3.8,8.7,8.6c0,0,0,0,0,0v15.7l0,0
			C609.4,426.7,613.1,430.2,617.6,430.2z"/>
		<path class="st11" d="M626.2,416.4v5.2c0,4.8-3.9,8.6-8.6,8.6c-2.1,0-4.1-0.8-5.7-2.2c-1.7-1.5-2.7-3.6-2.9-5.8L626.2,416.4
			L626.2,416.4z M600.4,398c-0.2,0-0.4,0-0.5,0c-0.1,0-0.2,0-0.3,0s-0.2,0-0.4,0c-0.1,0-0.1,0-0.2,0c-0.1,0-0.2,0-0.3,0.1
			c-0.1,0-0.3,0.1-0.4,0.1c-0.2,0-0.4,0.1-0.6,0.2c-0.1,0-0.2,0.1-0.3,0.1l-0.3,0.1c-0.1,0-0.2,0.1-0.4,0.2c-0.1,0-0.2,0.1-0.3,0.2
			c-0.1,0.1-0.2,0.1-0.4,0.2c-0.4,0.2-0.7,0.4-1,0.7c-0.1,0.1-0.2,0.2-0.3,0.2c-0.1,0.1-0.2,0.2-0.3,0.3s-0.2,0.2-0.3,0.3
			c-0.3,0.3-0.5,0.5-0.7,0.8c-0.1,0.1-0.2,0.3-0.3,0.4c-0.3,0.4-0.5,0.9-0.8,1.4c-0.1,0.1-0.1,0.2-0.2,0.4c-0.1,0.4-0.3,0.8-0.3,1.2
			c-0.1,0.4-0.2,0.8-0.2,1.2v120.9H476.6V411.4c0-7.4,6-13.4,13.4-13.4L600.4,398L600.4,398z"/>
		<path class="st10" d="M577.7,410.3h-87.4v4.6h87.4V410.3z M570.9,423.8h-80.6v4.6h80.6V423.8z M566.6,437.3h-76.4v4.6h76.4V437.3z
			 M577.7,450.7h-87.4v4.6h87.4V450.7z M571.4,464.4H524v4.6h47.4L571.4,464.4L571.4,464.4z"/>
		<path class="st9" d="M533.6,490.2c-0.5,0-1-0.2-1.3-0.6c-0.4-0.6-0.4-1.3-0.4-1.8l0.4-11.9l0.7,0l-0.4,11.9c0,0.6,0,1.1,0.2,1.4
			c0.6,0.8,1.9,0.1,2.2,0c1.3-0.7,2.3-2,3.2-3.3c1-1.4,2.1-2.9,3.7-3.6c0.9-0.4,1.6,0.2,2.2,0.7c0.3,0.3,0.6,0.5,0.9,0.6
			c0.8,0.2,1.7,0,2.5-0.2c0.8-0.2,1.6-0.4,2.4-0.3c0.8,0.1,1.4,0.4,2,0.7c0.9,0.4,1.6,0.8,2.7,0.5c1.5-0.4,2.9-1.2,4.3-2
			c0.4-0.2,0.8-0.5,1.2-0.7c1.5-0.9,3.8-2,6.1-1.5l-0.1,0.6c-2-0.5-4.2,0.6-5.6,1.4c-0.4,0.2-0.8,0.5-1.2,0.7
			c-1.4,0.9-2.8,1.7-4.4,2.1c-1.3,0.3-2.3-0.1-3.2-0.6c-0.5-0.3-1.1-0.5-1.8-0.6c-0.7-0.1-1.4,0.1-2.1,0.3c-0.9,0.2-1.9,0.5-2.9,0.2
			c-0.5-0.1-0.8-0.5-1.2-0.8c-0.6-0.5-1-0.8-1.5-0.6c-1.4,0.6-2.4,2-3.4,3.4c-1,1.4-2,2.8-3.4,3.5
			C534.7,490,534.1,490.2,533.6,490.2L533.6,490.2z"/>
		<path class="st10" d="M591.8,469.5v57.3H476.6v-62.3l36,29.9c2,1.7,4.6,2.3,7.2,1.9c0.8-0.1,1.5-0.1,2.3-0.1l24.5,0.7
			c0.8,0,1.7,0.1,2.5,0.3c2.5,0.6,5.2,0,7.3-1.5L591.8,469.5L591.8,469.5z"/>
		<path class="st12" d="M516.9,506.6l-1,1.1l-43.4,48.1l-8.2,9.1v-99.5L516.9,506.6L516.9,506.6z M604,465.4l-52.5,41.2l52.5,58.2
			V465.4L604,465.4z"/>
		<path class="st9" d="M515.9,507.7l-43.4,48.1l-8.2,1.8v-17.7c21.7-15.5,46-33.5,51.5-33.9L515.9,507.7L515.9,507.7z M552.5,507.7
			l43.4,48.1l8.2,1.8v-17.7c-21.7-15.5-46-33.5-51.5-33.9L552.5,507.7L552.5,507.7z"/>
		<path class="st12" d="M604,564.9H464.3l0-13.1l48.1-43.7c2.5-2.3,5.8-3.6,9.2-3.6h24.5c3.4,0,6.6,1.2,9.1,3.5l48.8,43.3L604,564.9
			z"/>
		<path class="st13" d="M611.7,557.8c9.4-9.4,9.4-24.6,0-33.9c-9.4-9.4-24.6-9.4-33.9,0c-9.4,9.4-9.4,24.6,0,33.9
			C587.2,567.2,602.3,567.2,611.7,557.8z"/>
		<path class="st14" d="M618.9,557.8c9.4-9.4,9.4-24.6,0-33.9c-9.4-9.4-24.6-9.4-33.9,0c-9.4,9.4-9.4,24.6,0,33.9
			S609.6,567.2,618.9,557.8z"/>
		<path class="st1" d="M601.5,553.9c-1.1,0-2.2-0.5-3-1.3l-8.5-9.4c-0.7-0.8-0.7-2.1,0.1-2.8c0.8-0.7,2.1-0.7,2.8,0.1l0,0l8.5,9.4
			c0,0,0.1,0,0.1,0c0,0,0.1,0,0.1-0.1l9.1-20.8c0.4-1,1.6-1.4,2.6-1c1,0.4,1.4,1.6,1,2.6l-9.1,20.8
			C604.5,552.9,603.1,553.9,601.5,553.9L601.5,553.9L601.5,553.9z"/>
		<path class="st9" d="M435.5,504l0.8,13.3h20.4l-9.2-7.6l-0.5-5.7l-3.6-3.5L435.5,504L435.5,504z M411,498.1l-3.3,11.8l16.8,7.3
			l-4.9-11.2l1.2-5l-4.2-5.5L411,498.1L411,498.1z"/>
		<path class="st15" d="M417.5,439.3c0,0-2,8.2-1.3,26.3c0,0-5.8,20.3-5.1,32.4l9.8,3c5.1-11.4,9.3-22.3,11.5-32.3
			c1.1-3.5,1.1-7.3-0.1-10.8l-4.7-14.3L417.5,439.3L417.5,439.3z"/>
		<path class="st16" d="M448.4,466l-1.5,38h-11.4c-3-12.4-4.1-22.9-4.5-30c-0.3-6-0.1-9.4-0.1-9.4c-7.3-8.6-11.7-14.9-14.2-19.5
			c-3.8-6.9-3.5-10.2-3.1-12.5c0.6-3.1,2.6-7.1,3.9-9.6c0.8-1.4,1.3-2.3,1.3-2.3l19.1,6.1l-2.3,8.2l0,0.1c-0.3,1.2-0.2,2.6,0.5,3.7
			l10,17.4C447.7,459.3,448.5,462.6,448.4,466L448.4,466z"/>
		<path class="st15" d="M442.5,504.2L442.5,504.2c-0.2,0-0.3-0.1-0.2-0.3c0-0.4,2.4-38.1-0.4-44.1c-0.5-1.1-1.3-2.4-2.3-4
			c-4-6.5-10.8-17.5-9.4-33.2c0-0.1,0-0.1,0.1-0.2c0.1,0,0.1-0.1,0.2-0.1c0.1,0,0.2,0.1,0.2,0.3c-1.4,15.6,5.3,26.4,9.3,32.9
			c1,1.6,1.8,2.9,2.3,4c2.8,6.1,0.6,42.8,0.5,44.4c0,0.1,0,0.1-0.1,0.2C442.6,504.2,442.5,504.2,442.5,504.2L442.5,504.2z"/>
		<path class="st17" d="M437.9,426.9l-2.3,8.2c-8.8-3.6-15.1-9.1-18.1-12.1c0.8-1.4,1.3-2.3,1.3-2.3L437.9,426.9z"/>
		<path class="st1" d="M441.1,510.2l-0.2-3.3l6.3-0.1c0.1,0,0.1,0,0.2,0.1c0,0,0.1,0.1,0.1,0.2c0,0.1-0.1,0.2-0.1,0.2
			c0,0-0.1,0-0.1,0l-5.8,0.1l0.1,2.3l5.8-0.3c0.1,0,0.1,0,0.2,0.1c0,0,0.1,0.1,0.1,0.2c0,0.1-0.1,0.3-0.2,0.3L441.1,510.2
			L441.1,510.2z M419.6,506.3C419.6,506.3,419.5,506.3,419.6,506.3l-5.5-1.7l1.3-3.1l4.8,1.7c0.1,0,0.1,0.1,0.1,0.1
			c0,0.1,0,0.1,0,0.2c0,0.1-0.2,0.2-0.3,0.1c0,0,0,0,0,0l-4.3-1.6l-1,2.2l4.9,1.6c0.1,0,0.1,0.1,0.1,0.1c0,0,0,0.1,0,0.2
			C419.8,506.2,419.7,506.3,419.6,506.3L419.6,506.3L419.6,506.3z"/>
		<path class="st18" d="M444.6,390.5l-0.4,1.3l-1.4,5.4l-1,3.6l-8.5-3.1l4.1-8.4l2-2.9L444.6,390.5L444.6,390.5z"/>
		<path class="st9" d="M444.3,391.8l-1.4,5.4c-2.5-2.7-2-6.1-2-6.1L444.3,391.8z"/>
		<path class="st18" d="M451,382.9c0,0-0.5,12.2-6.7,11.1c-6.1-1-6-11.5-6-11.5l8-2.6L451,382.9z"/>
		<path class="st9" d="M442.5,384.8c0,0,3.5-3.6,8.5-1.8c0,0,2.2,0.9,3.1-0.9c0,0-7.1-9.4-12.6-4.8c0,0-9.9,2.2-4,12.1L442.5,384.8
			L442.5,384.8z"/>
		<path class="st18" d="M442.9,387.2c1-0.2,1.7-1.3,1.5-2.4c-0.2-1.2-1.2-2-2.2-1.8c-1,0.2-1.7,1.3-1.5,2.4
			C440.9,386.5,441.9,387.3,442.9,387.2z M451.2,389.2c0.1-0.6-0.2-1.2-0.8-1.3c-0.6-0.1-1.2,0.2-1.3,0.8c0,0,0,0.1,0,0.1
			c-0.1,0.6,0.4,1.1,1,1.2C450.6,390.1,451.1,389.8,451.2,389.2z"/>
		<path class="st19" d="M445.9,389.8c1,0,1.9-0.8,1.9-1.9c0-1-0.8-1.9-1.9-1.9c0,0,0,0,0,0c-1,0-1.9,0.8-1.9,1.9
			C444,389,444.9,389.8,445.9,389.8z"/>
		<path class="st18" d="M481.4,407.6c0,0,1.1,1.6-1.2,3.1c0,0,1.8,1.3-4.5,3.3c-0.7,0.2-1.5,0.5-2.4,0.7l-2.5-9.2
			c0,0,11.3-3.8,11.6-2.6c0.3,1.2-2,2.9-2,2.9S484.3,404.8,481.4,407.6L481.4,407.6z"/>
		<path class="st20" d="M470.7,405.5l-13.4,1.7c0,0-19.2-13.7-23.2-12.4c-3.9,1.3-17.3,22.7-17.3,22.7s-3.6,1.2-3.5,2.6
			c0.2,1.5,23.5,13.6,26.6,10.5c2-1.9,4.2-17.3,4.2-17.3l8.5,3.5c2.5,1,5.3,1.3,8,0.7l12.5-2.8L470.7,405.5L470.7,405.5z"/>
		<path class="st21" d="M469.9,413.8c-0.5-1.8-0.9-3.5-1.3-5.2c-0.1-0.5-0.2-0.9-0.3-1.4c-0.1-0.4-0.2-0.8-0.3-1.2l-0.5,0.1
			c0.1,0.4,0.2,0.8,0.3,1.3c0.1,0.5,0.2,1,0.3,1.4c0.4,1.7,0.9,3.4,1.3,5.2l0.4,1.6l0.5-0.1C470.2,414.9,470,414.3,469.9,413.8z
			 M447,400.4c-0.2,0-0.4,0.1-0.6,0.1c-3.7,0.8-7.7,1.4-11.5,0.7c-1.9-0.3-3.7-1-5.3-2l-0.3,0.4c1.7,1,3.6,1.7,5.5,2.1
			c4,0.7,8,0,11.7-0.7c0.4-0.1,0.7-0.2,1.1-0.2L447,400.4z M441.9,424.1c-1.1,0.1-2.3,0.2-3.4,0.1c-3.3-0.3-6.2-2.3-8.1-3.9
			c-0.7-0.5-1.3-1.1-2-1.6c-1.7-1.4-3.4-2.9-5.4-4c-1.1-0.6-2.2-1.1-3.4-1.3c-0.1,0.1-0.2,0.3-0.3,0.4c1.2,0.3,2.4,0.7,3.4,1.3
			c1.9,1.1,3.6,2.5,5.3,3.9c0.7,0.6,1.3,1.1,2,1.7c2,1.5,4.9,3.6,8.4,4c1.2,0.1,2.3,0,3.5-0.1c0.1,0,0.2,0,0.3,0
			c0-0.2,0.1-0.3,0.1-0.5C442.2,424.1,442.1,424.1,441.9,424.1L441.9,424.1z"/>
		<path class="st22" d="M444.3,413.4l-3.5-1.5c0,0,0.9,5.5,2.6,6.3L444.3,413.4z"/>
		<path class="st23" d="M475.7,414c-0.7,0.2-1.5,0.5-2.4,0.7l-2.5-9.2L475.7,414L475.7,414z M627.8,469.6l8.1,3.6l6-19.8l-7.9-2.1
			C631.9,456.1,629.8,462,627.8,469.6z"/>
		<path class="st9" d="M634,451.4l7.9,2.1l6.7-18.4C648.5,435.1,640.4,434,634,451.4z M624.4,462.8l-5.8,16l21.7,8.3l4.4-16.7
			L624.4,462.8L624.4,462.8z"/>
		<path class="st23" d="M631.6,484.1c-0.2,0.5-1.5,1-2.3,0.3c-1.6-0.3-2.7-0.5-3.7-1.6c-0.9-0.4-1.3-1.3-0.9-2.2
			c0.8-1.6,2-3.9,2.6-3.8c0.7,0.1,0.2,2.4,0.2,2.4s1.2-2.9,2.4-2.5c0.5,0.2-0.7,2.9-0.9,3.2c0.2-0.3,1.8-2.4,2.4-1.9
			c0.6,0.4-0.9,2.9-1,3.2c0.2-0.2,1.5-1.9,2.2-1.3C632.8,480.1,632.4,481.8,631.6,484.1L631.6,484.1z"/>
		<path class="st9" d="M672.3,539.2c0,0,10.5-1.2,15-10.8l-11.7,0.7L672.3,539.2L672.3,539.2z"/>
		<path class="st23" d="M683.9,528.4l-10.1,6.2l4.5,6.7l9.7-6.6L683.9,528.4z"/>
		<path class="st9" d="M694.3,544.1l-6.2-9.4l-9.7,6.6l1.7,2.4l-1,13L694.3,544.1L694.3,544.1z"/>
		<path class="st1" d="M684.9,543.2l-4.9,0.3l0,0.7l4.9-0.3L684.9,543.2z"/>
		<path class="st23" d="M655.2,546.2l-11.1-0.7v9l11.9-0.8L655.2,546.2L655.2,546.2z"/>
		<path class="st9" d="M644.2,554.5v2.1l-8.3,8.3h21.5l-1.2-11.2L644.2,554.5z"/>
		<path class="st1" d="M644.1,556.4l-0.3,0.6l4.7,2.7l0.3-0.6L644.1,556.4z"/>
		<path class="st16" d="M654.7,489c-0.2,4.1-0.2,8.4-0.1,12.7c0.1,3.8,0.2,7.5,0.4,11.2c0.9,18.4,3.1,34.7,3.1,34.7l-17.1,2.2
			c-8.1-56.5-2.8-80.4-2.8-80.4l7.4-1.5l6.6-1.3l7.4-1.5c-0.1,0.1-0.2,0.3-0.3,0.4c-1.1,1.8-2,4.3-2.7,7.2
			C655.5,477.2,654.9,482.8,654.7,489L654.7,489z"/>
		<path class="st15" d="M654.9,512.9c-7.2-15.2-4.5-27.3-4.5-27.3l4.2,3.4c-0.2,4.1-0.2,8.4-0.1,12.7
			C654.6,505.4,654.7,509.2,654.9,512.9z"/>
		<path class="st16" d="M687.3,528.3c-8.2,3.1-15,10.8-15,10.8c-7.1-12.5-13.1-25.1-17.8-37.5c-3.9-10.3-6.7-20.4-8.4-30.2
			c-0.2-1.2-0.4-2.4-0.6-3.6c0-0.1,0-0.2-0.1-0.3l6.7-1l7.2-1.1l3.6-0.5c0.4,2.3,0.9,4.7,1.5,7.2
			C670.7,496.8,687.3,528.3,687.3,528.3z"/>
		<path class="st21" d="M672.8,496.8l-0.3-0.8c-1.3-0.9-2.6-1.8-3.7-2.9c-3.1-3.2-4.7-7.9-4.1-12.3c0.2-1.4,0.6-2.7,1.1-3.9
			l-0.2-0.7c-0.7,1.4-1.2,3-1.4,4.6c-0.6,4.6,1,9.4,4.2,12.7C669.7,494.7,671.2,495.8,672.8,496.8z M681.4,516.4
			c-0.1-0.1-0.1-0.3-0.2-0.4c-1.8,0.7-4,0.9-6.2,1c-2.3,0.1-4.6,0.3-6.7,1.1c-2.1,0.8-3.7,2.3-4.9,4.1l0.3,0.5
			c1.1-1.8,2.7-3.3,4.8-4.1c2-0.8,4.3-0.9,6.5-1C677.2,517.3,679.5,517.2,681.4,516.4z M642,514.6c5.5,2.8,9.9,7.4,13.8,11.8
			c0-0.3,0-0.5-0.1-0.8c-3.8-4.3-8.2-8.7-13.5-11.4c-1.7-0.8-3.4-1.5-5.2-1.9l0,0.5C638.8,513.1,640.5,513.7,642,514.6L642,514.6z
			 M657.1,539.9c-1.4,0.3-2.9,0.2-4.1,0c-1.3-0.3-2.5-0.8-3.8-1.3c-1.3-0.5-2.6-1-4-1.3c-2-0.4-4-0.4-5.9,0.1l0.1,0.5
			c1.9-0.5,3.9-0.5,5.8-0.1c1.4,0.3,2.7,0.8,4,1.3c1.2,0.5,2.5,1,3.8,1.3c1.4,0.3,2.9,0.4,4.3,0.1
			C657.2,540.2,657.2,540.1,657.1,539.9z M640.5,493.6c0.2,3.4-1.4,6.8-4,9.1c0,0.2,0,0.4,0,0.6c2.9-2.3,4.6-6,4.4-9.7
			c-0.2-3.3-1.9-6.4-4.4-8.5c0,0.2,0,0.4,0,0.6C638.9,487.7,640.4,490.6,640.5,493.6z"/>
		<path class="st24" d="M664.5,472.1c-2.6,0.4-5.2,0.6-7.9,0.6c-3.5-0.1-7-0.5-10.5-1.2c-4.8-0.9-8-2.1-8-2.1l7.4-1.5
			c0-0.1,0-0.2-0.1-0.3l6.7-1l7.4-1.5c-0.1,0.1-0.2,0.3-0.3,0.4l3.6-0.5C663.3,467.2,663.8,469.6,664.5,472.1L664.5,472.1z"/>
		<path class="st15" d="M654.5,502c-0.1,0-0.3-0.1-0.3-0.2l-4.7-13.4l-5.7-3.4c-0.1-0.1-0.2-0.3-0.1-0.5c0-0.1,0.1-0.1,0.2-0.1
			c0.1,0,0.2,0,0.2,0l5.9,3.6l4.8,13.6c0,0.1,0,0.3-0.1,0.4c0,0-0.1,0.1-0.1,0.1C654.6,502,654.6,502,654.5,502L654.5,502z
			 M665.7,467.4c-11,4.2-29.9,1.8-29.9,1.8c0.8-8,0.8-31.7,13.1-34.6l5.5,0.6c2.9,1.1,5.1,5.4,6.8,10.6c1,3,1.8,6.4,2.5,9.5
			C665.2,461.8,665.7,467.4,665.7,467.4L665.7,467.4z"/>
		<path class="st9" d="M663.8,455.3c-5.2-3-6.3-9.8-6.3-9.8l3.8,0.3C662.3,448.8,663.2,452.2,663.8,455.3z"/>
		<path class="st15" d="M654.5,435.2l-0.7,10.6l11.3,6l2.3-11C657.4,435,654.5,435.2,654.5,435.2z"/>
		<path class="st23" d="M676,449.8c-0.3,0.4-0.6,0.8-0.9,1.1c-0.6,0.6-1.4,1.2-2.2,1.6c-2.2,1.1-4.8,1-7-0.1l-0.9-0.5l2.3-11
			c0.6,0.4,1.2,0.7,1.9,1.2c0,0,9-12.7,9.6-12.4c0.6,0.2-0.4,2.2-0.6,2.6c0.4-0.6,3.3-4.8,4.1-4.5c0.6,0.2-0.2,2.1-0.3,2.4
			c0.2-0.3,1.7-2.5,2.7-2c0.4,0.3-1.2,2.7-1.4,3c0.2-0.2,2.1-2,2.5-1.5c0.5,0.5-1.3,2.7-1.5,2.9c0.2-0.2,1.8-1.6,2.3-0.9
			C687.3,432.5,679.1,445,676,449.8L676,449.8z"/>
		<path class="st19" d="M675.1,450.9c-0.6,0.6-1.4,1.2-2.2,1.6c-1.2,0.6-2.5,0.8-3.8,0.8c-0.1-0.2-0.1-0.5-0.1-0.7
			c0-1.8,1.5-3.2,3.3-3.2C673.5,449.3,674.5,449.9,675.1,450.9L675.1,450.9z"/>
		<path class="st10" d="M647.7,467c-4.9,0-9.2-0.3-11.3-0.5l-0.3,0c-0.1,0-0.2-0.1-0.2-0.3c0-0.1,0.1-0.2,0.2-0.2l0.3,0
			c4.9,0.4,21.3,1.5,28.8-2c0.1,0,0.1,0,0.2,0c0.1,0,0.1,0.1,0.1,0.1c0.1,0.1,0,0.3-0.1,0.3C661.1,466.5,654,467,647.7,467
			L647.7,467z M650.3,442.1c-2.6,0-3.8-1.7-3.8-1.8c-0.1-0.1,0-0.3,0.1-0.3c0.1,0,0.1,0,0.2,0c0.1,0,0.1,0,0.2,0.1
			c0.1,0.1,2.1,3.2,7.3,0.4c0.1-0.1,0.3,0,0.3,0.1c0,0.1,0,0.1,0,0.2c0,0,0,0.1,0,0.1c0,0,0,0-0.1,0.1
			C652.8,441.8,651.4,442.1,650.3,442.1L650.3,442.1z"/>
		<path class="st25" d="M658.9,414.6c1.4-0.8,3.2-0.8,4.5,0.2c0.6,0.5,1,1.3,1.6,1.9c1.3,1.2,3.2,1.5,4.5,2.8c0.9,1,1.3,2.4,1.2,3.8
			c-0.1,1.4-0.6,2.7-1.1,3.9c-0.7,1.8-1.6,3.7-3,5c-0.6,0.5-1.2,0.9-1.9,1.1s-1.5,0.1-2.1-0.4c-0.6-0.5-0.9-1.3-1-2.1
			c-0.1-0.8,0.1-1.6,0.3-2.3c0.6,0.4,1.4,0.2,1.7-0.4c0,0,0-0.1,0.1-0.1c0.1-0.2,0.1-0.4,0.1-0.7c-0.1-0.8-0.9-1.3-1.6-1.7l-3.4-1.9
			c-0.7-0.4-1.4-0.7-1.9-1.3c-0.8-1-1.5-3.1-1-4.3C656.5,416.7,657.6,415.3,658.9,414.6L658.9,414.6z"/>
		<path class="st20" d="M645.3,421c0,0-0.1-7.8,9.6-5.7c1.6,0.3,3.1,1.2,4.1,2.5c1.6,2,2.6,10.1-1.9,12.4
			C651.4,433,645.3,421,645.3,421z"/>
		<path class="st23" d="M655.3,427.6l-0.2,7.8c-0.1,2-1.6,3.6-3.6,3.7c-0.1,0-0.1,0-0.2,0c-2.1,0-3.8-1.7-3.8-3.8c0-0.1,0-0.2,0-0.3
			l0-0.1l0.5-5.9l0.7-0.1L655.3,427.6L655.3,427.6z"/>
		<path class="st9" d="M652,430.4c-0.9,2-2.5,3.6-4.5,4.5l0.5-5.9l0.7-0.1L652,430.4L652,430.4z"/>
		<path class="st23" d="M645.3,421c0,0-2.5,10.3,2.7,10.8c5.2,0.5,7.3-4.2,7.3-4.2l0.7-5.8l-3.2-4.6l-5.1,1.6L645.3,421z"/>
		<path class="st20" d="M645.3,421c0,0,4.8-2.7,6.5,0.9c1.2,2.5,3,3.9,4.8,3s0.3-6.7,0.3-6.7l-6.7-1.7l-4,2.3L645.3,421L645.3,421z"
			/>
		<path class="st23" d="M656.8,426.1c0.6-1.1,0.4-2.4-0.5-2.9s-2.1-0.1-2.7,1c-0.6,1.1-0.4,2.4,0.5,2.9
			C655,427.6,656.2,427.2,656.8,426.1z"/>
		<path class="st9" d="M654.7,426.1L654.7,426.1c-0.1,0-0.1,0-0.1-0.1c0,0,0-0.1,0-0.1c0-0.6,0.4-1.7,1.5-1.7c0,0,0.1,0,0.1,0
			c0,0,0.1,0.1,0.1,0.1c0,0.1-0.1,0.2-0.2,0.2c0,0,0,0,0,0c-1.1,0-1.2,1.3-1.2,1.4c0,0,0,0.1-0.1,0.1
			C654.8,426,654.8,426.1,654.7,426.1L654.7,426.1z M646.1,424.7c0,0.2-0.2,0.4-0.4,0.4c-0.2,0-0.4-0.2-0.4-0.4c0,0,0,0,0-0.1
			c0-0.2,0.2-0.4,0.4-0.4C645.9,424.3,646,424.5,646.1,424.7z M648.9,425.1c0.3,0,0.5-0.2,0.5-0.4c0-0.3-0.2-0.5-0.4-0.5
			c0,0,0,0,0,0c-0.3,0-0.5,0.2-0.4,0.5C648.4,424.9,648.6,425.1,648.9,425.1z M646.9,427.2c-0.4,0-0.6-0.1-0.7-0.3
			c-0.3-0.6,0.4-1.7,0.6-1.9c0.1-0.1,0.2-0.1,0.2,0c0,0,0.1,0.1,0.1,0.1c0,0,0,0.1,0,0.1c-0.4,0.6-0.7,1.3-0.6,1.6
			c0.1,0.1,0.2,0.2,0.5,0.2h0c0.1,0,0.2,0.1,0.2,0.2C647.2,427.2,647.1,427.2,646.9,427.2L646.9,427.2L646.9,427.2z"/>
		<path class="st19" d="M651.7,427.9c0.7-0.3,1.1-1.2,0.7-1.9c-0.3-0.7-1.1-1.1-1.9-0.8c-0.7,0.3-1.1,1.2-0.7,1.9
			C650.2,427.8,651,428.2,651.7,427.9z"/>
		<path class="st9" d="M647.1,428.7c-0.3,0-0.5-0.1-0.8-0.2c0,0-0.1-0.1-0.1-0.1c0-0.1,0-0.1,0.1-0.2c0,0,0.1,0,0.1,0c0,0,0,0,0.1,0
			c0,0,0.9,0.5,1.8-0.4c0,0,0,0,0.1,0c0.1,0,0.1,0,0.2,0c0,0,0,0,0,0.1c0,0,0,0,0,0.1c0,0,0,0,0,0.1c0,0,0,0,0,0.1
			C648.2,428.4,647.7,428.6,647.1,428.7L647.1,428.7z M646.6,423.8c-0.3-0.1-0.6-0.1-0.8-0.2c-0.1,0-0.3,0-0.4,0
			c-0.1,0-0.3,0.1-0.4,0.2h0c0,0-0.1,0-0.1,0c0,0,0,0,0,0c0,0,0,0,0,0c0,0,0-0.1,0-0.1c0.1-0.2,0.2-0.3,0.4-0.4
			c0.2-0.1,0.4-0.1,0.6-0.1c0.4,0,0.7,0.2,0.9,0.5c0,0,0,0,0,0.1c0,0,0,0,0,0C646.7,423.7,646.6,423.7,646.6,423.8
			C646.6,423.8,646.6,423.8,646.6,423.8L646.6,423.8L646.6,423.8z M647.8,423.6c0.2-0.4,0.7-0.7,1.1-0.7c0.2,0,0.5,0,0.7,0.2
			c0.2,0.1,0.4,0.3,0.5,0.5c0,0,0,0,0,0.1c0,0,0,0.1-0.1,0.1c0,0,0,0-0.1,0h0c-0.2-0.1-0.3-0.2-0.5-0.2c-0.2-0.1-0.3-0.1-0.5-0.1
			c-0.3,0-0.7,0.2-1,0.4l0,0c0,0,0,0-0.1,0c0,0,0,0-0.1,0C647.8,423.7,647.8,423.7,647.8,423.6C647.8,423.6,647.8,423.6,647.8,423.6
			z M726.2,564.6H361.4v0.7h364.8V564.6z"/>
	</g>
</g>
</svg>
