<?xml version="1.0" encoding="utf-8"?>
<!-- Generator: Adobe Illustrator 26.5.0, SVG Export Plug-In . SVG Version: 6.00 Build 0)  -->
<svg version="1.1" id="Vrstva_1" xmlns="http://www.w3.org/2000/svg" xmlns:xlink="http://www.w3.org/1999/xlink" x="0px" y="0px"
	 viewBox="0 0 972.2 1078" style="enable-background:new 0 0 972.2 1078;" xml:space="preserve">
<style type="text/css">
	.st0{fill:#6DC400;}
	.st1{fill:#FFFFFF;}
	.st2{fill:none;stroke:#FFFFFF;stroke-width:4.543;stroke-linecap:round;stroke-linejoin:round;stroke-dasharray:0.91,18.17;}
	.st3{clip-path:url(#SVGID_00000165955989458876060690000014466243612748790447_);}
	.st4{fill:#E6E6E6;}
	.st5{fill:#E0E0E0;}
	.st6{fill:#FAFAFA;}
	.st7{fill:#F5F5F5;}
	.st8{fill:#F0F0F0;}
	.st9{fill:#E58A7B;}
	.st10{fill:#6BAA66;}
	.st11{opacity:0.2;enable-background:new    ;}
	.st12{fill:#E8ECF1;}
	.st13{fill:#263238;}
	.st14{fill:#CF6F64;}
	.st15{fill:#DF5753;}
	.st16{opacity:0.56;fill:#FAFAFA;enable-background:new    ;}
	.st17{opacity:7.000000e-02;fill:#6BAA66;enable-background:new    ;}
	.st18{opacity:0.47;fill:#6BAA66;enable-background:new    ;}
	.st19{opacity:0.1;fill:#FFFFFF;enable-background:new    ;}
	.st20{opacity:0.6;enable-background:new    ;}
	.st21{opacity:0.4;enable-background:new    ;}
	.st22{opacity:0.4;fill:#FFFFFF;enable-background:new    ;}
	.st23{opacity:0.3;fill:#FFFFFF;enable-background:new    ;}
</style>
<path class="st0" d="M1002.7-566.5v2178.3c0,0-1041.9,500.1-1102.1,83.5c-11.5-79.8,225.4-479.8,134.6-805.8
	c-56.9-204,34.5-245.3,76.1-373.5c48.5-149.5-172-287.5-94.8-484.9c61.4-105.2,53.4-226,18.6-356.5C0.5-456-99.4-632-99.4-632
	L1002.7-566.5z"/>
<path class="st1" d="M509.7,166v-17.3h-3v12l-8.9-12h-3.1V166h3v-12.4l9,12.4H509.7z M523.7,166v-8.3c0-3.4-2.4-4.6-5.2-4.6
	c-2,0-3.8,0.6-5.3,2l1.1,1.9c1.1-1.1,2.3-1.6,3.7-1.6c1.7,0,2.9,0.9,2.9,2.3v1.9c-0.9-1.1-2.4-1.6-4.1-1.6c-2.1,0-4.4,1.2-4.4,4.1
	c0,2.8,2.3,4.2,4.4,4.2c1.7,0,3.1-0.6,4.1-1.7v1.4H523.7L523.7,166z M517.9,164.4c-1.5,0-2.7-0.9-2.7-2.2c0-1.4,1.1-2.3,2.7-2.3
	c1.2,0,2.4,0.4,3,1.3v1.9C520.3,164,519.1,164.4,517.9,164.4L517.9,164.4z M539,166l-5.3-6.9l5.2-5.7h-3.4l-5.5,6.1v-10.8h-2.7V166
	h2.7v-3.4l1.7-1.8l3.8,5.2L539,166L539,166z M552.1,166v-12.6h-2.7v8.8c-0.7,0.9-1.8,1.6-3.2,1.6c-1.5,0-2.5-0.6-2.5-2.5v-7.9h-2.7
	v8.9c0,2.6,1.3,4,4,4c1.7,0,3.3-0.7,4.4-2v1.7H552.1L552.1,166z M562.4,166.3c3.2,0,5.6-2.5,5.6-6.6s-2.3-6.6-5.6-6.6
	c-1.6,0-3.1,0.8-4,2v-1.7h-2.7v17.3h2.7v-6.5C559.4,165.6,560.8,166.3,562.4,166.3L562.4,166.3z M561.6,163.9
	c-1.3,0-2.6-0.8-3.2-1.7v-5c0.6-0.9,2-1.7,3.2-1.7c2.2,0,3.5,1.7,3.5,4.2C565.1,162.2,563.7,163.9,561.6,163.9z M581.9,166v-12.6
	h-2.7v8.8c-0.7,0.9-1.8,1.6-3.2,1.6c-1.5,0-2.5-0.6-2.5-2.5v-7.9h-2.7v8.9c0,2.6,1.3,4,4,4c1.7,0,3.3-0.7,4.4-2v1.7H581.9L581.9,166
	z M586.8,151.9c0.9,0,1.7-0.8,1.7-1.7s-0.8-1.7-1.7-1.7c-0.9,0-1.7,0.8-1.7,1.7S585.9,151.9,586.8,151.9z M584,171.1
	c2.8,0,4.2-1.7,4.2-4.4v-13.3h-2.7v13.3c0,1.5-0.8,2.1-1.8,2.1c-0.8,0-1.3-0.3-1.7-0.7l-0.8,2C581.9,170.8,582.5,171.1,584,171.1
	L584,171.1z M218.9,289.6v-17.3h-3v12l-8.9-12h-3.1v17.3h3v-12.4l9,12.4H218.9z M232.9,289.6v-8.3c0-3.4-2.4-4.5-5.2-4.5
	c-2,0-3.8,0.6-5.3,2l1.1,1.9c1.1-1.1,2.3-1.6,3.7-1.6c1.7,0,2.9,0.9,2.9,2.3v1.9c-0.9-1.1-2.4-1.6-4.1-1.6c-2.1,0-4.4,1.2-4.4,4.1
	c0,2.8,2.3,4.2,4.4,4.2c1.7,0,3.1-0.6,4.1-1.7v1.4L232.9,289.6L232.9,289.6z M227.2,288c-1.5,0-2.7-0.9-2.7-2.2
	c0-1.4,1.1-2.3,2.7-2.3c1.2,0,2.4,0.4,3,1.3v1.9C229.6,287.6,228.4,288,227.2,288z M239.2,285.8v-5c0.6-0.9,2-1.7,3.2-1.7
	c2.2,0,3.6,1.7,3.6,4.2s-1.4,4.2-3.6,4.2C241.1,287.5,239.8,286.7,239.2,285.8z M239.2,289.6v-1.7c1,1.2,2.4,2,4,2
	c3.2,0,5.6-2.4,5.6-6.6c0-4.1-2.3-6.6-5.6-6.6c-1.6,0-3,0.7-4,2.1v-6.5h-2.7v17.3H239.2z M257.6,271.4H255l-3.6,3.7h2L257.6,271.4z
	 M254.3,289.6V277h-2.7v12.6H254.3z M267.2,289.6v-2.4h-6.4l6.3-8.2v-2h-9.9v2.4h6.2l-6.2,8.1v2.1L267.2,289.6L267.2,289.6z
	 M276,289.9c2,0,3.8-0.6,5.1-1.8l-1.2-1.8c-0.9,0.9-2.3,1.4-3.6,1.4c-2.4,0-3.8-1.6-4-3.5h9.7v-0.6c0-4-2.4-6.8-6.2-6.8
	c-3.7,0-6.4,2.9-6.4,6.6C269.4,287.3,272.2,289.9,276,289.9L276,289.9z M279.3,282.3h-7.1c0.1-1.5,1.2-3.3,3.5-3.3
	C278.3,278.9,279.3,280.8,279.3,282.3L279.3,282.3z M286,275.5c0.9,0,1.7-0.8,1.7-1.7s-0.8-1.7-1.7-1.7c-0.9,0-1.7,0.8-1.7,1.7
	S285.1,275.5,286,275.5z M283.2,294.7c2.8,0,4.2-1.7,4.2-4.4V277h-2.7v13.3c0,1.5-0.8,2.1-1.8,2.1c-0.8,0-1.3-0.3-1.7-0.7l-0.8,2
	C281.1,294.4,281.8,294.7,283.2,294.7L283.2,294.7z M779.2,289.6v-6.5h4.6c3.6,0,5.7-2.5,5.7-5.4s-2-5.4-5.7-5.4h-7.6v17.3
	L779.2,289.6L779.2,289.6z M783.4,280.4h-4.2v-5.5h4.2c1.7,0,3,1.1,3,2.8S785.1,280.4,783.4,280.4L783.4,280.4z M797.5,275.6
	c1.5,0,2.6-1.2,2.6-2.7s-1.2-2.7-2.6-2.7s-2.7,1.2-2.7,2.7C794.9,274.4,796,275.6,797.5,275.6z M797.5,274.3c-0.7,0-1.3-0.6-1.4-1.4
	c0-0.7,0.6-1.3,1.4-1.4c0.8,0,1.3,0.6,1.3,1.4C798.8,273.7,798.3,274.3,797.5,274.3z M803.1,289.6V277h-2.7v8.8
	c-0.7,0.9-1.8,1.6-3.2,1.6c-1.5,0-2.5-0.6-2.5-2.5V277h-2.7v8.9c0,2.6,1.3,4,4,4c1.7,0,3.3-0.7,4.4-2v1.7L803.1,289.6L803.1,289.6z
	 M808,275.5c0.9,0,1.7-0.8,1.7-1.7s-0.8-1.7-1.7-1.7c-0.9,0-1.7,0.8-1.7,1.7S807.1,275.5,808,275.5z M805.2,294.7
	c2.8,0,4.2-1.7,4.2-4.4V277h-2.7v13.3c0,1.5-0.8,2.1-1.8,2.1c-0.8,0-1.3-0.3-1.7-0.7l-0.8,2C803.1,294.4,803.8,294.7,805.2,294.7
	L805.2,294.7z M819.9,275.1l2.4-3.7h-1.7l-1.9,2.5l-2-2.5h-1.7l2.5,3.7H819.9L819.9,275.1z M818.6,289.9c2.4,0,3.9-1,4.8-2.2
	l-1.8-1.7c-0.7,1-1.7,1.5-2.9,1.5c-2.3,0-3.8-1.7-3.8-4.2s1.5-4.2,3.8-4.2c1.2,0,2.2,0.5,2.9,1.5l1.8-1.7c-0.9-1.2-2.4-2.2-4.8-2.2
	c-3.8,0-6.5,2.8-6.5,6.6C812.1,287.1,814.8,289.9,818.6,289.9z M837,289.6V277h-2.7v8.8c-0.7,0.9-1.8,1.6-3.2,1.6
	c-1.5,0-2.5-0.6-2.5-2.5V277h-2.7v8.9c0,2.6,1.3,4,4,4c1.7,0,3.3-0.7,4.4-2v1.7L837,289.6L837,289.6z M841.9,275.5
	c0.9,0,1.7-0.8,1.7-1.7s-0.8-1.7-1.7-1.7c-0.9,0-1.7,0.8-1.7,1.7S841,275.5,841.9,275.5z M839.2,294.7c2.8,0,4.2-1.7,4.2-4.4V277
	h-2.7v13.3c0,1.5-0.8,2.1-1.8,2.1c-0.8,0-1.3-0.3-1.7-0.7l-0.8,2C837.1,294.4,837.7,294.7,839.2,294.7L839.2,294.7z M200.3,685.7
	v-6.5h4.6c3.6,0,5.7-2.5,5.7-5.4s-2-5.4-5.7-5.4h-7.6v17.3L200.3,685.7L200.3,685.7z M204.5,676.6h-4.2v-5.5h4.2c1.7,0,3,1.1,3,2.8
	S206.2,676.6,204.5,676.6L204.5,676.6z M215.8,685.7v-8.6c0.5-0.9,2.1-1.7,3.2-1.7c0.3,0,0.6,0,0.9,0.1v-2.7c-1.6,0-3.1,0.9-4.1,2.1
	v-1.8H213v12.6H215.8z M227.7,686c4,0,6.5-3,6.5-6.6c0-3.6-2.4-6.6-6.5-6.6c-4,0-6.4,3-6.4,6.6C221.3,683,223.7,686,227.7,686z
	 M227.7,683.6c-2.3,0-3.6-2-3.6-4.2c0-2.2,1.3-4.2,3.6-4.2c2.3,0,3.6,2,3.6,4.2C231.3,681.7,230,683.6,227.7,683.6z M248.5,685.7
	v-17.3h-2.7v6.5c-1-1.3-2.5-2.1-4-2.1c-3.2,0-5.6,2.5-5.6,6.6c0,4.1,2.4,6.6,5.6,6.6c1.6,0,3.1-0.8,4-2v1.7H248.5z M242.5,683.6
	c-2.2,0-3.5-1.7-3.5-4.2c0-2.4,1.4-4.2,3.5-4.2c1.3,0,2.6,0.8,3.2,1.7v5C245.2,682.9,243.8,683.6,242.5,683.6L242.5,683.6z
	 M262.4,685.7v-8.3c0-3.4-2.4-4.5-5.2-4.5c-2,0-3.8,0.7-5.3,2l1.1,1.9c1.1-1.1,2.3-1.6,3.7-1.6c1.7,0,2.9,0.9,2.9,2.3v1.9
	c-0.9-1.1-2.4-1.6-4.1-1.6c-2.1,0-4.4,1.2-4.4,4.1c0,2.8,2.3,4.2,4.4,4.2c1.7,0,3.1-0.6,4.1-1.7v1.4H262.4z M256.7,684.2
	c-1.5,0-2.7-0.9-2.7-2.2c0-1.4,1.1-2.3,2.7-2.3c1.2,0,2.4,0.4,3,1.3v1.9C259.1,683.7,257.9,684.2,256.7,684.2L256.7,684.2z
	 M261.9,667.5h-2.6l-3.6,3.7h2L261.9,667.5z M272.2,685.7l5.1-12.6h-2.9l-3.7,9.4l-3.7-9.4h-2.9l5.1,12.6H272.2L272.2,685.7z
	 M284.9,686c2,0,3.8-0.6,5.1-1.8l-1.2-1.8c-0.9,0.9-2.3,1.4-3.6,1.4c-2.4,0-3.8-1.6-4-3.5h9.7v-0.7c0-4-2.4-6.8-6.2-6.8
	c-3.7,0-6.4,2.9-6.4,6.6C278.3,683.4,281.1,686,284.9,686L284.9,686z M288.2,678.4h-7.1c0.1-1.5,1.2-3.3,3.5-3.3
	C287.1,675.1,288.1,676.9,288.2,678.4L288.2,678.4z M294.9,671.6c0.9,0,1.7-0.8,1.7-1.7s-0.8-1.7-1.7-1.7c-0.9,0-1.7,0.8-1.7,1.7
	S294,671.6,294.9,671.6z M292.1,690.8c2.8,0,4.2-1.7,4.2-4.4v-13.3h-2.7v13.3c0,1.5-0.8,2.1-1.8,2.1c-0.8,0-1.3-0.3-1.7-0.7l-0.8,2
	C290,690.5,290.7,690.8,292.1,690.8L292.1,690.8z M780.3,686c4.7,0,6.7-2.5,6.7-5.4c0-6.5-10.1-4.5-10.1-7.7c0-1.3,1.1-2.2,2.9-2.2
	c1.8,0,3.7,0.6,5,2l1.7-2.3c-1.6-1.6-3.8-2.4-6.5-2.4c-3.8,0-6.3,2.2-6.3,5.1c0,6.4,10.1,4.1,10.1,7.8c0,1.1-1,2.4-3.5,2.4
	c-2.4,0-4.3-1.1-5.5-2.4l-1.7,2.3C774.8,684.9,777.1,686,780.3,686L780.3,686z M795.5,686c2,0,3.8-0.6,5.1-1.8l-1.2-1.8
	c-0.9,0.9-2.3,1.4-3.6,1.4c-2.4,0-3.8-1.6-4-3.5h9.7v-0.7c0-4-2.4-6.8-6.2-6.8c-3.7,0-6.4,2.9-6.4,6.6
	C789,683.4,791.8,686,795.5,686L795.5,686z M798.9,678.4h-7.1c0.1-1.5,1.2-3.3,3.5-3.3C797.8,675.1,798.8,676.9,798.9,678.4z
	 M809.8,671.3l2.4-3.7h-1.7l-1.9,2.5l-2-2.5h-1.7l2.5,3.7H809.8L809.8,671.3z M813.6,685.7v-2.4h-6.4l6.3-8.2v-2h-9.9v2.4h6.2
	l-6.2,8.1v2.1H813.6z M822.4,686c2,0,3.8-0.6,5.1-1.8l-1.2-1.8c-0.9,0.9-2.3,1.4-3.6,1.4c-2.4,0-3.8-1.6-4-3.5h9.7v-0.7
	c0-4-2.4-6.8-6.2-6.8c-3.7,0-6.4,2.9-6.4,6.6C815.8,683.4,818.6,686,822.4,686L822.4,686z M825.7,678.4h-7.1
	c0.1-1.5,1.2-3.3,3.5-3.3C824.6,675.1,825.7,676.9,825.7,678.4z M838,671.3l2.4-3.7h-1.7l-1.9,2.5l-2-2.5H833l2.5,3.7H838L838,671.3
	z M842.3,685.7v-8.8c0-2.6-1.4-4-4.1-4c-2,0-3.6,1-4.4,2v-1.7h-2.7v12.6h2.7V677c0.6-0.9,1.8-1.7,3.2-1.7c1.5,0,2.5,0.7,2.5,2.6v7.9
	L842.3,685.7L842.3,685.7z M497.5,812.9v-6.5h4.6c3.6,0,5.7-2.5,5.7-5.4s-2-5.4-5.7-5.4h-7.6v17.3L497.5,812.9L497.5,812.9z
	 M501.7,803.8h-4.2v-5.5h4.2c1.7,0,3,1.1,3,2.8S503.4,803.8,501.7,803.8L501.7,803.8z M515.5,813.2c4,0,6.5-3,6.5-6.6
	c0-3.6-2.4-6.6-6.5-6.6c-4,0-6.4,3-6.4,6.6C509,810.2,511.5,813.2,515.5,813.2z M515.5,810.8c-2.3,0-3.6-2-3.6-4.2
	c0-2.2,1.3-4.2,3.6-4.2c2.3,0,3.6,2,3.6,4.2C519.1,808.9,517.8,810.8,515.5,810.8z M542.9,812.9v-9.1c0-2.5-1.3-3.8-3.6-3.8
	c-1.9,0-3.5,1.2-4.3,2.3c-0.4-1.4-1.6-2.3-3.4-2.3c-1.9,0-3.6,1.2-4.1,2v-1.7h-2.7v12.6h2.7v-8.8c0.6-0.8,1.7-1.7,2.9-1.7
	c1.5,0,2.1,0.9,2.1,2.3v8.2h2.7v-8.8c0.5-0.8,1.7-1.7,2.9-1.7c1.5,0,2.1,0.9,2.1,2.3v8.2H542.9z M556.8,812.9v-8.3
	c0-3.4-2.4-4.5-5.2-4.5c-2,0-3.8,0.7-5.3,2l1.1,1.9c1.1-1.1,2.3-1.6,3.7-1.6c1.7,0,2.9,0.9,2.9,2.3v1.9c-0.9-1.1-2.4-1.6-4.1-1.6
	c-2.1,0-4.4,1.2-4.4,4.1c0,2.8,2.3,4.2,4.4,4.2c1.7,0,3.1-0.6,4.1-1.7v1.4H556.8L556.8,812.9z M551.1,811.4c-1.5,0-2.7-0.9-2.7-2.2
	c0-1.4,1.1-2.3,2.7-2.3c1.2,0,2.4,0.4,3,1.3v1.9C553.4,810.9,552.3,811.4,551.1,811.4L551.1,811.4z M556.2,794.7h-2.6l-3.6,3.7h2
	L556.2,794.7z M571.6,812.9V804c0-2.6-1.4-4-4.1-4c-2,0-3.6,1-4.4,2v-6.5h-2.7v17.3h2.7v-8.8c0.7-0.9,1.8-1.7,3.2-1.7
	c1.5,0,2.5,0.6,2.5,2.5v7.9L571.6,812.9L571.6,812.9z M580.9,813.2c2,0,3.8-0.6,5.1-1.8l-1.2-1.8c-0.9,0.9-2.3,1.4-3.6,1.4
	c-2.4,0-3.8-1.6-4-3.5h9.7v-0.7c0-4-2.4-6.8-6.2-6.8c-3.7,0-6.4,2.9-6.4,6.6C574.3,810.6,577.1,813.2,580.9,813.2L580.9,813.2z
	 M584.2,805.6h-7.1c0.1-1.5,1.2-3.3,3.5-3.3C583.2,802.3,584.2,804.1,584.2,805.6z M590.9,798.8c0.9,0,1.7-0.8,1.7-1.7
	s-0.8-1.7-1.7-1.7c-0.9,0-1.7,0.8-1.7,1.7S590,798.8,590.9,798.8z M588.1,818c2.8,0,4.2-1.7,4.2-4.4v-13.3h-2.7v13.3
	c0,1.5-0.8,2.1-1.8,2.1c-0.8,0-1.3-0.3-1.7-0.7l-0.8,2C586,817.7,586.7,818,588.1,818L588.1,818z"/>
<circle class="st1" cx="539.1" cy="480.9" r="223.5"/>
<circle class="st2" cx="539.1" cy="480.9" r="277.1"/>
<g>
	<defs>
		<rect id="SVGID_1_" x="360.2" y="347.3" width="358" height="266.8"/>
	</defs>
	<clipPath id="SVGID_00000005264557802645939450000000187046035438343579_">
		<use xlink:href="#SVGID_1_"  style="overflow:visible;"/>
	</clipPath>
	<g style="clip-path:url(#SVGID_00000005264557802645939450000000187046035438343579_);">
		<path class="st4" d="M718.2,581.8h-358v0.2h358V581.8z M449.6,592.6h-23.7v0.2h23.7V592.6z M418.4,592.6h-13.7v0.2h13.7V592.6z
			 M511,595.3h-13.7v0.2H511V595.3z M582.6,599.2h-30.9v0.2h30.9V599.2z M545.3,599.2h-4.5v0.2h4.5V599.2z M684.8,595.3h-67.1v0.2
			h67.1V595.3z M529.9,549.9H391.7c-2.3,0-4.1-1.8-4.1-4.1V351.4c0-2.3,1.8-4.1,4.1-4.1h138.3c2.3,0,4.1,1.8,4.1,4.1v194.3
			c0,1.1-0.4,2.1-1.2,2.9C532.1,549.4,531,549.9,529.9,549.9L529.9,549.9z M391.7,347.5c-2.2,0-3.9,1.8-3.9,3.9v194.3
			c0,2.2,1.7,3.9,3.9,3.9h138.3c2.2,0,3.9-1.8,3.9-3.9V351.4c0-2.2-1.8-3.9-3.9-3.9H391.7z M684.8,549.9H546.5
			c-2.3,0-4.1-1.8-4.1-4.1V351.4c0-2.3,1.8-4.1,4.1-4.1h138.3c2.3,0,4.1,1.8,4.1,4.1v194.3C688.9,548,687.1,549.8,684.8,549.9z
			 M546.5,347.5c-2.2,0-3.9,1.8-3.9,3.9v194.3c0,2.2,1.8,3.9,3.9,3.9h138.3c2.2,0,3.9-1.8,3.9-3.9V351.4c0-2.2-1.8-3.9-3.9-3.9
			H546.5z"/>
		<path class="st5" d="M551.7,520.6H536v62.5h15.7V520.6z"/>
		<path class="st6" d="M548.7,583.1h3v-8.5h-6.1L548.7,583.1L548.7,583.1z"/>
		<path class="st5" d="M482.7,520.6H467v62.5h15.7V520.6z"/>
		<path class="st6" d="M551.7,520.6h-71.6v57.2h71.6V520.6z"/>
		<path class="st5" d="M549.1,523.5v15.2h-66.4v-15.2H549.1z M549.4,523.2h-66.9v15.7h67L549.4,523.2L549.4,523.2z"/>
		<path class="st6" d="M483.1,583.1h-3v-8.5h6.1L483.1,583.1z"/>
		<path class="st4" d="M514.3,531c0,0.9,0.7,1.6,1.6,1.6c0.1,0,0.2,0,0.3,0c0.9-0.2,1.4-1,1.2-1.9s-1-1.4-1.9-1.2
			C514.8,529.6,514.3,530.3,514.3,531z"/>
		<path class="st5" d="M549.1,541.7v15.1h-66.4v-15.1H549.1z M549.4,541.4h-66.9v15.7h67L549.4,541.4L549.4,541.4z"/>
		<path class="st4" d="M514.3,549.2c0,0.9,0.7,1.6,1.6,1.6c0.1,0,0.2,0,0.3,0c0.9-0.2,1.4-1,1.2-1.9s-1-1.4-1.9-1.2
			C514.8,547.8,514.3,548.5,514.3,549.2z"/>
		<path class="st5" d="M549.1,559.9V575h-66.4v-15.1H549.1z M549.4,559.6h-66.9v15.7h67L549.4,559.6L549.4,559.6z"/>
		<path class="st4" d="M514.3,567.5c0,0.6,0.4,1.2,1,1.5c0.6,0.2,1.3,0.1,1.7-0.3c0.6-0.6,0.6-1.6,0-2.2c-0.6-0.6-1.6-0.6-2.2,0
			C514.5,566.7,514.3,567.1,514.3,567.5L514.3,567.5z"/>
		<path class="st5" d="M473.1,484.3h-15.7v98.7h15.7V484.3z"/>
		<path class="st6" d="M470.1,583.1h3v-8.5H467L470.1,583.1z"/>
		<path class="st5" d="M414.2,484.3h-15.7v98.7h15.7V484.3z"/>
		<path class="st6" d="M473.1,484.3h-61.5v93.5h61.5V484.3L473.1,484.3z"/>
		<path class="st5" d="M470.4,487v21.2h-56.2V487H470.4z M470.8,486.7h-56.8v21.8h56.8L470.8,486.7L470.8,486.7z M470.4,510.7v56.2
			h-26.8v-56.2L470.4,510.7L470.4,510.7z M470.8,510.4h-27.4v56.8h27.4V510.4L470.8,510.4z M441,510.7v56.2h-26.7v-56.2L441,510.7
			L441,510.7z M441.4,510.4h-27.4v56.8h27.4L441.4,510.4L441.4,510.4L441.4,510.4z"/>
		<path class="st6" d="M414.6,583.1h-3v-8.5h6.1L414.6,583.1z"/>
		<path class="st4" d="M440.8,497.6c0,0.6,0.4,1.2,1,1.5c0.8,0.3,1.7,0,2.1-0.9c0.3-0.8,0-1.7-0.9-2.1c-0.8-0.3-1.7,0-2.1,0.9
			C440.8,497.2,440.8,497.4,440.8,497.6z M446.4,537.5c0,0.6,0.4,1.2,1,1.5c0.8,0.3,1.7,0,2.1-0.9c0-0.1,0.1-0.2,0.1-0.3
			c0.1-0.6-0.1-1.3-0.7-1.6c-0.6-0.4-1.5-0.3-2,0.2C446.6,536.7,446.4,537.1,446.4,537.5z M435.1,537.5c0,0.9,0.7,1.6,1.6,1.6
			c0.1,0,0.2,0,0.3,0c0.9-0.2,1.4-1,1.2-1.9s-1-1.4-1.9-1.2C435.6,536.1,435.1,536.7,435.1,537.5z"/>
		<path class="st5" d="M433.3,456.8h-6.6c0.6,3.2,1,6.5,1.2,9.8c0,3.6-5.1,17.8,2.1,17.8c7.2,0,2.1-14.2,2.1-17.8
			C432.3,463.3,432.7,460,433.3,456.8z"/>
		<path class="st7" d="M408.1,471.3v4.3c0,4.8,3.9,8.7,8.7,8.7h4.3c4.8,0,8.7-3.9,8.7-8.7v-4.3H408.1L408.1,471.3z"/>
		<path class="st5" d="M500.3,511.5c0,5,5.6,9.1,12.5,9.1h6.2c6.9,0,12.5-4.1,12.5-9.1H500.3z M664.3,504.2
			c-3.8,3.1-8.9,8.7-13.7,16.6c-3.2,5.3-5.1,10.7-5.9,18c0-8.2,0-17.1,0.1-25.4c1-2.1,3.1-7.1,4.7-11c5.2-13.1,7.2-16.3,11.8-27.5
			c6.3-15,12.7-32.8,10.8-31.4c-3.7,2.9-18.1,29.7-19.6,33.6c-4.2,10.2-6.8,21.1-7.7,32.1c0-7.9,0.1-15,0.1-20.6
			c0.1-18.1,0.4-24,0.6-25.8c0.6-0.9,1.3-2,1.7-2.6c3.4-4.9,4.7-9,7.8-16.3c4.5-10.3,8.4-28.5,7.2-27.6c-4.7,3.8-8.4,12.1-13.3,22.6
			s-3.5,16.5-4.5,25.5c-0.2,1.8-0.4,8.4-0.5,17.6c-1.3-9.8-3.6-16.3-8-22.1c-5.3-7.2-10.5-12.1-14.3-14.6
			c-3.8-2.5,6.5,15.2,11.5,22.9c4.4,6.9,8.4,13,10.7,19c-0.1,12.5-0.2,28.3-0.2,43c-1.1-6.7-3-13.9-5.4-19.5
			c-3-6.7-7.5-17-11.1-20.5c-0.9-0.8,3.8,19.2,6.8,24.5c3,5.3,5.2,10.3,7.1,13.3c0.4,0.7,1.9,3.4,2.7,5c0,18,0.1,33.8,0.3,39.2h0.8
			c0-1.4-0.1-10.5,0-22.6c1.9-6.6,6.1-14,9.7-20.9C658.2,521.1,668,501.1,664.3,504.2L664.3,504.2z"/>
		<path class="st8" d="M655.5,583.1h-22.4l-1.7-22h25.8L655.5,583.1z"/>
		<path class="st7" d="M658.9,563.6h-29.2l-0.8-7.4h30.8L658.9,563.6z"/>
		<path class="st5" d="M449.2,362h-40.1v44.1h40.1V362z"/>
		<path class="st7" d="M453.6,362h-41.5v44.1h41.5V362z"/>
		<path class="st1" d="M450.1,402.6v-37.1h-34.5v37.1H450.1z"/>
		<path class="st7" d="M441.7,393.6v-19.1h-17.8v19.1H441.7z"/>
		<path class="st5" d="M653.8,367.2h-37.3v40.9h37.3V367.2z"/>
		<path class="st7" d="M657.9,367.2h-38.5v40.9h38.5V367.2z"/>
		<path class="st1" d="M654.7,404.9v-34.5h-32.1v34.5H654.7z"/>
		<path class="st7" d="M638.6,397.7c5.5,0,10-4.5,10-10c0-5.5-4.5-10-10-10c-5.5,0-10,4.5-10,10
			C628.6,393.2,633.1,397.7,638.6,397.7z"/>
		<path class="st5" d="M490.9,388.3h-29.8V421h29.8V388.3z"/>
		<path class="st7" d="M494.1,388.3h-30.8V421h30.8V388.3z"/>
		<path class="st1" d="M491.5,418.4v-27.5h-25.6v27.5H491.5z"/>
		<path class="st7" d="M478.8,397.7l-7,12.1h14L478.8,397.7z M539.2,614.1c76.7,0,138.8-3.6,138.8-8.1c0-4.5-62.2-8.1-138.8-8.1
			s-138.8,3.6-138.8,8.1C400.4,610.5,462.6,614.1,539.2,614.1z"/>
		<path class="st9" d="M610.3,425l-7.1-2.9c0,0-9.4,17.1-12.1,18c-3.7,1.2-11.2,4.4-15.7,5.1c-0.6,0.7-1.6,2.9-1.5,3.8
			c6,2,19.3-0.7,22.1-2.8C602.5,441.3,610.3,425,610.3,425L610.3,425z"/>
		<path class="st10" d="M612.5,421.1c1.3,4.9-5.8,14.7-5.8,14.7l-9.4-5.3c0,0,1.8-4,3.9-8.2C604.6,415.8,611,415.5,612.5,421.1z"/>
		<path class="st11" d="M612.5,421.1c1.3,4.9-5.8,14.7-5.8,14.7l-9.4-5.3c0,0,1.8-4,3.9-8.2C604.6,415.8,611,415.5,612.5,421.1z"/>
		<path class="st11" d="M601,432.7l3.7,2.1l0.7-11.4C603.2,425,601.6,430,601,432.7z"/>
		<path class="st10" d="M606.3,417.4c0,0-7.3,16.3-3.1,46.6h28.8c0.5-4.4-1.1-26,4.4-46.9c-3.2-0.6-6.4-1-9.6-1.2
			c-4.1-0.2-8.2-0.2-12.3,0C611.9,416.2,609.1,416.7,606.3,417.4L606.3,417.4z"/>
		<path class="st11" d="M606.3,417.4c0,0-7.3,16.3-3.1,46.6h28.8c0.5-4.4-1.1-26,4.4-46.9c-3.2-0.6-6.4-1-9.6-1.2
			c-4.1-0.2-8.2-0.2-12.3,0C611.9,416.2,609.1,416.7,606.3,417.4L606.3,417.4z"/>
		<path class="st12" d="M599.6,606.7c0,0.8,10.9,1.4,24.4,1.4s24.5-0.6,24.6-1.4c0-0.8-10.9-1.4-24.4-1.4
			C610.7,605.3,599.7,605.9,599.6,606.7z"/>
		<path class="st9" d="M618.8,586.5l-5.1,2l4.4,11.4l5.1-2L618.8,586.5z M641.7,601.2h-5.4l-2-12.5h5.4L641.7,601.2L641.7,601.2z"/>
		<path class="st13" d="M635.9,600.5h6.1c0.2,0,0.4,0.2,0.4,0.4l0.8,4.8c0,0.2,0,0.5-0.2,0.7c-0.2,0.2-0.4,0.3-0.6,0.3
			c-2.1,0-3.1-0.2-5.8-0.2c-1.6,0-5,0.2-7.3,0.2s-2.4-2.2-1.5-2.4c4.2-0.9,5.8-2.1,7.2-3.4C635.3,600.6,635.6,600.5,635.9,600.5z
			 M618,598.6l5.7-1.7c0.2-0.1,0.4,0,0.5,0.2l2.1,4.3c0.2,0.4,0,0.9-0.4,1.1c0,0-0.1,0-0.1,0.1c-2.1,0.6-3.5,0.9-6.1,1.7
			c-1.8,0.5-3.6,1.4-5.4,1.9c-1.2,0.4-4.1,0.4-5.6,0.4c-2.2,0-2.7-2.3-1.8-2.4c2.4-0.3,2.7-0.1,4-0.8c2.2-1,4.1-2.3,5.8-4
			C617.2,599.1,617.6,598.8,618,598.6z"/>
		<path class="st9" d="M576.3,445.1l-5.9-2.5l-2.4,6.6c2.4,0.4,4.9,0.4,7.3,0L576.3,445.1z"/>
		<path class="st9" d="M566,442.4l-0.2,4.4l2.1,2.4l2.4-6.6L566,442.4L566,442.4z"/>
		<path class="st14" d="M619.6,587.3l-5.1,2l2.3,5.9l5.1-2L619.6,587.3z M639.7,588.7h-5.4l1,6.4h5.4L639.7,588.7z"/>
		<path class="st11" d="M602.3,455.8c0.1,1.3,0.2,2.7,0.4,4l21.4-7c3.4-1,6.3-3.1,8.2-6c0.1-1.9,0.2-3.9,0.4-6
			c0.1-1,0.2-2.1,0.2-3.1c0.1-1.1,0.2-2.2,0.4-3.4L602.3,455.8L602.3,455.8z"/>
		<path class="st1" d="M609.3,432.3l-0.7-0.1c0.4-3.6,3.1-6.4,5.9-6.3v0.7C612.1,426.6,609.7,429.1,609.3,432.3z M613.2,439H613
			v-0.7c2.5,0.1,4.8-2.5,5.2-5.7l0.7,0.1C618.5,436.2,615.9,439,613.2,439z"/>
		<path class="st9" d="M626.5,402.1c-1,3.9-2.2,11.2,0.4,13.8c0,0-1.8,4-9.1,4c-6.7,0-3.1-4-3.1-4c4.5-1.1,4.5-4.3,3.9-7.4
			L626.5,402.1L626.5,402.1z"/>
		<path class="st14" d="M623.3,404.8l-4.7,3.8c0.1,0.7,0.2,1.4,0.3,2.1c1.4,1.4,4.1-2.1,4.4-3.8
			C623.4,406.2,623.4,405.5,623.3,404.8L623.3,404.8z M610.6,402.1c0.7,1.1,1.8,2,3,2.2c1.7,0.4,2.6-1.2,2.1-2.8
			c-0.4-1.4-1.8-3.4-3.6-3c-1.3,0.3-2.1,1.5-1.9,2.8C610.4,401.6,610.5,401.9,610.6,402.1z"/>
		<path class="st13" d="M613.4,389.5c-2.7,1.2-3.6,11.9-0.3,13.4C616.5,404.5,618.5,387.1,613.4,389.5z"/>
		<path class="st9" d="M627.3,396.2c-0.6,5.3-0.7,8.5-3.6,11.2c-2.7,2.7-7,2.8-9.7,0.1c-0.1-0.1-0.3-0.3-0.4-0.4
			c-0.8-1-1.4-2.1-1.6-3.4c-0.9-4.8,0.3-12.7,5.7-14.9c2.3-1,5-0.7,6.9,0.8C626.7,391.3,627.7,393.7,627.3,396.2L627.3,396.2z"/>
		<path class="st13" d="M618.5,392.2c4-1,6.9-1.7,5.8,1.6c-1.4,4.4-3,8.7-0.8,8.9c1.4,0.1,7.4-2.4,6.6-5c-0.7-2.2,2.1-2.9,2.6-4
			c1.9-4.1-3.5-3.6-2.5-6.1s-4.3-6.5-7.2-4.5c-4.7,3.3-12.7,3.2-8.5-2.1c3-3.8-2.4-3-2.4-3s3.3,1.9-2.2,4.9
			C604.3,386,609.6,394.5,618.5,392.2L618.5,392.2z"/>
		<path class="st9" d="M629.5,402.1c-0.8,1.1-2,1.9-3.3,2.2c-1.8,0.4-2.4-1.2-1.8-2.8c0.6-1.4,2.2-3.4,3.9-3
			C630,398.8,630.4,400.7,629.5,402.1L629.5,402.1z"/>
		<path class="st10" d="M603.2,464c0,0-4.8,43.3-5.2,59.8c-0.4,17.1,16.4,70.5,16.4,70.5l8.6-3.6c0,0-10-48.7-8.6-65.5
			c1.5-18.4,7.8-61.1,7.8-61.1H603.2z"/>
		<path class="st11" d="M615.3,475.9c-3.9,8-1.3,23.8,0.8,33.2c0.8-6.6,1.7-13.8,2.6-20.5C618.7,478.4,617.9,470.6,615.3,475.9z"/>
		<path class="st10" d="M622.6,587.8c0,0,1,2.7,1,2.7l-9.9,4.2l-1.6-2.9L622.6,587.8L622.6,587.8z M613.5,464c0,0,3.7,41.2,6.2,56.6
			c2.7,16.9,13.2,73.2,13.2,73.2h9.9c0,0-5.9-54.9-7-71.7c-1.2-18.2-3.6-58.2-3.6-58.2L613.5,464L613.5,464z"/>
		<path class="st10" d="M642.9,591.3c0,0,0.3,2.8,0.3,2.8h-10.9l-0.8-3.2L642.9,591.3z"/>
		<path class="st11" d="M639.1,588C639.1,588,639.1,588,639.1,588C639,588,639,588,639.1,588c-0.1-0.6-5.5-50.2-6.5-65.2
			c-1.1-16.3-3.3-52.5-3.3-52.9c0,0,0,0,0-0.1c0,0,0,0,0.1,0c0,0,0.1,0,0.1,0.1c0,0.4,2.2,36.5,3.3,52.8
			C633.8,537.8,639.1,587.4,639.1,588C639.2,587.9,639.2,588,639.1,588C639.2,588,639.2,588,639.1,588
			C639.2,588,639.1,588,639.1,588L639.1,588L639.1,588z"/>
		<path class="st13" d="M619.2,397.7c0,0.4-0.3,0.8-0.6,0.8c-0.3,0-0.5-0.4-0.5-0.8c0-0.4,0.3-0.8,0.6-0.8
			C619,396.9,619.2,397.3,619.2,397.7L619.2,397.7z M614.2,397.7c0,0.4-0.3,0.8-0.6,0.8c-0.3,0-0.5-0.4-0.5-0.8
			c0-0.4,0.3-0.8,0.6-0.8C614.1,396.9,614.3,397.3,614.2,397.7z"/>
		<path class="st15" d="M615.8,397.9c-0.6,1.3-1.4,2.6-2.3,3.7c0.7,0.7,2.1,0.4,2.1,0.4L615.8,397.9z"/>
		<path class="st13" d="M615.9,403.8C615.9,403.8,615.9,403.8,615.9,403.8c-0.1,0-0.1-0.1-0.1-0.1c0,0,0,0,0,0
			c0-0.1,0.1-0.1,0.1-0.1c1.1,0,2.2-0.5,2.9-1.3c0.1,0,0.1,0,0.2,0c0,0,0,0.1,0,0.1c0,0,0,0.1,0,0.1
			C618.2,403.3,617.1,403.9,615.9,403.8L615.9,403.8z M620,396.4c-0.1,0-0.2,0-0.2,0c-0.5-0.4-1.2-0.4-1.8-0.2c-0.1,0-0.1,0-0.2,0
			c-0.1,0-0.1-0.1-0.1-0.1c-0.1-0.1,0-0.3,0.1-0.3c0.8-0.3,1.6-0.2,2.3,0.2c0.1,0,0.1,0.1,0.1,0.2c0,0.1,0,0.1,0,0.2
			C620.1,396.3,620.1,396.4,620,396.4L620,396.4z M612.3,394.9C612.3,394.9,612.3,394.9,612.3,394.9c-0.2-0.2-0.2-0.3-0.1-0.4
			c0,0,0,0,0,0c0.6-0.6,1.4-1,2.2-0.9c0,0,0.1,0,0.1,0c0.1,0,0.1,0.1,0.1,0.2c0,0.1-0.1,0.3-0.2,0.3c0,0-0.1,0-0.1,0
			c-0.7,0-1.3,0.2-1.7,0.7C612.5,394.9,612.4,395,612.3,394.9z"/>
		<path class="st9" d="M639.3,424.2l-7.4-2c0,0-7.3,18-9.9,19.1c-3.5,1.6-12.4,7.1-16.2,9.8c-0.2,0.9,0,3.3,0.4,3.9
			c6.4-1.2,18.8-5.9,21.4-8.3C633.4,441.2,639.3,424.2,639.3,424.2L639.3,424.2z"/>
		<path class="st10" d="M634.1,601.5c-0.4,0-0.7-0.1-1-0.3c-0.2-0.2-0.3-0.4-0.2-0.7c0-0.2,0.1-0.3,0.2-0.4c0.6-0.3,2.3,0.8,2.5,0.9
			c0,0,0,0,0,0.1c0,0,0,0,0,0.1c0,0.1,0,0.1-0.1,0.1C635,601.4,634.6,601.5,634.1,601.5L634.1,601.5z M633.4,600.4
			c-0.1,0-0.1,0-0.2,0c0,0-0.1,0-0.1,0.1c0,0,0,0.1,0,0.1c0,0.2,0,0.3,0.1,0.5c0.6,0.3,1.3,0.3,1.9,0.1
			C634.6,600.7,634,600.5,633.4,600.4L633.4,600.4L633.4,600.4z"/>
		<path class="st10" d="M635.5,601.3L635.5,601.3c-0.6-0.3-1.6-1.5-1.5-2.1c0-0.2,0.2-0.3,0.4-0.3c0.2,0,0.4,0,0.5,0.2
			c0.6,0.5,0.6,2.1,0.6,2.1c0,0,0,0,0,0.1C635.6,601.3,635.6,601.3,635.5,601.3C635.5,601.3,635.5,601.3,635.5,601.3z M634.5,599.1
			L634.5,599.1c-0.2,0-0.2,0.1-0.2,0.1c-0.1,0.4,0.6,1.3,1.1,1.7c0-0.6-0.2-1.2-0.5-1.7C634.7,599.1,634.6,599.1,634.5,599.1
			L634.5,599.1z M615.1,600.6c-0.4,0.2-0.9,0.2-1.4,0c-0.2-0.1-0.3-0.3-0.3-0.6c0-0.1,0-0.3,0.2-0.4c0.6-0.5,2.9,0,3.2,0.1
			c0,0,0,0,0.1,0c0,0,0,0,0,0.1c0,0,0,0.1,0,0.1c0,0,0,0-0.1,0.1C616.2,600.2,615.6,600.4,615.1,600.6L615.1,600.6z M613.9,599.7
			c-0.1,0-0.2,0.1-0.2,0.1c0,0-0.1,0.1-0.1,0.2c0,0.2,0.1,0.3,0.2,0.4c0.4,0.2,1.3,0,2.4-0.4C615.5,599.7,614.7,599.7,613.9,599.7z"
			/>
		<path class="st10" d="M616.7,600L616.7,600c-0.8-0.1-2.2-1-2.2-1.6c0-0.1,0.1-0.3,0.4-0.5c0.2-0.1,0.5-0.1,0.7,0
			c0.8,0.4,1.2,1.8,1.2,1.8C616.8,599.9,616.8,599.9,616.7,600C616.7,600,616.7,600,616.7,600L616.7,600z M615,598.2L615,598.2
			c-0.3,0.1-0.3,0.2-0.3,0.2c0,0.4,1,1,1.8,1.3c-0.2-0.6-0.5-1.1-1-1.4C615.3,598.2,615.1,598.1,615,598.2z"/>
		<path class="st9" d="M606.4,450.7l-7.5,3.4l-0.9,2.1l2.8,1.9c0,0,5.2-0.6,6.6-3.9L606.4,450.7L606.4,450.7z"/>
		<path class="st13" d="M606.7,455.2c-0.2-1.4-0.6-2.8-1.4-4.1l1.2-0.9c0.9,1.4,1.5,3,1.7,4.7L606.7,455.2L606.7,455.2z"/>
		<path class="st13" d="M608,451.8c0.4,0.7,0.2,1.6-0.4,2c-0.7,0.4-1.6,0.2-2-0.4c-0.4-0.7-0.2-1.6,0.4-2c0.1,0,0.1-0.1,0.2-0.1
			C606.9,450.9,607.6,451.1,608,451.8z"/>
		<path class="st9" d="M593.9,457l1,1l6.7-2.9l-2.7-0.9L593.9,457L593.9,457z"/>
		<path class="st11" d="M622.6,587.8c0,0,1,2.7,1,2.7l-9.9,4.2l-1.6-2.9L622.6,587.8L622.6,587.8z M642.9,591.3c0,0,0.3,2.8,0.3,2.8
			h-10.9l-0.8-3.2L642.9,591.3z"/>
		<path class="st10" d="M641.2,422.1c2,6.3-5.7,15-5.7,15l-10.6-4.3c1.3-3.7,2.7-7.3,4.4-10.8C632.5,415,639.2,415.7,641.2,422.1
			L641.2,422.1z"/>
		<path class="st11" d="M641.2,422.1c2,6.3-5.7,15-5.7,15l-10.6-4.3c1.3-3.7,2.7-7.3,4.4-10.8C632.5,415,639.2,415.7,641.2,422.1
			L641.2,422.1z"/>
		<path class="st10" d="M535.6,358.5H531v0.7h4.6V358.5z M594.8,387.7l-0.6,12.3l0.7,0l0.6-12.3L594.8,387.7L594.8,387.7z
			 M593.4,361.8h-84.5L501,537.8h84.5L593.4,361.8L593.4,361.8z"/>
		<path class="st16" d="M590.9,364.2h-84.5l-7.9,175.9H583L590.9,364.2z"/>
		<path class="st17" d="M588.3,366.6h-84.5L496,542.6h84.5L588.3,366.6z"/>
		<path class="st1" d="M578.7,443.4h-72.1l-0.6,13.5h72.1L578.7,443.4L578.7,443.4z"/>
		<path class="st10" d="M546.3,433.6H507l-0.3,6H546L546.3,433.6z"/>
		<path class="st1" d="M577.1,479.7H505l-0.6,13.5h72.1L577.1,479.7L577.1,479.7z"/>
		<path class="st18" d="M563.9,511.4h-48.5l-0.7,16.1h48.5L563.9,511.4L563.9,511.4z"/>
		<path class="st1" d="M560.6,530h-48.6c0,0,0,0,0-0.1l0.7-16.1c0,0,0,0,0,0c0,0,0,0,0,0c0,0,0,0,0,0c0,0,0,0,0,0h48.5
			c0,0,0,0,0.1,0v0.1L560.6,530C560.7,529.9,560.7,530,560.6,530C560.7,530,560.6,530,560.6,530z M512.2,529.8h48.3l0.7-16h-48.3
			L512.2,529.8z"/>
		<path class="st10" d="M537.8,469.9h-32.4l-0.3,6h32.4L537.8,469.9L537.8,469.9z"/>
		<path class="st1" d="M562.9,399.9c-0.2,3.9-1.6,7.7-4,10.7c-3.6,4.7-9.2,7.5-15.2,7.6c-4.8,0-9.4-1.9-12.7-5.4
			c-3.3-3.5-5.1-8.2-4.8-13c0.5-10.2,8.9-18.3,19.2-18.3c9.6-0.1,17.5,7.6,17.6,17.2C563,399.1,563,399.5,562.9,399.9L562.9,399.9z"
			/>
		<path class="st10" d="M564.7,385.4c0,1-0.4,2-1.1,2.9c-1,1.3-2.5,2-4,2c-1.5,0-3-0.7-3.9-2c-0.6-0.8-0.8-1.8-0.8-2.9
			c0.1-2.7,2.4-4.9,5.1-4.9c2,0,3.7,1.2,4.4,3C564.6,384.1,564.7,384.8,564.7,385.4L564.7,385.4z"/>
		<path class="st13" d="M514.4,450.1c-0.1,1.2-1.1,2.1-2.3,2.1c-0.6,0-1.1-0.2-1.5-0.6c-0.4-0.4-0.6-1-0.6-1.5
			c0.1-1.2,1.1-2.1,2.3-2.1c0.6,0,1.1,0.2,1.5,0.6C514.2,449,514.4,449.6,514.4,450.1L514.4,450.1z M524,450.1
			c-0.1,1.2-1.1,2.1-2.3,2.1c-0.6,0-1.1-0.2-1.5-0.6c-0.4-0.4-0.6-1-0.6-1.5c0.1-1.2,1-2.1,2.2-2.1c1.1,0,2.1,0.9,2.1,2
			C524,450,524,450.1,524,450.1z M533.7,450.1c-0.1,1.2-1.1,2.1-2.3,2.1c-0.9,0-1.6-0.5-1.9-1.3c-0.1-0.3-0.1-0.5-0.1-0.8
			c0.1-1.2,1.1-2.1,2.3-2.1c0.6,0,1.1,0.2,1.5,0.6C533.5,449,533.7,449.6,533.7,450.1L533.7,450.1z M512.7,486.5
			c-0.1,1.2-1.1,2.1-2.3,2.1c-0.6,0-1.1-0.2-1.5-0.6c-0.4-0.4-0.6-1-0.6-1.5c0.1-1.2,1.1-2.1,2.3-2.1c0.6,0,1.1,0.2,1.5,0.6
			C512.6,485.3,512.8,485.9,512.7,486.5z M522.4,486.5c-0.1,1.2-1,2.1-2.2,2.1c-0.9,0-1.6-0.5-1.9-1.3c-0.1-0.3-0.1-0.5-0.1-0.8
			c0.1-1.2,1.1-2.1,2.3-2.1c1.1,0,2,0.9,2.1,2C522.4,486.4,522.4,486.4,522.4,486.5z M532.1,486.5c-0.1,1.2-1.1,2.1-2.3,2.1
			c-0.6,0-1.1-0.2-1.5-0.6c-0.4-0.4-0.6-1-0.6-1.5c0-0.6,0.3-1.1,0.7-1.5c0.4-0.4,1-0.6,1.5-0.6c0.6,0,1.1,0.2,1.5,0.6
			C531.9,485.3,532.1,485.9,532.1,486.5z M541.7,486.5c-0.1,1.2-1.1,2.1-2.3,2.1c-0.6,0-1.1-0.2-1.5-0.6c-0.4-0.4-0.6-1-0.6-1.5
			c0.1-1.2,1.1-2.1,2.3-2.1c0.6,0,1.1,0.2,1.5,0.6C541.5,485.3,541.7,485.9,541.7,486.5z M551.4,486.5c-0.1,1.2-1.1,2.1-2.3,2.1
			c-1.1,0-2.1-0.9-2.1-2c0,0,0-0.1,0-0.1c0.1-1.2,1.1-2.1,2.3-2.1c0.6,0,1.1,0.2,1.5,0.6C551.2,485.3,551.4,485.9,551.4,486.5z"/>
		<path class="st10" d="M549.9,398.9c3-2.9,3.2-7.6,0.4-10.5c-2.8-2.9-7.5-2.8-10.5,0.1c-3,2.9-3.2,7.6-0.4,10.5
			S546.9,401.9,549.9,398.9z M559,410.7c-3.6,4.7-9.2,7.5-15.2,7.5c-5.8,0.1-11.2-2.8-14.5-7.5c3.5-3.5,9-5.7,15.1-5.7
			S555.8,407.2,559,410.7z"/>
		<path class="st19" d="M549.9,398.9c3-2.9,3.2-7.6,0.4-10.5c-2.8-2.9-7.5-2.8-10.5,0.1c-3,2.9-3.2,7.6-0.4,10.5
			S546.9,401.9,549.9,398.9z M559,410.7c-3.6,4.7-9.2,7.5-15.2,7.5c-5.8,0.1-11.2-2.8-14.5-7.5c3.5-3.5,9-5.7,15.1-5.7
			S555.8,407.2,559,410.7z"/>
		<path class="st9" d="M453.6,460.1c-0.7,1.6-1.4,3.1-2,4.7c-0.6,1.6-1.3,3.2-1.8,4.9c-1.1,3.2-2,6.5-2.6,9.9l-0.2,1.1
			c0,0.2,0,0.4,0.1,0.5c0.2,0.6,0.4,1.2,0.8,1.7c0.9,1.3,2,2.5,3.2,3.6c1.3,1.2,2.6,2.3,4,3.3c1.4,1.1,2.8,2.1,4.2,3.1l-1.3,2.5
			c-3.4-1.5-6.6-3.3-9.6-5.5c-1.6-1.2-3-2.5-4.3-4.1c-0.7-0.9-1.3-1.9-1.7-3.1c-0.2-0.7-0.3-1.4-0.3-2.1v-0.9l0.1-0.7
			c0.4-3.7,1.2-7.4,2.3-11c0.5-1.8,1.2-3.5,1.8-5.2c0.7-1.7,1.4-3.4,2.2-5.1L453.6,460.1L453.6,460.1z"/>
		<path class="st9" d="M458.3,492.3l5.1-2.6l-1.3,5.6c0,0-3.5,1-5.1-0.7L458.3,492.3L458.3,492.3z"/>
		<path class="st9" d="M468,490.7l-1.3,4.6l-4.6,0l1.3-5.6L468,490.7L468,490.7z"/>
		<path class="st15" d="M475.1,433.3c0.3,1,0.7,2,1.1,2.9c-0.3,0.3-0.7,0.5-1.1,0.4V433.3z"/>
		<path class="st13" d="M475,433.3c0.3,0,0.5-0.4,0.5-0.8c0-0.5-0.2-0.8-0.5-0.8c-0.3,0-0.5,0.4-0.5,0.8
			C474.4,433,474.7,433.3,475,433.3z"/>
		<path class="st13" d="M474.8,431.7l1.1-0.3C475.9,431.4,475.4,432.2,474.8,431.7z"/>
		<path class="st9" d="M461.1,438.5c0.7,3.3,1.3,9.4-1,11.7c0,0,0.9,3.4,7.1,3.4c6.8,0,3.2-3.4,3.2-3.4c-3.7-0.9-3.6-3.7-3-6.2
			L461.1,438.5z"/>
		<path class="st9" d="M459.3,431c0.3,5.6,0.4,7.9,3.2,10.8c4.2,4.3,11,2.7,12.3-2.9c1.2-5,0.4-13.3-5-15.5c-2.4-1-5.2-0.7-7.3,0.9
			C460.3,425.8,459.1,428.3,459.3,431L459.3,431z"/>
		<path class="st13" d="M459.9,424.7c-2.8,1-6.5,0.3-5.1,8.9c1.5,9.1-0.8,12.1-0.8,12.1s10.6,2.3,21.4-0.1c0,0-3.3-5.8-2.4-10
			c1.2-5.4,0.3-7.4,0.3-7.4S463.8,423.2,459.9,424.7z"/>
		<path class="st9" d="M471.7,433.9c0,1.1,0.3,2.1,0.9,3c0.8,1.2,1.7,0.7,1.9-0.5c0.2-1.1,0-3-0.9-3.7
			C472.5,431.8,471.7,432.6,471.7,433.9L471.7,433.9z"/>
		<path class="st13" d="M457.4,425.6c-0.8-2.3,3-5.7,11.1-4.3s8.4,8.2,8.4,8.2l-1.6-1.9l0.1,2l-8.3,1.6L457.4,425.6L457.4,425.6z"/>
		<path class="st10" d="M458.1,450.6c-0.1-0.7,0.4-1.3,1-1.4c2.5-0.4,8.2-1.3,11.1-0.9c2.1,0.3,2.7,1.5,2.8,2.6c0,0.4-0.1,0.7-0.4,1
			c-0.3,0.3-0.6,0.4-1,0.4l-12.4-0.6C458.7,451.6,458.2,451.2,458.1,450.6z"/>
		<path class="st20" d="M458.1,450.6c-0.1-0.7,0.4-1.3,1-1.4c2.5-0.4,8.2-1.3,11.1-0.9c2.1,0.3,2.7,1.5,2.8,2.6c0,0.4-0.1,0.7-0.4,1
			c-0.3,0.3-0.6,0.4-1,0.4l-12.4-0.6C458.7,451.6,458.2,451.2,458.1,450.6z"/>
		<path class="st9" d="M465.3,575.7l4.6,3.2l7.7-10.5l-4.6-3.2L465.3,575.7L465.3,575.7z M454.5,575.5l4.9,2.8l6.8-11.1l-4.9-2.8
			L454.5,575.5z"/>
		<path class="st14" d="M477.7,568.4l-4,5.4l-4.6-3.2l4-5.4L477.7,568.4z M461.4,564.4l4.9,2.8l-3.5,5.7l-4.9-2.8L461.4,564.4
			L461.4,564.4z"/>
		<path class="st10" d="M469.2,485.5c0,0,18,22.7,14.6,44.4c-2.7,17.5-18.6,41.3-18.6,41.3l-7.4-3.7c5.2-10.5,9.7-21.4,13.4-32.5
			c2.3-7,1.2-14.7-2.9-20.8c-9.1-13.3-23.8-5.4-13.9-28.7L469.2,485.5L469.2,485.5z"/>
		<path class="st20" d="M469.2,485.5c0,0,18,22.7,14.6,44.4c-2.7,17.5-18.6,41.3-18.6,41.3l-7.4-3.7c5.2-10.5,9.7-21.4,13.4-32.5
			c2.3-7,1.2-14.7-2.9-20.8c-9.1-13.3-23.8-5.4-13.9-28.7L469.2,485.5L469.2,485.5z"/>
		<path class="st21" d="M478.1,500.1l-2.6-2.6c0,0.2,5.1,31.5,6.5,40.3c0.8-2.6,1.5-5.2,1.9-7.9C485.5,519.4,482,508.5,478.1,500.1
			L478.1,500.1z"/>
		<path class="st10" d="M477.3,485.5c0,0,21.7,28.6,22.3,45.7c0.5,14.3-23.6,42.1-23.6,42.1l-7-4.5c0,0,14.1-19.7,17.7-35.8
			c-1.4-15.9-30.4-47.4-30.4-47.4L477.3,485.5L477.3,485.5z"/>
		<path class="st20" d="M477.3,485.5c0,0,21.7,28.6,22.3,45.7c0.5,14.3-23.6,42.1-23.6,42.1l-7-4.5c0,0,14.1-19.7,17.7-35.8
			c-1.4-15.9-30.4-47.4-30.4-47.4L477.3,485.5L477.3,485.5z"/>
		<path class="st10" d="M450.4,451.5c-2.3,0.5-4.5,9-4.5,9l9.1,6c0,0,3-6.7,2-9.6C455.8,453.9,453.3,450.8,450.4,451.5L450.4,451.5z
			"/>
		<path class="st11" d="M452.2,456.9l-0.6,7.4l3.4,2.3c0.9-2.1,1.6-4.3,2.1-6.5L452.2,456.9z"/>
		<path class="st10" d="M479.9,451.6c0,0,2.7,0.9-2.7,33.9h-22.8c0.4-9.3,0.4-15-4-34.1c3.2-0.7,6.4-1.1,9.7-1.3
			c3.4-0.2,6.9-0.2,10.4,0C474.9,450.6,479.9,451.6,479.9,451.6L479.9,451.6z"/>
		<path class="st9" d="M482.3,456.9c0.5,1.4,1.1,3,1.6,4.5c0.6,1.5,1.1,3,1.7,4.5l1.8,4.5l0.4,1.1l0.2,0.6l0.1,0.3v0
			c-0.1-0.2-0.3-0.3-0.5-0.5c-0.5-0.3-1.2-0.4-1.7-0.1c-0.3,0.2-0.3,0.2-0.3,0.2c0.1,0,0.1-0.1,0.2-0.2c0.4-0.5,0.7-1.1,1-1.7
			c0.3-0.7,0.7-1.4,1-2.1c0.6-1.4,1.2-2.9,1.8-4.4c0.6-1.5,1.1-3,1.7-4.5l1.6-4.6l2.8,0.7c-0.5,3.3-1.2,6.5-2.1,9.7
			c-0.4,1.6-0.9,3.2-1.4,4.8c-0.3,0.8-0.6,1.6-0.9,2.4c-0.4,0.9-0.8,1.8-1.3,2.6c-0.2,0.3-0.4,0.5-0.6,0.8c-0.4,0.4-0.8,0.7-1.3,0.9
			c-0.9,0.4-2,0.3-2.9-0.2c-0.5-0.3-1-0.8-1.3-1.3c-0.1-0.2-0.2-0.3-0.3-0.5l-0.1-0.3l-0.3-0.6l-0.5-1.1c-0.7-1.5-1.4-3-2.1-4.5
			c-0.6-1.5-1.3-3-1.9-4.6c-0.6-1.6-1.2-3.1-1.7-4.7L482.3,456.9L482.3,456.9z"/>
		<path class="st10" d="M479.9,451.6c2.7,0.7,5.8,8.8,5.8,8.8l-8.2,6.9c0,0-5.3-8.8-4.2-11.7C474.5,452.6,476.4,450.8,479.9,451.6
			L479.9,451.6z"/>
		<path class="st9" d="M494.1,452l2.9-2.4l2,3.1l-1.5,2.6c0,0-2.3,2.1-4.4,1.1C492.4,454.9,492.9,453.1,494.1,452z"/>
		<path class="st9" d="M502.2,449.7l-0.2,0.8l-4.5,0.8l-0.4-1.5L502.2,449.7z"/>
		<path class="st10" d="M476.5,573.7l-8.2-5.3l1.5-2.5l9.2,5.6L476.5,573.7z"/>
		<path class="st13" d="M462.6,577.9c-0.7-0.1-1.4-0.3-2-0.7c0,0-0.1-0.1-0.1-0.1c0-0.1,0-0.1,0.1-0.1c0.2-0.1,2.1-0.7,2.7-0.2
			c0.1,0.1,0.2,0.3,0.2,0.4c0,0.3-0.2,0.5-0.4,0.6C462.9,577.8,462.8,577.9,462.6,577.9L462.6,577.9z M461,577.1
			c0.9,0.5,1.6,0.6,2,0.5c0.2-0.1,0.3-0.2,0.3-0.4c0,0,0-0.1,0-0.1c0,0,0-0.1-0.1-0.1C462.9,576.7,461.8,576.9,461,577.1L461,577.1z
			"/>
		<path class="st13" d="M460.7,577.2C460.6,577.2,460.6,577.2,460.7,577.2c-0.1-0.1-0.1-0.1-0.1-0.1c0,0,0,0,0-0.1
			c0-0.1,0.5-1.6,1.2-2c0.2-0.1,0.4-0.1,0.6,0c0.2,0.1,0.3,0.3,0.3,0.5C462.6,576.1,461.3,577,460.7,577.2L460.7,577.2L460.7,577.2z
			 M462,575.2c-0.1,0-0.1,0-0.2,0.1c-0.4,0.2-0.8,1.1-1,1.6c0.6-0.3,1.5-1,1.5-1.4c0-0.1,0-0.2-0.2-0.2
			C462.2,575.2,462.1,575.2,462,575.2L462,575.2L462,575.2z M472.8,581c-0.8,0-1.9-1-2.5-1.7c0,0,0,0,0-0.1c0,0,0-0.1,0-0.1
			c0,0,0,0,0.1-0.1c0,0,0.1,0,0.1,0c0.3,0,2.8,0.4,3.1,1.1c0.1,0.1,0.1,0.3,0,0.4c-0.1,0.2-0.3,0.4-0.6,0.4H472.8z M470.8,579.4
			c0.9,0.9,1.7,1.4,2.1,1.3c0.2,0,0.3-0.1,0.4-0.3c0-0.1,0-0.1,0-0.2C473.1,579.9,471.8,579.5,470.8,579.4L470.8,579.4z"/>
		<path class="st13" d="M470.8,579.4c-0.2,0-0.3,0-0.5,0c0,0,0,0-0.1,0c0,0,0,0,0-0.1c0,0,0,0,0-0.1c0,0,0,0,0-0.1
			c0,0,1-1.2,1.9-1.3c0.3,0,0.5,0.1,0.7,0.2c0.3,0.2,0.3,0.5,0.2,0.6C472.9,579.1,471.7,579.4,470.8,579.4L470.8,579.4z
			 M470.7,579.1c0.8,0,2.1-0.2,2.2-0.6c0,0,0.1-0.1-0.1-0.3c-0.2-0.1-0.3-0.2-0.5-0.2C471.6,578.2,471.1,578.6,470.7,579.1
			L470.7,579.1z"/>
		<path class="st10" d="M460.9,576.5l-6.1-1.7c-0.2-0.1-0.4,0-0.5,0.2l-2,4.6c-0.1,0.2-0.1,0.5,0,0.7c0.1,0.2,0.3,0.4,0.6,0.5
			c2.1,0.6,3.2,0.7,5.8,1.5c1.6,0.5,4,1.3,6.3,2c2.3,0.6,3-1.6,2.1-2c-4-2.1-4.3-3.6-5.4-5.2C461.5,576.7,461.2,576.5,460.9,576.5
			L460.9,576.5z"/>
		<path class="st10" d="M470.5,578.4l-5.2-3.6c-0.2-0.1-0.4-0.1-0.6,0.1l-3.4,3.7c-0.3,0.4-0.3,0.9,0.1,1.3c0,0,0.1,0,0.1,0.1
			c1.8,1.2,2.8,1.7,5.1,3.3c1.4,1,4.2,3.1,6.1,4.5c1.9,1.3,3.4-0.5,2.7-1.2c-3.1-3.3-3.8-5.4-4.3-7.2
			C471,578.9,470.7,578.7,470.5,578.4z M466.3,571.8l-9.3-4.6l1-2.5l10,4.9L466.3,571.8z M454.1,484.2l-0.8,2
			c-0.1,0.2,0.1,0.3,0.4,0.3h23.7c0.2,0,0.4-0.1,0.4-0.2l0.2-2c0-0.1-0.2-0.3-0.4-0.3h-23.1C454.3,484,454.2,484.1,454.1,484.2
			L454.1,484.2z"/>
		<path class="st22" d="M454.1,484.2l-0.8,2c-0.1,0.2,0.1,0.3,0.4,0.3h23.7c0.2,0,0.4-0.1,0.4-0.2l0.2-2c0-0.1-0.2-0.3-0.4-0.3
			h-23.1C454.3,484,454.2,484.1,454.1,484.2L454.1,484.2z"/>
		<path class="st10" d="M457.8,486.8h-0.6c-0.1,0-0.2-0.1-0.2-0.1l0.3-2.7c0-0.1,0.1-0.1,0.2-0.1h0.6c0.1,0,0.2,0.1,0.2,0.1
			l-0.3,2.7C458.1,486.7,458,486.8,457.8,486.8L457.8,486.8z M472.4,486.8h-0.6c-0.1,0-0.2-0.1-0.2-0.1l0.3-2.7
			c0-0.1,0.1-0.1,0.2-0.1h0.6c0.1,0,0.2,0.1,0.2,0.1l-0.3,2.7C472.6,486.7,472.6,486.8,472.4,486.8L472.4,486.8z"/>
		<path class="st7" d="M457.3,608c10.6,0,19.2-0.6,19.2-1.4s-8.6-1.4-19.2-1.4s-19.2,0.6-19.2,1.4S446.7,608,457.3,608z"/>
		<path class="st5" d="M469,604.7c-3.4-1-7.2-2.3-9.4-3.6l-0.2-0.1v-15.4h6.9c1.1-0.1,1.9-1,1.9-2c0-1.1-0.8-2-1.9-2h-6.8v-70h-4.1
			v70h-6.8c-0.9-0.1-1.7,0.4-2,1.2c-0.2,0.5-0.2,1.1,0,1.6c0.3,0.8,1.1,1.3,2,1.2h6.8V601l-0.2,0.1c-2.3,1.4-6,2.6-9.4,3.6
			c-0.5,0.2-0.8,0.7-0.7,1.2c0.1,0.4,0.5,0.7,1,0.7h22.8c0.6,0,1-0.5,0.9-1.1c0-0.2-0.1-0.3-0.1-0.4
			C469.4,604.9,469.2,604.8,469,604.7L469,604.7z"/>
		<path class="st10" d="M470,504.4h-25.5c-2,0-3.7,1.7-3.7,3.7v7.6c0,2,1.7,3.7,3.7,3.7H470c2,0,3.7-1.7,3.7-3.7v-7.6
			C473.7,506.1,472.1,504.4,470,504.4L470,504.4z M444.3,519.4v1.3c0,1.1,1.2,2,2.6,2h20.8c1.4,0,2.6-0.9,2.6-2v-1.3H444.3z"/>
		<path class="st23" d="M444.3,519.4v1.3c0,1.1,1.2,2,2.6,2h20.8c1.4,0,2.6-0.9,2.6-2v-1.3H444.3z"/>
	</g>
</g>
</svg>
