<svg width="647" height="677" viewBox="0 0 647 677" fill="none" xmlns="http://www.w3.org/2000/svg">
<path d="M312.415 24V6.658H309.373V18.696L300.507 6.658H297.387V24H300.429V11.624L309.477 24H312.415ZM326.421 24V15.68C326.421 12.3 323.977 11.13 321.195 11.13C319.193 11.13 317.373 11.78 315.917 13.158L317.035 15.056C318.127 13.99 319.349 13.47 320.753 13.47C322.495 13.47 323.691 14.354 323.691 15.81V17.682C322.781 16.616 321.325 16.07 319.635 16.07C317.581 16.07 315.267 17.266 315.267 20.152C315.267 22.934 317.581 24.312 319.635 24.312C321.299 24.312 322.755 23.714 323.691 22.648V24H326.421ZM320.701 22.44C319.167 22.44 318.023 21.556 318.023 20.204C318.023 18.826 319.167 17.942 320.701 17.942C321.897 17.942 323.067 18.384 323.691 19.242V21.14C323.067 21.998 321.897 22.44 320.701 22.44ZM341.713 24L336.383 17.136L341.609 11.442H338.229L332.691 17.5V6.658H329.961V24H332.691V20.62L334.433 18.826L338.281 24H341.713ZM354.852 24V11.442H352.122V20.256C351.472 21.114 350.276 21.894 348.898 21.894C347.364 21.894 346.376 21.296 346.376 19.346V11.442H343.646V20.334C343.646 22.908 344.972 24.312 347.676 24.312C349.652 24.312 351.212 23.35 352.122 22.336V24H354.852ZM365.158 24.312C368.408 24.312 370.722 21.842 370.722 17.708C370.722 13.574 368.408 11.13 365.158 11.13C363.52 11.13 362.064 11.91 361.128 13.158V11.442H358.398V28.784H361.128V22.258C362.142 23.61 363.572 24.312 365.158 24.312ZM364.352 21.894C363.078 21.894 361.726 21.114 361.128 20.204V15.238C361.726 14.302 363.078 13.548 364.352 13.548C366.51 13.548 367.888 15.29 367.888 17.708C367.888 20.152 366.51 21.894 364.352 21.894ZM384.636 24V11.442H381.906V20.256C381.256 21.114 380.06 21.894 378.682 21.894C377.148 21.894 376.16 21.296 376.16 19.346V11.442H373.43V20.334C373.43 22.908 374.756 24.312 377.46 24.312C379.436 24.312 380.996 23.35 381.906 22.336V24H384.636ZM389.534 9.908C390.47 9.908 391.224 9.154 391.224 8.218C391.224 7.282 390.47 6.528 389.534 6.528C388.624 6.528 387.844 7.282 387.844 8.218C387.844 9.154 388.624 9.908 389.534 9.908ZM386.752 29.096C389.508 29.096 390.912 27.406 390.912 24.728V11.442H388.182V24.728C388.182 26.21 387.402 26.86 386.336 26.86C385.556 26.86 385.062 26.574 384.594 26.158L383.788 28.186C384.646 28.81 385.296 29.096 386.752 29.096Z" fill="white"/>
<path d="M21.6638 147.57V130.228H18.6218V142.266L9.7558 130.228H6.63579V147.57H9.6778V135.194L18.7258 147.57H21.6638ZM35.6707 147.57V139.25C35.6707 135.87 33.2267 134.7 30.4447 134.7C28.4427 134.7 26.6227 135.35 25.1667 136.728L26.2847 138.626C27.3767 137.56 28.5987 137.04 30.0027 137.04C31.7447 137.04 32.9407 137.924 32.9407 139.38V141.252C32.0307 140.186 30.5747 139.64 28.8847 139.64C26.8307 139.64 24.5167 140.836 24.5167 143.722C24.5167 146.504 26.8307 147.882 28.8847 147.882C30.5487 147.882 32.0047 147.284 32.9407 146.218V147.57H35.6707ZM29.9507 146.01C28.4167 146.01 27.2727 145.126 27.2727 143.774C27.2727 142.396 28.4167 141.512 29.9507 141.512C31.1467 141.512 32.3167 141.954 32.9407 142.812V144.71C32.3167 145.568 31.1467 146.01 29.9507 146.01ZM41.9401 143.8V138.834C42.5381 137.898 43.8901 137.118 45.1641 137.118C47.3481 137.118 48.7261 138.86 48.7261 141.304C48.7261 143.748 47.3481 145.464 45.1641 145.464C43.8901 145.464 42.5381 144.736 41.9401 143.8ZM41.9401 147.57V145.854C42.9021 147.102 44.3321 147.882 45.9701 147.882C49.1681 147.882 51.5341 145.438 51.5341 141.304C51.5341 137.248 49.1941 134.7 45.9701 134.7C44.3841 134.7 42.9281 135.428 41.9401 136.754V130.228H39.2101V147.57H41.9401ZM60.3496 129.37H57.7496L54.1096 133.114H56.0596L60.3496 129.37ZM57.0476 147.57V135.012H54.3176V147.57H57.0476ZM69.975 147.57V145.204H63.605L69.871 137.014V135.012H60.017V137.404H66.231L60.017 145.516V147.57H69.975ZM78.7523 147.882C80.7543 147.882 82.6003 147.258 83.8483 146.062L82.6003 144.268C81.7163 145.152 80.2603 145.646 79.0383 145.646C76.6723 145.646 75.2423 144.086 75.0343 142.188H84.7323V141.538C84.7323 137.586 82.3143 134.7 78.5443 134.7C74.8263 134.7 72.1743 137.638 72.1743 141.278C72.1743 145.256 74.9823 147.882 78.7523 147.882ZM82.0803 140.264H75.0083C75.1383 138.73 76.2043 136.936 78.5443 136.936C81.0143 136.936 82.0283 138.782 82.0803 140.264ZM88.7789 133.478C89.7149 133.478 90.4689 132.724 90.4689 131.788C90.4689 130.852 89.7149 130.098 88.7789 130.098C87.8689 130.098 87.0889 130.852 87.0889 131.788C87.0889 132.724 87.8689 133.478 88.7789 133.478ZM85.9969 152.666C88.7529 152.666 90.1569 150.976 90.1569 148.298V135.012H87.4269V148.298C87.4269 149.78 86.6469 150.43 85.5809 150.43C84.8009 150.43 84.3069 150.144 83.8389 149.728L83.0329 151.756C83.8909 152.38 84.5409 152.666 85.9969 152.666Z" fill="white"/>
<path d="M581.956 147.57V141.096H586.532C590.146 141.096 592.2 138.6 592.2 135.662C592.2 132.724 590.172 130.228 586.532 130.228H578.914V147.57H581.956ZM586.116 138.418H581.956V132.906H586.116C587.832 132.906 589.08 133.998 589.08 135.662C589.08 137.326 587.832 138.418 586.116 138.418ZM600.27 133.634C601.726 133.634 602.896 132.438 602.896 130.982C602.896 129.526 601.726 128.304 600.27 128.304C598.814 128.304 597.618 129.526 597.618 130.982C597.618 132.438 598.814 133.634 600.27 133.634ZM600.27 132.334C599.542 132.334 598.918 131.71 598.918 130.982C598.918 130.228 599.542 129.63 600.27 129.63C601.024 129.63 601.596 130.228 601.596 130.982C601.596 131.71 601.024 132.334 600.27 132.334ZM605.86 147.57V135.012H603.13V143.826C602.48 144.684 601.284 145.464 599.906 145.464C598.372 145.464 597.384 144.866 597.384 142.916V135.012H594.654V143.904C594.654 146.478 595.98 147.882 598.684 147.882C600.66 147.882 602.22 146.92 603.13 145.906V147.57H605.86ZM610.758 133.478C611.694 133.478 612.448 132.724 612.448 131.788C612.448 130.852 611.694 130.098 610.758 130.098C609.848 130.098 609.068 130.852 609.068 131.788C609.068 132.724 609.848 133.478 610.758 133.478ZM607.976 152.666C610.732 152.666 612.136 150.976 612.136 148.298V135.012H609.406V148.298C609.406 149.78 608.626 150.43 607.56 150.43C606.78 150.43 606.286 150.144 605.818 149.728L605.012 151.756C605.87 152.38 606.52 152.666 607.976 152.666ZM622.698 133.114L625.116 129.37H623.374L621.45 131.892L619.422 129.37H617.706L620.202 133.114H622.698ZM621.398 147.882C623.842 147.882 625.324 146.842 626.208 145.646L624.414 143.982C623.712 144.944 622.75 145.464 621.528 145.464C619.24 145.464 617.732 143.722 617.732 141.278C617.732 138.834 619.24 137.118 621.528 137.118C622.75 137.118 623.712 137.612 624.414 138.6L626.208 136.936C625.324 135.74 623.842 134.7 621.398 134.7C617.576 134.7 614.898 137.482 614.898 141.278C614.898 145.1 617.576 147.882 621.398 147.882ZM639.807 147.57V135.012H637.077V143.826C636.427 144.684 635.231 145.464 633.853 145.464C632.319 145.464 631.331 144.866 631.331 142.916V135.012H628.601V143.904C628.601 146.478 629.927 147.882 632.631 147.882C634.607 147.882 636.167 146.92 637.077 145.906V147.57H639.807ZM644.705 133.478C645.641 133.478 646.395 132.724 646.395 131.788C646.395 130.852 645.641 130.098 644.705 130.098C643.795 130.098 643.015 130.852 643.015 131.788C643.015 132.724 643.795 133.478 644.705 133.478ZM641.923 152.666C644.679 152.666 646.083 150.976 646.083 148.298V135.012H643.353V148.298C643.353 149.78 642.573 150.43 641.507 150.43C640.727 150.43 640.233 150.144 639.765 149.728L638.959 151.756C639.817 152.38 640.467 152.666 641.923 152.666Z" fill="white"/>
<path d="M3.08624 543.721V537.247H7.66224C11.2762 537.247 13.3302 534.751 13.3302 531.813C13.3302 528.875 11.3022 526.379 7.66224 526.379H0.0442422V543.721H3.08624ZM7.24624 534.569H3.08624V529.057H7.24624C8.96224 529.057 10.2102 530.149 10.2102 531.813C10.2102 533.477 8.96224 534.569 7.24624 534.569ZM18.5146 543.721V535.167C19.0606 534.283 20.5946 533.503 21.7386 533.503C22.0766 533.503 22.3626 533.529 22.5966 533.581V530.877C20.9586 530.877 19.4506 531.813 18.5146 533.009V531.163H15.7846V543.721H18.5146ZM30.4663 544.033C34.4963 544.033 36.9403 541.043 36.9403 537.429C36.9403 533.841 34.4963 530.851 30.4663 530.851C26.4883 530.851 24.0183 533.841 24.0183 537.429C24.0183 541.043 26.4883 544.033 30.4663 544.033ZM30.4663 541.615C28.1523 541.615 26.8523 539.665 26.8523 537.429C26.8523 535.219 28.1523 533.269 30.4663 533.269C32.8063 533.269 34.1063 535.219 34.1063 537.429C34.1063 539.665 32.8063 541.615 30.4663 541.615ZM51.2726 543.721V526.379H48.5426V532.905C47.5286 531.579 46.0726 530.851 44.5126 530.851C41.2626 530.851 38.9226 533.399 38.9226 537.455C38.9226 541.589 41.2886 544.033 44.5126 544.033C46.1246 544.033 47.5806 543.253 48.5426 542.005V543.721H51.2726ZM45.2926 541.615C43.1346 541.615 41.7566 539.873 41.7566 537.455C41.7566 535.011 43.1346 533.269 45.2926 533.269C46.5926 533.269 47.9186 534.023 48.5426 534.959V539.951C47.9186 540.887 46.5926 541.615 45.2926 541.615ZM65.21 543.721V535.401C65.21 532.021 62.766 530.851 59.984 530.851C57.982 530.851 56.162 531.501 54.706 532.879L55.824 534.777C56.916 533.711 58.138 533.191 59.542 533.191C61.284 533.191 62.48 534.075 62.48 535.531V537.403C61.57 536.337 60.114 535.791 58.424 535.791C56.37 535.791 54.056 536.987 54.056 539.873C54.056 542.655 56.37 544.033 58.424 544.033C60.088 544.033 61.544 543.435 62.48 542.369V543.721H65.21ZM59.49 542.161C57.956 542.161 56.812 541.277 56.812 539.925C56.812 538.547 57.956 537.663 59.49 537.663C60.686 537.663 61.856 538.105 62.48 538.963V540.861C61.856 541.719 60.686 542.161 59.49 542.161ZM64.638 525.521H62.038L58.398 529.265H60.348L64.638 525.521ZM74.9894 543.721L80.1114 531.163H77.1734L73.5074 540.575L69.8414 531.163H66.9294L72.0514 543.721H74.9894ZM87.6236 544.033C89.6256 544.033 91.4716 543.409 92.7196 542.213L91.4716 540.419C90.5876 541.303 89.1316 541.797 87.9096 541.797C85.5436 541.797 84.1136 540.237 83.9056 538.339H93.6036V537.689C93.6036 533.737 91.1856 530.851 87.4156 530.851C83.6976 530.851 81.0456 533.789 81.0456 537.429C81.0456 541.407 83.8536 544.033 87.6236 544.033ZM90.9516 536.415H83.8796C84.0096 534.881 85.0756 533.087 87.4156 533.087C89.8856 533.087 90.8996 534.933 90.9516 536.415ZM97.6503 529.629C98.5863 529.629 99.3403 528.875 99.3403 527.939C99.3403 527.003 98.5863 526.249 97.6503 526.249C96.7403 526.249 95.9603 527.003 95.9603 527.939C95.9603 528.875 96.7403 529.629 97.6503 529.629ZM94.8683 548.817C97.6243 548.817 99.0283 547.127 99.0283 544.449V531.163H96.2983V544.449C96.2983 545.931 95.5183 546.581 94.4523 546.581C93.6723 546.581 93.1783 546.295 92.7103 545.879L91.9043 547.907C92.7623 548.531 93.4123 548.817 94.8683 548.817Z" fill="white"/>
<path d="M583.078 544.033C587.758 544.033 589.786 541.563 589.786 538.677C589.786 532.203 579.698 534.205 579.698 530.981C579.698 529.681 580.842 528.823 582.636 528.823C584.456 528.823 586.302 529.447 587.654 530.799L589.396 528.537C587.784 526.977 585.6 526.119 582.896 526.119C579.1 526.119 576.578 528.329 576.578 531.189C576.578 537.585 586.692 535.323 586.692 538.963C586.692 540.107 585.704 541.329 583.208 541.329C580.79 541.329 578.918 540.211 577.722 538.937L576.032 541.277C577.566 542.915 579.88 544.033 583.078 544.033ZM598.307 544.033C600.309 544.033 602.155 543.409 603.403 542.213L602.155 540.419C601.271 541.303 599.815 541.797 598.593 541.797C596.227 541.797 594.797 540.237 594.589 538.339H604.287V537.689C604.287 533.737 601.869 530.851 598.099 530.851C594.381 530.851 591.729 533.789 591.729 537.429C591.729 541.407 594.537 544.033 598.307 544.033ZM601.635 536.415H594.563C594.693 534.881 595.759 533.087 598.099 533.087C600.569 533.087 601.583 534.933 601.635 536.415ZM612.598 529.265L615.016 525.521H613.274L611.35 528.043L609.322 525.521H607.606L610.102 529.265H612.598ZM616.368 543.721V541.355H609.998L616.264 533.165V531.163H606.41V533.555H612.624L606.41 541.667V543.721H616.368ZM625.145 544.033C627.147 544.033 628.993 543.409 630.241 542.213L628.993 540.419C628.109 541.303 626.653 541.797 625.431 541.797C623.065 541.797 621.635 540.237 621.427 538.339H631.125V537.689C631.125 533.737 628.707 530.851 624.937 530.851C621.219 530.851 618.567 533.789 618.567 537.429C618.567 541.407 621.375 544.033 625.145 544.033ZM628.473 536.415H621.401C621.531 534.881 622.597 533.087 624.937 533.087C627.407 533.087 628.421 534.933 628.473 536.415ZM640.736 529.265L643.154 525.521H641.412L639.488 528.043L637.46 525.521H635.744L638.24 529.265H640.736ZM645.026 543.721V534.881C645.026 532.307 643.674 530.851 640.97 530.851C638.994 530.851 637.382 531.891 636.55 532.879V531.163H633.82V543.721H636.55V534.959C637.174 534.101 638.37 533.269 639.774 533.269C641.308 533.269 642.296 533.919 642.296 535.869V543.721H645.026Z" fill="white"/>
<path d="M300.27 670.925V664.451H304.846C308.46 664.451 310.514 661.955 310.514 659.017C310.514 656.079 308.486 653.583 304.846 653.583H297.228V670.925H300.27ZM304.43 661.773H300.27V656.261H304.43C306.146 656.261 307.394 657.353 307.394 659.017C307.394 660.681 306.146 661.773 304.43 661.773ZM318.256 671.237C322.286 671.237 324.73 668.247 324.73 664.633C324.73 661.045 322.286 658.055 318.256 658.055C314.278 658.055 311.808 661.045 311.808 664.633C311.808 668.247 314.278 671.237 318.256 671.237ZM318.256 668.819C315.942 668.819 314.642 666.869 314.642 664.633C314.642 662.423 315.942 660.473 318.256 660.473C320.596 660.473 321.896 662.423 321.896 664.633C321.896 666.869 320.596 668.819 318.256 668.819ZM345.614 670.925V661.851C345.614 659.303 344.314 658.055 342 658.055C340.128 658.055 338.464 659.225 337.736 660.369C337.32 658.991 336.176 658.055 334.304 658.055C332.406 658.055 330.742 659.303 330.222 660.083V658.367H327.492V670.925H330.222V662.163C330.794 661.331 331.912 660.473 333.108 660.473C334.59 660.473 335.188 661.383 335.188 662.735V670.925H337.918V662.137C338.464 661.331 339.608 660.473 340.83 660.473C342.286 660.473 342.884 661.383 342.884 662.735V670.925H345.614ZM359.55 670.925V662.605C359.55 659.225 357.106 658.055 354.324 658.055C352.322 658.055 350.502 658.705 349.046 660.083L350.164 661.981C351.256 660.915 352.478 660.395 353.882 660.395C355.624 660.395 356.82 661.279 356.82 662.735V664.607C355.91 663.541 354.454 662.995 352.764 662.995C350.71 662.995 348.396 664.191 348.396 667.077C348.396 669.859 350.71 671.237 352.764 671.237C354.428 671.237 355.884 670.639 356.82 669.573V670.925H359.55ZM353.83 669.365C352.296 669.365 351.152 668.481 351.152 667.129C351.152 665.751 352.296 664.867 353.83 664.867C355.026 664.867 356.196 665.309 356.82 666.167V668.065C356.196 668.923 355.026 669.365 353.83 669.365ZM358.978 652.725H356.378L352.738 656.469H354.688L358.978 652.725ZM374.322 670.925V662.033C374.322 659.459 372.97 658.055 370.266 658.055C368.29 658.055 366.652 659.095 365.82 660.083V653.583H363.09V670.925H365.82V662.163C366.47 661.305 367.666 660.473 369.044 660.473C370.578 660.473 371.592 661.071 371.592 663.021V670.925H374.322ZM383.665 671.237C385.667 671.237 387.513 670.613 388.761 669.417L387.513 667.623C386.629 668.507 385.173 669.001 383.951 669.001C381.585 669.001 380.155 667.441 379.947 665.543H389.645V664.893C389.645 660.941 387.227 658.055 383.457 658.055C379.739 658.055 377.087 660.993 377.087 664.633C377.087 668.611 379.895 671.237 383.665 671.237ZM386.993 663.619H379.921C380.051 662.085 381.117 660.291 383.457 660.291C385.927 660.291 386.941 662.137 386.993 663.619ZM393.692 656.833C394.628 656.833 395.382 656.079 395.382 655.143C395.382 654.207 394.628 653.453 393.692 653.453C392.782 653.453 392.002 654.207 392.002 655.143C392.002 656.079 392.782 656.833 393.692 656.833ZM390.91 676.021C393.666 676.021 395.07 674.331 395.07 671.653V658.367H392.34V671.653C392.34 673.135 391.56 673.785 390.494 673.785C389.714 673.785 389.22 673.499 388.752 673.083L387.946 675.111C388.804 675.735 389.454 676.021 390.91 676.021Z" fill="white"/>
<circle cx="341.909" cy="338.909" r="223.516" fill="white"/>
<circle cx="341.909" cy="338.909" r="277.124" stroke="white" stroke-width="4.54301" stroke-linecap="round" stroke-linejoin="round" stroke-dasharray="0.91 18.17"/>
<g clip-path="url(#clip0_4165_35661)">
<path d="M521 439.785H163V439.964H521V439.785Z" fill="#E6E6E6"/>
<path d="M252.371 450.618H228.657V450.797H252.371V450.618Z" fill="#E6E6E6"/>
<path d="M221.153 450.618H207.413V450.797H221.153V450.618Z" fill="#E6E6E6"/>
<path d="M313.754 453.253H300.014V453.432H313.754V453.253Z" fill="#E6E6E6"/>
<path d="M385.397 457.249H354.473V457.428H385.397V457.249Z" fill="#E6E6E6"/>
<path d="M348.1 457.249H343.568V457.428H348.1V457.249Z" fill="#E6E6E6"/>
<path d="M487.599 453.253H420.524V453.432H487.599V453.253Z" fill="#E6E6E6"/>
<path d="M332.692 407.852H194.44C193.357 407.85 192.318 407.418 191.553 406.652C190.788 405.885 190.358 404.846 190.358 403.763V209.419C190.358 208.336 190.788 207.298 191.553 206.531C192.318 205.765 193.357 205.333 194.44 205.331H332.692C333.776 205.331 334.816 205.762 335.583 206.529C336.35 207.295 336.78 208.335 336.78 209.419V403.763C336.78 404.3 336.675 404.832 336.469 405.328C336.264 405.824 335.963 406.275 335.583 406.654C335.203 407.034 334.753 407.335 334.257 407.54C333.761 407.746 333.229 407.852 332.692 407.852ZM194.44 205.51C193.404 205.512 192.411 205.925 191.68 206.658C190.948 207.391 190.537 208.384 190.537 209.419V403.763C190.537 404.799 190.948 405.792 191.68 406.525C192.411 407.258 193.404 407.671 194.44 407.673H332.692C333.728 407.671 334.722 407.258 335.454 406.526C336.187 405.793 336.6 404.8 336.601 403.763V209.419C336.6 208.383 336.187 207.39 335.454 206.657C334.722 205.924 333.728 205.512 332.692 205.51H194.44Z" fill="#E6E6E6"/>
<path d="M487.57 407.852H349.31C348.227 407.85 347.188 407.418 346.421 406.652C345.655 405.886 345.224 404.847 345.222 403.763V209.419C345.224 208.336 345.655 207.297 346.421 206.531C347.188 205.764 348.227 205.333 349.31 205.331H487.57C488.652 205.335 489.688 205.767 490.452 206.534C491.215 207.3 491.644 208.338 491.644 209.419V403.763C491.644 404.845 491.215 405.883 490.452 406.649C489.688 407.415 488.652 407.848 487.57 407.852ZM349.31 205.51C348.274 205.512 347.281 205.924 346.548 206.657C345.815 207.39 345.403 208.383 345.401 209.419V403.763C345.403 404.8 345.815 405.793 346.548 406.526C347.281 407.258 348.274 407.671 349.31 407.673H487.57C488.606 407.671 489.599 407.258 490.332 406.526C491.065 405.793 491.477 404.8 491.479 403.763V209.419C491.477 208.383 491.065 207.39 490.332 206.657C489.599 205.924 488.606 205.512 487.57 205.51H349.31Z" fill="#E6E6E6"/>
<path d="M354.459 378.618H338.714V441.074H354.459V378.618Z" fill="#E0E0E0"/>
<path d="M351.465 441.081H354.458V432.575H348.329L351.465 441.081Z" fill="#FAFAFA"/>
<path d="M285.465 378.618H269.72V441.074H285.465V378.618Z" fill="#E0E0E0"/>
<path d="M354.458 378.618H282.858V435.855H354.458V378.618Z" fill="#FAFAFA"/>
<path d="M351.859 381.467V396.618H285.436V381.467H351.838H351.859ZM352.117 381.195H285.178V396.89H352.139V381.159L352.117 381.195Z" fill="#E0E0E0"/>
<path d="M285.844 441.081H282.858V432.575H288.98L285.844 441.081Z" fill="#FAFAFA"/>
<path d="M317.076 389.007C317.076 389.32 317.169 389.626 317.343 389.886C317.516 390.146 317.764 390.349 318.053 390.469C318.342 390.588 318.66 390.62 318.967 390.559C319.274 390.498 319.556 390.347 319.777 390.126C319.998 389.904 320.149 389.622 320.21 389.315C320.271 389.008 320.24 388.69 320.12 388.401C320 388.112 319.798 387.865 319.537 387.691C319.277 387.517 318.971 387.424 318.658 387.424C318.239 387.424 317.836 387.591 317.539 387.888C317.243 388.185 317.076 388.587 317.076 389.007Z" fill="#E6E6E6"/>
<path d="M351.859 399.668V414.811H285.436V399.668H351.838H351.859ZM352.117 399.396H285.178V415.119H352.139V399.367L352.117 399.396Z" fill="#E0E0E0"/>
<path d="M317.076 407.243C317.076 407.556 317.169 407.862 317.343 408.122C317.516 408.382 317.764 408.585 318.053 408.705C318.342 408.825 318.66 408.856 318.967 408.795C319.274 408.734 319.556 408.583 319.777 408.362C319.998 408.141 320.149 407.859 320.21 407.552C320.271 407.245 320.24 406.927 320.12 406.637C320 406.348 319.798 406.101 319.537 405.927C319.277 405.753 318.971 405.661 318.658 405.661C318.239 405.661 317.836 405.827 317.539 406.124C317.243 406.421 317.076 406.823 317.076 407.243Z" fill="#E6E6E6"/>
<path d="M351.859 417.904V433.019H285.436V417.904H351.838H351.859ZM352.117 417.625H285.178V433.327H352.139V417.625H352.117Z" fill="#E0E0E0"/>
<path d="M317.076 425.472C317.076 425.785 317.169 426.091 317.343 426.352C317.516 426.612 317.764 426.815 318.053 426.934C318.342 427.054 318.66 427.086 318.967 427.024C319.274 426.963 319.556 426.813 319.777 426.591C319.998 426.37 320.149 426.088 320.21 425.781C320.271 425.474 320.24 425.156 320.12 424.867C320 424.578 319.798 424.331 319.537 424.157C319.277 423.983 318.971 423.89 318.658 423.89C318.239 423.89 317.836 424.057 317.539 424.354C317.243 424.65 317.076 425.053 317.076 425.472Z" fill="#E6E6E6"/>
<path d="M275.849 342.345H260.104V441.081H275.849V342.345Z" fill="#E0E0E0"/>
<path d="M272.856 441.081H275.849V432.575H269.727L272.856 441.081Z" fill="#FAFAFA"/>
<path d="M217.008 342.345H201.263V441.081H217.008V342.345Z" fill="#E0E0E0"/>
<path d="M275.849 342.345H214.394V435.861H275.849V342.345Z" fill="#FAFAFA"/>
<path d="M273.2 344.994V366.166H217.044V344.994H273.2ZM273.529 344.672H216.7V366.496H273.515V344.672H273.529Z" fill="#E0E0E0"/>
<path d="M273.2 368.744V424.9H246.45V368.744H273.2ZM273.529 368.415H246.128V425.229H273.529V368.415Z" fill="#E0E0E0"/>
<path d="M243.794 368.744V424.9H217.044V368.744H243.794ZM244.116 368.415H216.7V425.229H244.102V368.415H244.116Z" fill="#E0E0E0"/>
<path d="M217.387 441.081H214.394V432.575H220.523L217.387 441.081Z" fill="#FAFAFA"/>
<path d="M243.536 355.584C243.534 355.899 243.626 356.207 243.8 356.469C243.974 356.731 244.222 356.936 244.512 357.057C244.802 357.179 245.122 357.211 245.431 357.151C245.74 357.09 246.024 356.939 246.247 356.717C246.47 356.495 246.622 356.212 246.684 355.904C246.746 355.595 246.714 355.275 246.594 354.984C246.474 354.694 246.271 354.445 246.009 354.27C245.747 354.095 245.44 354.001 245.125 354.001C244.705 354.001 244.302 354.168 244.004 354.464C243.706 354.761 243.538 355.164 243.536 355.584Z" fill="#E6E6E6"/>
<path d="M249.206 395.479C249.205 395.794 249.297 396.103 249.471 396.365C249.645 396.628 249.894 396.832 250.184 396.954C250.475 397.075 250.795 397.107 251.104 397.046C251.413 396.985 251.697 396.833 251.92 396.61C252.143 396.388 252.294 396.104 252.355 395.795C252.416 395.486 252.384 395.166 252.263 394.875C252.142 394.584 251.937 394.336 251.674 394.162C251.412 393.988 251.104 393.896 250.789 393.897C250.369 393.897 249.967 394.064 249.67 394.36C249.373 394.657 249.206 395.06 249.206 395.479Z" fill="#E6E6E6"/>
<path d="M237.872 395.479C237.872 395.792 237.965 396.098 238.139 396.358C238.313 396.619 238.56 396.821 238.849 396.941C239.138 397.061 239.456 397.092 239.763 397.031C240.07 396.97 240.352 396.82 240.573 396.598C240.795 396.377 240.945 396.095 241.006 395.788C241.067 395.481 241.036 395.163 240.916 394.874C240.797 394.585 240.594 394.338 240.334 394.164C240.073 393.99 239.767 393.897 239.454 393.897C239.035 393.897 238.632 394.064 238.336 394.36C238.039 394.657 237.872 395.06 237.872 395.479Z" fill="#E6E6E6"/>
<path d="M236.082 314.822H229.445C230.056 318.041 230.442 321.3 230.598 324.574C230.598 328.154 225.543 342.345 232.746 342.345C239.948 342.345 234.894 328.182 234.894 324.574C235.061 321.299 235.458 318.041 236.082 314.822Z" fill="#E0E0E0"/>
<path d="M210.829 329.343V333.639C210.836 335.942 211.755 338.148 213.383 339.777C215.012 341.405 217.218 342.323 219.521 342.331H223.817C226.121 342.325 228.328 341.408 229.957 339.779C231.586 338.15 232.504 335.942 232.509 333.639V329.343H210.829Z" fill="#F5F5F5"/>
<path d="M303.1 369.517C303.1 374.529 308.706 378.617 315.558 378.617H321.745C328.597 378.617 334.203 374.522 334.203 369.517H303.1Z" fill="#E0E0E0"/>
<path d="M467.021 362.192C463.269 365.25 458.085 370.863 453.345 378.746C450.18 384.002 448.276 389.486 447.438 396.782C447.438 388.548 447.488 379.706 447.517 371.357C448.469 369.209 450.646 364.255 452.207 360.345C457.412 347.285 459.367 344.078 464.042 332.822C470.293 317.786 476.694 299.986 474.861 301.404C471.123 304.311 456.803 331.125 455.257 334.963C451.041 345.205 448.435 356.037 447.531 367.076C447.531 359.2 447.588 352.04 447.617 346.476C447.717 328.361 448.025 322.512 448.176 320.7C448.756 319.784 449.436 318.717 449.837 318.137C453.202 313.275 454.498 309.13 457.663 301.877C462.159 291.595 466.025 273.344 464.894 274.268C460.183 278.098 456.474 286.339 451.591 296.843C446.708 307.347 448.104 313.376 447.137 322.347C446.937 324.108 446.779 330.746 446.665 339.953C445.405 330.144 443.028 323.686 438.696 317.815C433.369 310.59 428.213 305.707 424.433 303.165C420.653 300.624 430.963 318.359 435.889 326.077C440.278 332.972 444.323 339.058 446.629 345.051C446.507 357.524 446.45 373.319 446.45 388.011C445.319 381.317 443.471 374.114 441.008 368.536C438.044 361.834 433.49 351.553 429.86 348.059C428.994 347.221 433.655 367.219 436.648 372.539C439.641 377.859 441.839 382.871 443.722 385.885C444.159 386.601 445.619 389.3 446.45 390.897C446.45 408.847 446.55 424.685 446.708 430.076H447.481C447.431 428.68 447.417 419.551 447.438 407.465C449.307 400.907 453.574 393.417 457.097 386.587C460.935 379.133 470.773 359.128 467.021 362.192Z" fill="#E0E0E0"/>
<path d="M458.307 441.081H435.867L434.17 419.086H460.004L458.307 441.081Z" fill="#F0F0F0"/>
<path d="M461.672 421.649H432.495L431.665 414.224H462.51L461.672 421.649Z" fill="#F5F5F5"/>
<path d="M251.97 220.038H211.838V264.108H251.97V220.038Z" fill="#E0E0E0"/>
<path d="M256.317 220.038H214.86V264.108H256.317V220.038Z" fill="#F5F5F5"/>
<path d="M252.844 260.642V223.517H218.333V260.642H252.844Z" fill="white"/>
<path d="M244.48 251.635V232.51H226.702V251.635H244.48Z" fill="#F5F5F5"/>
<path d="M456.596 225.179H419.313V266.12H456.596V225.179Z" fill="#E0E0E0"/>
<path d="M460.634 225.179H422.128V266.12H460.634V225.179Z" fill="#F5F5F5"/>
<path d="M457.412 262.891V228.408H425.357V262.891H457.412Z" fill="white"/>
<path d="M441.38 255.651C446.905 255.651 451.383 251.173 451.383 245.649C451.383 240.124 446.905 235.646 441.38 235.646C435.856 235.646 431.378 240.124 431.378 245.649C431.378 251.173 435.856 255.651 441.38 255.651Z" fill="#F5F5F5"/>
<path d="M293.663 246.315H263.892V279.008H293.663V246.315Z" fill="#E0E0E0"/>
<path d="M296.885 246.315H266.133V279.008H296.885V246.315Z" fill="#F5F5F5"/>
<path d="M294.307 276.43V248.893H268.71V276.43H294.307Z" fill="white"/>
<path d="M281.512 255.702L274.51 267.831H288.515L281.512 255.702Z" fill="#F5F5F5"/>
<path d="M342 472.12C418.671 472.12 480.825 468.491 480.825 464.015C480.825 459.538 418.671 455.91 342 455.91C265.329 455.91 203.175 459.538 203.175 464.015C203.175 468.491 265.329 472.12 342 472.12Z" fill="#F5F5F5"/>
<path d="M413.063 283.003L405.96 280.139C405.96 280.139 396.588 297.23 393.903 298.089C390.251 299.264 382.69 302.528 378.208 303.144C377.599 303.86 376.604 306.08 376.697 306.896C382.719 308.901 395.95 306.237 398.786 304.132C405.237 299.321 413.063 283.003 413.063 283.003Z" fill="#E58A7B"/>
<path d="M415.247 279.122C416.571 284.02 409.397 293.858 409.397 293.858L399.996 288.574C399.996 288.574 401.757 284.528 403.905 280.411C407.349 273.76 413.736 273.538 415.247 279.122Z" fill="#6BAA66"/>
<path opacity="0.2" d="M415.247 279.122C416.571 284.02 409.397 293.858 409.397 293.858L399.996 288.574C399.996 288.574 401.757 284.528 403.905 280.411C407.349 273.76 413.736 273.538 415.247 279.122Z" fill="black"/>
<path opacity="0.2" d="M403.726 290.679L407.428 292.748L408.08 281.392C405.924 283.046 404.407 288.029 403.726 290.679Z" fill="black"/>
<path d="M409.061 275.435C409.061 275.435 401.743 291.717 406.011 322.04H434.844C435.302 317.615 433.784 296.02 439.276 275.163C436.113 274.549 432.912 274.143 429.696 273.946C425.616 273.709 421.525 273.709 417.445 273.946C414.617 274.231 411.814 274.729 409.061 275.435Z" fill="#6BAA66"/>
<path opacity="0.2" d="M409.061 275.435C409.061 275.435 401.743 291.717 406.011 322.04H434.844C435.302 317.615 433.784 296.02 439.276 275.163C436.113 274.549 432.912 274.143 429.696 273.946C425.616 273.709 421.525 273.709 417.445 273.946C414.617 274.231 411.814 274.729 409.061 275.435Z" fill="black"/>
<g style="mix-blend-mode:multiply">
<path d="M402.373 464.659C402.33 465.426 413.264 466.048 426.789 466.048C440.314 466.048 451.326 465.426 451.369 464.659C451.412 463.893 440.486 463.263 426.953 463.263C413.421 463.263 402.423 463.893 402.373 464.659Z" fill="#E8ECF1"/>
</g>
<path d="M421.604 444.468L416.49 446.447L420.895 457.827L426.009 455.848L421.604 444.468Z" fill="#E58A7B"/>
<path d="M444.424 459.153H439.032L437.056 446.673H442.448L444.424 459.153Z" fill="#E58A7B"/>
<path d="M438.66 458.53H444.717C444.822 458.529 444.923 458.565 445.003 458.632C445.084 458.699 445.137 458.792 445.154 458.895L445.935 463.693C445.951 463.813 445.941 463.935 445.906 464.051C445.871 464.167 445.812 464.275 445.732 464.366C445.651 464.457 445.553 464.529 445.442 464.579C445.331 464.628 445.211 464.653 445.09 464.652C442.978 464.609 441.961 464.487 439.297 464.487C437.658 464.487 434.285 464.659 432.008 464.659C429.732 464.659 429.581 462.418 430.519 462.218C434.729 461.308 436.362 460.07 437.765 458.86C438.015 458.647 438.332 458.53 438.66 458.53Z" fill="#263238"/>
<path d="M420.76 456.647L426.488 454.979C426.589 454.947 426.698 454.951 426.797 454.992C426.895 455.032 426.976 455.106 427.025 455.201L429.173 459.497C429.223 459.606 429.248 459.724 429.247 459.844C429.247 459.964 429.22 460.082 429.169 460.191C429.118 460.299 429.043 460.395 428.951 460.472C428.859 460.549 428.752 460.604 428.636 460.635C426.552 461.201 425.156 461.559 422.55 462.318C420.753 462.84 418.92 463.692 417.144 464.258C415.912 464.652 413.02 464.666 411.523 464.666C409.311 464.666 408.817 462.332 409.769 462.225C412.168 461.953 412.49 462.081 413.814 461.416C415.98 460.466 417.944 459.109 419.6 457.42C419.914 457.068 420.313 456.801 420.76 456.647Z" fill="#263238"/>
<path d="M379.11 303.079L373.182 300.559L370.74 307.132C373.17 307.502 375.642 307.502 378.072 307.132L379.11 303.079Z" fill="#E58A7B"/>
<path d="M368.771 300.423L368.614 304.791L370.74 307.154L373.182 300.581L368.771 300.423Z" fill="#E58A7B"/>
<path d="M422.321 445.313L417.191 447.294L419.463 453.179L424.593 451.198L422.321 445.313Z" fill="#CF6F64"/>
<path d="M442.448 446.673H437.056L438.08 453.11H443.472L442.448 446.673Z" fill="#CF6F64"/>
<path opacity="0.2" d="M405.094 313.827C405.201 315.123 405.323 316.447 405.481 317.808L426.918 310.848C430.271 309.852 433.183 307.737 435.166 304.855C435.252 302.943 435.359 300.932 435.524 298.834C435.596 297.81 435.682 296.764 435.775 295.705C435.868 294.645 435.997 293.478 436.133 292.347L405.094 313.827Z" fill="black"/>
<path d="M412.096 290.349L411.38 290.256C411.803 286.676 414.473 283.862 417.287 283.927V284.643C414.824 284.593 412.476 287.142 412.096 290.349Z" fill="white"/>
<path d="M415.913 296.979H415.791V296.263C418.254 296.356 420.567 293.785 420.946 290.585L421.662 290.671C421.283 294.151 418.698 296.979 415.913 296.979Z" fill="white"/>
<path d="M429.295 260.134C428.286 264.079 427.097 271.304 429.696 273.939C429.696 273.939 427.877 277.941 420.553 277.941C413.858 277.941 417.445 273.939 417.445 273.939C421.899 272.886 421.978 269.643 421.39 266.564L429.295 260.134Z" fill="#E58A7B"/>
<path d="M426.073 262.762L421.397 266.557C421.542 267.264 421.626 267.983 421.648 268.705C423.016 270.065 425.758 266.621 426.037 264.86C426.178 264.168 426.19 263.457 426.073 262.762Z" fill="#CF6F64"/>
<path d="M413.356 260.091C413.681 260.655 414.119 261.145 414.642 261.531C415.166 261.917 415.765 262.19 416.399 262.332C418.118 262.719 418.977 261.136 418.504 259.547C418.082 258.115 416.671 256.189 414.924 256.518C414.55 256.595 414.2 256.761 413.903 257.001C413.606 257.242 413.371 257.55 413.217 257.899C413.063 258.249 412.996 258.631 413.02 259.012C413.044 259.393 413.16 259.763 413.356 260.091Z" fill="#CF6F64"/>
<path d="M416.199 247.468C413.521 248.692 412.576 259.332 415.941 260.907C419.307 262.482 421.268 245.141 416.199 247.468Z" fill="#263238"/>
<path d="M430.111 254.206C429.467 259.54 429.395 262.683 426.531 265.425C425.644 266.333 424.523 266.978 423.292 267.288C422.061 267.599 420.768 267.563 419.556 267.186C418.344 266.808 417.261 266.102 416.424 265.147C415.588 264.192 415.032 263.025 414.817 261.774C413.951 256.976 415.147 249.05 420.502 246.924C421.628 246.427 422.865 246.241 424.087 246.384C425.308 246.527 426.469 246.994 427.45 247.737C428.43 248.48 429.193 249.471 429.661 250.609C430.129 251.746 430.285 252.988 430.111 254.206Z" fill="#E58A7B"/>
<path d="M421.311 250.232C425.278 249.222 428.192 248.528 427.147 251.836C425.765 256.239 424.104 260.506 426.33 260.707C427.691 260.829 433.705 258.28 432.939 255.695C432.273 253.447 435.087 252.831 435.588 251.692C437.443 247.568 432.137 248.112 433.082 245.606C434.027 243.1 428.786 239.062 425.922 241.067C421.261 244.318 413.263 244.275 417.466 238.919C420.481 235.103 415.104 235.883 415.104 235.883C415.104 235.883 418.354 237.809 412.884 240.788C407.099 243.995 412.404 252.516 421.311 250.232Z" fill="#263238"/>
<path d="M432.216 260.091C431.435 261.224 430.257 262.024 428.915 262.332C427.147 262.719 426.467 261.136 427.132 259.547C427.727 258.115 429.359 256.189 431.049 256.518C432.739 256.848 433.125 258.688 432.216 260.091Z" fill="#E58A7B"/>
<path d="M406.01 322.039C406.01 322.039 401.17 365.35 400.791 381.789C400.404 398.895 417.194 452.244 417.194 452.244L425.786 448.664C425.786 448.664 415.762 399.926 417.194 383.135C418.691 364.784 424.963 322.039 424.963 322.039H406.01Z" fill="#6BAA66"/>
<path opacity="0.2" d="M418.039 333.925C414.18 341.93 416.779 357.754 418.87 367.141C419.664 360.518 420.61 353.329 421.505 346.677C421.419 336.446 420.624 328.555 418.039 333.925Z" fill="black"/>
<path d="M425.407 445.814C425.45 445.814 426.424 448.557 426.424 448.557L416.514 452.717L414.953 449.817L425.407 445.814Z" fill="#6BAA66"/>
<path d="M416.242 322.039C416.242 322.039 419.944 363.238 422.393 378.668C425.085 395.572 435.639 451.871 435.639 451.871H445.512C445.512 451.871 439.598 396.933 438.481 380.2C437.264 362.042 434.844 322.039 434.844 322.039H416.242Z" fill="#6BAA66"/>
<path d="M445.663 449.287C445.706 449.287 445.992 452.051 445.992 452.051H435.138L434.364 448.879L445.663 449.287Z" fill="#6BAA66"/>
<path opacity="0.2" d="M441.882 446.029C441.86 446.029 441.838 446.021 441.821 446.007C441.804 445.993 441.793 445.972 441.789 445.95C441.732 445.449 436.398 395.83 435.396 380.794C434.307 364.477 432.116 328.304 432.095 327.939C432.094 327.915 432.103 327.891 432.119 327.873C432.135 327.854 432.157 327.842 432.181 327.839C432.205 327.841 432.228 327.851 432.245 327.868C432.262 327.885 432.272 327.908 432.274 327.932C432.274 328.29 434.486 364.448 435.575 380.78C436.577 395.816 441.911 445.406 441.961 445.936C441.963 445.948 441.963 445.96 441.96 445.972C441.957 445.983 441.952 445.994 441.944 446.004C441.937 446.013 441.927 446.021 441.917 446.026C441.906 446.032 441.894 446.035 441.882 446.036V446.029Z" fill="black"/>
<path d="M421.92 255.695C421.92 256.132 421.648 256.482 421.361 256.482C421.075 256.482 420.867 256.132 420.896 255.695C420.924 255.258 421.168 254.907 421.454 254.907C421.741 254.907 421.948 255.258 421.92 255.695Z" fill="#263238"/>
<path d="M417.008 255.695C417.008 256.132 416.729 256.482 416.45 256.482C416.17 256.482 415.956 256.132 415.977 255.695C415.999 255.258 416.256 254.907 416.543 254.907C416.829 254.907 417.037 255.258 417.008 255.695Z" fill="#263238"/>
<path d="M418.554 255.91C417.957 257.246 417.187 258.498 416.263 259.633C416.979 260.349 418.318 260.02 418.318 260.02L418.554 255.91Z" fill="#DF5753"/>
<path d="M418.683 261.845C418.667 261.845 418.65 261.842 418.635 261.835C418.62 261.829 418.606 261.819 418.595 261.807C418.583 261.795 418.575 261.781 418.569 261.765C418.563 261.749 418.561 261.733 418.562 261.716C418.564 261.681 418.579 261.649 418.604 261.625C418.629 261.601 418.663 261.587 418.698 261.587C419.245 261.591 419.787 261.472 420.283 261.239C420.778 261.006 421.215 260.665 421.562 260.241C421.586 260.218 421.618 260.205 421.651 260.205C421.685 260.205 421.717 260.218 421.741 260.241C421.753 260.253 421.763 260.266 421.77 260.282C421.777 260.297 421.78 260.314 421.78 260.331C421.78 260.348 421.777 260.364 421.77 260.38C421.763 260.395 421.753 260.409 421.741 260.42C421.37 260.871 420.903 261.233 420.374 261.479C419.845 261.726 419.267 261.851 418.683 261.845Z" fill="#263238"/>
<path d="M422.793 254.371C422.759 254.388 422.721 254.397 422.683 254.397C422.644 254.397 422.606 254.388 422.572 254.371C422.307 254.196 422.005 254.086 421.691 254.05C421.376 254.014 421.057 254.052 420.76 254.163C420.731 254.178 420.699 254.187 420.665 254.189C420.632 254.192 420.599 254.187 420.568 254.175C420.537 254.164 420.509 254.146 420.485 254.123C420.462 254.1 420.443 254.072 420.431 254.041C420.404 253.978 420.404 253.908 420.429 253.845C420.455 253.782 420.504 253.731 420.567 253.705C420.941 253.552 421.347 253.491 421.749 253.529C422.152 253.566 422.54 253.7 422.879 253.919C422.907 253.938 422.93 253.962 422.948 253.99C422.967 254.018 422.979 254.049 422.985 254.081C422.991 254.114 422.99 254.148 422.983 254.18C422.976 254.212 422.963 254.243 422.944 254.27C422.909 254.322 422.855 254.358 422.793 254.371Z" fill="#263238"/>
<path d="M415.111 252.945C415.074 252.934 415.04 252.914 415.011 252.888C414.987 252.865 414.968 252.837 414.955 252.806C414.942 252.776 414.935 252.742 414.935 252.709C414.935 252.676 414.942 252.643 414.955 252.612C414.968 252.581 414.987 252.553 415.011 252.53C415.284 252.221 415.625 251.979 416.008 251.825C416.391 251.671 416.804 251.608 417.216 251.642C417.248 251.647 417.28 251.657 417.308 251.674C417.336 251.692 417.36 251.714 417.379 251.741C417.398 251.768 417.411 251.799 417.418 251.831C417.424 251.863 417.424 251.897 417.416 251.929C417.402 251.996 417.364 252.055 417.308 252.095C417.252 252.135 417.184 252.152 417.116 252.144C416.79 252.123 416.464 252.177 416.163 252.301C415.862 252.425 415.592 252.616 415.376 252.86C415.343 252.896 415.302 252.924 415.255 252.939C415.208 252.954 415.159 252.956 415.111 252.945Z" fill="#263238"/>
<path d="M442.047 282.201L434.6 280.225C434.6 280.225 427.297 298.197 424.712 299.371C421.204 300.968 412.318 306.495 408.538 309.159C408.33 310.046 408.495 312.424 408.967 313.068C415.411 311.901 427.748 307.154 430.326 304.741C436.204 299.235 442.047 282.201 442.047 282.201Z" fill="#E58A7B"/>
<path d="M436.848 459.468C436.486 459.499 436.124 459.403 435.824 459.196C435.732 459.113 435.663 459.007 435.624 458.889C435.585 458.771 435.578 458.645 435.603 458.523C435.608 458.446 435.633 458.372 435.676 458.308C435.719 458.244 435.777 458.192 435.846 458.158C436.447 457.857 438.13 458.924 438.323 459.046C438.345 459.059 438.361 459.078 438.37 459.102C438.379 459.125 438.38 459.15 438.373 459.174C438.368 459.199 438.356 459.222 438.338 459.24C438.321 459.257 438.298 459.27 438.273 459.275C437.807 459.393 437.329 459.458 436.848 459.468ZM436.132 458.358C436.078 458.346 436.022 458.346 435.968 458.358C435.94 458.372 435.917 458.394 435.902 458.42C435.887 458.447 435.88 458.478 435.882 458.509C435.863 458.592 435.867 458.679 435.892 458.76C435.917 458.842 435.963 458.915 436.025 458.974C436.624 459.248 437.306 459.281 437.93 459.067C437.378 458.71 436.759 458.469 436.111 458.358H436.132Z" fill="#6BAA66"/>
<path d="M438.238 459.282H438.18C437.643 458.981 436.634 457.8 436.784 457.199C436.805 457.103 436.859 457.017 436.936 456.956C437.013 456.894 437.108 456.861 437.207 456.862C437.303 456.848 437.401 456.855 437.494 456.884C437.587 456.912 437.672 456.961 437.744 457.027C438.338 457.535 438.374 459.096 438.374 459.175C438.376 459.198 438.371 459.222 438.36 459.242C438.348 459.263 438.33 459.279 438.309 459.289C438.285 459.294 438.26 459.292 438.238 459.282ZM437.278 457.098H437.228C437.063 457.098 437.042 457.199 437.035 457.227C436.949 457.585 437.586 458.48 438.116 458.896C438.111 458.291 437.924 457.702 437.579 457.206C437.494 457.136 437.388 457.098 437.278 457.098Z" fill="#6BAA66"/>
<path d="M417.839 458.58C417.4 458.733 416.923 458.733 416.485 458.58C416.387 458.523 416.304 458.443 416.243 458.347C416.182 458.251 416.145 458.142 416.134 458.029C416.127 457.958 416.136 457.887 416.163 457.82C416.189 457.754 416.231 457.696 416.285 457.649C416.858 457.141 419.199 457.692 419.464 457.757C419.488 457.763 419.509 457.777 419.525 457.796C419.54 457.816 419.549 457.839 419.55 457.864C419.553 457.891 419.547 457.919 419.533 457.942C419.518 457.966 419.497 457.984 419.471 457.993C418.945 458.237 418.399 458.433 417.839 458.58ZM416.671 457.728C416.591 457.746 416.516 457.78 416.449 457.828C416.426 457.847 416.408 457.871 416.398 457.899C416.388 457.927 416.386 457.957 416.392 457.986C416.396 458.06 416.419 458.132 416.459 458.195C416.5 458.258 416.555 458.309 416.621 458.344C417.001 458.552 417.881 458.387 419.02 457.914C418.253 457.721 417.459 457.658 416.671 457.728Z" fill="#6BAA66"/>
<path d="M419.449 458H419.392C418.676 457.872 417.244 457.048 417.201 456.432C417.201 456.289 417.266 456.089 417.609 455.974C417.725 455.931 417.849 455.913 417.972 455.92C418.095 455.927 418.216 455.96 418.325 456.017C419.099 456.397 419.507 457.771 419.528 457.829C419.533 457.851 419.532 457.875 419.526 457.897C419.52 457.92 419.508 457.94 419.492 457.957C419.482 457.975 419.467 457.99 419.449 458ZM417.752 456.189H417.681C417.459 456.268 417.459 456.361 417.459 456.389C417.459 456.755 418.497 457.435 419.22 457.664C419.053 457.089 418.701 456.586 418.218 456.232C418.073 456.161 417.908 456.146 417.752 456.189Z" fill="#6BAA66"/>
<path d="M409.146 308.736L401.679 312.173L400.812 314.278L403.569 316.14C403.569 316.14 408.724 315.574 410.192 312.266L409.146 308.736Z" fill="#E58A7B"/>
<path d="M409.462 313.19C409.291 311.756 408.817 310.375 408.073 309.138L409.254 308.257C410.143 309.68 410.71 311.281 410.915 312.947L409.462 313.19Z" fill="#263238"/>
<path d="M410.736 309.753C410.894 310.001 410.972 310.292 410.958 310.586C410.945 310.88 410.841 311.163 410.662 311.396C410.482 311.629 410.235 311.801 409.954 311.888C409.673 311.976 409.372 311.975 409.092 311.885C408.811 311.796 408.566 311.622 408.388 311.388C408.209 311.153 408.108 310.87 408.097 310.576C408.086 310.282 408.165 309.991 408.325 309.744C408.485 309.497 408.716 309.305 408.989 309.194C409.295 309.04 409.65 309.012 409.977 309.117C410.303 309.221 410.576 309.45 410.736 309.753Z" fill="#263238"/>
<path d="M396.631 314.951L397.626 315.953L404.328 313.089L401.679 312.173L396.631 314.951Z" fill="#E58A7B"/>
<path opacity="0.2" d="M425.407 445.814C425.45 445.814 426.424 448.557 426.424 448.557L416.514 452.717L414.953 449.817L425.407 445.814Z" fill="black"/>
<path opacity="0.2" d="M445.663 449.287C445.706 449.287 445.992 452.051 445.992 452.051H435.138L434.364 448.879L445.663 449.287Z" fill="black"/>
<path d="M443.987 280.146C445.956 286.49 438.259 295.182 438.259 295.182L427.626 290.843C428.886 287.17 430.339 283.566 431.98 280.046C435.245 273.008 441.997 273.738 443.987 280.146Z" fill="#6BAA66"/>
<path opacity="0.2" d="M443.987 280.146C445.956 286.49 438.259 295.182 438.259 295.182L427.626 290.843C428.886 287.17 430.339 283.566 431.98 280.046C435.245 273.008 441.997 273.738 443.987 280.146Z" fill="black"/>
<path d="M338.335 216.515H333.759V217.253H338.335V216.515Z" fill="#6BAA66"/>
<path d="M397.564 245.702L397.011 257.99L397.747 258.023L398.301 245.735L397.564 245.702Z" fill="#6BAA66"/>
<path d="M396.137 219.823H311.649L303.787 395.758H388.275L396.137 219.823Z" fill="#6BAA66"/>
<path opacity="0.56" d="M393.617 222.236H309.129L301.267 398.172H385.755L393.617 222.236Z" fill="#FAFAFA"/>
<path opacity="0.07" d="M391.096 224.649H306.608L298.74 400.584H383.227L391.096 224.649Z" fill="#6BAA66"/>
<path d="M381.48 301.382H309.365L308.763 314.85H380.879L381.48 301.382Z" fill="white"/>
<path d="M349.024 291.566H309.802L309.537 297.588H348.759L349.024 291.566Z" fill="#6BAA66"/>
<path d="M379.855 337.72H307.74L307.138 351.181H379.254L379.855 337.72Z" fill="white"/>
<path opacity="0.47" d="M366.631 369.353H318.136L317.413 385.491H365.908L366.631 369.353Z" fill="#6BAA66"/>
<path d="M363.387 387.99H314.892H314.828C314.822 387.969 314.822 387.946 314.828 387.925L315.544 371.787C315.544 371.776 315.546 371.765 315.55 371.755C315.555 371.745 315.561 371.736 315.569 371.728C315.577 371.721 315.587 371.715 315.597 371.712C315.608 371.708 315.619 371.707 315.63 371.708H364.124C364.143 371.701 364.163 371.701 364.182 371.708C364.182 371.708 364.182 371.751 364.182 371.772L363.48 387.911C363.477 387.933 363.465 387.953 363.448 387.968C363.431 387.982 363.409 387.99 363.387 387.99ZM314.978 387.825H363.301L364.017 371.851H315.694L314.978 387.825Z" fill="white"/>
<path d="M340.554 327.896H308.177L307.912 333.918H340.282L340.554 327.896Z" fill="#6BAA66"/>
<path d="M365.707 257.907C365.515 261.812 364.122 265.563 361.719 268.647C359.934 270.983 357.638 272.88 355.007 274.192C352.376 275.504 349.48 276.196 346.54 276.215C344.164 276.234 341.81 275.767 339.622 274.841C337.434 273.916 335.459 272.552 333.818 270.834C332.177 269.116 330.905 267.08 330.081 264.852C329.257 262.624 328.898 260.251 329.026 257.878C329.278 252.955 331.401 248.314 334.961 244.904C338.522 241.495 343.25 239.574 348.179 239.534C350.56 239.512 352.919 239.978 355.112 240.905C357.304 241.831 359.284 243.198 360.927 244.92C362.57 246.643 363.842 248.684 364.664 250.918C365.486 253.152 365.841 255.53 365.707 257.907Z" fill="white"/>
<path d="M367.433 243.401C367.386 244.443 367.016 245.444 366.373 246.265C365.899 246.888 365.289 247.395 364.589 247.746C363.889 248.098 363.118 248.284 362.335 248.291C361.574 248.297 360.823 248.115 360.148 247.761C359.474 247.408 358.897 246.894 358.468 246.265C357.9 245.421 357.619 244.417 357.667 243.401C357.736 242.092 358.302 240.859 359.249 239.953C360.196 239.047 361.454 238.536 362.764 238.525C363.397 238.519 364.024 238.643 364.606 238.889C365.189 239.135 365.715 239.497 366.153 239.954C366.59 240.411 366.929 240.952 367.149 241.545C367.37 242.138 367.466 242.77 367.433 243.401Z" fill="#6BAA66"/>
<path d="M317.134 308.12C317.099 308.697 316.848 309.24 316.429 309.638C316.01 310.037 315.456 310.262 314.878 310.268C314.599 310.272 314.323 310.218 314.065 310.11C313.808 310.002 313.575 309.842 313.382 309.641C313.189 309.44 313.039 309.201 312.942 308.939C312.844 308.678 312.802 308.399 312.816 308.12C312.849 307.543 313.1 306.999 313.519 306.6C313.938 306.201 314.493 305.977 315.072 305.972C315.35 305.971 315.626 306.026 315.882 306.135C316.139 306.244 316.371 306.403 316.563 306.604C316.756 306.805 316.906 307.043 317.004 307.304C317.102 307.564 317.146 307.842 317.134 308.12Z" fill="#263238"/>
<path d="M326.785 308.12C326.752 308.698 326.501 309.241 326.082 309.64C325.663 310.039 325.108 310.264 324.53 310.268C324.251 310.271 323.975 310.216 323.719 310.108C323.462 309.999 323.231 309.84 323.038 309.638C322.846 309.437 322.696 309.199 322.599 308.938C322.503 308.677 322.46 308.398 322.475 308.12C322.507 307.544 322.758 307.002 323.175 306.603C323.593 306.204 324.146 305.979 324.723 305.972C325.002 305.969 325.279 306.023 325.536 306.131C325.794 306.239 326.026 306.398 326.219 306.6C326.413 306.801 326.563 307.04 326.66 307.301C326.757 307.563 326.8 307.842 326.785 308.12Z" fill="#263238"/>
<path d="M336.444 308.12C336.411 308.698 336.16 309.241 335.741 309.64C335.322 310.039 334.767 310.264 334.189 310.268C333.91 310.271 333.633 310.216 333.377 310.108C333.12 309.999 332.888 309.84 332.695 309.639C332.501 309.438 332.352 309.199 332.254 308.938C332.156 308.677 332.113 308.399 332.126 308.12C332.161 307.543 332.413 307.001 332.831 306.602C333.25 306.204 333.804 305.978 334.382 305.972C334.661 305.97 334.937 306.025 335.194 306.133C335.451 306.241 335.683 306.401 335.876 306.602C336.069 306.803 336.219 307.041 336.317 307.302C336.414 307.564 336.458 307.842 336.444 308.12Z" fill="#263238"/>
<path d="M315.508 344.45C315.474 345.027 315.222 345.569 314.804 345.968C314.385 346.366 313.831 346.592 313.253 346.598C312.974 346.6 312.698 346.545 312.441 346.437C312.184 346.329 311.952 346.169 311.759 345.968C311.566 345.767 311.416 345.529 311.318 345.268C311.221 345.007 311.177 344.728 311.191 344.45C311.224 343.872 311.475 343.329 311.894 342.93C312.313 342.531 312.868 342.306 313.446 342.302C313.725 342.3 314.001 342.354 314.258 342.462C314.515 342.571 314.747 342.73 314.94 342.931C315.133 343.132 315.283 343.371 315.381 343.632C315.479 343.893 315.522 344.171 315.508 344.45Z" fill="#263238"/>
<path d="M325.16 344.45C325.129 345.027 324.879 345.57 324.461 345.969C324.044 346.368 323.489 346.593 322.912 346.598C322.633 346.601 322.356 346.547 322.098 346.439C321.841 346.331 321.608 346.172 321.415 345.971C321.222 345.769 321.072 345.53 320.975 345.269C320.877 345.007 320.835 344.729 320.85 344.45C320.882 343.872 321.134 343.329 321.552 342.93C321.971 342.531 322.526 342.306 323.105 342.302C323.383 342.299 323.659 342.354 323.916 342.462C324.172 342.571 324.404 342.731 324.597 342.932C324.789 343.133 324.938 343.371 325.035 343.633C325.132 343.894 325.174 344.172 325.16 344.45Z" fill="#263238"/>
<path d="M334.84 344.45C334.808 345.027 334.556 345.571 334.137 345.97C333.719 346.369 333.164 346.593 332.585 346.598C332.306 346.6 332.03 346.546 331.773 346.437C331.516 346.329 331.284 346.169 331.091 345.968C330.898 345.767 330.748 345.529 330.65 345.268C330.553 345.007 330.509 344.728 330.523 344.45C330.557 343.873 330.809 343.33 331.228 342.932C331.646 342.533 332.2 342.308 332.778 342.302C333.057 342.299 333.334 342.353 333.592 342.46C333.849 342.568 334.081 342.728 334.275 342.929C334.468 343.131 334.618 343.369 334.715 343.631C334.813 343.892 334.855 344.171 334.84 344.45Z" fill="#263238"/>
<path d="M344.478 344.45C344.443 345.027 344.191 345.569 343.773 345.968C343.354 346.366 342.8 346.592 342.222 346.598C341.943 346.6 341.667 346.545 341.41 346.437C341.153 346.329 340.921 346.169 340.728 345.968C340.535 345.767 340.385 345.529 340.288 345.268C340.19 345.007 340.147 344.728 340.16 344.45C340.195 343.873 340.446 343.33 340.865 342.932C341.284 342.533 341.838 342.308 342.416 342.302C342.694 342.3 342.971 342.354 343.228 342.462C343.484 342.571 343.717 342.73 343.91 342.931C344.103 343.132 344.253 343.371 344.35 343.632C344.448 343.893 344.491 344.171 344.478 344.45Z" fill="#263238"/>
<path d="M354.172 344.45C354.138 345.027 353.886 345.569 353.468 345.968C353.049 346.366 352.495 346.592 351.917 346.598C351.638 346.601 351.361 346.547 351.104 346.439C350.846 346.331 350.614 346.172 350.421 345.971C350.227 345.769 350.077 345.53 349.98 345.269C349.883 345.007 349.84 344.729 349.855 344.45C349.888 343.872 350.139 343.329 350.558 342.93C350.977 342.531 351.532 342.306 352.11 342.302C352.389 342.3 352.665 342.354 352.922 342.462C353.179 342.571 353.411 342.73 353.604 342.931C353.797 343.132 353.947 343.371 354.045 343.632C354.143 343.893 354.186 344.171 354.172 344.45Z" fill="#263238"/>
<path d="M352.695 256.949C355.692 254.018 355.851 249.321 353.051 246.457C350.25 243.593 345.55 243.647 342.553 246.577C339.556 249.508 339.397 254.205 342.198 257.069C344.999 259.933 349.699 259.879 352.695 256.949Z" fill="#6BAA66"/>
<path d="M361.719 268.683C359.931 271.013 357.633 272.903 355.002 274.208C352.371 275.514 349.477 276.2 346.54 276.215C343.692 276.242 340.881 275.57 338.355 274.256C335.828 272.943 333.662 271.029 332.048 268.683C335.528 265.218 341.034 262.955 347.134 262.955C353.234 262.955 358.547 265.218 361.719 268.683Z" fill="#6BAA66"/>
<path opacity="0.1" d="M352.695 256.949C355.692 254.018 355.851 249.321 353.051 246.457C350.25 243.593 345.55 243.647 342.553 246.577C339.556 249.508 339.397 254.205 342.198 257.069C344.999 259.933 349.699 259.879 352.695 256.949Z" fill="white"/>
<path opacity="0.1" d="M361.719 268.683C359.931 271.013 357.633 272.903 355.002 274.208C352.371 275.514 349.477 276.2 346.54 276.215C343.692 276.242 340.881 275.57 338.355 274.256C335.828 272.943 333.662 271.029 332.048 268.683C335.528 265.218 341.034 262.955 347.134 262.955C353.234 262.955 358.547 265.218 361.719 268.683Z" fill="white"/>
<path d="M256.373 318.094C255.693 319.583 254.977 321.215 254.354 322.812C253.731 324.409 253.094 326.034 252.542 327.674C251.416 330.891 250.559 334.196 249.979 337.554L249.822 338.607C249.807 338.788 249.824 338.969 249.872 339.144C250.04 339.736 250.306 340.295 250.659 340.798C251.577 342.11 252.644 343.311 253.838 344.378C255.096 345.548 256.415 346.65 257.791 347.679C259.165 348.738 260.612 349.769 262.037 350.743L260.698 353.249C257.294 351.774 254.065 349.928 251.067 347.743C249.468 346.576 248.024 345.21 246.771 343.676C246.031 342.762 245.452 341.728 245.06 340.619C244.838 339.937 244.722 339.224 244.717 338.507C244.717 338.328 244.717 338.084 244.717 337.963V337.605L244.788 336.889C245.198 333.158 245.982 329.478 247.129 325.905C247.688 324.137 248.282 322.39 248.962 320.671C249.643 318.953 250.344 317.284 251.211 315.552L256.373 318.094Z" fill="#E58A7B"/>
<path d="M261.027 350.307L266.089 347.736L264.779 353.3C264.779 353.3 261.306 354.273 259.695 352.584L261.027 350.307Z" fill="#E58A7B"/>
<path d="M270.722 348.653L269.376 353.25L264.779 353.3L266.089 347.744L270.722 348.653Z" fill="#E58A7B"/>
<path d="M277.867 291.287C278.144 292.28 278.526 293.24 279.006 294.151C278.867 294.309 278.687 294.426 278.487 294.491C278.287 294.555 278.072 294.564 277.867 294.516V291.287Z" fill="#DF5753"/>
<path d="M277.717 291.33C278.014 291.33 278.254 290.961 278.254 290.507C278.254 290.052 278.014 289.683 277.717 289.683C277.42 289.683 277.18 290.052 277.18 290.507C277.18 290.961 277.42 291.33 277.717 291.33Z" fill="#263238"/>
<path d="M277.56 289.712L278.648 289.396C278.648 289.396 278.118 290.249 277.56 289.712Z" fill="#263238"/>
<path d="M263.884 296.535C264.536 299.872 265.187 305.979 262.853 308.199C262.853 308.199 263.77 311.585 269.963 311.585C276.772 311.585 273.214 308.206 273.214 308.206C269.497 307.318 269.591 304.554 270.242 301.97L263.884 296.535Z" fill="#E58A7B"/>
<path d="M262.072 288.952C262.416 294.516 262.445 296.878 265.251 299.735C269.483 304.031 276.242 302.392 277.566 296.871C278.762 291.859 278.003 283.611 272.554 281.391C271.358 280.9 270.056 280.723 268.771 280.875C267.487 281.027 266.262 281.503 265.213 282.26C264.164 283.017 263.325 284.028 262.776 285.199C262.226 286.37 261.984 287.662 262.072 288.952Z" fill="#E58A7B"/>
<path d="M262.624 282.659C259.831 283.676 256.108 282.917 257.569 291.53C259.115 300.645 256.738 303.645 256.738 303.645C256.738 303.645 267.328 305.908 278.14 303.516C278.14 303.516 274.839 297.738 275.762 293.528C276.944 288.158 276.013 286.175 276.013 286.175C276.013 286.175 266.547 281.227 262.624 282.659Z" fill="#263238"/>
<path d="M274.438 291.853C274.44 292.91 274.743 293.946 275.311 294.838C276.07 295.998 276.965 295.554 277.187 294.323C277.387 293.234 277.237 291.323 276.27 290.585C275.304 289.848 274.452 290.592 274.438 291.853Z" fill="#E58A7B"/>
<path d="M260.197 283.633C259.395 281.377 263.218 277.905 271.309 279.337C279.4 280.769 279.751 287.499 279.751 287.499L278.118 285.559L278.19 287.607L269.877 289.203L260.197 283.633Z" fill="#263238"/>
<path d="M260.884 308.578C260.834 308.251 260.915 307.917 261.109 307.649C261.304 307.381 261.595 307.201 261.922 307.146C264.442 306.731 270.17 305.886 273.048 306.287C275.196 306.58 275.755 307.833 275.848 308.857C275.863 309.037 275.839 309.217 275.778 309.386C275.717 309.555 275.62 309.71 275.495 309.839C275.369 309.967 275.218 310.068 275.05 310.133C274.883 310.199 274.703 310.228 274.523 310.218L262.079 309.659C261.786 309.644 261.507 309.529 261.289 309.332C261.071 309.135 260.928 308.868 260.884 308.578Z" fill="#6BAA66"/>
<path opacity="0.6" d="M260.884 308.578C260.834 308.251 260.915 307.917 261.109 307.649C261.304 307.381 261.595 307.201 261.922 307.146C264.442 306.731 270.17 305.886 273.048 306.287C275.196 306.58 275.755 307.833 275.848 308.857C275.863 309.037 275.839 309.217 275.778 309.386C275.717 309.555 275.62 309.71 275.495 309.839C275.369 309.967 275.218 310.068 275.05 310.133C274.883 310.199 274.703 310.228 274.523 310.218L262.079 309.659C261.786 309.644 261.507 309.529 261.289 309.332C261.071 309.135 260.928 308.868 260.884 308.578Z" fill="black"/>
<path d="M268.08 433.67L272.698 436.871L280.423 426.403L275.805 423.195L268.08 433.67Z" fill="#E58A7B"/>
<path d="M257.311 433.455L262.187 436.241L269.025 425.164L264.149 422.379L257.311 433.455Z" fill="#E58A7B"/>
<path d="M280.416 426.403L276.435 431.802L271.817 428.594L275.798 423.203L280.416 426.403Z" fill="#CF6F64"/>
<path d="M264.142 422.387L269.025 425.165L265.502 430.871L260.619 428.093L264.142 422.387Z" fill="#CF6F64"/>
<path d="M271.975 343.519C271.975 343.519 290.003 366.238 286.617 387.968C283.889 405.517 268.065 429.282 268.065 429.282L260.626 425.587C265.87 415.08 270.344 404.206 274.015 393.052C275.147 389.589 275.478 385.914 274.981 382.304C274.485 378.695 273.176 375.246 271.151 372.216C262.015 358.877 247.38 366.811 257.225 343.519H271.975Z" fill="#6BAA66"/>
<path opacity="0.6" d="M271.975 343.519C271.975 343.519 290.003 366.238 286.617 387.968C283.889 405.517 268.065 429.282 268.065 429.282L260.626 425.587C265.87 415.08 270.344 404.206 274.015 393.052C275.147 389.589 275.478 385.914 274.981 382.304C274.485 378.695 273.176 375.246 271.151 372.216C262.015 358.877 247.38 366.811 257.225 343.519H271.975Z" fill="black"/>
<path opacity="0.4" d="M280.817 358.147L278.197 355.541C278.197 355.748 283.273 387.08 284.698 395.887C285.538 393.314 286.182 390.681 286.624 388.011C288.3 377.357 284.798 366.474 280.817 358.147Z" fill="black"/>
<path d="M280.023 343.519C280.023 343.519 301.732 372.073 302.348 389.193C302.856 403.513 278.72 431.258 278.72 431.258L271.703 426.718C271.703 426.718 285.829 407.014 289.388 390.918C288.013 375.023 258.944 343.519 258.944 343.519H280.023Z" fill="#6BAA66"/>
<path opacity="0.6" d="M280.023 343.519C280.023 343.519 301.732 372.073 302.348 389.193C302.856 403.513 278.72 431.258 278.72 431.258L271.703 426.718C271.703 426.718 285.829 407.014 289.388 390.918C288.013 375.023 258.944 343.519 258.944 343.519H280.023Z" fill="black"/>
<path d="M253.165 309.48C250.845 310.025 248.619 318.466 248.619 318.466L257.69 324.516C257.69 324.516 260.712 317.85 259.652 314.929C258.557 311.886 256.079 308.786 253.165 309.48Z" fill="#6BAA66"/>
<path opacity="0.2" d="M254.941 314.879L254.311 322.232L257.683 324.495C258.613 322.398 259.303 320.203 259.738 317.951L254.941 314.879Z" fill="black"/>
<path d="M282.707 309.638C282.707 309.638 285.385 310.583 280.022 343.547H257.211C257.597 334.239 257.604 328.511 253.165 309.48C256.36 308.822 259.597 308.393 262.853 308.199C266.302 307.955 269.764 307.955 273.213 308.199C277.667 308.607 282.707 309.638 282.707 309.638Z" fill="#6BAA66"/>
<path d="M285.027 314.879C285.543 316.311 286.087 317.858 286.66 319.34C287.233 320.822 287.777 322.347 288.357 323.843L290.111 328.34L290.555 329.464L290.784 330.03L290.891 330.309C290.891 330.359 290.891 330.359 290.891 330.352C290.76 330.166 290.589 330.012 290.39 329.901C290.108 329.733 289.788 329.64 289.459 329.629C289.187 329.619 288.916 329.667 288.665 329.772C288.335 329.929 288.335 329.994 288.342 329.987C288.4 329.937 288.453 329.882 288.5 329.822C288.895 329.301 289.238 328.742 289.524 328.154C289.86 327.495 290.183 326.793 290.505 326.084C291.135 324.652 291.715 323.17 292.295 321.674C292.875 320.177 293.426 318.66 293.963 317.142L295.596 312.566L298.352 313.282C297.808 316.547 297.106 319.726 296.261 322.963C295.853 324.574 295.374 326.17 294.829 327.781C294.557 328.583 294.257 329.392 293.913 330.209C293.556 331.105 293.115 331.966 292.595 332.779C292.405 333.052 292.194 333.311 291.965 333.552C291.598 333.945 291.155 334.259 290.662 334.476C290.224 334.664 289.75 334.752 289.273 334.734C288.739 334.711 288.219 334.554 287.762 334.276C287.222 333.943 286.774 333.48 286.459 332.929C286.352 332.743 286.259 332.557 286.194 332.421L286.058 332.142L285.786 331.591L285.242 330.474C284.526 328.984 283.81 327.488 283.187 325.977C282.564 324.466 281.906 322.927 281.29 321.395C280.674 319.862 280.123 318.316 279.6 316.655L285.027 314.879Z" fill="#E58A7B"/>
<path d="M282.707 309.638C285.45 310.297 288.536 318.395 288.536 318.395L280.38 325.34C280.38 325.34 275.103 316.505 276.17 313.591C277.28 310.583 279.127 308.786 282.707 309.638Z" fill="#6BAA66"/>
<path d="M296.891 310.039L299.755 307.647L301.746 310.741L300.278 313.333C300.278 313.333 297.944 315.481 295.882 314.385C295.555 313.649 295.476 312.827 295.658 312.043C295.84 311.258 296.273 310.555 296.891 310.039Z" fill="#E58A7B"/>
<path d="M304.925 307.655L304.71 308.428L300.178 309.194L299.734 307.647L304.925 307.655Z" fill="#E58A7B"/>
<path d="M279.278 431.659L271.101 426.367L272.569 423.826L281.755 429.475L279.278 431.659Z" fill="#6BAA66"/>
<path d="M265.387 435.883C264.669 435.798 263.979 435.554 263.368 435.167C263.344 435.156 263.324 435.138 263.311 435.114C263.298 435.091 263.293 435.064 263.297 435.038C263.301 435.013 263.312 434.989 263.328 434.969C263.344 434.948 263.366 434.933 263.39 434.923C263.612 434.859 265.538 434.265 266.096 434.723C266.159 434.774 266.207 434.84 266.235 434.916C266.262 434.992 266.269 435.073 266.254 435.153C266.244 435.283 266.202 435.408 266.13 435.517C266.059 435.626 265.961 435.715 265.846 435.775C265.703 435.846 265.546 435.883 265.387 435.883ZM263.776 435.102C264.671 435.554 265.387 435.725 265.731 435.554C265.807 435.511 265.871 435.45 265.916 435.376C265.961 435.302 265.986 435.218 265.989 435.131C265.998 435.097 265.997 435.061 265.986 435.028C265.974 434.995 265.953 434.966 265.924 434.945C265.624 434.68 264.55 434.866 263.762 435.081L263.776 435.102Z" fill="#263238"/>
<path d="M263.418 435.167C263.381 435.167 263.345 435.151 263.318 435.124C263.308 435.104 263.302 435.082 263.302 435.06C263.302 435.037 263.308 435.015 263.318 434.995C263.318 434.931 263.784 433.377 264.514 433.019C264.607 432.977 264.709 432.955 264.811 432.955C264.914 432.955 265.015 432.977 265.108 433.019C265.209 433.051 265.296 433.115 265.356 433.202C265.415 433.289 265.444 433.394 265.438 433.499C265.387 434.143 264.077 435.031 263.476 435.174L263.418 435.167ZM264.808 433.212C264.737 433.211 264.668 433.228 264.607 433.263C264.163 433.47 263.798 434.315 263.619 434.823C264.249 434.559 265.115 433.857 265.144 433.463C265.144 433.399 265.144 433.313 264.979 433.248C264.924 433.232 264.866 433.224 264.808 433.227V433.212Z" fill="#263238"/>
<path d="M275.604 438.955C274.795 438.955 273.671 437.923 273.055 437.286C273.04 437.264 273.031 437.238 273.031 437.211C273.031 437.184 273.04 437.158 273.055 437.136C273.069 437.112 273.089 437.092 273.113 437.078C273.137 437.065 273.164 437.057 273.191 437.057C273.478 437.1 275.962 437.429 276.313 438.138C276.35 438.201 276.37 438.273 276.37 438.346C276.37 438.419 276.35 438.491 276.313 438.554C276.261 438.663 276.181 438.757 276.082 438.827C275.983 438.897 275.868 438.941 275.748 438.955H275.604ZM273.528 437.379C274.43 438.26 275.225 438.747 275.676 438.69C275.755 438.679 275.83 438.65 275.895 438.604C275.96 438.557 276.013 438.496 276.048 438.425C276.064 438.399 276.073 438.369 276.073 438.339C276.073 438.308 276.064 438.279 276.048 438.253C275.862 437.873 274.538 437.544 273.528 437.379Z" fill="#263238"/>
<path d="M273.607 437.358C273.446 437.362 273.285 437.35 273.127 437.322C273.105 437.317 273.084 437.307 273.066 437.292C273.048 437.277 273.035 437.258 273.027 437.236C273.016 437.216 273.011 437.194 273.011 437.171C273.011 437.149 273.016 437.127 273.027 437.107C273.07 437.057 274.037 435.89 274.953 435.811C275.082 435.799 275.211 435.814 275.334 435.853C275.457 435.892 275.571 435.956 275.669 436.04C275.948 436.284 275.934 436.498 275.862 436.634C275.683 437.114 274.445 437.358 273.607 437.358ZM273.421 437.093C274.223 437.136 275.504 436.871 275.669 436.52C275.669 436.52 275.726 436.405 275.54 436.241C275.465 436.177 275.379 436.13 275.285 436.102C275.192 436.074 275.093 436.065 274.996 436.076C274.377 436.241 273.826 436.596 273.421 437.093Z" fill="#263238"/>
<path d="M263.612 434.451L257.54 432.732C257.436 432.7 257.324 432.707 257.225 432.752C257.127 432.797 257.047 432.876 257.003 432.976L254.955 437.587C254.907 437.705 254.885 437.831 254.889 437.959C254.894 438.086 254.925 438.211 254.981 438.325C255.037 438.439 255.117 438.541 255.215 438.622C255.313 438.703 255.427 438.763 255.55 438.797C257.698 439.355 258.729 439.513 261.399 440.272C263.046 440.737 265.395 441.589 267.664 442.226C269.934 442.864 270.693 440.658 269.812 440.193C265.832 438.081 265.516 436.613 264.428 435.038C264.236 434.75 263.946 434.541 263.612 434.451Z" fill="#6BAA66"/>
<path d="M273.22 436.449L268.036 432.869C267.947 432.807 267.839 432.78 267.731 432.792C267.623 432.804 267.523 432.854 267.449 432.933L264.013 436.621C263.929 436.717 263.866 436.83 263.829 436.952C263.792 437.074 263.781 437.202 263.797 437.329C263.814 437.455 263.857 437.577 263.923 437.686C263.99 437.795 264.079 437.888 264.184 437.96C266.01 439.177 266.955 439.678 269.239 441.261C270.671 442.234 273.442 444.397 275.375 445.743C277.309 447.089 278.748 445.241 278.06 444.511C274.982 441.218 274.309 439.155 273.8 437.287C273.713 436.947 273.507 436.65 273.22 436.449Z" fill="#6BAA66"/>
<path d="M269.017 429.783L259.674 425.136L260.64 422.608L270.621 427.499L269.017 429.783Z" fill="#6BAA66"/>
<path d="M256.867 342.209L256.079 344.235C256.001 344.393 256.187 344.55 256.452 344.55H280.137C280.345 344.55 280.516 344.45 280.531 344.321L280.731 342.281C280.731 342.137 280.566 342.023 280.345 342.023H257.239C257.166 342.018 257.093 342.033 257.028 342.066C256.963 342.098 256.907 342.148 256.867 342.209Z" fill="#6BAA66"/>
<path opacity="0.4" d="M256.867 342.209L256.079 344.235C256.001 344.393 256.187 344.55 256.452 344.55H280.137C280.345 344.55 280.516 344.45 280.531 344.321L280.731 342.281C280.731 342.137 280.566 342.023 280.345 342.023H257.239C257.166 342.018 257.093 342.033 257.028 342.066C256.963 342.098 256.907 342.148 256.867 342.209Z" fill="white"/>
<path d="M260.598 344.786H259.975C259.853 344.786 259.76 344.729 259.767 344.65L260.061 341.994C260.061 341.915 260.175 341.851 260.297 341.851H260.92C261.041 341.851 261.135 341.915 261.127 341.994L260.834 344.65C260.827 344.729 260.719 344.786 260.598 344.786Z" fill="#6BAA66"/>
<path d="M275.204 344.786H274.588C274.466 344.786 274.373 344.729 274.38 344.65L274.667 341.994C274.667 341.915 274.788 341.851 274.91 341.851H275.526C275.648 341.851 275.748 341.915 275.734 341.994L275.447 344.65C275.411 344.729 275.333 344.786 275.204 344.786Z" fill="#6BAA66"/>
<g style="mix-blend-mode:multiply">
<path d="M260.053 466.048C270.647 466.048 279.235 465.426 279.235 464.659C279.235 463.892 270.647 463.27 260.053 463.27C249.459 463.27 240.872 463.892 240.872 464.659C240.872 465.426 249.459 466.048 260.053 466.048Z" fill="#F5F5F5"/>
</g>
<path d="M271.738 462.697C268.345 461.709 264.578 460.442 262.302 459.117L262.101 459.024V443.652H268.968C269.489 443.621 269.979 443.392 270.337 443.012C270.695 442.632 270.894 442.13 270.894 441.608C270.894 441.085 270.695 440.583 270.337 440.203C269.979 439.823 269.489 439.594 268.968 439.563H262.137V369.517H258.013V439.563H251.189C250.911 439.547 250.632 439.588 250.369 439.683C250.107 439.778 249.867 439.926 249.664 440.117C249.461 440.309 249.299 440.54 249.188 440.796C249.078 441.052 249.02 441.328 249.02 441.608C249.02 441.887 249.078 442.163 249.188 442.419C249.299 442.675 249.461 442.906 249.664 443.098C249.867 443.289 250.107 443.437 250.369 443.532C250.632 443.628 250.911 443.668 251.189 443.652H258.013V458.996L257.819 459.089C255.507 460.442 251.769 461.709 248.375 462.669C248.146 462.738 247.949 462.887 247.82 463.089C247.692 463.291 247.639 463.532 247.673 463.769C247.707 464.007 247.824 464.224 248.004 464.382C248.184 464.54 248.415 464.628 248.655 464.631H271.459C271.685 464.612 271.898 464.517 272.063 464.361C272.228 464.206 272.335 463.999 272.367 463.775C272.4 463.551 272.355 463.322 272.241 463.126C272.127 462.931 271.95 462.779 271.738 462.697Z" fill="#E0E0E0"/>
<path d="M272.791 362.393H247.33C245.282 362.393 243.621 364.054 243.621 366.102V373.67C243.621 375.718 245.282 377.379 247.33 377.379H272.791C274.839 377.379 276.5 375.718 276.5 373.67V366.102C276.5 364.054 274.839 362.393 272.791 362.393Z" fill="#6BAA66"/>
<path d="M247.094 377.379V378.682C247.094 379.756 248.261 380.637 249.693 380.637H270.457C271.889 380.637 273.056 379.756 273.056 378.682V377.379H247.094Z" fill="#6BAA66"/>
<path opacity="0.3" d="M247.094 377.379V378.682C247.094 379.756 248.261 380.637 249.693 380.637H270.457C271.889 380.637 273.056 379.756 273.056 378.682V377.379H247.094Z" fill="white"/>
</g>
<defs>
<clipPath id="clip0_4165_35661">
<rect width="358" height="266.789" fill="white" transform="translate(163 205.331)"/>
</clipPath>
</defs>
</svg>
