<svg width="128" height="47" viewBox="0 0 128 47" fill="none" xmlns="http://www.w3.org/2000/svg">
<g clip-path="url(#clip0_4073_39220)">
<path d="M76.0683 17.9634L74.1716 19.3376L74.4493 20.1913L74.5213 20.4114L74.8957 21.5676C74.9174 21.6326 74.9177 21.7029 74.8968 21.7681C74.8758 21.8334 74.8347 21.8903 74.7792 21.9306C74.7238 21.9709 74.657 21.9926 74.5884 21.9924C74.5198 21.9922 74.4531 21.9702 74.3979 21.9296L73.4187 21.2178L72.5012 20.5513L71.3636 21.3742L70.6065 21.9255C70.5513 21.9661 70.4846 21.9881 70.416 21.9883C70.3475 21.9885 70.2806 21.9668 70.2252 21.9265C70.1698 21.8862 70.1286 21.8293 70.1076 21.764C70.0867 21.6987 70.0871 21.6285 70.1087 21.5634L70.3267 20.8907L70.6065 20.0308L70.8328 19.3335L68.9361 17.9572C68.8814 17.9167 68.8408 17.8601 68.82 17.7953C68.7991 17.7305 68.7992 17.6608 68.8201 17.5961C68.841 17.5313 68.8817 17.4747 68.9365 17.4343C68.9912 17.3939 69.0573 17.3718 69.1253 17.3709H71.4705V17.3586L71.7956 16.3793L71.8182 16.3115L71.8305 16.2724L71.9252 15.9802L72.1947 15.1574C72.2122 15.1017 72.2447 15.052 72.2886 15.0135C72.3325 14.9751 72.3861 14.9494 72.4436 14.9393V14.9393C72.5207 14.9246 72.6006 14.9386 72.6681 14.9788C72.7356 15.019 72.786 15.0825 72.8098 15.1574L72.8303 15.2191L73.1183 16.1119L73.2233 16.4308L73.5216 17.3483L73.5339 17.3874H75.877C75.9427 17.3904 76.0059 17.4132 76.0584 17.4529C76.1108 17.4926 76.15 17.5472 76.1707 17.6096C76.1914 17.672 76.1927 17.7392 76.1744 17.8024C76.1562 17.8655 76.1192 17.9217 76.0683 17.9634V17.9634Z" fill="#FFCD2C"/>
<path d="M88.8537 17.9636L86.9569 19.3378L87.2347 20.1915L87.3067 20.4116L87.6811 21.5678C87.7027 21.6328 87.7031 21.7031 87.6821 21.7683C87.6612 21.8336 87.62 21.8905 87.5645 21.9308C87.5091 21.9712 87.4423 21.9928 87.3737 21.9926C87.3052 21.9924 87.2385 21.9704 87.1832 21.9298L86.1958 21.2201L85.2783 20.5536L84.1407 21.3764L83.3836 21.9278C83.3284 21.9684 83.2617 21.9904 83.1931 21.9906C83.1246 21.9907 83.0577 21.9691 83.0023 21.9288C82.9469 21.8885 82.9057 21.8315 82.8847 21.7663C82.8638 21.701 82.8642 21.6308 82.8858 21.5657L83.1038 20.893L83.3836 20.0331L83.6099 19.3357L81.7132 17.9595C81.6585 17.919 81.6179 17.8624 81.5971 17.7976C81.5762 17.7328 81.5763 17.6631 81.5972 17.5983C81.6181 17.5336 81.6588 17.477 81.7136 17.4366C81.7683 17.3962 81.8344 17.374 81.9024 17.3732H84.2476V17.3608L84.5665 16.3754L84.5891 16.3075L84.6015 16.2685L84.6961 15.9763L84.9656 15.1535C84.9832 15.0978 85.0157 15.0481 85.0595 15.0096C85.1034 14.9712 85.157 14.9455 85.2145 14.9354V14.9354C85.2917 14.9206 85.3715 14.9347 85.439 14.9749C85.5065 15.0151 85.5569 15.0786 85.5807 15.1535L85.6013 15.2152L85.8893 16.108L85.9942 16.4269L86.2925 17.3444L86.3048 17.3835H88.6644C88.7309 17.3859 88.7951 17.4087 88.8482 17.4487C88.9013 17.4888 88.9409 17.5442 88.9615 17.6075C88.9822 17.6707 88.9829 17.7388 88.9636 17.8025C88.9443 17.8662 88.9059 17.9224 88.8537 17.9636V17.9636Z" fill="#FFCD2C"/>
<path d="M101.639 17.9632L99.7424 19.3374L100.02 20.1911L100.092 20.4112L100.467 21.5674C100.488 21.6324 100.489 21.7027 100.468 21.768C100.447 21.8332 100.405 21.8901 100.35 21.9305C100.295 21.9708 100.228 21.9924 100.159 21.9922C100.091 21.992 100.024 21.9701 99.9687 21.9294L98.9895 21.2177L98.072 20.5511L96.9344 21.374L96.1773 21.9253C96.1221 21.9659 96.0554 21.9879 95.9868 21.9881C95.9183 21.9883 95.8515 21.9667 95.796 21.9263C95.7406 21.886 95.6994 21.8291 95.6784 21.7638C95.6575 21.6986 95.6579 21.6283 95.6795 21.5633L95.8975 20.8906L96.1773 20.0307L96.4036 19.3333L94.5069 17.957C94.4522 17.9165 94.4116 17.8599 94.3908 17.7951C94.3699 17.7303 94.37 17.6606 94.3909 17.5959C94.4118 17.5311 94.4525 17.4746 94.5073 17.4342C94.562 17.3938 94.6281 17.3716 94.6962 17.3707H97.0413V17.3584L97.3602 16.373L97.3828 16.3051L97.3952 16.266L97.4898 15.9739L97.7593 15.151C97.7769 15.0954 97.8094 15.0456 97.8533 15.0072C97.8971 14.9687 97.9507 14.9431 98.0082 14.933V14.933C98.0854 14.9182 98.1652 14.9322 98.2327 14.9724C98.3002 15.0126 98.3506 15.0762 98.3744 15.151L98.395 15.2127L98.683 16.1056L98.7879 16.4244L99.0862 17.3419L99.0985 17.381H101.442C101.509 17.3813 101.575 17.4027 101.63 17.4422C101.685 17.4818 101.726 17.5375 101.748 17.6016C101.77 17.6657 101.771 17.735 101.752 17.7999C101.732 17.8647 101.693 17.9218 101.639 17.9632V17.9632Z" fill="#FFCD2C"/>
<path d="M114.424 17.9632L112.528 19.3374L112.805 20.1911L112.877 20.4112L113.252 21.5674C113.274 21.6324 113.274 21.7027 113.253 21.768C113.232 21.8332 113.191 21.8901 113.135 21.9305C113.08 21.9708 113.013 21.9924 112.945 21.9922C112.876 21.992 112.809 21.9701 112.754 21.9294L111.775 21.2177L110.857 20.5511L109.72 21.374L108.963 21.9253C108.907 21.9659 108.841 21.9879 108.772 21.9881C108.704 21.9883 108.637 21.9667 108.581 21.9263C108.526 21.886 108.485 21.8291 108.464 21.7638C108.443 21.6986 108.443 21.6283 108.465 21.5633L108.683 20.8906L108.963 20.0307L109.189 19.3333L107.292 17.957C107.238 17.9165 107.197 17.8599 107.176 17.7951C107.155 17.7303 107.155 17.6606 107.176 17.5959C107.197 17.5311 107.238 17.4746 107.293 17.4342C107.347 17.3938 107.413 17.3716 107.481 17.3707H109.827V17.3584L110.146 16.373L110.168 16.3051L110.181 16.266L110.275 15.9739L110.545 15.151C110.562 15.0954 110.595 15.0456 110.639 15.0072C110.682 14.9687 110.736 14.9431 110.794 14.933C110.871 14.9182 110.951 14.9322 111.018 14.9724C111.086 15.0126 111.136 15.0762 111.16 15.151L111.18 15.2127L111.468 16.1056L111.573 16.4244L111.872 17.3419L111.884 17.381H114.227C114.295 17.3813 114.361 17.4027 114.416 17.4422C114.471 17.4818 114.512 17.5375 114.533 17.6016C114.555 17.6657 114.556 17.735 114.537 17.7999C114.517 17.8647 114.478 17.9218 114.424 17.9632V17.9632Z" fill="#FFCD2C"/>
<path d="M127.21 17.9636L125.313 19.3378L125.591 20.1915L125.663 20.4116L126.037 21.5678C126.059 21.6328 126.059 21.7031 126.038 21.7683C126.017 21.8336 125.976 21.8905 125.921 21.9308C125.865 21.9712 125.798 21.9928 125.73 21.9926C125.661 21.9924 125.595 21.9704 125.539 21.9298L124.56 21.218L123.637 20.5536L122.499 21.3764L121.742 21.9278C121.687 21.9684 121.62 21.9904 121.551 21.9906C121.483 21.9907 121.416 21.9691 121.361 21.9288C121.305 21.8885 121.264 21.8315 121.243 21.7663C121.222 21.701 121.222 21.6308 121.244 21.5657L121.462 20.893L121.742 20.0331L121.968 19.3357L120.071 17.9595C120.017 17.919 119.976 17.8624 119.955 17.7976C119.935 17.7328 119.935 17.6631 119.955 17.5983C119.976 17.5336 120.017 17.477 120.072 17.4366C120.127 17.3962 120.193 17.374 120.261 17.3732H122.608V17.3608L122.927 16.3754L122.949 16.3075L122.962 16.2685L123.056 15.9763L123.326 15.1535C123.343 15.0978 123.376 15.0481 123.42 15.0096C123.464 14.9712 123.517 14.9455 123.575 14.9354C123.652 14.9206 123.732 14.9347 123.799 14.9749C123.867 15.0151 123.917 15.0786 123.941 15.1535L123.962 15.2152L124.25 16.108L124.355 16.4269L124.665 17.3382L124.677 17.3773H127.021C127.089 17.3781 127.155 17.4003 127.209 17.4407C127.264 17.4811 127.305 17.5377 127.326 17.6024C127.347 17.6672 127.347 17.7369 127.326 17.8017C127.305 17.8665 127.265 17.9231 127.21 17.9636V17.9636Z" fill="#FFCD2C"/>
<path opacity="0.1" d="M37.9672 26.0874C37.9731 30.3177 36.5599 34.4277 33.9537 37.7599L33.8714 37.8648C32.1723 40.0175 30.0256 41.7753 27.58 43.0164C25.1344 44.2575 22.4483 44.9522 19.7077 45.0526C19.467 45.0526 19.2263 45.067 18.9835 45.067C18.7408 45.067 18.498 45.067 18.2573 45.0526C15.6789 44.9578 13.1471 44.3363 10.8178 43.2265C8.48844 42.1167 6.41086 40.5419 4.71286 38.5992C4.47011 38.3256 4.23765 38.0438 4.01136 37.7558C2.15388 35.3728 0.891805 32.5811 0.329955 29.6125C-0.231895 26.6438 -0.0772965 23.584 0.780908 20.6871C1.63911 17.7902 3.17615 15.1399 5.26434 12.9563C7.35253 10.7727 9.9316 9.11896 12.7873 8.13232L12.993 8.06237L13.1699 8.00477L13.3613 7.94511C13.567 7.8834 13.7562 7.8258 13.9558 7.77231C14.25 7.69002 14.5503 7.61596 14.8507 7.55013L14.9432 7.5275L15.0379 7.50899H15.0543C15.7026 7.37134 16.3577 7.26833 17.0169 7.20041L17.1547 7.18601L17.3028 7.17161C17.5085 7.15515 17.7143 7.14075 17.9035 7.13047C18.2615 7.1099 18.6215 7.09961 18.9835 7.09961C19.5019 7.09961 20.0121 7.12018 20.5264 7.16133H20.5902H20.6663C21.0243 7.19424 21.3781 7.23538 21.7299 7.28887C22.0817 7.34236 22.4108 7.39379 22.7461 7.46373C27.0435 8.3331 30.9074 10.663 33.682 14.0578C36.4566 17.4526 37.9707 21.703 37.9672 26.0874V26.0874Z" fill="#6DC300"/>
<path d="M46.8114 10.7034C46.9938 10.2975 47.1233 10.0945 47.1998 10.0945H47.2439C47.3321 10.0945 47.5116 10.1886 47.7822 10.3769C48.0529 10.5652 48.1882 10.7417 48.1882 10.9064C48.1882 11.1359 47.4351 12.9127 45.9289 16.2369C44.4227 19.5612 43.5578 21.4263 43.3342 21.8322C43.1165 22.2323 42.9665 22.5 42.8841 22.6354C42.8018 22.7707 42.69 22.9207 42.5488 23.0854C42.2958 23.3973 41.981 23.5532 41.6045 23.5532C41.4515 23.5532 41.3162 23.5708 41.1985 23.6061C41.0808 23.6473 41.0102 23.6679 40.9867 23.6679C40.7984 23.6679 40.7043 23.6238 40.7043 23.5355C40.7043 23.5179 40.7278 23.4443 40.7749 23.3149C40.8278 23.1914 41.5015 21.7646 42.7959 19.0346C41.4132 18.9816 40.1983 18.9405 39.151 18.911C38.1449 20.176 37.2329 21.4998 36.4151 22.8825C36.3151 23.0766 36.221 23.2119 36.1327 23.2884C36.0445 23.3708 35.9238 23.412 35.7709 23.412C35.6179 23.412 35.4532 23.3326 35.2766 23.1737C35.1001 23.0207 35.0119 22.8413 35.0119 22.6354C35.0119 22.047 35.7709 20.7879 37.2888 18.8581C36.5769 18.8581 36.1239 18.8757 35.9297 18.911C35.7415 18.9463 35.6208 18.964 35.5679 18.964C35.409 18.964 35.3296 18.8316 35.3296 18.5668C35.3296 18.2962 35.4855 18.0609 35.7973 17.8608C36.1151 17.6549 36.5387 17.5519 37.0682 17.5519C37.1094 17.5519 37.1829 17.549 37.2888 17.5431C37.6536 17.5254 38.0272 17.5107 38.4097 17.499C39.6923 15.9928 41.0337 14.5954 42.434 13.3069C43.8343 12.0184 45.0464 11.1153 46.0701 10.5975C46.2348 10.5151 46.3643 10.4769 46.4584 10.4828C46.5584 10.4828 46.6761 10.5563 46.8114 10.7034ZM46.1937 11.9478C44.0461 13.5776 42.084 15.4279 40.3071 17.499C41.3485 17.5225 42.4017 17.5666 43.4666 17.6314C44.5374 15.3779 45.4464 13.4834 46.1937 11.9478ZM53.4217 20.482C53.4628 20.7526 53.4834 20.9674 53.4834 21.1262C53.4834 21.2792 53.454 21.4145 53.3952 21.5322C53.3422 21.644 53.2187 21.8058 53.0245 22.0176C52.8362 22.2235 52.6097 22.4324 52.345 22.6442C51.6978 23.1561 51.0359 23.412 50.3592 23.412C49.3885 23.412 48.9031 22.9825 48.9031 22.1235C48.9031 21.3763 49.5532 19.8877 50.8535 17.6578C50.9005 17.5755 50.9329 17.5166 50.9506 17.4813C50.4975 17.799 49.6297 18.6669 48.3471 20.0848C47.0703 21.4969 46.2201 22.4971 45.7965 23.0854C45.7612 23.1384 45.673 23.1972 45.5318 23.262C45.3906 23.3267 45.2788 23.359 45.1964 23.359C45.1199 23.359 45.0375 23.3326 44.9493 23.2796C44.8551 23.2325 44.7963 23.209 44.7728 23.209C44.6963 23.209 44.658 23.1825 44.658 23.1296C44.658 23.0825 44.7639 22.8148 44.9758 22.3265C45.1817 21.8322 45.4553 21.2203 45.7965 20.4908C46.732 18.4786 48.1235 15.8604 49.9709 12.6362C50.6181 11.5065 51.1241 10.7064 51.4889 10.2357C51.7478 9.90031 52.1832 9.73262 52.7951 9.73262C52.9245 9.73262 52.998 9.77087 53.0157 9.84735C53.0333 9.92384 53.0422 10.0062 53.0422 10.0945C53.0422 10.1827 53.0245 10.271 52.9892 10.3592L52.0449 11.8331C50.1739 14.7513 48.7648 17.1695 47.8175 19.0875C48.7354 17.9697 49.6267 17.1077 50.4916 16.5017C51.027 16.1193 51.4271 15.9281 51.6919 15.9281C51.9625 15.9281 52.2067 15.9722 52.4244 16.0604C52.6421 16.1428 52.7509 16.3458 52.7509 16.6694C52.7509 16.7871 52.5597 17.2224 52.1773 17.9755C51.03 20.2348 50.4563 21.491 50.4563 21.744C50.4563 21.9911 50.5593 22.1147 50.7652 22.1147C51.0653 22.1147 51.5271 21.8234 52.1508 21.2409C52.6215 20.7997 52.9186 20.5173 53.0422 20.3937C53.1128 20.3408 53.1775 20.3143 53.2363 20.3143C53.3481 20.3143 53.4099 20.3702 53.4217 20.482ZM58.761 16.3605C58.9375 16.3605 59.117 16.4399 59.2994 16.5988C59.4876 16.7576 59.5818 17.0018 59.5818 17.3313C59.5818 17.6549 59.4671 18.0785 59.2376 18.6021C59.0081 19.1199 58.6934 19.6494 58.2933 20.1907C57.8932 20.7261 57.4519 21.2321 56.9695 21.7087C56.4929 22.1794 55.9751 22.5677 55.4162 22.8736C54.8631 23.1737 54.3601 23.3237 53.9071 23.3237C53.454 23.3237 53.0892 23.1825 52.8127 22.9001C52.5421 22.6118 52.4067 22.2147 52.4067 21.7087C52.4067 21.1968 52.5303 20.632 52.7774 20.0142C53.0304 19.3964 53.354 18.8522 53.7482 18.3815C54.1424 17.9049 54.569 17.4784 55.0279 17.1018C55.9869 16.3311 56.8283 15.9457 57.5519 15.9457C57.8755 15.9457 58.1197 16.0251 58.2845 16.184C58.3433 16.2369 58.3727 16.284 58.3727 16.3252V16.3781C58.4551 16.3664 58.5845 16.3605 58.761 16.3605ZM57.8697 17.5343H57.8079C57.602 17.5343 57.499 17.3842 57.499 17.0842C57.0695 17.2254 56.6194 17.4725 56.1487 17.8255C55.678 18.1785 55.2573 18.5963 54.8867 19.0787C54.1336 20.0436 53.7511 20.8585 53.7394 21.5234C53.7394 21.8528 53.86 22.0176 54.1012 22.0176C54.3424 22.0176 54.7013 21.8587 55.1779 21.541C55.6545 21.2233 56.1252 20.7703 56.59 20.1819C57.0607 19.5935 57.4107 19.0846 57.6402 18.6551C57.8755 18.2197 57.9932 17.9255 57.9932 17.7726C57.9932 17.6137 57.952 17.5343 57.8697 17.5343ZM65.8566 13.2716C65.8566 13.6599 65.6448 14.0394 65.2212 14.4101C64.8035 14.7808 64.4005 14.9661 64.0121 14.9661C63.7356 14.9661 63.5973 14.7984 63.5973 14.463C63.5973 14.1218 63.7915 13.7658 64.1798 13.3952C64.5681 13.0245 64.9447 12.8392 65.3095 12.8392C65.6743 12.8392 65.8566 12.9833 65.8566 13.2716ZM63.5003 20.3937C63.5944 20.3231 63.6768 20.2996 63.7474 20.3231C63.8239 20.3466 63.8709 20.4114 63.8886 20.5173C63.9651 20.8997 63.9621 21.2203 63.8798 21.4792C63.8503 21.5263 63.6297 21.6646 63.2179 21.894C62.8119 22.1235 62.3471 22.3882 61.8234 22.6883C61.3057 22.9884 60.7291 23.3737 60.0937 23.8444C59.4582 24.3151 58.9316 24.7799 58.5139 25.2388C58.2668 25.7331 57.9167 26.2567 57.4637 26.8098C56.587 27.8688 55.8575 28.3983 55.275 28.3983C55.0397 28.3983 54.8396 28.3219 54.6749 28.1689C54.5101 28.0159 54.4278 27.8247 54.4278 27.5952C54.4278 27.3658 54.4866 27.151 54.6043 26.951C54.7161 26.7568 54.9073 26.5274 55.1779 26.2626C55.4486 25.9978 55.681 25.7801 55.8751 25.6095C56.0693 25.4389 56.3782 25.183 56.8018 24.8417C57.2195 24.5005 57.5049 24.2651 57.6579 24.1357C57.9167 23.7003 58.2462 23.1384 58.6463 22.45C59.0464 21.7616 59.3641 21.2203 59.5994 20.8261C60.2702 19.7024 60.7997 18.864 61.188 18.3109C61.1586 18.305 61.0939 18.308 60.9939 18.3197C60.8938 18.3315 60.8085 18.3374 60.7379 18.3374C60.6732 18.3315 60.6026 18.2962 60.5261 18.2315C60.4555 18.1609 60.4084 18.055 60.3849 17.9138C60.3496 17.7078 60.685 17.3637 61.391 16.8812C62.1029 16.3929 62.5854 16.1487 62.8384 16.1487C63.2796 16.1487 63.5003 16.3693 63.5003 16.8106C63.5003 16.8577 63.4767 16.9489 63.4297 17.0842C63.3826 17.2195 62.8766 18.0667 61.9117 19.6259C60.9527 21.185 60.2878 22.247 59.9172 22.8119C59.9701 22.7766 60.1319 22.6589 60.4025 22.4588C60.6791 22.2588 60.9674 22.0499 61.2674 21.8322C61.5675 21.6145 61.8793 21.3939 62.2029 21.1703C62.9501 20.6526 63.3826 20.3937 63.5003 20.3937Z" fill="#6DC300"/>
<path d="M46.0127 38.9535C50.0907 38.9535 52.0618 36.8692 52.0618 34.1052C52.0618 28.4639 43.3846 30.0725 43.3846 27.6709C43.3846 26.7647 44.1549 26.153 45.5369 26.153C47.0775 26.153 48.7087 26.6741 49.9322 27.8069L51.722 25.4507C50.2267 24.0687 48.233 23.3437 45.8315 23.3437C42.2745 23.3437 40.0996 25.428 40.0996 27.9428C40.0996 33.6294 48.7994 31.7943 48.7994 34.4677C48.7994 35.3286 47.9384 36.1442 46.1713 36.1442C44.087 36.1442 42.4331 35.2153 41.3683 34.1052L39.6238 36.552C41.0284 37.9793 43.1128 38.9535 46.0127 38.9535ZM59.2348 38.9535C62.8597 38.9535 65.0347 36.3254 65.0347 33.1989C65.0347 30.0951 62.8597 27.467 59.2348 27.467C55.6326 27.467 53.4576 30.0951 53.4576 33.1989C53.4576 36.3254 55.6326 38.9535 59.2348 38.9535ZM59.2348 36.3934C57.445 36.3934 56.4482 34.9208 56.4482 33.1989C56.4482 31.4998 57.445 30.0271 59.2348 30.0271C61.0246 30.0271 62.0441 31.4998 62.0441 33.1989C62.0441 34.9208 61.0246 36.3934 59.2348 36.3934ZM77.4323 38.6816V27.7389H74.5551V35.1473C74.0566 35.7817 73.1731 36.3934 72.0629 36.3934C70.8395 36.3934 70.0466 35.895 70.0466 34.377V27.7389H67.1693V35.5098C67.1693 37.6395 68.3021 38.9535 70.7036 38.9535C72.4934 38.9535 73.8074 38.1379 74.5551 37.2996V38.6816H77.4323ZM84.2314 38.9535C87.2672 38.9535 88.9664 37.4356 88.9664 35.4419C88.9664 31.024 82.4869 32.3833 82.4869 30.7521C82.4869 30.1404 83.1666 29.6646 84.2087 29.6646C85.5454 29.6646 86.7915 30.231 87.4485 30.9334L88.6039 28.9623C87.5165 28.1014 86.0438 27.467 84.1861 27.467C81.3088 27.467 79.7002 29.0756 79.7002 30.9107C79.7002 35.2153 86.2024 33.7427 86.2024 35.5551C86.2024 36.2348 85.6134 36.7332 84.3673 36.7332C83.008 36.7332 81.3768 35.9856 80.5838 35.238L79.3377 37.2543C80.4932 38.3191 82.3283 38.9535 84.2314 38.9535ZM96.229 38.9535C97.9282 38.9535 99.65 38.4324 100.738 37.4356L99.4688 35.5778C98.7665 36.2575 97.4751 36.6653 96.5462 36.6653C94.6884 36.6653 93.5783 35.5098 93.397 34.1278H101.53V33.4935C101.53 29.9139 99.3102 27.467 96.0478 27.467C92.7174 27.467 90.3838 30.0271 90.3838 33.1989C90.3838 36.7106 92.8986 38.9535 96.229 38.9535ZM98.7438 32.1794H93.3517C93.4877 31.092 94.258 29.7553 96.0478 29.7553C97.9509 29.7553 98.6758 31.1373 98.7438 32.1794ZM114.03 38.6816V23.5702H111.13V29.1436C110.27 28.0334 109.046 27.467 107.755 27.467C104.968 27.467 102.906 29.642 102.906 33.2216C102.906 36.8692 104.991 38.9535 107.755 38.9535C109.069 38.9535 110.27 38.3645 111.13 37.277V38.6816H114.03ZM108.638 36.3934C107.007 36.3934 105.874 35.102 105.874 33.2216C105.874 31.3185 107.007 30.0271 108.638 30.0271C109.613 30.0271 110.655 30.5482 111.13 31.2732V35.1473C110.655 35.8723 109.613 36.3934 108.638 36.3934ZM122.026 38.9535C123.726 38.9535 125.448 38.4324 126.535 37.4356L125.266 35.5778C124.564 36.2575 123.273 36.6653 122.344 36.6653C120.486 36.6653 119.376 35.5098 119.195 34.1278H127.328V33.4935C127.328 29.9139 125.108 27.467 121.845 27.467C118.515 27.467 116.181 30.0271 116.181 33.1989C116.181 36.7106 118.696 38.9535 122.026 38.9535ZM124.541 32.1794H119.149C119.285 31.092 120.055 29.7553 121.845 29.7553C123.748 29.7553 124.473 31.1373 124.541 32.1794Z" fill="#515151"/>
<path d="M33.8714 37.8643C32.1723 40.0171 30.0256 41.7749 27.58 43.0159C25.1345 44.257 22.4483 44.9518 19.7077 45.0521C19.467 45.0521 19.2263 45.0666 18.9836 45.0666C18.7408 45.0666 18.4981 45.0665 18.2574 45.0521C15.6789 44.9573 13.1471 44.3359 10.8178 43.2261C8.48848 42.1162 6.41089 40.5415 4.71289 38.5988C6.33807 37.1855 9.7859 36.0643 14.1286 35.5336C15.9807 35.3115 17.8444 35.1995 19.7098 35.1982H20.1212C21.5777 35.1982 22.9868 35.2764 24.324 35.404C28.4034 35.7948 31.8204 36.6856 33.8714 37.8643Z" fill="#6DC300"/>
<path d="M24.9205 12.8779C24.8304 12.743 24.7285 12.6163 24.616 12.4994C24.5514 12.4269 24.4828 12.3583 24.4103 12.2937C24.3283 12.2206 24.2425 12.1519 24.1532 12.0879C24.0565 12.02 23.9639 11.9624 23.8796 11.9131C23.8323 11.8843 23.7849 11.8616 23.7438 11.839C23.745 11.8329 23.745 11.8266 23.7438 11.8205C23.8981 11.2836 23.7808 10.4854 23.2439 10.2426C23.1008 10.1914 22.9489 10.1697 22.7972 10.1789C22.6455 10.1881 22.4972 10.228 22.3614 10.2961C22.3345 10.3613 22.2954 10.4206 22.2462 10.471C22.2375 10.4791 22.2278 10.486 22.2174 10.4916C22.1953 10.5095 22.1711 10.5246 22.1454 10.5368L22.1042 10.5533C21.9667 10.5879 21.8214 10.5741 21.6928 10.5142L21.6002 10.4916C21.4739 10.4274 21.3563 10.3472 21.2505 10.2529L21.1847 10.1953C21.1213 10.1352 21.0615 10.0713 21.0057 10.004C20.9707 9.95875 20.9357 9.91555 20.9049 9.87029L20.8329 9.75509C20.8103 9.71806 20.7876 9.67486 20.7671 9.63371C20.5922 9.27782 20.4976 8.83758 20.6004 8.55986C20.6136 8.52167 20.6323 8.48563 20.656 8.45289C20.678 8.42055 20.7059 8.39264 20.7383 8.3706C21.0386 8.16488 21.592 8.457 21.6969 8.51872C21.6846 8.80261 21.6475 10.1151 22.2421 10.3866C22.347 10.434 22.637 10.5265 22.7296 10.4154C22.7708 10.364 22.7564 10.29 22.6967 10.0842C22.6225 9.79092 22.5213 9.50512 22.3943 9.23051C22.3307 9.07593 22.2455 8.93117 22.1413 8.80055C22.0409 8.66598 21.9143 8.55329 21.7689 8.46935C21.6023 8.38089 21.4583 8.36237 21.413 8.23483C21.4035 8.19563 21.4035 8.15472 21.413 8.11551C21.413 7.96534 21.5467 7.83162 21.6414 7.59916C21.6804 7.50547 21.7107 7.40837 21.7319 7.3091C21.8267 6.94643 21.7858 6.56159 21.6167 6.22702C21.3472 5.77444 20.8041 5.64484 20.5428 5.60986C20.3618 5.64484 20.1808 5.68392 19.9956 5.72507H19.9792C19.7364 5.77855 19.4937 5.83615 19.2468 5.89581L18.9999 5.96164L18.7202 6.0357L18.5144 6.09124C18.2038 6.17765 17.8973 6.26816 17.6072 6.36074L17.5579 6.37514C17.6362 6.64232 17.7504 6.89768 17.8973 7.13424C17.9323 7.19184 17.9713 7.2515 18.0145 7.3091C18.0577 7.3667 18.1071 7.43253 18.1544 7.48807C18.2018 7.54362 18.2923 7.64442 18.3602 7.71025C18.4207 7.77196 18.4846 7.83033 18.5515 7.88511C18.4137 7.92777 18.2823 7.98866 18.1606 8.06614C17.8889 8.25725 17.6799 8.52449 17.5598 8.8342C17.4397 9.1439 17.414 9.48221 17.4859 9.80652C17.5624 9.8441 17.636 9.88742 17.706 9.93612C17.6422 9.89909 17.564 9.86 17.4859 9.81475C17.4461 9.79597 17.4076 9.77467 17.3706 9.75097C17.2063 9.68304 17.0318 9.64272 16.8543 9.63166C16.2145 9.59257 15.3916 9.93612 15.3135 10.4854C15.2209 11.1457 16.268 11.6786 16.3585 11.7197C16.7532 11.9064 17.1912 11.9824 17.6257 11.9398C17.6772 12.3677 17.671 12.9458 17.3213 13.3963C17.1444 13.6267 17.025 13.6329 16.9633 13.8077C16.9405 13.8939 16.9352 13.9838 16.9475 14.0721C16.9599 14.1604 16.9897 14.2454 17.0353 14.322C17.0705 14.3932 17.1104 14.4619 17.1546 14.5278C17.2028 14.5993 17.255 14.668 17.311 14.7335C17.3398 14.7684 17.3706 14.8034 17.4015 14.8363C17.4324 14.8692 17.4653 14.9042 17.4982 14.9371C17.8265 15.2624 18.1918 15.5483 18.5864 15.7888C19.2818 16.2126 19.4587 15.9945 20.2116 16.4224C20.5836 16.6422 20.9288 16.9046 21.2402 17.2041L21.3102 17.2741C21.4212 17.3831 21.5159 17.4798 21.5652 17.5374C22.0857 18.1134 22.3367 18.6051 22.5609 18.8129C22.5772 18.8303 22.5951 18.8461 22.6144 18.8602C22.623 18.8678 22.6327 18.874 22.6432 18.8787C22.6595 18.8904 22.6775 18.8994 22.6967 18.9054V18.9054C22.7356 18.9222 22.7787 18.9265 22.8201 18.9178C22.8461 18.9139 22.8711 18.9056 22.8942 18.8931C22.9306 18.8753 22.9634 18.8508 22.9909 18.8211L23.0197 18.7882C23.0361 18.7676 23.0526 18.745 23.069 18.7203C23.0921 18.6633 23.1211 18.6088 23.1554 18.5578C23.1545 18.5558 23.1541 18.5537 23.1541 18.5516C23.1541 18.5495 23.1545 18.5474 23.1554 18.5454C23.1597 18.5345 23.1652 18.5242 23.1719 18.5146C23.1744 18.5037 23.1786 18.4933 23.1842 18.4837C23.2829 18.2576 23.3039 18.0051 23.2439 17.7658C23.2184 17.6364 23.2087 17.5045 23.2151 17.3728C23.2131 17.3448 23.2131 17.3166 23.2151 17.2885C23.2151 17.2617 23.2151 17.2371 23.2316 17.2124C23.2439 17.1673 23.2597 17.1233 23.2789 17.0807C23.2939 17.0483 23.3118 17.0173 23.3324 16.9881C23.3756 16.9237 23.4267 16.865 23.4846 16.8133V16.8133C23.7438 16.5685 24.1758 16.334 24.7415 15.6613C25.1303 15.1943 25.3278 14.9577 25.3998 14.5668C25.5582 13.818 25.1159 13.1659 24.9205 12.8779Z" fill="#FFB882"/>
<path d="M20.2672 11.041C19.8805 11.2672 19.2695 10.934 18.9033 10.3045C18.5371 9.67498 18.5577 8.97965 18.9465 8.75336C19.3353 8.52707 19.9422 8.86239 20.3063 9.49189C20.6704 10.1214 20.6519 10.8167 20.2672 11.041Z" fill="white"/>
<path d="M18.5577 7.88522C18.4195 7.9266 18.2879 7.98756 18.1669 8.06625C17.8941 8.25657 17.6838 8.52347 17.5626 8.83323C17.4414 9.14299 17.4147 9.48172 17.4859 9.80663C17.4488 9.78566 17.4103 9.76711 17.3707 9.75109C17.0539 9.56307 16.7532 9.34907 16.4718 9.1113C16.4265 9.07633 16.3812 9.03724 16.336 8.99816C15.7926 8.52063 15.3263 7.96203 14.9536 7.34212C14.9609 7.33976 14.9688 7.33976 14.9762 7.34212C15.725 7.02532 16.5993 6.69411 17.5621 6.38965C17.6641 6.72335 17.8212 7.03764 18.027 7.3195C18.1812 7.52816 18.3593 7.71803 18.5577 7.88522V7.88522Z" fill="#82501A"/>
<path d="M24.4022 12.2878C24.3317 12.4318 24.2417 12.5654 24.1347 12.6848C23.6772 13.2573 23.039 13.6576 22.3244 13.8204C22.1155 13.8652 21.9024 13.888 21.6887 13.8883C21.1737 13.8796 20.6669 13.7573 20.2045 13.5301C19.7422 13.3029 19.3358 12.9763 19.0144 12.5737C18.9326 12.4747 18.8934 12.3472 18.9056 12.2193C18.9177 12.0914 18.9802 11.9736 19.0792 11.8918C19.1782 11.8099 19.3057 11.7708 19.4336 11.7829C19.5615 11.7951 19.6793 11.8575 19.7611 11.9566C20.3783 12.6992 21.2835 13.0531 22.1146 12.8741C22.6137 12.7572 23.0583 12.4743 23.3756 12.0718C23.4725 11.9603 23.5935 11.8724 23.7295 11.8146C23.7304 11.8208 23.7304 11.827 23.7295 11.8331L23.8652 11.9072C23.9475 11.9566 24.0421 12.0142 24.1388 12.0821C24.2294 12.1376 24.3158 12.2137 24.4022 12.2878Z" fill="#82501A"/>
<path d="M23.3941 21.555C23.3021 21.7415 23.1596 21.8983 22.9827 22.0076C22.4779 22.2829 21.912 22.4271 21.337 22.4271C20.7619 22.4271 20.1961 22.2829 19.6912 22.0076C19.6005 21.9131 19.5205 21.8089 19.4526 21.697C19.0411 21.0078 19.2983 20.403 19.2078 19.0884C19.1296 18.0105 18.9115 17.8336 18.7963 17.7698C18.6835 17.7127 18.557 17.688 18.431 17.6985C18.3049 17.7091 18.1843 17.7544 18.0825 17.8294C17.957 17.9303 17.8007 18.1442 17.8624 19.0267C17.8978 19.5179 17.9784 20.0048 18.1031 20.4812C18.2203 21.0572 18.0804 21.9212 16.9593 23.1946C16.9454 23.2127 16.9302 23.2299 16.914 23.246C16.769 23.4275 16.6079 23.5955 16.4326 23.748C15.8443 24.2149 15.4987 23.9537 14.3405 24.2705C13.6874 24.441 13.0634 24.7079 12.489 25.0625C12.5644 24.7817 12.5964 24.491 12.5836 24.2005L12.4088 24.2479C11.9342 24.4108 11.4155 24.3888 10.9564 24.1861C10.6292 24.0167 10.3646 23.7472 10.2014 23.4168C10.1276 23.2783 10.0697 23.132 10.0286 22.9806C10.0278 22.9697 10.0278 22.9587 10.0286 22.9477C9.48964 19.6439 11.8019 16.663 14.2088 15.2991C15.0809 14.8025 16.0382 14.4731 17.0313 14.3281C17.2946 14.865 18.0434 15.4637 18.5844 15.7928C19.2798 16.2166 19.4567 15.9986 20.2096 16.4265C20.713 16.729 21.1679 17.1055 21.5591 17.5435C22.2833 18.3417 22.4869 18.9835 22.8161 18.9239C22.8699 18.9095 22.9201 18.8837 22.963 18.8482C23.006 18.8127 23.0408 18.7684 23.065 18.7182C22.956 18.9959 23.065 19.181 23.2501 19.901C23.5525 21.051 23.4908 21.3555 23.3941 21.555Z" fill="#EC555A"/>
<path d="M24.5935 22.4235C24.6499 21.8032 24.665 21.1799 24.6387 20.5576C24.6391 20.0152 24.5365 19.4777 24.3363 18.9736C24.1861 18.6259 24.0257 18.2495 23.7315 18.2165C23.6154 18.2197 23.502 18.2523 23.4019 18.3113C23.3019 18.3703 23.2185 18.4538 23.1596 18.5539C23.172 18.5313 23.1781 18.5128 23.1884 18.4922C23.4085 18.0005 23.1555 17.7331 23.2296 17.297C23.2588 17.1111 23.3545 16.9423 23.499 16.8218C24.2928 17.6992 24.9377 18.7005 25.4081 19.7862C25.476 19.9466 25.5377 20.105 25.5891 20.2573C25.7482 20.705 25.872 21.1645 25.9594 21.6315C25.453 21.7953 24.9873 22.0653 24.5935 22.4235Z" fill="#EC555A"/>
<path d="M22.2997 9.30245C22.1812 8.99275 21.9798 8.7216 21.7175 8.51867H21.7031C21.5962 8.45695 21.0448 8.15249 20.7445 8.37055C20.4009 8.61947 20.5984 9.41148 20.9111 9.87023C21.1991 10.294 21.7793 10.7178 22.1331 10.545C22.2356 10.4882 22.3138 10.3961 22.3532 10.2858C22.4338 9.96001 22.4152 9.61756 22.2997 9.30245Z" fill="white"/>
<path d="M26.2104 4.99281C24.3052 5.0172 22.4067 5.22386 20.5408 5.60997C20.3598 5.64494 20.1788 5.68403 19.9936 5.72517H19.9772C19.6542 5.79511 19.3271 5.87329 18.9979 5.95969C17.6245 6.32188 16.2784 6.7811 14.97 7.33389C14.9626 7.33153 14.9547 7.33153 14.9473 7.33389C14.0215 7.72055 13.1171 8.15662 12.238 8.6402C13.4472 7.49481 14.8303 6.54841 16.3359 5.83626L15.6447 3.68239C15.5314 3.32971 15.4887 2.95816 15.5191 2.58897C15.5495 2.21978 15.6524 1.86021 15.8219 1.53082C15.9913 1.20142 16.2241 0.90867 16.5068 0.669301C16.7895 0.429932 17.1166 0.248643 17.4695 0.135804C17.749 0.0444992 18.0414 -0.00134187 18.3355 2.98978e-05C18.9306 0.00255224 19.5097 0.193108 19.99 0.54447C20.4703 0.895831 20.8273 1.39002 21.0099 1.95641L21.8327 4.52583C23.3067 4.47401 24.7806 4.63124 26.2104 4.99281V4.99281Z" fill="#FFCD2C"/>
<path d="M26.2104 4.99268C24.8112 6.30841 23.187 7.36197 21.4151 8.10314C21.4725 7.92364 21.5498 7.75114 21.6455 7.58884C21.7404 7.37139 21.7871 7.13601 21.7825 6.89882C21.7779 6.66163 21.722 6.42824 21.6188 6.21464C21.3514 5.76206 20.8083 5.63246 20.547 5.59749C22.4112 5.21591 24.3077 5.01339 26.2104 4.99268V4.99268Z" fill="#917116"/>
<path d="M16.4573 9.11136C15.0347 9.14674 13.6138 8.98825 12.2339 8.64026V8.64026C13.1133 8.16018 14.0177 7.72755 14.9433 7.34424C15.316 7.96415 15.7823 8.52275 16.3257 9.00027C16.3751 9.0373 16.4203 9.07639 16.4573 9.11136Z" fill="#917116"/>
<path d="M32.6967 20.7198C32.4355 20.6252 32.096 20.9399 32.0796 20.9111C32.0631 20.8823 32.5445 20.6396 32.5466 20.3248C32.5402 20.2278 32.5028 20.1353 32.4398 20.0612C32.3768 19.9871 32.2916 19.9353 32.1968 19.9134C31.9561 19.8743 31.7689 20.1582 31.7052 20.1088C31.6414 20.0594 31.8965 19.7426 31.9541 19.323C32.024 18.8251 31.8512 18.1504 31.4192 17.994C31.3146 17.9542 31.2014 17.9422 31.0907 17.9591C30.98 17.9761 30.8756 18.0214 30.7877 18.0907C30.4009 18.4569 31.016 19.2283 30.619 20.115C30.5531 20.259 30.403 20.5799 30.1191 20.6313C30.0015 20.6495 29.8812 20.6254 29.7796 20.5634V20.5634L29.7591 20.726C29.7335 21.1733 29.6841 21.619 29.611 22.0611V22.0611C29.6459 22.0775 29.6418 22.2318 29.4772 22.8346C29.8887 22.7708 30.2199 22.7379 30.4318 22.7194C31.2279 22.6535 31.8883 22.6721 32.6762 22.4129C32.9127 22.3367 33.137 22.2421 33.1863 22.0508C33.2038 21.9669 33.1957 21.8797 33.1631 21.8005C33.1304 21.7213 33.0747 21.6537 33.0032 21.6064C32.7975 21.4789 32.4787 21.6332 32.4704 21.6064C32.4622 21.5797 32.8675 21.5324 32.9621 21.302C32.9955 21.1892 32.987 21.0682 32.9383 20.9613C32.8895 20.8543 32.8037 20.7685 32.6967 20.7198V20.7198Z" fill="#FFB882"/>
<path d="M29.829 20.6008C29.7988 21.0488 29.7425 21.4945 29.6603 21.9359C29.5472 22.6601 29.4834 23.0262 29.218 23.2525C29.1152 23.3369 28.8745 23.4994 27.7019 23.4726C27.1748 23.4595 26.6492 23.4128 26.1281 23.3328L25.5994 20.247C26.295 20.222 26.9882 20.1533 27.6751 20.0413C28.8827 19.8541 29.3353 19.6504 29.6356 19.9261C29.7734 20.0783 29.829 20.284 29.829 20.6008Z" fill="#EC555A"/>
<path d="M20.9605 38.9074C20.7046 39.1178 20.4344 39.3102 20.152 39.4834C18.7881 40.3186 17.5641 40.4544 15.8957 40.6107C14.4351 40.7486 14.0134 40.6107 13.8652 40.3515C13.7911 40.1862 13.7808 39.9994 13.8364 39.8269C13.9023 39.6089 14.0854 39.362 14.7807 39.0699C15.4138 38.8109 16.0867 38.6627 16.77 38.6317C17.8062 38.6496 18.8276 38.3843 19.7241 37.8644L19.7488 37.8521L19.8187 37.922C20.1739 38.2788 20.5556 38.6082 20.9605 38.9074V38.9074Z" fill="#9D7A44"/>
<path d="M19.9299 37.8522C19.9231 37.8732 19.9104 37.8918 19.8932 37.9057C19.876 37.9196 19.8552 37.9282 19.8332 37.9304L19.7488 37.8522L19.8147 37.811L19.9299 37.8522Z" fill="#9D7A44"/>
<path d="M19.8578 10.3351C19.7118 10.4236 19.4772 10.294 19.3373 10.0533C19.1975 9.8126 19.2036 9.54517 19.3538 9.46082C19.504 9.37648 19.7344 9.50197 19.8743 9.74266C20.0142 9.98335 20.0059 10.2508 19.8578 10.3351Z" fill="#515151"/>
<path d="M21.7607 9.38908C21.7274 9.31236 21.6799 9.24258 21.6208 9.18336L21.5632 9.13399C21.5262 9.11136 21.339 9.0085 21.2362 9.08256C21.1333 9.15662 21.1868 9.4364 21.2938 9.59274C21.4007 9.74909 21.5879 9.87869 21.7052 9.82109C21.74 9.8032 21.7671 9.7732 21.7813 9.73675C21.8101 9.62147 21.8029 9.50015 21.7607 9.38908V9.38908Z" fill="#515151"/>
<path d="M26.1261 23.3328C26.113 23.7484 26.06 24.1617 25.9677 24.5671C25.7895 25.3515 25.4725 26.0977 25.0317 26.7704C25.0519 28.4534 24.9141 30.1347 24.6202 31.792C24.2516 33.8588 23.6426 35.8755 22.8058 37.801H22.7873C22.6227 37.8421 22.4005 37.8895 22.1372 37.9327C21.834 37.9853 21.5274 38.0162 21.2197 38.0252C20.7465 38.0297 20.276 37.9524 19.8291 37.7969L19.7488 37.8524C18.8457 38.3814 17.8145 38.6519 16.768 38.6342C15.0753 35.246 14.1722 31.5183 14.1266 27.7311C13.5207 27.5031 12.9298 27.2372 12.3574 26.935C12.3362 26.9186 12.3169 26.9 12.2998 26.8794C12.2545 26.8342 12.2134 26.7868 12.1702 26.7375C12.0238 26.5887 11.906 26.4144 11.8225 26.2232C12.1452 25.9009 12.3772 25.4993 12.4952 25.0588C13.0685 24.7021 13.6928 24.435 14.3467 24.2668C15.5049 23.952 15.8505 24.2113 16.4388 23.7422C16.6135 23.5907 16.7752 23.4249 16.9223 23.2464C16.9385 23.2303 16.9536 23.2131 16.9675 23.195C18.0887 21.9216 18.2265 21.0576 18.1113 20.4816C17.9826 20.0055 17.8972 19.5187 17.8562 19.0271C17.7945 18.1446 17.9509 17.9307 18.0763 17.8299C18.1783 17.7552 18.2989 17.7102 18.4249 17.6997C18.5508 17.6891 18.6772 17.7135 18.7902 17.7702C18.9095 17.834 19.1276 18.013 19.2016 19.0889C19.2901 20.4055 19.0288 21.0103 19.4464 21.6974C19.4947 21.7762 19.549 21.8512 19.6089 21.9216C19.6357 21.9566 19.6645 21.9854 19.6851 22.008C19.3051 22.4656 19.0989 23.0426 19.1029 23.6373C19.1051 23.6805 19.1051 23.7237 19.1029 23.7669C19.1605 25.0444 20.1315 26.0586 21.3226 26.0586C22.5569 26.0586 23.5505 24.9724 23.5505 23.6373C23.5545 23.0426 23.3483 22.4656 22.9683 22.008C23.0004 21.9878 23.0313 21.9659 23.0609 21.9422C23.1973 21.8403 23.308 21.7078 23.3839 21.5554C23.4785 21.3497 23.5402 21.0514 23.2358 19.9097C23.0465 19.1876 22.9436 19.0045 23.0527 18.7268C23.0863 18.6753 23.1152 18.6209 23.1391 18.5643C23.1382 18.5624 23.1377 18.5602 23.1377 18.5581C23.1377 18.556 23.1382 18.5539 23.1391 18.5519C23.1978 18.4518 23.2812 18.3684 23.3813 18.3097C23.4814 18.251 23.5949 18.219 23.711 18.2166C24.0051 18.2475 24.1656 18.6281 24.3158 18.9716C24.516 19.4757 24.6186 20.0132 24.6182 20.5556C24.6443 21.1779 24.6299 21.8011 24.575 22.4215C24.9672 22.0623 25.4325 21.7921 25.9389 21.6295C26.0732 22.1871 26.1361 22.7594 26.1261 23.3328V23.3328Z" fill="#4377CD"/>
<path d="M19.8229 37.8092V28.6424L20.979 27.4883L19.8229 37.8092Z" fill="#4377CD"/>
<path d="M27.0209 39.4506C27.0209 39.862 26.0849 40.1809 25.6262 40.292C24.9287 40.4409 24.2046 40.4076 23.5237 40.1953C22.5981 39.9256 21.7294 39.4892 20.9605 38.9075C20.5562 38.6076 20.1752 38.2775 19.8208 37.9201H19.8331C19.8551 37.9179 19.876 37.9093 19.8932 37.8954C19.9104 37.8816 19.9231 37.8629 19.9298 37.8419C20.3442 37.9735 20.7767 38.0388 21.2115 38.0353C21.5191 38.0263 21.8257 37.9953 22.129 37.9427C22.3923 37.8995 22.6145 37.8522 22.779 37.811C23.7004 37.9257 24.6049 38.1487 25.4739 38.4755C26.2639 38.7738 27.0271 39.07 27.0209 39.4506Z" fill="#9D7A44"/>
<path d="M21.0592 27.5662L20.9893 27.6361L20.9584 27.667L19.9298 28.6956V37.813C19.932 37.8246 19.932 37.8364 19.9298 37.848C19.9231 37.869 19.9104 37.8877 19.8932 37.9016C19.876 37.9154 19.8551 37.924 19.8331 37.9262H19.8208C19.8012 37.9265 19.7818 37.9215 19.7648 37.9117C19.7478 37.9019 19.7337 37.8877 19.7241 37.8706C19.715 37.8528 19.7101 37.8331 19.7097 37.813V28.5948L19.7426 28.5619C20.1068 28.1998 20.4688 27.8398 20.8288 27.4777L20.8988 27.4078C20.9091 27.397 20.9216 27.3883 20.9354 27.3825C20.9492 27.3766 20.964 27.3735 20.979 27.3735C20.994 27.3735 21.0088 27.3766 21.0226 27.3825C21.0364 27.3883 21.0489 27.397 21.0592 27.4078C21.0795 27.4292 21.0908 27.4575 21.0908 27.487C21.0908 27.5165 21.0795 27.5448 21.0592 27.5662Z" fill="#2765AF"/>
<path d="M12.5939 24.314C12.5935 24.5668 12.5603 24.8185 12.4952 25.0628C12.4454 25.2451 12.3764 25.4216 12.2894 25.5894C12.1654 25.8252 12.0073 26.0414 11.8204 26.2313L11.7258 26.3197C11.3772 26.6212 10.9763 26.8562 10.5429 27.013C9.39498 27.4779 8.24296 27.1611 7.67518 27.0253C7.24934 26.9245 6.97162 26.8093 6.88316 26.5686C6.84861 26.4703 6.84264 26.3642 6.86595 26.2626C6.88925 26.161 6.94087 26.0681 7.01482 25.9947C7.13262 25.9005 7.28006 25.8513 7.4308 25.8558C7.58153 25.8603 7.72576 25.9183 7.8377 26.0194C7.70597 25.8887 7.581 25.7514 7.46329 25.6079C7.37072 25.4927 7.32134 25.4228 7.32546 25.3302C7.3261 25.2802 7.34044 25.2313 7.36691 25.1889C7.39339 25.1464 7.43099 25.1121 7.47563 25.0895C7.71221 25.0196 8.10924 25.6552 8.12982 25.6408C8.15039 25.6264 7.68958 25.1286 7.82741 24.8715C7.84775 24.8346 7.8775 24.8037 7.91363 24.782C7.94976 24.7603 7.99099 24.7486 8.03313 24.748C8.29439 24.748 8.50422 25.2952 8.51039 25.2911C8.51657 25.287 8.27999 24.855 8.34993 24.6246C8.36019 24.5829 8.38321 24.5455 8.41576 24.5176C8.44787 24.4948 8.48475 24.4796 8.52361 24.4732C8.56246 24.4668 8.60226 24.4693 8.64 24.4806C8.8272 24.5259 8.784 24.8324 8.98766 25.0772C9.07575 25.1874 9.19311 25.2705 9.32627 25.3171C9.45944 25.3637 9.60303 25.3718 9.74059 25.3405C9.98539 25.2562 10.0903 24.9867 10.1829 24.7233C10.268 24.4812 10.305 24.2247 10.2919 23.9684C10.2919 23.9684 10.2919 23.9684 10.2919 23.9684C10.284 23.7887 10.2585 23.6102 10.2158 23.4355C10.3797 23.7654 10.644 24.0348 10.9708 24.2049C11.4299 24.4076 11.9485 24.4296 12.4232 24.2666L12.489 24.2502L12.598 24.2193C12.5918 24.2337 12.5939 24.2749 12.5939 24.314Z" fill="#FFB882"/>
<path d="M17.0415 17.994C15.5274 19.4835 14.6531 20.8227 14.4474 21.9788L14.4351 22.0385C14.3515 22.6701 14.069 23.2587 13.6287 23.7192C13.3423 23.9881 12.9992 24.1891 12.6247 24.3075C12.6146 24.3095 12.6041 24.3095 12.5939 24.3075C12.5939 24.2664 12.5939 24.2273 12.5939 24.1944C12.5527 24.2067 12.6165 24.1944 12.5939 24.1944C12.5856 24.1663 12.5887 24.136 12.6025 24.1102C12.6164 24.0844 12.6399 24.0651 12.668 24.0566C12.9803 23.9574 13.2631 23.7821 13.4908 23.5464C13.8958 23.1176 14.1549 22.5719 14.2314 21.987L14.2438 21.9274C14.4495 20.726 15.3526 19.3456 16.8996 17.813C16.9209 17.7917 16.9497 17.7798 16.9798 17.7798C17.0099 17.7798 17.0388 17.7917 17.06 17.813C17.0813 17.8343 17.0933 17.8632 17.0933 17.8932C17.0933 17.9233 17.0813 17.9522 17.06 17.9735L17.0415 17.994Z" fill="#BA3243"/>
<path d="M17.3111 11.3826C17.1393 11.3833 16.9688 11.3541 16.8071 11.2962C16.5314 11.1954 16.0253 10.9156 16.0809 10.5741C16.1364 10.2326 16.6137 10.1626 16.6672 10.1626C16.9215 10.1241 17.181 10.1852 17.3913 10.3334C17.4157 10.3504 17.4324 10.3764 17.4378 10.4057C17.4432 10.4349 17.4368 10.4651 17.4201 10.4897C17.4119 10.502 17.4012 10.5126 17.3888 10.5207C17.3765 10.5288 17.3626 10.5344 17.348 10.5371C17.3334 10.5398 17.3185 10.5395 17.304 10.5363C17.2895 10.5331 17.2759 10.5271 17.2638 10.5185C17.1018 10.4045 16.9021 10.3574 16.7063 10.3869C16.5252 10.4177 16.3195 10.5144 16.2948 10.6173C16.2722 10.7592 16.5828 10.9835 16.877 11.0904C17.0942 11.1669 17.3279 11.184 17.5538 11.1398C17.5832 11.1349 17.6133 11.1417 17.6379 11.1585C17.6624 11.1754 17.6795 11.2011 17.6855 11.2303C17.6903 11.26 17.6833 11.2904 17.666 11.315C17.6487 11.3396 17.6225 11.3565 17.5929 11.362C17.4998 11.3775 17.4055 11.3844 17.3111 11.3826V11.3826Z" fill="black"/>
<path d="M23.5628 23.6369C23.5628 24.972 22.5672 26.0582 21.3349 26.0582C20.1459 26.0582 19.1728 25.044 19.1152 23.7665C19.1152 23.7212 19.1152 23.6801 19.1152 23.6369C19.1099 23.0446 19.3131 22.4693 19.6892 22.0117L19.7694 22.0611C20.2481 22.3 20.7752 22.4259 21.3101 22.4291C21.8451 22.4323 22.3737 22.3127 22.8552 22.0796C22.8963 22.059 22.9354 22.0343 22.9724 22.0117C23.3544 22.467 23.5635 23.0426 23.5628 23.6369Z" fill="#4377CD"/>
<path d="M23.0732 21.942C23.0441 21.9663 23.0132 21.9883 22.9806 22.0078L22.9025 22.0551L22.8634 22.0777C23.2079 22.5287 23.4125 23.0709 23.4517 23.6371C23.4517 24.9105 22.5034 25.9452 21.3369 25.9452C20.2096 25.9452 19.2798 24.9866 19.2304 23.7667C19.2304 23.7173 19.2304 23.6741 19.2304 23.6371C19.2516 23.0677 19.4421 22.5176 19.7776 22.0572L19.6974 22.0078C19.6701 21.9807 19.6447 21.9518 19.6213 21.9214V21.9358C19.221 22.4154 19.0025 23.0206 19.0041 23.6453C19.0041 23.6844 19.0041 23.7235 19.0041 23.7708C19.0638 25.1183 20.0882 26.1715 21.3369 26.1715C22.6289 26.1715 23.678 25.036 23.678 23.6371C23.6805 23.0187 23.4666 22.419 23.0732 21.942V21.942Z" fill="#2765AF"/>
<path d="M19.2654 13.639C19.5963 13.911 19.9676 14.1296 20.366 14.287C20.7672 14.4465 21.1918 14.5396 21.6229 14.5627C22.4952 14.6006 23.3577 14.367 24.0916 13.8941C24.0989 13.8892 24.1072 13.8859 24.1159 13.8842C24.1246 13.8826 24.1336 13.8828 24.1422 13.8847C24.1509 13.8866 24.159 13.8903 24.1662 13.8954C24.1734 13.9006 24.1795 13.9071 24.1841 13.9147C24.1939 13.9293 24.1976 13.947 24.1945 13.9643C24.1915 13.9815 24.1818 13.9969 24.1677 14.0073C23.4156 14.5244 22.5212 14.7947 21.6085 14.7808C21.1516 14.7694 20.6994 14.6847 20.2693 14.5298C19.8373 14.3745 19.432 14.1531 19.0679 13.8735C19.0404 13.848 19.0235 13.8131 19.0204 13.7758C19.0173 13.7384 19.0284 13.7012 19.0513 13.6715C19.0743 13.6419 19.1075 13.6219 19.1444 13.6155C19.1814 13.6091 19.2194 13.6167 19.251 13.637L19.2654 13.639Z" fill="black"/>
</g>
<defs>
<clipPath id="clip0_4073_39220">
<rect width="128" height="46.8606" fill="white"/>
</clipPath>
</defs>
</svg>
