<svg width="30" height="30" viewBox="0 0 30 30" fill="none" xmlns="http://www.w3.org/2000/svg">
<g opacity="0.5" clip-path="url(#clip0_506_24396)">
<path d="M25.8272 2.06027C24.3152 0.550874 21.8666 0.550874 20.3545 2.06027L18.9846 3.43771L4.40176 18.0128L4.37077 18.044C4.36326 18.0515 4.36326 18.0595 4.35527 18.0595C4.33978 18.0828 4.31653 18.1058 4.30128 18.129C4.30128 18.1367 4.29329 18.1367 4.29329 18.1445C4.27779 18.1677 4.27029 18.1832 4.25455 18.2065C4.24704 18.2142 4.24704 18.2217 4.2393 18.2297C4.23155 18.253 4.2238 18.2685 4.21581 18.2917C4.21581 18.2992 4.2083 18.2992 4.2083 18.3072L0.972815 28.0367C0.877903 28.3137 0.950056 28.6204 1.15852 28.826C1.30501 28.9705 1.50258 29.0514 1.70814 29.0507C1.79216 29.0492 1.87545 29.0361 1.95583 29.0119L11.6778 25.7687C11.6853 25.7687 11.6853 25.7687 11.6933 25.7612C11.7177 25.7539 11.7412 25.7435 11.7628 25.73C11.7688 25.7292 11.7742 25.7266 11.7785 25.7225C11.8015 25.707 11.8325 25.6912 11.8558 25.6757C11.8788 25.6605 11.9022 25.6372 11.9255 25.6217C11.9332 25.6137 11.9407 25.6137 11.9407 25.6062C11.9487 25.5985 11.9642 25.591 11.972 25.5752L27.9247 9.62249C29.4341 8.11044 29.4341 5.66185 27.9247 4.15003L25.8272 2.06027ZM11.4301 23.9496L6.04287 18.5626L19.5265 5.07906L24.9137 10.466L11.4301 23.9496ZM5.28406 19.9946L9.99044 24.7007L2.92336 27.0536L5.28406 19.9946ZM26.8335 8.53875L26.0129 9.36705L20.6255 3.97958L21.454 3.15152C22.3603 2.24598 23.8292 2.24598 24.7357 3.15152L26.841 5.25677C27.7405 6.16716 27.7371 7.63273 26.8335 8.53875Z" fill="#6DC400"/>
</g>
<defs>
<clipPath id="clip0_506_24396">
<rect width="30" height="30" fill="white"/>
</clipPath>
</defs>
</svg>
