<svg width="647" height="677" viewBox="0 0 647 677" fill="none" xmlns="http://www.w3.org/2000/svg">
<path d="M312.415 24V6.658H309.373V18.696L300.507 6.658H297.387V24H300.429V11.624L309.477 24H312.415ZM326.421 24V15.68C326.421 12.3 323.977 11.13 321.195 11.13C319.193 11.13 317.373 11.78 315.917 13.158L317.035 15.056C318.127 13.99 319.349 13.47 320.753 13.47C322.495 13.47 323.691 14.354 323.691 15.81V17.682C322.781 16.616 321.325 16.07 319.635 16.07C317.581 16.07 315.267 17.266 315.267 20.152C315.267 22.934 317.581 24.312 319.635 24.312C321.299 24.312 322.755 23.714 323.691 22.648V24H326.421ZM320.701 22.44C319.167 22.44 318.023 21.556 318.023 20.204C318.023 18.826 319.167 17.942 320.701 17.942C321.897 17.942 323.067 18.384 323.691 19.242V21.14C323.067 21.998 321.897 22.44 320.701 22.44ZM341.713 24L336.383 17.136L341.609 11.442H338.229L332.691 17.5V6.658H329.961V24H332.691V20.62L334.433 18.826L338.281 24H341.713ZM354.852 24V11.442H352.122V20.256C351.472 21.114 350.276 21.894 348.898 21.894C347.364 21.894 346.376 21.296 346.376 19.346V11.442H343.646V20.334C343.646 22.908 344.972 24.312 347.676 24.312C349.652 24.312 351.212 23.35 352.122 22.336V24H354.852ZM365.158 24.312C368.408 24.312 370.722 21.842 370.722 17.708C370.722 13.574 368.408 11.13 365.158 11.13C363.52 11.13 362.064 11.91 361.128 13.158V11.442H358.398V28.784H361.128V22.258C362.142 23.61 363.572 24.312 365.158 24.312ZM364.352 21.894C363.078 21.894 361.726 21.114 361.128 20.204V15.238C361.726 14.302 363.078 13.548 364.352 13.548C366.51 13.548 367.888 15.29 367.888 17.708C367.888 20.152 366.51 21.894 364.352 21.894ZM384.636 24V11.442H381.906V20.256C381.256 21.114 380.06 21.894 378.682 21.894C377.148 21.894 376.16 21.296 376.16 19.346V11.442H373.43V20.334C373.43 22.908 374.756 24.312 377.46 24.312C379.436 24.312 380.996 23.35 381.906 22.336V24H384.636ZM389.534 9.908C390.47 9.908 391.224 9.154 391.224 8.218C391.224 7.282 390.47 6.528 389.534 6.528C388.624 6.528 387.844 7.282 387.844 8.218C387.844 9.154 388.624 9.908 389.534 9.908ZM386.752 29.096C389.508 29.096 390.912 27.406 390.912 24.728V11.442H388.182V24.728C388.182 26.21 387.402 26.86 386.336 26.86C385.556 26.86 385.062 26.574 384.594 26.158L383.788 28.186C384.646 28.81 385.296 29.096 386.752 29.096Z" fill="white"/>
<path d="M21.6638 147.57V130.228H18.6218V142.266L9.7558 130.228H6.63579V147.57H9.6778V135.194L18.7258 147.57H21.6638ZM35.6707 147.57V139.25C35.6707 135.87 33.2267 134.7 30.4447 134.7C28.4427 134.7 26.6227 135.35 25.1667 136.728L26.2847 138.626C27.3767 137.56 28.5987 137.04 30.0027 137.04C31.7447 137.04 32.9407 137.924 32.9407 139.38V141.252C32.0307 140.186 30.5747 139.64 28.8847 139.64C26.8307 139.64 24.5167 140.836 24.5167 143.722C24.5167 146.504 26.8307 147.882 28.8847 147.882C30.5487 147.882 32.0047 147.284 32.9407 146.218V147.57H35.6707ZM29.9507 146.01C28.4167 146.01 27.2727 145.126 27.2727 143.774C27.2727 142.396 28.4167 141.512 29.9507 141.512C31.1467 141.512 32.3167 141.954 32.9407 142.812V144.71C32.3167 145.568 31.1467 146.01 29.9507 146.01ZM41.9401 143.8V138.834C42.5381 137.898 43.8901 137.118 45.1641 137.118C47.3481 137.118 48.7261 138.86 48.7261 141.304C48.7261 143.748 47.3481 145.464 45.1641 145.464C43.8901 145.464 42.5381 144.736 41.9401 143.8ZM41.9401 147.57V145.854C42.9021 147.102 44.3321 147.882 45.9701 147.882C49.1681 147.882 51.5341 145.438 51.5341 141.304C51.5341 137.248 49.1941 134.7 45.9701 134.7C44.3841 134.7 42.9281 135.428 41.9401 136.754V130.228H39.2101V147.57H41.9401ZM60.3496 129.37H57.7496L54.1096 133.114H56.0596L60.3496 129.37ZM57.0476 147.57V135.012H54.3176V147.57H57.0476ZM69.975 147.57V145.204H63.605L69.871 137.014V135.012H60.017V137.404H66.231L60.017 145.516V147.57H69.975ZM78.7523 147.882C80.7543 147.882 82.6003 147.258 83.8483 146.062L82.6003 144.268C81.7163 145.152 80.2603 145.646 79.0383 145.646C76.6723 145.646 75.2423 144.086 75.0343 142.188H84.7323V141.538C84.7323 137.586 82.3143 134.7 78.5443 134.7C74.8263 134.7 72.1743 137.638 72.1743 141.278C72.1743 145.256 74.9823 147.882 78.7523 147.882ZM82.0803 140.264H75.0083C75.1383 138.73 76.2043 136.936 78.5443 136.936C81.0143 136.936 82.0283 138.782 82.0803 140.264ZM88.7789 133.478C89.7149 133.478 90.4689 132.724 90.4689 131.788C90.4689 130.852 89.7149 130.098 88.7789 130.098C87.8689 130.098 87.0889 130.852 87.0889 131.788C87.0889 132.724 87.8689 133.478 88.7789 133.478ZM85.9969 152.666C88.7529 152.666 90.1569 150.976 90.1569 148.298V135.012H87.4269V148.298C87.4269 149.78 86.6469 150.43 85.5809 150.43C84.8009 150.43 84.3069 150.144 83.8389 149.728L83.0329 151.756C83.8909 152.38 84.5409 152.666 85.9969 152.666Z" fill="white"/>
<path d="M581.956 147.57V141.096H586.532C590.146 141.096 592.2 138.6 592.2 135.662C592.2 132.724 590.172 130.228 586.532 130.228H578.914V147.57H581.956ZM586.116 138.418H581.956V132.906H586.116C587.832 132.906 589.08 133.998 589.08 135.662C589.08 137.326 587.832 138.418 586.116 138.418ZM600.27 133.634C601.726 133.634 602.896 132.438 602.896 130.982C602.896 129.526 601.726 128.304 600.27 128.304C598.814 128.304 597.618 129.526 597.618 130.982C597.618 132.438 598.814 133.634 600.27 133.634ZM600.27 132.334C599.542 132.334 598.918 131.71 598.918 130.982C598.918 130.228 599.542 129.63 600.27 129.63C601.024 129.63 601.596 130.228 601.596 130.982C601.596 131.71 601.024 132.334 600.27 132.334ZM605.86 147.57V135.012H603.13V143.826C602.48 144.684 601.284 145.464 599.906 145.464C598.372 145.464 597.384 144.866 597.384 142.916V135.012H594.654V143.904C594.654 146.478 595.98 147.882 598.684 147.882C600.66 147.882 602.22 146.92 603.13 145.906V147.57H605.86ZM610.758 133.478C611.694 133.478 612.448 132.724 612.448 131.788C612.448 130.852 611.694 130.098 610.758 130.098C609.848 130.098 609.068 130.852 609.068 131.788C609.068 132.724 609.848 133.478 610.758 133.478ZM607.976 152.666C610.732 152.666 612.136 150.976 612.136 148.298V135.012H609.406V148.298C609.406 149.78 608.626 150.43 607.56 150.43C606.78 150.43 606.286 150.144 605.818 149.728L605.012 151.756C605.87 152.38 606.52 152.666 607.976 152.666ZM622.698 133.114L625.116 129.37H623.374L621.45 131.892L619.422 129.37H617.706L620.202 133.114H622.698ZM621.398 147.882C623.842 147.882 625.324 146.842 626.208 145.646L624.414 143.982C623.712 144.944 622.75 145.464 621.528 145.464C619.24 145.464 617.732 143.722 617.732 141.278C617.732 138.834 619.24 137.118 621.528 137.118C622.75 137.118 623.712 137.612 624.414 138.6L626.208 136.936C625.324 135.74 623.842 134.7 621.398 134.7C617.576 134.7 614.898 137.482 614.898 141.278C614.898 145.1 617.576 147.882 621.398 147.882ZM639.807 147.57V135.012H637.077V143.826C636.427 144.684 635.231 145.464 633.853 145.464C632.319 145.464 631.331 144.866 631.331 142.916V135.012H628.601V143.904C628.601 146.478 629.927 147.882 632.631 147.882C634.607 147.882 636.167 146.92 637.077 145.906V147.57H639.807ZM644.705 133.478C645.641 133.478 646.395 132.724 646.395 131.788C646.395 130.852 645.641 130.098 644.705 130.098C643.795 130.098 643.015 130.852 643.015 131.788C643.015 132.724 643.795 133.478 644.705 133.478ZM641.923 152.666C644.679 152.666 646.083 150.976 646.083 148.298V135.012H643.353V148.298C643.353 149.78 642.573 150.43 641.507 150.43C640.727 150.43 640.233 150.144 639.765 149.728L638.959 151.756C639.817 152.38 640.467 152.666 641.923 152.666Z" fill="white"/>
<path d="M3.08624 543.721V537.247H7.66224C11.2762 537.247 13.3302 534.751 13.3302 531.813C13.3302 528.875 11.3022 526.379 7.66224 526.379H0.0442422V543.721H3.08624ZM7.24624 534.569H3.08624V529.057H7.24624C8.96224 529.057 10.2102 530.149 10.2102 531.813C10.2102 533.477 8.96224 534.569 7.24624 534.569ZM18.5146 543.721V535.167C19.0606 534.283 20.5946 533.503 21.7386 533.503C22.0766 533.503 22.3626 533.529 22.5966 533.581V530.877C20.9586 530.877 19.4506 531.813 18.5146 533.009V531.163H15.7846V543.721H18.5146ZM30.4663 544.033C34.4963 544.033 36.9403 541.043 36.9403 537.429C36.9403 533.841 34.4963 530.851 30.4663 530.851C26.4883 530.851 24.0183 533.841 24.0183 537.429C24.0183 541.043 26.4883 544.033 30.4663 544.033ZM30.4663 541.615C28.1523 541.615 26.8523 539.665 26.8523 537.429C26.8523 535.219 28.1523 533.269 30.4663 533.269C32.8063 533.269 34.1063 535.219 34.1063 537.429C34.1063 539.665 32.8063 541.615 30.4663 541.615ZM51.2726 543.721V526.379H48.5426V532.905C47.5286 531.579 46.0726 530.851 44.5126 530.851C41.2626 530.851 38.9226 533.399 38.9226 537.455C38.9226 541.589 41.2886 544.033 44.5126 544.033C46.1246 544.033 47.5806 543.253 48.5426 542.005V543.721H51.2726ZM45.2926 541.615C43.1346 541.615 41.7566 539.873 41.7566 537.455C41.7566 535.011 43.1346 533.269 45.2926 533.269C46.5926 533.269 47.9186 534.023 48.5426 534.959V539.951C47.9186 540.887 46.5926 541.615 45.2926 541.615ZM65.21 543.721V535.401C65.21 532.021 62.766 530.851 59.984 530.851C57.982 530.851 56.162 531.501 54.706 532.879L55.824 534.777C56.916 533.711 58.138 533.191 59.542 533.191C61.284 533.191 62.48 534.075 62.48 535.531V537.403C61.57 536.337 60.114 535.791 58.424 535.791C56.37 535.791 54.056 536.987 54.056 539.873C54.056 542.655 56.37 544.033 58.424 544.033C60.088 544.033 61.544 543.435 62.48 542.369V543.721H65.21ZM59.49 542.161C57.956 542.161 56.812 541.277 56.812 539.925C56.812 538.547 57.956 537.663 59.49 537.663C60.686 537.663 61.856 538.105 62.48 538.963V540.861C61.856 541.719 60.686 542.161 59.49 542.161ZM64.638 525.521H62.038L58.398 529.265H60.348L64.638 525.521ZM74.9894 543.721L80.1114 531.163H77.1734L73.5074 540.575L69.8414 531.163H66.9294L72.0514 543.721H74.9894ZM87.6236 544.033C89.6256 544.033 91.4716 543.409 92.7196 542.213L91.4716 540.419C90.5876 541.303 89.1316 541.797 87.9096 541.797C85.5436 541.797 84.1136 540.237 83.9056 538.339H93.6036V537.689C93.6036 533.737 91.1856 530.851 87.4156 530.851C83.6976 530.851 81.0456 533.789 81.0456 537.429C81.0456 541.407 83.8536 544.033 87.6236 544.033ZM90.9516 536.415H83.8796C84.0096 534.881 85.0756 533.087 87.4156 533.087C89.8856 533.087 90.8996 534.933 90.9516 536.415ZM97.6503 529.629C98.5863 529.629 99.3403 528.875 99.3403 527.939C99.3403 527.003 98.5863 526.249 97.6503 526.249C96.7403 526.249 95.9603 527.003 95.9603 527.939C95.9603 528.875 96.7403 529.629 97.6503 529.629ZM94.8683 548.817C97.6243 548.817 99.0283 547.127 99.0283 544.449V531.163H96.2983V544.449C96.2983 545.931 95.5183 546.581 94.4523 546.581C93.6723 546.581 93.1783 546.295 92.7103 545.879L91.9043 547.907C92.7623 548.531 93.4123 548.817 94.8683 548.817Z" fill="white"/>
<path d="M583.078 544.033C587.758 544.033 589.786 541.563 589.786 538.677C589.786 532.203 579.698 534.205 579.698 530.981C579.698 529.681 580.842 528.823 582.636 528.823C584.456 528.823 586.302 529.447 587.654 530.799L589.396 528.537C587.784 526.977 585.6 526.119 582.896 526.119C579.1 526.119 576.578 528.329 576.578 531.189C576.578 537.585 586.692 535.323 586.692 538.963C586.692 540.107 585.704 541.329 583.208 541.329C580.79 541.329 578.918 540.211 577.722 538.937L576.032 541.277C577.566 542.915 579.88 544.033 583.078 544.033ZM598.307 544.033C600.309 544.033 602.155 543.409 603.403 542.213L602.155 540.419C601.271 541.303 599.815 541.797 598.593 541.797C596.227 541.797 594.797 540.237 594.589 538.339H604.287V537.689C604.287 533.737 601.869 530.851 598.099 530.851C594.381 530.851 591.729 533.789 591.729 537.429C591.729 541.407 594.537 544.033 598.307 544.033ZM601.635 536.415H594.563C594.693 534.881 595.759 533.087 598.099 533.087C600.569 533.087 601.583 534.933 601.635 536.415ZM612.598 529.265L615.016 525.521H613.274L611.35 528.043L609.322 525.521H607.606L610.102 529.265H612.598ZM616.368 543.721V541.355H609.998L616.264 533.165V531.163H606.41V533.555H612.624L606.41 541.667V543.721H616.368ZM625.145 544.033C627.147 544.033 628.993 543.409 630.241 542.213L628.993 540.419C628.109 541.303 626.653 541.797 625.431 541.797C623.065 541.797 621.635 540.237 621.427 538.339H631.125V537.689C631.125 533.737 628.707 530.851 624.937 530.851C621.219 530.851 618.567 533.789 618.567 537.429C618.567 541.407 621.375 544.033 625.145 544.033ZM628.473 536.415H621.401C621.531 534.881 622.597 533.087 624.937 533.087C627.407 533.087 628.421 534.933 628.473 536.415ZM640.736 529.265L643.154 525.521H641.412L639.488 528.043L637.46 525.521H635.744L638.24 529.265H640.736ZM645.026 543.721V534.881C645.026 532.307 643.674 530.851 640.97 530.851C638.994 530.851 637.382 531.891 636.55 532.879V531.163H633.82V543.721H636.55V534.959C637.174 534.101 638.37 533.269 639.774 533.269C641.308 533.269 642.296 533.919 642.296 535.869V543.721H645.026Z" fill="white"/>
<path d="M300.27 670.925V664.451H304.846C308.46 664.451 310.514 661.955 310.514 659.017C310.514 656.079 308.486 653.583 304.846 653.583H297.228V670.925H300.27ZM304.43 661.773H300.27V656.261H304.43C306.146 656.261 307.394 657.353 307.394 659.017C307.394 660.681 306.146 661.773 304.43 661.773ZM318.256 671.237C322.286 671.237 324.73 668.247 324.73 664.633C324.73 661.045 322.286 658.055 318.256 658.055C314.278 658.055 311.808 661.045 311.808 664.633C311.808 668.247 314.278 671.237 318.256 671.237ZM318.256 668.819C315.942 668.819 314.642 666.869 314.642 664.633C314.642 662.423 315.942 660.473 318.256 660.473C320.596 660.473 321.896 662.423 321.896 664.633C321.896 666.869 320.596 668.819 318.256 668.819ZM345.614 670.925V661.851C345.614 659.303 344.314 658.055 342 658.055C340.128 658.055 338.464 659.225 337.736 660.369C337.32 658.991 336.176 658.055 334.304 658.055C332.406 658.055 330.742 659.303 330.222 660.083V658.367H327.492V670.925H330.222V662.163C330.794 661.331 331.912 660.473 333.108 660.473C334.59 660.473 335.188 661.383 335.188 662.735V670.925H337.918V662.137C338.464 661.331 339.608 660.473 340.83 660.473C342.286 660.473 342.884 661.383 342.884 662.735V670.925H345.614ZM359.55 670.925V662.605C359.55 659.225 357.106 658.055 354.324 658.055C352.322 658.055 350.502 658.705 349.046 660.083L350.164 661.981C351.256 660.915 352.478 660.395 353.882 660.395C355.624 660.395 356.82 661.279 356.82 662.735V664.607C355.91 663.541 354.454 662.995 352.764 662.995C350.71 662.995 348.396 664.191 348.396 667.077C348.396 669.859 350.71 671.237 352.764 671.237C354.428 671.237 355.884 670.639 356.82 669.573V670.925H359.55ZM353.83 669.365C352.296 669.365 351.152 668.481 351.152 667.129C351.152 665.751 352.296 664.867 353.83 664.867C355.026 664.867 356.196 665.309 356.82 666.167V668.065C356.196 668.923 355.026 669.365 353.83 669.365ZM358.978 652.725H356.378L352.738 656.469H354.688L358.978 652.725ZM374.322 670.925V662.033C374.322 659.459 372.97 658.055 370.266 658.055C368.29 658.055 366.652 659.095 365.82 660.083V653.583H363.09V670.925H365.82V662.163C366.47 661.305 367.666 660.473 369.044 660.473C370.578 660.473 371.592 661.071 371.592 663.021V670.925H374.322ZM383.665 671.237C385.667 671.237 387.513 670.613 388.761 669.417L387.513 667.623C386.629 668.507 385.173 669.001 383.951 669.001C381.585 669.001 380.155 667.441 379.947 665.543H389.645V664.893C389.645 660.941 387.227 658.055 383.457 658.055C379.739 658.055 377.087 660.993 377.087 664.633C377.087 668.611 379.895 671.237 383.665 671.237ZM386.993 663.619H379.921C380.051 662.085 381.117 660.291 383.457 660.291C385.927 660.291 386.941 662.137 386.993 663.619ZM393.692 656.833C394.628 656.833 395.382 656.079 395.382 655.143C395.382 654.207 394.628 653.453 393.692 653.453C392.782 653.453 392.002 654.207 392.002 655.143C392.002 656.079 392.782 656.833 393.692 656.833ZM390.91 676.021C393.666 676.021 395.07 674.331 395.07 671.653V658.367H392.34V671.653C392.34 673.135 391.56 673.785 390.494 673.785C389.714 673.785 389.22 673.499 388.752 673.083L387.946 675.111C388.804 675.735 389.454 676.021 390.91 676.021Z" fill="white"/>
<circle cx="341.909" cy="338.909" r="223.516" fill="white"/>
<circle cx="341.909" cy="338.909" r="277.124" stroke="white" stroke-width="4.54301" stroke-linecap="round" stroke-linejoin="round" stroke-dasharray="0.91 18.17"/>
<path d="M158.136 411.594C158.136 411.594 116.781 323.434 198.288 323.434C241.352 323.434 223.611 299.246 252.89 271.253C282.169 243.259 384.564 220.894 406.351 274.95C428.138 329.006 374.285 370.047 426.329 363.006C488.87 354.546 513.576 411.592 513.576 411.592L158.136 411.594Z" fill="#ECFCE8"/>
<path d="M493.074 400.409C489.215 397.585 481.328 399.492 475.509 401.53C474.559 400.196 473.488 398.952 472.309 397.815C484.847 389.73 502.165 372.487 492.986 371.027C485.008 369.759 474.239 385.279 468.485 394.726C462.509 390.702 453.353 387.744 439.373 388.771C403.093 391.433 374.747 368.005 353.853 375.819C337.242 382.031 322.017 385.512 307.332 384.323C307.964 373.586 308.102 352.505 299.678 350.318C291.129 348.098 299.516 372.039 304.177 384.001C303.085 383.86 301.994 383.693 300.904 383.499C297.885 377.541 292.911 369.744 287.445 369.478C282.302 369.226 288.649 376.236 294.896 382.175C276.942 378.401 255.643 393.012 255.29 410.292H479.457C479.457 410.292 479.061 407.77 477.302 404.446C485.963 404.263 497.266 403.472 493.074 400.409Z" fill="#A8D29F"/>
<path d="M304.195 396.927H245.114V410.282H304.195V396.927Z" fill="#4A75CB"/>
<path d="M285.977 396.927H226.898V410.283H285.977V396.927Z" fill="#8FCE89"/>
<path d="M327.436 410.279H371.428V348.726H327.436V410.279Z" fill="#D86713"/>
<path d="M313.87 410.279H357.862V348.726H313.87V410.279Z" fill="#F1A34F"/>
<path d="M357.862 348.727L371.426 357.969V348.727H357.862Z" fill="#C95C12"/>
<path d="M222.064 362.36C222.064 362.36 213.838 368.485 212.234 368.113C210.629 367.741 218.246 361.502 218.246 361.502C215.38 360.123 206.47 360.988 206.47 360.988C206.47 360.988 203.503 370.569 202.038 369.813C200.574 369.057 205.099 361.466 205.099 361.466C201.907 361.271 197.99 363.639 197.99 363.639C192.63 367.876 198.343 374.548 198.343 374.548C198.343 374.548 197.243 377.844 193.858 380.845C193.858 380.845 189.03 384.424 188.688 390.819L189.565 390.897C189.565 390.897 190.957 384.941 193.483 382.125C193.583 382.022 193.725 381.876 193.902 381.698C194.313 381.316 194.601 381.029 194.795 380.82C196.054 379.609 197.792 378.068 198.63 377.919C198.599 377.78 198.587 377.639 198.593 377.497C198.605 377.632 198.617 377.771 198.63 377.919C198.922 381.287 205.45 384.235 209.47 384.84C213.49 385.445 212.25 383.791 210.863 381.34C209.476 378.888 205.094 377.788 204.094 376.653C203.093 375.519 205.162 375.521 207.584 376.629C210.007 377.736 210.338 380.689 214.223 382.552C218.109 384.415 223.954 377.96 223.954 377.96C220.857 377.803 216.437 374.436 216.596 373.407C216.755 372.377 224.102 375.183 225.357 375.311C226.613 375.438 229.471 373.881 229.913 368.819C230.355 363.756 222.064 362.36 222.064 362.36Z" fill="#82B378"/>
<path d="M178.373 366.163C178.373 366.163 187.459 361.069 183.218 354.155C183.218 354.155 179.827 349.908 176.196 348.818C176.196 348.818 178.135 359.127 176.196 359.362C174.258 359.598 174.863 347.719 174.863 347.719C174.863 347.719 165.291 343.11 161.536 343.472C161.536 343.472 167.473 353.538 165.534 353.295C163.596 353.052 156.932 342.865 156.932 342.865C156.932 342.865 147.119 341.045 145.543 346.868C143.968 352.69 146.513 355.6 147.968 355.963C149.422 356.327 158.749 356.207 158.508 357.419C158.267 358.632 151.966 360.572 148.452 359.481C148.452 359.481 152.328 369.062 157.417 368.577C162.505 368.092 164.08 364.939 167.231 364.696C170.382 364.453 172.682 365.302 171.108 366.152C169.534 367.001 164.202 366.43 161.658 368.594C159.114 370.759 157.054 372.094 161.779 373.064C166.504 374.033 174.985 373.429 176.68 369.789L178.373 366.163Z" fill="#A8D29F"/>
<path d="M180.795 375.016C178.251 370.286 178.373 366.164 178.373 366.164C175.462 356.945 150.021 348.702 150.021 348.702C182.371 361.8 176.676 369.804 176.676 369.804C177.553 370.314 178.855 372.741 179.763 374.603C179.891 374.92 180.096 375.359 180.4 375.955C180.523 376.223 180.621 376.444 180.693 376.598C182.358 380.769 181.476 387.974 181.476 387.974L182.484 388.242C184.719 380.981 180.795 375.016 180.795 375.016Z" fill="#82B378"/>
<path d="M192.828 359.139C192.828 359.139 180.851 352.425 186.441 343.311C186.441 343.311 190.912 337.716 195.703 336.282C195.703 336.282 193.148 349.871 195.703 350.194C198.257 350.518 197.458 334.847 197.458 334.847C197.458 334.847 210.076 328.772 215.027 329.251C215.027 329.251 207.2 342.52 209.76 342.201C212.32 341.882 221.099 328.451 221.099 328.451C221.099 328.451 234.036 326.054 236.112 333.723C238.188 341.393 234.835 345.234 232.918 345.713C231.002 346.192 218.704 346.034 219.02 347.633C219.336 349.232 227.652 351.789 232.276 350.349C232.276 350.349 227.166 362.98 220.458 362.34C213.751 361.7 211.674 357.544 207.522 357.225C203.37 356.906 200.334 358.023 202.41 359.143C204.486 360.264 211.514 359.51 214.869 362.365C218.223 365.221 220.937 366.978 214.708 368.257C208.478 369.535 197.299 368.737 195.065 363.941L192.828 359.139Z" fill="#A8D29F"/>
<path d="M230.2 336.116C230.2 336.116 196.661 346.988 192.828 359.139C192.828 359.139 192.989 364.573 189.634 370.809C189.634 370.809 184.461 378.671 187.411 388.236L188.742 387.878C188.742 387.878 187.579 378.381 189.773 372.882C189.864 372.68 189.993 372.389 190.155 372.035C190.556 371.25 190.827 370.671 190.996 370.254C192.192 367.799 193.915 364.6 195.065 363.929C195.065 363.932 187.558 353.388 230.2 336.116Z" fill="#82B378"/>
<path d="M192.431 408.996C195.513 408.996 198.563 408.389 201.41 407.208C204.257 406.028 206.843 404.298 209.022 402.117C211.201 399.936 212.929 397.347 214.108 394.497C215.287 391.648 215.894 388.594 215.894 385.509H168.962C168.962 388.594 169.569 391.649 170.748 394.499C171.928 397.349 173.657 399.939 175.836 402.12C178.016 404.301 180.603 406.031 183.45 407.21C186.298 408.39 189.35 408.997 192.431 408.996Z" fill="#F1A34F"/>
<path d="M198.198 408.818C194.897 409.227 191.547 408.931 188.369 407.947C185.191 406.963 182.259 405.315 179.765 403.111C177.271 400.908 175.274 398.199 173.904 395.165C172.535 392.13 171.825 388.839 171.822 385.509H177.656C177.657 391.232 179.744 396.758 183.526 401.05C187.309 405.342 192.526 408.104 198.198 408.818V408.818Z" fill="#FFB973"/>
<path d="M213.318 407.381H171.532C170.765 407.381 170.029 407.687 169.486 408.23C168.943 408.773 168.638 409.51 168.638 410.279H216.211C216.211 409.51 215.907 408.773 215.364 408.23C214.821 407.687 214.085 407.381 213.318 407.381V407.381Z" fill="#F1A34F"/>
<path d="M216.062 385.509H168.551C168.455 385.509 168.364 385.547 168.296 385.615C168.229 385.682 168.191 385.774 168.191 385.87C168.191 385.965 168.229 386.057 168.296 386.124C168.364 386.192 168.455 386.23 168.551 386.23H216.062C216.158 386.23 216.249 386.192 216.317 386.124C216.384 386.057 216.422 385.965 216.422 385.87C216.422 385.774 216.384 385.682 216.317 385.615C216.249 385.547 216.158 385.509 216.062 385.509V385.509Z" fill="#D86713"/>
<path d="M397.114 261.827C396.434 261.723 394.384 263.62 394.384 263.62C390.008 264.126 383.611 265.289 381.308 265.733C379.674 266.048 375.284 264.549 370.995 262.829C365.894 260.779 360.937 258.421 360.937 258.421C358.106 258.274 354.892 263.445 360.633 266.732C361.511 267.234 364.801 268.091 368.593 268.873C373.823 269.952 380.003 270.888 382.104 270.56C384.547 270.177 391.467 267.644 395.576 265.705H395.586L395.632 265.683C395.879 265.567 396.886 265.118 397.559 265.159C398.329 265.204 400.045 263.792 400.098 263.416C400.151 263.04 397.794 261.93 397.114 261.827Z" fill="#ED975D"/>
<path d="M391.771 326.948L389.362 327.439C389.362 327.439 378.336 315.038 376.634 309.82C375.724 307.038 369.905 305.825 363.819 304.255C358.525 302.886 353.031 301.234 350.408 298.012C344.769 291.091 353.949 282.586 353.949 282.586C353.949 282.586 363.711 288.394 372.131 294.394C378.017 298.586 383.249 302.873 384.037 305.336C385.951 311.323 390.011 322.71 391.771 326.948Z" fill="#6BAA66"/>
<path d="M388.546 331.04H389.902C390.355 330.969 390.69 330.837 391.155 330.777C391.864 330.683 392.188 330.974 392.253 331.04L392.266 331.053H398.022C398.169 330.847 398.022 330.368 397.892 330.015C397.847 329.897 397.775 329.79 397.681 329.705C397.588 329.619 397.476 329.556 397.354 329.522C396.744 329.344 395.54 329.186 394.437 328.187C393.818 327.627 391.444 326.125 391.444 326.125H391.431C391.378 326.125 391.138 326.203 390.05 327.115C389.492 327.587 388.54 326.451 388.54 326.451C388.409 326.57 388.303 326.714 388.228 326.874C388.095 327.146 388.052 327.454 388.104 327.753C388.19 328.272 387.914 329.238 387.691 329.889C387.558 330.285 387.446 330.566 387.446 330.566C387.446 330.566 387.38 330.894 388.546 331.04Z" fill="#396035"/>
<path d="M372.131 294.389L363.819 304.251C358.525 302.882 353.031 301.23 350.408 298.008C344.769 291.087 353.949 282.581 353.949 282.581C353.949 282.581 363.711 288.389 372.131 294.389Z" fill="#4C8E4C"/>
<path d="M364.578 289.245C364.578 289.245 363.908 291.359 362.823 294.542C361.443 298.566 359.389 304.295 357.161 309.609C356.671 310.781 356.172 311.925 355.67 313.029C353.817 317.118 351.921 320.623 350.258 322.401C347.256 325.603 339.96 346.188 339.96 346.188L338.142 345.685C338.142 345.685 335.606 328.111 344.578 318.105C344.679 318.004 344.743 317.873 344.76 317.731C344.88 316.251 345.307 309.621 346.237 302.902C346.466 301.253 346.725 299.601 347.014 298.018C347.033 297.916 347.052 297.816 347.071 297.716C348.436 290.394 349.744 287.137 351.432 285.5L363.848 289.037L364.578 289.245Z" fill="#6BAA66"/>
<path d="M337.925 348.713H339.281C339.735 348.642 340.07 348.51 340.535 348.448C341.243 348.356 341.568 348.646 341.632 348.713L341.645 348.726H347.402C347.548 348.519 347.402 348.04 347.272 347.687C347.226 347.568 347.154 347.462 347.061 347.377C346.967 347.291 346.855 347.228 346.734 347.193C346.122 347.016 344.919 346.859 343.816 345.861C343.196 345.3 340.822 343.797 340.822 343.797H340.81C340.757 343.797 340.518 343.875 339.429 344.787C338.872 345.259 337.919 344.122 337.919 344.122C337.789 344.242 337.683 344.385 337.608 344.545C337.473 344.82 337.43 345.13 337.483 345.431C337.57 345.95 337.293 346.915 337.072 347.568C336.938 347.963 336.824 348.243 336.824 348.243C336.824 348.243 336.759 348.567 337.925 348.713Z" fill="#396035"/>
<path d="M340.588 265.331C340.588 265.331 338.511 270.417 336.116 275.369C334.101 279.532 331.863 283.599 330.444 284.467C328.443 285.69 322.931 289.142 319.354 291.718C319.354 291.718 316.564 291.696 316.135 292.23C315.707 292.765 314.702 295.17 314.994 295.413C315.287 295.656 317.505 295.543 318.043 294.99C318.514 294.508 319.56 294.161 319.82 294.08L319.869 294.064H319.88C324.225 292.725 331.042 289.937 333.105 288.574C334.883 287.402 338.821 282.543 341.962 278.222C344.24 275.088 346.097 272.236 346.408 271.274C348.438 264.973 342.583 263.324 340.588 265.331Z" fill="#FFB27D"/>
<path d="M351.451 245.383C351.222 245.048 350.974 244.727 350.708 244.421C351.02 244.437 351.331 244.39 351.624 244.283C352.356 243.981 352.686 241.664 352.576 240.976C352.467 240.288 351.454 238.302 350.205 238.104C348.956 237.907 347.665 239.294 347.665 239.294C347.897 238.292 350.006 237.713 350.006 237.713C345.654 238.517 345.876 241.423 345.91 241.692C341.926 240.27 339.587 247.781 339.587 247.781L349.908 253.871C349.908 253.871 349.934 252.211 350.919 252.318C352.454 252.487 353.732 248.71 351.451 245.383Z" fill="#396035"/>
<path d="M352.11 261.143C349.741 262.26 346.599 260.651 346.615 260.633C346.818 260.431 346.747 259.822 346.561 259.023C346.375 258.192 345.935 257.057 345.123 255.704C344.955 255.411 344.785 255.127 344.582 254.825L344.852 254.724L349.453 252.879C349.453 252.879 350.198 254.216 350.976 255.435C351.636 256.451 352.329 257.366 352.633 257.331C352.651 257.319 355.694 259.416 352.11 261.143Z" fill="#FFB27D"/>
<path d="M349.453 253.338C349.334 254.98 348.777 257.944 346.561 259.027C346.375 258.197 345.934 257.062 345.123 255.709L349.453 253.338Z" fill="#ED975D"/>
<path d="M344.853 257.577C344.853 257.577 350.844 255.213 349.315 251.503C347.787 247.792 347.532 244.986 343.644 246.339C339.755 247.692 339.599 249.414 339.808 250.773C340.017 252.132 343.259 258.096 344.853 257.577Z" fill="#FFB27D"/>
<path d="M347.088 250.656C349.854 250.265 350.662 249.146 350.662 249.146C348.983 248.57 347.556 247.429 346.624 245.917C346.624 245.917 343.515 244.867 341.211 246.622C341.064 246.812 340.964 247.035 340.918 247.272C340.39 247.099 339.602 247.144 339.138 248.638C338.451 250.882 340.894 253.333 340.894 253.333C341.488 253.165 340.818 251.164 340.724 250.097C340.655 249.312 341.079 248.306 341.309 247.83C341.602 248.21 344.52 251.88 348.082 252.027C346.802 251.55 345.592 250.9 344.487 250.095C345.338 250.514 346.244 250.775 347.088 250.656Z" fill="#396035"/>
<path d="M363.513 268.79C363.462 268.61 363.408 268.424 363.351 268.234C364.111 266.818 364.622 265.283 364.862 263.694C365.269 260.951 364.569 259.257 364.569 259.257C364.569 259.257 360.415 257.051 358.58 256.767L358.557 256.76L358.484 256.753C356.632 256.498 352.622 257.316 352.622 257.316C352.622 257.316 353.396 259.378 351.214 260.752C349.033 262.126 346.701 260.399 346.701 260.399C346.631 260.447 346.555 260.499 346.48 260.554C346.48 260.554 340.74 264.347 340.225 265.213C339.71 266.078 337.501 270.37 337.501 270.37C337.501 270.37 338.202 273.972 345.957 274.273C346.594 275.821 347.083 277.331 347.241 278.59C347.857 283.48 347.142 287.336 347.86 290.19C348.578 293.045 361.518 291.418 363.861 290.868C366.205 290.319 365.677 287.814 365.858 285.381C366.089 282.332 364.277 271.486 363.513 268.79Z" fill="#8FCE89"/>
<path d="M364.862 263.7C364.62 265.294 364.105 266.835 363.341 268.255C363.137 267.357 362.317 264.072 360.972 262.583C360.972 262.583 363.222 262.786 364.862 263.7Z" fill="#4C8E4C"/>
<path d="M312.175 295.744C312.175 295.744 314.586 292.815 315.101 292.474C315.616 292.133 317.896 291.522 318.027 291.644C318.157 291.765 318.163 291.937 317.88 292.193C317.598 292.449 316.521 293.072 316.675 293.142C316.828 293.212 320.078 291.594 320.547 292.139C321.017 292.683 320.281 294.93 319.029 296.008C317.776 297.086 314.04 297.545 313.806 297.696C311.816 298.972 312.175 295.744 312.175 295.744Z" fill="#ED975D"/>
<path d="M269.731 288.991C269.731 288.991 273.195 293.103 277.604 291.383C277.604 291.383 278.554 289.086 278.567 287.392C278.567 287.184 278.567 286.982 278.567 286.79C278.59 284.886 278.655 283.813 278.655 283.813C278.454 283.729 271.912 281.041 271.918 281.263C272.034 286.421 269.731 288.991 269.731 288.991Z" fill="#FFB27D"/>
<path d="M272.578 282.493C273.208 283.665 275.373 285.954 278.576 286.79C278.599 284.886 278.663 283.813 278.663 283.813C278.476 283.765 272.39 282.148 272.578 282.493Z" fill="#ED975D"/>
<path d="M280.033 283.615C280.033 283.615 272.676 285.346 271.669 280.743C270.663 276.141 269.036 273.264 273.689 271.965C278.343 270.666 279.644 272.22 280.353 273.674C281.063 275.129 281.92 283.047 280.033 283.615Z" fill="#FFB27D"/>
<path d="M271.921 281.999C271.82 282.063 270.237 282.549 267.24 276.571C266.769 275.633 266.448 273.603 267.545 271.809C268.643 270.015 272.533 268.605 275.764 267.991C278.996 267.377 279.771 269.198 280.532 271.027C281.331 272.947 283.638 274.528 283.638 274.528C280.858 276.087 277.493 273.858 276.332 274.224C275.17 274.59 274.759 276.42 274.671 277.014C274.584 277.607 274.45 278.09 272.988 277.564C271.525 277.038 272.326 279.639 272.56 280.136C272.56 280.136 272.759 281.46 271.921 281.999Z" fill="#A9453D"/>
<path d="M252.97 396.927H248.516C247.582 396.927 246.544 395.978 246.285 394.243C246.026 392.507 244.105 391.557 243.69 390.142C243.274 388.728 245.403 386.72 245.403 386.72L245.758 386.256L246.128 385.772L249.657 386.615C249.657 386.615 249.745 387.467 249.803 388.553C249.841 389.337 249.862 390.243 249.818 391.043C249.714 392.947 250.34 394.979 252 395.349C253.661 395.718 252.97 396.927 252.97 396.927Z" fill="#396035"/>
<path d="M283.98 396.97H272.173C272.086 396.956 272.002 396.931 271.922 396.895C271.134 396.488 271.381 393.38 271.475 392.417C271.494 392.238 271.507 392.134 271.507 392.134C271.507 392.134 275.659 388.712 276.229 391.333C276.248 391.414 276.269 391.494 276.291 391.573C277.012 394.025 280.241 395.139 282.096 395.45C283.518 395.69 283.886 396.544 283.98 396.97Z" fill="#396035"/>
<path d="M281.601 328.616C281.601 328.616 280.971 336.492 280.229 345.958C279.221 358.819 278.01 374.616 277.888 377.608C277.682 382.804 276.851 391.116 276.851 391.116C276.851 391.116 274.879 393.092 270.934 392.259C270.934 392.259 267.422 380.397 266.415 367.839C266.398 367.632 266.382 367.426 266.368 367.218C265.433 354.438 263.98 327.531 263.98 327.531L281.601 328.616Z" fill="#EE9849"/>
<path d="M281.601 328.616C281.601 328.616 280.971 336.492 280.229 345.958L266.416 367.839C266.4 367.632 266.384 367.426 266.369 367.218C265.434 354.438 263.982 327.531 263.982 327.531L281.601 328.616Z" fill="#E58638"/>
<path d="M278.72 329.552C278.72 329.552 267.355 358.074 259.881 371.478C252.407 384.882 250.079 388.622 250.079 388.622C250.079 388.622 245.799 386.909 245.41 385.739C245.41 385.739 248.267 359.862 253.271 353.554C256.099 349.99 259.416 339.294 259.578 335.552C259.74 331.81 260.589 324.409 260.589 324.409L278.72 329.552Z" fill="#EE9849"/>
<path d="M252.704 324.801C252.704 324.801 252.412 328.364 252.194 328.911C251.976 329.457 250.536 331.153 250.363 331.128C250.191 331.103 250.097 330.97 250.182 330.624C250.267 330.279 250.767 329.212 250.605 329.24C250.442 329.268 248.802 332.272 248.147 332.102C247.492 331.932 246.852 329.798 247.242 328.294C247.631 326.79 250.277 324.418 250.378 324.175C251.241 322.111 252.704 324.801 252.704 324.801Z" fill="#ED975D"/>
<path d="M251.478 325.709C252.736 326.113 252.941 326.023 252.941 326.023C252.941 326.023 259.063 314.864 259.684 313.841C260.304 312.819 272.685 301.328 272.685 301.328L269.503 289.451C269.503 289.451 255.419 307.697 253.898 310.319C251.387 314.647 249.913 324.699 249.913 324.699C250.34 325.164 250.879 325.512 251.478 325.709V325.709Z" fill="#4C8E4C"/>
<path d="M284 305.986C283.957 308.425 283.815 311.166 283.623 313.952L283.588 314.447C283.466 316.172 283.333 317.901 283.183 319.587C283.121 320.263 283.056 320.931 282.988 321.589L282.978 321.677C282.978 321.923 282.943 322.189 282.916 322.432C282.295 328.747 281.644 333.738 281.524 333.814C281.383 333.913 281.21 333.957 281.039 333.937C279.385 333.729 274.448 334.105 270.407 333.225C266.997 332.505 264.059 331.14 260.948 329.299C260.535 329.054 259.593 328.407 259.671 327.924C259.745 327.392 259.884 326.623 260.061 325.657C260.674 322.297 261.732 316.519 262.093 309.756C262.163 308.496 262.266 307.252 262.399 306.029C262.71 303.022 263.261 300.046 264.048 297.128C265.433 292.133 267.469 288.307 270.024 286.811C270.357 286.625 272.154 287.769 273.802 288.827C275.192 289.718 276.843 290.11 278.484 289.939L279.856 291.459C281.519 293.394 283.289 295.969 283.772 299.629C283.809 299.9 283.839 300.187 283.866 300.493C284.004 302.321 284.049 304.154 284 305.986V305.986Z" fill="#6BAA66"/>
<path d="M284.001 305.986C283.957 308.424 283.815 311.166 283.623 313.951L283.588 314.446C274.137 308.525 272.682 297.688 272.682 297.688C277.331 297.892 281.021 298.963 283.872 300.493C284.008 302.321 284.051 304.154 284.001 305.986V305.986Z" fill="#4C8E4C"/>
<path d="M313.61 296.037C313.123 294.719 312.365 294.802 312.365 294.802C312.365 294.802 298.312 298.308 297.051 298.464C295.79 298.619 281.92 293.045 281.92 293.045C281.92 293.045 276.461 290.592 273.903 292.831C271.681 294.778 271.58 297.242 272.1 299.313C272.407 300.519 273.07 301.603 274.002 302.426C274.935 303.249 276.093 303.771 277.327 303.925C282.985 304.647 294.275 306.004 296.637 305.675C301.904 304.942 313.838 298.045 313.838 298.045C313.918 297.367 313.839 296.68 313.61 296.037V296.037Z" fill="#6BAA66"/>
<path d="M452.168 321.818C452.168 321.818 454.12 323.63 453.739 324.917C453.359 326.204 451.596 327.061 451.358 328.635C451.119 330.209 450.168 331.066 449.309 331.066H445.225C445.225 331.066 444.593 329.959 446.117 329.625C447.642 329.291 448.215 327.443 448.12 325.727C448.025 324.01 448.266 321.723 448.266 321.723L451.504 320.96L452.168 321.818Z" fill="#396035"/>
<path d="M427.837 330.851C427.639 330.951 426.943 331.019 425.988 331.065H416.747C416.779 330.791 416.994 329.81 418.502 329.565C420.209 329.288 423.166 328.294 423.824 326.109C423.847 326.039 423.866 325.967 423.881 325.895C424.405 323.559 428.214 326.608 428.214 326.608C428.214 326.608 428.226 326.702 428.242 326.862C428.334 327.72 428.56 330.491 427.837 330.851Z" fill="#396035"/>
<path d="M418.957 268.382C418.957 268.382 419.535 275.608 420.215 284.293C421.14 296.091 422.252 310.585 422.361 313.329C422.551 318.097 423.314 325.723 423.314 325.723C423.314 325.723 425.122 327.534 428.743 326.771C428.743 326.771 431.961 315.884 432.888 304.365C432.903 304.176 432.918 303.986 432.931 303.797C433.788 292.071 435.125 267.38 435.125 267.38L418.957 268.382Z" fill="#6BAA66"/>
<path d="M418.957 268.382C418.957 268.382 419.535 275.608 420.215 284.294L432.888 304.367C432.903 304.178 432.918 303.988 432.931 303.799C433.788 292.073 435.125 267.382 435.125 267.382L418.957 268.382Z" fill="#396035"/>
<path d="M421.599 269.24C421.599 269.24 432.027 295.409 438.884 307.706C445.74 320.003 447.882 323.435 447.882 323.435C447.882 323.435 451.811 321.862 452.168 320.79C452.168 320.79 449.547 297.049 444.955 291.261C442.359 287.991 439.312 278.178 439.169 274.745C439.025 271.312 438.24 264.522 438.24 264.522L421.599 269.24Z" fill="#6BAA66"/>
<path d="M389.435 255.047C389.435 255.047 386.607 254.399 386.13 254.433C385.654 254.467 383.99 255.165 383.968 255.297C383.946 255.429 384.024 255.543 384.312 255.562C384.6 255.581 385.547 255.46 385.482 255.575C385.418 255.691 382.694 256.226 382.665 256.776C382.635 257.327 384.128 258.348 385.392 258.415C386.656 258.482 389.137 257.015 389.35 256.996C391.16 256.839 389.435 255.047 389.435 255.047Z" fill="#FFB27D"/>
<path d="M388.225 255.766C387.819 254.473 387.914 254.268 387.914 254.268C387.914 254.268 399.38 248.061 400.429 247.432C401.478 246.802 413.334 234.181 413.334 234.181L425.476 237.526C425.476 237.526 406.695 251.847 404.003 253.389C399.556 255.937 389.255 257.38 389.255 257.38C388.779 256.939 388.424 256.383 388.225 255.766V255.766Z" fill="#E58638"/>
<path d="M417.005 228.044C417.005 228.044 412.751 235.537 408.592 236.516C408.592 236.516 408.764 233.998 409.777 232.276C409.363 231.787 408.999 231.337 408.683 230.934C408.13 230.241 407.615 229.518 407.139 228.77L408.549 224.971L409.508 222.394C409.929 223.164 410.43 223.888 411.004 224.552C413.73 227.689 417.005 228.044 417.005 228.044Z" fill="#FFB27D"/>
<path d="M411.004 224.552C411.004 224.552 411.512 228.309 408.683 230.935C408.13 230.241 407.615 229.518 407.139 228.77L408.549 224.971C410.063 224.516 411.004 224.552 411.004 224.552Z" fill="#ED975D"/>
<path d="M406.019 229.324C406.019 229.324 412.377 226.843 410.772 222.903C409.167 218.964 408.908 215.991 404.774 217.409C400.64 218.826 400.476 220.65 400.691 222.095C400.906 223.54 404.323 229.867 406.019 229.324Z" fill="#FFB27D"/>
<path d="M438.857 266.499C436.293 270.189 417.12 275.121 417.352 272.566C417.506 270.89 417.506 269.204 417.352 267.528C417.304 266.981 417.237 266.4 417.149 265.787C416.662 262.43 415.504 258.113 412.924 253.118C412.729 252.743 412.527 252.365 412.32 251.985C411.268 250.069 410.379 248.069 409.662 246.005C408.333 242.162 407.798 238.485 408.468 236.082C408.468 236.07 408.468 236.059 408.478 236.048C412.486 234.193 414.037 226.998 414.037 226.998C414.037 226.998 427.71 229.455 435.37 247.7C435.364 247.7 441.088 263.287 438.857 266.499Z" fill="#EE9849"/>
<path d="M417.343 267.528C417.296 266.981 417.228 266.4 417.14 265.787C416.653 262.43 415.496 258.113 412.915 253.118C413.354 250.429 413.97 248.193 414.641 247.187C417.368 243.095 418.957 242.455 418.957 242.455C418.957 242.455 423.046 259.721 417.343 267.528Z" fill="#E58638"/>
<path d="M395.79 263.42C395.79 263.42 392.007 263.618 391.421 263.83C390.834 264.043 388.994 265.513 389.014 265.69C389.035 265.867 389.172 265.983 389.541 265.899C389.909 265.816 391.055 265.328 391.02 265.494C390.985 265.659 387.752 267.31 387.91 268.01C388.068 268.71 390.31 269.46 391.92 269.093C393.529 268.727 396.124 265.996 396.384 265.897C398.595 265.052 395.79 263.42 395.79 263.42Z" fill="#FFB27D"/>
<path d="M395.076 264.856C394.318 263.63 394.866 263.072 394.866 263.072C394.866 263.072 406.55 253.913 407.466 252.988C408.382 252.062 412.624 237.33 412.624 237.33C412.624 237.33 414.087 231.368 417.504 230.711C420.476 230.139 422.529 231.611 423.874 233.336C424.653 234.345 425.111 235.564 425.187 236.837C425.264 238.109 424.955 239.375 424.303 240.47C421.32 245.503 415.301 255.492 413.544 257.198C409.632 260.997 396.545 266.306 396.545 266.306C395.951 265.941 395.448 265.445 395.076 264.856V264.856Z" fill="#EE9849"/>
<path d="M411.683 215.583C411.727 215.495 411.857 215.401 412.172 215.304C411.964 215.244 411.744 215.236 411.533 215.281C411.354 214.842 410.92 214.102 410.106 214.096C410.25 214.14 410.382 214.215 410.492 214.316C410.603 214.418 410.689 214.543 410.745 214.682C409.631 213.973 407.564 213.768 402.407 215.489C395.606 217.756 399.004 221.708 400.034 222.025C401.064 222.341 402.96 220.308 404.668 220.03C406.377 219.752 407.302 222.133 407.948 222.331C408.595 222.529 408.229 221.987 408.911 221.443C409.593 220.9 409.983 222.176 409.969 223.073C409.954 223.971 411.285 224.819 411.285 224.819L412.065 223.388C412.843 221.957 412.631 216.764 411.887 215.829C411.815 215.754 411.751 215.67 411.683 215.583Z" fill="#6BAA66"/>
<path d="M523.376 410.279H139.412C139.133 410.279 138.906 410.506 138.906 410.786V411.147C138.906 411.427 139.133 411.654 139.412 411.654H523.376C523.656 411.654 523.882 411.427 523.882 411.147V410.786C523.882 410.506 523.656 410.279 523.376 410.279Z" fill="#2E3552"/>
<path d="M304.193 396.776V404.481L285.977 396.776H304.193Z" fill="#4271BC"/>
<path d="M460.095 331.065H399.849V410.279H460.095V331.065Z" fill="#4A75CB"/>
<path d="M441.519 331.066H381.272V410.28H441.519V331.066Z" fill="#8FCE89"/>
<path d="M460.096 331.066V342.911L441.52 331.066H460.096Z" fill="#4271BC"/>
</svg>
