<svg width="28" height="28" viewBox="0 0 28 28" fill="none" xmlns="http://www.w3.org/2000/svg">
<g opacity="0.5" clip-path="url(#clip0_506_24395)">
<path d="M26.068 3.87062H24.5039L23.0313 0.554531C22.8815 0.217328 22.5472 0 22.1782 0H5.82116C5.45218 0 5.11788 0.217328 4.96814 0.554531L3.49546 3.87062H1.9314C1.41597 3.87062 0.998047 4.28848 0.998047 4.80397C0.998047 5.31945 1.41591 5.73732 1.9314 5.73732H3.23821L4.89065 27.1385C4.92811 27.6247 5.33362 28.0001 5.82116 28.0001H22.1783C22.6659 28.0001 23.0714 27.6247 23.1089 27.1385L24.7613 5.73732H26.0681C26.5835 5.73732 27.0015 5.31945 27.0015 4.80397C27.0015 4.28848 26.5835 3.87062 26.068 3.87062ZM6.42786 1.86665H21.5715L22.4615 3.87056H5.53793L6.42786 1.86665ZM21.3142 26.1334H6.68516L5.11033 5.73727H22.889L21.3142 26.1334Z" fill="#6DC400"/>
<path d="M13.9998 8.89551C13.4843 8.89551 13.0664 9.31338 13.0664 9.82886V22.042C13.0664 22.5574 13.4843 22.9754 13.9998 22.9754C14.5152 22.9754 14.9331 22.5575 14.9331 22.042V9.82886C14.9331 9.31338 14.5152 8.89551 13.9998 8.89551Z" fill="#6DC400"/>
<path d="M9.94702 8.89551C9.43159 8.89551 9.01367 9.31338 9.01367 9.82886V22.042C9.01367 22.5574 9.43148 22.9754 9.94702 22.9754C10.4625 22.9754 10.8804 22.5575 10.8804 22.042V9.82886C10.8803 9.31338 10.4625 8.89551 9.94702 8.89551Z" fill="#6DC400"/>
<path d="M18.0544 8.89551C17.539 8.89551 17.1211 9.31338 17.1211 9.82886V22.042C17.1211 22.5574 17.539 22.9754 18.0544 22.9754C18.5699 22.9754 18.9878 22.5575 18.9878 22.042V9.82886C18.9878 9.31338 18.5699 8.89551 18.0544 8.89551Z" fill="#6DC400"/>
</g>
<defs>
<clipPath id="clip0_506_24395">
<rect width="28" height="28" fill="white"/>
</clipPath>
</defs>
</svg>
