<svg xmlns="http://www.w3.org/2000/svg" width="96" height="94" fill="none" viewBox="0 0 96 94">
  <circle cx="42" cy="40" r="54" fill="#6DC400"/>
  <g clip-path="url(#a)">
    <path fill="#fff" d="M63.912 37.88c-.125-.044-.26-.072-.393-.1.437-.85.482-2.009.27-2.833-.19-.733-.659-1.25-1.253-1.572 6.321-5.26-2.868-14.9-8.245-8.973-1.102-3.306-5.545-3.139-6.616.27-1.467-1.232-3.558-1.024-3.91.683-1.118-1.353-3.034-1.866-4.643-.602-.4.314-.727.68-1.02 1.065a.267.267 0 0 0-.095.127c-1.248 1.736-1.48 4.038-.883 6.108-1.55-.103-3.136.418-3.84 1.942-.429.925-.108 1.703.517 2.18-.36-.002-.72-.011-1.081-.007-.5.007-.946.42-.935.935.07 3.07-.236 6.127-.266 9.196-.481.063-.948.152-1.453.124.013-2.701.063-5.422-.083-8.115-.025-.45-.382-.915-.878-.878-1.154.087-2.323.042-3.483-.029.025-.5.053-.998.059-1.503.004-.367-.279-.826-.671-.881-3.285-.469-6.582-.197-9.883-.065-.418.017-.804.276-.912.695-.29 1.12-.525 2.615.963 2.87a.85.85 0 0 0 .324-.011.37.37 0 0 0 .036.225c.516 1.003 2.119 1.047 3.073 1.236 1.955.386 3.94.625 5.915.882.341.045.77-.29.823-.627.092-.574.146-1.146.197-1.719.893.126 1.791.231 2.658.46-.118 2.747-.06 5.517-.056 8.262a.97.97 0 0 0 .702.923c.74.229 1.758.371 2.647.21-1.206 4.72-2.455 9.422-3.194 14.244-.092.598.143 1.142.755 1.331 2.312.715 4.421-.747 6.18-2.102 2.416-1.862 4.931-4.05 7.055-6.238a.837.837 0 0 0 .198-.376c.209.072.421.158.628.22.866.26 1.297-.938.592-1.404-1.655-1.095-3.627-1.83-5.39-2.754-1.953-1.022-3.734-2.246-5.439-3.64.077-.092.16-.178.22-.291a.706.706 0 0 0-.1-.84c.077-1.49.175-2.976.298-4.465.233-2.793-.202-4.058 3.034-3.96 4.836.148 9.656.994 14.46 1.52 3.637.4 7.21.482 10.854.2 5.004-.39-1.05 5.982-2.853 7.86-1.421-1.034-3.134-1.316-5.015-.379-.259.129-.371.376-.371.628-4.964-.946-9.246 4.386-9.823 9.135-.842 6.921 4.907 11.913 11.768 10.774 8.98-1.49 8.904-13.525 4.89-18.726 2.376-2.314 9.15-9.284 3.668-11.215Zm-46.813.415c-.194-.033-.927.02-1.067-.058-.032-.017-.061-.009-.092-.017.172-.247.187-.599-.065-.9a1.615 1.615 0 0 1-.037-.476c.054 0 .109-.003.164-.004.286.295.578.585.873.871.216.21.438.433.669.647-.148-.022-.297-.038-.445-.063Zm2.591.336-.695-.082c-.437-.54-1.023-.956-1.538-1.42-.114-.103-.225-.21-.338-.316.268-.008.535-.02.802-.031.676.626 1.396 1.312 2.162 1.891-.13-.015-.262-.026-.393-.042Zm1.973.208c-.45-.309-.915-.599-1.363-.901a33.103 33.103 0 0 1-1.62-1.186c.462-.02.924-.039 1.386-.055.808.806 1.694 1.57 2.631 2.251l-1.034-.109Zm2.096-.143c-.873-.688-1.775-1.338-2.648-2.026.423-.008.846-.008 1.269-.002.51.307.978.646 1.422 1.02-.015.336-.02.672-.043 1.008Zm16.812 15.752c-1.388.8-2.551 2.092-3.703 3.154-1.448 1.334-3.977 4.199-6.294 4.347.678-4.399 1.65-8.748 2-13.187 2.114 2.236 5.046 4.33 7.997 5.686Zm22.17-26.37c-.557-.423-1.15-.814-1.672-1.23a27.967 27.967 0 0 1-2.747-2.514c2.095-.054 4.064 1.631 4.42 3.743Zm-5.296-3.61a.402.402 0 0 0 .072.128c.894 1.043 1.87 1.995 2.898 2.905.718.635 1.488 1.383 2.33 1.911a4.135 4.135 0 0 1-.158.644c-1.009-.793-2.115-1.476-3.096-2.313-1.05-.895-2.004-1.898-2.908-2.94a3.85 3.85 0 0 1 .862-.335Zm-1.519.776a34.136 34.136 0 0 0 3.277 3.472c.88.81 1.871 1.69 2.956 2.266-.082.135-.172.27-.271.404-2.365-1.753-4.831-3.117-6.64-5.478.218-.256.445-.475.678-.665Zm-1.525 1.914c.129-.241.264-.462.404-.669 1.616 2.288 3.994 4.357 6.48 5.581a7.343 7.343 0 0 1-.793.692c-.067.05-.107.11-.155.168-1.597-1.282-3.31-2.438-4.865-3.777a45.809 45.809 0 0 1-1.76-1.606c.276-.005.548-.126.689-.39Zm-1.54-.447a97.65 97.65 0 0 1-2.726-2.836c1.291-.86 3.042.049 2.726 2.836Zm-3.365-2.202c1.345 1.69 2.881 3.431 4.558 5.04-1.695-1.335-3.375-2.686-5.005-4.107.113-.364.267-.674.447-.933ZM35.82 36.219c-.022-.026-.033-.056-.07-.075-.872-.448-1.8-.97-1.036-1.899.626.746 1.318 1.464 2.105 2.036-.333-.018-.665-.05-1-.062Zm1.988.123c-.95-.806-1.873-1.563-2.714-2.462.168-.122.351-.207.54-.273 1.308.993 2.616 2.156 4.106 2.888-.644-.053-1.287-.112-1.932-.153Zm3.093.245a.253.253 0 0 0-.1-.184c-1.432-1.014-2.922-1.96-4.38-2.944.558-.023 1.136.091 1.645.262a.624.624 0 0 0 .644-.121c.418.451.883.869 1.356 1.271.683.58 1.43 1.248 2.21 1.857-.459-.046-.916-.1-1.375-.141Zm3.236.332c-.788-.743-1.843-1.325-2.66-1.928-.852-.627-1.779-1.33-2.515-2.163a.806.806 0 0 0-.059-.196 6.453 6.453 0 0 1-.592-2.738c2.026 2.776 4.986 5.636 8.062 7.257-.745-.08-1.492-.153-2.236-.232Zm3.916.406a.305.305 0 0 0-.115-.258c-1.61-1.27-3.395-2.286-4.996-3.585a28.657 28.657 0 0 1-4.535-4.633c.088-.462.239-.911.444-1.341 1.37 2.093 3.093 3.94 4.89 5.675 1.587 1.532 3.51 3.26 5.593 4.274l-1.281-.132Zm3.16.324a.414.414 0 0 0-.197-.443c-4.496-2.648-8.777-5.997-11.817-10.31.088-.131.174-.264.275-.39.217-.27.475-.5.763-.674.371 2.291 3.32 4.616 4.78 6 1.507 1.426 3.087 2.777 4.66 4.13.612.526 1.237 1.142 1.891 1.72l-.356-.033Zm2.65.238c-1.643-2.112-4.525-3.806-6.477-5.47-2.438-2.08-4.685-4.207-6.478-6.848.129-.028.256-.058.392-.061 1.142-.029 1.678 1.52 2.203 2.273.294.42.788.355 1.024.042 1.276 1.968 3.135 3.558 4.923 5.032 2.304 1.902 4.835 3.881 7.53 5.19a45.712 45.712 0 0 1-3.117-.158Zm5.385.097c-.568.045-1.14.06-1.712.063.32-.16.505-.566.16-.856-4.382-3.67-9.526-5.893-13.076-10.574-.076-.7.27-.952 1.04-.753 1.836 2.328 4.093 4.293 6.362 6.186 2.455 2.048 5.124 4.433 7.99 5.847.003.002.007.002.01.003-.27.034-.532.065-.774.084Zm2.472-.279c-.44.034-.883.09-1.307.146.152-.12.214-.344.036-.521-2.075-2.067-4.78-3.6-7.116-5.366a59.564 59.564 0 0 1-6.326-5.525c.149.08.294.153.457.247a.708.708 0 0 0 1.384-.187c.007-.096.026-.18.038-.272 1.973 1.976 4.128 3.765 6.295 5.522 2.224 1.802 4.336 3.885 6.714 5.48a3.122 3.122 0 0 0-.175.476Zm.548-1.301c-.78-.925-1.687-1.746-2.635-2.52.429.254.858.508 1.293.723.288.143.602-.047.681-.297.422.245.73.63.792 1.199.035.33-.029.62-.13.895Zm-2.315 15.713c-1.065-1.222-2.348-2.236-3.681-3.163 1.642.477 2.87 1.645 3.681 3.163Zm-4.82-2.818a.335.335 0 0 0 .271-.129c.013.013.02.029.037.04 1.41 1.071 2.642 2.28 3.89 3.512a70.15 70.15 0 0 0-5.208-3.409c.332-.02.668-.027 1.01-.014Zm-4.673.945c1.363.968 2.74 1.918 4.119 2.862a2.887 2.887 0 0 0-.542-.01c-.035-.012-.07-.025-.11-.028-.417-.028-.81.01-1.181.093-1.217-.693-2.422-1.383-3.603-2.136a8.909 8.909 0 0 1 1.317-.78Zm5.753 6.243c.54 1.646-.393 3.22-2.13 3.411-1.754.194-2.994-.91-2.987-2.655.005-1.087.547-1.986 1.347-2.596a.59.59 0 0 0 .52.248c1.593-.147 2.675-.16 3.25 1.592Zm-7.505-5.117c1.03.72 2.065 1.509 3.185 2.09a4.03 4.03 0 0 0-1.307 1.02c-.478-.267-.96-.528-1.419-.828a23.7 23.7 0 0 1-1.605-1.177 8.67 8.67 0 0 1 1.146-1.105Zm-1.443 1.446c.891.805 1.87 1.664 2.932 2.203a4.665 4.665 0 0 0-.45.936c-1.051-.696-2.138-1.34-3.158-2.091a8.41 8.41 0 0 1 .676-1.048Zm-.926 1.558c.996.839 2.073 1.672 3.217 2.3-.046.26-.081.522-.086.793-.01.513.066.984.212 1.41-1.316-1.124-2.47-2.339-3.685-3.66.099-.29.216-.57.342-.843Zm-.847 3.952c1.238 1.512 2.696 2.81 4.256 4.026.285.223.584.452.887.681-.07-.04-.145-.08-.213-.122-1.695-1.03-3.286-2.142-4.44-3.782a.288.288 0 0 0-.441-.053 10.389 10.389 0 0 1-.049-.75Zm7.69 7.74c-.812-.764-2.074-1.29-2.981-1.868-.246-.157-3.08-2.23-3.016-2.263.01-.006.003-.022-.008-.019-.747.194.972 1.539 1.083 1.622a60.74 60.74 0 0 0 2.724 1.92c.189.128.382.27.578.413-3.028-.683-5.402-3.063-5.953-6.232.749 1.342 2.026 2.322 3.25 3.212 1.437 1.047 3.034 2.245 4.63 3.028.4.196.781-.278.475-.615-.058-.063-.133-.113-.194-.174.548.292 1.106.54 1.668.73a8.628 8.628 0 0 1-2.257.247Zm3.358-.595a.468.468 0 0 0-.207-.335c-1.712-1.146-3.667-1.952-5.409-3.086-1.974-1.287-3.84-2.82-5.399-4.605.038-.444.114-.868.206-1.282.823 1.574 2.643 2.914 3.879 3.857 2.42 1.846 4.979 3.58 7.627 5.1a6.109 6.109 0 0 1-.697.35Zm1.428-.844c-1.43-1.105-2.968-2.07-4.497-3.04a5.4 5.4 0 0 0 .938-.008 4.12 4.12 0 0 0 1.265-.342c.843.986 1.934 2.015 3.134 2.593-.26.287-.535.559-.84.797Zm1.343-1.404c-.405-.252-.82-.49-1.223-.746-.676-.432-1.274-.963-1.836-1.532.391-.256.718-.58.987-.95.285.222.574.44.874.646.602.414 1.28.968 1.99 1.222-.228.48-.486.94-.792 1.36Zm1.056-2.01c-.415-.37-.94-.62-1.418-.907a18.01 18.01 0 0 1-1.355-.898 4.46 4.46 0 0 0 .305-.819c.653.311 1.256.698 1.85 1.11.296.205.594.457.908.669-.086.286-.183.57-.29.846Zm.515-1.726c-.258-.15-.52-.292-.755-.436-.647-.4-1.308-.765-2.022-1.034a.286.286 0 0 0-.085-.012 5.099 5.099 0 0 0-.05-1.766 3.78 3.78 0 0 0-.348-.94c1.139.868 2.286 1.748 3.492 2.464-.031.583-.111 1.16-.232 1.724Zm.03-4.65c.09.45.153.91.188 1.375-1.316-1.114-2.873-2.03-4.267-2.949-1.755-1.158-3.525-2.294-5.277-3.456a9.9 9.9 0 0 1 1.48-.363c2.657 1.641 5.033 4.085 7.877 5.393Z"/>
  </g>
  <defs>
    <clipPath id="a">
      <path fill="#fff" d="M0 0h52v52H0z" transform="translate(14 19)"/>
    </clipPath>
  </defs>
</svg>
