<svg xmlns="http://www.w3.org/2000/svg" width="96" height="94" fill="none" viewBox="0 0 96 94">
  <circle cx="42" cy="40" r="54" fill="#6DC400"/>
  <path fill="#fff" stroke="#fff" stroke-width=".7" d="m69.027 41.156-.02-.04-.03-.034-2.708-3.048-.002-.003-1.354-1.496-1.354-1.497-.005-.005-2.764-2.938-.002-.003c-.478-.496-.927-.98-1.379-1.465-.451-.485-.904-.972-1.386-1.473l-.007-.007-1.438-1.413-1.439-1.414-2.873-2.823a106.87 106.87 0 0 1-.192-.2c-.843-.884-1.791-1.88-3.047-2.576l-.007-.005-.008-.004-.011-.005a8.301 8.301 0 0 0-1.05-.457c-.092-.03-.197-.059-.292-.086l-.005-.001a6.619 6.619 0 0 1-.267-.079 1.955 1.955 0 0 0-.298-.067l-.008-.001a1.349 1.349 0 0 1-.202-.043l-.04-.013-.042-.003c-.749-.057-1.464-.059-2.243.117-1.467.29-2.75.923-3.906 1.717-1.154.794-2.187 1.754-3.15 2.7-.483.475-.951.963-1.415 1.447l-.002.001a68.02 68.02 0 0 1-1.403 1.434c-.96.944-1.912 1.879-2.919 2.758a69.362 69.362 0 0 0-1.977 1.819c-.324.306-.645.61-.964.904l-.002.002-2.934 2.772-2.934 2.772-.004.004-1.439 1.414-1.438 1.413-.105.103v.147a.543.543 0 0 1-.018.15l-.003.013a.847.847 0 0 0-.036.225v.058l.019.055a.655.655 0 0 0 .275.359c.133.081.276.1.395.1h.042l.041-.01c.663-.163 1.265-.27 1.92-.324.68-.056 1.342-.11 2.002-.11v-.11.11h.027a.44.44 0 0 0 .156-.042.4.4 0 0 0 .224-.363v-.002c0-.009 0-.04-.003-.07a.374.374 0 0 0-.11-.226.376.376 0 0 0-.264-.107 13.077 13.077 0 0 0-2.117-.167h-.18a490.532 490.532 0 0 0 4.642-4.099c1.023-.893 1.988-1.841 2.944-2.78l.004-.005.003-.003c.957-.94 1.922-1.888 2.832-2.894l1.354-1.497 1.354-1.496c.306-.338.603-.674.899-1.008.585-.66 1.165-1.315 1.798-1.974.953-.937 1.888-1.8 2.98-2.498 1.096-.645 2.288-1.121 3.522-1.28.6-.054 1.24-.052 1.819.051l.03.006h.045a.658.658 0 0 1 .129.024.98.98 0 0 1 .154.05l.023.012.023.007c.053.018.1.03.137.04h.002c.039.01.06.016.08.023.027.009.032.013.04.02l.05.05.067.027c.25.098.507.248.793.417.921.572 1.67 1.405 2.483 2.309l.259.287.01.01 2.82 2.883.005.004c.475.467.937.949 1.403 1.434l.002.002c.463.483.931.97 1.413 1.445l2.819 2.88.002.002 2.82 2.827.003.002.006.006.005.005.006.006.006.006.005.005.006.005.006.006.005.006.045.044.045.044.045.044.011.011.006.006.005.005.006.006.006.005.005.006.006.005.011.011.006.006.005.005.023.022.045.045.011.01.006.006.005.006.006.005.005.006.012.01.005.006.006.006.006.005.005.006.006.005.006.006.01.011.023.022.006.006.005.005.012.011.005.006.006.005.011.011.023.022.005.006.006.005.005.006.006.005.023.023.09.088.09.088.09.088.044.045.012.01.01.012.023.022.023.022.005.005.006.006.006.005.005.006.045.044.006.006.005.005.006.006.006.005.022.022.006.006.005.005.006.006.006.005.005.006.006.005.011.012.011.01.006.006.005.006.023.022.011.01.012.012.022.022.09.088.18.177.18.177.09.088.044.044.012.011.01.011.007.006.005.005.006.006.005.005.023.022.005.006.006.005.011.011.006.006.005.005.006.006.006.006.022.022.006.005.006.006.01.01.012.012.006.005.005.006.006.005.005.006.006.005.006.006.022.022.045.044.023.022.022.022.006.006.005.005.006.006.005.005.012.012.011.01.006.006.005.006.006.005.006.006.005.005.006.006.005.005.006.006.045.044.045.044.011.011.011.011.006.006.006.005.005.006.006.005.011.011.011.011.012.011.005.006.006.005.022.023.011.01.006.006.006.006.005.005.006.006.006.005.005.006.011.01.012.012.005.005.006.006.006.005.005.006.006.005.005.006.012.01.022.023.023.022.022.022.011.011.006.006.006.005.01.011.012.011.006.006.005.005.006.006.005.005.09.089.045.044.045.044.045.044.045.044.003.003 1.74 1.67h-.03c-.42 0-.856.06-1.24.113-.155.021-.301.041-.435.056l-.12.013-.087.085-.056.056-.105.102v.147a.405.405 0 0 0 .38.405h.025v-.347.348h.017l.018-.002a7.72 7.72 0 0 1 1.565 0h.002l.06.007c.498.054.998.108 1.445.255l.053.017h.06c.028 0 .094 0 .165-.012a.587.587 0 0 0 .233-.087c.144-.063.295-.156.375-.314a.522.522 0 0 0-.014-.484Zm-44.428.73v-.208.208Z"/>
  <mask id="a" width="37" height="28" x="26.575" y="39.273" fill="#000" maskUnits="userSpaceOnUse">
    <path fill="#fff" d="M26.575 39.273h37v28h-37z"/>
    <path d="M62.275 52.72c-.056-1.841-.056-3.572-.112-5.079-.057-1.507-.057-2.847-.113-3.907-.113-2.177-.17-3.406-.17-3.406s0-.055-.056-.055-.056 0-.056.055c0 0-.056 1.229-.17 3.406a260.8 260.8 0 0 0-.168 3.907 770.488 770.488 0 0 0-.17 5.08c-.056 1.842-.056 3.852-.112 6.029-.057 1.06.056 2.177-.17 3.126-.225.949-.789 1.73-1.747 2.12-.903.392-2.087.503-3.27.503-1.185 0-2.425.056-3.666.112-2.48.111-4.961.279-7.442.279-2.481-.056-5.018-.28-7.5-.335-1.24 0-2.48.056-3.664.167-1.184.112-2.425.224-3.44-.167a2.674 2.674 0 0 1-.676-.39l-.17-.168s-.056-.112-.112-.112c-.113-.111-.17-.167-.226-.279-.281-.39-.394-.949-.507-1.451-.056-.503-.056-1.06-.056-1.563 0-.559 0-1.06.056-1.62.056-2.12 0-4.13 0-6.028-.056-3.74-.113-6.81-.226-8.987-.056-1.06-.112-1.954-.112-2.512-.057-.558-.057-.893-.057-.893s0-.056-.056-.056-.056 0-.056.056c0 0 0 .335-.057.893-.056.558-.056 1.451-.113 2.512a251.685 251.685 0 0 0-.282 8.987c0 1.842-.056 3.852 0 6.029v1.619c0 .558.057 1.116.17 1.73.112.558.338 1.172.733 1.73.112.112.225.28.338.391l.17.168.168.111c.282.168.564.335.902.447 1.24.39 2.481.112 3.665 0 1.184-.167 2.425-.223 3.609-.223 1.24 0 2.48.111 3.721.223 1.24.112 2.481.28 3.721.39 1.24.112 2.538.112 3.778.168 1.24 0 2.481 0 3.721-.056 1.24 0 2.425-.055 3.665 0 1.24 0 2.481-.055 3.722-.502a3.707 3.707 0 0 0 1.635-1.172l.056-.112.057-.056.056-.056c.056-.055.056-.111.113-.167.113-.167.169-.335.225-.447.113-.279.226-.614.282-.893.282-1.228.17-2.344.17-3.405.112-2.233.056-4.298 0-6.14Z"/>
  </mask>
  <path fill="#fff" d="M62.275 52.72c-.056-1.841-.056-3.572-.112-5.079-.057-1.507-.057-2.847-.113-3.907-.113-2.177-.17-3.406-.17-3.406s0-.055-.056-.055-.056 0-.056.055c0 0-.056 1.229-.17 3.406a260.8 260.8 0 0 0-.168 3.907 770.488 770.488 0 0 0-.17 5.08c-.056 1.842-.056 3.852-.112 6.029-.057 1.06.056 2.177-.17 3.126-.225.949-.789 1.73-1.747 2.12-.903.392-2.087.503-3.27.503-1.185 0-2.425.056-3.666.112-2.48.111-4.961.279-7.442.279-2.481-.056-5.018-.28-7.5-.335-1.24 0-2.48.056-3.664.167-1.184.112-2.425.224-3.44-.167a2.674 2.674 0 0 1-.676-.39l-.17-.168s-.056-.112-.112-.112c-.113-.111-.17-.167-.226-.279-.281-.39-.394-.949-.507-1.451-.056-.503-.056-1.06-.056-1.563 0-.559 0-1.06.056-1.62.056-2.12 0-4.13 0-6.028-.056-3.74-.113-6.81-.226-8.987-.056-1.06-.112-1.954-.112-2.512-.057-.558-.057-.893-.057-.893s0-.056-.056-.056-.056 0-.056.056c0 0 0 .335-.057.893-.056.558-.056 1.451-.113 2.512a251.685 251.685 0 0 0-.282 8.987c0 1.842-.056 3.852 0 6.029v1.619c0 .558.057 1.116.17 1.73.112.558.338 1.172.733 1.73.112.112.225.28.338.391l.17.168.168.111c.282.168.564.335.902.447 1.24.39 2.481.112 3.665 0 1.184-.167 2.425-.223 3.609-.223 1.24 0 2.48.111 3.721.223 1.24.112 2.481.28 3.721.39 1.24.112 2.538.112 3.778.168 1.24 0 2.481 0 3.721-.056 1.24 0 2.425-.055 3.665 0 1.24 0 2.481-.055 3.722-.502a3.707 3.707 0 0 0 1.635-1.172l.056-.112.057-.056.056-.056c.056-.055.056-.111.113-.167.113-.167.169-.335.225-.447.113-.279.226-.614.282-.893.282-1.228.17-2.344.17-3.405.112-2.233.056-4.298 0-6.14Z"/>
  <path fill="#fff" d="m62.05 43.734-.7.036.7-.036Zm-.17-3.406h-.7v.017l.001.016.7-.032Zm-.112 0 .7.033v-.033h-.7Zm-.17 3.406.7.037v-.001l-.7-.036Zm-.45 15.016.699.037v-.02l-.7-.017Zm-1.917 5.247-.265-.648-.007.002-.007.004.279.642Zm-14.378.893-.016.7h.016v-.7Zm-7.5-.335.017-.7h-.016v.7Zm-7.104 0-.257.65.006.003.252-.653Zm-.676-.39-.492.497.035.035.04.03.417-.563Zm-.17-.168-.624.315.051.102.081.08.493-.497Zm-.112-.112-.492.498.204.202h.288v-.7Zm-.226-.279.625-.316-.024-.049-.033-.044-.567.409Zm-.507-1.451-.696.078.005.038.008.037.683-.153Zm0-3.182.697.07.002-.026v-.026l-.699-.018Zm0-6.029h.7v-.01l-.7.01Zm-.226-8.987.7-.036v-.001l-.7.037Zm-.112-2.512h.7v-.035l-.004-.035-.696.07Zm-.057-.893h.7-.7Zm-.112 0h.7-.7Zm-.17 3.405-.699-.037.7.037Zm-.282 8.987-.7-.01v.01h.7Zm0 6.029h.7v-.018l-.7.018Zm.17 3.35-.689.126.003.012.686-.139Zm.733 1.73-.572.404.035.05.044.043.493-.497Zm.507.558-.492.497.049.049.058.038.385-.584Zm.17.111-.386.585.014.009.014.008.357-.602Zm.901.447-.219.665.01.003.21-.668Zm3.665 0 .066.697.016-.002.016-.002-.098-.693Zm14.83.558-.032.7h.031v-.7Zm3.72-.056v-.7h-.015l-.016.001.031.7Zm3.665 0-.031.7h.031v-.7Zm5.357-1.674.544.44.047-.058.034-.067-.625-.315Zm.056-.112.625.316-1.117-.813.492.497Zm.057-.056-.493-.497.493.497Zm.056-.056.492.498-.492-.498Zm.113-.167.492.497.05-.048.038-.058-.58-.391Zm.225-.447.625.316.013-.026.011-.027-.649-.262Zm.282-.893-.682-.156-.002.009-.002.009.686.138Zm.17-3.405-.7-.035v.035h.7Zm.699-6.161c-.055-1.786-.058-3.602-.113-5.085l-1.399.052c.057 1.531.054 3.177.113 5.075l1.399-.042Zm-.113-5.085c-.054-1.455-.057-2.866-.113-3.919l-1.398.075c.057 1.068.054 2.337.112 3.896l1.4-.052Zm-.113-3.918a841.662 841.662 0 0 1-.127-2.516l-.032-.66-.008-.168-.002-.043v-.013l-.7.032-.699.032v.003l.001.011.002.043.008.17.032.66c.028.58.07 1.433.127 2.522l1.398-.073Zm-.868-3.369h.7v-.011a.275.275 0 0 0-.002-.041.75.75 0 0 0-.08-.29.749.749 0 0 0-.675-.413v1.4a.643.643 0 0 1-.575-.357.633.633 0 0 1-.068-.276v-.01c0-.001 0-.002.7-.002Zm-.057-.755h-.032a.725.725 0 0 0-.51.21.725.725 0 0 0-.214.513v.032h1.4c0-.03 0 .006-.004.046-.004.036-.025.233-.197.403a.664.664 0 0 1-.399.192c-.04.005-.075.004-.044.004v-1.4Zm-.056.755-.7-.032v.014l-.002.043-.008.168-.032.66c-.028.578-.07 1.429-.126 2.516l1.398.073a850.161 850.161 0 0 0 .158-3.183l.008-.169.003-.043v-.014l-.7-.032Zm-.868 3.368c-.057 1.067-.114 2.41-.17 3.919l1.4.052c.055-1.506.112-2.841.168-3.896l-1.398-.075Zm-.17 3.919a852.3 852.3 0 0 0-.17 5.084l1.4.043c.056-1.841.113-3.57.17-5.075l-1.4-.052Zm-.17 5.084c-.055 1.817-.057 3.908-.112 6.032l1.4.037c.057-2.23.055-4.158.112-6.026l-1.4-.042Zm-.111 6.013c-.03.547-.016 1.142-.022 1.633-.007.52-.035.972-.13 1.369l1.363.323c.13-.552.16-1.132.166-1.673.008-.57-.007-1.063.02-1.577l-1.397-.075Zm-.151 3.002c-.183.767-.616 1.343-1.332 1.635l.529 1.296c1.201-.49 1.896-1.477 2.165-2.608l-1.362-.323Zm-1.346 1.64c-.765.332-1.829.445-2.992.445v1.4c1.206 0 2.51-.11 3.549-.56l-.557-1.284Zm-2.992.445c-1.202 0-2.459.057-3.696.112l.063 1.4c1.244-.057 2.468-.112 3.633-.112v-1.4Zm-3.696.112c-2.502.113-4.951.279-7.411.279v1.4c2.502 0 5.014-.17 7.474-.28l-.063-1.399Zm-7.395.28c-1.227-.029-2.47-.098-3.727-.168-1.252-.07-2.518-.14-3.772-.168l-.032 1.4c1.227.027 2.47.097 3.727.166 1.252.07 2.518.14 3.772.169l.032-1.4Zm-7.515-.336a40.31 40.31 0 0 0-3.73.17l.13 1.394c1.162-.11 2.38-.164 3.6-.164v-1.4Zm-3.73.17c-1.228.116-2.29.197-3.123-.123l-.503 1.306c1.198.461 2.615.319 3.757.211l-.132-1.393Zm-3.117-.12a1.991 1.991 0 0 1-.517-.303l-.834 1.124c.25.187.475.337.836.48l.515-1.302Zm-.442-.238-.169-.168-.985.995.17.168.984-.995Zm-.661.33.625-.316-.001-.002-.002-.002a.767.767 0 0 0-.735-.492v1.4a.633.633 0 0 1-.393-.134.494.494 0 0 1-.117-.135l-.001-.002v-.001l.624-.316Zm.38-.61a4.792 4.792 0 0 1-.091-.092c-.003-.003-.002-.002 0 0 .001.003 0 .002-.003-.005l-1.25.632c.115.225.25.353.358.46l.986-.994Zm-.15-.19c-.18-.248-.267-.636-.393-1.196l-1.366.307c.1.446.238 1.174.623 1.708l1.135-.82Zm-.38-1.12c-.052-.457-.052-.974-.052-1.485h-1.4c0 .494-.001 1.092.06 1.64l1.392-.155Zm-.052-1.485c0-.563 0-1.03.052-1.549l-1.392-.14c-.06.598-.06 1.134-.06 1.689h1.4Zm.056-1.6c.056-2.132 0-4.177 0-6.048h-1.4c0 1.925.056 3.9 0 6.01l1.4.038Zm0-6.058c-.056-3.737-.113-6.82-.226-9.013l-1.399.072c.112 2.162.169 5.218.225 8.962l1.4-.021Zm-.226-9.014c-.058-1.08-.112-1.941-.112-2.475h-1.4c0 .583.058 1.507.114 2.55l1.398-.075Zm-.116-2.545a11.372 11.372 0 0 1-.053-.815v-.01h-1.4v.008a.93.93 0 0 0 .001.07 12.837 12.837 0 0 0 .059.887l1.393-.141Zm-.753-.823h.7v-.024a.53.53 0 0 0-.01-.101.769.769 0 0 0-.328-.507.758.758 0 0 0-.418-.124v1.4a.643.643 0 0 1-.575-.356.63.63 0 0 1-.068-.265v-.022l.7-.001Zm-.056-.756h-.033a.725.725 0 0 0-.723.723v.033h1.4c0-.031 0 .005-.004.046-.004.036-.025.233-.197.402-.17.169-.365.189-.4.193-.039.004-.074.003-.043.003v-1.4Zm-.056.756h-.7v-.001.009l-.001.037c0 .035-.003.089-.006.16-.006.142-.02.352-.046.618l1.393.14a12.818 12.818 0 0 0 .06-.94v-.023h-.7Zm-.753.823c-.058.572-.063 1.551-.116 2.545l1.399.074c.06-1.128.055-1.935.11-2.479l-1.393-.14Zm-.116 2.546a252.014 252.014 0 0 0-.282 9.013l1.4.02c.056-3.731.168-6.793.28-8.96l-1.398-.073Zm-.282 9.023c0 1.815-.057 3.86 0 6.047l1.4-.036c-.057-2.167 0-4.142 0-6.01h-1.4Zm0 6.029v1.619h1.4v-1.619h-1.4Zm0 1.619c0 .607.061 1.208.18 1.857l1.377-.253a8.743 8.743 0 0 1-.158-1.604h-1.4Zm.183 1.869c.128.635.386 1.344.847 1.996l1.143-.808a3.876 3.876 0 0 1-.618-1.465l-1.372.277Zm.926 2.09c.024.022.055.06.117.137.05.062.132.164.221.253l.985-.995a1.917 1.917 0 0 1-.117-.138c-.05-.062-.131-.164-.22-.253l-.986.995Zm.338.39.085.084.085.083.985-.995-.085-.083-.085-.084-.985.995Zm.276.254.17.112.77-1.169-.168-.111-.771 1.168Zm.198.13c.274.162.619.37 1.04.509l.439-1.33c-.256-.084-.475-.212-.764-.383l-.715 1.203Zm1.05.512c.73.23 1.444.257 2.103.22.616-.036 1.32-.142 1.837-.191l-.131-1.394c-.668.063-1.176.152-1.786.187-.567.032-1.094.003-1.603-.158l-.42 1.336Zm3.972.025c1.141-.161 2.347-.216 3.51-.216v-1.4c-1.203 0-2.478.056-3.706.23l.196 1.386Zm3.51-.216c1.205 0 2.414.108 3.66.22l.125-1.394c-1.235-.111-2.507-.226-3.784-.226v1.4Zm3.66.22c.61.055 1.223.124 1.845.194.619.07 1.246.14 1.876.197l.125-1.394c-.61-.055-1.223-.124-1.845-.194-.619-.07-1.247-.14-1.876-.197l-.126 1.394Zm3.72.391c1.259.113 2.616.116 3.81.17l.063-1.399c-1.287-.058-2.524-.055-3.747-.165l-.125 1.394Zm3.841.17c1.238 0 2.494 0 3.753-.056l-.063-1.399c-1.222.055-2.447.055-3.69.055v1.4Zm3.721-.056c1.286 0 2.412-.055 3.634 0l.063-1.399c-1.259-.056-2.501 0-3.697 0v1.4Zm3.665 0c1.254 0 2.598-.053 3.959-.543l-.474-1.318c-1.12.403-2.258.461-3.485.461v1.4Zm3.959-.543a4.408 4.408 0 0 0 1.942-1.391l-1.089-.88c-.37.458-.827.773-1.327.953l.474 1.318Zm2.023-1.516.056-.111-1.25-.631-.056.111 1.25.631Zm-.569-.427c-.493-.497-.497.493.493.498.004-.004-.004.003 0 0 .008-.009-.008.008 0-.001l.001-.001.002-.001.004-.004.05-.05-.986-.994-.05.049-.003.004-.002.002h-.001c-.002.003.002-.001 0 0 .99.005.985.995.492.498Zm.55.442.055-.056-.985-.995-.056.056.985.995Zm.055-.056c.118-.116.175-.237.19-.266.013-.027-.016.038-.077.099l-.985-.995c-.117.116-.174.237-.189.265-.013.028.016-.038.076-.098l.985.995Zm.201-.274c.087-.128.147-.25.19-.343.057-.125.057-.133.08-.179l-1.25-.631a2.685 2.685 0 0 0-.059.127l-.044.099a.95.95 0 0 1-.078.145l1.161.782Zm.294-.575c.122-.3.251-.68.32-1.017l-1.373-.277c-.045.22-.14.512-.245.77l1.298.524Zm.315-1c.306-1.33.187-2.583.187-3.56h-1.4c0 1.143.107 2.122-.151 3.248l1.364.313Zm.186-3.525c.115-2.265.057-4.355.001-6.197l-1.4.042c.057 1.842.112 3.882.001 6.084l1.398.07Z" mask="url(#a)"/>
  <mask id="b" width="10" height="10" x="32.064" y="42.909" fill="#000" maskUnits="userSpaceOnUse">
    <path fill="#fff" d="M32.064 42.909h10v10h-10z"/>
    <path d="M34.344 45.074c.054-.055.109-.11.163-.11.274-.111.602-.111.766-.111h.273s.055 0 .055-.056c0-.055 0-.055-.055-.055 0 0-.11-.056-.273-.111-.219-.056-.492-.167-.93-.111-.109 0-.218.055-.327.11-.11.056-.274.167-.328.278-.219.277-.274.555-.328.832-.11.5-.164 1.11-.219 1.776-.054.666-.109 1.332-.054 2.109v.555c0 .166 0 .388.054.61.055.222.055.555.328.832.055.056.055.056.055.111.054.056.054.056.11.111a.412.412 0 0 0 .218.111c.164.056.328.111.437.111.273.056.492 0 .656 0h.6c.383 0 .82 0 1.203-.055.438 0 .82-.056 1.203-.056.382 0 .82.056 1.257.056.437 0 .983-.056 1.366-.389.382-.333.546-.776.656-1.22.109-.444.054-.888.054-1.277v-1.22c0-.833.055-1.554-.054-2.331-.055-.389-.164-.888-.547-1.276-.382-.333-.874-.389-1.202-.389-.656 0-1.203.056-1.749.111-.492.056-.93.111-1.312.167-.71.11-1.147.221-1.147.221s-.055 0-.055.056 0 .056.055.056c0 0 .437.055 1.147.166.383.056.82.056 1.312.111.492.056 1.093.056 1.694.056.601.055.71.166.875.832.109.666.273 1.443.382 2.22.11.776.383 1.609.219 2.386a1.364 1.364 0 0 1-.601.943c-.274.222-.656.222-1.039.11-.382-.055-.765-.221-1.257-.277-.437-.055-.874-.11-1.257-.11-.437 0-.82-.056-1.202-.056h-.601c-.219 0-.383 0-.492-.056-.11-.055-.11-.055-.164-.055 0 0-.055-.111-.055-.222 0-.388-.054-.721-.054-1.054-.055-.722-.055-1.388-.11-2.053 0-.61-.054-1.221-.054-1.72 0-.223 0-.445.054-.556.164-.055.164-.055.274-.11Z"/>
  </mask>
  <path fill="#fff" d="M34.344 45.074c.054-.055.109-.11.163-.11.274-.111.602-.111.766-.111h.273s.055 0 .055-.056c0-.055 0-.055-.055-.055 0 0-.11-.056-.273-.111-.219-.056-.492-.167-.93-.111-.109 0-.218.055-.327.11-.11.056-.274.167-.328.278-.219.277-.274.555-.328.832-.11.5-.164 1.11-.219 1.776-.054.666-.109 1.332-.054 2.109v.555c0 .166 0 .388.054.61.055.222.055.555.328.832.055.056.055.056.055.111.054.056.054.056.11.111a.412.412 0 0 0 .218.111c.164.056.328.111.437.111.273.056.492 0 .656 0h.6c.383 0 .82 0 1.203-.055.438 0 .82-.056 1.203-.056.382 0 .82.056 1.257.056.437 0 .983-.056 1.366-.389.382-.333.546-.776.656-1.22.109-.444.054-.888.054-1.277v-1.22c0-.833.055-1.554-.054-2.331-.055-.389-.164-.888-.547-1.276-.382-.333-.874-.389-1.202-.389-.656 0-1.203.056-1.749.111-.492.056-.93.111-1.312.167-.71.11-1.147.221-1.147.221s-.055 0-.055.056 0 .056.055.056c0 0 .437.055 1.147.166.383.056.82.056 1.312.111.492.056 1.093.056 1.694.056.601.055.71.166.875.832.109.666.273 1.443.382 2.22.11.776.383 1.609.219 2.386a1.364 1.364 0 0 1-.601.943c-.274.222-.656.222-1.039.11-.382-.055-.765-.221-1.257-.277-.437-.055-.874-.11-1.257-.11-.437 0-.82-.056-1.202-.056h-.601c-.219 0-.383 0-.492-.056-.11-.055-.11-.055-.164-.055 0 0-.055-.111-.055-.222 0-.388-.054-.721-.054-1.054-.055-.722-.055-1.388-.11-2.053 0-.61-.054-1.221-.054-1.72 0-.223 0-.445.054-.556.164-.055.164-.055.274-.11Z"/>
  <path fill="#fff" d="m34.344 45.074.316.625.102-.052.08-.081-.498-.492Zm.163-.11v.7h.137l.127-.052-.264-.649Zm1.039-.111v-.7.7Zm0-.111-.317.624.15.075h.167v-.7Zm-.273-.111.224-.664-.026-.008-.026-.007-.172.678Zm-.93-.111v.7h.045l.044-.006-.088-.694Zm-.655.388.55.433.045-.058.033-.066-.628-.309Zm-.328.832.684.15.001-.007.002-.007-.687-.136Zm-.273 3.885h.7V49.6l-.002-.024-.698.049Zm.437 2.108h-.7v.287l.201.204.499-.49Zm.328.222.224-.663-.109-.037h-.115v.7Zm.437.111.14-.686-.07-.014h-.07v.7Zm2.46-.055v-.7h-.051l-.05.007.1.693Zm3.934-7.713.499-.492-.019-.019-.02-.017-.46.528Zm-2.951-.278-.07-.696h-.008l.078.696Zm-1.312.167-.1-.693-.008.001.108.692Zm-1.147.221v.7h.087l.085-.021-.172-.679Zm0 .111.088-.694-.044-.006h-.044v.7Zm1.147.167-.108.692h.008l.1-.692Zm3.006.166.064-.697-.032-.002h-.032v.7Zm.875.833.69-.114-.004-.027-.007-.026-.68.167Zm.6 4.606-.684-.145-.005.023-.003.024.693.098Zm-.6.943-.393-.58-.025.017-.024.02.442.543Zm-1.039.11.195-.671-.046-.014-.048-.007-.1.693Zm-1.257-.277-.088.695.01.001.078-.696Zm-3.716-.277-.628.31.192.39h.436v-.7Zm-.11-1.276h.7v-.027l-.001-.026-.698.053Zm-.109-2.053h-.7v.028l.003.029.697-.057Zm0-2.276-.224-.663-.275.093-.129.261.628.31Zm.772.38a1.72 1.72 0 0 1 .025-.024l-.017.014a.6.6 0 0 1-.342.108v-1.4c-.26 0-.44.127-.507.178-.074.057-.138.124-.156.142l.997.983Zm-.071.047a.88.88 0 0 1 .23-.05c.099-.01.19-.01.272-.01v-1.4c-.147 0-.61-.007-1.029.163l.527 1.297Zm.502-.06h.273v-1.4h-.274v1.4Zm.273-.7v.7h.024a.528.528 0 0 0 .101-.01.748.748 0 0 0 .63-.745h-1.4a.643.643 0 0 1 .355-.576.633.633 0 0 1 .279-.068h.01v.7Zm.755-.055v-.032a.725.725 0 0 0-.208-.507.724.724 0 0 0-.514-.216h-.033v1.4c.03 0-.006 0-.047-.004a.676.676 0 0 1-.595-.597c-.004-.04-.003-.075-.003-.044h1.4Zm-.755-.055.317-.625h-.003l-.002-.002a.647.647 0 0 0-.032-.016 2.817 2.817 0 0 0-.329-.132l-.449 1.327c.06.02.11.04.143.055l.036.016.005.002h-.002v-.001l.316-.624Zm-.101-.79c-.157-.04-.588-.203-1.19-.127l.177 1.389c.272-.035.388.024.668.095l.345-1.357Zm-1.101-.133c-.31 0-.577.153-.645.187l.634 1.249.037-.019a1.401 1.401 0 0 1 .059-.028l-.016.004a.323.323 0 0 1-.07.007v-1.4Zm-.645.187c-.091.046-.2.112-.302.193a1.2 1.2 0 0 0-.337.4l1.256.618a.403.403 0 0 1-.055.083l-.004.004.008-.006a.42.42 0 0 1 .068-.043l-.634-1.249Zm-.561.469c-.334.423-.411.856-.465 1.13l1.374.27c.055-.28.087-.403.19-.534l-1.1-.866Zm-.462 1.116c-.121.553-.178 1.212-.232 1.868l1.395.114c.055-.675.107-1.237.205-1.683l-1.368-.3Zm-.232 1.868c-.055.663-.114 1.378-.056 2.215l1.397-.098c-.05-.718-.001-1.334.054-2.003l-1.395-.114Zm-.057 2.166v.555h1.4v-.555h-1.4Zm0 .555c0 .159-.003.462.075.777l1.359-.334a1.876 1.876 0 0 1-.034-.443h-1.4Zm.075.777c.007.031.057.698.508 1.157l.998-.983a.284.284 0 0 1-.07-.135 1.485 1.485 0 0 1-.032-.145c-.009-.05-.024-.145-.045-.228l-1.36.334Zm.508 1.157c.02.019.014.014.007.006a.64.64 0 0 1-.15-.35c-.004-.034-.003-.063-.003-.037h1.4s0-.05-.004-.101a.762.762 0 0 0-.195-.441c-.023-.026-.049-.051-.057-.06l-.998.983Zm.055.11.055.056.054.056.998-.983-.055-.055-.054-.056-.998.983Zm.11.112c.096.097.206.166.29.209.063.031.227.11.427.11v-1.4a.577.577 0 0 1 .165.025.282.282 0 0 1 .064.03.366.366 0 0 1 .05.043l-.997.983Zm.492.282c.078.026.18.061.277.088.088.025.232.06.385.06v-1.4c.028 0 .042.004.034.002a4.13 4.13 0 0 1-.247-.076l-.449 1.326Zm.523.134c.218.045.408.043.552.034l.173-.015a.99.99 0 0 1 .07-.005v-1.4c-.076 0-.148.007-.197.01-.057.006-.092.01-.134.013a.69.69 0 0 1-.186-.009l-.278 1.372Zm.795.014h.6v-1.4h-.6v1.4Zm.6 0c.372 0 .862.002 1.304-.063l-.201-1.385c-.324.047-.708.048-1.102.048v1.4Zm1.203-.055c.246 0 .474-.016.67-.03.205-.014.37-.026.533-.026v-1.4c-.22 0-.438.016-.63.03a8.05 8.05 0 0 1-.573.026v1.4Zm1.203-.056c.163 0 .343.012.562.026.21.014.45.03.695.03v-1.4c-.193 0-.39-.012-.604-.026-.205-.014-.434-.03-.653-.03v1.4Zm1.257.056c.454 0 1.235-.047 1.825-.56l-.919-1.057c-.174.152-.486.217-.906.217v1.4Zm1.825-.56c.549-.478.757-1.096.876-1.582l-1.359-.335c-.099.402-.22.672-.436.86l.92 1.056Zm.876-1.582c.137-.554.075-1.169.075-1.444h-1.4c0 .502.048.775-.034 1.11l1.36.334Zm.075-1.444v-1.22h-1.4v1.219h1.4Zm0-1.22c0-.768.057-1.587-.061-2.429l-1.387.195c.1.712.048 1.336.048 2.233h1.4Zm-.061-2.429c-.06-.419-.192-1.112-.741-1.67l-.998.983c.217.22.302.524.352.882l1.387-.195Zm-.78-1.706c-.576-.502-1.28-.56-1.662-.56v1.4c.274 0 .553.051.743.216l.919-1.056Zm-1.662-.56c-.696 0-1.274.058-1.82.114l.142 1.393a15.743 15.743 0 0 1 1.678-.108v-1.4Zm-1.828.114c-.497.057-.942.113-1.333.17l.2 1.385c.374-.054.804-.108 1.29-.163l-.157-1.392Zm-1.34.171a17.157 17.157 0 0 0-1.12.213l-.066.016-.018.004-.006.001h-.002v.001l.172.678.172.679h.002a1.25 1.25 0 0 1 .064-.016l.213-.047c.188-.04.463-.092.804-.146l-.216-1.383Zm-1.04.913-.001-.7h-.011l-.013.001a.528.528 0 0 0-.1.01.748.748 0 0 0-.63.745h1.4a.644.644 0 0 1-.356.576.633.633 0 0 1-.266.068h-.022l-.001-.7Zm-.755.056a1.54 1.54 0 0 0 .005.108.724.724 0 0 0 .717.647h.033v-1.4c-.031 0 .006 0 .047.004.036.004.234.026.404.198.167.17.187.366.19.399.005.04.004.075.004.044h-1.4Zm.755.056-.089.694h.005a2.671 2.671 0 0 0 .07.01l.224.03c.195.028.478.069.83.124l.215-1.384a55.371 55.371 0 0 0-1.084-.158l-.06-.008a.55.55 0 0 0-.021-.003h-.002l-.088.694Zm1.047.859c.223.032.456.047.67.061.224.014.438.027.663.053l.157-1.392c-.266-.03-.516-.044-.73-.058a7.163 7.163 0 0 1-.56-.05l-.2 1.386Zm1.334.114c.539.06 1.183.06 1.772.06v-1.4c-.613 0-1.171-.002-1.616-.052l-.157 1.392Zm1.708.056c.14.013.204.026.234.035.018.005-.015-.002-.053-.039-.033-.032-.033-.05-.012 0 .023.056.05.146.09.307l1.36-.334c-.075-.303-.177-.703-.47-.983-.317-.305-.73-.353-1.02-.38l-.13 1.395Zm.248.25c.118.72.27 1.424.38 2.203l1.386-.195c-.109-.775-.284-1.625-.385-2.236l-1.381.227Zm.38 2.203c.03.214.071.428.11.626.038.204.075.39.103.575.057.372.07.677.014.943l1.37.29c.107-.511.066-1.012 0-1.444-.033-.218-.076-.433-.113-.629-.039-.2-.073-.382-.098-.556l-1.386.195Zm.219 2.191a.664.664 0 0 1-.3.461l.784 1.16c.48-.326.818-.828.902-1.426l-1.386-.195Zm-.35.498c-.006.004-.026.02-.091.025a.906.906 0 0 1-.31-.043l-.39 1.344c.465.135 1.135.198 1.674-.24l-.883-1.086Zm-.496-.039c-.139-.02-.28-.06-.505-.121a5.07 5.07 0 0 0-.774-.16l-.157 1.392c.19.022.365.065.565.119.184.05.426.12.67.156l.2-1.386Zm-1.27-.279c-.425-.054-.91-.116-1.345-.116v1.4c.33 0 .72.048 1.17.105l.175-1.389Zm-1.345-.116c-.19 0-.373-.013-.572-.027-.193-.013-.41-.029-.63-.029v1.4c.162 0 .328.012.532.026.197.014.424.03.67.03v-1.4Zm-1.202-.056h-.601v1.4h.6v-1.4Zm-.601 0a8.34 8.34 0 0 1-.228-.005c-.02-.001-.023-.002-.016 0a.311.311 0 0 1 .069.025l-.634 1.249c.174.088.347.112.463.122.117.01.246.009.346.009v-1.4Zm-.175.02c-.025-.012-.053-.027-.078-.038a.813.813 0 0 0-.306-.089c-.048-.005-.093-.004-.097-.004v1.4h.004l-.035-.002a.575.575 0 0 1-.132-.028c-.03-.01-.05-.02-.04-.016l.05.026.634-1.249Zm-.481.569.628-.309v.002l.002.001a.03.03 0 0 1 .001.004.19.19 0 0 1 .005.011l.002.003.003.012a.278.278 0 0 1 .004.054h-1.4a1.204 1.204 0 0 0 .117.51l.005.012.003.005v.002l.002.001v.001l.628-.309Zm.645-.222c0-.225-.016-.43-.03-.603-.013-.18-.024-.318-.024-.451h-1.4c0 .2.016.395.03.561.013.174.024.33.024.493h1.4Zm-.056-1.107c-.027-.346-.04-.68-.054-1.023a24.796 24.796 0 0 0-.056-1.035l-1.395.115c.026.316.039.635.053.976.013.338.027.697.056 1.073l1.396-.106Zm-.108-2c0-.324-.014-.645-.028-.935a17.435 17.435 0 0 1-.026-.786h-1.4c0 .27.014.566.028.852.014.292.026.582.026.869h1.4Zm-.054-1.72a4.152 4.152 0 0 1 .01-.32c.001-.008-.004.025-.028.074l-1.256-.619c-.092.188-.11.391-.118.496-.009.127-.008.264-.008.368h1.4Zm-.421.108c.072-.025.138-.047.196-.07.066-.028.121-.056.17-.08l-.634-1.249-.063.031a.715.715 0 0 1-.029.01c-.02.008-.047.017-.09.031l.45 1.327Z" mask="url(#b)"/>
  <mask id="c" width="10" height="10" x="47.617" y="42.909" fill="#000" maskUnits="userSpaceOnUse">
    <path fill="#fff" d="M47.617 42.909h10v10h-10z"/>
    <path d="M50.245 44.247c.162-.057.27 0 .27 0s.054 0 .054-.057c0-.056 0-.056-.054-.056l-.054-.056c-.054 0-.108-.056-.216-.056-.217 0-.54.056-.865.393-.325.282-.54.844-.595 1.407-.054.562-.054 1.125-.108 1.8 0 .619-.054 1.35-.054 2.081 0 .338-.054.788.162 1.294.108.281.27.506.54.731a2.8 2.8 0 0 0 .757.338c.487.056.865 0 1.243 0 .379 0 .811-.056 1.19-.056l2.431-.17c.433-.055.865-.055 1.297-.393a.665.665 0 0 0 .27-.281c.109-.113.109-.225.163-.338.054-.225.108-.45.108-.675a18.89 18.89 0 0 1 0-2.475c0-.394.054-.787.054-1.181s.054-.788-.054-1.238c-.054-.225-.108-.45-.27-.675-.055-.112-.217-.225-.27-.281a1.126 1.126 0 0 0-.325-.225c-.432-.169-.81-.169-1.135-.169-1.243 0-2.27.113-2.972.169-.703.056-1.135.169-1.135.169s-.054 0-.054.056 0 .056.054.056c0 0 .432.113 1.135.225.702.113 1.73.225 2.972.338.324 0 .595.056.757.112.054 0 .108.056.108.056.108.057.054.057.108.113s.108.169.162.337c.054.282.108.62.162 1.013l.162 1.181c.108.788.216 1.632.27 2.476 0 .225 0 .393-.108.562-.054.056-.054.169-.108.225-.054.113-.108.113-.216.169-.27.169-.702.169-1.08.112-.811-.056-1.622-.168-2.433-.168-.378 0-.81 0-1.189-.057-.378 0-.81 0-1.08-.056s-.325-.112-.433-.337a4.062 4.062 0 0 1-.108-.9c-.054-.732-.108-1.407-.108-2.082a97.872 97.872 0 0 0-.162-1.744c-.054-.45.054-.9.216-1.125.162-.337.378-.506.54-.562Z"/>
  </mask>
  <path fill="#fff" d="M50.245 44.247c.162-.057.27 0 .27 0s.054 0 .054-.057c0-.056 0-.056-.054-.056l-.054-.056c-.054 0-.108-.056-.216-.056-.217 0-.54.056-.865.393-.325.282-.54.844-.595 1.407-.054.562-.054 1.125-.108 1.8 0 .619-.054 1.35-.054 2.081 0 .338-.054.788.162 1.294.108.281.27.506.54.731a2.8 2.8 0 0 0 .757.338c.487.056.865 0 1.243 0 .379 0 .811-.056 1.19-.056l2.431-.17c.433-.055.865-.055 1.297-.393a.665.665 0 0 0 .27-.281c.109-.113.109-.225.163-.338.054-.225.108-.45.108-.675a18.89 18.89 0 0 1 0-2.475c0-.394.054-.787.054-1.181s.054-.788-.054-1.238c-.054-.225-.108-.45-.27-.675-.055-.112-.217-.225-.27-.281a1.126 1.126 0 0 0-.325-.225c-.432-.169-.81-.169-1.135-.169-1.243 0-2.27.113-2.972.169-.703.056-1.135.169-1.135.169s-.054 0-.054.056 0 .056.054.056c0 0 .432.113 1.135.225.702.113 1.73.225 2.972.338.324 0 .595.056.757.112.054 0 .108.056.108.056.108.057.054.057.108.113s.108.169.162.337c.054.282.108.62.162 1.013l.162 1.181c.108.788.216 1.632.27 2.476 0 .225 0 .393-.108.562-.054.056-.054.169-.108.225-.054.113-.108.113-.216.169-.27.169-.702.169-1.08.112-.811-.056-1.622-.168-2.433-.168-.378 0-.81 0-1.189-.057-.378 0-.81 0-1.08-.056s-.325-.112-.433-.337a4.062 4.062 0 0 1-.108-.9c-.054-.732-.108-1.407-.108-2.082a97.872 97.872 0 0 0-.162-1.744c-.054-.45.054-.9.216-1.125.162-.337.378-.506.54-.562Z"/>
  <path fill="#fff" d="m50.515 44.247-.324.62.152.08h.172v-.7Zm0-.113v-.7H48.87l1.139 1.185.505-.485Zm-.054-.056.504-.485-.206-.215h-.298v.7Zm-1.081.337.459.53.023-.022.023-.023-.505-.485Zm-.703 3.207-.697-.056-.003.028v.028h.7Zm.108 3.375.654-.251-.005-.012-.005-.012-.644.275Zm.54.731-.447.538.036.03.04.026.372-.594Zm.757.338-.176.677.047.013.049.005.08-.695Zm2.432-.056v.7h.024l.025-.002-.049-.698Zm2.432-.17.049.7.02-.002.021-.003-.09-.694Zm1.297-.393-.323-.62-.057.029-.05.04.43.551Zm.27-.281-.504-.485-.078.08-.048.102.63.303Zm.163-.338.63.303.033-.067.017-.072-.68-.164Zm.108-.675h.7v-.022l-.002-.022-.698.044Zm0-2.475.698.048.002-.024v-.024h-.7Zm-.27-3.094-.632.303.027.056.037.05.568-.409Zm-.27-.281.504-.485-.505.485Zm-.325-.225.323-.621-.033-.017-.036-.014-.254.652Zm-5.242.169v.7h.09l.086-.023-.176-.677Zm0 .112.176-.677-.087-.023h-.09v.7Zm4.107.563-.063.697.032.003h.031v-.7Zm.757.112-.23.662.112.038h.118v-.7Zm.108.056-.505.485.08.083.102.053.323-.62Zm.27.45.687-.132-.008-.04-.012-.041-.667.214Zm.324 2.194-.693.096.693-.096Zm.27 2.476h.7v-.023l-.001-.022-.699.045Zm-.108.562.505.485.048-.05.037-.057-.59-.378Zm-.108.225-.505-.485-.077.081-.049.101.631.303Zm-.216.169-.323-.621-.024.013-.024.014.371.594Zm-1.08.112.102-.692-.027-.004-.027-.002-.049.698Zm-3.622-.225.103-.692-.05-.008h-.053v.7Zm-1.513-.393-.68.163.017.072.032.068.631-.303Zm-.108-.9h.7v-.026l-.002-.026-.698.052Zm-.108-2.082h.7v-.03l-.003-.03-.697.06Zm-.162-1.744.696-.074-.001-.01-.695.084Zm.216-1.125.568.41.036-.05.027-.057-.63-.303Zm.77.099a.292.292 0 0 1-.137.01.403.403 0 0 1-.126-.04l-.01-.005-.005-.003-.002-.001h-.001v-.001c-.001 0-.002 0 .322-.621.323-.621.323-.621.322-.622h-.002l-.002-.002-.006-.003-.011-.005a.682.682 0 0 0-.091-.038 1.109 1.109 0 0 0-.71.008l.459 1.323Zm.04-.661.001.7h.012a.292.292 0 0 0 .042-.002.764.764 0 0 0 .58-.345.759.759 0 0 0 .12-.41h-1.4a.642.642 0 0 1 .35-.571.634.634 0 0 1 .284-.072h.011v.7Zm.755-.057v-.032a.725.725 0 0 0-.202-.502.724.724 0 0 0-.52-.222h-.032v1.4c.031 0-.007.001-.05-.004a.676.676 0 0 1-.408-.204c-.164-.17-.182-.363-.185-.394-.004-.038-.003-.072-.003-.042h1.4Zm-.754-.056c-.505.485.485.505.505-.485h-.001l-.002-.003-.004-.004-.048-.05-1.01.97.01.01.003.003.002.002.004.004.003.004.004.004.003.003.003.003.016.017.006.006v.001c.02-.99 1.01-.97.506-.485Zm-.054-.756c.105 0 .181.027.2.034l.011.005a.675.675 0 0 1-.03-.014.99.99 0 0 0-.397-.082v1.4a.403.403 0 0 1-.098-.011c-.027-.007-.045-.015-.043-.014l.018.008c.01.004.03.013.056.022.047.017.15.052.283.052v-1.4Zm-.216-.056c-.364 0-.886.105-1.37.608l1.01.97a.593.593 0 0 1 .215-.153.396.396 0 0 1 .145-.025v-1.4Zm-1.324.565c-.518.449-.77 1.221-.832 1.868l1.393.134c.046-.479.226-.831.357-.945l-.918-1.057Zm-.832 1.868c-.03.3-.044.599-.057.893-.014.297-.027.595-.052.918l1.395.112c.028-.352.042-.673.056-.966.013-.297.026-.562.051-.823l-1.393-.134Zm-.112 1.867c0 .293-.013.615-.026.971-.014.351-.028.73-.028 1.11h1.4c0-.35.013-.703.027-1.056.013-.347.027-.7.027-1.025h-1.4Zm-.054 2.081c0 .254-.069.895.218 1.569l1.288-.55c-.145-.339-.106-.597-.106-1.019h-1.4Zm.209 1.545c.155.404.393.724.746 1.018l.896-1.075a1.016 1.016 0 0 1-.335-.445l-1.307.502Zm.823 1.074c.325.203.66.346.951.421l.353-1.355a2.136 2.136 0 0 1-.562-.253l-.742 1.187Zm1.047.44c.53.06 1.073.004 1.323.004v-1.4c-.506 0-.72.056-1.162.005l-.161 1.39Zm1.323.004c.218 0 .446-.016.643-.03.208-.014.386-.026.546-.026v-1.4c-.218 0-.445.016-.643.03a8.208 8.208 0 0 1-.546.026v1.4Zm1.238-.058 1.216-.084 1.216-.085-.097-1.396-1.216.084-1.216.084.097 1.397Zm2.473-.173c.34-.044 1.017-.052 1.638-.536l-.861-1.104c-.245.191-.433.183-.957.252l.18 1.388Zm1.53-.467c.246-.128.46-.354.578-.599l-1.261-.606.01-.02c.002-.002.002-.001 0 0l.003-.002a.17.17 0 0 1 .024-.015l.646 1.242Zm.452-.417c.145-.15.215-.304.255-.417.014-.038.033-.1.034-.102.006-.017.005-.012 0 0l-1.262-.607c-.033.068-.054.13-.067.168l-.015.047a.653.653 0 0 1-.007.02c-.002.005.002-.007.013-.025a.275.275 0 0 1 .04-.054l1.01.97Zm.338-.66c.05-.209.128-.515.128-.838h-1.4c0 .128-.031.271-.089.512l1.361.327Zm.126-.882a18.225 18.225 0 0 1 0-2.383l-1.397-.096c-.056.82-.056 1.695 0 2.568l1.397-.09Zm.002-2.43c0-.17.011-.343.025-.544.013-.192.029-.413.029-.638h-1.4c0 .169-.012.342-.026.542-.013.193-.028.414-.028.64h1.4Zm.054-1.182c0-.283.06-.844-.074-1.401l-1.361.327c.082.342.035.57.035 1.074h1.4Zm-.074-1.401c-.052-.22-.13-.571-.383-.921l-1.136.818c.073.1.102.199.158.43l1.361-.327Zm-.32-.815a1.08 1.08 0 0 0-.16-.24 1.624 1.624 0 0 0-.134-.136l-.094-.082c-.031-.027-.023-.02-.008-.005l-1.01.97a1.151 1.151 0 0 0 .108.099l.061.053c.016.015.022.02.02.02 0-.002-.006-.008-.013-.018a.395.395 0 0 1-.032-.055l1.262-.606Zm-.396-.463c-.195-.203-.396-.304-.506-.361l-.646 1.242c.107.055.122.067.143.089l1.009-.97Zm-.575-.392c-.566-.221-1.063-.217-1.389-.217v1.4c.323 0 .582.005.88.121l.51-1.304Zm-1.389-.217c-1.28 0-2.346.116-3.028.171l.112 1.396c.722-.058 1.71-.167 2.916-.167v-1.4Zm-3.028.171a9.35 9.35 0 0 0-1.152.165l-.072.016-.02.005-.007.002h-.003v.001H50.5l.176.678.176.677h-.001l.01-.002a7.926 7.926 0 0 1 1.007-.147l-.113-1.395Zm-1.08.867v-.7h-.024a.7.7 0 0 0-.103.01.765.765 0 0 0-.507.336.759.759 0 0 0-.12.41h1.4a.642.642 0 0 1-.349.572.634.634 0 0 1-.285.072h-.01l-.001-.7Zm-.753.056a2.283 2.283 0 0 0 .005.107c.005.046.026.25.197.427a.723.723 0 0 0 .552.222v-1.4c-.032 0 .007-.001.049.004.04.005.24.028.408.204.164.17.182.364.186.394.004.038.003.072.003.042h-1.4Zm.754.056-.176.678h.002l.006.002.018.004.066.016a16.749 16.749 0 0 0 1.108.216l.221-1.382a15.423 15.423 0 0 1-1.004-.195l-.052-.013a.497.497 0 0 0-.011-.003h-.002l-.176.677Zm1.024.916c.728.117 1.775.231 3.02.344l.126-1.395c-1.24-.112-2.247-.223-2.925-.331l-.221 1.382Zm3.083.347c.25 0 .443.044.527.074l.46-1.323a3.107 3.107 0 0 0-.987-.151v1.4Zm.757.112a.597.597 0 0 1-.325-.097.439.439 0 0 1-.065-.054l-.003-.004-.002-.002h-.001v-.001l.504-.486.504-.485-.001-.002c-.001 0-.002 0-.002-.002l-.005-.004-.01-.011a.889.889 0 0 0-.12-.099.835.835 0 0 0-.474-.153v1.4Zm-.215-.023-.01-.005a.62.62 0 0 1-.243-.299l-.003-.008c.002.005.014.037.031.074a.8.8 0 0 0 .151.215l1.01-.97c.03.031.069.08.101.148.014.029.022.052.022.05l-.001-.001-.001-.004a.822.822 0 0 0-.125-.219.782.782 0 0 0-.117-.115 1.026 1.026 0 0 0-.17-.108l-.645 1.242Zm-.074-.023a.363.363 0 0 1-.044-.055c-.005-.008-.005-.009-.001 0l.018.043c.008.02.017.046.027.078l1.334-.427c-.056-.173-.148-.426-.324-.609l-1.01.97Zm-.02-.015c.05.265.103.59.156.975l1.387-.19a20.222 20.222 0 0 0-.169-1.05l-1.374.265Zm.156.975.08.59.082.592 1.387-.19-.081-.592-.081-.59-1.387.19Zm.162 1.182c.108.785.213 1.608.265 2.424l1.397-.09a35.162 35.162 0 0 0-.275-2.525l-1.387.19Zm.264 2.38c0 .058 0 .099-.002.135a.603.603 0 0 1-.005.065c0 .009-.002.008 0 .002a.09.09 0 0 1 .009-.017l1.179.755c.235-.368.219-.747.219-.94h-1.4Zm.087.077a.87.87 0 0 0-.17.256 1.174 1.174 0 0 0-.046.128c-.01.028-.006.014.003-.005a.531.531 0 0 1 .104-.154l1.01.97a.87.87 0 0 0 .169-.256c.025-.058.042-.114.047-.128.009-.028.005-.014-.003.005a.535.535 0 0 1-.105.154l-1.01-.97Zm-.235.407a.5.5 0 0 1 .172-.185c.027-.016.046-.024.023-.014-.014.007-.057.026-.103.05l.646 1.242.04-.019c.02-.009.077-.034.136-.072a.899.899 0 0 0 .348-.396l-1.262-.606Zm.044-.122c.003-.002-.008.006-.041.015a.756.756 0 0 1-.14.021c-.122.01-.27.001-.426-.022l-.206 1.385c.224.033.48.053.736.034.247-.019.55-.077.819-.245l-.742-1.188Zm-.661.008c-.743-.051-1.642-.17-2.48-.17v1.4c.782 0 1.504.106 2.383.167l.097-1.397Zm-2.48-.17c-.39 0-.77-.002-1.087-.049l-.206 1.385c.44.065.926.064 1.292.064v-1.4Zm-1.19-.057c-.41 0-.755-.003-.938-.041l-.285 1.37c.358.075.878.071 1.223.071v-1.4Zm-.938-.041a.922.922 0 0 1-.053-.013c-.012-.003-.014-.004-.011-.002a.371.371 0 0 1 .132.096c.012.013.018.023.02.026l-.007-.012a1.255 1.255 0 0 1-.025-.05l-1.262.606c.052.108.15.313.346.473.2.162.425.215.575.246l.285-1.37Zm.106.184a3.372 3.372 0 0 1-.089-.736h-1.4c0 .403.063.796.127 1.063l1.362-.327Zm-.09-.788c-.056-.74-.107-1.386-.107-2.03h-1.4c0 .707.057 1.411.11 2.133l1.396-.103Zm-.11-2.09a90.177 90.177 0 0 0-.163-1.758l-1.392.149c.053.498.106 1.11.16 1.73l1.395-.122Zm-.164-1.767a1.348 1.348 0 0 1 .017-.422.936.936 0 0 1 .045-.154c.016-.04.028-.057.027-.057l-1.136-.818c-.292.405-.412 1.046-.343 1.618l1.39-.167Zm.152-.739a.647.647 0 0 1 .126-.186c.032-.032.041-.028.013-.018l-.459-1.323c-.375.13-.717.453-.942.921l1.262.606Z" mask="url(#c)"/>
</svg>
