<svg xmlns="http://www.w3.org/2000/svg" width="96" height="94" fill="none" viewBox="0 0 96 94">
  <circle cx="42" cy="40" r="54" fill="#6DC400"/>
  <path fill="#fff" d="M70.777 63.168c-.369-2.773-2.591-4.913-4.792-6.423-.028-.02-.054-.02-.082-.035.3-.818.455-1.684.398-2.607-.166-2.692-2.666-5.036-4.556-6.77 1.377-.843 2.817-2.465 3.248-3.955.537-1.859-1.32-3.603-2.468-4.758-1.667-1.676-3.684-3.66-6.187-3.771-2.081-.092-3.855 1.865-5.015 3.413-1.51-.931-2.883-.826-4.268-.214a.891.891 0 0 0-.333-.233c-.256-.097-.677-.136-.784-.439-.125-.356.088-.835.213-1.162.165-.433-.497-.822-.79-.46-.075.093-.135.19-.2.284-.501-.023-1.003.072-1.475-.154-.749-.358-.162-1.482.127-1.915.326-.487-.21-1.139-.75-.975-.937.286-1.485.073-1.954-.572a.336.336 0 0 0-.156-.3c-.017-.012-.039-.016-.056-.026-.028-.049-.057-.092-.085-.144-.282-.52-.533-1.113-.765-1.68.273-.377-.13-.949-.64-.872-1.994.301-3.485-.802-3.138-2.954.086-.53-.433-1.088-.972-.747-1.7 1.076-2.78-.153-2.88-1.883-.02-.354-.433-.538-.7-.421a.474.474 0 0 0-.238.035c-1.445.659-2.695.888-3.701-.638-.244-.37-.955-.39-1.042.136-.306 1.848-1.705 2.705-3.406 1.743-.299-.168-.56.03-.618.28-.178-.043-.395.047-.43.244-.087.509.023.969-.06 1.482-.176 1.088-1.418 1.302-2.3 1.242-.466-.031-.773.65-.396.956.65.528 1.147 1.397 1.177 2.199-.415-.04-.575.582-.142.7l.027.008c-.158.393-.48.73-1.028.94a.443.443 0 0 0-.168.736c-.024.006-.05.004-.075.011-.278.088-.449.497-.187.711.59.483 1.881.937 2.361 1.584-.277.143-.335.608.048.69l.106.023c-.075.263-.286.553-.699.882-.427.339-.078 1.125.448 1.081 1.64-.136 3.19.172 2.576 2.21-.095.314.18.498.432.458-.244.287-.211.787.27.958 1.08.383 3.627 1.059 2.387 2.633-.413.524-.04 1.247.648 1.114.988-.192 1.93-.023 2.461.556-.265.046-.314.499-.016.557.123.024.248.056.372.084.055.19.09.394.087.628-.395.275-.211 1.11.355 1.056 1.255-.122 2.285.003 3.075.922a.85.85 0 0 0-.117.758c-.483.02-.956.562-.61 1.037 3.055 4.212 6.553 8.056 10.362 11.598 2.54 2.36 5.468 5.292 9.136 5.3 1.062.003 2.117-.418 3.13-1.042 1.938 4.808 8.15 5.347 11.943 2.385 1.792-1.4 2.965-3.409 2.957-5.7a.504.504 0 0 0-.065-.784Zm-2.168-.907c.15.382.27.77.332 1.162-.27.08-.54.156-.814.213-.728.152-1.479.2-2.224.237a3.583 3.583 0 0 0-.035-1.035c-.02-.1-.053-.195-.085-.29.6.003 1.2-.023 1.795-.113.331-.049.69-.092 1.031-.175Zm-9.33 2.28c.63-.609 1.211-1.198 1.73-1.686.475-.45.972-.915 1.464-1.4a.766.766 0 0 0 .209.134c1.433.569 2.361 1.995 1.166 3.308-1.33 1.461-3.243.687-4.57-.356Zm.103 1.625c-.168.026-.337.052-.508.072-.557.064-1.117.102-1.677.137.42-.328.832-.67 1.225-1.028.29.305.615.579.96.819Zm4.893-5.399c.56-.044 1.12-.065 1.682-.076.524-.01 1.156.021 1.683-.145.14.19.28.378.401.574-.165.062-.33.122-.494.17a10.51 10.51 0 0 1-2.216.376c-.005 0-.009.003-.014.004-.283-.358-.648-.653-1.042-.903Zm2.416-1.331c-.207.04-.413.083-.618.114a23.32 23.32 0 0 0-2.222.422c.497-.577.963-1.174 1.345-1.81a11.69 11.69 0 0 1 1.495 1.274ZM56.338 36.518c1.886-.11 3.75 2.184 4.926 3.364.725.727 2.36 2.111 1.83 3.297-.545 1.22-1.852 1.909-2.637 2.967l-1.383-1.278c.883-.236 1.566-1.1 1.644-2.014.094-1.093-.496-2.101-1.173-2.907-1.548-1.84-4.622-2.68-6.026-.235a.61.61 0 0 0-.07.2c-.403-.329-.805-.668-1.208-.981 1.194-1.006 2.477-2.32 4.097-2.413Zm1.744 7.027a.829.829 0 0 0-.216.217 121.975 121.975 0 0 0-3.601-3.186c.07-.028.14-.07.202-.133 1.205-1.182 2.672-.664 3.74.427.42.43.831 1.035.88 1.65.049.632-.563.725-1.005 1.025Zm-12.879-4.891c.1.09.206.173.322.243-.326.21-.656.436-.991.673-.17-.217-.375-.467-.594-.732.011-.002.015-.001.027-.004.077-.02.153-.034.232-.045.168-.024.332-.067.5-.087.172-.021.34-.032.505-.048Zm-1.8-1.507a2.79 2.79 0 0 0 1.288.117c-.009.113.006.234.015.353a12.81 12.81 0 0 0-.475.14c-.313.098-.632.248-.779.502a57.507 57.507 0 0 0-1.06-1.204c.31.03.668.088 1.011.093Zm-18.491 1.168c.345.041.69.103 1.033.188a51.212 51.212 0 0 0 1.507 2.039l-2.286-.359c-.03-.004-.055.002-.082.004.273-.72.161-1.357-.172-1.872Zm.91-9.437c2.906-2.046 9.015 3.652 10.901 5.269 2.294 1.966 4.57 4.13 6.454 6.511-1.19 1.065-2.257 2.298-3.32 3.46-.928 1.015-1.993 1.9-3.037 2.794-4.097-3.3-16.84-13.92-10.998-18.034Zm16.304 6.044c-.052.4-.018.8.156 1.193l-.023.003a.447.447 0 0 0-.424.33 63.98 63.98 0 0 0-1.474-1.537c.557.036 1.187.076 1.765.011Zm-2.23-1.959c.173.325.38.62.613.87-.235.011-.47.02-.705.029a.493.493 0 0 0-.353.153 55.362 55.362 0 0 0-1.133-1.066c.329.008.658.017.987.023.185.002.387 0 .591-.009Zm-2.182-2.089c.042-.014.062-.048.096-.07.448.08.925.065 1.428-.1.03.375.108.76.214 1.14l-.148-.001c-.65.001-1.303.029-1.955.044a.534.534 0 0 0-.185.041c-.349-.299-.7-.597-1.057-.884.539-.016 1.097-.003 1.607-.17Zm-2.26-1.953c.2.386.456.73.752 1.022-.421.048-.849.13-1.263.209a26.584 26.584 0 0 0-2.179-1.457c.218.009.437.02.658.038.693.053 1.352.232 2.032.188Zm-7.89-4.722c1.12.917 2.765 1.332 3.91.48.029.284.095.55.179.808-1.663-.044-3.3.025-4.95-.093a3.21 3.21 0 0 0 .861-1.195Zm-2.548 1.872c2.319.598 4.806.632 7.19.479.66.835 1.684 1.252 2.773.865.019.138.044.275.075.41-1.178-.3-2.597-.198-3.806.064-1.957-.92-3.842-1.307-5.444-.762-.497-.151-1.059-.134-1.573-.18a34.603 34.603 0 0 0-.843-.07 1.634 1.634 0 0 0-.078-1.207 3.25 3.25 0 0 0 1.706.4Zm-2.082 1.612c.475.05.988.158 1.495.223-.115.094-.232.182-.342.29-.28.273-.5.567-.679.873-.285-.07-.58-.109-.778-.157-.353-.087-.705-.18-1.065-.22a3.936 3.936 0 0 0 1.369-1.009Zm-.635 1.963c.249.086.497.175.745.263a4.692 4.692 0 0 0-.186 1.543c-.17-.015-.34-.027-.508-.052-.201-.029-.4-.07-.6-.11.04-.682-.145-1.408-.497-2.051.33.181.69.284 1.046.407Zm-1.395 3.93c-.073.007-.118.044-.164.079a2.908 2.908 0 0 0-.577-.203c.757-.265 1.216-.773 1.44-1.383.446.12.905.22 1.353.241.073.413.175.83.312 1.245-.268-.014-.535-.005-.752-.014a10.822 10.822 0 0 0-1.612.034Zm.773.675c.177.014.352.033.53.046.377.026.754.061 1.129.114.094.013.184.029.274.042.242.572.523 1.134.824 1.672-.548-.11-1.113-.178-1.674-.249a2.492 2.492 0 0 0-.37-.88c-.165-.249-.424-.506-.713-.745Zm2.826 3.591c-.471-.415-1.118-.695-1.835-.768.043-.11.064-.222.09-.334.716.164 1.463.283 2.137.167.192.312.385.616.576.902-.329-.013-.66.012-.968.033Zm3.617 4.689c-.719-.834-1.987-1.408-3.13-1.62a.656.656 0 0 0-.309.019c.049-.07.085-.136.127-.204.04.05.094.09.18.105l2.372.419c.256.045.515.1.773.152.349.432.713.872 1.107 1.32-.375-.054-.748-.123-1.12-.191Zm1.866 2.084a.274.274 0 0 0-.235.125 4.388 4.388 0 0 0-1.123-.256c.125-.46.082-.89-.08-1.279.32.064.637.135.958.189.132.022.266.045.401.066.38.409.772.814 1.178 1.2-.365-.03-.731-.049-1.1-.045Zm.746.683c.372.041.743.094 1.114.169.062.012.126.03.19.044.572.483 1.155.933 1.749 1.294a32.578 32.578 0 0 0-2.286-.32c-.12-.48-.396-.874-.767-1.187Zm.806 2.206c.014-.08.006-.15.013-.227 1.27.362 2.573.79 3.835.78a.418.418 0 0 0 .265-.096c-.364.336-.722.677-1.059 1.034-.699-1.026-1.802-1.505-3.054-1.49Zm18.387 18.174c-5.812-2.978-10.53-9.54-14.9-14.417.312-.08.59-.353.579-.69-.007-.221 4.326-3.689 4.566-3.945 1.988-2.12 6.388-8.528 9.904-7.035 2.17.922 4.303 4.092 6.18 5.656 1.933 1.61 3.879 3.166 5.66 4.948 3.753 3.754 1.925 6.922-1.255 10.277-2.544 2.685-6.414 7.42-10.734 5.206Zm11.855 4.21c-1.075-.064-2.003-.451-2.84-1.004 2.081.161 4.164.351 6.25.448a7.774 7.774 0 0 1-3.41.556Zm5.292-1.756a.659.659 0 0 0-.268-.054c-2.936.01-5.883-.077-8.815.09-.37-.318-.724-.66-1.065-1.012 1.322.112 2.94.337 4.12-.187.955.272 1.951.237 2.851-.218.036.034.065.073.123.084 1.251.22 2.723.323 4.092.116a6.78 6.78 0 0 1-1.038 1.181Zm1.738-2.598c-.49.154-.976.323-1.475.44-.868.201-1.761.253-2.65.243.118-.105.236-.211.349-.335.303-.336.511-.724.663-1.13 1.025.056 2.2.127 3.277-.052-.03.278-.08.557-.164.834Z"/>
  <path fill="#fff" d="M62.593 53.064a7.106 7.106 0 0 0-2.7-1.284c-.832-.189-1.428 1.019-.602 1.43.363.18.707.399 1.044.624.364.244.68.57 1.062.78.946.522 2.102-.831 1.196-1.55Zm-.513 2.653c-.19-.701-.935-.839-1.463-1.216-.472-.337-.798-.84-1.28-1.156-.598-.393-1.262.25-1.127.866.12.551.577 1.033.932 1.451.376.442.859.914 1.38 1.174.327.163.736.214 1.058 0l.06-.04c.361-.24.558-.647.44-1.08Zm-1.824 1.993c-.14-.625-.666-.703-1.152-.954-.38-.196-.574-.517-.84-.837-.431-.52-1.332-.092-1.309.542.042 1.15 1.117 1.955 2.09 2.36.337.14.688-.053.943-.25l.05-.04c.238-.184.278-.553.218-.821Z"/>
</svg>
