<svg xmlns="http://www.w3.org/2000/svg" width="96" height="94" fill="none" viewBox="0 0 96 94">
  <circle cx="42" cy="40" r="54" fill="#6DC400"/>
  <g clip-path="url(#a)">
    <path fill="#fff" d="M72.58 32.245c-1.49-2.179-4.391-3.481-6.656-4.657-2.551-1.324-4.76-2.23-7.605-1.177-1.676.62-4.152 3.09-3.092 4.89-.31.013-.612.168-.813.524a63.249 63.249 0 0 1-1.907 3.123c-3.487-4.479-9.644-14.095-16.035-10.695-6.776 3.605-11.43 13.17-15.296 19.438-.514.833.182 1.644 1.006 1.754 2.05.271 4.084.462 6.141.542-.851 5.784-2.536 11.39-2.461 17.286a1.163 1.163 0 0 0 1.149 1.15c5.388.086 10.744.077 16.097-.625.674-.088.674-.96 0-1.05-4.965-.65-9.933-.704-14.927-.64.107-5.816 1.776-11.427 2.511-17.185.078-.613-.563-1.088-1.106-1.106a60.137 60.137 0 0 1-5.477-.448c3.095-5.025 6.308-10.02 10.287-14.393.962-1.056 2.016-1.998 3.206-2.79 2.297-1.53 4.854.929 6.443 2.367 2.714 2.457 4.907 5.485 7.192 8.33-5.12 7.687-10.92 15.68-6.891 25.354.414.996 1.947.65 1.663-.459a18.643 18.643 0 0 1-.266-1.245c.71.509 1.42 1.058 2.152 1.542-.564.15-1.145.302-1.77.462-.818.208-.667 1.603.203 1.5 4.165-.492 7.97-.864 10.912-4.099 4.909-5.398 8.812-13.22 11.605-19.905a.783.783 0 0 0 .02-.58.82.82 0 0 0 .096-.234c1.327-1.504 5.334-4.467 3.619-6.974Zm-26.5 17.472c1.457-4.944 4.942-9.014 7.912-13.255 1.01 1.232 2.3 2.221 3.627 3.121-.737.387-1.303 1.28-1.805 1.855-1.212 1.393-2.353 2.847-3.481 4.309-.626.81-3.426 3.875-3.81 5.791-.692-.626-1.57-.993-2.623-1.058.061-.254.11-.522.18-.763Zm12.807-9.3.082.053c.556.359 1.176.787 1.83 1.215-.6.622-.857 1.694-1.266 2.422-.837 1.488-1.833 2.89-2.815 4.284-.945 1.339-1.911 2.662-2.866 3.994-.348.486-.811 1.007-.946 1.585-.786-.797-1.9-.998-3.146-.564a5.38 5.38 0 0 0-.461-.925c.505-.51.82-1.203 1.228-1.813 1.03-1.54 2.238-2.969 3.425-4.388a173.759 173.759 0 0 1 3.411-3.919c.505-.568 1.31-1.175 1.524-1.944ZM48.94 61.784c-1.057-.74-2.217-1.395-3.328-2.03-.069-.467-.11-.957-.155-1.443.02.026.042.053.073.075a216.47 216.47 0 0 0 4.498 3.064c-.352.115-.713.226-1.088.334Zm6.66-4.33c-.181.233-.24.553-.12.806a11.59 11.59 0 0 1-2.779 2.086c-.953-1.007-2.302-1.713-3.488-2.361-1.031-.565-2.62-1.526-3.869-1.24-.06-1.733.042-3.493.313-5.099 1.528.24 2.495 1.132 2.718 2.935.076.62.669 1.086 1.28.734 1.176-.676 2.304-.313 2.605 1.104.095.45.63.732 1.058.6 1.196-.365 1.584.14 2.643.22-.137.038-.264.09-.361.216Zm1.996-1.828c-.164.246-.327.476-.49.701-.734-1.076-2.127-1.344-3.431-1.145a4.082 4.082 0 0 0-.245-.508c.758-.3 1.28-1.242 1.765-1.846a180.818 180.818 0 0 0 3.238-4.127c.898-1.188 3.66-4.127 3.781-6.14.742.427 1.502.803 2.25 1.043-2.256 4.02-4.3 8.169-6.868 12.022Zm7.652-13.388c-1.279-.916-3.066-1.508-4.36-2.194a36.584 36.584 0 0 1-6.4-4.3c.202-.297.395-.596.59-.895 1.712 1.07 3.446 2.107 5.156 3.183 1.811 1.139 3.522 2.545 5.385 3.58-.123.208-.25.416-.371.626Zm1.801-2.962c-.258.399-.507.803-.755 1.208-1.342-1.297-3.156-2.195-4.768-3.099-1.98-1.11-3.993-2.17-6.005-3.225.258-.414.512-.829.75-1.25a1.22 1.22 0 0 0 .096-.219c3.828 1.848 7.112 4.35 10.683 6.584Zm.48-1.581c-3.384-2.425-7.456-4.423-11.235-5.965 1.518-5.731 6.141-3.742 9.825-1.72 1.408.771 2.81 1.616 4.044 2.648 1.776 1.484-1.571 3.866-2.633 5.037Z"/>
  </g>
  <defs>
    <clipPath id="a">
      <path fill="#fff" d="M0 0h52v52H0z" transform="translate(21 18)"/>
    </clipPath>
  </defs>
</svg>
