<svg xmlns="http://www.w3.org/2000/svg" width="96" height="94" fill="none" viewBox="0 0 96 94">
  <circle cx="42" cy="40" r="54" fill="#6DC400"/>
  <path fill="#fff" d="M63.202 14.323c-5.157-1.823-10.38 4.456-11.718 9.11-2.89-1.75-5.55.189-7.265 2.576-.19.265-.118.718.12.93.162.144.339.272.505.413-1.139 1.553-2.286 3.102-3.412 4.66-.021.03-.023.058-.04.087-1.992-.165-3.988-.313-5.988-.324-2.806-.016-8.122-.108-9.438 3.06a.34.34 0 0 0-.01.234c-.674 1.342-.452 3.123.881 4.021-3.488 5.15-2.812 10.293.066 14.348-.384 3.064-1.055 6.707.303 9.615 2.127 4.556 12.516 2.552 16.107 2.243 3.332-.287 6.395-.148 9.724.166 2.69.254 5.084-.27 6.635-2.595.613-.919.582-2.339.64-3.4.111-2.04.326-4.029.62-6.038 3.515-3.55 4.957-7.9.97-12.235 1.228-.31 2.163-1.05 2.498-2.245a.49.49 0 0 0 .1-.432 4.648 4.648 0 0 0-.05-1.527c-.315-1.68-1.47-2.746-3.006-3.423-.297-1.177-.381-2.534-.969-3.573-.016-.029-.04-.045-.058-.07a.607.607 0 0 0 .33-.108c2.776-1.95 5.65-4.355 6.607-7.735.81-2.855-1.385-6.78-4.152-7.758ZM45.71 28.062c1.99 1.565 4.142 2.936 6.183 4.44-.46.018-.89.036-1.25.047-.612.02-1.223.023-1.835.015-.097-.071-.198-.135-.294-.208-.185-.138-.402.002-.472.185a90.893 90.893 0 0 1-4.865-.294 29.043 29.043 0 0 0 2.533-4.185Zm-1.98 5.602c.518.047 1.03.091 1.54.134 1.064 1.636 3.194 2.819 4.74 3.786 2.198 1.373 4.723 3.084 7.262 3.716.316.079.63-.353.342-.587-1.712-1.386-3.959-2.168-5.895-3.204-1.96-1.05-3.691-2.25-5.365-3.631a48.77 48.77 0 0 0 3.095.118c2.876 2.433 6.018 4.982 9.442 6.383-.759.593-1.215 1.374-1.483 2.254-2.028-1.678-4.648-2.718-6.964-3.906-2.86-1.469-5.686-3.053-8.08-5.203.484.053.943.102 1.367.14Zm-2.54-.272c1.946 2.254 4.418 3.848 6.983 5.335 2.878 1.669 5.918 3.551 9.024 4.78-.055.29-.103.583-.139.879-6.355-4.216-13.39-7.35-19.882-11.374 1.398.09 2.764.24 4.014.38Zm11.7 15.268c.7.268 1.328.642 1.94 1.072.577.404 1.087 1.005 1.76 1.235.08.028.151.008.215-.027-.006.273-.006.546-.017.818l-.155 1.255c-.012.078-.035.135-.049.21-.49-.614-1.245-.978-1.906-1.386-.893-.55-1.76-1.127-2.55-1.814.104-.416.206-.816.282-1.176.204-.96.343-2 .324-3.02.349.23.7.458 1.054.682.888.563 1.754 1.248 2.694 1.713.122.06.247.046.35-.006-.006.718-.008 1.435-.016 2.153-.405-.535-1.068-.912-1.615-1.272a8.99 8.99 0 0 0-2.145-1.037c-.388-.128-.534.459-.166.6Zm-24.01-8.967c1.879.128 3.878-.215 3.755 2.363-.048 1.016-.234 2.985.521 3.848 1.778 2.032 3.81 1.094 4.423-1.039a.23.23 0 0 0 .08-.336c.01-.054.026-.106.035-.162l1.826-.733c.044.56.08 1.12.112 1.68.054.87.176 1.698.402 2.54.463 1.731 1.639 2.967 3.257 3.533 1.49.521 2.641-.436 3.498-1.772.2-.045.35-.27.274-.456.752-1.34 1.242-2.913 1.493-3.784.15-.52.89-3.834 2.038-2.165 1.554 2.262.37 5.29-.11 7.665a14.74 14.74 0 0 0-.145.878.335.335 0 0 0-.013.09c-.181 1.378-.178 3.032.604 4.066.431.57.86 1.011 1.289 1.339-2.27 1.053-4.506 1.806-6.22 2.173-5.616 1.202-11.925-.979-16.081-4.746a11.66 11.66 0 0 1-1.395-1.517c.262-4.47.743-8.875.357-13.465Zm7.299 4.611c-.524 1.298-1.988-.081-2.124-1.262-.004-.035.002-.065 0-.1.684.44 1.39.946 2.124 1.362Zm-2.092-1.992c.069-.422.203-.82.28-1.237.331.298.674.584 1.03.858.392.3.807.632 1.236.936a4.672 4.672 0 0 0-.248.702c-.733-.444-1.525-.828-2.227-1.235-.025-.014-.048-.017-.071-.024Zm9.68 4.975c-.89-.48-1.766-.99-2.68-1.42-.04-.573-.04-1.156-.071-1.732.56.36 1.133.7 1.713 1.033.996.572 2.093 1.411 3.228 1.633.292.057.51-.276.294-.504-.802-.846-2.122-1.245-3.154-1.757a33.574 33.574 0 0 1-2.15-1.173 6.14 6.14 0 0 0-.116-.66 3.86 3.86 0 0 0-.237-.695c2.094 1.244 4.269 2.391 6.488 3.276-.301.93-.704 2.1-1.221 3.043-.692-.37-1.434-.687-2.095-1.044Zm1.61 1.792c-.865 1.132-1.992 1.475-3.444-.5-.525-.714-.723-1.508-.81-2.328.665.484 1.354.934 2.047 1.379.688.44 1.433 1.014 2.207 1.45Zm6.526 5.23a3.373 3.373 0 0 1-.223-.998c1.03.868 2.23 1.577 3.48 1.974-.788.24-1.866-.07-3.257-.976Zm-.213-1.99a12.17 12.17 0 0 1 .268-1.586c.568.494 1.16.954 1.784 1.38.802.549 1.688 1.323 2.63 1.586.034.01.068 0 .102-.006-.154.546-.383.949-.677 1.23a.307.307 0 0 0-.119-.136c-1.39-.844-2.775-1.45-3.988-2.469Zm.981-7.36c-.085-.72-.264-1.415-.579-2.047 1.621.873 3.242 1.732 4.854 2.59l-.022.26c-.05.594-.071 1.19-.084 1.786-1.17-1.078-2.747-1.782-4.169-2.588ZM36.05 32.952c4.06 3.113 8.479 5.793 12.989 8.294-.388.352-.721.9-.982 1.44-4.39-3.787-9.764-6.665-14.734-9.72.892-.05 1.81-.049 2.727-.014Zm-3.51.077c4.875 3.644 9.918 7.43 15.158 10.478-.098.248-.176.464-.229.606-.023.062-.046.13-.07.203-2.899-1.703-5.946-3.17-8.845-4.876-3.053-1.797-5.822-3.998-8.782-5.89.858-.265 1.794-.427 2.768-.521Zm-3.282.683c1.548 2.15 4.203 3.829 6.52 5.282a160.985 160.985 0 0 0-8.165-4.452 7.56 7.56 0 0 1 1.646-.83ZM27.11 34.9c.028-.024.062-.041.09-.064 3.666 2.128 7.23 4.432 10.906 6.538-.056.03-.108.048-.166.081a3.182 3.182 0 0 0-.927.789c-.284-.161-.57-.318-.841-.484a19.03 19.03 0 0 1-1.754-1.218c-.011-.877-.736-1.636-1.431-2.044-.333-.194-1.218-.223-2.223-.277a.248.248 0 0 0-.156-.253c-1.371-.512-2.797-1.175-3.884-2.195.08-.263.195-.547.386-.873Zm.058 15.96c-1.464-3.526-.681-7.494.736-11.301l.144.029c-.384 3.753-.533 7.518-.88 11.272Zm.698-13.058c-.798-.28-1.32-.764-1.233-1.603.387.434.903.782 1.364 1.1.422.29.902.592 1.405.813a8.84 8.84 0 0 1-1.084-.179.446.446 0 0 0-.453-.13ZM58.42 59.468c-.14 5.738-11.8 3.636-16.141 4.004-2.516.214-5.027.377-7.554.345-3.885-.05-6.26-.808-6.347-5.23a58.174 58.174 0 0 1 .045-3.315c4.2 4.388 11.09 6.99 17.386 5.962 3.654-.597 9.02-2.833 13.033-5.96-.219 1.406-.388 2.806-.422 4.194Zm.86-6.766c-.447.417-.928.82-1.435 1.208.542-2.297.132-5.319.25-7.884a.453.453 0 0 0 .19-.83c-.039-.027-.08-.05-.12-.078.169-1.535.614-2.834 1.714-3.595.774 3.663.074 7.428-.599 11.179Zm1.442-12.82a.99.99 0 0 0-.632.175c-.026.005-.049.014-.075.018a.686.686 0 0 0-.39-.098.46.46 0 0 0-.184-.33c-2.805-1.98-5.756-3.721-8.602-5.65.792-.023 1.58-.035 2.37-.039 3.07 1.388 5.448 3.949 8.398 5.464a3.653 3.653 0 0 1-.885.46Zm1.186 4.166c1.029 2.15.683 4.214-.48 6.1.307-2.024.548-4.07.48-6.1Zm.831-6.877c-.486-.285-.983-.556-1.457-.84-1.29-.777-2.596-1.523-3.952-2.18-.448-.218-.842.433-.394.674 1.175.636 2.304 1.341 3.423 2.071.716.468 1.425 1 2.168 1.461a2.56 2.56 0 0 1-.176.308c-1.442-1.024-2.99-1.947-4.45-2.933a20.844 20.844 0 0 0-3.112-1.75c.467.008.933.008 1.4.03 1.284.069 2.533.303 3.748.702 1.847.516 2.688 1.482 2.802 2.457Zm2.892-14.9c-.762 2.719-3.751 4.656-5.79 6.371-.35.296-.252.754.017 1.038-.354.05-.68.388-.585.822.146.661.459 1.313.672 1.96.072.218.151.433.23.648-2.208-.628-4.864-.692-7.01-.646-1.736-2.347-4.499-4.009-6.798-5.84.017-.04.038-.08.055-.121.11-.264-.077-.437-.3-.47.455-.555.955-1.054 1.598-1.431 1.107-.65 2.331-.097 3.466.088a.69.69 0 0 0 .422-.062.26.26 0 0 0 .245-.155c1.8-3.534 4.87-7.842 8.946-8.806 3.404-.805 5.58 3.932 4.832 6.605Z"/>
  <path fill="#fff" d="M62.422 17.727c-1.554-.712-4.3-.384-4.504 1.734a.474.474 0 0 0 .255.491c-.32.993-.22 2.096.515 2.982 1.548 1.864 4.137.643 5.298-1.004 1.122-1.593-.004-3.49-1.564-4.203Zm.3 3.274c-.474.929-1.997 1.867-2.898 1-.811-.783-.5-2.029.043-2.917.07-.04.137-.085.22-.115.484-.175.991-.098 1.467.056.815.265 1.615 1.098 1.168 1.976Z"/>
</svg>
