<svg xmlns="http://www.w3.org/2000/svg" width="96" height="94" fill="none" viewBox="0 0 96 94">
  <circle cx="42" cy="40" r="54" fill="#6DC400"/>
  <path fill="#fff" d="M59.33 45.75c-.273-9.258-.361-18.528-.915-27.78a.307.307 0 0 0-.113-.224.554.554 0 0 0-.281-.123.34.34 0 0 0-.113-.198.57.57 0 0 0-.242-.125.73.73 0 0 0-.295-.013.608.608 0 0 0-.259.104c-3.857 2.81-6.202 6.523-6.618 10.479-.416 3.956 1.123 7.899 4.344 11.13.596.592 1.938.059 1.391-.576-5.966-6.568-5.548-13.965 1.154-19.982-.22 9.092-.013 18.188.028 27.282.04 9.228-.375 18.556.353 27.775-.002.208.11.409.313.557.202.15.477.234.765.237.288.002.565-.077.77-.223.204-.144.32-.343.322-.55.425-9.216-.302-18.541-.604-27.77ZM39.476 17.436c-.017 1.831.18 15.197-4.662 15.513-.134-4.951-.298-9.902-.602-14.798a.289.289 0 0 0-.036-.148.399.399 0 0 0-.114-.128.59.59 0 0 0-.174-.088.742.742 0 0 0-.417-.009.605.605 0 0 0-.18.08.417.417 0 0 0-.122.122.293.293 0 0 0-.046.147c-.125 4.793-.09 9.594-.134 14.388-5.805-3.462-3.56-10.512-3.997-15.183 0-.085-.046-.166-.13-.227a.557.557 0 0 0-.317-.096.558.558 0 0 0-.319.09c-.085.06-.133.14-.134.224-.3 5.378-2.686 12.703 4.405 16.552.145.08.326.12.508.11.033 4.067.085 8.14.107 12.206.044 9.327-.384 18.755.37 28.075-.002.21.114.412.322.563.209.15.493.236.79.239.296.003.582-.078.793-.225.212-.146.331-.347.333-.556.427-9.323-.325-18.749-.609-28.078-.073-3.932-.177-7.871-.26-11.803 6.99.694 5.666-14.91 5.265-17.014-.057-.269-.637-.203-.64.044Z"/>
</svg>
