<svg xmlns="http://www.w3.org/2000/svg" width="96" height="94" fill="none" viewBox="0 0 96 94">
  <circle cx="42" cy="40" r="54" fill="#6DC400"/>
  <g clip-path="url(#a)">
    <path fill="#fff" d="M63.178 42.695c.993-.426 1.314-2.222 1.35-3.244.075-2.075-.45-4.533-1.772-6.173-.333-.413-.948-.294-1.297 0-1.75 1.47-3.383 3.117-4.656 5.025a73.04 73.04 0 0 1-3.459-2.584.524.524 0 0 0 .54-.201c2.63-3.334 5.127-6.687 8.239-9.605a.904.904 0 0 0 .288-.511c.44-.328.654-1.01.191-1.562-3.922-4.69-9.93-5.04-14.608-1.288-5.241 4.205-5.647 11.362-4.72 17.49-.006.01-.016.014-.022.023-2.259 3.408-5.656 5.816-8.764 8.386-2.763 2.283-5.04 5.173-7.339 7.91-3.6 4.284-5.43 7.683-1.402 12.047 3.643 3.948 6.7 5.198 10.477.89 2.757-3.147 5.495-6.4 8.098-9.68 1.565-1.97 3.088-3.968 4.7-5.9.79-.945 2.195-3.049 3.319-3.557.01-.004.017-.01.027-.015 2.522.115 5.283.074 7.61-.924 2.248-.964 4.504-3.28 3.85-5.933-.096-.387-.36-.563-.65-.594Zm-1.309-7.436c.406.827.75 2.021.852 3.155-.595-.7-1.125-1.46-1.664-2.202a.34.34 0 0 0-.18-.127c.322-.284.65-.561.992-.826Zm-2.459 2.2c.533.862 1.047 1.736 1.597 2.586.241.372.539.922.916 1.316a.97.97 0 0 0-.144.156c-.102-.073-.21-.14-.315-.21.12-.098.177-.256.06-.423-.387-.551-.948-.978-1.392-1.487-.416-.477-.802-.979-1.205-1.468.157-.16.323-.311.483-.47Zm-.928.937c.35.488.688.985 1.044 1.469.101.138.206.283.316.428-.451-.268-.898-.532-1.315-.801-.224-.145-.432-.303-.653-.45.201-.219.405-.432.608-.646Zm2.458 7.842c-.763.894-1.932 1.32-3.014 1.67-1.713.556-3.507.7-5.28.933-.268-.374-.763-.611-1.292-.369-1.813.829-3.405 3.525-4.655 5.036-2.255 2.724-4.313 5.601-6.6 8.302-1.751 2.069-3.5 4.047-5.194 6.168-3.065 3.84-5.979 1.148-8.504-1.58-3.926-4.238 4.172-10.691 6.911-13.854 3.656-4.223 9.26-6.346 11.13-11.96.22-.127.386-.34.376-.635-.142-4.536-.323-8.959 2.023-13.024 3.197-5.54 9.317-6.151 13.729-2.201a44.505 44.505 0 0 0-7.743 9.979c-.144.254-.082.527.071.73a.538.538 0 0 0-.544.886c1.467 1.729 3.343 3.144 5.124 4.533 1.37 1.068 2.861 2.351 4.464 3.089-.247.806-.396 1.585-1.002 2.297Zm.615-6.794c-.568-.76-1.09-1.552-1.638-2.326a.324.324 0 0 0-.08-.076c.202-.193.41-.38.615-.568.008.025.012.049.028.075.464.758.933 1.511 1.442 2.24.225.324.473.74.769 1.089a3.24 3.24 0 0 1-.172.663c-.325-.378-.697-.74-.964-1.097Z"/>
    <path fill="#fff" d="M33.68 60.383c-.765-.553-1.7-.911-2.655-.85-.749.047-1.736.49-2.047 1.233-1.605.81-1.361 3.32-.389 4.665 1.478 2.046 4.351 2.263 6.078.4 1.607-1.736.744-4.194-.987-5.448Zm-.253 4.019c-.781 1.298-2.442 1.035-3.34.1-.411-.43-.684-.997-.716-1.592a1.86 1.86 0 0 1 .178-.896c.057-.002.11.01.172-.009.473-.146.804-.63 1.304-.686.532-.06 1.023.174 1.46.45.868.551 1.52 1.67.942 2.633Z"/>
  </g>
  <defs>
    <clipPath id="a">
      <path fill="#fff" d="M0 0h52v52H0z" transform="translate(18 20)"/>
    </clipPath>
  </defs>
</svg>
