<svg width="23" height="23" viewBox="0 0 23 23" fill="none" xmlns="http://www.w3.org/2000/svg">
<path d="M22.94 8.82259C22.7895 8.35687 22.3764 8.02609 21.8877 7.98204L15.2493 7.37927L12.6242 1.23516C12.4307 0.784882 11.9899 0.493408 11.5001 0.493408C11.0104 0.493408 10.5695 0.784881 10.376 1.23622L7.75097 7.37927L1.11149 7.98204C0.623655 8.02714 0.211627 8.35687 0.0601869 8.82259C-0.0912528 9.28832 0.0486052 9.79914 0.417641 10.1212L5.43551 14.5219L3.95586 21.0397C3.84758 21.519 4.03359 22.0143 4.43123 22.3018C4.64497 22.4562 4.89503 22.5348 5.14719 22.5348C5.36461 22.5348 5.58028 22.4762 5.77384 22.3604L11.5001 18.938L17.2243 22.3604C17.6432 22.6124 18.1712 22.5894 18.5679 22.3018C18.9658 22.0135 19.1516 21.5179 19.0433 21.0397L17.5637 14.5219L22.5815 10.122C22.9506 9.79914 23.0915 9.2892 22.94 8.82259Z" fill="#FFC107"/>
</svg>
