<svg width="354" height="190" viewBox="0 0 354 190" fill="none" xmlns="http://www.w3.org/2000/svg">
<g filter="url(#filter0_d_506_105868)">
<rect x="21" y="17" width="301" height="137" rx="14.4865" fill="white"/>
<path d="M134.945 79V76.1722H136.92C138.328 76.1722 139.15 75.1905 139.15 74.0274C139.15 72.8643 138.349 71.8825 136.92 71.8825H134.06V79H134.945ZM136.813 75.3826H134.945V72.6722H136.813C137.656 72.6722 138.232 73.2271 138.232 74.0274C138.232 74.8277 137.656 75.3826 136.813 75.3826ZM141.934 73.067L142.948 71.5304H142.403L141.55 72.6615L140.664 71.5304H140.12L141.166 73.067H141.934ZM141.091 79V75.3506C141.326 74.9344 141.998 74.5289 142.489 74.5289C142.617 74.5289 142.713 74.5396 142.809 74.5609V73.7393C142.105 73.7393 141.507 74.1341 141.091 74.6783V73.846H140.291V79H141.091ZM146.139 79.1281C146.982 79.1281 147.676 78.8506 148.188 78.3384L147.804 77.8155C147.398 78.2317 146.801 78.4665 146.214 78.4665C145.104 78.4665 144.421 77.6555 144.357 76.6844H148.529V76.4817C148.529 74.9344 147.612 73.7179 146.054 73.7179C144.581 73.7179 143.514 74.9237 143.514 76.4177C143.514 78.029 144.613 79.1281 146.139 79.1281ZM147.74 76.0975H144.357C144.4 75.3079 144.944 74.3795 146.043 74.3795C147.217 74.3795 147.729 75.3292 147.74 76.0975ZM151.128 79.1281C151.597 79.1281 151.885 78.9893 152.088 78.7973L151.853 78.1997C151.746 78.3171 151.533 78.4131 151.309 78.4131C150.957 78.4131 150.786 78.1357 150.786 77.7515V74.5503H151.832V73.846H150.786V72.4374H149.986V73.846H149.132V74.5503H149.986V77.9222C149.986 78.6905 150.37 79.1281 151.128 79.1281ZM156.985 79V75.4573C156.985 74.2088 156.078 73.7179 154.99 73.7179C154.147 73.7179 153.485 73.9954 152.93 74.5716L153.304 75.1265C153.763 74.6356 154.264 74.4115 154.883 74.4115C155.63 74.4115 156.185 74.8064 156.185 75.5V76.4283C155.769 75.9481 155.182 75.724 154.478 75.724C153.603 75.724 152.674 76.2683 152.674 77.4207C152.674 78.5412 153.603 79.1281 154.478 79.1281C155.171 79.1281 155.758 78.8826 156.185 78.4131V79H156.985ZM154.766 78.5518C154.019 78.5518 153.496 78.0823 153.496 77.4314C153.496 76.7698 154.019 76.3003 154.766 76.3003C155.331 76.3003 155.875 76.5137 156.185 76.9405V77.9116C155.875 78.3384 155.331 78.5518 154.766 78.5518ZM156.793 71.5304H155.961L154.382 73.067H154.99L156.793 71.5304ZM162.879 79V75.3612C162.879 74.2408 162.314 73.7179 161.236 73.7179C160.457 73.7179 159.753 74.1661 159.39 74.5929V71.8825H158.59V79H159.39V75.2332C159.699 74.817 160.297 74.4329 160.916 74.4329C161.609 74.4329 162.079 74.6996 162.079 75.6067V79H162.879ZM168.756 79V75.3826C168.756 74.2621 168.191 73.7179 167.113 73.7179C166.345 73.7179 165.64 74.1661 165.278 74.5929V73.846H164.477V79H165.278V75.2332C165.576 74.817 166.174 74.4329 166.803 74.4329C167.497 74.4329 167.956 74.721 167.956 75.628V79H168.756ZM173.001 73.067L174.015 71.5304H173.47L172.617 72.6615L171.731 71.5304H171.187L172.233 73.067H173.001ZM172.681 79.1281C173.524 79.1281 174.217 78.8506 174.73 78.3384L174.345 77.8155C173.94 78.2317 173.342 78.4665 172.755 78.4665C171.646 78.4665 170.963 77.6555 170.899 76.6844H175.071V76.4817C175.071 74.9344 174.153 73.7179 172.595 73.7179C171.123 73.7179 170.056 74.9237 170.056 76.4177C170.056 78.029 171.155 79.1281 172.681 79.1281ZM174.281 76.0975H170.899C170.941 75.3079 171.486 74.3795 172.585 74.3795C173.759 74.3795 174.271 75.3292 174.281 76.0975ZM177.669 79.1281C178.139 79.1281 178.427 78.9893 178.63 78.7973L178.395 78.1997C178.288 78.3171 178.075 78.4131 177.851 78.4131C177.498 78.4131 177.328 78.1357 177.328 77.7515V74.5503H178.373V73.846H177.328V72.4374H176.527V73.846H175.674V74.5503H176.527V77.9222C176.527 78.6905 176.912 79.1281 177.669 79.1281ZM181.83 79.1281C182.673 79.1281 183.367 78.8506 183.879 78.3384L183.495 77.8155C183.089 78.2317 182.492 78.4665 181.905 78.4665C180.795 78.4665 180.112 77.6555 180.048 76.6844H184.221V76.4817C184.221 74.9344 183.303 73.7179 181.745 73.7179C180.272 73.7179 179.205 74.9237 179.205 76.4177C179.205 78.029 180.304 79.1281 181.83 79.1281ZM183.431 76.0975H180.048C180.091 75.3079 180.635 74.3795 181.734 74.3795C182.908 74.3795 183.42 75.3292 183.431 76.0975ZM191.522 79L194.393 71.8825H193.379L190.978 78.029L188.577 71.8825H187.564L190.423 79H191.522ZM198.637 79V75.4573C198.637 74.2088 197.73 73.7179 196.642 73.7179C195.799 73.7179 195.137 73.9954 194.582 74.5716L194.956 75.1265C195.414 74.6356 195.916 74.4115 196.535 74.4115C197.282 74.4115 197.837 74.8064 197.837 75.5V76.4283C197.421 75.9481 196.834 75.724 196.129 75.724C195.254 75.724 194.326 76.2683 194.326 77.4207C194.326 78.5412 195.254 79.1281 196.129 79.1281C196.823 79.1281 197.41 78.8826 197.837 78.4131V79H198.637ZM196.417 78.5518C195.67 78.5518 195.148 78.0823 195.148 77.4314C195.148 76.7698 195.67 76.3003 196.417 76.3003C196.983 76.3003 197.527 76.5137 197.837 76.9405V77.9116C197.527 78.3384 196.983 78.5518 196.417 78.5518ZM198.445 71.5304H197.613L196.033 73.067H196.642L198.445 71.5304ZM202.279 73.067L203.293 71.5304H202.749L201.895 72.6615L201.01 71.5304H200.465L201.511 73.067H202.279ZM201.874 79.1281C203.208 79.1281 203.901 78.4344 203.901 77.5701C203.901 75.564 200.711 76.3109 200.711 75.1798C200.711 74.721 201.148 74.3688 201.853 74.3688C202.514 74.3688 203.08 74.6463 203.389 75.0198L203.763 74.4649C203.347 74.0487 202.728 73.7179 201.853 73.7179C200.625 73.7179 199.932 74.4009 199.932 75.2012C199.932 77.1113 203.122 76.343 203.122 77.5914C203.122 78.1036 202.696 78.4771 201.906 78.4771C201.202 78.4771 200.551 78.1357 200.209 77.7408L199.793 78.3171C200.316 78.8719 201.031 79.1281 201.874 79.1281ZM207.528 79.1281C208.371 79.1281 209.064 78.8506 209.577 78.3384L209.192 77.8155C208.787 78.2317 208.189 78.4665 207.603 78.4665C206.493 78.4665 205.81 77.6555 205.746 76.6844H209.918V76.4817C209.918 74.9344 209 73.7179 207.442 73.7179C205.97 73.7179 204.903 74.9237 204.903 76.4177C204.903 78.029 206.002 79.1281 207.528 79.1281ZM209.128 76.0975H205.746C205.788 75.3079 206.333 74.3795 207.432 74.3795C208.606 74.3795 209.118 75.3292 209.128 76.0975ZM125.577 98L127.722 92.846H126.847L125.14 97.0716L123.422 92.846H122.557L124.702 98H125.577ZM128.952 92.1097C129.25 92.1097 129.496 91.8749 129.496 91.5761C129.496 91.2774 129.25 91.0319 128.952 91.0319C128.664 91.0319 128.418 91.2774 128.418 91.5761C128.418 91.8749 128.664 92.1097 128.952 92.1097ZM129.357 98V92.846H128.557V98H129.357ZM135.489 98V90.8825H134.688V93.6249C134.272 93.0594 133.643 92.7179 132.949 92.7179C131.594 92.7179 130.655 93.785 130.655 95.4283C130.655 97.1036 131.605 98.1281 132.949 98.1281C133.675 98.1281 134.304 97.7546 134.688 97.2317V98H135.489ZM133.141 97.4131C132.106 97.4131 131.487 96.5701 131.487 95.4283C131.487 94.2865 132.106 93.4329 133.141 93.4329C133.781 93.4329 134.4 93.817 134.688 94.2652V96.6021C134.4 97.0503 133.781 97.4131 133.141 97.4131ZM139.418 98.1281C140.261 98.1281 140.954 97.8506 141.467 97.3384L141.082 96.8155C140.677 97.2317 140.079 97.4665 139.492 97.4665C138.383 97.4665 137.7 96.6555 137.636 95.6844H141.808V95.4817C141.808 93.9344 140.89 92.7179 139.332 92.7179C137.86 92.7179 136.793 93.9237 136.793 95.4177C136.793 97.029 137.892 98.1281 139.418 98.1281ZM141.018 95.0975H137.636C137.678 94.3079 138.223 93.3795 139.322 93.3795C140.495 93.3795 141.008 94.3292 141.018 95.0975ZM145.356 98.1281C146.924 98.1281 147.906 96.9116 147.906 95.4177C147.906 93.9237 146.924 92.7179 145.356 92.7179C143.787 92.7179 142.805 93.9237 142.805 95.4177C142.805 96.9116 143.787 98.1281 145.356 98.1281ZM145.356 97.4131C144.257 97.4131 143.638 96.4741 143.638 95.4177C143.638 94.3719 144.257 93.4329 145.356 93.4329C146.455 93.4329 147.063 94.3719 147.063 95.4177C147.063 96.4741 146.455 97.4131 145.356 97.4131ZM156.241 98V94.3826C156.241 93.2621 155.675 92.7179 154.598 92.7179C153.829 92.7179 153.125 93.1661 152.762 93.5929V92.846H151.962V98H152.762V94.2332C153.061 93.817 153.659 93.4329 154.288 93.4329C154.982 93.4329 155.441 93.721 155.441 94.628V98H156.241ZM160.165 98.1281C161.008 98.1281 161.702 97.8506 162.214 97.3384L161.83 96.8155C161.425 97.2317 160.827 97.4665 160.24 97.4665C159.13 97.4665 158.447 96.6555 158.383 95.6844H162.556V95.4817C162.556 93.9344 161.638 92.7179 160.08 92.7179C158.608 92.7179 157.54 93.9237 157.54 95.4177C157.54 97.029 158.64 98.1281 160.165 98.1281ZM161.766 95.0975H158.383C158.426 94.3079 158.97 93.3795 160.069 93.3795C161.243 93.3795 161.755 94.3292 161.766 95.0975ZM164.652 96.6021V94.2652C164.93 93.817 165.559 93.4329 166.189 93.4329C167.235 93.4329 167.854 94.2865 167.854 95.4283C167.854 96.5701 167.235 97.4131 166.189 97.4131C165.559 97.4131 164.93 97.0503 164.652 96.6021ZM164.652 98V97.2317C165.036 97.7546 165.666 98.1281 166.392 98.1281C167.736 98.1281 168.686 97.1036 168.686 95.4283C168.686 93.785 167.736 92.7179 166.392 92.7179C165.687 92.7179 165.068 93.0594 164.652 93.6249V90.8825H163.852V98H164.652ZM172.241 98.1281C173.81 98.1281 174.792 96.9116 174.792 95.4177C174.792 93.9237 173.81 92.7179 172.241 92.7179C170.673 92.7179 169.691 93.9237 169.691 95.4177C169.691 96.9116 170.673 98.1281 172.241 98.1281ZM172.241 97.4131C171.142 97.4131 170.523 96.4741 170.523 95.4177C170.523 94.3719 171.142 93.4329 172.241 93.4329C173.34 93.4329 173.949 94.3719 173.949 95.4177C173.949 96.4741 173.34 97.4131 172.241 97.4131Z" fill="#515151"/>
<path d="M181.099 98L183.244 92.846H182.369L180.662 97.0716L178.944 92.846H178.079L180.224 98H181.099ZM183.791 100.017C183.94 100.059 184.207 100.091 184.377 100.091C185.06 100.081 185.583 99.7927 185.893 99.0457L188.475 92.846H187.6L185.893 97.0716L184.175 92.846H183.31L185.466 98.0534L185.124 98.8323C184.943 99.2592 184.708 99.3765 184.356 99.3765C184.228 99.3765 184.036 99.3445 183.919 99.2912L183.791 100.017ZM190.11 96.6021V94.2652C190.388 93.817 191.017 93.4329 191.647 93.4329C192.693 93.4329 193.311 94.2865 193.311 95.4283C193.311 96.5701 192.693 97.4131 191.647 97.4131C191.017 97.4131 190.388 97.0503 190.11 96.6021ZM190.11 98V97.2317C190.494 97.7546 191.124 98.1281 191.85 98.1281C193.194 98.1281 194.144 97.1036 194.144 95.4283C194.144 93.785 193.194 92.7179 191.85 92.7179C191.145 92.7179 190.526 93.0594 190.11 93.6249V90.8825H189.31V98H190.11ZM197.774 98.1281C198.617 98.1281 199.311 97.8506 199.823 97.3384L199.439 96.8155C199.033 97.2317 198.436 97.4665 197.849 97.4665C196.739 97.4665 196.056 96.6555 195.992 95.6844H200.164V95.4817C200.164 93.9344 199.247 92.7179 197.689 92.7179C196.216 92.7179 195.149 93.9237 195.149 95.4177C195.149 97.029 196.248 98.1281 197.774 98.1281ZM199.375 95.0975H195.992C196.035 94.3079 196.579 93.3795 197.678 93.3795C198.852 93.3795 199.364 94.3292 199.375 95.0975ZM202.261 98V94.3506C202.496 93.9344 203.168 93.5289 203.659 93.5289C203.787 93.5289 203.883 93.5396 203.979 93.5609V92.7393C203.275 92.7393 202.677 93.1341 202.261 93.6783V92.846H201.461V98H202.261ZM206.285 98.1281C206.754 98.1281 207.042 97.9893 207.245 97.7973L207.01 97.1997C206.904 97.3171 206.69 97.4131 206.466 97.4131C206.114 97.4131 205.943 97.1357 205.943 96.7515V93.5503H206.989V92.846H205.943V91.4374H205.143V92.846H204.289V93.5503H205.143V96.9222C205.143 97.6905 205.527 98.1281 206.285 98.1281ZM210.446 98.1281C211.289 98.1281 211.982 97.8506 212.494 97.3384L212.11 96.8155C211.705 97.2317 211.107 97.4665 210.52 97.4665C209.411 97.4665 208.728 96.6555 208.664 95.6844H212.836V95.4817C212.836 93.9344 211.918 92.7179 210.36 92.7179C208.888 92.7179 207.821 93.9237 207.821 95.4177C207.821 97.029 208.92 98.1281 210.446 98.1281ZM212.046 95.0975H208.664C208.706 94.3079 209.251 93.3795 210.35 93.3795C211.523 93.3795 212.036 94.3292 212.046 95.0975ZM220.565 98V97.3064H217.662L220.522 93.4542V92.846H216.638V93.5503H219.476L216.638 97.3811V98H220.565ZM150.781 116.128C152.137 116.128 153.076 115.082 153.076 113.418C153.076 111.742 152.137 110.718 150.781 110.718C150.056 110.718 149.415 111.091 149.042 111.614V110.846H148.242V117.963H149.042V115.221C149.458 115.797 150.077 116.128 150.781 116.128ZM150.579 115.413C149.949 115.413 149.319 115.029 149.042 114.581V112.255C149.319 111.806 149.949 111.433 150.579 111.433C151.614 111.433 152.233 112.276 152.233 113.418C152.233 114.559 151.614 115.413 150.579 115.413ZM155.149 116V112.351C155.383 111.934 156.056 111.529 156.546 111.529C156.675 111.529 156.771 111.54 156.867 111.561V110.739C156.162 110.739 155.565 111.134 155.149 111.678V110.846H154.348V116H155.149ZM160.122 116.128C161.691 116.128 162.672 114.912 162.672 113.418C162.672 111.924 161.691 110.718 160.122 110.718C158.553 110.718 157.572 111.924 157.572 113.418C157.572 114.912 158.553 116.128 160.122 116.128ZM160.122 115.413C159.023 115.413 158.404 114.474 158.404 113.418C158.404 112.372 159.023 111.433 160.122 111.433C161.221 111.433 161.829 112.372 161.829 113.418C161.829 114.474 161.221 115.413 160.122 115.413ZM168.267 116V112.361C168.267 111.241 167.701 110.718 166.623 110.718C165.844 110.718 165.14 111.166 164.777 111.593V108.883H163.977V116H164.777V112.233C165.087 111.817 165.684 111.433 166.303 111.433C166.997 111.433 167.466 111.7 167.466 112.607V116H168.267ZM170.665 116V108.883H169.865V116H170.665ZM174.47 108.53H173.638L172.059 110.067H172.667L174.47 108.53ZM173.062 116V110.846H172.262V116H173.062ZM176.718 110.067L177.732 108.53H177.187L176.334 109.662L175.448 108.53H174.904L175.95 110.067H176.718ZM178.34 116V115.306H175.437L178.297 111.454V110.846H174.413V111.55H177.251L174.413 115.381V116H178.34ZM182.018 116.128C182.861 116.128 183.554 115.851 184.067 115.338L183.682 114.816C183.277 115.232 182.679 115.466 182.093 115.466C180.983 115.466 180.3 114.655 180.236 113.684H184.408V113.482C184.408 111.934 183.49 110.718 181.932 110.718C180.46 110.718 179.393 111.924 179.393 113.418C179.393 115.029 180.492 116.128 182.018 116.128ZM183.618 113.098H180.236C180.278 112.308 180.823 111.38 181.922 111.38C183.096 111.38 183.608 112.329 183.618 113.098ZM188.383 110.067L189.396 108.53H188.852L187.999 109.662L187.113 108.53H186.569L187.614 110.067H188.383ZM187.977 116.128C188.916 116.128 189.471 115.744 189.866 115.232L189.332 114.741C188.991 115.2 188.553 115.413 188.02 115.413C186.921 115.413 186.238 114.559 186.238 113.418C186.238 112.276 186.921 111.433 188.02 111.433C188.553 111.433 188.991 111.636 189.332 112.105L189.866 111.614C189.471 111.102 188.916 110.718 187.977 110.718C186.441 110.718 185.406 111.892 185.406 113.418C185.406 114.954 186.441 116.128 187.977 116.128ZM193.314 116.128C194.157 116.128 194.851 115.851 195.363 115.338L194.979 114.816C194.573 115.232 193.976 115.466 193.389 115.466C192.279 115.466 191.596 114.655 191.532 113.684H195.704V113.482C195.704 111.934 194.786 110.718 193.229 110.718C191.756 110.718 190.689 111.924 190.689 113.418C190.689 115.029 191.788 116.128 193.314 116.128ZM194.915 113.098H191.532C191.575 112.308 192.119 111.38 193.218 111.38C194.392 111.38 194.904 112.329 194.915 113.098Z" fill="#6DC400"/>
<path d="M166.429 48C164.537 48 163 49.6192 163 51.6129V58.3871C163 60.3808 164.537 62 166.429 62H177.571C179.463 62 181 60.3808 181 58.3871V51.6129C181 49.6192 179.463 48 177.571 48H166.429ZM166.429 48.9032H177.571C179.003 48.9032 180.143 50.104 180.143 51.6129V58.3871C180.143 59.896 179.003 61.0968 177.571 61.0968H166.429C164.997 61.0968 163.857 59.896 163.857 58.3871V51.6129C163.857 50.104 164.997 48.9032 166.429 48.9032ZM170.252 51.6129C170.144 51.6218 170.044 51.6733 169.971 51.757C169.897 51.8408 169.857 51.9506 169.857 52.0645V57.9355C169.856 58.0429 169.891 58.1475 169.956 58.2302C170.021 58.313 170.112 58.3686 170.212 58.3871C170.314 58.4062 170.418 58.3862 170.507 58.3306L175.221 55.3952C175.286 55.3556 175.341 55.2985 175.378 55.2298C175.416 55.161 175.436 55.083 175.436 55.0035C175.436 54.9241 175.416 54.846 175.378 54.7773C175.341 54.7085 175.286 54.6515 175.221 54.6119L170.507 51.6764C170.43 51.6278 170.341 51.6056 170.252 51.6129ZM170.714 52.8619L174.15 55L170.714 57.1452V52.8619Z" fill="#6DC400"/>
<rect x="21.5335" y="17.5335" width="299.933" height="135.933" rx="13.953" stroke="#6DC400" stroke-width="1.06709" stroke-dasharray="6.4 6.4"/>
</g>
<defs>
<filter id="filter0_d_506_105868" x="0.919859" y="0.778943" width="352.738" height="188.738" filterUnits="userSpaceOnUse" color-interpolation-filters="sRGB">
<feFlood flood-opacity="0" result="BackgroundImageFix"/>
<feColorMatrix in="SourceAlpha" type="matrix" values="0 0 0 0 0 0 0 0 0 0 0 0 0 0 0 0 0 0 127 0" result="hardAlpha"/>
<feOffset dx="5.78862" dy="9.64771"/>
<feGaussianBlur stdDeviation="12.9344"/>
<feColorMatrix type="matrix" values="0 0 0 0 0.310333 0 0 0 0 0.554167 0 0 0 0 0 0 0 0 0.05 0"/>
<feBlend mode="normal" in2="BackgroundImageFix" result="effect1_dropShadow_506_105868"/>
<feBlend mode="normal" in="SourceGraphic" in2="effect1_dropShadow_506_105868" result="shape"/>
</filter>
</defs>
</svg>
